ply
format ascii 1.0
comment Exported from MorphoGraphX 2.0.1-254
comment Cell Graph: each vertex is a cell, each edge a wall
element vertex 794
property int label
property float x
property float y
property float z
element edge 2289
property uint source
property uint target
end_header
1 0 0 0 
2 0 0 0 
3 0 0 0 
4 0 0 0 
5 0 0 0 
7 0 0 0 
8 0 0 0 
9 0 0 0 
10 0 0 0 
11 0 0 0 
12 0 0 0 
13 0 0 0 
14 0 0 0 
15 0 0 0 
16 0 0 0 
17 0 0 0 
18 0 0 0 
19 0 0 0 
20 0 0 0 
21 0 0 0 
23 0 0 0 
24 0 0 0 
25 0 0 0 
26 0 0 0 
27 0 0 0 
28 0 0 0 
29 0 0 0 
30 0 0 0 
31 0 0 0 
32 0 0 0 
33 0 0 0 
34 0 0 0 
36 0 0 0 
37 0 0 0 
38 0 0 0 
39 0 0 0 
40 0 0 0 
41 0 0 0 
42 0 0 0 
43 0 0 0 
44 0 0 0 
45 0 0 0 
46 0 0 0 
47 0 0 0 
48 0 0 0 
50 0 0 0 
51 0 0 0 
52 0 0 0 
53 0 0 0 
54 0 0 0 
55 0 0 0 
56 0 0 0 
57 0 0 0 
58 0 0 0 
59 0 0 0 
60 0 0 0 
61 0 0 0 
62 0 0 0 
63 0 0 0 
64 0 0 0 
65 0 0 0 
66 0 0 0 
67 0 0 0 
68 0 0 0 
69 0 0 0 
71 0 0 0 
72 0 0 0 
73 0 0 0 
76 0 0 0 
77 0 0 0 
78 0 0 0 
79 0 0 0 
81 0 0 0 
82 0 0 0 
83 0 0 0 
84 0 0 0 
85 0 0 0 
87 0 0 0 
88 0 0 0 
89 0 0 0 
90 0 0 0 
92 0 0 0 
93 0 0 0 
94 0 0 0 
95 0 0 0 
97 0 0 0 
99 0 0 0 
100 0 0 0 
101 0 0 0 
103 0 0 0 
104 0 0 0 
105 0 0 0 
106 0 0 0 
107 0 0 0 
108 0 0 0 
109 0 0 0 
110 0 0 0 
111 0 0 0 
112 0 0 0 
113 0 0 0 
114 0 0 0 
115 0 0 0 
117 0 0 0 
118 0 0 0 
120 0 0 0 
121 0 0 0 
122 0 0 0 
123 0 0 0 
124 0 0 0 
125 0 0 0 
126 0 0 0 
128 0 0 0 
130 0 0 0 
131 0 0 0 
132 0 0 0 
134 0 0 0 
135 0 0 0 
136 0 0 0 
137 0 0 0 
139 0 0 0 
140 0 0 0 
141 0 0 0 
142 0 0 0 
143 0 0 0 
144 0 0 0 
145 0 0 0 
147 0 0 0 
148 0 0 0 
149 0 0 0 
150 0 0 0 
151 0 0 0 
152 0 0 0 
155 0 0 0 
156 0 0 0 
157 0 0 0 
158 0 0 0 
159 0 0 0 
160 0 0 0 
161 0 0 0 
162 0 0 0 
163 0 0 0 
164 0 0 0 
165 0 0 0 
166 0 0 0 
167 0 0 0 
168 0 0 0 
169 0 0 0 
170 0 0 0 
171 0 0 0 
172 0 0 0 
173 0 0 0 
174 0 0 0 
175 0 0 0 
176 0 0 0 
178 0 0 0 
179 0 0 0 
180 0 0 0 
183 0 0 0 
184 0 0 0 
185 0 0 0 
186 0 0 0 
187 0 0 0 
188 0 0 0 
189 0 0 0 
190 0 0 0 
192 0 0 0 
193 0 0 0 
194 0 0 0 
195 0 0 0 
197 0 0 0 
198 0 0 0 
199 0 0 0 
201 0 0 0 
202 0 0 0 
203 0 0 0 
204 0 0 0 
205 0 0 0 
206 0 0 0 
208 0 0 0 
209 0 0 0 
210 0 0 0 
211 0 0 0 
212 0 0 0 
213 0 0 0 
214 0 0 0 
215 0 0 0 
216 0 0 0 
217 0 0 0 
218 0 0 0 
219 0 0 0 
220 0 0 0 
221 0 0 0 
222 0 0 0 
223 0 0 0 
224 0 0 0 
225 0 0 0 
226 0 0 0 
227 0 0 0 
228 0 0 0 
229 0 0 0 
230 0 0 0 
231 0 0 0 
232 0 0 0 
233 0 0 0 
234 0 0 0 
236 0 0 0 
237 0 0 0 
238 0 0 0 
239 0 0 0 
240 0 0 0 
241 0 0 0 
242 0 0 0 
243 0 0 0 
244 0 0 0 
246 0 0 0 
247 0 0 0 
248 0 0 0 
249 0 0 0 
250 0 0 0 
251 0 0 0 
254 0 0 0 
256 0 0 0 
257 0 0 0 
258 0 0 0 
259 0 0 0 
260 0 0 0 
261 0 0 0 
262 0 0 0 
263 0 0 0 
264 0 0 0 
265 0 0 0 
266 0 0 0 
268 0 0 0 
271 0 0 0 
272 0 0 0 
273 0 0 0 
275 0 0 0 
276 0 0 0 
278 0 0 0 
280 0 0 0 
283 0 0 0 
284 0 0 0 
285 0 0 0 
286 0 0 0 
287 0 0 0 
288 0 0 0 
289 0 0 0 
291 0 0 0 
292 0 0 0 
294 0 0 0 
296 0 0 0 
297 0 0 0 
299 0 0 0 
300 0 0 0 
301 0 0 0 
302 0 0 0 
303 0 0 0 
304 0 0 0 
305 0 0 0 
307 0 0 0 
308 0 0 0 
312 0 0 0 
313 0 0 0 
315 0 0 0 
316 0 0 0 
317 0 0 0 
318 0 0 0 
320 0 0 0 
321 0 0 0 
322 0 0 0 
323 0 0 0 
325 0 0 0 
326 0 0 0 
327 0 0 0 
328 0 0 0 
329 0 0 0 
331 0 0 0 
332 0 0 0 
333 0 0 0 
334 0 0 0 
335 0 0 0 
336 0 0 0 
337 0 0 0 
338 0 0 0 
339 0 0 0 
340 0 0 0 
341 0 0 0 
342 0 0 0 
344 0 0 0 
345 0 0 0 
346 0 0 0 
347 0 0 0 
348 0 0 0 
349 0 0 0 
350 0 0 0 
351 0 0 0 
352 0 0 0 
353 0 0 0 
354 0 0 0 
355 0 0 0 
357 0 0 0 
358 0 0 0 
359 0 0 0 
360 0 0 0 
361 0 0 0 
362 0 0 0 
363 0 0 0 
364 0 0 0 
365 0 0 0 
366 0 0 0 
368 0 0 0 
369 0 0 0 
370 0 0 0 
371 0 0 0 
372 0 0 0 
375 0 0 0 
379 0 0 0 
380 0 0 0 
381 0 0 0 
383 0 0 0 
384 0 0 0 
385 0 0 0 
386 0 0 0 
387 0 0 0 
388 0 0 0 
389 0 0 0 
391 0 0 0 
392 0 0 0 
393 0 0 0 
395 0 0 0 
396 0 0 0 
398 0 0 0 
399 0 0 0 
400 0 0 0 
403 0 0 0 
404 0 0 0 
406 0 0 0 
407 0 0 0 
408 0 0 0 
409 0 0 0 
410 0 0 0 
411 0 0 0 
412 0 0 0 
413 0 0 0 
415 0 0 0 
416 0 0 0 
417 0 0 0 
418 0 0 0 
420 0 0 0 
422 0 0 0 
423 0 0 0 
424 0 0 0 
425 0 0 0 
426 0 0 0 
427 0 0 0 
428 0 0 0 
430 0 0 0 
431 0 0 0 
432 0 0 0 
433 0 0 0 
435 0 0 0 
436 0 0 0 
438 0 0 0 
443 0 0 0 
444 0 0 0 
445 0 0 0 
446 0 0 0 
447 0 0 0 
448 0 0 0 
449 0 0 0 
450 0 0 0 
451 0 0 0 
452 0 0 0 
453 0 0 0 
454 0 0 0 
455 0 0 0 
457 0 0 0 
458 0 0 0 
460 0 0 0 
461 0 0 0 
463 0 0 0 
464 0 0 0 
465 0 0 0 
466 0 0 0 
467 0 0 0 
468 0 0 0 
470 0 0 0 
471 0 0 0 
472 0 0 0 
473 0 0 0 
475 0 0 0 
476 0 0 0 
477 0 0 0 
478 0 0 0 
479 0 0 0 
480 0 0 0 
481 0 0 0 
482 0 0 0 
483 0 0 0 
484 0 0 0 
487 0 0 0 
488 0 0 0 
490 0 0 0 
491 0 0 0 
492 0 0 0 
493 0 0 0 
494 0 0 0 
495 0 0 0 
496 0 0 0 
497 0 0 0 
498 0 0 0 
499 0 0 0 
500 0 0 0 
501 0 0 0 
502 0 0 0 
503 0 0 0 
504 0 0 0 
505 0 0 0 
506 0 0 0 
507 0 0 0 
508 0 0 0 
509 0 0 0 
510 0 0 0 
511 0 0 0 
512 0 0 0 
513 0 0 0 
514 0 0 0 
515 0 0 0 
516 0 0 0 
517 0 0 0 
518 0 0 0 
519 0 0 0 
520 0 0 0 
521 0 0 0 
522 0 0 0 
524 0 0 0 
525 0 0 0 
526 0 0 0 
527 0 0 0 
528 0 0 0 
529 0 0 0 
531 0 0 0 
532 0 0 0 
534 0 0 0 
535 0 0 0 
536 0 0 0 
537 0 0 0 
538 0 0 0 
539 0 0 0 
541 0 0 0 
542 0 0 0 
543 0 0 0 
544 0 0 0 
545 0 0 0 
546 0 0 0 
547 0 0 0 
548 0 0 0 
550 0 0 0 
551 0 0 0 
552 0 0 0 
553 0 0 0 
556 0 0 0 
557 0 0 0 
558 0 0 0 
559 0 0 0 
560 0 0 0 
562 0 0 0 
563 0 0 0 
564 0 0 0 
565 0 0 0 
566 0 0 0 
567 0 0 0 
568 0 0 0 
569 0 0 0 
570 0 0 0 
571 0 0 0 
572 0 0 0 
573 0 0 0 
574 0 0 0 
576 0 0 0 
577 0 0 0 
578 0 0 0 
579 0 0 0 
580 0 0 0 
581 0 0 0 
582 0 0 0 
583 0 0 0 
585 0 0 0 
586 0 0 0 
587 0 0 0 
588 0 0 0 
591 0 0 0 
592 0 0 0 
593 0 0 0 
594 0 0 0 
595 0 0 0 
596 0 0 0 
598 0 0 0 
599 0 0 0 
600 0 0 0 
601 0 0 0 
602 0 0 0 
603 0 0 0 
605 0 0 0 
607 0 0 0 
608 0 0 0 
609 0 0 0 
610 0 0 0 
611 0 0 0 
612 0 0 0 
613 0 0 0 
614 0 0 0 
615 0 0 0 
619 0 0 0 
622 0 0 0 
623 0 0 0 
624 0 0 0 
625 0 0 0 
627 0 0 0 
628 0 0 0 
629 0 0 0 
630 0 0 0 
631 0 0 0 
632 0 0 0 
633 0 0 0 
634 0 0 0 
635 0 0 0 
636 0 0 0 
637 0 0 0 
638 0 0 0 
640 0 0 0 
641 0 0 0 
642 0 0 0 
643 0 0 0 
645 0 0 0 
646 0 0 0 
647 0 0 0 
649 0 0 0 
650 0 0 0 
651 0 0 0 
652 0 0 0 
653 0 0 0 
654 0 0 0 
655 0 0 0 
656 0 0 0 
657 0 0 0 
658 0 0 0 
659 0 0 0 
660 0 0 0 
661 0 0 0 
662 0 0 0 
663 0 0 0 
664 0 0 0 
665 0 0 0 
666 0 0 0 
667 0 0 0 
668 0 0 0 
669 0 0 0 
670 0 0 0 
671 0 0 0 
672 0 0 0 
673 0 0 0 
674 0 0 0 
675 0 0 0 
676 0 0 0 
677 0 0 0 
678 0 0 0 
679 0 0 0 
680 0 0 0 
681 0 0 0 
685 0 0 0 
686 0 0 0 
687 0 0 0 
688 0 0 0 
689 0 0 0 
690 0 0 0 
691 0 0 0 
692 0 0 0 
693 0 0 0 
694 0 0 0 
695 0 0 0 
696 0 0 0 
697 0 0 0 
698 0 0 0 
700 0 0 0 
706 0 0 0 
707 0 0 0 
708 0 0 0 
709 0 0 0 
710 0 0 0 
711 0 0 0 
712 0 0 0 
713 0 0 0 
714 0 0 0 
715 0 0 0 
717 0 0 0 
718 0 0 0 
719 0 0 0 
721 0 0 0 
723 0 0 0 
724 0 0 0 
725 0 0 0 
726 0 0 0 
727 0 0 0 
728 0 0 0 
729 0 0 0 
733 0 0 0 
734 0 0 0 
735 0 0 0 
736 0 0 0 
737 0 0 0 
739 0 0 0 
740 0 0 0 
742 0 0 0 
744 0 0 0 
745 0 0 0 
746 0 0 0 
749 0 0 0 
750 0 0 0 
751 0 0 0 
752 0 0 0 
753 0 0 0 
755 0 0 0 
756 0 0 0 
758 0 0 0 
759 0 0 0 
760 0 0 0 
761 0 0 0 
762 0 0 0 
764 0 0 0 
766 0 0 0 
767 0 0 0 
768 0 0 0 
769 0 0 0 
770 0 0 0 
772 0 0 0 
773 0 0 0 
775 0 0 0 
782 0 0 0 
783 0 0 0 
784 0 0 0 
785 0 0 0 
786 0 0 0 
788 0 0 0 
789 0 0 0 
790 0 0 0 
792 0 0 0 
793 0 0 0 
794 0 0 0 
795 0 0 0 
798 0 0 0 
801 0 0 0 
803 0 0 0 
804 0 0 0 
805 0 0 0 
806 0 0 0 
809 0 0 0 
810 0 0 0 
811 0 0 0 
812 0 0 0 
814 0 0 0 
815 0 0 0 
816 0 0 0 
818 0 0 0 
819 0 0 0 
820 0 0 0 
821 0 0 0 
822 0 0 0 
823 0 0 0 
824 0 0 0 
825 0 0 0 
842691 0 0 0 
842692 0 0 0 
842693 0 0 0 
842694 0 0 0 
842695 0 0 0 
842696 0 0 0 
842697 0 0 0 
842698 0 0 0 
842699 0 0 0 
842700 0 0 0 
842701 0 0 0 
842702 0 0 0 
842703 0 0 0 
842704 0 0 0 
842705 0 0 0 
842706 0 0 0 
842707 0 0 0 
842708 0 0 0 
842709 0 0 0 
842710 0 0 0 
842711 0 0 0 
842712 0 0 0 
842713 0 0 0 
842714 0 0 0 
842715 0 0 0 
842716 0 0 0 
842717 0 0 0 
842718 0 0 0 
842719 0 0 0 
842720 0 0 0 
842721 0 0 0 
842722 0 0 0 
842723 0 0 0 
842724 0 0 0 
842725 0 0 0 
842726 0 0 0 
842727 0 0 0 
842728 0 0 0 
842729 0 0 0 
842730 0 0 0 
842731 0 0 0 
842732 0 0 0 
842733 0 0 0 
842734 0 0 0 
842735 0 0 0 
842736 0 0 0 
842737 0 0 0 
842738 0 0 0 
842739 0 0 0 
842740 0 0 0 
842741 0 0 0 
842742 0 0 0 
842743 0 0 0 
842744 0 0 0 
842745 0 0 0 
842746 0 0 0 
842747 0 0 0 
842748 0 0 0 
842749 0 0 0 
842750 0 0 0 
842751 0 0 0 
842752 0 0 0 
842753 0 0 0 
842754 0 0 0 
842755 0 0 0 
842756 0 0 0 
842757 0 0 0 
842758 0 0 0 
842759 0 0 0 
842760 0 0 0 
842761 0 0 0 
842762 0 0 0 
842763 0 0 0 
842764 0 0 0 
842765 0 0 0 
842766 0 0 0 
842767 0 0 0 
842768 0 0 0 
842769 0 0 0 
842770 0 0 0 
842771 0 0 0 
842772 0 0 0 
842773 0 0 0 
842774 0 0 0 
842775 0 0 0 
842776 0 0 0 
842777 0 0 0 
842778 0 0 0 
842779 0 0 0 
842780 0 0 0 
842781 0 0 0 
842782 0 0 0 
842783 0 0 0 
842784 0 0 0 
842785 0 0 0 
842786 0 0 0 
842787 0 0 0 
842788 0 0 0 
842789 0 0 0 
842790 0 0 0 
842791 0 0 0 
842792 0 0 0 
842793 0 0 0 
842794 0 0 0 
842795 0 0 0 
842796 0 0 0 
842797 0 0 0 
842798 0 0 0 
842799 0 0 0 
842800 0 0 0 
842801 0 0 0 
842802 0 0 0 
842803 0 0 0 
842804 0 0 0 
842805 0 0 0 
842806 0 0 0 
842807 0 0 0 
842808 0 0 0 
842809 0 0 0 
842810 0 0 0 
842811 0 0 0 
842812 0 0 0 
842813 0 0 0 
1 2
1 3
1 4
1 5
1 26
2 3
2 134
3 4
3 134
3 135
3 136
3 137
4 26
4 137
4 140
5 7
5 26
5 733
7 8
7 9
7 26
7 574
7 733
8 9
8 10
8 11
8 26
9 10
9 574
10 11
10 573
10 574
11 12
11 13
11 14
11 15
11 16
11 26
11 27
11 573
11 579
12 13
12 14
12 24
12 27
13 14
14 15
14 17
14 23
14 24
15 16
15 17
16 17
16 18
16 19
16 579
16 603
17 18
17 23
18 19
18 20
18 23
19 20
19 21
19 603
20 21
20 23
21 23
21 31
21 601
21 602
21 603
21 842720
23 24
23 29
23 30
23 842719
23 842720
24 25
24 27
24 28
24 29
24 143
25 28
25 29
25 143
26 27
26 140
27 140
27 143
28 29
29 30
29 46
29 143
29 144
29 145
29 147
29 842709
29 842710
30 31
30 39
30 40
30 41
30 46
30 842719
31 32
31 39
31 285
31 600
31 602
31 842719
31 842720
32 33
32 36
32 38
32 39
32 285
32 286
32 288
33 34
33 36
33 37
33 283
33 288
33 756
33 758
33 760
33 842734
33 842735
34 52
34 55
34 56
34 58
34 60
34 315
34 317
34 758
34 759
34 760
36 37
36 38
37 38
37 756
38 39
38 47
38 756
39 40
39 42
39 43
39 47
40 41
40 42
41 42
41 46
42 43
42 44
42 45
42 46
43 44
43 47
44 45
44 47
45 46
45 47
45 107
45 108
45 110
45 147
46 147
47 48
47 107
47 756
48 50
48 52
48 107
48 756
48 759
48 842734
48 842735
48 842736
48 842737
50 51
50 79
50 107
50 842737
51 52
51 79
51 842737
52 53
52 55
52 77
52 78
52 79
52 81
52 82
52 759
52 842736
52 842737
53 54
53 55
53 77
54 55
54 77
55 56
55 57
55 77
56 57
56 58
57 58
57 77
58 59
58 60
58 62
58 76
58 77
58 814
59 62
59 66
59 68
59 814
59 842742
59 842743
60 61
60 62
60 278
60 280
60 317
60 842748
61 62
61 63
61 278
62 63
62 66
63 64
63 65
63 66
63 278
64 65
64 66
65 66
65 67
65 278
66 67
66 68
67 68
67 69
67 278
67 686
67 687
67 762
68 69
68 71
68 73
68 842742
68 842743
69 71
69 687
69 761
69 842746
69 842747
71 72
71 73
71 348
71 349
71 359
71 361
71 362
71 842746
72 73
72 90
72 362
72 363
72 366
73 87
73 89
73 90
73 814
73 842743
76 77
76 82
76 83
76 814
76 842740
76 842741
77 82
78 79
78 81
79 81
79 106
79 107
79 842738
79 842739
81 82
81 842738
82 83
82 105
82 106
82 782
82 842738
82 842739
82 842782
82 842783
83 84
83 101
83 782
83 784
83 842740
84 85
84 95
84 97
84 100
84 101
84 714
84 814
84 842740
84 842741
85 714
85 715
85 814
87 88
87 89
87 715
87 814
88 89
88 715
89 90
89 715
90 92
90 93
90 95
90 366
90 715
90 842744
90 842745
92 93
92 94
92 95
92 371
92 842744
92 842745
93 94
93 366
94 366
94 371
95 97
95 371
95 711
95 714
95 715
95 842745
97 99
97 100
97 711
97 842794
97 842795
99 100
99 130
99 131
99 417
99 842795
100 101
100 126
100 130
100 842785
101 120
101 121
101 124
101 126
101 783
101 784
103 104
103 105
103 783
104 105
104 120
104 783
105 106
105 117
105 118
105 120
105 783
105 842715
105 842716
105 842783
106 107
106 117
106 842739
107 108
107 109
107 112
107 113
107 117
108 109
108 110
109 110
109 112
110 111
110 112
110 113
110 147
111 112
111 113
112 113
113 114
113 115
113 117
113 147
113 178
113 184
113 185
113 718
114 115
114 717
114 718
115 117
115 717
117 717
117 842716
118 120
118 206
118 214
118 215
118 217
118 717
118 718
118 842715
120 121
120 215
120 783
120 842717
120 842718
121 122
121 123
121 124
121 128
121 215
121 216
121 217
121 842717
121 842718
122 123
122 125
122 128
122 130
122 842784
123 124
123 125
124 125
124 126
125 126
125 842784
125 842785
126 842785
128 130
128 217
128 681
128 842786
128 842787
130 131
130 273
130 719
130 798
130 842784
130 842785
130 842786
131 132
131 273
131 417
131 465
131 484
131 719
132 417
132 423
132 424
132 425
132 465
134 135
134 157
134 158
134 159
135 136
135 156
135 157
136 137
136 156
137 140
137 156
137 842708
139 140
139 141
139 151
139 152
139 155
139 842707
140 141
140 142
140 143
140 842707
140 842708
141 142
141 151
142 143
142 149
142 150
142 151
143 144
143 148
143 149
144 145
144 148
145 148
145 842709
145 842710
147 148
147 178
147 842710
148 149
148 176
148 178
148 842710
149 150
149 176
150 151
150 175
150 176
151 152
151 172
151 173
151 175
152 155
152 171
152 172
152 842706
155 156
155 157
155 816
155 842705
155 842706
155 842707
156 157
156 842707
156 842708
157 158
157 815
157 816
158 159
158 815
159 160
159 163
159 815
160 161
160 163
160 233
160 234
161 162
161 163
161 234
162 163
162 164
162 234
163 164
163 165
163 815
163 816
164 165
164 167
164 230
164 234
165 166
165 167
165 816
166 167
166 169
166 739
166 816
166 842705
167 168
167 169
167 230
168 169
168 230
169 170
169 230
169 739
170 192
170 193
170 197
170 198
170 230
170 739
171 172
171 173
171 739
171 842706
172 173
173 174
173 175
173 179
173 188
173 189
173 190
173 739
173 740
174 175
174 740
175 176
175 740
175 842711
175 842712
176 178
176 842711
178 179
178 180
178 183
178 184
178 842711
179 180
179 187
179 188
179 740
179 842711
179 842712
180 183
180 185
180 186
180 187
180 842713
180 842714
183 184
183 185
184 185
185 718
185 842713
186 187
186 202
186 205
186 206
186 718
186 786
186 842700
186 842714
187 188
187 786
188 189
188 195
188 786
188 842701
188 842702
189 190
189 192
189 739
189 842702
190 739
192 193
192 194
192 739
192 842701
192 842702
193 194
193 197
194 195
194 197
194 842701
195 197
195 201
195 202
195 786
195 842699
195 842701
197 198
197 199
197 201
198 199
198 225
198 228
198 230
198 238
198 259
199 201
199 224
199 259
199 842695
199 842696
201 202
201 222
201 698
201 842695
202 203
202 204
202 205
202 222
202 842699
202 842700
203 204
203 210
203 211
203 219
203 222
204 205
204 210
205 206
205 210
206 208
206 209
206 210
206 212
206 214
206 718
208 209
208 214
209 212
209 213
209 214
209 218
210 211
210 212
211 212
211 218
211 219
212 218
213 214
213 217
213 218
214 217
215 216
215 217
215 842717
215 842718
216 217
217 218
217 681
218 219
218 243
218 681
219 220
219 221
219 222
219 243
219 723
220 221
220 222
220 223
220 723
221 723
222 223
222 698
223 224
223 246
223 247
223 698
223 723
223 842691
223 842692
224 247
224 258
224 259
224 271
224 698
224 842696
224 842697
225 226
225 228
225 242
225 259
225 268
225 742
226 227
226 228
226 242
227 228
227 241
227 242
228 238
228 240
228 241
229 230
229 231
229 232
229 234
229 236
229 237
229 238
229 688
229 842703
229 842704
230 234
230 238
230 842703
231 232
231 233
231 688
232 233
232 234
233 234
234 842703
234 842704
236 237
236 688
236 690
236 691
237 238
237 239
237 241
237 691
238 239
238 240
239 240
239 241
240 241
241 242
241 260
241 263
241 691
241 693
242 262
242 263
242 264
242 268
242 744
242 745
243 244
243 256
243 681
243 723
243 724
243 725
244 251
244 254
244 257
244 679
244 723
244 724
244 725
244 842691
244 842692
246 247
246 249
246 250
246 251
246 842692
247 248
247 249
247 258
247 669
247 674
248 249
248 674
248 842693
249 250
249 257
249 700
249 842693
249 842694
250 251
250 257
251 257
251 842692
254 256
254 679
254 680
254 725
256 681
256 725
257 675
257 676
257 677
257 679
257 680
257 700
258 271
258 272
258 669
258 670
258 671
259 742
259 842697
259 842698
260 261
260 263
260 692
260 693
261 262
261 263
262 263
262 264
262 265
262 695
264 265
264 266
264 745
265 266
265 272
265 695
265 745
266 745
268 742
268 744
271 272
271 742
271 744
271 745
271 842697
271 842698
272 671
272 694
272 695
272 696
272 745
273 719
275 276
275 484
275 719
275 798
276 484
276 719
278 318
278 664
278 762
278 842748
280 312
280 313
280 317
280 318
280 842748
280 842749
283 287
283 288
283 289
283 300
283 301
283 303
283 304
283 760
283 812
284 285
284 292
284 596
284 599
284 600
284 624
284 625
284 728
284 842781
285 286
285 289
285 600
285 842781
286 287
286 288
286 289
287 288
287 289
289 291
289 300
289 842780
289 842781
291 292
291 300
291 842778
291 842779
291 842780
292 294
292 299
292 728
292 842779
292 842780
292 842781
294 296
294 299
294 728
296 297
296 299
296 627
296 728
296 729
297 613
297 614
297 627
297 729
299 729
299 842779
300 301
300 307
300 308
300 605
300 729
300 842778
301 302
301 303
301 305
301 307
302 303
302 304
302 305
303 304
304 305
304 812
304 842733
305 307
305 809
305 842732
305 842733
307 308
307 809
308 605
308 609
308 809
312 313
312 318
312 810
312 811
313 315
313 316
313 317
313 760
313 810
313 812
315 316
315 317
315 760
316 317
318 664
318 767
318 842748
318 842749
320 321
320 326
320 327
320 331
320 332
320 348
320 350
320 351
320 352
320 761
320 842747
321 322
321 325
321 326
321 761
321 842750
321 842751
322 323
322 325
322 663
322 665
322 667
322 668
322 761
322 762
323 325
323 660
323 668
325 326
325 660
325 661
325 662
325 842751
326 327
326 328
326 329
326 333
326 559
326 662
326 842750
326 842751
327 329
327 331
327 842772
328 329
328 333
329 333
329 334
329 842772
329 842773
331 332
331 334
331 335
331 336
331 842772
332 334
332 336
332 337
332 352
332 353
332 355
332 357
332 842754
333 334
333 559
333 563
333 565
334 335
334 336
334 337
334 347
334 565
334 566
334 570
334 842772
334 842773
335 336
337 338
337 339
337 346
337 347
337 357
337 825
338 339
338 825
339 340
339 342
339 357
339 825
340 341
340 342
340 357
340 358
340 389
340 785
341 342
341 785
342 344
342 544
342 546
342 553
342 785
342 825
342 842774
344 345
344 544
344 547
344 775
344 842774
344 842775
345 346
345 570
345 572
345 775
345 842775
346 347
346 570
346 825
346 842775
347 570
348 349
348 350
348 842746
348 842747
349 350
349 351
349 353
349 354
349 359
350 351
351 352
351 353
352 353
353 354
353 355
354 355
354 359
355 359
355 842754
355 842755
357 358
357 842754
357 842755
358 359
358 384
358 385
358 386
358 389
358 842755
359 360
359 361
359 384
359 842755
360 361
360 365
360 384
360 764
360 801
361 362
361 363
361 365
362 363
363 364
363 365
363 366
364 365
364 366
364 764
365 764
366 368
366 369
366 371
366 372
366 764
368 369
368 370
368 764
368 842758
368 842759
369 370
369 372
370 372
370 801
370 842758
371 372
371 711
371 712
372 375
372 712
372 713
372 801
372 805
375 407
375 420
375 712
375 713
375 824
375 842760
375 842761
379 380
379 381
379 801
379 805
380 381
380 801
381 801
381 803
381 805
381 842757
383 385
383 391
383 392
383 395
383 396
383 801
383 803
383 842756
384 385
384 801
385 386
385 387
385 391
385 801
386 387
386 388
386 389
387 388
387 391
388 389
388 391
389 391
389 785
389 842770
389 842771
391 392
391 393
391 842771
392 393
392 395
393 395
393 785
393 842771
395 396
395 398
395 785
395 842812
395 842813
396 399
396 400
396 403
396 427
396 428
396 803
396 842764
396 842765
396 842813
398 399
398 543
398 553
398 785
398 842812
398 842813
399 400
399 543
399 842813
400 403
400 535
400 541
400 543
400 818
400 842764
400 842765
400 842768
400 842769
403 427
403 818
403 842764
404 428
404 430
404 431
404 803
404 806
404 842762
404 842763
406 407
406 409
406 411
406 412
406 422
406 448
406 470
406 472
406 473
406 475
407 408
407 409
407 410
407 416
407 420
407 422
407 842761
408 409
408 410
408 411
409 411
410 411
410 413
410 416
411 412
411 413
412 413
412 415
412 444
412 445
412 447
412 448
413 415
413 416
413 842796
413 842797
415 416
415 430
415 435
415 444
415 449
415 452
415 453
415 842796
415 842797
416 430
416 432
416 433
416 713
416 805
416 842760
416 842761
416 842797
417 418
417 422
417 424
417 711
417 842794
417 842795
418 420
418 422
418 711
418 712
418 824
418 842792
418 842793
420 422
420 824
420 842793
422 424
422 425
422 426
422 472
422 842792
422 842793
423 424
423 425
424 425
425 426
425 465
426 464
426 465
426 466
426 468
426 470
426 471
426 472
427 428
427 430
427 435
427 818
427 819
427 842762
427 842763
428 803
428 842763
430 431
430 433
430 435
430 842762
431 432
431 433
431 804
431 806
432 433
432 804
432 805
435 436
435 438
435 449
435 819
435 842806
435 842807
436 438
436 443
436 842807
438 443
438 819
443 449
443 454
443 455
443 709
443 819
443 820
443 842806
443 842807
444 447
444 450
444 451
444 452
444 463
445 446
445 447
445 448
445 476
446 447
446 463
446 476
447 463
448 475
448 476
449 450
449 451
449 453
449 454
449 842806
450 451
450 454
450 460
450 463
450 842802
450 842803
451 452
451 453
452 453
454 455
454 458
454 842803
455 457
455 458
455 709
457 458
457 531
457 532
457 709
458 460
458 461
458 526
458 532
458 842802
458 842803
460 461
460 463
460 842801
460 842802
461 521
461 522
461 525
461 526
461 842800
461 842801
463 476
463 521
463 842800
463 842801
464 465
464 466
464 467
464 482
464 483
464 487
464 721
464 842788
464 842789
465 484
465 842788
466 467
466 468
467 468
467 487
468 470
468 481
468 487
468 488
468 842790
468 842791
470 471
470 472
470 473
470 842791
471 472
473 475
473 478
473 481
473 842791
473 842804
473 842805
475 476
475 842804
476 477
476 498
476 499
476 521
476 842804
477 478
477 480
477 495
477 498
477 842804
477 842805
478 479
478 480
478 481
478 842805
479 480
479 481
479 494
480 494
480 495
481 488
481 494
481 842790
481 842791
482 483
482 487
482 490
482 492
482 493
483 491
483 492
483 493
483 721
484 719
484 721
484 798
484 842788
487 488
487 490
488 490
488 494
488 842808
488 842809
490 491
490 493
490 506
490 511
490 515
490 842809
491 493
491 512
491 515
491 746
492 493
494 495
494 501
494 502
494 503
494 842808
494 842809
495 496
495 497
495 498
495 500
495 501
496 497
496 498
496 500
497 500
498 499
498 500
499 500
499 521
499 522
499 524
499 842798
500 501
500 842798
500 842799
501 503
501 504
501 520
501 524
501 842799
502 503
502 505
502 507
502 508
502 842809
503 504
503 505
503 520
504 520
505 508
505 510
505 511
505 517
505 518
505 519
505 520
506 507
506 509
506 510
506 511
506 842809
507 508
507 510
507 842809
508 510
509 510
509 511
510 511
511 514
511 515
511 516
511 517
512 513
512 515
512 516
512 685
512 746
513 514
513 515
513 516
514 515
514 516
516 517
516 685
517 518
518 519
519 520
521 522
521 842800
522 524
522 525
524 842798
524 842799
525 526
526 532
527 528
527 529
527 538
527 820
528 529
528 538
528 708
528 710
529 708
529 709
529 820
531 534
531 708
531 709
534 708
534 710
535 536
535 537
535 538
535 542
535 706
535 707
535 818
535 820
535 842768
536 537
536 818
536 821
537 820
537 821
538 539
538 706
538 707
538 710
538 820
539 706
539 710
539 755
541 542
541 543
541 556
541 557
541 706
541 755
541 842769
542 706
542 842768
542 842769
543 552
543 553
543 557
544 545
544 546
544 547
545 546
545 547
546 547
546 553
547 548
547 552
547 553
547 775
547 822
547 823
548 550
548 551
548 552
548 823
550 551
550 822
550 823
551 552
551 558
551 822
552 553
552 557
552 558
553 785
556 557
556 755
557 558
558 822
559 560
559 562
559 563
559 660
559 662
559 766
560 660
560 663
560 766
560 770
560 772
560 788
560 789
560 790
562 563
562 571
562 766
563 564
563 565
563 566
563 571
564 565
564 566
565 566
566 567
566 568
566 570
566 571
567 568
567 571
568 569
568 570
568 571
569 570
569 571
570 571
570 572
571 572
573 574
573 576
573 577
573 578
573 579
573 842721
574 629
574 733
574 734
574 736
574 842721
576 577
576 583
576 585
576 630
576 726
576 842721
576 842722
577 578
577 583
578 579
578 580
578 582
578 583
579 580
579 603
580 581
580 582
580 603
581 582
581 595
581 598
581 600
581 603
581 842810
582 583
582 591
582 594
582 595
583 591
583 726
585 586
585 628
585 630
585 633
585 726
585 842723
586 587
586 588
586 633
586 634
586 635
586 842723
586 842724
587 588
587 635
587 636
588 636
588 726
588 842724
591 592
591 594
591 636
591 640
591 726
592 593
592 594
592 619
592 640
593 619
593 640
594 595
594 619
594 622
594 623
595 596
595 623
595 842810
595 842811
596 598
596 599
596 622
596 623
596 624
596 727
596 842811
598 599
598 600
598 842810
598 842811
599 600
600 601
600 602
600 603
601 602
601 603
605 607
605 608
605 609
605 652
605 653
605 729
607 608
607 653
607 659
607 842731
608 609
608 659
609 610
609 611
609 659
609 809
610 611
610 809
610 811
611 811
612 613
612 650
612 651
612 652
612 729
613 614
613 649
613 650
613 729
613 842729
614 615
614 627
614 646
614 842728
614 842729
615 627
615 642
615 643
615 646
615 727
615 728
615 842727
619 622
619 640
619 641
619 842725
619 842726
619 842727
622 623
622 727
622 842725
622 842726
624 625
624 727
625 727
625 728
627 728
628 629
628 630
628 631
628 632
628 633
628 634
628 734
629 630
629 734
629 842721
629 842722
630 842722
631 634
631 635
632 633
632 634
633 634
634 635
635 636
635 637
636 637
636 638
636 640
636 726
637 638
638 640
638 753
640 641
640 753
641 642
641 643
641 750
641 751
641 752
641 753
641 842727
642 643
642 842727
643 645
643 646
643 752
645 646
645 647
645 752
646 647
646 842728
647 649
647 752
647 842728
647 842729
649 650
649 654
649 842729
650 651
650 654
651 652
651 653
651 654
651 655
652 653
652 729
653 655
653 656
653 842730
653 842731
654 655
654 657
655 656
655 657
656 657
656 842730
657 658
657 659
657 842730
657 842731
658 659
659 842731
660 661
660 662
660 663
660 668
661 662
663 664
663 665
663 668
663 767
663 768
663 790
664 665
664 666
664 667
664 762
664 767
665 666
665 667
666 667
667 762
669 670
669 674
670 671
670 674
671 672
671 673
671 674
671 696
671 697
672 673
672 695
672 696
672 697
673 674
673 675
674 675
674 842693
675 676
675 700
675 842693
675 842694
677 678
677 679
677 680
678 679
678 680
679 680
681 798
681 842787
685 746
686 687
686 762
687 761
687 762
688 689
688 690
689 690
691 692
691 693
692 693
694 695
694 696
695 696
696 697
698 842695
698 842696
700 842694
706 707
706 755
708 709
708 710
709 820
711 712
711 842794
712 824
713 805
713 842760
714 715
715 814
717 718
717 842715
717 842716
718 842713
718 842714
719 798
721 798
721 842788
721 842789
723 842691
724 725
726 842723
726 842724
727 728
727 842726
727 842727
729 842778
729 842779
733 736
733 737
734 735
734 736
734 737
735 736
735 737
736 737
739 842705
739 842706
740 842712
742 744
742 842698
744 745
749 750
749 752
750 751
750 752
750 753
751 752
756 842735
758 759
758 842734
759 842734
760 812
761 762
761 842747
764 801
764 842759
766 770
766 773
766 842777
767 768
767 769
768 769
768 790
768 792
770 772
770 842776
770 842777
772 773
772 788
772 794
772 842752
772 842753
772 842776
773 794
773 795
773 842776
773 842777
775 822
782 783
782 784
782 842782
783 784
783 842782
783 842783
785 842770
785 842771
786 842699
786 842700
788 789
788 790
788 842752
789 790
790 792
790 842752
792 793
792 794
792 842752
792 842753
793 794
794 795
794 842753
798 842786
798 842787
801 805
801 842756
801 842757
801 842758
801 842759
803 805
803 806
803 842756
803 842757
804 805
804 806
805 806
809 810
809 811
809 842732
810 811
810 812
810 842732
810 842733
812 842733
814 842741
814 842743
815 816
816 842705
818 819
818 821
818 842766
818 842767
819 820
819 842767
820 821
820 842766
820 842767
821 842766
822 823
825 842774
825 842775
842691 842692
842693 842694
842695 842696
842697 842698
842699 842700
842701 842702
842703 842704
842705 842706
842707 842708
842709 842710
842711 842712
842713 842714
842715 842716
842717 842718
842719 842720
842721 842722
842723 842724
842725 842726
842726 842727
842728 842729
842730 842731
842732 842733
842734 842735
842736 842737
842738 842739
842740 842741
842742 842743
842744 842745
842746 842747
842748 842749
842750 842751
842752 842753
842754 842755
842756 842757
842758 842759
842760 842761
842762 842763
842764 842765
842766 842767
842768 842769
842770 842771
842772 842773
842774 842775
842776 842777
842778 842779
842780 842781
842782 842783
842784 842785
842786 842787
842788 842789
842790 842791
842792 842793
842794 842795
842796 842797
842798 842799
842800 842801
842802 842803
842804 842805
842806 842807
842808 842809
842810 842811
842812 842813
