ply
format ascii 1.0
comment Exported from MorphoGraphX 2.0 1-254
comment Cellular mesh
element vertex 566
property float x
property float y
property float z
property float signal
element face 286
property list int int vertex_index
property int label
end_header
158.579 259.212 19.4955 4446.95
165.686 259.22 19.4955 5215.18
166.494 262.729 19.4955 4981.63
163.579 279.212 19.4955 4826.37
150.268 277.736 19.4955 3656.03
156.701 -176.848 19.4955 4586.03
167.111 -176.639 19.4955 4807.64
169.635 -146.631 19.4955 5058.11
132.736 -144.732 19.4955 5449.39
123.994 -172.271 19.4955 7101.69
110.28 99.647 19.4955 4757.87
130.272 98.3733 19.4955 4673.12
151.916 119.849 19.4955 4437.3
155.686 136.303 19.4955 4464.41
145.897 140.28 19.4955 4932.92
110.268 127.736 19.4955 4166.53
116.303 65.686 19.4955 3787.6
136.295 61.9123 19.4955 4098.65
141.295 81.9123 19.4955 3438.66
102.736 90.268 19.4955 5478.71
174.853 21.3031 19.4955 4104.86
173.16 30.0584 19.4955 3400.58
138.16 35.0584 19.4955 3310.74
141.709 4.42549 19.4955 2608.23
160.881 -12.2675 19.4955 3449.27
94.643 -350.357 19.4955 2669.36
99.0023 -360.998 19.4955 2383.95
148.369 -350.365 19.4955 2913.55
116.1 -344.517 19.4955 3998.21
341.904 -307.478 19.4955 5899.53
377.946 -284.322 19.4955 5059.53
367.729 -273.506 19.4955 5651.07
343.16 -284.525 19.4955 4990.14
327.729 -291.006 19.4955 6264.67
212.736 -219.732 19.4955 5504.85
221.908 -228.092 19.4955 4544.43
233.156 -205.578 19.4955 5579.94
222.736 -199.732 19.4955 5522.31
212.733 -209.119 19.4955 4813.16
94.8566 275.69 19.4955 5001.5
116.912 279.212 19.4955 3500.61
113.358 297.725 19.4955 3747.25
59.6391 286.506 19.4955 2998.62
59.4294 271.096 19.4955 4481.25
123.571 192.522 19.4955 4599.88
132.322 201.088 19.4955 5089.92
136.904 222.522 19.4955 5189.46
114.429 221.096 19.4955 6047.88
77.3146 223.148 19.4955 6135.07
65.0623 213.797 19.4955 4918.58
74.0023 201.502 19.4955 3897.98
101.303 129.853 19.4955 4763.97
64.2158 131.299 19.4955 3978.77
63.1518 108.785 19.4955 4297.32
85.0584 103.16 19.4955 4800.57
115.881 302.733 19.4955 2584.56
103.16 325.475 19.4955 2201.02
71.4944 312.729 19.4955 3778.1
43.7926 299.426 19.4955 2349.8
115.066 56.1 19.4955 5952.21
67.4279 70.5766 19.4955 6044.76
79.0101 60.2759 19.4955 5376.79
96.7014 8.15184 19.4955 2014.29
134.208 -7.47447 19.4955 2600.67
113.998 42.1154 19.4955 3613.46
88.9983 27.1154 19.4955 3679.09
65.0584 33.1597 19.4955 4364.85
72.3185 -8.29861 19.4955 2322.07
79.6391 -5.99381 19.4955 1886.45
36.0961 156.096 19.4955 3971.41
54.4215 158.156 19.4955 3874.43
78.7926 166.092 19.4955 3810.89
70.686 194.22 19.4955 3614.46
31.9163 190.682 19.4955 3535.21
479.633 -182.574 19.4955 5561.89
478.797 -169.938 19.4955 6097.22
474.635 -166.631 19.4955 4992.45
445.268 -172.264 19.4955 7147.46
443.361 -196.639 19.4955 8018.14
457.319 -201.215 19.4955 7783.61
432.522 21.9045 19.4955 4484.13
430.889 56.5062 19.4955 6715.76
422.326 65.0584 19.4955 7456.84
397.733 79.6312 19.4955 5751.96
385.062 51.7132 19.4955 5954.48
397.733 44.6312 19.4955 5001.1
423.575 21.9084 19.4955 3852.79
106.916 -324.318 19.4955 4023.4
123.16 -314.942 19.4955 4441.93
134.22 -284.314 19.4955 5330.06
106.908 -283.092 19.4955 6131.18
93.1558 -270.578 19.4955 6311.58
85.893 -279.107 19.4955 6493.03
84.4255 -321.207 19.4955 6224.5
438.156 116.088 19.4955 7862.11
461.1 110.483 19.4955 7929.49
472.529 95.6781 19.4955 7077.21
476.705 118.789 19.4955 6798.42
454.002 141.502 19.4955 8007.59
-3.91179 183.156 19.4955 3195.85
-14.732 162.736 19.4955 4834.17
-2.26746 155.881 19.4955 4124.08
20.268 157.736 19.4955 3924.92
342.725 103.358 19.4955 5842.64
350.272 117.123 19.4955 5073.33
327.119 140.885 19.4955 5739.63
299.002 154.002 19.4955 5552.64
283.148 122.315 19.4955 5615.42
294.426 108.793 19.4955 5413.08
264.635 -266.631 19.4955 4045.01
272.736 -254.732 19.4955 4680.12
277.736 -239.732 19.4955 5185.43
267.315 -236.852 19.4955 5086.77
227.733 -240.369 19.4955 5696.23
223.797 -259.938 19.4955 5812.37
237.526 -265.792 19.4955 5116.72
-80.7881 291.912 19.4955 3264.4
-87.2635 295.268 19.4955 4608.16
-134.322 272.529 19.4955 4323.42
-139.942 247.326 19.4955 3768.57
-132.275 243.358 19.4955 3551.83
-92.8885 247.111 19.4955 3091.16
242.942 -290.792 19.4955 6485.4
271.709 -275.574 19.4955 5346.02
-89.9416 213.16 19.4955 3575.92
-66.2113 203.789 19.4955 4608.53
-46.6306 204.635 19.4955 5517.98
-47.2635 235.268 19.4955 5250.96
-64.728 248.373 19.4955 5084.46
-79.1109 244.006 19.4955 3448.59
415.885 -176.631 19.4955 7507.94
405.479 -196.203 19.4955 6773.83
419.212 -196.421 19.4955 7254.33
424.426 -41.2074 19.4955 5389.37
417.115 -71.0017 19.4955 5595.23
425.276 -78.4899 19.4955 6641.31
461.494 -87.2714 19.4955 6315.8
469.212 -68.0877 19.4955 4312.71
442.111 -57.8885 19.4955 5551.93
283.789 -213.295 19.4955 5462.35
290.483 -180.567 19.4955 5864.73
289.002 -168.498 19.4955 5326.47
266.502 -170.998 19.4955 5774.58
252.729 -166.006 19.4955 4780.63
255.066 -210.567 19.4955 4332.41
267.946 -214.322 19.4955 5314.42
-128.506 212.729 19.4955 3978.77
-105.155 212.529 19.4955 4156.12
270.272 -132.877 19.4955 6025.7
257.942 -133.709 19.4955 5525.07
228.361 -127.889 19.4955 5702.47
221.506 -165.361 19.4955 5779.57
237.123 -164.728 19.4955 6195.76
182.725 302.108 19.4955 2991.86
468.148 43.1479 19.4955 7418.4
471.506 5.88908 19.4955 5310.06
489.635 3.36937 19.4955 4441.19
493.998 32.1154 19.4955 4584.47
399.849 -253.084 19.4955 7045.6
426.709 -230.575 19.4955 6529.39
405.889 -225.994 19.4955 6418.54
400.475 -226.84 19.4955 6466.26
394.006 -239.111 19.4955 5123.43
-99.732 172.736 19.4955 5542.32
-84.728 168.373 19.4955 4156.85
-65.3609 164.006 19.4955 5846.94
385.268 12.7365 19.4955 5151.65
410.276 1.51013 19.4955 3250.43
305.268 -317.264 19.4955 4873.52
326.295 -323.088 19.4955 5798.22
295.889 -293.494 19.4955 6667.68
277.736 -314.732 19.4955 5073.56
292.736 -279.732 19.4955 5587.77
317.111 -266.639 19.4955 5596.98
327.319 -251.215 19.4955 5344.69
298.156 -253.912 19.4955 5561.39
0.889076 -208.494 19.4955 4568.5
7.72466 -191.642 19.4955 6702.92
-5.36487 -186.631 19.4955 5703.29
-42.2675 -174.119 19.4955 4974.91
-67.2635 -169.732 19.4955 6432.18
-64.7202 -204.103 19.4955 7820.65
182.119 139.635 19.4955 5370.53
189.22 135.686 19.4955 6855.98
213.994 142.729 19.4955 7230.87
221.701 168.152 19.4955 7854.32
196.51 175.276 19.4955 7159.45
181.295 171.912 19.4955 6663.01
374.422 238.156 19.4955 4271.78
357.733 214.631 19.4955 4485.56
388.583 200.682 19.4955 5671.15
403.793 196.092 19.4955 4276
414.422 222.322 19.4955 5053.19
397.736 230.268 19.4955 4782.77
353.998 -252.885 19.4955 6234.67
332.729 -248.506 19.4955 4297.55
400.686 -260.78 19.4955 6479.08
274.002 -45.9977 19.4955 7907.15
260.268 -42.2635 19.4955 7343.74
235.058 -46.8403 19.4955 6175.23
239.01 -74.7241 19.4955 6546.75
273.152 -76.2153 19.4955 5441.78
-19.732 -327.264 19.4955 3137.3
-38.0916 -316.425 19.4955 3870.04
-65.9977 -313.498 19.4955 5156.95
-66.2153 -331.848 19.4955 4390.31
-73.4977 -350.998 19.4955 2655.71
-32.6736 -354.525 19.4955 2960.41
378.998 2.11543 19.4955 5719.34
312.319 -3.29861 19.4955 4910.01
302.119 -19.1149 19.4955 6151.88
311.303 -25.1473 19.4955 6960.32
353.148 -26.8521 19.4955 6135.64
382.733 -24.1188 19.4955 5837.24
301.713 -234.938 19.4955 3767.14
455.889 -258.494 19.4955 4188.5
437.725 -257.892 19.4955 7025.79
413.998 -261.635 19.4955 6738.09
398.365 -288.502 19.4955 5870.28
402.733 -295.369 19.4955 5632.41
417.416 -296.959 19.4955 2853.24
386.713 105.062 19.4955 6276.01
400.268 102.736 19.4955 8561.9
402.119 124.635 19.4955 6979.17
338.994 147.729 19.4955 6333.42
339.853 226.303 19.4955 5741.3
347.123 250.272 19.4955 4511.49
334.216 264.216 19.4955 4179.85
318.793 236.092 19.4955 4755.61
-122.471 -315.155 19.4955 4485.53
-128.084 -340.151 19.4955 2358.63
211.506 105.889 19.4955 5987.86
220.272 127.123 19.4955 6369.9
207.729 126.494 19.4955 6741.41
196.092 118.793 19.4955 6732.6
187.119 110.885 19.4955 5668.86
166.908 -291.425 19.4955 5776.07
166.506 -265.361 19.4955 5613.05
115.276 -255.99 19.4955 7840.31
107.736 -259.732 19.4955 7917.78
477.733 -134.119 19.4955 9024.09
454.849 -133.084 19.4955 8988.05
448.575 -156.425 19.4955 8346.74
467.522 -153.096 19.4955 7250.61
494.633 -147.574 19.4955 5423.03
493.686 -133.806 19.4955 7973.45
258.579 -373.705 19.4955 2939.18
291.502 -383.498 19.4955 2721.56
321.705 -368.295 19.4955 3217.93
318.797 -349.521 19.4955 4151.43
297.111 -352.889 19.4955 2917.34
278.369 -354.115 19.4955 3622.15
424.216 96.2992 19.4955 7096.99
380.276 84.0101 19.4955 4242.95
65.8851 -311.631 19.4955 4827.87
59.6312 -332.267 19.4955 3623.54
-22.8925 -262.275 19.4955 7355.85
-0.147336 -273.697 19.4955 5371.17
14.208 -277.058 19.4955 6738.51
24.6391 -240.994 19.4955 6846.01
0.689939 -235.143 19.4955 4811.76
-14.732 -232.264 19.4955 5877.78
157.526 174.208 19.4955 5466.06
142.119 165.885 19.4955 4943.96
-16.6346 201.498 19.4955 4831.7
-8.09159 216.908 19.4955 4702.05
-15.1434 240.69 19.4955 4637.9
130.897 -34.7202 19.4955 4259.99
190.268 -47.2635 19.4955 5557.77
194.433 -14.9337 19.4955 5135.53
187.115 -311.002 19.4955 3489.43
190.272 -296.627 19.4955 5180.67
173.575 -296.425 19.4955 5758.49
164.433 -314.517 19.4955 3419.44
450.268 -107.264 19.4955 7484.45
470.881 -107.267 19.4955 8355.22
468.369 -90.3649 19.4955 7151.68
413.797 -99.9377 19.4955 6419.83
234.212 -378.088 19.4955 2797.47
224.639 -395.994 19.4955 2635.52
-29.728 122.123 19.4955 4416.26
-36.2113 126.705 19.4955 4874.47
-78.2907 131.092 19.4955 3167.76
-94.7241 126.51 19.4955 3882.92
-94.732 102.736 19.4955 4261.62
-86.417 95.6821 19.4955 3711.31
-41.8521 98.1479 19.4955 5297.68
32.1194 -174.115 19.4955 7882.25
38.3654 -201.002 19.4955 7754
40.479 -208.287 19.4955 6417.3
60.6781 -207.471 19.4955 7260.48
81.5062 -219.111 19.4955 5632.13
96.0922 -193.291 19.4955 5352.9
94.6351 -187.881 19.4955 5668.42
-18.7048 268.579 19.4955 3707.86
-31.6385 293.361 19.4955 3651.2
-48.0877 299.212 19.4955 2843.6
-65.3688 292.733 19.4955 2427.74
-49.728 262.123 19.4955 4690.04
163.571 197.522 19.4955 5551.27
196.701 198.152 19.4955 6035.26
188.575 203.575 19.4955 6229.9
116.088 -226.844 19.4955 6691.1
134.208 -232.058 19.4955 6748.85
142.319 -211.215 19.4955 6655.04
-38.2947 88.7887 19.4955 4080.64
-84.9416 67.3264 19.4955 3894.47
455.272 17.1233 19.4955 5255.77
453.152 43.7847 19.4955 6629.69
168.785 227.319 19.4955 5609.38
112.123 245.272 19.4955 5406.39
-0.570571 -335.571 19.4955 3115.25
4.64302 -305.357 19.4955 4778.71
-7.67361 -304.525 19.4955 5664.95
-23.4977 -298.498 19.4955 5272.1
98.3654 -176.002 19.4955 6687.03
38.1479 -141.852 19.4955 8514.14
25.6821 -166.417 19.4955 7952.31
276.295 -16.421 19.4955 4535.55
302.736 15.268 19.4955 4175.96
288.571 7.52158 19.4955 4059.43
276.494 157.729 19.4955 5494.91
260.475 158.16 19.4955 6791.02
253.998 123.365 19.4955 6173.87
261.912 126.295 19.4955 6120.18
275.885 67.1194 19.4955 4407.47
310.475 52.3264 19.4955 3334.95
317.123 80.272 19.4955 4475.21
292.529 84.8448 19.4955 5727.54
272.942 91.2913 19.4955 4431.45
255.066 94.4334 19.4955 5286.58
346.912 159.212 19.4955 7459.53
317.736 175.268 19.4955 7450.83
279.006 180.889 19.4955 7596.71
281.908 13.5751 19.4955 3203.97
268.373 20.272 19.4955 3398.59
228.571 -2.06175 19.4955 4957.84
224.631 -27.2675 19.4955 5300.97
255.893 -19.107 19.4955 6478.92
193.365 -51.0017 19.4955 4744.35
192.729 -78.5056 19.4955 5024.6
221.299 -78.7008 19.4955 5026.17
422.733 -9.11881 19.4955 4232.65
435.268 -17.2635 19.4955 4084.84
406.908 -26.4249 19.4955 5765.31
397.733 -25.3688 19.4955 6164.92
396.299 -55.7842 19.4955 5303.97
221.709 246.092 19.4955 5645.78
213.148 233.148 19.4955 5768.18
213.361 198.361 19.4955 5961.09
232.736 205.268 19.4955 6810.33
255.881 232.733 19.4955 7214.36
248.369 240.885 19.4955 6165.84
19.4294 241.096 19.4955 4711.03
22.5255 266.291 19.4955 4841.11
6.29917 269.216 19.4955 3488.78
309.845 -212.471 19.4955 5388.45
-169.72 100.897 19.4955 3552.3
-7.26351 300.268 19.4955 2075.92
338.148 78.1479 19.4955 4885.99
346.092 96.7093 19.4955 5318.41
-93.0837 314.849 19.4955 2981.35
-122.271 306.494 19.4955 3879.18
-156.631 270.885 19.4955 2584.47
489.631 62.7325 19.4955 5086.93
464.857 75.6899 19.4955 8045.71
270.066 196.1 19.4955 7161.61
239.002 201.502 19.4955 6077.92
239.429 164.429 19.4955 7152.61
263.571 52.5216 19.4955 5055.15
212.736 75.268 19.4955 4512.8
205.268 72.7365 19.4955 3852.32
199.425 48.7926 19.4955 3874.19
232.736 40.268 19.4955 3077.3
260.066 36.1 19.4955 4512.42
335.272 193.373 19.4955 7822.96
327.736 210.268 19.4955 7772.27
290.272 217.123 19.4955 6298.56
185.893 234.643 19.4955 4217.94
206.096 261.096 19.4955 7225.06
161.809 -328.5 19.4955 3348.09
158.148 -322.685 19.4955 3204.44
-12.2714 331.494 19.4955 3159.21
5.68994 335.69 19.4955 2353.71
23.1597 345.475 19.4955 2832.34
26.1 360.066 19.4955 2493.16
-29.732 367.736 19.4955 4534.28
-24.1109 351.506 19.4955 5133.19
-66.2074 339.426 19.4955 4606.42
-84.7241 366.51 19.4955 5259.05
-89.3101 345.69 19.4955 4216.19
275.272 -87.8767 19.4955 6166.11
289.857 -89.3101 19.4955 5428.38
307.729 -88.5056 19.4955 7742.24
315.28 -59.103 19.4955 6934.92
310.69 -54.3101 19.4955 7919.63
206.908 276.908 19.4955 6906
246.904 267.522 19.4955 4901.49
264.208 272.942 19.4955 3846.33
253.055 290.27 19.4955 3799.65
441.912 -130.788 19.4955 7911.01
406.088 -127.678 19.4955 6903.99
399.216 -155.784 19.4955 7726.51
422.315 -151.852 19.4955 7596.42
349.216 -330.784 19.4955 4255.73
180.058 -266.84 19.4955 5030.1
184.006 -249.111 19.4955 6282.19
165.686 -243.697 19.4955 6228.8
260.268 -97.2635 19.4955 6031.71
225.889 -93.4938 19.4955 4471.24
213.797 -119.938 19.4955 5216.69
444.01 200.276 19.4955 6104.17
440.686 179.22 19.4955 5624.24
482.113 141.805 19.4955 3983.54
474.637 178.688 19.4955 2293.84
490.276 -75.9899 19.4955 3311.68
496.299 -58.7008 19.4955 1995.56
453.156 -33.9118 19.4955 6453.37
173.373 80.272 19.4955 4091.81
179.425 108.793 19.4955 4531.44
-137.877 -304.728 19.4955 4478.52
-185.365 -292.881 19.4955 3274.36
-194.732 -312.264 19.4955 2048.6
170.062 -116.203 19.4955 5010.79
137.736 -109.732 19.4955 5501.88
190.69 -149.31 19.4955 3977.83
190.268 -117.264 19.4955 4659.04
-85.5706 -305.571 19.4955 6464.36
-111.848 -288.299 19.4955 4174.2
-134.728 -287.877 19.4955 5188.81
-39.9377 -128.287 19.4955 6894.04
-34.732 -137.264 19.4955 7430.41
-7.88063 -150.365 19.4955 6977.22
35.272 122.123 19.4955 3938.96
444.22 -225.147 19.4955 7522.09
377.529 -315.155 19.4955 4393.9
443.152 81.7014 19.4955 7142.57
474.635 -216.631 19.4955 5812.39
458.16 -224.942 19.4955 7261.71
303.373 25.272 19.4955 4584.25
331.502 16.5023 19.4955 4408.21
338.156 44.4215 19.4955 4453.65
-40.9938 320.889 19.4955 5574.19
-58.5056 317.729 19.4955 4585.54
234.647 -294.72 19.4955 5968.23
211.502 -305.998 19.4955 4871.72
239.002 -315.998 19.4955 5117.25
201.705 -161.211 19.4955 4913.31
300.268 252.736 19.4955 4974.35
300.69 284.857 19.4955 4132.12
278.789 268.789 19.4955 4555.94
237.733 -344.119 19.4955 4332.82
221.092 98.7926 19.4955 5664.16
436.088 178.156 19.4955 4801.78
434.639 149.006 19.4955 6860.13
17.7247 302.108 19.4955 1983.61
325.479 -138.287 19.4955 5448.04
325.276 -128.49 19.4955 5446.69
295.889 -113.494 19.4955 5312.42
287.736 -139.732 19.4955 4554.6
293.365 -156.002 19.4955 5224.64
315.062 -151.203 19.4955 5867.17
387.736 -159.732 19.4955 7578.21
390.885 -121.631 19.4955 7109.81
346.299 -115.784 19.4955 5542.27
344.426 -148.291 19.4955 7268.18
357.729 -148.506 19.4955 6519.97
0.268017 -367.264 19.4955 2053.43
23.9944 -362.271 19.4955 3215.94
16.5062 -344.111 19.4955 2627.72
495.577 -77.5721 19.4955 4120.99
487.736 -94.732 19.4955 6865.12
509.635 -101.631 19.4955 4510.13
300.577 302.428 19.4955 3197.1
-178.299 -271.848 19.4955 3253.93
-197.265 -259.425 19.4955 2859.07
23.6838 94.0003 19.4955 2788.64
24.0062 115.889 19.4955 3198.6
-4.72016 120.897 19.4955 4511.46
402.319 158.785 19.4955 6926.22
413.575 163.575 19.4955 7111.74
420.268 192.736 19.4955 5251.97
365.881 177.733 19.4955 6981.56
372.315 162.315 19.4955 7479.96
-129.105 170.586 19.4955 5650.13
-135.365 128.369 19.4955 4958
269.429 -95.5706 19.4955 5996.38
-34.9377 168.797 19.4955 5537.84
407.736 130.268 19.4955 7716.43
180.268 57.7365 19.4955 3227.33
364.208 62.5255 19.4955 5628
390.475 -191.84 19.4955 7584.98
382.725 -216.642 19.4955 7683.97
273.789 221.705 19.4955 5464.38
120.881 -37.2675 19.4955 4116.46
203.047 -366.004 19.4955 2855.54
192.322 -205.578 19.4955 5619.66
185.058 -192.674 19.4955 5743.3
150.893 -209.107 19.4955 6318.31
182.522 -218.096 19.4955 5334.09
-43.9078 -226.207 19.4955 5385.06
-68.2907 -215.575 19.4955 7217.89
-99.7241 -235.99 19.4955 5388.12
-78.7048 -248.088 19.4955 6290.3
-66.2113 -258.295 19.4955 5147.47
-185.571 229.429 19.4955 4301.27
378.789 -91.2113 19.4955 5577.64
391.295 -96.421 19.4955 5988.62
390.28 -59.103 19.4955 5822.7
317.123 -209.728 19.4955 5406.43
324.845 -182.471 19.4955 4811.92
300.885 -182.881 19.4955 6320.94
455.272 -17.8767 19.4955 4947.18
482.729 -33.5056 19.4955 4006
-117.264 340.268 19.4955 2860.83
-165.578 -276.844 19.4955 4074.33
286.295 -103.088 19.4955 4992.62
120.69 159.857 19.4955 5028.85
105.475 163.16 19.4955 4476.18
-148.092 -246.425 19.4955 4075.22
349.643 -184.107 19.4955 7305.29
359.857 -189.31 19.4955 6911.31
381.291 -187.058 19.4955 7151.91
219.212 11.9123 19.4955 3768.19
-136.635 203.998 19.4955 5059.38
392.424 -325.685 19.4955 3292.84
34.8566 209.857 19.4955 6268.21
60.268 -277.264 19.4955 7798.69
40.272 -277.877 19.4955 7192.24
43.3733 -309.728 19.4955 6397.27
23.5751 236.908 19.4955 5166.95
-91.417 -264.318 19.4955 4618.76
-77.8806 -279.115 19.4955 5354.79
-45.7802 -280.147 19.4955 5108.96
-45.5785 -261.844 19.4955 7701.33
401.303 255.686 19.4955 3686
331.506 -225.361 19.4955 4681.75
348.369 -215.365 19.4955 6638.53
379.857 10.6899 19.4955 5365.49
57.9461 -359.322 19.4955 2834.01
364.643 -214.107 19.4955 7011.19
181.498 -321.635 19.4955 4818.22
214.643 -340.357 19.4955 5450.46
-116.421 -268.705 19.4955 4373.26
-138.092 -258.092 19.4955 3914.67
362.119 -55.3649 19.4955 6617.07
185.483 -223.9 19.4955 5205.15
100.268 -257.264 19.4955 6738.22
65.686 -240.78 19.4955 7920.67
55.0584 -246.84 19.4955 8136.07
181.299 -78.7008 19.4955 4052.48
173.365 -101.002 19.4955 4034.45
340.893 -89.107 19.4955 7025.39
331.908 -116.425 19.4955 6244.98
178.996 -76.953 19.4955 4613.86
163.688 -90.3629 19.4955 4019.78
111.498 -52.8846 19.4955 3466.38
352.111 -52.8885 19.4955 6217.26
336.506 -84.1109 19.4955 5944.38
60.686 249.22 19.4955 5266.7
96.7132 250.479 19.4955 5043.68
362.315 277.315 19.4955 3099.7
32.1154 -241.002 19.4955 8248.51
72.7286 323.994 19.4955 3086.63
502.121 -115.046 19.4955 8139.98
480.272 -107.877 19.4955 9063.58
7 201 391 392 393 394 395 197 41084
5 144 143 152 37 36 45291
7 447 497 496 38 37 152 151 44328
4 411 412 413 414 44495
4 154 155 156 157 44439
5 197 198 199 200 201 43994
5 149 408 409 410 150 45257
5 12 11 18 418 419 45249
4 180 179 431 430 44911
5 102 101 478 477 433 41488
7 197 395 211 210 318 338 198 44158
7 419 235 234 183 182 13 12 42697
6 36 35 113 112 145 144 45287
6 476 477 478 280 286 305 45381
6 108 328 327 359 360 103 45168
5 318 210 209 319 320 41700
6 487 281 280 478 101 100 45461
7 320 334 335 336 337 338 318 44509
5 230 229 420 421 422 45347
7 100 99 264 126 125 165 487 44302
9 334 439 440 441 326 325 369 374 335 45174
5 264 265 266 127 126 45241
6 321 322 323 324 107 106 44404
8 298 128 127 266 353 354 355 294 45238
4 305 286 285 306 45382
5 294 295 296 297 298 45239
6 182 187 262 263 14 13 45182
4 295 294 355 358 41785
5 325 326 327 328 329 45175
6 329 330 452 370 369 325 45176
7 358 455 383 382 442 296 295 45237
5 387 388 443 442 382 45014
6 328 108 107 324 330 329 41063
5 388 387 386 389 390 45453
6 382 383 384 385 386 387 45234
7 417 512 343 342 344 133 138 43167
5 138 137 415 416 417 45262
6 151 150 410 426 425 447 44394
7 287 288 289 290 291 292 293 45300
6 333 366 367 368 322 321 42375
7 321 106 105 224 331 332 333 44661
6 299 262 187 186 300 301 45180
5 157 364 365 308 154 44431
6 333 332 375 376 377 366 44681
7 479 480 481 191 190 482 483 45160
7 200 341 409 408 486 391 201 45258
6 483 331 224 223 488 479 43838
6 369 370 371 372 373 374 45459
5 339 340 341 200 199 43686
6 377 493 351 350 367 366 44567
5 282 281 487 165 164 45143
6 377 376 225 228 448 493 45163
7 448 450 398 397 352 351 493 45164
6 301 378 309 46 45 299 45179
5 399 398 450 449 473 44837
6 433 53 52 70 69 102 42988
7 378 348 347 379 2 1 309 45198
6 242 241 400 401 402 403 45272
4 505 119 118 363 45401
7 511 510 520 466 465 456 461 45452
6 93 254 255 25 28 87 44954
6 240 241 242 243 244 245 45273
4 206 205 229 230 45343
6 215 216 217 218 219 220 44905
4 175 214 111 110 45284
6 467 468 469 311 202 207 45345
6 202 311 312 313 314 203 44914
6 202 203 204 205 206 207 45342
5 364 96 95 436 365 43269
6 313 257 256 534 533 314 44805
7 159 158 196 217 216 438 434 42993
6 256 257 258 259 260 261 45436
5 261 500 504 534 256 45312
6 181 501 500 261 260 176 44893
6 176 177 178 179 180 181 44901
4 178 432 431 179 42488
4 86 85 166 167 45172
6 434 79 78 132 160 159 43015
5 430 431 432 317 316 45301
6 153 55 41 40 4 3 45210
5 500 501 502 503 504 44889
5 158 159 160 161 162 45276
9 162 194 195 174 173 32 31 196 158 45279
5 78 77 130 131 132 43078
3 153 56 55 45467
5 293 315 316 317 287 45298
8 170 172 123 122 444 445 446 171 45283
6 403 130 77 76 243 242 45274
5 344 345 346 134 133 44857
5 104 103 360 253 221 43509
6 221 222 223 224 105 104 44648
6 167 342 343 307 80 86 42063
6 400 274 277 507 463 401 43636
6 274 275 276 136 135 277 44538
6 145 112 111 214 356 139 41596
4 306 285 284 357 45383
7 143 142 148 149 150 151 152 45260
7 280 281 282 283 284 285 286 44795
7 139 140 141 142 143 144 145 45288
6 133 134 135 136 137 138 45319
6 269 337 336 523 20 24 44531
4 115 122 123 109 45134
7 109 110 111 112 113 114 115 45285
7 405 406 407 303 302 238 237 45292
4 247 246 278 279 45336
7 172 173 174 175 110 109 123 45282
6 103 104 105 106 107 108 45167
6 282 164 163 484 485 283 45385
6 69 73 99 100 101 102 45244
6 124 147 163 164 165 125 45019
6 246 247 248 249 250 251 45335
6 251 451 542 495 278 246 45129
6 124 125 126 127 128 129 45242
6 250 168 171 446 451 251 45334
6 413 412 453 454 98 97 44475
6 129 121 120 146 147 124 45387
6 168 169 29 33 170 171 45409
6 129 128 298 297 116 121 42662
7 87 88 89 90 91 92 93 44971
7 80 81 82 83 84 85 86 45170
6 307 155 154 308 81 80 45171
7 506 507 277 135 134 346 508 43666
6 116 117 118 119 120 121 45388
7 205 204 427 428 429 420 229 45047
7 442 443 361 117 116 297 296 45240
6 252 82 81 308 365 436 44407
5 118 117 361 362 363 45447
7 337 269 268 339 199 198 338 44453
6 139 356 509 510 511 140 45289
6 512 513 156 155 307 343 44338
4 422 421 474 475 45351
6 390 514 362 361 443 388 45473
5 148 142 141 460 459 41087
5 420 429 515 474 421 45348
7 459 458 516 486 408 149 148 44129
7 436 95 94 488 223 222 252 44436
4 475 474 515 519 45350
5 335 374 373 523 336 45177
6 94 98 454 480 479 488 44304
4 516 392 391 486 42350
6 82 252 222 221 253 83 43793
4 454 453 481 480 44558
4 334 320 319 439 40538
8 99 73 72 50 49 526 265 264 43595
6 411 192 191 481 453 412 45159
6 92 527 528 529 254 93 44961
5 265 526 530 353 266 41504
3 389 514 390 45472
6 531 532 533 534 504 503 45313
5 414 535 193 192 411 45184
5 435 404 249 248 525 45331
6 538 440 439 319 209 208 44582
4 525 220 219 435 45332
5 448 228 227 449 450 45165
7 219 218 30 29 169 404 435 45328
5 31 30 218 217 196 45280
3 539 468 467 45346
3 279 278 495 45338
6 313 312 529 528 258 257 42262
5 162 161 492 540 194 45277
7 541 542 451 446 445 271 270 45410
6 178 177 288 287 317 432 45435
6 429 428 543 544 519 515 45349
6 161 160 132 131 491 492 45034
5 270 273 381 380 541 45411
4 270 271 272 273 42915
7 405 237 236 272 271 445 444 44637
6 491 522 521 537 540 492 45270
6 444 122 115 114 406 405 44289
7 406 114 113 35 34 546 407 45286
5 462 466 520 521 522 45093
7 522 491 131 130 403 402 462 45275
6 546 499 498 304 303 407 45293
6 496 497 6 5 498 499 44824
5 497 447 425 7 6 45020
7 462 402 401 463 464 465 466 45271
7 358 355 354 43 42 58 455 45236
6 423 424 8 7 425 426 45090
8 426 410 409 341 340 550 551 423 45259
6 324 323 232 231 452 330 44569
6 463 507 506 552 553 464 44543
3 470 471 472 42261
4 550 554 555 551 45148
8 554 550 340 339 268 267 494 556 45252
6 24 23 63 267 268 269 44984
6 508 545 557 558 552 506 45095
6 456 457 458 459 460 461 43391
7 368 185 184 233 232 323 322 44435
4 90 239 547 91 37289
6 523 373 372 489 21 20 44551
6 508 346 345 213 212 545 45317
5 526 49 48 559 530 45462
7 489 17 16 59 64 22 21 45380
6 489 372 371 418 18 17 45250
5 120 119 505 524 146 45389
7 418 371 370 452 231 235 419 42965
6 208 209 210 211 212 213 44571
8 213 345 344 342 167 166 538 208 43689
6 182 183 184 185 186 187 44617
7 530 559 560 39 43 354 353 45106
7 85 84 490 441 440 538 166 45173
6 536 537 521 520 510 509 45123
6 83 253 360 359 490 84 45169
8 516 458 457 553 552 558 393 392 45256
4 551 555 424 423 45254
6 547 548 549 527 92 91 44979
6 347 348 349 350 351 352 44697
5 352 397 396 379 347 45197
4 437 438 216 215 42983
6 190 189 225 376 375 482 45157
7 547 239 238 302 291 290 548 45299
6 45 44 517 263 262 299 45181
6 314 533 532 427 204 203 44652
6 188 189 190 191 192 193 45158
4 396 397 398 399 45196
5 531 543 428 427 532 44390
5 193 535 561 226 188 45161
5 503 502 544 543 531 45314
6 469 255 254 529 312 311 43472
6 560 310 0 4 40 39 45209
7 259 562 289 288 177 176 260 41685
5 536 195 194 540 537 45278
5 302 303 304 292 291 45437
5 553 457 456 465 464 45156
6 383 455 58 57 563 384 45233
5 546 34 38 496 499 41982
5 250 249 404 169 168 45330
5 172 170 33 32 173 45281
4 244 243 76 75 45322
5 461 460 141 140 511 42206
5 94 95 96 97 98 44457
4 245 564 565 240 45320
4 513 512 417 416 45261
5 331 483 482 375 332 44671
7 292 304 498 5 9 315 293 45295
5 231 232 233 234 235 44572
4 234 233 184 183 43048
5 378 301 300 349 348 45178
6 212 211 395 394 557 545 44009
3 384 563 385 45448
4 485 357 284 283 45384
6 468 539 26 25 255 469 45341
6 258 528 527 549 562 259 42908
5 437 74 79 434 438 45325
6 400 241 240 565 275 274 44241
6 225 189 188 226 227 228 45162
6 476 60 54 53 433 477 44164
7 174 195 536 509 356 214 175 43906
6 564 472 471 276 275 565 42211
5 490 359 327 326 441 44609
6 471 470 415 137 136 276 45318
5 559 48 47 310 560 45243
5 227 226 561 473 449 45166
4 558 557 394 393 45255
4 556 494 68 67 45038
5 549 548 290 289 562 42913
7 185 368 367 350 349 300 186 44675
5 494 267 63 62 68 45407
6 74 75 76 77 78 79 44171
5 69 70 71 72 73 45245
5 62 65 66 67 68 45406
6 62 63 23 22 64 65 45405
0 -1
5 64 59 61 66 65 44714
6 59 16 19 54 60 61 45071
6 42 41 55 56 57 58 45232
7 19 10 15 51 52 53 54 45247
5 51 518 71 70 52 45246
0 -1
6 518 517 44 50 72 71 45092
7 44 45 46 47 48 49 50 45468
5 39 40 41 42 43 45235
5 34 35 36 37 38 45290
5 29 30 31 32 33 45327
5 484 163 147 146 524 45386
4 25 26 27 28 45340
5 20 21 22 23 24 45460
6 28 27 380 381 88 87 44693
6 90 89 236 237 238 239 44732
6 16 17 18 11 10 19 45248
6 10 11 12 13 14 15 45183
6 51 15 14 263 517 518 43186
6 47 46 309 1 0 310 43291
6 88 381 273 272 236 89 44729
5 5 6 7 8 9 45002
5 0 1 2 3 4 45208
