ply
format ascii 1.0
comment Exported from MorphoGraphX 2.0 1-254
comment Cellular mesh
element vertex 228
property float x
property float y
property float z
property float signal
element face 115
property list int int vertex_index
property int label
end_header
-17.223 -7.91286 17.8405 56980.1
-11.3279 -13.9286 16.9461 52178.7
-9.21476 -12.1935 17.5363 51881.9
-12.6385 -5.66963 19.0577 44743.2
-16.0378 -6.53894 18.4762 49024.7
37.2949 8.69255 0.642475 65055.7
35.5284 9.12662 2.38006 68162.3
33.1917 9.34372 4.45789 60976.4
31.0777 6.57504 6.62443 60768.7
34.8421 2.88104 4.03155 65054.9
37.6632 3.01996 1.30617 60863.4
-3.64076 -8.21926 18.3979 60762.7
-2.55873 -7.12038 18.5125 57859.7
-2.33506 -5.37054 18.7751 51984.1
-6.20382 -0.0785503 19.5727 52150.1
-10.3219 -2.41898 19.6093 56736
-11.8542 -2.79258 19.5453 44379.8
-5.24085 -11.5934 17.6641 48257.4
24.6968 16.4281 8.32879 57583.9
22.6472 20.0505 8.13328 59945.9
17.3214 21.0763 10.1911 49182.3
16.5114 19.6292 11.0926 57931.3
21.4663 13.4779 10.9088 56045.6
2.03847 -13.3664 16.654 59199.9
-2.94153 -15.2849 16.4825 52853.1
-0.46752 -15.3464 16.3326 49791.1
-6.97339 -18.7863 15.4729 53959.8
-2.52813 -22.2905 14.2712 51279.5
0.146807 -20.9052 14.5481 52505.8
0.606788 -18.999 15.1309 49324.6
3.13911 -23.8581 13.1958 54527.1
8.03321 -18.6824 14.2608 61240.3
8.28758 21.9066 12.8118 53534.8
15.4429 18.8267 11.7941 55095.3
17.1469 22.8254 9.50208 57046.9
9.47215 25.5194 10.8042 54746.3
8.58229 24.7557 11.4306 59155.5
20.3971 12.3518 11.6843 54005.4
21.6128 8.97296 11.8462 51916.2
24.7503 8.26689 10.3871 58645.7
29.0396 14.6418 6.1716 53715.3
27.4974 16.9257 6.40915 55980.7
25.1063 7.3209 10.3563 58370.5
27.7059 5.61179 9.06046 56622.9
31.9031 13.3619 4.45315 60973.8
-3.37892 5.22231 19.0923 53196.6
-7.22663 10.7756 18.709 41542.5
-10.9613 7.60798 19.3971 47958.2
-11.1062 7.16423 19.4522 44562.1
-5.19417 2.82524 19.4431 63540.1
-4.62287 3.46205 19.3542 64061.3
-14.235 3.9263 19.7064 44105.2
-13.5952 -0.116699 19.6979 55763.9
35.9926 -4.51322 3.5726 59682.1
40.4294 -2.70842 -0.853402 57117.8
40.8881 1.14546 -1.97163 51981.4
33.728 -3.24491 5.377 58166.1
-18.1942 -2.6329 18.882 61750.7
-18.2658 -2.57352 18.8771 61248
-23.4441 -4.25544 16.7645 57607.8
8.36331 -18.3725 14.2982 64291.2
4.34374 -12.5319 16.5597 65206.8
3.50843 -27.4743 11.6373 52893.3
13.0276 -31.2991 7.58579 64220.5
17.2155 -30.6148 6.86405 55495
16.8504 -24.5745 9.86334 61822.9
14.3709 -22.8671 11.2458 56139.4
12.4324 -21.767 12.1835 57326.7
10.205 -25.9282 11.024 63453
34.9413 15.2313 0.997621 62837
34.4163 15.2556 1.52989 64718.2
14.3622 14.9662 13.4292 45278.4
7.40916 21.2168 13.3254 44139.9
8.1288 18.8248 14.0618 53333.4
10.8199 15.559 14.3859 41929.9
-1.16345 37.5909 4.9324 71403.3
-8.38513 35.005 7.53571 66785.4
-6.04402 34.0641 8.29515 62617.2
-3.74558 33.197 8.78308 61939.8
0.0103807 36.3249 5.72684 59675.1
36.3238 15.8846 -0.812538 58663.5
37.8812 12.7289 -1.313 57589.6
40.7508 14.2141 -6.13525 47969.9
37.1575 19.0419 -3.83988 41421.3
3.28216 35.5204 5.76234 69842.2
6.13429 38.6135 2.68787 66544.6
29.6102 -0.345253 8.3388 62517.7
32.0635 -3.37014 6.64394 49921.2
27.4544 2.56439 9.5542 55339.4
36.2088 -8.43299 3.45298 69738.5
36.8077 -9.44959 2.95048 66606.1
41.2911 -8.50517 -1.25087 63087.4
5.89332 32.9193 7.19023 54382.4
4.33424 34.6806 6.20351 64830.7
-3.46939 31.4186 10.0889 57062.4
2.95709 29.3583 10.259 65722.9
38.4105 9.53978 -0.88422 60780.2
28.3933 -24.6222 5.88902 57350.5
32.6871 -21.2001 4.66921 69408.8
31.3514 -17.9552 6.02438 68337.5
27.5046 -18.9973 7.79967 64189.7
26.5736 -21.4807 7.59723 61667
11.9566 35.6894 3.07699 62502.8
12.0493 36.5314 2.30406 69768.1
11.2218 37.9206 1.44368 69702
0.945618 15.8475 16.5872 55396.4
-2.31722 17.0927 16.7144 48282.9
-4.50561 15.143 17.5222 53974.6
0.69601 9.83031 17.9863 63084.9
3.04578 12.505 17.0658 52063.4
2.59881 14.5946 16.6367 54186.7
-18.1917 4.06949 19.3814 46647.4
-14.2365 11.2964 18.9526 60440.8
-15.8508 10.3467 19.0655 60587.7
-18.2176 8.95274 19.0813 48295.2
0.386296 -4.47205 18.5296 52488.6
0.811051 -3.03491 18.5994 58350.7
0.639707 8.5979 18.1929 60976.2
-6.53885 13.8088 18.0536 45934.7
-1.11496 5.41923 18.8104 54425.6
9.23861 31.8047 7.06656 61966.1
12.3941 34.4807 3.94574 54600.9
20.9214 -19.3702 10.393 62343.5
20.9317 -16.935 11.096 61780.9
17.7258 -16.9749 12.2382 64459.1
20.2279 -22.072 9.76379 63908.1
-13.1627 30.5393 11.121 51201.4
-17.4801 27.8327 12.3878 60490.6
-14.8154 24.1906 14.9873 59732.4
-13.8444 23.9554 15.1482 61816.9
-10.0766 29.255 12.1567 65172.7
32.6659 -15.1682 5.61351 63809
29.7421 -13.0149 7.6454 59610.8
27.3078 -14.6892 8.73821 55184
27.207 -16.659 8.42407 63670.4
-2.02684 19.7278 15.8232 54483.5
-5.5235 21.0061 15.8559 62025.6
-8.41202 14.6848 18.0282 56717.3
14.7533 10.5354 14.3862 65499.6
18.5868 6.25256 13.6212 62936
16.1358 13.1671 13.2631 59144.7
-0.0205173 25.6726 12.9371 55403.1
3.02308 28.3981 10.8223 58770.6
-4.98808 28.3709 12.2869 55570.7
-2.13797 26.471 12.9139 55565.9
6.31026 -10.7926 16.6076 54968.1
6.15193 -7.66812 17.1534 61595.8
26.2969 -6.48096 10.3017 62763.6
25.2197 -5.23031 10.9881 66341.5
21.8264 -3.94372 12.7595 63518.2
18.5763 -7.75072 13.8269 54645.8
20.3965 -10.861 12.6619 66627.9
21.8418 -11.4578 11.9391 58715.9
-21.1547 13.1665 17.9533 52397.6
-17.5435 17.3955 17.4248 48547
-19.444 20.103 16.1528 58839.6
-24.0104 13.5132 17.0846 61664.2
41.6386 8.42198 -4.79884 58542.8
7.22267 0.0614886 17.4758 56292.9
3.22536 0.752553 18.3196 48768.7
7.09512 -5.90236 17.1797 57463.4
8.57567 -2.11264 17.1162 52950.7
35.6969 21.1936 -3.38206 44593.2
33.4592 21.0321 -0.593936 52561.9
31.784 20.8608 1.20704 58627.1
14.3823 -15.2684 13.7567 57419.2
11.95 -18.9945 13.2895 56702.9
22.2221 -0.0109949 12.5772 62720.1
-17.8433 22.1678 15.6203 64430.7
-15.6892 16.9205 17.7021 61331.8
-11.8427 17.2451 17.6041 53361
-10.6586 21.5612 16.1343 53937.2
19.0099 26.7082 6.61221 61844.8
21.1427 28.515 4.26895 52671.8
20.6398 30.0864 3.40711 62379.4
18.691 32.8819 2.36477 58929.3
16.4925 33.326 3.17887 52278.6
14.3379 29.3097 7.05108 62993.6
5.12365 6.15957 17.6872 62219.6
7.00902 9.73155 16.7755 43971.6
-9.69229 29.2295 12.1627 66681.8
28.8009 29.1534 -2.41343 43855.3
27.2975 27.4788 0.560955 57295.8
30.9995 21.0479 1.79569 50259.4
30.9698 27.85 -3.51894 43474.8
-19.6512 2.37235 19.1334 49123.4
-22.4524 2.05019 18.4502 52327.1
-24.9868 -1.49106 16.8546 53605
-10.8524 14.9683 18.1359 48758.2
-5.8954 21.944 15.5454 62143.1
-8.48791 23.1586 15.3328 50821.5
4.41394 22.0394 13.6978 54278.9
0.930601 23.5955 13.7451 47450.3
30.6571 -10.137 7.38 59317.2
30.2431 -7.488 7.81894 55440.9
22.9729 -13.899 10.9661 59053.2
14.3836 -14.2351 14.0295 63767.5
23.7886 22.3725 6.38943 62342.1
18.8505 25.3274 7.48234 60501.8
37.3947 -14.8754 2.27773 62351.7
36.2964 -13.9296 3.21267 62019.7
-20.1707 10.2714 18.6627 52585.7
-24.699 5.84256 17.9037 60330.1
24.2007 23.3958 5.59058 59808.8
24.0989 27.4282 3.10526 58512.2
10.1759 29.7729 8.15599 59669.9
20.2379 34.3888 -0.0229344 53767.9
20.0091 35.8742 -1.40699 63341.4
23.9026 32.5443 -1.11564 52688.8
22.4999 -23.1318 8.62878 66406.7
-25.7144 5.88766 17.5406 57124.6
3.22477 2.02723 18.3059 42395.6
28.9274 19.4366 4.35354 62030.5
20.8285 1.09303 13.1602 64426.4
15.7053 -7.40492 14.848 54371.5
13.3579 -11.4095 14.948 58369.4
20.7022 -30.4763 5.97199 60402.9
19.9351 1.29151 13.5315 62499.7
14.396 -3.9338 15.5058 58919
14.5426 -5.86292 15.341 61196.9
15.3945 3.79482 15.0762 55259.4
12.4987 -2.09842 16.1167 56290.2
17.3777 4.6468 14.288 57935.3
7.51355 -28.4547 10.4263 52317.9
11.8668 7.0708 15.8677 62484.4
12.0151 5.80313 15.9649 57199.4
-7.0378 27.7972 12.872 57394.2
8.49547 10.1944 16.3284 48949.1
5 123 122 134 133 195 1519
4 200 199 91 90 1566
6 193 132 131 200 90 89 1608
5 59 58 185 186 187 1670
6 174 173 204 182 181 208 1522
4 208 206 175 174 1645
5 113 112 188 170 169 1580
6 209 101 100 134 122 125 1471
6 89 53 56 87 194 193 1464
6 172 173 174 175 176 177 1634
7 206 207 103 102 121 176 175 1743
6 154 153 201 114 113 169 1830
6 116 159 211 119 45 50 1521
6 197 203 204 173 172 198 1635
5 199 200 131 99 98 1446
5 135 106 105 191 192 1640
8 169 170 171 129 128 168 155 154 1575
5 87 86 148 147 194 1445
7 124 123 195 152 151 196 165 1591
7 193 194 147 152 195 133 132 1533
3 128 127 168 1523
6 181 182 183 164 163 184 1611
5 165 166 67 66 124 1555
4 153 154 155 156 1476
6 147 148 149 150 151 152 1536
7 13 12 23 61 145 146 115 1715
6 19 18 41 212 203 197 1685
5 167 149 148 86 88 1610
6 131 132 133 134 100 99 1630
5 214 215 196 151 150 1596
5 156 210 202 201 153 1707
6 177 205 35 34 198 172 1659
5 88 43 42 213 167 1449
5 177 176 121 120 205 1544
8 150 149 167 213 217 218 219 214 1649
7 222 217 213 42 39 38 139 1450
6 139 138 224 225 220 222 1540
5 219 218 221 161 160 1609
5 138 139 38 37 140 1571
3 207 104 103 1747
4 187 186 202 210 1671
5 10 55 157 96 5 1516
6 140 71 74 227 224 138 1466
5 161 221 220 225 158 1657
4 101 209 216 97 1539
4 96 157 82 81 1653
5 183 182 204 203 212 1602
6 110 109 179 227 74 73 1633
7 158 159 116 115 146 160 161 1712
5 110 73 72 191 105 1615
6 192 141 144 189 136 135 1548
8 211 159 158 225 224 227 179 178 1664
5 125 65 64 216 209 1714
5 220 221 218 217 222 1826
4 178 117 119 211 1549
5 190 189 144 143 226 1642
6 180 130 129 171 190 226 1494
6 226 143 94 78 77 180 1579
5 130 180 77 76 126 1752
5 126 127 128 129 130 1647
7 196 215 145 61 60 166 165 1515
6 122 123 124 66 65 125 1553
5 178 179 109 108 117 1498
5 120 121 102 93 92 1749
7 117 108 107 118 46 45 119 1557
6 115 116 50 49 14 13 1583
7 111 51 48 47 112 113 114 1473
6 105 106 107 108 109 110 1556
6 85 84 93 102 103 104 1721
5 97 98 99 100 101 1570
6 81 80 69 6 5 96 1716
7 92 93 84 79 78 94 95 1490
7 95 142 36 35 205 120 92 1489
5 89 90 91 54 53 1828
6 106 135 136 137 118 107 1698
6 46 118 137 188 112 47 1493
7 188 137 136 189 190 171 170 1513
7 86 87 56 9 8 43 88 1582
4 84 85 75 79 1821
4 80 81 82 83 1499
5 75 76 77 78 79 1771
6 215 214 219 160 146 145 1704
3 184 163 162 1572
6 71 33 32 72 73 74 1586
7 36 142 141 192 191 72 32 1587
5 6 69 70 44 7 1681
6 141 142 95 94 143 144 1588
5 34 20 19 197 198 1827
6 63 64 65 66 67 68 1688
6 31 60 61 23 25 29 1690
7 83 162 163 164 70 69 80 1682
7 212 41 40 44 70 164 183 1699
6 53 54 55 10 9 56 1601
8 31 30 62 223 68 67 166 60 1675
7 14 49 48 51 52 16 15 1636
6 45 46 47 48 49 50 1590
7 42 43 8 7 44 40 39 1629
7 22 37 38 39 40 41 18 1606
6 37 22 21 33 71 140 1585
7 32 33 21 20 34 35 36 1607
4 29 28 30 31 1677
5 24 17 2 1 26 1654
6 26 27 28 29 25 24 1668
6 23 12 11 17 24 25 1691
5 18 19 20 21 22 1631
6 15 16 3 2 17 11 1679
5 11 12 13 14 15 1692
6 5 6 7 8 9 10 1496
5 52 57 4 3 16 1680
6 52 51 111 185 58 57 1693
4 62 30 28 27 1815
6 114 201 202 186 185 111 1508
5 4 57 58 59 0 1817
3 68 223 63 1667
5 0 1 2 3 4 1816
