ply
format ascii 1.0
comment Exported from MorphoGraphX 2.0.1-254
comment Cell Graph: each vertex is a cell, each edge a wall
element vertex 115
property int label
property float x
property float y
property float z
element edge 306
property uint source
property uint target
end_header
1445 0 0 0 
1446 0 0 0 
1449 0 0 0 
1450 0 0 0 
1464 0 0 0 
1466 0 0 0 
1471 0 0 0 
1473 0 0 0 
1476 0 0 0 
1489 0 0 0 
1490 0 0 0 
1493 0 0 0 
1494 0 0 0 
1496 0 0 0 
1498 0 0 0 
1499 0 0 0 
1508 0 0 0 
1513 0 0 0 
1515 0 0 0 
1516 0 0 0 
1519 0 0 0 
1521 0 0 0 
1522 0 0 0 
1523 0 0 0 
1533 0 0 0 
1536 0 0 0 
1539 0 0 0 
1540 0 0 0 
1544 0 0 0 
1548 0 0 0 
1549 0 0 0 
1553 0 0 0 
1555 0 0 0 
1556 0 0 0 
1557 0 0 0 
1566 0 0 0 
1570 0 0 0 
1571 0 0 0 
1572 0 0 0 
1575 0 0 0 
1579 0 0 0 
1580 0 0 0 
1582 0 0 0 
1583 0 0 0 
1585 0 0 0 
1586 0 0 0 
1587 0 0 0 
1588 0 0 0 
1590 0 0 0 
1591 0 0 0 
1596 0 0 0 
1601 0 0 0 
1602 0 0 0 
1606 0 0 0 
1607 0 0 0 
1608 0 0 0 
1609 0 0 0 
1610 0 0 0 
1611 0 0 0 
1615 0 0 0 
1629 0 0 0 
1630 0 0 0 
1631 0 0 0 
1633 0 0 0 
1634 0 0 0 
1635 0 0 0 
1636 0 0 0 
1640 0 0 0 
1642 0 0 0 
1645 0 0 0 
1647 0 0 0 
1649 0 0 0 
1653 0 0 0 
1654 0 0 0 
1657 0 0 0 
1659 0 0 0 
1664 0 0 0 
1667 0 0 0 
1668 0 0 0 
1670 0 0 0 
1671 0 0 0 
1675 0 0 0 
1677 0 0 0 
1679 0 0 0 
1680 0 0 0 
1681 0 0 0 
1682 0 0 0 
1685 0 0 0 
1688 0 0 0 
1690 0 0 0 
1691 0 0 0 
1692 0 0 0 
1693 0 0 0 
1698 0 0 0 
1699 0 0 0 
1704 0 0 0 
1707 0 0 0 
1712 0 0 0 
1714 0 0 0 
1715 0 0 0 
1716 0 0 0 
1721 0 0 0 
1743 0 0 0 
1747 0 0 0 
1749 0 0 0 
1752 0 0 0 
1771 0 0 0 
1815 0 0 0 
1816 0 0 0 
1817 0 0 0 
1821 0 0 0 
1826 0 0 0 
1827 0 0 0 
1828 0 0 0 
1830 0 0 0 
1445 1464
1445 1533
1445 1536
1445 1582
1445 1610
1446 1566
1446 1570
1446 1608
1446 1630
1449 1450
1449 1582
1449 1610
1449 1629
1449 1649
1450 1540
1450 1571
1450 1606
1450 1629
1450 1649
1450 1826
1464 1533
1464 1582
1464 1601
1464 1608
1464 1828
1466 1540
1466 1571
1466 1585
1466 1586
1466 1633
1466 1664
1471 1519
1471 1539
1471 1553
1471 1570
1471 1630
1471 1714
1473 1493
1473 1508
1473 1580
1473 1590
1473 1636
1473 1693
1473 1830
1476 1575
1476 1707
1476 1830
1489 1490
1489 1544
1489 1587
1489 1588
1489 1607
1489 1659
1489 1749
1490 1579
1490 1588
1490 1721
1490 1749
1490 1771
1490 1821
1493 1513
1493 1557
1493 1580
1493 1590
1493 1698
1494 1513
1494 1575
1494 1579
1494 1642
1494 1647
1494 1752
1496 1516
1496 1582
1496 1601
1496 1629
1496 1681
1496 1716
1498 1549
1498 1556
1498 1557
1498 1633
1498 1664
1499 1653
1499 1682
1499 1716
1508 1670
1508 1671
1508 1693
1508 1707
1508 1830
1513 1548
1513 1575
1513 1580
1513 1642
1513 1698
1515 1555
1515 1591
1515 1596
1515 1675
1515 1690
1515 1704
1515 1715
1516 1601
1516 1653
1516 1716
1519 1533
1519 1553
1519 1591
1519 1630
1521 1549
1521 1557
1521 1583
1521 1590
1521 1664
1521 1712
1522 1602
1522 1611
1522 1634
1522 1635
1522 1645
1523 1575
1523 1647
1533 1536
1533 1591
1533 1608
1533 1630
1536 1591
1536 1596
1536 1610
1536 1649
1539 1570
1539 1714
1540 1571
1540 1657
1540 1664
1540 1826
1544 1634
1544 1659
1544 1743
1544 1749
1548 1587
1548 1588
1548 1640
1548 1642
1548 1698
1549 1557
1549 1664
1553 1555
1553 1591
1553 1688
1553 1714
1555 1591
1555 1675
1555 1688
1556 1557
1556 1615
1556 1633
1556 1640
1556 1698
1557 1590
1557 1698
1566 1608
1566 1828
1570 1630
1571 1585
1571 1606
1572 1611
1572 1682
1575 1580
1575 1647
1575 1830
1579 1588
1579 1642
1579 1752
1579 1771
1580 1830
1582 1601
1582 1610
1582 1629
1583 1590
1583 1636
1583 1692
1583 1712
1583 1715
1585 1586
1585 1606
1585 1607
1585 1631
1586 1587
1586 1607
1586 1615
1586 1633
1587 1588
1587 1607
1587 1615
1587 1640
1588 1642
1590 1636
1591 1596
1596 1649
1596 1704
1601 1828
1602 1611
1602 1635
1602 1685
1602 1699
1606 1629
1606 1631
1606 1685
1606 1699
1607 1631
1607 1659
1607 1827
1608 1630
1608 1828
1609 1649
1609 1657
1609 1704
1609 1712
1609 1826
1610 1649
1611 1682
1611 1699
1615 1633
1615 1640
1629 1681
1629 1699
1631 1685
1631 1827
1633 1664
1634 1635
1634 1645
1634 1659
1634 1743
1635 1659
1635 1685
1635 1827
1636 1679
1636 1680
1636 1692
1636 1693
1640 1698
1645 1743
1647 1752
1649 1704
1649 1826
1653 1716
1654 1668
1654 1679
1654 1691
1654 1816
1657 1664
1657 1712
1657 1826
1659 1827
1664 1712
1667 1675
1667 1688
1668 1677
1668 1690
1668 1691
1668 1815
1670 1671
1670 1693
1670 1817
1671 1707
1675 1677
1675 1688
1675 1690
1675 1815
1677 1690
1677 1815
1679 1680
1679 1691
1679 1692
1679 1816
1680 1693
1680 1816
1680 1817
1681 1682
1681 1699
1681 1716
1682 1699
1682 1716
1685 1699
1685 1827
1688 1714
1690 1691
1690 1715
1691 1692
1691 1715
1692 1715
1693 1817
1704 1712
1704 1715
1707 1830
1712 1715
1721 1743
1721 1747
1721 1749
1721 1821
1743 1747
1743 1749
1752 1771
1771 1821
1816 1817
