ply
format ascii 1.0
comment Exported from MorphoGraphX 2.0.1-254
comment Cell Graph: each vertex is a cell, each edge a wall
element vertex 238
property int label
property float x
property float y
property float z
element edge 662
property uint source
property uint target
end_header
2834 0 0 0 
2836 0 0 0 
2847 0 0 0 
2848 0 0 0 
2852 0 0 0 
2857 0 0 0 
2858 0 0 0 
2859 0 0 0 
2860 0 0 0 
2861 0 0 0 
2862 0 0 0 
2867 0 0 0 
2868 0 0 0 
2869 0 0 0 
2870 0 0 0 
2871 0 0 0 
2873 0 0 0 
2874 0 0 0 
2875 0 0 0 
2877 0 0 0 
2878 0 0 0 
2879 0 0 0 
2880 0 0 0 
2881 0 0 0 
2882 0 0 0 
2883 0 0 0 
2884 0 0 0 
2888 0 0 0 
2889 0 0 0 
2890 0 0 0 
2891 0 0 0 
2895 0 0 0 
2896 0 0 0 
2899 0 0 0 
2900 0 0 0 
2902 0 0 0 
2905 0 0 0 
2906 0 0 0 
2907 0 0 0 
2909 0 0 0 
2914 0 0 0 
2916 0 0 0 
2920 0 0 0 
2922 0 0 0 
2924 0 0 0 
2925 0 0 0 
2929 0 0 0 
2931 0 0 0 
2933 0 0 0 
2934 0 0 0 
2935 0 0 0 
2937 0 0 0 
2939 0 0 0 
2940 0 0 0 
2942 0 0 0 
2943 0 0 0 
2944 0 0 0 
2946 0 0 0 
2949 0 0 0 
2951 0 0 0 
2953 0 0 0 
2954 0 0 0 
2957 0 0 0 
2958 0 0 0 
2959 0 0 0 
2960 0 0 0 
2963 0 0 0 
2973 0 0 0 
2975 0 0 0 
2977 0 0 0 
2979 0 0 0 
2982 0 0 0 
2985 0 0 0 
2989 0 0 0 
2990 0 0 0 
2996 0 0 0 
2999 0 0 0 
3000 0 0 0 
3002 0 0 0 
3005 0 0 0 
3006 0 0 0 
3007 0 0 0 
3008 0 0 0 
3009 0 0 0 
3010 0 0 0 
3011 0 0 0 
3014 0 0 0 
3017 0 0 0 
3018 0 0 0 
3019 0 0 0 
3022 0 0 0 
3023 0 0 0 
3025 0 0 0 
3031 0 0 0 
3032 0 0 0 
3033 0 0 0 
3035 0 0 0 
3036 0 0 0 
3037 0 0 0 
3039 0 0 0 
3041 0 0 0 
3043 0 0 0 
3044 0 0 0 
3046 0 0 0 
3047 0 0 0 
3048 0 0 0 
3049 0 0 0 
3050 0 0 0 
3051 0 0 0 
3053 0 0 0 
3055 0 0 0 
3056 0 0 0 
3060 0 0 0 
3062 0 0 0 
3063 0 0 0 
3064 0 0 0 
3066 0 0 0 
3067 0 0 0 
3068 0 0 0 
3074 0 0 0 
3077 0 0 0 
3078 0 0 0 
3079 0 0 0 
3080 0 0 0 
3081 0 0 0 
3082 0 0 0 
3084 0 0 0 
3086 0 0 0 
3087 0 0 0 
3088 0 0 0 
3089 0 0 0 
3090 0 0 0 
3091 0 0 0 
3093 0 0 0 
3094 0 0 0 
3096 0 0 0 
3097 0 0 0 
3098 0 0 0 
3105 0 0 0 
3108 0 0 0 
3109 0 0 0 
3110 0 0 0 
3111 0 0 0 
3113 0 0 0 
3115 0 0 0 
3117 0 0 0 
3118 0 0 0 
3119 0 0 0 
3120 0 0 0 
3121 0 0 0 
3122 0 0 0 
3123 0 0 0 
3124 0 0 0 
3125 0 0 0 
3126 0 0 0 
3129 0 0 0 
3130 0 0 0 
3133 0 0 0 
3135 0 0 0 
3136 0 0 0 
3137 0 0 0 
3138 0 0 0 
3139 0 0 0 
3141 0 0 0 
3142 0 0 0 
3145 0 0 0 
3147 0 0 0 
3149 0 0 0 
3150 0 0 0 
3151 0 0 0 
3152 0 0 0 
3153 0 0 0 
3154 0 0 0 
3155 0 0 0 
3157 0 0 0 
3159 0 0 0 
3161 0 0 0 
3162 0 0 0 
3163 0 0 0 
3167 0 0 0 
3168 0 0 0 
3169 0 0 0 
3170 0 0 0 
3172 0 0 0 
3173 0 0 0 
3175 0 0 0 
3176 0 0 0 
3178 0 0 0 
3179 0 0 0 
3180 0 0 0 
3181 0 0 0 
3182 0 0 0 
3184 0 0 0 
3185 0 0 0 
3186 0 0 0 
3188 0 0 0 
3191 0 0 0 
3192 0 0 0 
3193 0 0 0 
3194 0 0 0 
3197 0 0 0 
3198 0 0 0 
3200 0 0 0 
3201 0 0 0 
3202 0 0 0 
3204 0 0 0 
3206 0 0 0 
3208 0 0 0 
3209 0 0 0 
3210 0 0 0 
3211 0 0 0 
3212 0 0 0 
3213 0 0 0 
3214 0 0 0 
3215 0 0 0 
3220 0 0 0 
3224 0 0 0 
3227 0 0 0 
3229 0 0 0 
3230 0 0 0 
3233 0 0 0 
3235 0 0 0 
3236 0 0 0 
3237 0 0 0 
3238 0 0 0 
3239 0 0 0 
3240 0 0 0 
3241 0 0 0 
3246 0 0 0 
3247 0 0 0 
3248 0 0 0 
3250 0 0 0 
3252 0 0 0 
3253 0 0 0 
3254 0 0 0 
3262 0 0 0 
3263 0 0 0 
3264 0 0 0 
2834 2957
2834 2958
2834 3063
2834 3237
2834 3238
2836 2954
2836 2959
2836 3086
2836 3159
2836 3161
2836 3220
2847 2875
2847 2989
2847 3060
2847 3074
2847 3091
2847 3235
2848 2900
2848 2996
2848 2999
2848 3068
2848 3186
2848 3188
2852 2868
2852 3000
2852 3110
2857 2858
2857 2881
2857 3137
2857 3141
2857 3211
2857 3248
2857 3252
2858 3014
2858 3080
2858 3141
2858 3168
2858 3252
2859 2869
2859 2944
2859 2977
2859 3011
2859 3049
2859 3082
2860 2873
2860 3002
2860 3018
2860 3035
2860 3262
2861 3041
2861 3051
2861 3053
2861 3056
2861 3088
2861 3121
2861 3241
2862 2933
2862 2949
2862 2975
2862 3006
2862 3023
2862 3247
2867 3008
2867 3031
2867 3047
2867 3048
2868 3000
2868 3005
2868 3007
2868 3079
2868 3110
2869 2944
2869 3011
2869 3044
2869 3210
2869 3233
2869 3241
2869 3250
2870 2874
2870 2880
2870 3019
2870 3037
2870 3264
2871 2879
2871 2939
2871 3033
2871 3108
2873 2878
2873 3035
2873 3036
2873 3066
2873 3067
2873 3262
2874 2880
2874 2883
2874 3055
2875 2985
2875 3056
2875 3091
2875 3159
2875 3235
2877 2888
2877 2896
2877 3032
2877 3050
2877 3064
2877 3089
2878 2880
2878 3036
2878 3067
2878 3081
2879 2905
2879 2939
2879 3025
2879 3033
2879 3201
2879 3253
2880 2883
2880 3036
2880 3037
2880 3081
2881 2922
2881 3068
2881 3137
2881 3192
2881 3248
2882 3047
2882 3077
2882 3087
2883 2884
2883 3055
2883 3081
2883 3093
2883 3122
2884 3055
2884 3093
2884 3096
2884 3111
2888 2895
2888 2896
2888 3048
2888 3050
2888 3078
2889 2899
2889 3064
2889 3066
2889 3089
2889 3090
2889 3119
2890 2959
2890 2979
2890 3022
2890 3151
2890 3154
2891 2958
2891 3063
2891 3130
2895 2896
2895 3078
2895 3135
2895 3136
2895 3138
2896 3089
2896 3119
2896 3138
2896 3139
2899 2906
2899 3090
2899 3119
2899 3120
2899 3150
2899 3152
2900 2996
2900 2999
2900 3204
2900 3206
2900 3240
2902 2909
2902 3125
2902 3126
2902 3157
2902 3172
2905 2951
2905 3017
2905 3025
2905 3033
2906 3150
2906 3152
2906 3169
2906 3178
2906 3179
2907 2909
2907 2920
2907 2929
2907 3123
2907 3124
2909 2929
2909 3124
2909 3125
2909 3172
2909 3184
2914 2916
2914 2934
2914 3135
2914 3136
2914 3138
2914 3167
2914 3176
2916 2934
2916 2935
2916 3138
2916 3139
2916 3178
2920 2929
2920 2943
2920 3122
2920 3123
2920 3142
2920 3182
2922 2999
2922 3068
2922 3175
2922 3209
2922 3248
2924 2925
2924 3133
2924 3147
2924 3208
2924 3224
2925 3147
2925 3167
2925 3194
2925 3208
2929 2943
2929 3184
2929 3198
2931 3145
2931 3157
2931 3202
2933 3005
2933 3006
2933 3007
2933 3227
2933 3247
2934 2935
2934 2949
2934 3176
2934 3227
2934 3247
2935 2949
2935 3178
2935 3230
2937 2942
2937 3152
2937 3169
2937 3170
2937 3179
2937 3233
2939 3086
2939 3108
2939 3151
2939 3253
2940 3115
2940 3117
2940 3209
2940 3211
2940 3248
2942 3044
2942 3051
2942 3170
2942 3181
2942 3212
2942 3233
2943 2953
2943 3182
2943 3198
2943 3212
2943 3229
2943 3236
2944 2977
2944 3023
2944 3230
2944 3250
2946 3172
2946 3200
2946 3214
2946 3237
2946 3238
2949 3023
2949 3230
2949 3247
2951 3017
2951 3129
2953 3041
2953 3051
2953 3212
2953 3229
2954 3014
2954 3086
2954 3159
2954 3215
2954 3253
2954 3254
2957 2960
2957 2990
2957 3062
2957 3063
2957 3237
2958 3063
2958 3238
2958 3239
2959 2973
2959 2979
2959 3086
2959 3151
2959 3220
2960 2989
2960 2990
2960 3074
2960 3213
2960 3214
2960 3237
2963 2979
2963 3022
2963 3191
2973 2979
2973 3162
2973 3163
2973 3191
2973 3220
2975 2977
2975 3006
2975 3023
2975 3043
2975 3046
2977 3023
2977 3046
2977 3049
2979 3022
2979 3191
2982 3010
2982 3017
2982 3129
2982 3137
2982 3192
2982 3197
2985 3041
2985 3056
2985 3229
2985 3235
2989 2990
2989 3060
2989 3062
2989 3074
2989 3094
2990 3062
2996 3240
2999 3068
2999 3175
2999 3206
3000 3007
3000 3224
3000 3246
3002 3018
3002 3262
3002 3263
3005 3006
3005 3007
3005 3039
3005 3079
3006 3039
3006 3043
3006 3113
3007 3194
3007 3227
3007 3246
3008 3009
3008 3031
3009 3018
3009 3031
3009 3032
3010 3129
3010 3188
3010 3192
3011 3053
3011 3082
3011 3084
3011 3241
3014 3080
3014 3168
3014 3215
3014 3254
3017 3025
3017 3129
3017 3197
3018 3032
3018 3035
3019 3037
3019 3263
3019 3264
3023 3230
3025 3197
3025 3201
3031 3032
3031 3048
3031 3050
3032 3035
3032 3050
3032 3064
3035 3064
3035 3066
3036 3037
3036 3262
3037 3262
3037 3263
3039 3079
3039 3113
3041 3051
3041 3056
3041 3229
3043 3046
3043 3113
3043 3115
3044 3051
3044 3233
3044 3241
3046 3049
3046 3115
3046 3117
3047 3048
3047 3077
3048 3050
3048 3077
3048 3078
3049 3082
3049 3117
3049 3149
3051 3212
3051 3241
3053 3084
3053 3121
3053 3241
3055 3096
3056 3088
3056 3155
3056 3159
3060 3091
3060 3094
3060 3162
3062 3063
3062 3094
3062 3130
3062 3163
3063 3130
3064 3066
3064 3089
3066 3067
3066 3090
3067 3081
3067 3090
3067 3109
3068 3188
3068 3192
3074 3198
3074 3213
3074 3235
3074 3236
3077 3078
3077 3087
3077 3105
3078 3105
3078 3135
3079 3110
3079 3113
3079 3173
3079 3204
3080 3141
3080 3197
3080 3201
3080 3254
3081 3090
3081 3109
3081 3122
3082 3084
3082 3149
3082 3180
3084 3121
3084 3153
3084 3180
3086 3151
3086 3253
3087 3105
3087 3118
3087 3133
3088 3121
3088 3155
3088 3185
3089 3119
3090 3109
3090 3120
3091 3159
3091 3161
3091 3162
3093 3111
3093 3122
3093 3123
3094 3162
3094 3163
3096 3097
3096 3111
3096 3125
3097 3098
3097 3125
3097 3126
3098 3126
3105 3118
3105 3135
3108 3151
3108 3154
3109 3120
3109 3122
3109 3142
3109 3152
3110 3173
3111 3123
3111 3124
3111 3125
3113 3115
3113 3175
3113 3204
3113 3206
3115 3117
3115 3175
3115 3209
3117 3149
3117 3211
3118 3133
3118 3135
3118 3147
3119 3139
3119 3150
3120 3152
3121 3153
3121 3185
3122 3123
3122 3142
3123 3124
3124 3125
3125 3126
3126 3145
3126 3157
3130 3163
3130 3191
3130 3193
3133 3147
3135 3136
3135 3147
3135 3167
3136 3138
3137 3141
3137 3192
3137 3197
3138 3139
3139 3150
3139 3178
3141 3197
3142 3152
3142 3170
3142 3181
3142 3182
3145 3157
3147 3167
3149 3180
3149 3211
3150 3178
3151 3154
3152 3169
3152 3170
3153 3168
3153 3180
3153 3185
3153 3252
3155 3159
3155 3185
3155 3215
3157 3172
3157 3200
3157 3202
3159 3161
3159 3215
3161 3162
3161 3220
3162 3163
3162 3220
3163 3191
3167 3176
3167 3194
3168 3185
3168 3215
3168 3252
3169 3179
3170 3181
3172 3184
3172 3200
3172 3214
3173 3204
3173 3240
3175 3206
3175 3209
3176 3194
3176 3227
3178 3179
3178 3210
3178 3230
3179 3210
3179 3233
3180 3211
3180 3252
3181 3182
3181 3212
3182 3212
3184 3198
3184 3213
3184 3214
3185 3215
3186 3188
3188 3192
3191 3193
3194 3208
3194 3227
3194 3246
3197 3201
3198 3213
3198 3236
3200 3202
3200 3238
3201 3253
3201 3254
3202 3238
3202 3239
3204 3206
3204 3240
3208 3224
3208 3246
3209 3248
3210 3230
3210 3233
3210 3250
3211 3248
3211 3252
3213 3214
3214 3237
3224 3246
3227 3247
3229 3235
3229 3236
3230 3250
3235 3236
3237 3238
3238 3239
3253 3254
3262 3263
