ply
format ascii 1.0
comment Exported from MorphoGraphX 2.0 1-254
comment Cellular mesh
element vertex 473
property float x
property float y
property float z
property float signal
element face 238
property list int int vertex_index
property int label
end_header
-16.3295 20.7875 29.7862 54519.1
-14.1899 19.4125 30.7304 56087.8
-11.0681 21.1504 30.5131 57697.9
-11.7396 23.8498 29.3444 58997.3
-17.5023 22.756 28.612 56674.7
-12.9208 -2.60955 32.9871 57823.2
-10.2137 0.411595 33.3863 61531.3
-14.2638 6.15562 32.9589 58832.7
-15.725 5.97146 32.753 59979.9
-17.8435 2.96651 32.4469 56846.5
-14.5822 -1.91991 32.8325 56805.5
-17.7294 -3.63863 32.1805 62082.3
-17.9684 -4.85332 32.0228 62607.4
-13.9068 -9.19889 32.2133 58346.1
-11.4309 -8.0469 32.586 54597
-10.7865 -5.60377 32.8832 56622.9
-15.261 -47.8062 12.375 46957.5
-15.5855 -48.8524 11.1848 59879.1
-7.13788 -49.5596 11.0051 52024.4
-8.54043 -47.8182 12.8983 51216.4
-10.3819 -45.8323 15.0454 55447.3
-13.4104 27.3006 27.4304 52496.4
-14.5443 30.2769 25.5644 51425.7
-14.9839 30.7327 25.1832 53431.5
-20.3207 28.7406 24.6215 49655.2
-18.2053 26.4233 26.5728 47727.3
-17.3985 13.8187 31.5826 61156.9
-13.9591 14.4307 32.0757 54925.5
-13.8319 17.6382 31.3423 55412.3
-19.3982 18.4216 29.8615 57694.7
15.64 -16.3212 28.6865 57997.7
18.3082 -15.6504 27.9537 58712.1
21.4116 -11.3616 27.714 54486.5
18.9581 -7.89156 29.2806 60446.3
14.5938 -8.83995 30.5966 56691.5
12.6743 -11.0763 30.7348 60733.2
21.0957 -19.2885 25.6718 59895.3
19.6045 -17.567 26.9026 63042.6
16.033 -23.4285 26.1043 58887.2
18.0137 -24.4259 24.8697 61177
19.3332 -24.8306 24.0729 53430.5
20.4759 -24.0512 23.8863 50207.6
-14.5236 -28.6898 26.7419 59959
-11.0025 -33.2175 24.7188 61382.1
-8.57265 -31.6032 25.6847 57852.9
-8.58896 -29.3675 26.8581 57523
-9.95222 -26.6429 28.033 51943.7
-12.4825 -26.599 27.8288 56478.7
12.2365 -36.6444 19.3674 44515.2
17.2746 -36.243 17.9547 50376.3
19.1114 -32.3441 19.9636 54308.3
18.7107 -31.6931 20.5765 60024
12.1584 -34.6911 20.7684 58699.2
12.0139 -29.0907 24.6554 63122.5
12.4554 -30.7283 23.5368 55852.6
18.6782 -29.8598 21.768 59512.4
-16.2459 33.6412 23.0555 38568
-14.9009 35.089 22.5819 42098.2
-15.6348 36.8215 21.1774 45639.2
-16.4817 37.7784 20.1928 45177.3
-22.0922 33.638 20.8681 43259.4
-20.4714 32.2007 22.4582 40259.5
-22.6097 23.7945 26.492 51051
-21.3851 18.238 29.3044 55644.4
-18.8674 24.3758 27.4326 46874.6
-13.9774 -43.6319 16.9633 56602.7
-9.9685 -44.3255 16.5924 51395.1
-9.16681 -43.6228 17.2407 57886.8
-8.96051 -41.5227 18.9861 53185.8
-15.0825 -38.3824 21.1814 54323.2
-16.8225 -39.6852 19.9111 60224.6
-17.7468 -41.4185 18.2876 49094.8
-21.4177 -7.71313 30.7453 54448.5
-21.4687 -9.03996 30.5458 55652
-17.96 -11.5527 31.1125 54962.2
-15.9981 -11.7678 31.5074 51408.1
-20.2773 -14.6468 29.9705 54194.8
-23.9979 -10.6737 29.5837 58101.7
-14.8684 -23.6026 28.6891 58395.1
-15.1599 -20.6112 29.664 60599.7
-17.9344 -18.8451 29.5737 56309.4
-20.6143 -17.6054 29.2279 53889.9
-22.1782 -18.3722 28.6346 57545.8
-23.471 -20.1357 27.8405 57334.4
-22.783 -23.7646 26.9799 56388.7
-18.9416 -24.2872 27.7244 62826
-14.3257 -36.0552 22.8144 56884.4
-16.9791 -34.2572 23.5554 60142.5
-20.8763 -36.4702 21.4499 60718.2
-18.3858 9.16537 32.0712 63810.3
-23.6383 4.29375 30.9112 59349.5
-22.1908 2.36023 31.38 53832.8
-19.509 -42.1151 17.3275 50704.4
-19.2642 -45.7105 14.0408 52189.8
-17.0526 -46.5169 13.5509 49361.6
13.4372 31.5594 24.0898 49041.3
8.16377 35.3045 23.6591 41554.8
11.0429 30.6478 25.2719 52588
-23.3024 0.274671 30.9249 54617
-22.0161 -46.7886 12.2863 53764.4
-22.6948 -47.4105 11.3998 49098.9
-12.0421 -34.8055 23.7369 60002.2
-16.4307 -29.7153 26.0093 58682.9
-17.9288 -30.8277 25.2063 54740.9
10.0002 29.4216 26.121 49660.5
12.9997 24.4398 27.5156 51770.8
13.9554 24.6474 27.1114 49885.3
15.9479 26.7518 25.4674 50243.3
15.8174 29.0729 24.4418 48792.9
15.2459 11.9679 30.6218 63462.9
11.7035 16.4939 30.8725 59767.4
9.24004 16.2298 31.5157 49332.8
8.15864 12.5468 32.4354 54868.8
13.0048 10.193 31.6034 61526.7
-20.3565 28.9907 24.4633 50231.2
-23.0659 28.0505 24.0537 45717.1
-24.3741 24.1248 25.6613 51327.5
9.09899 0.952849 32.9241 55356.9
12.3571 2.36118 32.1649 62997.4
12.9809 3.17798 31.9745 59180
7.85607 6.19154 33.0733 61932.6
7.743 4.57791 33.183 61364.9
10.3691 -3.8957 32.3686 59705.5
12.3865 -5.15732 31.7468 61180.6
15.2758 -2.72621 31.1661 63586.1
8.93249 0.296596 32.9389 56626.3
25.4707 16.6769 24.3946 58564.7
29.624 13.5439 22.7902 48358.1
31.3099 14.9504 21.5446 50654.6
26.3332 18.9314 23.3179 50894.7
-23.4134 -37.1044 20.2758 50931.2
-22.9615 -40.6572 17.6964 50755.7
18.8633 -30.1932 21.4874 59077.2
11.8802 -32.9538 22.1248 54616.5
10.5071 -38.1912 18.8031 48192.9
10.5241 -39.526 17.8799 58096.8
16.5411 -40.6497 15.272 55697.3
19.0117 -38.2163 15.9331 52353.4
-24.3062 -26.3318 25.7166 56947.2
-22.0066 -30.6834 24.4634 55667.9
10.1789 -41.3039 16.7093 46770.5
11.9217 -42.9056 15.0718 50657.9
16.3714 -41.5932 14.6727 51773.6
-25.8235 17.3407 27.9497 58074.4
-28.226 14.948 27.6991 58052.6
-25.066 10.6421 29.9116 59146
-21.7409 12.506 30.7201 58775.8
-23.4205 15.8795 29.3408 56199.2
-27.1186 8.18258 29.36 55587.8
-25.484 5.22642 30.208 59253.5
-19.3813 12.2304 31.4206 56922.6
-24.2466 -33.0719 22.7329 58230.3
-25.1772 -35.5687 20.8279 49916.5
-26.4685 -11.9925 28.5768 56135.9
-25.5582 -14.7567 28.4288 62296.9
12.232 23.4496 28.1766 52674
6.60345 28.804 27.1392 50325.9
5.99104 24.6682 29.0733 42804.6
8.17344 22.4951 29.597 50157.1
-26.6791 -19.9103 26.9374 62196.8
-28.0851 -19.1348 26.6109 54351.4
9.33286 -11.9183 31.3147 59318.7
7.49077 -13.0479 31.4027 55123.8
9.08322 -17.6095 30.0477 58933.6
11.9087 -18.8321 29.0281 59358.6
12.4463 -21.1741 28.1008 58352.3
7.10656 -19.9608 29.7269 64387.9
6.86415 -22.5183 28.7603 61415.5
-29.4622 14.7863 27.1001 56433.2
-31.8911 11.9816 26.4067 54280.4
-30.4167 8.94139 27.6844 52229.1
-27.7144 -11.6446 28.1585 54592.8
-31.3686 -12.0113 26.5254 49859.6
-32.7019 -14.7556 25.4608 52372.9
-31.3881 -18.4123 25.3709 52939.3
-26.2445 -43.5315 14.3318 47560
-27.9876 -44.0392 13.1083 51196.5
-29.4741 -46.7534 9.31067 44168.6
21.9672 -39.0253 14.1569 47462.9
20.9506 -38.4285 14.9812 47960.7
-30.6133 20.2822 24.5738 49839.7
-31.9254 20.5099 23.7726 53174.2
-34.8552 17.0202 23.3949 53087.1
-34.721 14.0702 24.3202 48972.5
-30.6011 0.868681 28.0864 57489.3
-33.5388 5.25363 26.3927 50400.1
-33.8024 3.72135 26.3072 52652.7
-32.3828 1.93356 27.1611 57875.5
-29.9107 -3.64713 28.2036 56480.4
-33.7061 -5.44279 26.1674 46351.1
-34.2003 -25.9288 21.7482 58672.8
-30.7965 -23.2738 24.4525 60268.7
-33.0237 -19.92 24.254 53510.8
-35.449 -20.9523 22.6758 51756.8
-35.3409 -24.097 21.7793 55277.1
7.68852 -6.56522 32.555 64581.1
-34.2001 -28.257 20.7139 52389.9
-32.0975 -29.5153 21.2874 56753.1
-29.9095 -28.8056 22.8026 57482.9
-28.1378 -26.8082 24.3499 59439.5
-29.4267 -24.347 24.7122 57511.3
27.9511 9.25098 24.5961 56908.5
29.697 11.0843 23.2373 51118.9
25.3428 16.6428 24.4739 60483.9
23.9258 13.724 25.9694 58224.6
-33.1188 -46.4713 7.44991 43544.8
-29.841 -42.87 13.4324 37102.2
-31.4533 -42.2478 13.2196 47606.5
-33.6909 -43.3914 10.7069 46516.2
-36.1702 25.2769 18.9296 51843.1
-31.2934 27.4949 20.4043 51791.9
-31.8737 29.1507 19.0195 45570.1
-36.1722 24.0493 19.6258 49634.6
-33.4672 22.027 22.2097 50147.1
-29.7967 26.4817 21.8528 46485.3
25.8673 -2.31631 26.7001 55641.7
26.9014 -2.01817 26.1358 59671.6
28.1961 0.288717 25.3597 50247.8
23.6442 4.95181 27.5839 50323.2
22.4173 2.56951 28.4112 61313.9
29.3908 3.50492 24.4742 49840.1
31.9092 3.83078 22.8503 55547.1
31.6495 10.2676 22.2083 43459.7
26.8377 7.48761 25.5222 49509.2
6.96427 -32.1652 23.8592 58251.2
4.90008 -34.7752 22.4928 55623.1
4.99452 -35.2687 22.1395 54559.9
8.08328 -37.5251 19.8866 57400.2
-36.1535 -13.9372 23.8234 54912.7
-35.0667 -14.72 24.2882 54894.9
-34.8165 -5.21371 25.5966 54552.2
-37.1395 -20.4086 21.8034 55274.8
-31.4725 -37.0207 17.429 52061
-30.5873 -36.0167 18.4467 50387.6
-32.5204 -33.3063 19.0936 54724
-36.4632 -33.2745 17 48463.5
-35.7176 -38.2262 14.2417 49353.6
-33.0682 -38.0339 15.9147 48245
-41.1182 20.8898 17.9243 47297.2
-38.6258 19.0279 20.4614 49331.7
27.7873 -7.12287 25.3648 59788.2
26.3542 -8.83334 25.939 61724.8
25.056 -11.7795 26.0182 59442.1
26.5009 -13.5876 24.8152 55372.4
27.9702 -13.6515 24.0197 62099.8
-38.5947 13.3049 22.285 52470.7
-36.2963 13.0686 23.6636 49538.8
-39.1072 7.02107 23.0491 52415.1
-36.7311 3.05411 24.5886 51940.2
-39.8986 11.8582 21.8463 46957.1
-37.012 -4.88485 24.4421 50305.5
-39.4485 -0.374523 23.2041 52515.7
-37.8465 -13.9344 22.795 55592
-39.7476 -16.0035 21.1818 54487.7
-39.4752 -19.9806 20.4433 50863.1
-40.1221 -24.4869 18.688 55966.5
-40.3729 -25.4619 18.1686 54492
-37.6496 -28.5587 18.6075 50671.2
6.28531 35.4313 23.9595 46369.6
-0.644392 36.7557 23.8959 46050.4
-0.082315 35.5065 24.5552 43787
5.18978 33.9016 24.9381 48176.8
-26.794 31.8642 19.9515 49713
-23.987 34.5118 19.462 48610.3
-24.5273 36.1488 18.181 50924.8
-29.4522 32.0334 18.5488 52016.2
-39.1636 -30.698 16.6419 48970.1
-37.4191 -39.0632 12.4716 46187.8
-37.3549 -41.8167 9.74355 48153.3
1.32343 24.5372 29.6611 52000.3
1.04281 21.6923 30.8554 62574.4
7.80634 20.7404 30.3628 61163.7
-13.7873 -19.6682 30.2093 60520.7
-11.6795 -16.6833 31.2048 55278.6
-12.6103 -15.1553 31.4291 55577.1
-14.3584 -14.1473 31.3988 58336.2
-9.37255 6.67766 33.5814 56296
-11.4076 7.22821 33.2904 50053.7
-7.2831 2.52088 33.6735 57398.1
1.9558 2.06849 33.8377 63019.7
4.06201 -1.22464 33.5075 59374
-41.8031 5.67115 21.7026 49929.7
-41.9202 12.646 20.4207 49964.2
-42.9912 11.4386 20.0683 44932.1
5.65456 -7.21594 32.7172 61371.5
2.45356 -3.35664 33.3565 59972
-41.0798 -9.47555 21.5838 49801.9
-28.1292 -39.615 16.9854 44789.1
-24.645 -41.6891 16.4649 50392.5
-27.862 -35.9558 19.602 59633
-42.0209 -9.35539 21.0344 55891.6
-40.0061 -0.282119 22.9108 53077.3
23.9151 -27.2875 20.6583 51858.1
23.4311 -25.2796 21.8458 53703.1
3.20599 -24.8485 28.3108 57460.2
5.73424 -25.0151 27.8713 59226.9
2.99844 -18.6394 30.664 63681.7
0.866184 -21.5987 29.8548 58397.6
26.965 -34.1695 15.046 40366.4
27.4332 -33.0858 15.5227 49232.1
26.8786 -31.9724 16.5789 57481.8
26.1438 -31.0776 17.504 50623.1
25.3821 -30.7739 18.0707 45341.8
21.9872 -32.9495 18.3118 57567.8
22.1687 -35.8773 16.1927 44509.7
-6.91285 8.98248 33.7214 59324.5
-5.91893 10.8841 33.5966 63678.6
-9.58764 13.5707 32.8094 60068.6
-12.2965 12.2434 32.6573 56493.3
-0.669373 -31.8251 25.27 62122.5
1.19475 -31.2204 25.4333 56001.4
1.73639 -29.5414 26.3444 58098.8
1.59289 -27.9689 27.1747 55664.7
-2.86618 -26.3723 28.4106 62819.3
-4.96405 -28.6212 27.3547 66266.7
28.6842 0.840478 25.0528 58282.5
24.3394 7.4676 26.9049 47509.6
-7.64475 -19.0642 30.8034 55001.9
-8.31124 -22.1976 29.8998 60307.2
-2.74967 12.8015 33.3771 58356
-0.522629 5.42739 33.9975 64068.9
1.18581 7.87216 33.8138 56743.6
11.643 -27.5297 25.5945 57993.4
8.13402 -27.3536 26.431 61219.7
7.3642 -29.8134 25.2876 61594.1
22.9217 -4.27295 28.0894 63127.4
21.4329 -4.62177 28.7165 54312.5
-4.44978 1.00035 33.6365 48972.1
-0.703853 3.73126 33.9589 58068.5
18.5917 -1.23408 30.1122 62254.7
-9.38875 34.6974 24.275 49355.8
-8.43497 37.5003 22.84 38206.7
32.1245 -12.5672 21.8985 53829.6
29.2849 -14.1876 23.1432 57633.4
30.0219 -18.9094 21.219 52950.1
33.0381 -19.522 19.2187 57262.3
35.6859 -19.2069 17.4966 53044.4
36.668 -16.6114 17.796 53193.6
-1.36381 -20.8327 30.2576 61348
3.15546 -16.5254 31.2035 60175.7
-3.51641 -14.5425 31.7901 58759.4
-4.623 -17.4415 31.1946 54560.4
-3.65178 -25.2109 28.9 61297.1
-6.11525 -33.8481 24.3351 53848
-2.23737 -33.3374 24.4301 60003.4
-27.8193 -31.2484 22.5319 60006.4
33.1214 -3.38523 22.3451 63127.4
33.4203 -3.35566 22.1428 62677.4
34.8572 -1.92357 21.1507 52242.6
33.0012 3.60289 22.1486 55078.4
-6.6268 -4.39225 33.0662 55101.4
-4.34729 -2.85668 33.2344 51317.5
-6.75768 -37.479 21.9601 55995.3
-6.38145 -39.203 20.6587 53044.8
-2.5287 -40.404 19.4007 49429.2
0.148334 -38.2099 20.8183 55200
0.73479 20.4708 31.3267 61642
1.22749 17.6865 32.201 62050.3
7.42003 18.3921 31.2422 59345.1
-1.48814 -5.22011 33.0703 53440.3
-6.5037 -10.6892 32.3801 57842.7
-3.54037 -12.8892 32.0716 57720
-0.545495 -9.78511 32.5369 54879
14.2664 -23.2475 26.7768 51124.8
-48.6237 -17.8246 14.8435 50665.9
-45.8774 -17.1831 16.9829 44488.1
-45.3506 -15.0693 17.8918 46239.2
-46.1621 -11.5801 18.16 44590.6
-47.4578 -11.558 17.3524 56310.3
-7.34992 -10.7504 32.3632 58011.6
-25.1682 28.458 22.9177 50440.2
-28.8093 26.0271 22.6397 45190.4
28.2009 -20.9402 21.3904 52180
24.0147 -18.058 24.6978 60294.1
-43.4933 2.14266 20.9642 51791.3
-41.1488 -0.0565968 22.3027 52592.6
4.30111 -45.9333 14.1526 43459.9
6.98363 -43.0467 16.0912 52334.1
4.08957 -40.8726 18.2202 60832.5
-1.5996 -42.5085 17.6463 56713.5
-1.56654 -43.4014 16.9189 56013.3
-0.0140929 -45.1295 15.3017 51432.8
-28.8536 20.7437 25.2629 54923.8
-27.5934 23.5165 24.5481 45923.4
34.0401 9.93133 20.7711 42895.1
35.8497 5.01216 20.1122 48535
-29.0278 -2.7177 28.6678 56398.5
-2.3911 -48.6563 12.044 49972.7
4.46361 -46.8542 13.3154 54542
-7.80974 15.326 32.6068 61377.4
19.3404 18.312 27.1892 54808.1
20.4263 18.8151 26.4851 54144.9
21.206 22.1003 24.9962 47091.7
18.8158 25.5617 24.8038 52542.9
-44.5304 -5.56831 20.0866 53379.9
-43.0311 -9.27547 20.4457 51842.2
31.5923 -25.9327 17.2569 52022.9
33.0926 -26.6886 15.8192 48036.7
36.9442 -20.2764 15.999 48091.8
-4.66268 -44.7217 16.0926 56716.9
-45.8252 9.90514 18.7152 43008.3
-47.5141 1.36809 18.7478 39532.9
-45.4841 3.48849 19.7715 43893.3
5.50123 30.7081 26.4566 48328.2
16.0727 4.33372 30.9352 57994.3
16.6698 5.83414 30.6215 53471.8
6.10396 11.2083 32.9259 58347
5.66548 9.51639 33.174 60201.5
-6.55375 20.7124 31.0411 52876.4
-4.96594 24.0356 29.8605 47658.6
-6.9393 27.0302 28.4558 50506.2
-7.61718 27.8158 28.0338 51272.6
-11.7449 26.2987 28.2326 57904
0.307602 16.4333 32.5767 59475.1
-2.86704 15.5497 32.8149 54194.1
-47.4802 -11.516 17.3472 56085.1
-49.0195 -11.2873 16.4131 52638
-51.2696 -18.7789 12.3406 53652.6
41.0569 -13.1489 15.1135 48177.8
38.8346 -12.797 17.1851 45633.1
-26.5335 -2.90069 29.6263 55034.7
-5.27042 18.562 31.8653 60459.6
-4.85648 16.9433 32.3759 55603.9
30.9937 -5.54221 23.6136 56426.7
33.1474 -11.0171 21.574 48123.3
35.2876 -10.7202 20.2225 56136.5
30.9353 -25.9065 17.6827 48128.8
27.8341 -23.664 20.4156 47014.6
-7.99324 -24.1151 29.2393 61168.5
28.9831 -4.77026 24.8653 52448.1
36.9366 -10.5111 19.1065 50636
23.0435 23.2102 23.6933 54235.5
21.6999 8.91615 28.0608 54210.3
21.5872 11.7829 27.6328 51099.8
18.6618 13.9994 28.686 52929.4
17.5467 16.6878 28.5612 42483.9
14.7029 17.548 29.5798 56758.3
22.3142 28.0316 22.2453 56851.5
18.9815 -0.0272837 29.9893 59718.2
-7.59114 30.3914 26.8005 48247.3
-0.405375 28.3903 28.0577 54017
-0.209695 29.4461 27.5692 49330.1
-1.33561 31.7184 26.5077 52911.4
5.00476 -13.0725 31.7408 55752.2
2.59499 -10.4859 32.39 56001.9
33.7145 -28.0938 14.5778 46806.7
-0.971069 33.7148 25.506 54477.7
-8.85655 33.6365 24.9448 54813.3
-8.67874 32.0393 25.8162 53188
-0.0642824 25.4832 29.3231 47197.7
38.8894 -5.8922 18.2023 46074.5
-45.2916 -26.5703 14.1503 52645.2
-45.3552 -23.1234 15.4994 52435.9
-50.2516 -22.2547 11.7233 58386.3
-48.7454 -27.4104 10.5064 56554.3
-46.7916 -27.3222 12.519 56770.1
2.16876 -37.9823 20.7253 52137.8
-45.3622 -5.09912 19.6566 49609.4
-45.2892 -4.77481 19.7293 51637.8
-46.1264 -4.2992 19.2833 53008.1
-39.0148 -43.3134 6.28114 44463.2
-45.4793 -34.8514 8.70887 54062.6
-44.0232 -33.8803 11.1154 56678.4
3.99378 -40.5721 18.4652 57481.6
-43.7303 -20.6203 17.4506 45471.6
36.9162 -2.86872 19.7033 49264.3
-43.8778 -27.6564 14.7547 44790.3
-41.2856 -21.0591 18.9808 50873.1
-42.18 -33.5491 12.9302 44354.9
-41.7402 -30.6887 14.8583 50413.4
-39.3819 -37.618 12.2428 44614.1
-42.7844 -38.5246 8.16331 46975.8
-43.8336 2.37512 20.7623 56338.2
5 116 115 370 371 383 2902
7 389 422 421 408 2 1 28 3074
6 389 307 306 319 414 422 3235
6 421 422 414 413 357 356 2847
6 305 306 307 308 277 276 3229
6 326 329 124 123 34 33 3168
7 356 270 269 449 409 408 421 2989
5 28 27 308 307 389 3236
8 420 386 188 171 153 77 73 72 3152
7 405 404 438 219 218 316 432 2954
6 432 433 434 109 113 405 2836
6 301 300 445 397 396 426 3188
7 383 382 143 147 63 62 116 2909
7 408 409 410 411 412 3 2 2960
4 449 440 410 409 2990
6 119 118 124 329 438 404 3215
7 433 204 203 391 390 435 434 2959
6 439 411 410 440 441 442 2957
5 442 446 447 448 439 2834
6 446 260 259 331 330 447 2958
6 390 106 105 155 436 435 2973
5 72 12 11 98 420 3170
6 107 106 390 391 392 393 2979
5 336 335 396 397 398 3010
4 393 437 108 107 2963
4 437 393 392 431 3022
6 21 412 411 439 448 22 3237
7 57 56 23 22 448 447 330 3238
4 330 331 58 57 3239
6 426 396 335 334 372 427 3192
5 434 435 436 110 109 3220
4 381 387 388 376 2852
7 371 214 213 181 180 382 383 3125
7 370 262 265 211 210 214 371 3126
6 387 381 380 399 19 18 3000
6 376 377 378 379 380 381 2868
7 380 379 354 353 68 67 399 3007
6 354 379 378 463 456 355 3005
6 352 353 354 355 344 343 2933
7 310 309 344 355 456 226 225 3006
6 359 351 350 360 361 362 3241
6 314 45 44 343 344 309 2862
6 309 310 311 312 313 314 2975
7 278 6 5 15 350 351 327 3051
6 312 294 297 338 342 313 2977
6 318 428 342 338 341 317 2944
6 338 297 296 339 340 341 2859
6 332 333 334 335 336 337 2982
6 444 362 361 340 339 443 3011
7 328 327 351 359 285 280 279 2861
6 276 278 327 328 320 305 3041
5 319 306 305 320 321 2985
6 413 414 319 321 407 406 2875
4 298 304 179 178 2996
7 298 299 300 301 302 303 304 2848
6 184 187 230 189 188 386 3109
6 303 302 292 132 51 50 2999
6 337 419 430 425 424 332 3017
6 292 293 41 40 55 132 2922
5 66 20 19 399 67 3246
6 426 427 293 292 302 301 3068
4 430 419 418 450 2951
5 451 452 453 454 455 3009
6 373 36 41 293 427 372 2881
6 453 452 464 365 364 417 3018
5 368 415 416 417 364 3002
6 450 465 348 347 425 430 2905
7 32 31 37 36 373 243 242 2857
6 68 353 352 101 86 69 3227
5 225 224 324 311 310 3043
6 311 324 323 295 294 312 3046
7 240 244 333 332 424 423 429 3197
5 347 346 423 424 425 3025
5 343 44 43 101 352 3247
6 33 32 242 241 325 326 2858
4 455 454 461 462 3008
6 455 462 468 469 466 451 3031
6 294 295 167 166 296 297 3049
5 364 365 366 367 368 2860
5 416 415 457 458 459 3263
6 219 438 329 326 325 215 3014
6 216 215 325 241 240 429 3080
5 398 418 419 337 336 3129
5 285 359 362 444 284 3053
3 400 401 402 3264
3 445 300 299 3186
7 370 115 114 61 60 263 262 3157
7 279 121 120 407 321 320 328 3056
6 204 433 432 316 223 201 3086
5 470 468 462 461 471 2867
6 406 112 111 358 357 413 3091
7 386 420 98 91 90 149 184 3142
7 466 256 255 467 464 452 451 3032
5 356 357 358 271 270 3060
7 157 156 403 441 440 449 269 3062
6 464 467 254 253 366 365 3035
6 203 126 129 431 392 391 2890
6 261 260 446 442 441 403 3063
7 367 366 253 252 286 290 395 2873
6 395 394 457 415 368 367 3262
5 401 459 458 472 402 3019
6 402 472 374 281 283 400 2870
6 313 342 428 46 45 314 3023
7 346 347 348 349 221 220 315 2879
4 317 273 272 318 3250
8 340 361 360 369 274 273 317 341 2869
6 315 217 216 429 423 346 3201
4 385 349 348 465 3033
5 460 268 267 470 471 3047
8 150 89 8 7 277 308 27 26 2943
7 470 267 236 235 266 469 468 3048
5 469 266 257 256 466 3050
5 394 395 290 291 375 3036
6 375 374 472 458 457 394 3037
5 141 140 377 376 388 3110
7 374 375 291 251 248 247 281 2880
5 384 222 221 349 385 2871
7 377 140 135 134 227 463 378 3079
5 282 249 245 239 238 3055
4 227 226 456 463 3039
6 75 275 274 369 14 13 3233
5 369 360 350 15 14 3044
4 205 208 268 460 2882
5 384 128 127 202 222 3108
6 296 166 163 162 443 339 3082
6 254 467 255 194 193 231 3064
6 443 162 161 195 284 444 3084
5 290 286 250 251 291 2878
5 230 250 286 252 228 3067
6 284 195 122 125 280 285 3121
5 281 247 249 282 283 2874
5 121 279 280 125 117 3088
5 276 277 7 6 278 2953
5 269 270 271 158 157 3094
6 267 268 208 207 237 236 3077
6 197 196 257 266 235 234 2888
4 258 259 260 261 2891
6 194 255 256 257 196 190 2877
6 231 229 228 252 253 254 3066
6 250 230 187 186 248 251 3081
7 247 248 186 185 246 245 249 2883
5 182 239 245 246 183 2884
6 238 239 182 181 213 212 3096
6 372 334 333 244 243 373 3137
4 262 263 264 265 3145
5 240 241 242 243 244 3141
6 232 233 234 235 236 237 3078
6 192 174 173 229 231 193 2889
6 228 229 173 172 189 230 3090
8 48 52 133 224 225 226 227 134 3113
6 220 221 222 202 201 223 2939
7 133 54 53 322 323 324 224 3115
5 215 216 217 218 219 3254
5 170 169 183 246 185 3093
6 323 322 363 165 167 295 3117
5 212 213 214 210 209 3097
3 209 210 211 3098
6 218 217 315 220 223 316 3253
6 205 177 176 206 207 208 3087
5 237 207 206 287 232 3105
6 233 289 345 198 197 234 2895
6 201 202 127 126 203 204 3151
7 190 196 197 198 199 200 191 2896
5 190 191 192 193 194 3089
4 188 189 172 171 3120
7 184 149 148 170 185 186 187 3122
6 180 181 182 183 169 168 3111
7 403 156 104 97 96 258 261 3130
5 178 179 137 136 142 3240
5 100 99 175 176 177 3133
5 175 288 287 206 176 3118
8 232 287 288 131 130 152 289 233 3135
6 191 200 159 160 174 192 3119
7 153 171 172 173 174 160 154 2899
6 50 49 137 179 304 303 2900
6 145 144 168 169 170 148 3123
5 165 164 163 166 167 3149
4 289 152 151 345 3136
6 199 198 345 151 139 138 3138
6 35 161 162 163 164 30 3180
6 138 84 83 159 200 199 3139
5 159 83 82 154 160 3150
6 161 35 34 123 122 195 3153
8 404 405 113 112 406 407 120 119 3159
5 168 144 143 382 180 3124
7 358 111 110 436 155 158 271 3162
6 155 105 104 156 157 158 3163
6 99 93 92 131 288 175 3147
7 130 88 87 103 139 151 152 2914
6 77 153 154 82 81 76 2906
7 148 149 90 89 150 146 145 2920
5 143 144 145 146 147 2907
5 135 140 141 142 136 3173
6 134 135 136 137 49 48 3204
6 51 132 55 54 133 52 3175
6 130 131 92 71 70 88 3167
6 85 84 138 139 103 102 2916
4 126 127 128 129 3154
6 122 123 124 118 117 125 3185
5 117 118 119 120 121 3155
7 64 25 24 114 115 116 62 3172
5 109 110 111 112 113 3161
7 97 104 105 106 107 108 95 3191
6 17 16 94 93 99 100 2924
3 95 96 97 3193
5 71 92 93 94 65 2925
5 70 69 86 87 88 3176
8 78 79 80 81 82 83 84 85 3178
6 80 275 75 74 76 81 3179
4 76 74 73 77 3169
6 13 12 72 73 74 75 2937
5 11 10 9 91 98 3181
5 9 8 89 90 91 3182
6 146 150 26 29 63 147 2929
6 62 63 29 0 4 64 3184
4 264 263 60 59 2931
6 56 57 58 59 60 61 3202
5 53 54 55 40 39 3209
5 48 49 50 51 52 3206
7 65 66 67 68 69 70 71 3194
5 39 38 363 322 53 2940
5 85 102 42 47 78 2935
7 363 38 37 31 30 164 165 3211
6 36 37 38 39 40 41 3248
6 30 31 32 33 34 35 3252
6 26 27 28 1 0 29 3198
5 61 114 24 23 56 3200
5 21 22 23 24 25 2946
5 16 17 18 19 20 3224
5 20 66 65 94 16 3208
7 101 43 42 102 103 87 86 2934
6 79 272 273 274 275 80 3210
7 10 11 12 13 14 15 5 2942
6 5 6 7 8 9 10 3212
5 0 1 2 3 4 3213
6 25 64 4 3 412 21 3214
6 42 43 44 45 46 47 2949
7 272 79 78 47 46 428 318 3230
