ply
format ascii 1.0
comment Exported from MorphoGraphX 2.0 1-254
comment Cellular mesh
element vertex 188
property float x
property float y
property float z
property float signal
element face 95
property list int int vertex_index
property int label
end_header
-3.13941 14.2022 29.9921 46866.4
-2.43059 17.5778 29.3774 44932.4
-4.10025 18.4681 29.4186 58524.6
-6.42799 19.2972 29.4577 44490.1
-9.54066 15.8732 30.1224 48321.2
-6.88835 12.0929 30.4355 54924.4
18.3762 30.8918 18.3771 60838.3
20.4194 34.9708 15.0272 52767.4
16.8918 36.539 16.1436 48280.2
13.8603 33.8424 18.9747 53785.7
14.4131 31.8525 19.7443 53982.4
33.3379 14.6513 13.6449 59615.2
35.5718 16.4573 10.5586 60101.9
33.5453 21.9767 10.7974 53810.6
33.1075 22.2151 11.2059 51494.8
31.2275 20.6841 13.8286 56730.8
29.8463 18.1887 15.944 52560.8
31.0068 15.994 15.5475 55123.1
-9.87032 28.1763 26.441 57509.2
-9.15864 27.7124 26.6718 59285.7
-5.17028 32.5253 24.2673 57531.7
-7.92687 33.8871 23.6048 50595.7
24.0763 36.094 11.7706 49925.6
22.361 34.2081 14.2246 53215.6
24.0325 31.4019 14.6622 60110.5
27.2353 34.1583 10.2025 52410.8
-12.7753 21.8446 28.6289 53935.3
-7.5902 21.2262 29.0368 54860.5
-6.05226 25.4056 27.536 54424.7
1.91114 20.49 27.9123 50996.3
2.20282 22.7832 27.1884 52999.6
-1.00928 24.6113 27.2075 62385.2
-0.31689 18.5864 28.8158 50001.8
22.3747 -8.26489 21.0077 51036.4
26.7712 -3.99543 19.2481 57465.4
26.0406 -3.06747 19.8754 59326.9
22.9117 -1.46813 21.9455 57055.7
19.9633 -4.46252 23.0289 49073.4
30.0132 -5.1428 16.6965 47759.4
22.6953 -10.7725 20.1296 46227.7
26.9266 -11.8136 17.216 42572.1
28.9876 -10.3906 16.1996 44603.8
30.0842 -7.45844 16.1558 51294.2
-1.2832 25.1128 27.0733 63624.5
-3.80598 26.7774 26.7848 53734.3
6.40154 5.43484 28.5429 43294.9
10.5261 12.2022 27.0348 47443.8
6.69123 15.2407 27.805 56073.2
4.246 12.9653 28.745 58139.1
2.11573 9.01702 29.5046 49403.3
-1.20751 -2.97635 28.9704 47594
-0.0354137 -2.02171 29.0997 51461.7
0.299836 -0.644254 29.308 44481.9
-2.92636 4.72089 30.1913 52218.8
-7.04605 3.32194 30.1194 53533.2
14.7198 8.16994 25.8568 54896.9
14.516 9.35104 25.8729 56128.6
11.3737 12.5061 26.7243 47323.4
6.2853 5.00999 28.5704 38378.6
9.59325 3.08882 27.5992 49305.4
24.1758 38.5001 10.1063 54345.4
24.0635 37.3042 10.9905 55319.8
30.9602 32.3507 7.3107 46561.3
31.6533 34.599 4.49668 49374.2
26.993 24.6614 15.8668 54140
29.8442 28.5513 11.2494 47003.7
27.1332 28.8494 13.6319 48385.8
-1.86521 7.0353 30.1837 55515.4
0.115385 9.41776 29.8724 46916.1
-7.62382 11.26 30.456 53220.1
2.62527 -0.17147 29.0355 44824.8
8.09032 -3.89914 27.3374 52796.2
9.42101 -2.38874 27.2145 52343.7
10.7736 0.973879 27.1393 47374.8
24.4095 30.1036 15.1192 45929.9
22.3799 28.2454 17.4359 54648.5
7.53159 -6.99203 26.7809 45067.3
3.49693 -8.70149 26.7675 48669.9
5.72926 -8.39496 26.6514 51671
16.6728 38.5053 15.1456 58632.9
16.1041 39.9847 14.6003 53249.1
8.32609 37.998 18.8579 56797.8
10.5862 35.1897 19.5501 48522.2
25.2317 21.4768 18.3787 53115.1
27.0804 17.9299 18.1805 54658.4
35.0441 4.79608 13.0123 60518.2
31.9119 8.19505 15.9927 56821.3
28.8805 7.1312 18.5288 50292.3
28.7785 4.33169 18.6379 53858.3
30.297 1.7311 17.3374 58451.1
32.2404 -1.33856 15.4449 50006.6
33.5058 -1.21046 14.2853 49408.5
2.2564 29.5979 24.5805 56842.8
4.45451 28.5445 24.5216 53660
7.61144 31.1314 22.5109 56124.3
7.62344 31.8889 22.1511 56432.9
1.46212 34.5725 22.3751 51123.6
-0.107553 31.3747 24.2283 50629.5
35.5904 -7.33031 11.1898 54843.5
34.7315 -11.3405 11.0289 46415.3
35.1095 -12.2236 10.3618 47090
39.0482 -10.2251 6.2917 50584.7
39.3999 -6.31601 6.81613 48173.7
19.8747 21.5571 21.466 58204.1
20.7881 22.9085 20.5482 51197.3
20.5114 24.3596 20.1653 49611.4
13.7519 27.7684 21.8928 48803.8
12.7362 26.9826 22.606 55201.9
12.1489 24.2589 23.8386 51862.9
18.6643 20.6931 22.304 52674.4
40.9425 9.84478 3.63485 49864.7
41.5208 10.5377 1.97519 49618.1
40.7937 14.8729 1.4884 44319.2
40.2758 15.2723 2.62968 43359
38.428 13.9398 7.20145 51821.5
38.4839 10.8425 7.91947 53419.3
24.1962 15.2219 20.6655 58944
22.9531 14.0807 21.5596 52019
24.0675 10.6106 21.3713 48708.4
26.7252 9.90783 19.8457 53859.5
40.011 2.74692 6.72782 51593.9
41.4586 4.55019 3.88541 50913.8
37.6568 10.1431 9.34762 54172.8
37.5089 4.64413 10.1733 51755.5
29.7205 -14.8483 14.2103 54797.8
31.1649 -12.3723 13.9365 50180.8
26.4818 -13.7561 16.8613 48376.4
26.655 -15.6317 16.0321 47527.6
19.541 6.50229 23.9164 53957.2
21.8087 3.29622 22.837 54428.3
23.5086 2.07236 21.9007 55654.3
15.9832 -2.92774 24.9649 51433.7
16.8175 -4.47383 24.4102 45378
15.9643 -1.39931 25.147 48756.5
-2.29444 31.1592 24.6614 48737.4
6.28435 17.3283 27.5574 54012.9
4.78193 18.6055 27.6907 56338.8
11.4579 23.6858 24.2785 50177.4
11.9076 21.375 24.8367 49160.1
14.4027 17.3325 24.9096 44638.7
17.3877 17.1754 23.7294 54436.9
8.65915 24.7867 24.8162 56444.3
34.0449 10.6995 13.676 55737.3
38.9743 19.7066 2.96772 43788.3
41.6713 16.1235 -1.6971 45374.3
40.1293 21.1698 -1.87915 31694.7
25.4675 -18.0441 15.6499 50255.2
20.2673 -15.9248 19.3855 46636
18.8269 -18.4819 18.6172 47949.9
36.3283 27.9366 1.86499 45543.8
36.0556 27.2016 3.31021 41992.7
36.6033 22.0875 6.29432 42979
37.9003 20.08 5.12585 41702.2
42.5259 10.192 -0.667475 52036.6
35.4355 -2.85531 12.1725 52343
39.2327 -0.861112 7.82003 52187.3
19.0886 15.0841 23.3508 55217.5
30.3856 -18.0981 12.1816 57323
37.041 17.2015 8.19963 51566.7
32.9517 29.3482 6.9273 48829
34.9642 22.1212 8.88247 54754.8
1.22182 36.102 21.6384 55460.6
-2.86068 38.4907 20.9219 55603.9
14.359 -7.93225 24.6502 46341.3
-11.4616 8.92642 29.7824 45423.5
-8.89132 2.89827 29.7648 43574.7
42.8883 3.36611 0.680904 52117.8
43.4089 3.12606 -0.683372 58267
14.8132 -12.1152 23.1787 51068.3
17.9755 -13.2951 21.5233 55792.6
20.7261 -13.6894 20.122 45377.4
5.1941 26.4888 25.169 48192.7
13.5857 -18.8112 19.8816 48782.7
35.0828 -6.37212 11.913 52278.2
12.3019 -15.1841 22.4512 48401
0.710842 -10.5029 25.9928 47214.4
8.45867 -14.4171 23.5229 54238.4
40.4675 -2.03059 5.88139 61862
5.41264 39.0397 19.1553 48586.9
30.9879 30.5249 8.66489 56195.9
14.6496 0.795049 25.8205 52640
17.8485 5.97363 24.673 58457.6
-14.3804 13.6209 28.9572 45086.4
43.0829 -2.90345 0.313359 57317.6
40.8825 -2.78028 5.10975 59958.9
-3.08686 -6.0671 27.937 44772.7
40.3154 -5.27353 5.63305 56585.3
41.8315 -8.79749 1.89822 53129.3
6 132 131 72 71 76 163 1265
6 149 150 151 152 143 145 1423
5 57 56 156 140 139 1255
7 131 132 37 36 130 129 133 1343
5 69 5 4 182 164 1251
5 133 180 73 72 131 1280
6 164 165 54 53 67 69 1236
6 139 138 135 47 46 57 1103
3 161 178 162 1145
6 109 140 156 117 116 103 1222
7 21 20 134 97 96 161 162 1117
6 150 149 63 62 179 159 1150
4 150 159 160 151 1353
5 143 113 112 144 145 1394
6 120 121 110 115 122 123 1166
6 119 87 86 142 11 17 1191
6 110 111 112 113 114 115 1070
6 108 137 138 139 140 109 1048
7 103 104 105 106 107 108 109 1431
5 148 147 170 169 172 1245
7 17 16 84 116 117 118 119 1282
4 172 169 168 174 1232
5 141 136 135 138 137 1278
7 128 129 130 88 87 119 118 1216
7 118 117 156 56 55 181 128 1135
4 78 77 175 176 1418
6 174 168 163 76 78 176 1248
4 157 124 127 146 1294
6 153 111 110 121 166 167 1422
5 183 167 166 177 184 1161
5 121 120 155 177 166 1164
8 37 132 163 168 169 170 39 33 1295
7 122 115 114 158 12 11 142 1196
4 153 144 112 111 1305
6 171 93 92 43 31 30 1298
5 30 29 136 141 171 1291
4 185 50 54 165 1419
5 146 127 126 147 148 1276
5 133 129 128 181 180 1345
5 126 40 39 170 147 1078
7 95 94 107 106 10 9 82 1141
4 186 102 101 187 1179
6 82 81 178 161 96 95 1143
6 42 173 154 91 90 38 1105
7 93 171 141 137 108 107 94 1354
8 102 186 184 177 155 154 173 98 1184
6 92 93 94 95 96 97 1009
6 123 85 91 154 155 120 1010
5 84 83 104 103 116 1118
5 89 88 130 36 35 1033
5 180 181 55 59 73 1332
4 184 186 187 183 1344
5 122 142 86 85 123 1018
5 143 152 158 114 113 1307
7 64 66 74 75 105 104 83 1235
5 10 106 105 75 6 1173
6 159 179 65 14 13 160 1311
6 99 98 173 42 41 125 1102
5 38 90 89 35 34 1032
7 85 86 87 88 89 90 91 1194
5 83 84 16 15 64 1200
6 8 79 80 81 82 9 1204
7 76 71 70 52 51 77 78 1063
6 74 24 23 7 6 75 1238
5 182 4 3 27 26 1268
6 70 71 72 73 59 58 1075
8 70 58 45 49 68 67 53 52 1250
5 98 99 100 101 102 1050
5 67 68 0 5 69 1284
6 12 158 152 151 160 13 1270
5 64 15 14 65 66 1234
6 60 61 22 25 62 63 1185
6 23 22 61 79 8 7 1432
6 49 48 32 1 0 68 1300
5 134 20 19 28 44 1349
7 55 56 57 46 45 58 59 1308
5 45 46 47 48 49 1310
7 27 3 2 31 43 44 28 1430
6 124 125 41 40 126 127 1089
7 38 34 33 39 40 41 42 1096
5 33 34 35 36 37 1326
6 29 30 31 2 1 32 1336
5 26 27 28 19 18 1315
4 22 23 24 25 1085
4 18 19 20 21 1351
6 48 47 135 136 29 32 1429
5 185 175 77 51 50 1217
7 11 12 13 14 15 16 17 1198
5 6 7 8 9 10 1203
5 97 134 44 43 92 1302
5 50 51 52 53 54 1054
6 0 1 2 3 4 5 1301
7 66 65 179 62 25 24 74 1357
4 80 79 61 60 1433
5 125 124 157 100 99 1323
