ply
format ascii 1.0
comment Exported from MorphoGraphX 2.0.1-254
comment Cell Graph: each vertex is a cell, each edge a wall
element vertex 95
property int label
property float x
property float y
property float z
element edge 253
property uint source
property uint target
end_header
1009 0 0 0 
1010 0 0 0 
1018 0 0 0 
1032 0 0 0 
1033 0 0 0 
1048 0 0 0 
1050 0 0 0 
1054 0 0 0 
1063 0 0 0 
1070 0 0 0 
1075 0 0 0 
1078 0 0 0 
1085 0 0 0 
1089 0 0 0 
1096 0 0 0 
1102 0 0 0 
1103 0 0 0 
1105 0 0 0 
1117 0 0 0 
1118 0 0 0 
1135 0 0 0 
1141 0 0 0 
1143 0 0 0 
1145 0 0 0 
1150 0 0 0 
1161 0 0 0 
1164 0 0 0 
1166 0 0 0 
1173 0 0 0 
1179 0 0 0 
1184 0 0 0 
1185 0 0 0 
1191 0 0 0 
1194 0 0 0 
1196 0 0 0 
1198 0 0 0 
1200 0 0 0 
1203 0 0 0 
1204 0 0 0 
1216 0 0 0 
1217 0 0 0 
1222 0 0 0 
1232 0 0 0 
1234 0 0 0 
1235 0 0 0 
1236 0 0 0 
1238 0 0 0 
1245 0 0 0 
1248 0 0 0 
1250 0 0 0 
1251 0 0 0 
1255 0 0 0 
1265 0 0 0 
1268 0 0 0 
1270 0 0 0 
1276 0 0 0 
1278 0 0 0 
1280 0 0 0 
1282 0 0 0 
1284 0 0 0 
1291 0 0 0 
1294 0 0 0 
1295 0 0 0 
1298 0 0 0 
1300 0 0 0 
1301 0 0 0 
1302 0 0 0 
1305 0 0 0 
1307 0 0 0 
1308 0 0 0 
1310 0 0 0 
1311 0 0 0 
1315 0 0 0 
1323 0 0 0 
1326 0 0 0 
1332 0 0 0 
1336 0 0 0 
1343 0 0 0 
1344 0 0 0 
1345 0 0 0 
1349 0 0 0 
1351 0 0 0 
1353 0 0 0 
1354 0 0 0 
1357 0 0 0 
1394 0 0 0 
1418 0 0 0 
1419 0 0 0 
1422 0 0 0 
1423 0 0 0 
1429 0 0 0 
1430 0 0 0 
1431 0 0 0 
1432 0 0 0 
1433 0 0 0 
1009 1117
1009 1141
1009 1143
1009 1298
1009 1302
1009 1354
1010 1018
1010 1105
1010 1164
1010 1166
1010 1184
1010 1194
1018 1166
1018 1191
1018 1194
1018 1196
1032 1033
1032 1096
1032 1105
1032 1194
1032 1326
1033 1194
1033 1216
1033 1326
1033 1343
1048 1103
1048 1222
1048 1255
1048 1278
1048 1354
1048 1431
1050 1102
1050 1179
1050 1184
1050 1323
1054 1063
1054 1217
1054 1236
1054 1250
1054 1419
1063 1075
1063 1217
1063 1248
1063 1250
1063 1265
1063 1418
1070 1166
1070 1196
1070 1305
1070 1307
1070 1394
1070 1422
1075 1250
1075 1265
1075 1280
1075 1308
1075 1332
1078 1089
1078 1096
1078 1245
1078 1276
1078 1295
1085 1185
1085 1238
1085 1357
1085 1432
1089 1096
1089 1102
1089 1276
1089 1294
1089 1323
1096 1102
1096 1105
1096 1295
1096 1326
1102 1105
1102 1184
1102 1323
1103 1255
1103 1278
1103 1308
1103 1310
1103 1429
1105 1184
1105 1194
1117 1143
1117 1145
1117 1302
1117 1349
1117 1351
1118 1200
1118 1222
1118 1235
1118 1282
1118 1431
1135 1216
1135 1222
1135 1255
1135 1282
1135 1308
1135 1332
1135 1345
1141 1143
1141 1173
1141 1203
1141 1204
1141 1354
1141 1431
1143 1145
1143 1204
1150 1185
1150 1311
1150 1353
1150 1357
1150 1423
1161 1164
1161 1184
1161 1344
1161 1422
1164 1166
1164 1184
1164 1422
1166 1196
1166 1422
1173 1203
1173 1235
1173 1238
1173 1431
1179 1184
1179 1344
1184 1344
1185 1357
1185 1432
1185 1433
1191 1194
1191 1196
1191 1198
1191 1216
1191 1282
1194 1216
1196 1198
1196 1270
1196 1307
1198 1200
1198 1234
1198 1270
1198 1282
1198 1311
1200 1234
1200 1235
1200 1282
1203 1204
1203 1238
1203 1432
1204 1432
1204 1433
1216 1282
1216 1343
1216 1345
1217 1418
1217 1419
1222 1255
1222 1282
1222 1431
1232 1245
1232 1248
1232 1295
1234 1235
1234 1311
1234 1357
1235 1238
1235 1357
1235 1431
1236 1250
1236 1251
1236 1284
1236 1419
1238 1357
1238 1432
1245 1276
1245 1295
1248 1265
1248 1295
1248 1418
1250 1284
1250 1300
1250 1308
1250 1310
1251 1268
1251 1284
1251 1301
1255 1308
1265 1280
1265 1295
1265 1343
1268 1301
1268 1315
1268 1430
1270 1307
1270 1311
1270 1353
1270 1423
1276 1294
1278 1291
1278 1354
1278 1429
1280 1332
1280 1343
1280 1345
1284 1300
1284 1301
1291 1298
1291 1336
1291 1354
1291 1429
1294 1323
1295 1326
1295 1343
1298 1302
1298 1336
1298 1354
1298 1430
1300 1301
1300 1310
1300 1336
1300 1429
1301 1336
1301 1430
1302 1349
1302 1430
1305 1394
1305 1422
1307 1394
1307 1423
1308 1310
1308 1332
1310 1429
1311 1353
1311 1357
1315 1349
1315 1351
1315 1430
1326 1343
1332 1345
1336 1429
1336 1430
1343 1345
1349 1351
1349 1430
1353 1423
1354 1431
1394 1423
1432 1433
