ply
format ascii 1.0
comment Exported from MorphoGraphX 2.0 1-254
comment Cellular mesh
element vertex 461
property float x
property float y
property float z
property float signal
element face 231
property list int int vertex_index
property int label
end_header
24.5252 49.2176 -16.0194 11420.4
23.1876 47.9291 -15.6234 19723.2
25.103 45.7151 -16.0975 9449.41
-9.95651 57.6784 -16.0187 13968.8
-8.96591 56.8796 -15.5786 19845.7
-7.22111 57.5859 -15.1809 29645.4
-7.49315 60.9805 -15.9984 16640.6
37.1712 8.7126 -15.8215 30074.8
36.6964 8.61395 -15.4279 40874
36.8999 6.06995 -15.1407 35178.6
37.8123 5.86011 -15.8219 24262.1
7.4192 -34.5285 -15.8472 35615.9
7.66226 -33.7099 -15.1267 42379.8
-0.0335031 -33.5246 -13.8426 42251
-0.786611 -35.5986 -15.6294 29473.4
37.3027 -14.6977 -15.8049 42398.3
37.9635 -11.0005 -15.7169 29852.7
37.4856 -10.7834 -15.3153 39959.7
35.4064 -12.162 -13.9431 42736
35.5805 -14.4855 -14.5094 44304.1
13.3357 33.9263 -10.2804 37422.1
6.35758 35.5065 -9.24706 39067.5
5.54 34.4935 -8.56592 40752.5
13.711 30.438 -8.65632 46046.9
14.4635 30.6815 -9.05441 43844
-34.9543 39.9126 -15.8813 42562.6
-32.3626 38.6433 -13.652 45335.5
-30.1362 40.4557 -13.8506 45008
-30.7672 42.9072 -15.8725 31944.4
-52.8165 1.60422 -15.3092 26203.1
-51.0452 1.0656 -14.495 27508.6
-49.2655 3.16414 -13.8101 41613.1
-52.1382 6.34497 -15.6399 23985
-48.981 16.8801 -15.9842 22980.6
-46.3895 17.3505 -13.8971 39936.4
-46.2643 23.1164 -15.8152 24397
29.8653 23.1519 -14.1268 41808.7
31.6117 24.1203 -15.6652 35368.7
29.5952 29.6472 -15.978 12904.4
27.2239 28.9231 -14.4872 42756
4.0782 33.6905 -7.86826 36670.3
5.60055 30.8055 -6.70419 37387.4
11.3859 27.7814 -6.69062 45062.4
13.5316 28.1701 -7.5355 43352.9
19.4828 -21.7214 -9.99732 41033.3
21.0036 -23.2321 -11.2835 38279
24.2109 -22.2221 -11.9408 42044.1
24.0264 -15.6271 -8.99336 51420
21.649 -15.8972 -8.30329 43917.6
-10.7883 -0.859169 0.704864 48613.9
-6.99498 0.00205748 0.540448 39329.5
-6.65178 3.37864 0.55108 37864.3
-10.6 5.64509 0.701319 43154.4
-12.5193 5.19797 0.619337 48605.9
27.6709 -15.6023 -10.3948 41984.4
29.9118 -9.90197 -10.2283 38871.8
29.6845 -9.45795 -10.0422 36770
26.4945 -8.69987 -8.54441 48082.4
25.3576 -15.2557 -9.35354 49634.5
-4.53158 -36.3286 -15.6979 20747.9
-7.61363 -34.5118 -14.0105 36054
-11.7748 -35.0919 -14.2483 39658.5
-12.5013 -37.2858 -15.7077 18468.2
25.1271 -22.6301 -12.5099 39158.8
26.741 -22.0661 -12.8375 34767.5
28.3234 -18.2929 -11.6354 41001.7
-4.68463 27.7977 -3.99738 40419.7
-7.27696 30.6565 -5.1396 31652.8
-13.8389 29.3498 -4.72903 36112.8
-14.3501 26.3294 -3.68794 42005.3
-5.9628 24.8506 -2.84633 46697.6
-13.6606 21.425 -2.17835 40931.2
-8.50213 20.1204 -1.49888 43114.4
-7.00897 20.1295 -1.48346 46933.1
-5.87492 22.5839 -2.13246 48954.9
-15.3232 24.6025 -3.2276 36654.9
-10.3347 14.2711 -0.347943 40923.3
-9.83054 14.36 -0.337202 43118.8
-14.767 19.6255 -1.83889 42277.2
-14.463 16.6148 -1.16469 41800.8
-14.6935 6.23828 0.307295 40033.1
-7.52685 13.138 -0.0699587 47287.8
-15.153 9.34227 -0.0514793 45461.4
-4.72069 -17.1759 -3.0943 43043.4
-5.49987 -14.4958 -2.35656 40393.2
-10.0039 -14.6397 -2.21879 50443.1
-12.7246 -16.6418 -2.85146 46710.8
-12.3945 -19.6108 -3.8438 45423.8
-6.11693 -20.4578 -4.11818 47315.1
-6.75882 -25.7669 -7.06545 40334.7
-5.47546 -24.7059 -6.4502 38796.2
-5.77462 -22.971 -5.38392 43706.6
-12.9476 -21.7308 -4.83161 47122.2
-12.7519 -25.1545 -6.68995 41111.4
-13.9096 -26.4519 -7.52327 43710.1
-13.1239 -30.3651 -10.1776 47099.5
-6.28159 -29.8948 -9.86893 47837.3
-13.3006 -31.7225 -11.3428 46955.5
-12.6898 -34.7752 -13.9891 42044.1
-6.23284 -31.3341 -11.1163 43387.4
13.9702 -26.2531 -10.6096 45086.5
8.77813 -25.9412 -9.15427 45850.5
7.24455 -28.564 -10.8001 40787.5
8.82515 -31.1974 -13.2612 37412.6
11.9846 -30.6833 -13.5376 41361.6
14.1975 -26.5942 -10.8915 48280.8
13.936 -33.0576 -15.8746 30797.4
13.5414 -32.017 -14.9591 40246.9
28.664 21.3286 -12.6852 46599.8
32.7957 15.6521 -14.1126 40452.9
34.4168 16.2456 -15.5723 36243.9
-17.6128 50.1745 -16.0451 20197.4
-14.9419 46.0989 -13.2664 43997.4
-11.4302 46.0381 -12.768 32707.8
-10.9918 48.9928 -14.0286 37227.3
-12.0009 51.4888 -15.1531 17824.3
-14.0397 52.5547 -16.0667 11663.7
-12.602 40.6867 -10.0327 39495.7
-9.90701 40.8621 -10.0963 33112.2
-8.76312 43.6574 -11.4612 38493.1
-9.04219 44.3845 -11.8133 35390.3
-16.2102 44.9107 -12.7587 42927.5
25.4898 -28.821 -16.0727 21426.1
28.4227 -26.9037 -16.0724 15006.4
28.786 -24.2572 -14.8288 37143.7
23.9703 -28.5972 -15.375 32290.3
-16.8142 38.348 -8.99695 39163.4
-17.4114 35.7827 -7.73466 37939.6
-16.1868 33.9314 -6.7675 39834.9
-7.23463 35.5445 -7.48141 38265.9
-6.87487 38.3262 -8.89436 33749.6
12.8763 63.4832 -15.4676 34868.2
13.0093 65.0824 -16.1288 21704.4
5.75995 66.1627 -16.1276 18847.7
4.26262 63.5026 -14.926 36468.4
6.00169 59.4131 -13.4817 38206
8.42167 59.0577 -13.4915 47394.9
-16.1078 32.0577 -5.95439 37929.3
-6.49106 33.7215 -6.59914 38010.7
12.815 55.041 -13.3215 41146
3.6402 56.5585 -12.9809 42909.1
3.56132 56.2395 -12.9442 41678.7
7.35779 52.391 -12.6532 44745.1
-16.7398 10.6163 -0.41487 41988.5
-17.3666 15.0995 -1.19261 39898.5
-16.899 -2.07637 0.0373526 40401.9
-15.8062 -2.84728 0.131016 42905.7
-18.2077 3.85988 -0.0677767 40284.2
-5.41832 -3.4259 0.0708818 46926.9
-5.51417 -1.19368 0.286061 40733.9
-15.1808 -5.47939 -0.188611 48455.8
7.27088 39.3549 -11.1328 39226.1
5.56322 38.1465 -10.3393 33312.3
15.823 34.9266 -11.6406 33377.5
14.9835 37.1615 -12.2121 33684.6
-21.9966 47.8645 -16.0069 23742.9
-19.407 44.2948 -12.9734 34967.6
-19.7347 41.8626 -11.4611 43355.5
5.37474 12.2612 -1.09404 53954.4
10.9745 8.37154 -2.13635 43991.2
11.9351 9.44251 -2.47851 50144.6
12.0224 15.5363 -3.14318 40110.7
7.63982 17.3266 -2.35108 44468
6.05783 16.4214 -1.85224 45313.9
-19.6847 24.7696 -3.7561 39951.7
-21.2266 21.0588 -2.95962 42844.4
-20.968 19.8064 -2.61372 48851.1
-20.9297 3.95833 -0.608547 47979.6
-21.7968 9.09184 -1.11245 46591
-18.0404 -10.6276 -1.80295 39582.3
-14.0238 -8.80368 -0.831814 38590.1
-20.5027 -3.11137 -0.757084 48546.5
-22.0543 -3.90331 -1.23805 45945.8
-11.008 -9.50167 -0.832011 50429.3
-18.1694 -10.8235 -1.86807 36745.1
-17.6515 -15.6618 -3.04751 38005.3
8.21574 -13.4659 -3.6852 48357.9
11.2504 -13.5405 -4.50737 41199.9
12.7432 -11.7012 -4.46299 42398.6
11.9999 -5.80035 -3.17958 42593.9
8.71741 -4.90244 -2.10744 50432
8.5207 -5.18577 -2.09469 51634.1
6.64371 -12.4565 -3.05609 53054.3
-19.6908 -21.2205 -5.42452 44936.6
-20.3652 -19.0825 -4.65989 41819.1
-20.0435 -26.6354 -8.54897 38465
-21.0365 -28.3309 -9.99487 37378.7
-20.4437 -30.8764 -11.7493 38390.3
11.9117 -19.8794 -6.8745 38950.7
5.0412 -20.5519 -5.42888 46610.4
6.23104 -21.6633 -6.19264 45586.3
8.72078 -22.2564 -7.07139 41445.4
-21.7179 26.3935 -4.5495 45332.7
-21.0898 16.0435 -1.88891 44713.6
-22.2023 9.48073 -1.25076 48607
-21.614 15.8446 -1.95538 46311.4
32.5624 5.07306 -11.7969 47992.6
29.7998 5.30969 -10.0139 37697.3
27.2426 0.784627 -8.3832 41912
30.7189 -1.35154 -10.1239 45910.9
-23.3858 2.8871 -1.26889 46260.7
28.1111 33.4376 -16.0975 9715.12
25.5653 42.1873 -16.1292 6367.53
22.9872 40.8243 -15.4344 19661.7
21.761 38.9222 -14.8669 31087.4
23.5949 35.0281 -14.6824 29940.1
2.55131 50.6441 -12.7565 40663.6
4.03916 47.3841 -12.611 28140.5
6.62873 46.4651 -12.5999 33517.2
9.5389 48.3623 -12.7592 36078.9
1.43079 54.5017 -12.9587 30857.1
-20.7036 -24.4058 -7.27636 42833.8
-18.8196 -36.0716 -15.085 27016.5
-21.0321 -33.257 -13.634 39743.2
16.068 60.2106 -15.1335 39215.8
17.9546 60.5563 -15.748 25138.4
18.6267 60.8707 -16.0363 15247.8
25.6888 0.255872 -7.65432 29742.5
24.4578 -3.09492 -7.21872 46441.8
30.6499 -5.87635 -10.1322 46233.1
31.9111 -2.36842 -10.7768 43474.2
-21.9195 35.1143 -7.97315 47387
-23.8363 40.9425 -11.7253 43933.5
-24.4368 39.8178 -11.1768 43238.5
1.90411 26.2325 -4.05769 36802
2.70561 24.4621 -3.52259 47823.1
8.23518 22.0749 -3.72765 48915.4
10.0908 23.665 -4.70307 50786.5
3.19311 28.6277 -5.25803 37324.9
15.4793 41.9769 -13.4073 34977.1
19.4622 42.3568 -14.5486 36892.1
19.9459 46.8098 -14.6855 37049.6
18.6381 47.6503 -14.2858 44771.5
13.6814 45.0972 -13.1881 43694.9
9.02495 5.26171 -1.59989 40648.3
3.04 10.0538 -0.580032 49462.1
3.53934 6.31852 -0.571738 45305.5
-23.8008 -18.003 -5.09992 42118.3
-24.2466 -11.1047 -3.08276 45998.4
4.87547 -5.05596 -1.40084 41905.8
8.10929 0.839082 -1.51592 53728.4
3.3456 -1.02203 -0.842668 46936.2
3.61313 -4.26013 -1.15033 39941.3
15.7283 38.1888 -12.7707 35081.5
21.5461 32.96 -13.2034 35118.4
-26.4274 45.5135 -15.969 32431.3
3.91858 -12.2251 -2.52708 44371.7
3.38115 -11.2789 -2.21132 46151.4
22.255 28.0534 -11.4738 41886.6
23.2136 29.0379 -12.4024 38599.7
-25.7325 30.8991 -7.0173 43379.7
-24.3695 27.2601 -5.34399 36917.7
-25.605 32.8331 -7.79526 35553.3
-24.6321 20.6659 -3.59208 50802.1
-27.1164 25.9697 -5.65665 41007.9
-27.1851 9.70041 -2.87867 40217.4
-26.5116 14.9099 -3.20921 36828.6
-27.8636 11.3608 -3.24377 37335
2.66376 -28.1308 -9.64278 44026
-27.3199 -2.90996 -2.77064 36823.6
-27.2305 2.62764 -2.60139 42056.2
-26.61 -10.4039 -3.62573 38619.5
-27.5029 -3.3571 -2.86616 37069.6
-27.5367 -18.5626 -6.63775 41877.9
-28.3079 -21.6406 -8.26343 42146.2
24.5919 12.022 -7.74511 39074
23.5316 6.77566 -6.71224 54475.1
29.003 6.9568 -9.66738 45817.5
28.4353 11.01 -9.82788 35305
19.4511 13.2788 -5.5973 37340.8
22.3571 14.0219 -6.96411 44359.4
23.4335 18.0281 -8.31072 49934.7
17.7157 21.1748 -6.50055 52838.5
15.9537 19.2326 -5.22232 47286.5
15.073 16.8999 -4.38853 43971
-56.0995 -11.6003 -16.1459 10072.2
-53.9767 -10.5483 -15.4018 20382.8
-54.7133 -5.85585 -15.5704 21971
-54.9931 -5.32091 -15.6727 21265.1
-56.4766 -5.2818 -16.1487 10134.2
-28.6475 35.0444 -9.94367 38563.9
-28.4897 38.6249 -11.9511 37756.5
-30.2721 20.2591 -5.36297 34825
-27.5677 18.1127 -4.03652 35807.3
-31.0317 24.153 -6.50164 41640.3
0.126134 43.5147 -11.6636 37745.7
7.4428 40.6941 -11.6173 39609.9
9.08728 41.8164 -12.1724 26326.6
-1.6617 46.186 -12.3174 28027.7
-1.622 45.8731 -12.2389 30077.1
-29.4287 5.43579 -3.48171 32058
-27.1972 -36.5083 -16.0747 5847.17
-19.0894 -37.3192 -15.7222 9463.36
-27.4324 -33.2657 -14.8039 37061.9
-0.234266 41.3084 -10.8089 40130.6
-0.158898 40.0234 -10.2702 39333
-2.77982 38.6986 -9.35598 38975.5
0.464856 34.4895 -7.63299 40400.2
15.6164 -21.9351 -8.85285 45171.4
14.2068 -20.4641 -7.78008 46138.9
-0.630287 -25.8604 -7.55208 42846
3.19969 -20.5426 -5.06533 44276.2
1.11606 -18.1875 -3.87079 49427.3
0.926084 -18.3965 -3.91502 49798.2
-44.7989 17.2323 -12.5427 38598.6
-41.7555 18.0343 -10.6481 36448.9
-41.8519 23.8015 -12.5022 38687.9
-43.3923 25.2638 -14.3927 38501.3
-45.3766 24.8957 -15.8201 27403.7
18.9623 -5.35515 -5.34437 45637.5
16.3363 -11.9382 -5.59741 50443.8
17.4036 -12.9148 -6.14882 49221.7
20.7313 -13.4207 -7.3075 42042.8
23.5894 -8.13302 -7.34421 42096.7
22.1845 -5.6729 -6.52895 41419.6
-3.64781 -10.8316 -1.53832 40977.8
-46.0964 -14.7402 -13.0026 32404.1
-45.5209 -15.1545 -12.864 40839
-42.6844 -14.0244 -11.75 43367.3
-40.656 -13.1157 -10.7983 28790.9
-41.2047 -9.30832 -10.5673 27168.9
-42.9331 -7.80804 -11.2789 26137
-47.5552 -8.65984 -13.1273 30971.2
-47.9303 -10.9174 -13.3581 27191.2
30.7093 -23.6111 -15.321 39913.7
31.2009 -17.5601 -12.7217 51964.1
-40.2567 -31.7574 -16.1763 11024.3
-42.21 -27.7529 -15.3002 30312
-43.7917 -27.305 -15.4685 20609.2
-45.3099 -28.3415 -16.107 9637.96
-49.5872 15.2868 -16.0186 22885.6
-49.2297 14.5859 -15.5602 36480.8
-48.9477 14.2824 -15.2529 37589.2
-46.3626 8.92342 -12.2634 45185.8
-44.3978 9.35514 -10.8438 39758.4
-4.50291 -7.02697 -0.626901 32350.9
-4.19376 -6.61847 -0.585927 32765.1
35.8962 -18.8143 -15.9438 27029.4
34.7522 -16.3949 -14.4071 46031.9
31.7978 -16.8264 -12.777 51178.2
31.9206 -23.9272 -16.0246 17428.2
19.7188 -30.7939 -15.5331 30158.5
21.2704 -28.8838 -14.6165 39459
20.8829 -27.1554 -13.3872 43497.3
-30.0961 -14.0889 -6.0841 38549.7
-32.3053 -14.0336 -7.0155 36413.3
-34.1152 -16.4747 -8.60641 42248
-34.4828 -17.0909 -9.00169 37912.1
-31.3674 -23.5583 -10.4834 35380
-28.9993 -23.5267 -9.52374 38361.9
11.2915 48.2597 -12.8838 41791.9
14.3702 51.083 -13.3161 37169.9
-2.47948 33.4005 -6.68028 41998.8
-52.811 6.93774 -16.0439 19939.2
-47.9697 3.48872 -13.1418 31210.3
-48.4161 8.0695 -13.7647 33229.8
-49.9522 14.2693 -16.0306 16739
30.9341 12.8696 -11.9507 45838.6
30.4004 12.8586 -11.5533 46791.9
35.4609 5.14657 -13.8939 43734.8
0.43878 1.50576 -0.363719 47959.4
-49.565 -3.65723 -13.6658 39558
-43.6984 -2.58526 -11.0273 32492.2
-43.902 0.895445 -10.8258 29801.5
-55.4629 -0.651201 -16.1099 8382.22
-54.8669 -1.19601 -15.8487 10554.1
25.3295 21.2106 -10.4586 36319.5
21.1772 25.6605 -9.85457 43918.2
-52.0077 -11.8833 -14.7777 38195.5
-51.3259 -16.7902 -14.9727 33048.3
-50.2528 -17.4054 -14.711 48768.8
13.1064 40.9789 -12.7221 32916.5
18.0251 8.98168 -4.63088 46991.2
18.4271 4.97986 -4.59393 44018.4
20.6971 3.20429 -5.44124 44371.4
22.1389 3.22128 -6.02413 42652.9
-0.144735 -31.657 -12.0596 43971.2
1.14151 -28.3147 -9.5636 41556.8
-46.5139 8.77822 -12.3734 40506.7
-42.7338 1.57323 -10.0649 41933.3
-36.3442 -23.9306 -12.5311 32047.3
-33.7966 -24.3525 -11.82 40711
-37.1672 -17.9383 -10.4864 33736.2
-38.2117 -20.8045 -11.9046 28660.3
17.6848 -4.51858 -4.79793 47627.7
-49.6782 -4.74588 -13.7159 31593.6
0.844806 4.95423 -0.276879 43618.3
-3.66245 7.06603 0.193498 40344
24.6081 19.0186 -9.26588 50013
-10.3561 52.6686 -15.0934 26764.3
38.9061 -3.03577 -15.8907 39421.2
36.523 -3.10454 -13.9313 48038.1
36.3291 -6.78371 -13.9522 53425.2
-5.22254 12.4275 -0.0720348 39286.5
-28.5992 -11.6799 -4.72769 43025.6
-31.5453 -2.68383 -4.44097 43809.4
-32.6015 -3.32456 -5.0159 44653.4
13.2737 1.79812 -2.89102 42882.2
10.0792 3.13218 -1.91431 43798.6
-5.0519 45.7967 -12.2169 41138.3
-42.9349 27.5416 -15.0133 34454.9
-43.713 28.0197 -15.8865 21772.7
-3.8157 56.6401 -14.0699 36006.3
-2.64562 60.9879 -14.7574 42587.6
-2.89244 63.6931 -15.7416 30199.6
-3.24469 64.2603 -16.0351 22373.7
-35.2579 16.9119 -6.61432 37742.7
-32.584 12.9802 -4.98105 45460.1
18.5177 24.6204 -8.09282 41600.3
-4.38446 49.4918 -13.094 38171.6
-3.68293 50.4209 -13.1691 31470.7
-2.1078 55.2228 -13.5175 31759.1
-36.5911 -7.74844 -7.74885 39569.2
-39.0006 -8.49403 -9.18522 39429.4
24.1081 50.9106 -15.9689 11510.6
21.4167 56.8266 -15.918 23151.5
20.1487 53.6746 -14.9764 51761.2
14.3608 -3.57805 -3.61425 33903.9
-46.5208 -20.8526 -14.2734 40023
-48.4532 -20.9871 -14.8949 29281.6
-49.4909 -24.7886 -16.1422 5889
-28.6434 -30.2471 -13.4166 37781.6
-26.6263 -28.4947 -11.75 35747.1
33.1804 -11.0769 -12.2696 48299.2
-36.9938 17.2458 -7.52234 45161.2
-33.1625 26.3812 -8.05551 37173.7
-34.47 26.6021 -8.7529 43875.2
-37.1335 25.2542 -9.71291 39452.8
-38.5888 1.43777 -7.87494 32004
-37.4563 -1.71432 -7.50723 36822.8
-35.4605 -3.9181 -6.62502 41600.9
-33.3418 4.70692 -5.01137 43088.3
-35.3493 4.91869 -6.01867 34092.3
-1.89146 15.4026 -0.75687 38811.3
1.34921 18.3199 -1.59863 41876
1.22815 21.0974 -2.25898 49413.2
-54.3909 -17.8649 -16.1378 13316.3
-41.4909 -26.9842 -14.906 31111.8
-37.3014 -26.6361 -13.9308 34957.4
-40.9312 -20.2706 -12.5384 38032.5
-42.4395 -20.4445 -13.0001 37773.4
-42.7227 -4.57615 -10.7257 37507.1
17.1191 49.9347 -13.881 46997.7
35.1321 -2.56902 -12.8954 49493.2
-44.4437 -19.4394 -13.3014 29047.6
30.6395 -7.44675 -10.2755 46245.3
-36.3174 8.06121 -6.43986 38325.7
-2.28692 14.3225 -0.552543 37095.2
-41.5674 1.9573 -9.37535 39092.3
-42.7679 9.10818 -9.82491 39265.9
-38.9445 10.0217 -7.89032 38874.9
-39.0453 16.44 -8.57994 35809
20.1856 -31.2389 -15.9932 23969
-34.9505 29.9176 -10.3717 33592.2
-36.8648 31.4801 -12.3155 35552.5
19.395 59.8976 -16.0065 14334.9
-37.2419 33.7032 -13.7534 40446.6
-38.8707 35.2038 -15.8517 30710.3
-32.9343 -31.0414 -14.8646 29533.4
-28.8757 -31.0082 -13.9209 36797.8
-33.3221 -34.7439 -16.1744 6774.47
4 399 114 113 120 6450
7 389 115 114 399 289 288 409 6506
6 296 295 294 119 118 130 6299
6 120 119 294 285 289 399 6244
6 398 240 180 179 417 397 6231
7 409 410 411 402 5 4 389 6300
7 397 373 372 160 159 234 398 6323
7 314 218 217 375 374 384 309 6407
5 110 109 357 8 7 6232
6 59 14 13 376 99 60 6481
6 268 358 388 271 270 265 6375
7 96 99 376 377 300 90 89 6238
4 303 83 88 91 6307
6 162 161 274 273 227 226 6433
5 315 335 173 85 84 6456
6 408 43 42 227 273 272 6332
6 267 266 375 217 198 197 6367
6 150 170 173 335 336 148 6437
5 420 419 370 369 436 6233
8 270 269 372 373 374 375 266 265 6412
5 436 369 368 276 275 6292
6 360 386 387 51 50 149 6240
6 276 368 323 322 385 277 6294
7 278 277 385 361 30 29 365 6494
6 388 358 357 109 108 366 6419
5 393 81 52 51 387 6288
7 73 72 77 81 393 447 433 6293
6 154 243 371 287 286 151 6283
5 433 434 435 74 73 6242
7 371 229 233 350 209 208 287 6285
5 316 323 368 369 370 6302
6 66 224 228 352 138 67 6319
7 366 108 36 39 249 248 367 6268
6 361 362 363 354 31 30 6309
6 352 297 296 130 129 138 6296
5 233 232 442 351 350 6342
8 353 32 31 354 355 332 331 356 6298
5 139 142 209 350 351 6446
6 367 408 272 271 388 366 6418
6 337 338 339 325 324 340 6510
5 329 328 418 419 420 6485
6 419 418 444 317 316 370 6234
4 139 214 131 136 6301
6 6 5 402 403 404 405 6235
6 321 441 362 361 385 322 6308
4 355 378 333 332 6467
8 330 331 332 333 334 304 34 33 6310
6 39 38 201 205 244 249 6389
6 328 327 437 440 444 418 6470
6 341 342 343 105 104 107 6513
6 91 90 300 301 302 303 6330
8 316 317 318 319 320 321 322 323 6314
5 378 355 354 363 379 6466
7 84 83 303 302 246 247 315 6334
6 309 310 311 312 313 314 6275
7 34 304 305 306 307 308 35 6318
6 247 239 242 336 335 315 6248
6 242 241 360 149 148 336 6250
6 100 298 299 188 191 101 6457
6 299 311 310 178 177 188 6241
5 439 318 317 444 440 6313
6 387 386 236 235 447 393 6338
7 441 429 428 448 379 363 362 6322
6 379 448 449 334 333 378 6315
6 203 202 2 1 231 230 6502
6 449 450 451 305 304 334 6324
6 70 74 435 225 224 66 6317
6 309 384 417 179 178 310 6243
7 306 427 426 453 454 400 307 6491
6 326 460 458 438 437 327 6520
5 417 384 374 373 397 6261
6 437 438 380 383 439 440 6329
5 318 439 383 382 319 6321
7 321 320 413 412 430 429 441 6247
7 416 442 232 231 1 0 414 6487
6 448 428 432 446 450 449 6333
5 305 451 424 427 306 6249
5 372 269 274 161 160 6326
5 401 400 454 456 457 6337
5 338 19 18 423 339 6328
6 382 347 346 413 320 319 6331
4 346 345 412 413 6340
6 423 55 54 65 325 339 6371
6 446 407 406 424 451 450 6341
6 10 9 359 443 391 390 6335
6 408 367 248 24 23 43 6265
6 438 458 459 421 381 380 6347
6 380 381 348 347 382 383 6339
6 230 229 371 243 204 203 6381
6 345 344 394 396 430 412 6351
7 428 429 430 396 395 431 432 6252
7 424 406 282 284 425 426 427 6354
5 228 41 40 297 352 6364
6 220 219 445 392 391 443 6343
7 456 454 453 280 281 27 26 6254
8 139 351 442 416 415 455 215 214 6501
4 457 456 26 25 6344
5 207 206 410 409 288 6346
5 421 422 349 348 381 6358
7 56 55 423 18 17 392 445 6348
4 410 206 210 411 6349
8 344 345 346 347 348 349 264 263 6256
6 402 411 210 141 140 403 6350
5 403 140 135 134 404 6489
6 395 262 259 260 290 431 6257
7 432 431 290 255 257 407 446 6361
6 57 313 312 48 47 58 6352
6 406 407 257 256 283 282 6362
7 12 103 102 258 377 376 13 6264
6 426 425 250 252 280 453 6260
6 300 377 258 190 189 301 6356
6 100 105 343 45 44 298 6357
5 460 291 293 459 458 6526
6 189 176 182 246 302 301 6376
5 64 124 324 325 65 6259
6 299 298 44 48 312 311 6397
5 394 261 262 395 396 6359
5 220 443 359 196 199 6360
7 240 398 234 236 386 360 241 6379
5 284 254 251 250 425 6368
7 445 219 218 314 313 57 56 6258
6 433 447 235 158 163 434 6363
6 27 281 223 222 245 28 6262
6 163 162 226 225 435 434 6267
7 213 187 186 422 421 459 293 6372
6 264 349 422 186 185 211 6263
6 263 237 238 261 394 344 6373
7 40 22 21 152 295 296 297 6365
6 152 151 286 285 294 295 6270
7 290 260 200 167 168 194 255 6384
7 285 286 287 208 207 288 289 6271
5 282 283 253 254 284 6366
5 280 252 221 223 281 6266
6 269 270 271 272 273 274 6277
4 265 266 267 268 6459
6 211 183 184 237 263 264 6380
7 261 238 174 169 172 259 262 6383
5 259 172 171 200 260 6374
5 258 102 101 191 190 6394
5 255 194 195 256 257 6385
7 283 256 195 193 166 165 253 6269
6 253 165 164 192 251 254 6386
5 390 391 392 17 16 6245
8 250 251 192 137 128 127 221 252 6387
6 24 248 249 244 153 20 6377
5 246 182 181 239 247 6398
5 222 157 156 155 245 6388
6 243 154 153 244 205 204 6472
6 239 181 180 240 241 242 6399
9 357 358 268 267 197 196 359 9 8 6507
5 237 184 175 174 238 6391
5 234 159 158 235 236 6404
5 229 230 231 232 233 6382
7 224 225 226 227 42 41 228 6408
6 221 127 126 157 222 223 6405
6 199 198 217 218 219 220 6447
5 132 131 214 215 216 6272
5 212 98 97 187 213 6395
6 94 93 92 183 211 185 6396
7 206 207 208 209 142 141 210 6413
5 201 202 203 204 205 6473
5 171 145 147 167 200 6400
4 196 197 198 199 6393
6 194 168 143 144 193 195 6402
5 144 79 78 166 193 6403
6 192 164 75 69 68 137 6416
6 188 177 176 189 190 191 6424
6 97 95 94 185 186 187 6273
6 183 92 87 86 175 184 6276
7 176 177 178 179 180 181 182 6278
7 86 85 173 170 169 174 175 6410
7 169 170 150 146 145 171 172 6274
6 167 147 80 82 143 168 6401
6 78 71 75 164 165 166 6414
6 158 159 160 161 162 163 6430
5 126 117 121 156 157 6417
5 155 156 121 112 111 6406
6 151 152 21 20 153 154 6441
6 148 149 50 49 146 150 6439
6 145 146 49 53 80 147 6425
5 143 82 76 79 144 6427
6 139 136 135 140 141 142 6415
6 128 137 68 67 138 129 6445
6 131 132 133 134 135 136 6451
7 126 127 128 129 130 118 117 6448
6 122 123 124 64 63 125 6512
7 117 118 119 120 113 112 121 6449
6 111 112 113 114 115 116 6429
5 37 36 108 109 110 6423
6 11 106 107 104 103 12 6421
6 100 101 102 103 104 105 6422
7 95 97 98 61 60 99 96 6432
5 89 93 94 95 96 6434
7 89 90 91 88 87 92 93 6435
6 83 84 85 86 87 88 6455
7 80 53 52 81 77 76 82 6442
6 76 77 72 71 78 79 6428
7 71 72 73 74 70 69 75 6443
5 66 67 68 69 70 6444
7 58 47 46 63 64 65 54 6279
4 59 60 61 62 6431
5 54 55 56 57 58 6436
5 49 50 51 52 53 6282
5 122 125 342 341 452 6500
6 63 46 45 343 342 125 6498
5 116 115 389 4 3 6505
5 44 45 46 47 48 6454
6 40 41 42 43 23 22 6480
4 36 37 38 39 6284
3 33 34 35 6236
5 291 292 212 213 293 6527
3 414 415 416 6488
4 29 30 31 32 6297
4 340 324 124 123 6511
4 25 26 27 28 6355
5 20 21 22 23 24 6440
5 275 276 277 278 279 6523
4 279 278 365 364 6524
5 15 16 17 18 19 6303
5 364 365 29 32 353 6525
4 15 19 338 337 6509
4 452 341 107 106 6514
4 326 327 328 329 6519
4 308 307 400 401 6492
4 405 404 134 133 6490
4 11 12 13 14 6482
4 7 8 9 10 6508
4 3 4 5 6 6287
3 0 1 2 6503
5 62 61 98 212 292 6515
3 216 215 455 6504
