ply
format ascii 1.0
comment Exported from MorphoGraphX 2.0.1-254
comment Cell Graph: each vertex is a cell, each edge a wall
element vertex 231
property int label
property float x
property float y
property float z
element edge 636
property uint source
property uint target
end_header
6231 0 0 0 
6232 0 0 0 
6233 0 0 0 
6234 0 0 0 
6235 0 0 0 
6236 0 0 0 
6238 0 0 0 
6240 0 0 0 
6241 0 0 0 
6242 0 0 0 
6243 0 0 0 
6244 0 0 0 
6245 0 0 0 
6247 0 0 0 
6248 0 0 0 
6249 0 0 0 
6250 0 0 0 
6252 0 0 0 
6254 0 0 0 
6256 0 0 0 
6257 0 0 0 
6258 0 0 0 
6259 0 0 0 
6260 0 0 0 
6261 0 0 0 
6262 0 0 0 
6263 0 0 0 
6264 0 0 0 
6265 0 0 0 
6266 0 0 0 
6267 0 0 0 
6268 0 0 0 
6269 0 0 0 
6270 0 0 0 
6271 0 0 0 
6272 0 0 0 
6273 0 0 0 
6274 0 0 0 
6275 0 0 0 
6276 0 0 0 
6277 0 0 0 
6278 0 0 0 
6279 0 0 0 
6282 0 0 0 
6283 0 0 0 
6284 0 0 0 
6285 0 0 0 
6287 0 0 0 
6288 0 0 0 
6292 0 0 0 
6293 0 0 0 
6294 0 0 0 
6296 0 0 0 
6297 0 0 0 
6298 0 0 0 
6299 0 0 0 
6300 0 0 0 
6301 0 0 0 
6302 0 0 0 
6303 0 0 0 
6307 0 0 0 
6308 0 0 0 
6309 0 0 0 
6310 0 0 0 
6313 0 0 0 
6314 0 0 0 
6315 0 0 0 
6317 0 0 0 
6318 0 0 0 
6319 0 0 0 
6321 0 0 0 
6322 0 0 0 
6323 0 0 0 
6324 0 0 0 
6326 0 0 0 
6328 0 0 0 
6329 0 0 0 
6330 0 0 0 
6331 0 0 0 
6332 0 0 0 
6333 0 0 0 
6334 0 0 0 
6335 0 0 0 
6337 0 0 0 
6338 0 0 0 
6339 0 0 0 
6340 0 0 0 
6341 0 0 0 
6342 0 0 0 
6343 0 0 0 
6344 0 0 0 
6346 0 0 0 
6347 0 0 0 
6348 0 0 0 
6349 0 0 0 
6350 0 0 0 
6351 0 0 0 
6352 0 0 0 
6354 0 0 0 
6355 0 0 0 
6356 0 0 0 
6357 0 0 0 
6358 0 0 0 
6359 0 0 0 
6360 0 0 0 
6361 0 0 0 
6362 0 0 0 
6363 0 0 0 
6364 0 0 0 
6365 0 0 0 
6366 0 0 0 
6367 0 0 0 
6368 0 0 0 
6371 0 0 0 
6372 0 0 0 
6373 0 0 0 
6374 0 0 0 
6375 0 0 0 
6376 0 0 0 
6377 0 0 0 
6379 0 0 0 
6380 0 0 0 
6381 0 0 0 
6382 0 0 0 
6383 0 0 0 
6384 0 0 0 
6385 0 0 0 
6386 0 0 0 
6387 0 0 0 
6388 0 0 0 
6389 0 0 0 
6391 0 0 0 
6393 0 0 0 
6394 0 0 0 
6395 0 0 0 
6396 0 0 0 
6397 0 0 0 
6398 0 0 0 
6399 0 0 0 
6400 0 0 0 
6401 0 0 0 
6402 0 0 0 
6403 0 0 0 
6404 0 0 0 
6405 0 0 0 
6406 0 0 0 
6407 0 0 0 
6408 0 0 0 
6410 0 0 0 
6412 0 0 0 
6413 0 0 0 
6414 0 0 0 
6415 0 0 0 
6416 0 0 0 
6417 0 0 0 
6418 0 0 0 
6419 0 0 0 
6421 0 0 0 
6422 0 0 0 
6423 0 0 0 
6424 0 0 0 
6425 0 0 0 
6427 0 0 0 
6428 0 0 0 
6429 0 0 0 
6430 0 0 0 
6431 0 0 0 
6432 0 0 0 
6433 0 0 0 
6434 0 0 0 
6435 0 0 0 
6436 0 0 0 
6437 0 0 0 
6439 0 0 0 
6440 0 0 0 
6441 0 0 0 
6442 0 0 0 
6443 0 0 0 
6444 0 0 0 
6445 0 0 0 
6446 0 0 0 
6447 0 0 0 
6448 0 0 0 
6449 0 0 0 
6450 0 0 0 
6451 0 0 0 
6454 0 0 0 
6455 0 0 0 
6456 0 0 0 
6457 0 0 0 
6459 0 0 0 
6466 0 0 0 
6467 0 0 0 
6470 0 0 0 
6472 0 0 0 
6473 0 0 0 
6480 0 0 0 
6481 0 0 0 
6482 0 0 0 
6485 0 0 0 
6487 0 0 0 
6488 0 0 0 
6489 0 0 0 
6490 0 0 0 
6491 0 0 0 
6492 0 0 0 
6494 0 0 0 
6498 0 0 0 
6500 0 0 0 
6501 0 0 0 
6502 0 0 0 
6503 0 0 0 
6504 0 0 0 
6505 0 0 0 
6506 0 0 0 
6507 0 0 0 
6508 0 0 0 
6509 0 0 0 
6510 0 0 0 
6511 0 0 0 
6512 0 0 0 
6513 0 0 0 
6514 0 0 0 
6515 0 0 0 
6519 0 0 0 
6520 0 0 0 
6523 0 0 0 
6524 0 0 0 
6525 0 0 0 
6526 0 0 0 
6527 0 0 0 
6231 6243
6231 6261
6231 6278
6231 6323
6231 6379
6231 6399
6232 6419
6232 6423
6232 6507
6232 6508
6233 6234
6233 6292
6233 6302
6233 6485
6234 6302
6234 6313
6234 6314
6234 6470
6234 6485
6235 6287
6235 6300
6235 6350
6235 6489
6235 6490
6236 6310
6236 6318
6238 6264
6238 6330
6238 6356
6238 6432
6238 6434
6238 6435
6238 6481
6240 6250
6240 6282
6240 6288
6240 6338
6240 6379
6240 6439
6241 6243
6241 6275
6241 6278
6241 6397
6241 6424
6241 6457
6242 6267
6242 6293
6242 6317
6242 6363
6242 6443
6243 6261
6243 6275
6243 6278
6243 6407
6244 6270
6244 6271
6244 6299
6244 6449
6244 6450
6244 6506
6245 6303
6245 6335
6245 6343
6245 6348
6247 6252
6247 6308
6247 6314
6247 6322
6247 6331
6247 6340
6247 6351
6248 6250
6248 6334
6248 6398
6248 6399
6248 6437
6248 6456
6249 6318
6249 6324
6249 6341
6249 6354
6249 6491
6250 6379
6250 6399
6250 6437
6250 6439
6252 6257
6252 6322
6252 6333
6252 6351
6252 6359
6252 6361
6254 6260
6254 6262
6254 6266
6254 6337
6254 6344
6254 6355
6254 6491
6256 6263
6256 6331
6256 6339
6256 6340
6256 6351
6256 6358
6256 6373
6256 6380
6257 6359
6257 6361
6257 6374
6257 6383
6257 6384
6258 6275
6258 6343
6258 6348
6258 6352
6258 6407
6258 6436
6258 6447
6259 6279
6259 6371
6259 6510
6259 6511
6259 6512
6260 6266
6260 6354
6260 6368
6260 6387
6260 6491
6261 6323
6261 6407
6261 6412
6262 6266
6262 6355
6262 6388
6262 6405
6263 6273
6263 6358
6263 6372
6263 6380
6263 6396
6264 6356
6264 6394
6264 6421
6264 6422
6264 6481
6264 6482
6265 6268
6265 6332
6265 6377
6265 6418
6265 6440
6265 6480
6266 6387
6266 6405
6267 6317
6267 6363
6267 6408
6267 6430
6267 6433
6268 6284
6268 6377
6268 6389
6268 6418
6268 6419
6268 6423
6269 6362
6269 6366
6269 6385
6269 6386
6269 6402
6269 6403
6269 6414
6270 6271
6270 6283
6270 6299
6270 6365
6270 6441
6271 6283
6271 6285
6271 6346
6271 6413
6271 6506
6272 6301
6272 6451
6272 6501
6272 6504
6273 6372
6273 6395
6273 6396
6273 6432
6273 6434
6274 6374
6274 6383
6274 6400
6274 6410
6274 6425
6274 6437
6274 6439
6275 6352
6275 6397
6275 6407
6276 6380
6276 6391
6276 6396
6276 6410
6276 6435
6276 6455
6277 6326
6277 6332
6277 6375
6277 6412
6277 6418
6277 6433
6278 6376
6278 6398
6278 6399
6278 6424
6279 6352
6279 6371
6279 6436
6279 6454
6279 6498
6279 6512
6282 6288
6282 6425
6282 6439
6282 6442
6283 6285
6283 6381
6283 6441
6283 6472
6284 6389
6284 6423
6285 6342
6285 6381
6285 6382
6285 6413
6285 6446
6287 6300
6287 6505
6288 6293
6288 6338
6288 6442
6292 6294
6292 6302
6292 6523
6293 6338
6293 6363
6293 6428
6293 6442
6293 6443
6294 6302
6294 6308
6294 6314
6294 6494
6294 6523
6296 6299
6296 6319
6296 6364
6296 6365
6296 6445
6296 6448
6297 6298
6297 6309
6297 6494
6297 6525
6298 6309
6298 6466
6298 6467
6298 6525
6299 6365
6299 6448
6299 6449
6300 6346
6300 6349
6300 6350
6300 6505
6300 6506
6301 6415
6301 6446
6301 6451
6301 6501
6302 6314
6303 6328
6303 6348
6303 6509
6307 6330
6307 6334
6307 6435
6307 6455
6308 6309
6308 6314
6308 6322
6308 6494
6309 6322
6309 6466
6309 6494
6310 6315
6310 6318
6310 6324
6310 6467
6313 6314
6313 6321
6313 6329
6313 6470
6314 6321
6314 6331
6315 6322
6315 6324
6315 6333
6315 6466
6315 6467
6317 6319
6317 6408
6317 6443
6317 6444
6318 6324
6318 6491
6318 6492
6319 6364
6319 6408
6319 6444
6319 6445
6321 6329
6321 6331
6321 6339
6322 6333
6322 6466
6323 6326
6323 6379
6323 6404
6323 6412
6323 6430
6324 6333
6324 6341
6326 6412
6326 6430
6326 6433
6328 6348
6328 6371
6328 6509
6328 6510
6329 6339
6329 6347
6329 6470
6329 6520
6330 6334
6330 6356
6330 6376
6330 6435
6331 6339
6331 6340
6332 6408
6332 6418
6332 6433
6332 6480
6333 6341
6333 6361
6334 6376
6334 6398
6334 6455
6334 6456
6335 6343
6335 6360
6335 6507
6335 6508
6337 6344
6337 6491
6337 6492
6338 6363
6338 6379
6338 6404
6339 6347
6339 6358
6340 6351
6341 6354
6341 6361
6341 6362
6342 6382
6342 6446
6342 6487
6342 6501
6343 6348
6343 6360
6343 6447
6344 6355
6346 6349
6346 6413
6346 6506
6347 6358
6347 6372
6347 6520
6347 6526
6348 6371
6348 6436
6349 6350
6349 6413
6350 6413
6350 6415
6350 6489
6351 6359
6351 6373
6352 6397
6352 6436
6352 6454
6354 6362
6354 6366
6354 6368
6354 6491
6356 6376
6356 6394
6356 6424
6357 6397
6357 6422
6357 6454
6357 6457
6357 6498
6357 6513
6358 6372
6359 6373
6359 6383
6360 6393
6360 6447
6360 6507
6361 6362
6361 6384
6361 6385
6362 6366
6362 6385
6363 6404
6363 6430
6364 6365
6364 6408
6364 6480
6365 6440
6365 6441
6365 6480
6366 6368
6366 6386
6367 6393
6367 6407
6367 6412
6367 6447
6367 6459
6367 6507
6368 6386
6368 6387
6371 6436
6371 6510
6372 6395
6372 6526
6372 6527
6373 6380
6373 6383
6373 6391
6374 6383
6374 6384
6374 6400
6375 6412
6375 6418
6375 6419
6375 6459
6375 6507
6376 6398
6376 6424
6377 6389
6377 6440
6377 6441
6377 6472
6379 6399
6379 6404
6380 6391
6380 6396
6381 6382
6381 6472
6381 6473
6381 6502
6382 6487
6382 6502
6383 6391
6383 6410
6384 6385
6384 6400
6384 6401
6384 6402
6385 6402
6386 6387
6386 6414
6386 6416
6387 6405
6387 6416
6387 6445
6387 6448
6388 6405
6388 6406
6388 6417
6389 6472
6389 6473
6391 6410
6393 6447
6393 6507
6394 6422
6394 6424
6394 6457
6395 6432
6395 6515
6395 6527
6396 6434
6396 6435
6397 6454
6397 6457
6398 6399
6400 6401
6400 6425
6401 6402
6401 6425
6401 6427
6401 6442
6402 6403
6402 6427
6403 6414
6403 6427
6403 6428
6404 6430
6405 6417
6405 6448
6406 6417
6406 6429
6406 6449
6407 6412
6407 6447
6408 6433
6408 6480
6410 6437
6410 6455
6410 6456
6412 6459
6413 6415
6413 6446
6414 6416
6414 6428
6414 6443
6415 6446
6415 6451
6415 6489
6415 6501
6416 6443
6416 6444
6416 6445
6417 6448
6417 6449
6418 6419
6419 6423
6419 6507
6421 6422
6421 6482
6421 6513
6421 6514
6422 6457
6422 6513
6424 6457
6425 6439
6425 6442
6427 6428
6427 6442
6428 6442
6428 6443
6429 6449
6429 6450
6429 6505
6429 6506
6430 6433
6431 6432
6431 6481
6431 6515
6432 6434
6432 6481
6432 6515
6434 6435
6435 6455
6437 6439
6437 6456
6440 6441
6440 6480
6441 6472
6443 6444
6444 6445
6445 6448
6446 6501
6448 6449
6449 6450
6450 6506
6451 6489
6451 6490
6454 6498
6455 6456
6459 6507
6466 6467
6470 6485
6470 6519
6470 6520
6472 6473
6473 6502
6481 6482
6485 6519
6487 6488
6487 6501
6487 6502
6487 6503
6488 6501
6489 6490
6491 6492
6494 6523
6494 6524
6494 6525
6498 6500
6498 6512
6498 6513
6500 6512
6500 6513
6500 6514
6501 6504
6502 6503
6505 6506
6507 6508
6509 6510
6510 6511
6511 6512
6513 6514
6515 6527
6519 6520
6520 6526
6523 6524
6524 6525
6526 6527
