ply
format ascii 1.0
comment Exported from MorphoGraphX 2.0.1-254
comment Cell Graph: each vertex is a cell, each edge a wall
element vertex 288
property int label
property float x
property float y
property float z
element edge 805
property uint source
property uint target
end_header
2 0 0 0 
3 0 0 0 
4 0 0 0 
9 0 0 0 
23 0 0 0 
25 0 0 0 
26 0 0 0 
30 0 0 0 
34 0 0 0 
36 0 0 0 
38 0 0 0 
44 0 0 0 
48 0 0 0 
49 0 0 0 
50 0 0 0 
52 0 0 0 
54 0 0 0 
55 0 0 0 
58 0 0 0 
59 0 0 0 
60 0 0 0 
61 0 0 0 
62 0 0 0 
63 0 0 0 
64 0 0 0 
65 0 0 0 
67 0 0 0 
68 0 0 0 
70 0 0 0 
73 0 0 0 
75 0 0 0 
76 0 0 0 
79 0 0 0 
81 0 0 0 
82 0 0 0 
86 0 0 0 
89 0 0 0 
90 0 0 0 
91 0 0 0 
92 0 0 0 
93 0 0 0 
94 0 0 0 
95 0 0 0 
97 0 0 0 
101 0 0 0 
103 0 0 0 
104 0 0 0 
105 0 0 0 
108 0 0 0 
110 0 0 0 
111 0 0 0 
112 0 0 0 
113 0 0 0 
114 0 0 0 
115 0 0 0 
116 0 0 0 
117 0 0 0 
119 0 0 0 
120 0 0 0 
122 0 0 0 
123 0 0 0 
124 0 0 0 
126 0 0 0 
134 0 0 0 
136 0 0 0 
137 0 0 0 
139 0 0 0 
140 0 0 0 
141 0 0 0 
142 0 0 0 
144 0 0 0 
148 0 0 0 
150 0 0 0 
151 0 0 0 
152 0 0 0 
153 0 0 0 
164 0 0 0 
165 0 0 0 
168 0 0 0 
176 0 0 0 
178 0 0 0 
180 0 0 0 
184 0 0 0 
189 0 0 0 
197 0 0 0 
198 0 0 0 
203 0 0 0 
206 0 0 0 
207 0 0 0 
208 0 0 0 
210 0 0 0 
215 0 0 0 
217 0 0 0 
220 0 0 0 
223 0 0 0 
224 0 0 0 
234 0 0 0 
237 0 0 0 
238 0 0 0 
245 0 0 0 
246 0 0 0 
247 0 0 0 
248 0 0 0 
249 0 0 0 
250 0 0 0 
251 0 0 0 
252 0 0 0 
254 0 0 0 
255 0 0 0 
256 0 0 0 
258 0 0 0 
259 0 0 0 
261 0 0 0 
265 0 0 0 
266 0 0 0 
267 0 0 0 
268 0 0 0 
270 0 0 0 
273 0 0 0 
274 0 0 0 
275 0 0 0 
277 0 0 0 
278 0 0 0 
280 0 0 0 
281 0 0 0 
282 0 0 0 
284 0 0 0 
286 0 0 0 
287 0 0 0 
288 0 0 0 
289 0 0 0 
290 0 0 0 
291 0 0 0 
292 0 0 0 
294 0 0 0 
295 0 0 0 
296 0 0 0 
302 0 0 0 
303 0 0 0 
304 0 0 0 
305 0 0 0 
308 0 0 0 
310 0 0 0 
314 0 0 0 
323 0 0 0 
325 0 0 0 
327 0 0 0 
328 0 0 0 
329 0 0 0 
332 0 0 0 
334 0 0 0 
335 0 0 0 
336 0 0 0 
337 0 0 0 
339 0 0 0 
340 0 0 0 
341 0 0 0 
344 0 0 0 
345 0 0 0 
346 0 0 0 
347 0 0 0 
348 0 0 0 
349 0 0 0 
359 0 0 0 
360 0 0 0 
363 0 0 0 
364 0 0 0 
366 0 0 0 
367 0 0 0 
368 0 0 0 
369 0 0 0 
370 0 0 0 
375 0 0 0 
376 0 0 0 
377 0 0 0 
378 0 0 0 
379 0 0 0 
380 0 0 0 
381 0 0 0 
382 0 0 0 
383 0 0 0 
384 0 0 0 
385 0 0 0 
386 0 0 0 
387 0 0 0 
388 0 0 0 
390 0 0 0 
391 0 0 0 
393 0 0 0 
394 0 0 0 
395 0 0 0 
397 0 0 0 
398 0 0 0 
399 0 0 0 
408 0 0 0 
409 0 0 0 
410 0 0 0 
412 0 0 0 
413 0 0 0 
415 0 0 0 
416 0 0 0 
418 0 0 0 
419 0 0 0 
421 0 0 0 
423 0 0 0 
424 0 0 0 
425 0 0 0 
427 0 0 0 
428 0 0 0 
429 0 0 0 
430 0 0 0 
431 0 0 0 
432 0 0 0 
434 0 0 0 
435 0 0 0 
436 0 0 0 
438 0 0 0 
439 0 0 0 
440 0 0 0 
443 0 0 0 
444 0 0 0 
446 0 0 0 
450 0 0 0 
451 0 0 0 
452 0 0 0 
453 0 0 0 
454 0 0 0 
457 0 0 0 
458 0 0 0 
462 0 0 0 
463 0 0 0 
464 0 0 0 
465 0 0 0 
466 0 0 0 
468 0 0 0 
470 0 0 0 
471 0 0 0 
473 0 0 0 
474 0 0 0 
475 0 0 0 
478 0 0 0 
480 0 0 0 
482 0 0 0 
483 0 0 0 
484 0 0 0 
485 0 0 0 
486 0 0 0 
487 0 0 0 
488 0 0 0 
489 0 0 0 
491 0 0 0 
492 0 0 0 
493 0 0 0 
494 0 0 0 
495 0 0 0 
496 0 0 0 
499 0 0 0 
501 0 0 0 
502 0 0 0 
503 0 0 0 
504 0 0 0 
505 0 0 0 
506 0 0 0 
508 0 0 0 
510 0 0 0 
511 0 0 0 
512 0 0 0 
514 0 0 0 
521 0 0 0 
522 0 0 0 
525 0 0 0 
527 0 0 0 
528 0 0 0 
529 0 0 0 
530 0 0 0 
531 0 0 0 
532 0 0 0 
533 0 0 0 
534 0 0 0 
537 0 0 0 
538 0 0 0 
539 0 0 0 
540 0 0 0 
541 0 0 0 
542 0 0 0 
545 0 0 0 
547 0 0 0 
548 0 0 0 
2 44
2 150
2 165
2 197
2 208
2 537
3 48
3 151
3 164
3 197
3 198
3 208
3 284
4 23
4 164
4 224
4 290
4 291
4 418
4 539
9 178
9 217
9 252
9 471
9 530
9 541
23 25
23 81
23 224
23 291
23 295
25 38
25 224
25 249
25 295
25 339
25 462
26 61
26 62
26 117
26 408
26 538
30 52
30 178
30 184
30 252
30 254
30 347
30 349
34 189
34 305
34 511
36 91
36 302
36 478
36 542
38 152
38 224
38 462
38 527
38 528
38 529
44 165
44 208
44 237
44 327
44 379
48 164
48 284
48 290
48 382
48 383
49 238
49 248
49 258
49 259
50 52
50 144
50 178
50 532
50 541
52 178
52 184
52 266
52 532
54 59
54 238
54 251
54 259
54 280
54 281
55 60
55 64
55 251
55 281
58 67
58 68
58 246
58 256
58 292
59 259
59 277
59 280
59 294
60 64
60 310
61 62
61 286
61 376
61 408
61 446
62 117
62 385
62 446
62 465
63 64
63 70
63 76
63 280
63 281
63 328
64 82
64 281
64 310
64 328
65 73
65 261
65 265
65 278
65 451
65 487
67 68
67 256
67 289
67 335
67 336
67 337
68 292
68 308
68 323
68 337
70 75
70 76
70 280
70 294
70 341
73 265
73 268
73 332
73 487
75 294
75 340
75 341
75 366
76 328
76 341
76 344
76 367
79 303
79 334
79 359
79 375
81 291
81 295
81 388
81 421
81 424
82 310
82 328
82 344
82 346
82 369
82 386
86 206
86 210
86 275
86 286
86 432
86 434
86 436
89 148
89 206
89 210
89 454
89 493
90 290
90 291
90 383
90 419
90 421
91 302
91 450
92 94
92 254
92 304
92 349
92 430
92 463
93 103
93 108
93 337
93 363
93 378
93 380
93 410
94 304
94 397
94 463
95 105
95 116
95 369
95 384
95 427
97 370
97 416
97 431
101 375
101 394
101 395
101 423
101 435
101 452
103 108
103 378
103 409
103 425
103 438
104 115
104 380
104 381
104 410
104 412
104 439
104 440
105 111
105 116
105 369
105 386
105 387
105 415
105 444
108 410
108 438
108 439
108 466
110 122
110 399
110 412
110 427
110 443
110 473
111 415
111 444
111 457
112 265
112 268
112 275
112 429
112 432
112 547
113 126
113 431
114 119
114 393
114 394
114 435
114 480
115 412
115 440
115 443
115 468
115 470
116 137
116 427
116 444
116 491
117 465
117 501
117 538
119 134
119 480
120 148
120 329
120 379
120 382
120 451
120 487
122 137
122 427
122 473
123 388
123 390
123 424
123 501
123 538
124 126
124 415
124 416
124 431
124 457
124 475
124 492
124 510
126 431
126 475
126 495
126 514
134 480
134 521
136 278
136 327
136 413
136 451
136 483
136 531
137 427
137 473
137 491
137 530
137 541
139 140
139 150
139 452
139 453
139 482
139 537
140 150
140 453
140 464
140 522
141 215
141 267
141 376
141 436
141 446
141 502
141 508
142 397
142 398
142 463
142 542
144 444
144 474
144 491
144 532
144 541
148 206
148 332
148 382
148 454
148 487
150 197
150 522
150 537
151 164
151 198
151 466
151 484
151 525
152 153
152 462
152 471
152 489
152 529
153 471
153 489
153 530
164 290
164 418
164 525
165 180
165 237
165 506
165 537
168 207
168 432
168 496
168 502
168 547
176 180
176 203
176 368
176 506
176 521
178 252
178 541
180 504
180 506
180 521
180 537
184 223
184 254
184 266
184 499
189 223
189 270
189 305
189 499
189 511
197 198
197 208
197 522
198 484
198 522
203 234
203 237
203 282
203 325
203 368
203 506
206 210
206 275
206 332
207 215
207 502
208 284
208 329
208 379
210 286
210 408
210 493
210 494
215 267
215 502
217 250
217 252
217 296
217 471
220 302
220 385
220 450
220 465
220 478
220 540
223 254
223 304
223 305
223 499
224 527
224 539
234 325
237 282
237 327
237 506
238 251
238 259
245 246
245 255
245 256
246 247
246 256
246 292
247 248
247 292
248 258
248 292
249 250
249 339
249 462
250 296
250 339
250 462
250 471
251 281
252 296
252 345
252 347
254 304
254 349
255 256
255 273
255 274
255 289
256 289
258 259
258 277
258 292
258 308
259 277
261 265
261 278
261 531
265 268
265 429
266 499
266 532
266 545
267 314
267 508
268 275
268 332
270 499
270 511
270 514
270 533
270 545
273 274
273 287
273 288
274 288
274 289
275 332
275 432
277 294
277 308
277 340
278 451
278 531
280 281
280 294
282 325
282 327
282 413
284 329
284 382
286 376
286 408
286 436
287 288
287 303
288 289
288 303
288 334
288 335
289 335
290 291
290 383
291 421
292 308
294 340
295 339
295 388
296 339
296 345
296 390
296 391
302 450
302 478
303 334
304 305
304 397
305 397
305 398
308 323
308 340
308 364
310 346
310 348
314 450
314 508
314 512
323 337
323 363
323 364
325 413
325 483
327 379
327 413
327 451
328 344
329 379
329 382
332 487
334 335
334 360
334 375
334 395
335 336
335 360
336 337
336 360
336 377
336 378
337 363
337 378
339 388
339 390
340 364
340 366
340 381
341 366
341 367
344 367
344 369
344 384
345 347
345 391
345 428
346 348
346 386
346 387
347 349
347 428
348 370
348 387
349 428
349 430
359 375
359 393
359 394
360 377
360 395
363 364
363 380
364 380
364 381
366 367
366 381
366 399
366 412
367 384
367 399
369 384
369 386
370 387
370 416
375 394
375 395
376 436
376 446
377 378
377 395
377 409
378 409
379 451
380 381
380 410
381 412
382 383
382 454
383 419
383 454
384 399
384 427
385 446
385 450
385 465
385 508
386 387
387 415
387 416
388 390
388 424
390 391
390 458
390 501
391 428
391 458
393 394
394 435
395 409
395 423
397 398
397 463
399 412
399 427
408 494
408 538
409 423
409 425
410 439
412 443
413 483
415 416
415 457
416 431
418 525
418 539
419 421
419 454
419 493
421 424
421 493
421 494
423 425
423 452
423 453
424 494
424 538
425 438
425 453
428 430
428 458
428 503
428 505
428 540
429 547
430 463
430 505
432 434
432 496
432 547
434 436
434 496
434 502
435 452
435 480
435 482
436 502
438 453
438 464
438 466
438 484
439 440
439 466
439 468
439 485
440 468
443 470
443 473
443 488
444 457
444 474
444 491
446 508
450 508
450 512
451 487
452 453
452 482
453 464
454 493
457 474
457 492
458 501
458 503
462 471
463 505
463 542
464 484
464 522
465 501
465 503
465 540
466 484
466 485
466 525
468 470
468 485
468 486
468 527
468 539
470 486
470 488
470 528
471 530
473 488
473 489
473 530
474 492
474 532
475 510
475 514
475 533
478 505
478 540
478 542
480 482
480 504
480 521
482 504
482 537
483 531
483 548
484 522
485 525
485 539
486 527
486 528
488 489
488 528
488 529
489 529
489 530
491 541
492 510
492 532
493 494
494 538
495 514
495 534
496 502
499 545
501 503
501 538
503 540
504 521
504 537
505 540
505 542
510 532
510 533
510 545
511 514
511 534
514 533
514 534
525 539
527 528
527 539
528 529
530 541
531 548
532 545
533 545
