ply
format ascii 1.0
comment Exported from MorphoGraphX 2.0 1-254
comment Cellular mesh
element vertex 574
property float x
property float y
property float z
property float signal
element face 288
property list int int vertex_index
property int label
end_header
7.13768 -16.5901 81.2298 64010.3
7.8268 -13.3738 81.3472 60589.7
2.34655 -11.5357 82.0704 56131.6
1.37602 -12.3472 82.098 58464.9
1.07206 -14.2604 81.9571 62197.4
8.0916 -25.0893 79.8296 61426.8
8.95745 -19.5237 80.5387 60043.8
7.31692 -19.1249 80.8542 57569.4
4.23565 -19.9495 80.9619 56854.7
3.28796 -23.4485 80.4986 59566.2
3.74309 -24.8817 80.1862 57403.8
49.4972 -20.944 61.1469 33838.3
50.5324 -17.5083 61.1274 33844.6
48.5599 -14.5119 63.204 33474.5
45.8287 -16.0371 65.2997 48828.3
46.4095 -21.458 63.6812 46525.3
46.7509 -21.6145 63.362 43672.8
-15.8874 7.37773 79.9699 54420.1
-12.8178 7.10979 80.5248 47424.5
-11.5636 9.48097 80.303 53049.8
-11.3437 13.1038 79.8783 51431.7
-13.1578 15.7381 79.2069 53073.7
-14.0277 16.2728 78.94 51936.7
-16.3681 15.2871 78.6159 51304
-17.3522 8.68064 79.4268 58894
23.2629 23.1654 71.9624 57322
23.689 21.7208 72.4891 56174.9
29.0797 20.0156 70.7047 58340.9
29.8377 21.5923 69.5977 57485.5
29.9883 22.748 68.9576 56504.9
23.9039 25.1012 70.6635 61480.3
-20.4078 9.2148 78.4315 51759.9
-19.7543 15.0163 77.8849 47981
-21.6954 11.8983 77.6297 46571.2
-20.0124 -0.332094 80.006 54723.6
-16.5113 -3.26736 81.0295 53229.5
-14.064 -2.16508 81.4199 53401.8
-13.2163 0.731125 81.4016 54627.3
-17.2688 3.74906 80.3736 59771.4
-18.4645 3.30084 80.0889 56958.1
-19.522 -26.0834 78.3274 54983.5
-17.3969 -29.3414 77.8428 60201.5
-15.3603 -29.7929 78.0234 58018
-13.1007 -24.2804 79.7769 58672
-15.0459 -22.0919 79.8037 49214
-17.7892 -22.7193 79.1321 58641
-12.876 -33.6431 77.0209 52257.8
-12.8013 -30.876 78.0216 55465.6
-19.3299 -32.0101 76.5917 58482.4
-18.929 -34.1785 75.873 52856.2
-15.7871 -34.5079 76.4739 61668.3
-21.8776 21.2184 76.265 41595
-21.2055 20.5866 76.6215 37867.1
-15.7037 20.9352 77.9483 46990.6
-14.6683 23.9373 77.2539 52211.1
-21.4752 25.4408 75.2569 28454.2
-20.6957 -19.8045 78.8935 52231.5
-13.2587 -18.8702 80.8207 60080.7
-16.4623 -14.6816 80.663 55836.5
-19.4701 -16.0035 79.8743 58780.2
20.1483 12.7688 76.5889 59378.9
19.8955 11.4897 77.0054 62181.5
26.8528 8.35651 75.5192 59860.6
27.4334 8.97064 75.1671 62739.9
26.9809 12.9184 74.2583 56422.4
22.5643 15.0054 75.2347 52825.2
-21.1988 17.2686 77.0294 45662.1
-25.9089 14.3687 75.7511 47426.2
-25.2816 13.5297 76.0926 48377.1
-21.3456 -26.6977 77.8079 60786.4
-24.2175 -19.6814 78.0715 57370.1
-24.772 -21.8745 77.7109 58315.4
22.2254 -7.29588 78.104 52582.1
21.9353 -10.6994 78.2344 64309
21.327 -13.6008 78.3067 55802.2
21.565 -14.0729 78.1993 58061.9
25.0138 -14.6619 76.9986 61291.8
27.0951 -8.28618 76.3126 59074.2
24.2544 -6.64616 77.4376 57826.8
-25.8055 -39.8846 71.905 55851.1
-25.1584 -42.4448 70.9909 48546.1
-21.987 -43.5512 71.1451 53400.4
-20.6638 -41.7352 72.5109 63537.9
-24.316 -36.9978 73.5895 58797.4
-24.5705 -37.4251 73.3409 61456.7
24.8172 -31.1589 73.7703 60012.9
23.4005 -32.3116 73.9544 56797
23.0123 -35.7015 72.6053 57568.7
29.4067 -33.097 70.6735 54838
28.8981 -32.2455 71.2986 62570
26.6625 -30.2867 73.2067 55721.5
29.2116 -41.2119 66.7206 59032.2
28.578 -39.6785 67.9025 53445
24.6058 -39.2646 69.9087 55082.5
22.107 -42.7291 69.214 61137.5
22.2692 -44.047 68.272 61709.4
22.0222 -50.6588 63.8102 53979.5
23.7932 -51.1948 62.3211 56346.1
25.5225 -51.3795 61.0044 55210.4
28.3296 -48.5923 61.4002 50778.1
28.2523 -47.1953 62.6841 51034.6
27.5937 -46.22 63.895 44557.1
23.7633 -46.4891 65.7867 55934.2
-19.61 -41.16 73.2668 59950
-17.9261 -38.9827 74.6195 55797.6
-19.9855 -34.9698 75.3495 52913.2
-23.5758 -34.6008 74.4674 48902.6
-23.3544 -27.613 76.8599 57311.9
-24.3299 -27.6167 76.5584 55842.3
-25.9032 -31.9567 74.5751 44380.3
-13.837 -40.4786 74.6266 58461.3
-16.7565 -45.4348 71.2091 60620.2
-14.5618 -44.905 72.06 54554.8
-18.5767 -45.9186 70.5391 56399
-20.4441 -49.4769 68.0468 54125.2
-19.0436 -48.4224 69.0619 52469
-26.9881 -44.5544 69.6835 55289.9
-23.6622 -48.021 68.4403 53694
52.3608 1.30866 59.6458 49346.1
51.0826 0.067256 60.9871 47165.4
50.2593 -1.33008 61.8297 45725.5
53.5949 -5.82385 59.3097 38526.9
54.7979 -5.8739 58.2094 38723.7
-15.5351 -54.2944 65.1567 55818.1
-15.0735 -50.4729 68.5566 56138.7
-20.9227 -52.5585 65.1493 56590.9
-17.3698 -54.7155 64.1959 61027.1
-25.725 -51.4939 65.4556 61748.1
-22.2334 -53.2174 64.3274 57871.2
-17.8034 -57.1811 61.8668 59354.8
-17.5158 -56.1199 62.907 62407.4
-27.8165 -7.56154 77.7853 59845.5
-26.0965 -13.5466 78.2883 57895.2
-24.3394 -12.4426 78.8598 52145.9
-23.2066 -9.86212 79.4347 55598.2
-24.9759 -8.21059 78.9351 56977.9
-27.1292 -14.601 77.9133 48538.9
-27.4857 -17.4134 77.367 44727.9
-27.863 -51.3153 65.1089 57417.6
-28.5754 -45.9355 68.3814 56269.4
2.29821 -36.3226 76.4592 56903.9
4.61064 -33.7891 77.3297 53111.1
2.87533 -31.6835 78.2438 54917.8
-4.00493 -32.3769 78.2318 56635.1
-4.47384 -32.7681 78.0514 58645.1
-5.6365 -36.2974 76.4254 52047.6
-2.86662 -38.1116 75.8187 52788.3
22.4948 -37.1638 72.0487 50831.9
32.2553 -34.8993 68.3384 51506.7
32.1534 -33.9796 68.7312 51367.1
-4.32833 -43.4947 73.3131 48986.3
-0.88556 -44.6846 72.6406 56490.6
1.53486 -42.6056 73.9246 60174.4
1.65199 -42.2664 74.1012 61916
-3.1914 -39.4108 75.2038 59286.1
55.3623 -16.5417 57.5724 37457.7
53.5777 -16.5984 58.9978 42032.4
52.5241 -23.9395 57.9902 39870.5
54.5519 -23.8497 56.444 44731.7
42.3525 13.5783 64.9739 53171.3
41.535 12.355 66.1193 56227
46.9951 5.0922 63.8234 53110.3
47.5988 5.66843 63.156 52449.7
-27.665 15.6868 75.1196 36198.1
28.6029 -2.80955 75.838 62927.5
28.579 2.35205 75.4334 60001.8
26.4056 2.67307 76.2844 58099.2
23.7356 0.347348 77.4075 57239.7
24.7458 -3.20854 77.23 61418.2
2.87525 -61.3797 59.7762 52283.7
0.717933 -59.2973 61.7909 55456.8
-1.34786 -60.4057 60.7157 53581.8
-3.37582 -62.9856 58.5632 50232.2
-1.86898 -49.5973 69.8298 60793.9
0.275222 -46.5452 71.5134 58215.8
-5.80272 -44.3352 72.8911 54717
-8.12012 -47.0462 71.3492 51582.6
-8.11992 -48.2454 70.503 57772.9
31.6141 -42.2166 64.5804 48195.6
34.4111 -42.1586 62.9374 48725.8
36.2056 -39.6512 63.7668 49611.5
36.9177 -36.6103 65.0114 57982.1
35.6971 -35.8066 66.1514 56197.6
34.3544 -35.6922 66.9459 62329.8
41.274 -35.869 61.8886 43230.4
42.3309 -33.7079 62.1321 40511.7
41.1972 -30.5214 64.2318 48575.8
38.7274 -30.3814 66.1962 54649.5
1.38922 -57.1347 63.8825 59611.7
1.58028 -55.2948 65.419 51070.9
-2.99771 -54.9495 65.9582 53131.3
-5.05949 -57.589 63.5539 61469.6
-5.27163 -57.9586 63.1275 60749.8
14.5217 20.3307 75.9421 57683.6
16.9465 18.8112 75.9349 59131.2
18.7094 19.2316 75.3011 60087.6
19.6247 23.9448 72.9509 58868.1
16.4865 25.3181 73.3411 60527.9
14.4941 22.9087 74.9736 56637
-8.58019 -60.5278 60.6604 51794
46.2865 -9.63868 65.6064 49129.1
44.9923 -16.2259 65.9246 47373
48.669 -10.4248 63.5596 36394.6
41.3296 -5.37605 69.2349 56171.8
37.2243 -5.12869 72.0274 61155.3
36.4844 -8.84111 72.3847 55979
38.6295 -10.1864 70.9608 53970.8
40.9995 -8.89166 69.4278 52025.3
30.5651 25.0786 67.5375 54277.7
34.8276 18.2036 68.1999 53061.2
36.0463 19.2446 66.9121 55432.4
-14.5944 -11.8931 81.2317 55269
-12.4055 -11.6466 81.5956 57043.3
-10.532 -5.05862 82.0321 60350.8
-17.8142 -8.75324 80.9875 49376.5
9.07695 -33.4886 77.273 54544.6
9.72354 -32.7658 77.6115 60291
10.3542 -30.1154 78.5072 61389.5
3.31139 -29.4459 79.0337 60065.3
44.9744 -37.2517 58.1973 36838.1
45.4398 -32.9083 60.0196 39981.4
42.37 -37.847 59.9075 43579.3
32.1148 -27.5271 71.172 60314.9
35.8057 -29.2551 68.3498 48413.1
35.1409 -27.5223 69.2327 48643.9
7.89469 -46.2643 71.0876 56608.1
9.83699 -47.4496 69.8826 60073.7
14.6745 -44.8368 70.1978 58357.3
14.3323 -42.0834 71.7966 56258.3
11.5263 -41.0335 73.0513 56894.7
9.03369 -42.9687 72.5088 56083.4
41.4895 -39.2622 59.8427 47776.3
41.7555 -4.40303 68.8791 52164.2
46.3332 -4.90264 65.4755 48347.3
47.4841 -3.7942 64.3936 46788.5
47.7831 -1.21612 63.8715 43661.6
44.4064 1.17103 66.3653 47508.3
40.8734 -0.851051 69.1599 54469.2
30.2034 -53.3528 57.3275 54570.5
30.1 -53.9504 56.9249 60087.3
37.7723 -50.783 54.1905 50498.6
35.4066 -50.0852 56.4819 57377.5
33.8839 -49.4719 57.8598 50713.4
32.6552 -49.9349 58.1554 51484.4
41.6919 -40.5054 58.8704 42579.8
46.1626 -40.9048 54.9142 52961.5
46.8479 -39.6093 55.2814 48168.1
46.0259 -37.2538 57.3828 42735.1
4.39794 -39.9868 74.7466 58629.8
6.56691 -46.6272 71.057 59294.9
34.0117 -9.24478 73.4285 54365.5
32.2813 -15.8041 73.6148 59525.3
33.9187 -17.5924 72.4796 53754.4
35.2959 -17.5104 71.7285 57866.4
37.7655 -14.1406 71.1439 55533.6
-30.3628 4.35623 75.5322 56577.4
-33.1749 5.69921 74.0121 44729.5
-35.1804 4.88158 72.9321 41846.9
-35.5992 0.926343 73.4017 53130.7
-32.5643 -0.511322 75.2847 59886
-32.0837 -0.622172 75.5664 59056.9
52.1578 -24.0639 58.2386 40151.3
51.3734 -27.7394 57.7065 42185.9
51.752 -30.0515 56.5379 40882.3
52.4947 -29.9596 55.9929 42880
-10.2575 -46.6201 71.5178 58965.6
-10.5737 -38.8735 75.4716 53844.8
-12.427 -39.8469 75.0413 60478.3
-0.0520344 -17.9932 81.5837 53196
-1.89886 -21.721 81.2822 58613.6
-9.07399 30.7175 74.5581 51430.6
-8.26243 27.9454 75.8366 50857.6
-5.76463 28.1206 75.6558 55566.6
-2.59773 28.9857 74.9812 55965.4
-2.37507 30.3575 74.3156 56017.3
-5.07987 34.7238 71.9771 52270.4
-7.95286 34.6305 72.1724 43327.3
-13.4358 25.7953 76.5349 44037.3
-14.9827 19.6985 78.2661 51236.1
-8.74677 24.0792 77.5054 56992.5
-9.44009 25.3622 76.9227 51964.8
50.3255 -8.86595 62.2801 34263.8
51.639 -8.50849 61.1723 38231.3
-36.6304 5.81392 72.0043 45718.6
-40.3641 -3.18033 71.6992 47732.6
-38.0384 -3.07409 72.732 49197.6
-7.35747 14.1418 80.2618 57741.3
-9.58918 19.3288 79.0504 58167.3
7.55506 -63.2337 57.4272 49354.2
14.1745 -60.8095 57.5939 59559.8
13.7515 -59.6359 58.8362 57728.4
-4.84051 6.54677 81.5707 57763.7
-1.73396 9.41918 81.0408 53310.1
-2.49518 10.951 80.7967 58225.2
-5.06811 13.6844 80.339 55428
-9.41727 -5.18696 82.2104 57978.1
-5.37927 0.516134 82.2268 57409.6
-6.35583 1.87626 81.9326 52501.9
-11.0097 2.57471 81.4582 51473.8
-5.39097 -7.71847 82.4115 56913.9
-2.17467 -1.88233 82.3627 57277.9
29.9715 -42.4355 65.354 53337.3
21.8638 -45.7055 67.2309 51542.4
-4.48907 -22.8799 81.1314 58647.5
-8.80678 -20.3539 81.2865 62062.7
-8.28292 -26.602 79.7229 60209.4
-5.93511 -26.1715 80.0467 54440.9
45.4443 -9.27163 66.2798 47976.8
12.0264 29.469 72.8106 64669.3
12.0312 29.4232 72.8349 64023
11.3552 25.6884 74.7776 60026.8
16.7975 27.1607 72.35 60194.5
36.5687 -43.3515 60.6661 51525.3
40.7669 -42.1458 58.4569 50458.5
35.6458 -46.8352 58.9243 55271.9
35.7568 -45.3338 59.9264 55914.9
-11.4332 -59.2987 61.4486 54593.2
-11.5477 -57.9224 62.6905 59367.9
30.3587 -8.73924 74.8485 50277.4
31.1917 -8.48291 74.5091 52773.7
31.6233 -4.56171 74.4742 54865.4
48.2148 -26.532 60.6085 45182.2
47.6709 -26.7434 60.9232 39246.4
46.1449 -28.6052 61.2096 38475.5
47.2553 -30.6966 59.5482 38440
49.5086 -31.9849 57.3595 44968.4
38.2632 -29.8351 66.7302 58982.8
43.7759 -28.3277 63.134 34571.2
6.58258 18.5399 78.1543 55431.7
5.41081 19.7194 77.9311 54421.3
2.62307 18.2083 78.8339 60219.5
1.21463 15.3766 79.7137 59664.8
2.34571 13.6589 79.9369 59719.5
5.74569 11.5183 79.9704 58571.5
6.0844 11.8224 79.8457 56293.3
7.92789 14.2528 78.941 55104
33.1493 14.7131 70.5281 57864.4
29.0331 17.1319 71.8633 62371.7
29.304 14.9768 72.4961 60165.4
31.8109 14.4015 71.3441 54684.1
42.8219 -23.9424 65.5288 43156.5
40.3917 -24.3708 67.0148 57406.4
30.0759 -14.5758 74.8011 55007.5
25.2676 -15.3438 76.848 61067.4
27.722 -16.6235 75.6251 56864.8
41.6504 -44.0297 56.5621 49197.6
42.4518 -44.9504 55.3241 54344.3
40.7401 11.4159 67.0834 50611.1
42.4433 6.89206 67.2273 57228.1
45.3307 3.69408 65.4706 43805.3
51.2306 -35.1071 54.2432 47328.3
49.6652 -33.9463 56.2823 40861.2
27.2223 -19.5296 75.5087 58170.2
31.9225 -21.537 72.9199 58870.4
-4.00494 -53.3871 67.2457 52370.4
-9.26252 -52.736 67.448 52882.9
-11.3113 -55.1554 65.2377 55040.2
-10.8878 -56.4352 64.1224 58758.2
17.0838 8.28452 78.3146 54970.2
13.7342 10.2674 78.7684 53529.9
12.5528 8.68145 79.4688 60828.1
10.7626 5.72132 80.4265 61003.8
10.7029 4.77534 80.529 59790
16.8263 3.68105 79.0274 60033.5
-22.2173 -3.12033 79.8815 62360.7
-23.7243 -4.47586 79.4545 58256.9
-20.5706 -9.37474 80.3892 59785.6
-3.45701 -22.1325 81.3081 61380.7
-2.84164 -28.509 79.3651 63017.5
2.01374 -27.5544 79.573 55508.3
13.8895 -58.9895 59.3643 56456.1
10.8923 -58.4076 60.79 46032.5
8.53707 -58.0541 61.7845 55006.5
4.62523 -61.2669 59.7245 50153.3
22.5873 18.6215 74.137 60935.9
-3.84162 20.11 78.689 53292.8
-1.75466 21.6473 78.1717 59778.2
-1.71016 22.0094 78.0521 57894.6
-7.35457 22.0891 78.2457 52143.1
-12.6554 -39.758 75.0554 60304
31.2314 8.48126 73.5527 61162.1
26.0114 5.98297 76.1513 63150.7
32.7636 2.599 73.7381 54738.4
33.9949 4.20571 72.9124 62319.3
34.4145 5.96768 72.2926 53817.6
-5.90536 -15.9633 82.0246 59134
-8.28624 -15.1756 81.7773 57220.4
-10.6819 -18.103 81.25 56903.9
-22.2606 6.60243 78.3296 58550.9
-2.17272 -50.6079 69.1141 60835.9
4.09849 -53.6958 66.4113 52902.8
4.21846 -51.2721 68.2588 57633.5
-9.90188 -50.657 68.8877 54576.2
-13.3268 -50.3759 68.8685 54916.2
-12.9087 -46.3384 71.4296 57129.1
13.5755 -19.0578 79.5789 44240.9
13.7894 -14.2765 79.8856 52216.3
9.12242 -13.0881 81.1456 58844
18.6631 -19.3854 78.5062 60004.2
20.8075 -20.7889 77.8385 59917.1
30.0446 -26.3691 72.6469 56332.8
28.381 -26.5637 73.4965 54205.6
10.3484 -53.6307 65.3943 53020.2
13.3473 -54.753 63.5789 53545.3
17.0096 -53.7136 63.2419 53467.2
17.5025 -51.9275 64.6046 57770.6
16.0462 -49.2214 66.8934 51888.5
12.1114 -50.8231 66.9134 57299.8
26.6788 -24.1533 74.9818 59191.8
23.3213 -26.6859 75.9779 64664.6
19.0587 9.58821 77.6637 55618.1
22.1365 6.59636 77.4715 60062.6
-9.39747 -26.9873 79.4998 55218.2
21.0748 1.31882 78.1971 59981.4
19.8821 0.769602 78.5396 54538.5
19.915 -5.97204 78.7432 59009.9
38.6669 4.55505 69.9858 57386.6
39.071 -0.223088 70.4522 56637.1
-9.25023 -36.3409 76.2996 54655.3
-28.8402 -6.65918 77.296 53660.5
-27.1573 -0.850201 77.8229 56067.9
-28.6584 -2.4341 77.2484 49552.5
-15.1276 29.0915 75.1234 31899.1
11.7798 14.0067 78.314 54315.8
13.0011 18.1278 76.9687 52887.3
9.6532 19.5356 77.344 63237.8
9.33647 1.38352 81.0025 56141.9
10.6037 -0.149122 80.8945 50731.8
15.5537 -1.36817 79.5923 52844.7
17.1182 1.14356 79.1706 55233.1
53.0375 -16.2791 59.4573 40193.9
50.3181 -23.4994 59.8193 37179.1
-37.657 -34.9075 69.7062 55435.7
-36.3602 -35.006 70.3892 51358.8
-36.5709 -29.8843 71.7279 54840.6
-38.8461 -29.4831 70.847 49071.8
10.7183 -37.457 75.3254 58525.7
4.39456 -38.7562 75.3146 59584.4
24.9514 -53.2848 59.6652 53187.8
21.4893 -56.0109 58.9164 55314.7
21.5818 -56.105 58.7928 57202.8
22.6821 -58.2289 56.6259 56207.4
-28.0886 -24.4959 76.0477 49131.9
-30.2703 -27.247 75.1349 50542.6
-29.5106 -31.7695 73.3577 50833.2
-27.2637 -24.7994 76.2827 51764.3
11.0539 -36.6387 75.6666 59637.1
42.7844 -16.9355 67.2936 46874.2
41.9865 -14.5294 68.4622 54897.2
37.5932 -19.6738 69.8444 49638.2
41.8539 -18.6222 67.403 47428.9
13.0469 12.523 78.4152 57349.2
17.0977 14.3766 77.0893 63749.1
-10.3753 -29.3831 78.7616 51902.9
9.37683 -3.00043 81.3171 57906.1
2.91333 -4.38592 82.1687 55555
4.3114 -6.31932 82.1303 55562
9.18713 -6.15834 81.4018 58701.7
10.8541 -49.5021 68.2595 60022.2
4.831 -50.4038 68.7633 57767.2
7.81261 -55.1635 64.5723 47346.5
14.0395 -19.4208 79.4593 47131.9
13.2762 -23.7229 79.2429 59910.8
20.0508 -24.5851 77.3907 59147.5
21.1814 -21.695 77.5392 54780.8
-34.0218 -6.3082 74.9375 57512.3
-31.3593 -7.42513 76.3875 53853.7
-9.4093 -13.1093 81.8321 54285.9
9.62606 25.2559 75.3 57695.3
8.06174 -56.7328 63.2268 52708.6
17.4618 -41.2232 71.6624 49056.2
19.2375 -38.8664 72.4589 57168.4
16.6744 -35.2357 75.4078 62058.6
31.9909 -22.8823 72.5592 54856.3
25.4938 -21.655 75.9246 52207.1
19.2908 -31.1075 76.2345 49895.9
18.6879 -29.7382 76.8456 58182.9
17.0173 -29.4668 77.4066 58696.6
41.7128 -46.6757 54.6655 49701.9
18.0589 30.1249 70.2396 53048.4
12.981 33.0574 70.3016 54809.3
20.1337 -26.8023 76.9619 57928.9
4.68692 23.0723 76.7312 49013.2
0.589516 24.1845 76.8468 53372.5
16.6658 -47.7759 67.7038 53851.8
-34.8608 -6.21458 74.4963 56538.5
-36.5508 -5.72709 73.6242 49745.2
-38.6871 -9.14237 72.9997 47803
-35.8117 -13.7537 74.4594 53287.1
-34.7898 -14.0396 74.8479 52649.6
-33.7425 -12.9025 75.2905 54819.5
0.878169 -1.81072 82.1292 52783.3
3.23826 1.92723 81.6598 55842.1
2.5105 3.82509 81.5235 61297.8
-4.65962 4.42574 81.9075 58190.5
9.47997 -6.45208 81.328 54355
48.2605 5.74045 62.513 53188.2
-21.0495 -0.407951 79.6967 54766.3
-24.1021 1.88003 78.3502 53729
-26.2696 1.50919 77.785 49273.2
-3.39312 16.8891 79.5277 58073.3
19.1235 -55.4264 60.5315 46864.3
17.4323 -55.2547 61.4045 52108.8
16.4343 -60.42 57.3315 50325.6
42.4853 -9.64207 68.4158 50833.8
38.0366 -0.908027 71.3031 60148.2
35.5016 6.81419 71.3753 57325.9
5.26025 -47.6207 70.5043 57026
-31.0279 -42.8766 69.437 53552.7
-29.769 -38.8984 71.4366 59572.7
-32.6517 -37.3616 71.0998 50639.9
-34.9045 -39.9572 69.0885 59589.7
12.2654 -28.0425 78.646 56934.7
11.6836 -25.9249 79.159 54737.8
6.69863 26.2533 75.1627 52456.4
-30.9236 -45.2371 68.1482 54906.1
-14.3851 31.387 73.7442 30840.7
-5.23537 -8.55237 82.3893 57917.6
-35.0236 -40.0464 68.9875 59025.7
-32.8396 -36.4128 71.3383 49204.9
-23.4607 6.36932 77.9741 53130.8
6.19033 31.6088 72.8072 51062.7
8.54549 34.6831 70.542 52678.2
1.06209 35.527 71.1712 58545.8
1.43093 32.8328 72.8077 57305.1
-31.4305 -11.7824 76.5227 53569.2
-30.8175 -18.4327 76.2172 48174.2
2.89136 7.01266 81.0753 48396.4
15.143 -12.4188 79.8141 51573.3
37.422 -24.0423 68.9151 51724.4
37.0321 -22.4971 69.557 52357.1
-0.268341 -17.0602 81.7149 49245.8
-3.98359 -16.0176 82.1006 59817.6
14.8905 -8.8534 80.0645 56161
14.6343 -7.5233 80.0489 48649.2
16.307 -5.69209 79.5529 49262.7
-3.11786 -10.1818 82.3837 58384.1
1.85017 -3.77445 82.1788 57449.7
-1.60294 -10.1912 82.3595 63825.5
36.6195 -2.28654 72.3152 55415.2
43.5369 -22.1493 65.5229 41386.9
5.1013 9.12503 80.6102 55924.3
-29.2174 3.86593 76.1531 58214.1
-26.7166 8.25489 76.4335 55679.5
6.08502 28.0458 74.4525 53210.1
-0.412062 26.7594 75.8012 58017.9
23.941 27.4264 69.2981 48081.7
33.8492 -2.10893 73.5933 56039.8
52.8704 -11.9313 60.2173 37680.6
56.4368 -10.5872 57.2443 44706.8
-27.4325 8.9557 75.9974 54671.3
-32.5012 -45.5333 67.4684 62754.7
38.5025 11.7646 68.5566 58938.6
36.6467 11.1031 69.7936 50223.8
-40.5135 -26.5829 71.3529 46326.9
-34.907 -29.2885 72.4754 47926.7
-34.0421 -25.8781 73.8872 51606.4
-34.3278 -25.5048 73.8472 50585.4
38.2953 17.7048 66.2064 51529.1
-37.2744 -15.5594 73.9568 46211.8
-38.4111 -16.504 73.4043 46652
-38.3251 -20.5947 72.8078 51586.4
-34.4377 -22.5222 74.0421 48354.9
-32.8558 -21.6073 74.8029 60063
22.2057 18.1251 74.4462 56046.2
-40.9764 -9.37452 71.8618 51477.8
6.52149 30.3198 73.3933 57710.5
-31.3989 -34.0524 72.2289 53601.4
-30.912 -32.1338 72.7826 52348.6
-31.4079 -21.2222 75.3982 44716.1
-32.5681 8.56686 74.0912 34399.9
-35.2759 11.4519 72.0089 45312.6
-31.2395 10.2436 74.356 36405.8
-31.8213 15.1271 72.9632 34382.8
6 424 423 451 452 194 193 184
6 225 226 227 228 229 230 197
5 90 401 408 409 85 90
6 230 248 153 152 249 225 522
7 473 353 352 474 408 401 400 421
7 315 312 179 178 301 101 100 451
6 193 198 310 468 425 424 499
6 193 194 195 196 197 198 223
5 335 423 424 425 328 266
6 349 348 416 417 237 236 220
8 236 235 120 119 496 162 161 349 450
4 54 277 422 55 97
6 460 469 372 371 403 402 180
6 402 403 404 405 406 407 165
8 328 329 330 331 332 333 334 335 532
6 308 309 310 198 197 311 189
7 402 407 458 459 391 390 460 537
7 393 394 112 111 113 115 124 395
6 356 355 392 393 124 123 101
6 177 176 265 394 393 392 423
9 380 63 62 381 166 165 382 383 384 428
6 104 110 379 50 49 105 378
4 311 479 480 308 34
6 50 379 267 266 418 46 103
5 453 412 43 42 47 410
4 337 27 26 374 94
7 57 44 43 412 305 304 387 104
7 58 57 387 386 467 212 211 412
7 211 214 366 134 133 59 58 366
6 211 212 213 36 35 214 399
5 48 41 40 69 107 363
5 18 17 38 37 298 95
3 478 241 240 548
6 39 38 17 24 31 388 369
7 52 66 32 23 22 278 53 387
6 226 458 407 406 484 227 2
7 470 471 472 446 436 229 228 3
6 458 226 225 249 507 459 150
6 123 126 130 317 357 356 394
6 112 394 265 267 379 110 409
5 265 176 175 266 267 425
7 472 475 476 477 216 215 446 164
5 71 445 108 107 69 323
6 47 46 418 145 144 453 108
8 440 439 501 502 370 290 289 503 203
5 98 438 238 243 99 413
7 156 430 12 11 431 261 157 502
4 155 156 157 158 207
6 438 439 440 441 239 238 325
6 298 297 494 291 19 18 116
4 217 216 477 512 418
6 478 346 345 314 242 241 531
6 22 21 287 378 279 278 415
6 102 101 301 91 95 302 379
6 425 468 514 482 329 328 545
6 183 148 92 91 301 178 120
6 516 422 277 280 271 270 431
5 448 504 207 206 254 26
3 270 276 516 113
6 290 370 371 372 373 288 176
5 400 401 90 89 222 419
8 269 367 303 306 368 369 10 9 468
6 199 192 191 357 317 316 114
4 129 316 317 130 393
6 191 190 354 355 356 357 435
6 344 352 353 252 251 342 424
6 392 355 354 389 173 177 452
5 345 313 312 315 314 278
4 350 351 247 246 429
5 313 345 346 245 244 261
6 342 318 77 76 343 344 388
7 336 209 28 27 337 338 339 463
6 351 325 324 220 219 247 112
6 220 324 323 327 186 185 275
7 263 262 321 322 323 324 325 432
5 16 322 321 431 11 434
7 78 77 318 319 320 164 168 390
7 175 150 154 146 145 418 266 438
6 244 231 180 179 312 313 65
4 303 304 305 306 440
6 304 303 367 385 386 387 115
4 295 299 300 296 122
6 202 281 234 233 307 200 446
5 200 201 14 13 202 376
7 36 213 295 296 297 298 37 427
7 291 292 293 294 286 20 19 444
5 364 365 135 134 366 341
4 21 20 286 287 111
6 500 375 378 287 286 294 457
6 120 235 234 281 282 121 508
6 277 54 53 278 279 280 416
8 375 376 377 272 271 280 279 378 124
7 270 271 272 273 274 275 276 126
5 229 436 437 248 230 198
6 366 214 35 34 497 364 367
7 78 168 167 413 414 415 72 296
4 9 8 268 269 486
6 158 157 261 262 263 264 168
7 205 250 251 252 253 254 206 538
7 221 231 244 245 246 247 219 265
6 436 446 215 141 140 437 151
6 238 239 240 241 242 243 483
6 419 131 135 365 420 421 70
6 232 233 234 235 236 237 385
5 181 180 231 221 184 73
6 142 141 215 216 217 218 525
5 219 220 185 184 221 268
5 208 29 28 209 210 142
7 0 7 6 395 396 397 1 38
6 100 99 243 242 314 315 136
5 203 204 205 206 207 117
6 420 365 364 497 498 499 76
4 199 172 171 192 119
7 171 170 188 189 190 191 192 480
6 184 185 186 187 182 181 332
6 482 483 377 376 330 329 510
6 178 179 180 181 182 183 487
6 389 354 190 189 390 391 482
5 160 347 348 349 161 302
7 173 174 151 150 175 176 177 453
5 164 165 166 167 168 391
4 159 160 161 162 91
5 150 151 152 153 154 464
7 147 93 92 148 149 88 87 382
7 187 326 223 149 148 183 182 148
6 222 89 88 149 223 224 454
7 140 141 142 143 144 145 146 466
3 119 118 496 512
6 497 34 39 388 520 498 344
4 521 522 523 524 534
7 144 143 368 306 305 412 453 439
3 503 441 440 234
5 368 143 142 218 369 485
5 411 413 167 166 381 345
7 512 477 476 481 463 462 513 4
6 461 462 463 464 399 398 23
7 398 75 74 528 396 395 461 25
6 222 224 529 530 473 400 493
6 367 269 268 531 532 385 470
5 502 404 403 371 370 506
7 534 535 428 427 454 457 495 471
6 467 386 385 532 536 517 443
6 353 473 530 449 253 252 494
3 288 289 290 368
6 363 362 426 427 428 429 9
6 517 299 295 213 212 467 110
6 358 359 360 361 362 363 178
7 537 491 300 299 517 536 538 473
7 491 492 493 494 297 296 300 137
6 404 502 501 97 96 405 237
6 327 340 341 326 187 186 206
6 484 406 405 96 102 302 44
7 228 227 484 302 95 94 470 208
5 223 326 341 529 224 89
5 250 319 318 342 251 123
7 340 540 450 449 530 529 341 210
5 494 493 527 292 291 491
5 470 94 93 147 471 284
5 542 499 498 520 543 328
5 294 293 332 331 500 474
5 544 545 483 482 514 533
6 475 472 471 147 87 86 48
6 419 421 260 259 465 466 280
6 447 448 254 253 449 450 408
6 505 417 416 506 384 383 540
7 250 205 204 539 547 320 319 501
7 512 513 5 10 369 218 217 539
4 74 73 533 528 249
6 513 462 461 395 6 5 224
6 535 534 533 73 72 415 250
5 548 430 156 155 549 215
7 203 232 237 417 505 539 204 465
5 415 414 429 428 535 217
7 68 550 543 520 388 31 33 82
5 273 272 377 483 545 475
7 451 359 358 410 61 60 452 30
5 549 122 121 282 548 267
5 165 164 320 547 382 458
6 348 347 552 553 506 416 478
6 450 540 15 14 201 447 286
5 505 383 382 547 539 503
5 66 52 51 163 67 348
5 558 552 347 160 159 36
5 381 62 61 410 411 347
6 86 85 409 481 476 475 290
6 8 7 0 4 531 268 528
6 532 531 4 3 538 536 488
6 495 397 396 528 533 534 462
5 64 63 380 339 338 430
6 380 384 506 553 336 339 505
6 65 64 338 337 374 564 92
6 200 307 504 448 447 201 61
4 432 433 434 435 245
4 557 562 561 554 247
4 169 170 171 172 134
5 560 559 488 487 565 49
5 565 487 486 285 284 238
4 546 30 29 208 398
4 274 524 523 275 495
6 196 195 564 374 26 25 304
6 391 459 507 174 173 389 139
5 507 249 152 151 174 140
7 427 426 492 491 537 455 454 530
5 325 351 350 264 263 547
5 375 500 331 330 376 492
7 566 521 524 274 273 545 544 514
4 261 431 321 262 496
6 207 504 307 233 232 203 62
6 554 435 434 555 556 557 246
5 559 560 561 562 563 248
5 360 334 333 541 361 50
5 258 257 283 284 285 251
6 538 3 2 456 455 537 489
6 372 469 188 170 169 373 521
7 429 414 413 411 410 358 363 252
7 282 281 202 13 12 430 548 141
6 527 541 333 332 293 292 144
6 334 360 359 451 423 335 52
6 210 209 336 553 552 558 542
6 452 60 65 564 195 194 254
7 25 30 546 479 311 197 196 305
6 518 511 510 519 433 432 255
6 433 519 567 568 555 434 256
6 559 563 569 526 489 488 258
6 485 486 487 488 489 490 259
6 285 486 485 465 259 258 54
6 146 154 153 248 437 140 484
5 283 257 256 570 571 55
7 541 527 493 492 426 362 361 541
6 514 468 310 309 566 544 270
5 390 189 188 469 460 504
5 551 515 508 511 518 273
4 508 509 510 511 274
6 79 84 567 519 510 509 289
5 555 568 444 443 556 58
6 1 397 495 457 456 2 152
4 454 455 456 457 153
7 557 556 443 442 569 563 562 292
6 525 490 489 526 137 136 277
5 490 525 466 465 485 59
6 255 256 257 258 259 260 281
7 572 570 256 255 542 543 550 64
5 501 439 438 98 97 282
4 570 572 573 571 60
7 323 322 16 15 540 340 327 86
6 480 522 521 566 309 308 511
4 138 139 515 551 287
7 139 116 80 79 509 508 515 288
7 106 109 444 568 567 84 83 67
6 442 443 444 109 108 445 68
6 409 408 474 464 463 481 291
7 445 71 70 137 526 569 442 308
6 399 464 474 352 344 343 81
6 525 136 132 131 419 466 294
5 398 399 343 76 75 295
6 260 421 420 499 542 255 63
6 550 68 67 163 573 572 310
5 138 127 117 116 139 303
7 133 132 136 137 70 56 59 340
5 131 132 133 134 135 75
5 128 129 130 126 125 359
5 125 114 117 127 128 79
6 123 124 115 114 125 126 375
5 118 119 120 121 122 314
7 114 115 113 81 80 116 117 334
5 81 113 111 103 82 360
5 110 104 103 111 112 377
7 107 108 109 106 105 49 48 337
6 83 82 103 104 105 106 336
7 96 97 98 99 100 101 102 327
5 91 92 93 94 95 329
6 85 86 87 88 89 90 383
6 79 80 81 82 83 84 335
7 72 73 74 75 76 77 78 339
6 69 40 45 56 70 71 364
5 33 32 66 67 68 346
6 60 61 62 63 64 65 349
6 56 45 44 57 58 59 381
5 51 52 53 54 55 370
7 46 47 42 41 48 49 50 93
6 40 41 42 43 44 45 380
6 34 35 36 37 38 39 384
5 31 24 23 32 33 386
6 25 26 27 28 29 30 397
8 17 18 19 20 21 22 23 24 105
6 11 12 13 14 15 16 436
6 5 6 7 8 9 10 527
5 0 1 2 3 4 529
