ply
format ascii 1.0
comment Exported from MorphoGraphX 2.0 1-254
comment Cellular mesh
element vertex 550
property float x
property float y
property float z
property float signal
element face 275
property list int int vertex_index
property int label
end_header
-42.4701 47.9053 -4.68905 20909.2
-41.3059 47.2521 -3.7804 33198.7
-39.7825 47.2987 -3.52525 36156.1
-39.3653 48.7131 -5.00078 13319.5
29.7137 -4.38817 -7.64904 20049.9
30.128 -3.86986 -8.16029 20390.2
31.1158 0.176198 -8.20511 20628.6
30.3861 0.637615 -7.20711 30861.5
22.6963 -23.7184 -7.95633 26424.9
23.8565 -21.1416 -8.05474 18705.6
22.8258 -21.0421 -6.75833 29224
21.6702 -23.3976 -6.72239 31932.2
14.1628 27.4904 2.14158 34354.1
7.01811 28.5903 4.74093 33250.1
7.27899 25.938 5.19326 30079.1
11.2747 23.7547 4.0651 24391.4
13.4798 25.047 2.91123 29950.2
5.51015 25.3335 5.82356 25651
4.94327 22.4766 6.5848 39032.8
10.4587 19.0883 5.07725 33068.2
-0.517759 3.17581 8.42724 31700.5
-0.569469 6.33688 8.57859 33701.8
-4.73848 7.81769 9.39736 30267.3
-7.01241 3.79626 9.72748 31314.5
-7.03171 0.761785 9.50312 32891.7
-6.03144 -0.13097 9.25265 35047.5
-3.38566 13.9271 9.11209 32193.7
0.953222 10.7375 8.37564 35351.6
2.64381 16.2294 7.73975 28416.6
-1.37491 17.6241 8.51808 26621.2
-3.73611 14.7219 9.15023 26971.2
28.3356 -11.3815 -8.19771 23711.6
27.1308 -5.94738 -5.43291 32529.2
15.495 47.1184 -6.67298 20187.6
16.4255 43.7795 -5.08675 31590
17.6695 42.9258 -5.43832 32311.8
18.8357 44.5359 -7.38777 17922.4
15.8174 47.4625 -7.30933 22376.5
13.359 38.8325 -0.673185 29732.9
14.7344 37.3124 -0.952495 26771.1
17.9106 39.4831 -3.99287 34501.5
12.7205 39.4613 -0.574257 28820.6
16.2399 -27.3176 -4.46767 28551.5
20.9114 -28.037 -7.81251 15174.7
17.8651 -22.5016 -4.14087 26399.4
16.0022 -26.0134 -3.99262 27249.5
14.6342 28.8339 1.6219 25121.7
12.7307 31.8097 1.81822 25215.8
8.21946 32.283 3.63201 34237.6
6.04861 31.4179 4.44643 27992.8
17.9302 -36.3299 -6.7547 16662.6
16.9197 -34.5524 -6.03308 23368.8
10.1855 -36.6484 -3.40622 23866
10.4761 -40.0998 -3.81661 20353.4
12.543 -40.9526 -4.60701 24927.5
16.9247 -39.5117 -6.55316 15522.9
1.39644 7.50319 8.21738 31134
-6.27007 11.9483 9.68708 26586.6
-8.48127 12.31 10.0242 28157.2
-10.6164 5.1466 10.2665 39382.2
-1.50241 -54.3902 -7.07883 14072.9
6.32183 -52.6837 -7.28484 15170.6
5.98107 -52.1286 -6.40711 20084.4
-0.611248 -50.8859 -4.13145 27472.5
-2.21914 -53.3344 -5.86362 23001.6
14.9219 35.3287 -0.365486 34218.9
7.42119 35.4225 3.21816 35890.2
4.03201 20.9332 7.06084 35928.7
0.322922 27.3469 6.54 25345.1
-1.94084 24.0984 7.64349 25662
-1.00022 22.8299 7.73779 31816.5
-34.147 50.0089 -4.96775 31257.6
-32.8107 49.1803 -3.2417 38528.4
-27.2047 52.8043 -5.01289 33157.3
-26.8709 53.1839 -5.39447 12828
-23.9855 -42.4389 -5.90469 14247.9
-18.3461 -46.4242 -6.29352 17934.1
-17.5 -45.5483 -5.20364 19622
-17.6069 -42.4454 -3.44938 26894.5
-19.375 -41.3661 -3.40918 27921.1
-0.0509243 -45.9528 -2.09952 28076.6
-2.61088 -45.5156 -2.10518 28940.2
-7.64316 -47.0046 -3.21209 22256.1
-7.7388 -50.3953 -4.53218 23616.3
-53.6595 20.6682 3.53639 19988.3
-54.532 14.5881 3.14831 26636.1
-53.3005 12.6476 3.41633 26539.1
-51.4101 13.4181 4.20231 24708.1
-49.6137 21.6137 4.32129 29868.6
-50.4128 21.9082 4.09109 26898.5
22.2902 25.6765 -2.33956 31134.2
25.8674 20.0386 -3.99535 31088.1
27.309 22.5299 -5.46226 29440.5
26.7533 28.7081 -7.00401 21388.3
23.2489 29.4888 -4.37311 30085.6
-59.9412 6.26359 0.190917 18582.6
-56.5204 6.94087 1.71494 24963.9
-54.1388 8.32155 2.82735 25031
-58.2301 12.4998 2.26072 28714.6
-61.9241 8.10293 -0.0805746 22577
9.24858 -8.67057 4.04611 33946.9
9.89961 -7.1724 4.09531 30533.6
9.11279 -2.28785 5.11389 31806.1
3.04157 -2.30428 7.00339 33506.1
2.58762 -7.64939 6.47615 41121
2.95293 -8.28429 6.24412 35221.1
-19.5174 3.88084 10.6659 34827.9
-17.1169 3.68682 10.6764 30293.7
-14.0476 5.79937 10.5796 33017.5
-14.8881 8.61526 10.5666 30753
-16.5304 9.89089 10.467 28427.5
-20.6801 8.4825 10.5398 29566.1
-47.3787 29.8877 3.31802 30391.1
-45.6949 28.1097 4.05341 27329.9
-41.5769 35.4004 2.82831 34065.1
-42.8925 36.8584 1.90355 30125.5
-47.0772 33.4303 2.28804 28417.4
-43.8017 40.1823 0.406816 38287.6
-43.2005 38.8492 1.08102 35356.2
-38.5249 42.6437 0.071088 33291.7
-38.5502 44.5459 -1.19739 38773.3
-0.819597 -18.8567 3.92619 33212.7
2.41797 -14.3633 4.60207 38485.6
0.830435 -13.0629 5.36487 32608.6
-4.31126 -12.7767 6.40291 28706.4
-4.87065 -18.1214 4.90771 26585
-59.8426 14.4265 2.51686 26629.9
-54.026 20.8201 3.51704 16258
-58.2097 19.2556 3.52512 24747.2
-60.1917 17.5208 3.15081 24432.9
-51.0956 28.5134 3.30648 28710
-48.9495 28.9942 3.38495 28291
-48.937 35.0617 1.6495 32080.6
-50.16 34.5943 1.75135 30773.3
-64.9102 10.1733 -0.237275 24332.7
-64.1772 8.28462 -0.914663 20351.2
6.28063 52.1256 -3.2608 36702
9.92121 50.3819 -4.1517 29825.5
12.2989 50.0393 -5.6549 26439.9
13.3498 51.834 -7.37048 9541.51
5.25857 57.3648 -6.80067 23349.8
-64.2441 1.09258 -3.94447 26465
-61.7058 2.14641 -1.73528 25288.3
-67.4533 5.8494 -3.7414 24873.2
29.4709 21.7515 -6.81597 30929
29.9788 25.1154 -8.13054 15060.4
27.4579 28.954 -7.80118 21222.6
-40.5224 34.7437 3.40999 36387.2
-34.9993 38.7432 3.18458 32261.1
-35.4463 40.9903 1.88656 34926.2
9.89332 -21.5858 -0.00615597 30497.7
11.5014 -22.0457 -0.81302 36408.6
16.398 -20.5277 -2.91578 29265.8
17.2906 -15.2709 -1.66618 30100.4
16.2794 -14.5618 -0.815126 31969.4
12.9094 -14.9845 0.756712 29238
-20.896 -38.0153 -2.26529 26329.7
-14.3955 -40.6611 -1.88554 26909.3
-13.4393 -37.4371 -0.701168 28638.5
-15.5783 -36.8431 -0.739661 23559.6
-18.9451 -36.2817 -1.09104 19661.3
-54.4559 28.1287 3.44907 29704.4
-53.2481 26.5346 3.57586 24308
-51.2304 35.3433 1.56825 26599.9
-55.1529 32.5726 2.62905 27835
-45.1018 40.8715 -0.116831 41355.7
-59.2175 23.7734 4.31332 34552.2
-59.232 25.3348 4.36334 27246.9
22.9119 -15.8003 -5.08113 32727.5
21.4616 -15.0039 -3.91433 30697.1
21.6007 31.4569 -3.73337 28852.3
24.3553 35.7329 -7.74389 19231.2
23.0981 35.632 -6.4766 30326.9
22.4948 8.24321 -0.565377 28672.3
25.8984 8.35528 -2.95017 40335.8
27.0328 8.67919 -3.78536 38349
26.9924 14.9219 -4.1123 34832.9
24.8978 17.688 -2.94819 31323
23.5524 17.7323 -1.94155 25139.1
20.9632 13.0666 0.301705 28243.8
-24.0281 -15.2609 7.48206 31571
-17.7679 -15.1603 7.49038 29803.9
-15.8597 -12.5641 8.12315 27157.2
-16.3975 -9.37933 9.07115 24521.3
-23.7086 -8.45863 9.25785 25819.8
-25.8828 -11.3747 8.48379 29020.4
12.9686 -44.8343 -5.30137 24837.9
5.96431 -40.7676 -2.83805 19474.1
4.95888 -45.0829 -3.0695 23253.3
7.09333 -48.9141 -4.83799 23270.3
11.0309 -49.2931 -6.28553 14720
-10.7232 13.58 10.1058 36159
-15.0926 15.1815 9.90082 28122.5
-16.9009 14.0043 10.0489 26690.9
-46.6418 43.0987 -1.3279 25262.4
-43.3533 47.8968 -4.73134 29629.6
-45.9055 45.2756 -2.62376 33897
-4.34927 34.8032 5.90423 27961.6
-0.075182 33.8921 5.28521 25723.6
2.89529 38.4442 3.44636 22138.9
0.320667 42.235 2.95784 24823.6
-1.27613 43.0959 3.00212 26451.8
-5.28041 40.3824 4.61848 24475
-5.45025 40.2275 4.69145 27400
6.33972 7.02345 6.96497 28413.7
7.01411 5.05544 6.68641 33682.6
9.33437 4.12188 5.93005 36076.2
13.8176 7.60808 4.4759 33912.3
13.6702 10.7571 4.42652 33181.7
7.77899 10.5927 6.54361 39070.5
-65.4832 20.3115 3.17682 28317.5
-62.8005 17.3867 2.92127 20802.8
-15.6755 21.7468 9.32545 26549.1
-14.4923 19.7278 9.37616 26344.7
-10.1018 19.1076 9.32181 27634.4
-8.81987 19.3484 9.29892 26463.4
-8.04644 21.366 8.89391 31097.7
-7.43898 25.0413 8.20652 29955.8
-9.31568 26.86 8.03074 26787.2
-14.7657 25.5403 8.72783 26461.1
-66.5202 12.2987 0.322035 22621.4
-68.9847 13.1931 -0.0629696 21593.9
-66.2319 20.2176 2.99087 26658.5
16.9321 -7.84264 0.955807 37981.5
17.2425 -9.95331 0.320196 32030.1
21.9248 -9.33241 -2.38423 35697
23.3464 -4.93255 -2.44499 32089.7
23.1362 -4.22076 -2.16737 33084.2
18.9431 -3.66565 0.549793 29153.5
-71.0248 9.06712 -3.49089 12410.8
-71.7228 11.8137 -1.84135 25051.6
-77.8435 31.4184 -0.929211 20970.8
-76.9204 29.1799 -0.0764495 21410.2
-72.3577 28.9738 2.12846 21744.6
-69.6779 33.5128 2.53674 25503.1
-69.5314 35.5122 2.11906 23809.9
-72.8766 37.7125 0.354252 32063.8
-4.18376 -7.93374 7.56303 28643.6
-5.39132 -11.0665 7.01021 25160.6
2.97133 -34.8013 -1.55105 26179.1
8.36093 -34.3579 -2.67874 26873.3
11.0405 -30.5767 -3.05891 25061.4
9.54602 -29.4969 -2.31803 29070.6
2.73104 -30.9736 -0.677431 25918.8
1.67023 -33.0463 -0.921573 22111.7
-12.3932 -31.6122 1.25809 33791.8
-12.1405 -31.4195 1.3239 35030.3
-9.95418 -26.2989 2.9859 36551.5
-10.5075 -26.2409 3.05882 32706.3
-16.9926 -28.2116 2.3813 28120.9
-17.373 -29.6877 1.77488 26173.3
-68.0905 22.0761 2.87384 23418.3
-62.1714 28.7805 4.35445 28407.4
-63.2809 28.6316 4.30955 22564
-67.9551 25.4535 3.27497 22667
2.85005 43.8696 1.84264 33702.4
-2.3382 48.948 0.545417 28397.2
-3.65549 47.7561 1.44254 20131.3
-55.1373 48.4279 -4.16621 30107
-54.6827 45.2254 -1.21195 27672.4
-53.8094 44.8455 -1.1071 30069.8
-51.6588 48.0203 -4.38679 26148.2
-58.4679 43.3446 0.1882 33195.6
-56.2918 38.762 1.73434 28317.1
-52.4055 41.298 0.246618 25414.7
20.8831 23.9988 -0.888318 34678.6
19.9307 31.3763 -2.40156 31821.7
17.3345 29.1999 0.0944092 30799.4
-19.7619 -34.3852 -0.4397 25149.1
-18.5163 -30.9164 1.17751 21335.3
-65.5462 31.5832 3.83484 35664.9
-58.1807 32.8616 3.22394 24264
-59.6495 36.2939 2.77337 25873.7
-61.5093 37.262 2.56731 33230.8
-72.4094 12.3328 -1.90052 19758.9
-73.9539 19.6623 0.527772 22633.5
-59.9343 43.683 0.0134478 27129.1
-63.2622 39.6687 1.50725 20406.5
-27.3445 39.6689 4.36504 22996.6
-29.4399 37.0317 5.13983 27797.5
-28.1044 34.0218 6.62915 32984.2
-26.9534 32.3599 7.28223 28493.9
-19.801 34.6322 7.20137 25583.8
-19.652 36.6647 6.59427 29909.1
-21.8363 40.5232 4.87051 25762.1
5.31177 38.348 2.90337 30221.1
0.665756 31.5893 5.64346 25726.3
-71.4885 27.4107 2.43824 30798.6
-74.7795 20.4691 0.343425 18935.3
12.5644 -50.6517 -7.69511 6602.71
-5.16546 -4.73171 8.33086 22207.7
-12.9072 -6.7863 9.22614 27698.7
-16.2085 -8.85055 9.21524 27228.6
-11.3929 -12.8575 7.58524 32922
-0.425394 29.6601 6.25465 28863.3
-9.14583 29.4906 7.60653 32439.9
-10.763 -18.7018 5.69282 30289.8
-5.8856 -19.0609 4.7448 28113.5
-32.389 24.5708 8.11324 28663.7
-31.605 22.0127 8.54759 27591.9
-28.5829 20.5434 9.02417 29937.9
-23.5764 23.1584 9.1852 30125.9
-24.6673 27.5917 8.43839 29636
-26.535 29.3739 8.00153 32054.1
-51.2518 40.5657 0.262579 24595.9
-64.7675 39.4853 1.39214 21629.7
6.65776 -24.1003 0.191357 31295.4
6.00163 -27.3858 -0.682385 23784.9
8.72676 -28.076 -1.72511 27100.5
11.0794 -25.307 -1.72944 31219.2
7.59739 -22.0475 0.619569 28352.2
-17.8568 -21.6547 5.01311 30568
-23.0492 -22.3669 4.74556 28300.6
-25.1703 -24.7458 3.54968 30572.1
-23.3954 -29.9175 1.24301 27490.8
-19.9075 -2.68453 10.4898 39051.9
-24.6387 -2.25188 10.1484 31788
-24.5664 -2.58373 10.1335 32012.1
-79.3837 20.3128 -3.23828 20925.6
-73.4746 11.2887 -3.56779 17284.9
-78.2957 21.0812 -1.80566 21913.9
-20.5894 18.3727 10.001 31143.8
-20.5355 14.4364 10.1762 31687.3
-19.6841 21.732 9.73152 25859.7
-25.7149 -41.3257 -5.86816 17518.8
-25.4233 -39.5032 -4.44304 26699.3
-78.9607 24.9032 -1.69268 21853.4
1.99777 -28.806 0.0504001 29260.2
2.06109 -29.8712 -0.243237 25215.5
10.1391 40.9872 0.028415 30295.8
13.1347 47.2467 -4.88717 25774.9
10.148 44.0191 -1.40702 25810.5
-45.8569 -28.8056 -4.9917 29063.5
-44.0961 -27.4221 -2.29526 34591.2
-48.9855 -22.2394 -1.75821 35161.3
-50.7117 -23.6311 -4.49682 39240.7
-48.5616 7.07041 5.63802 29130.7
-46.1497 6.35268 6.65137 28715.1
-44.1622 6.88709 7.17481 25434.1
-43.0717 11.2637 7.16242 27305.8
-45.4943 15.8673 6.20271 26364.5
-46.26 16.1208 5.93387 28381.6
-49.062 13.7509 5.17545 26760.9
-1.41735 19.6782 8.34311 38595.7
-1.37958 -26.9249 1.36173 24522.6
-4.34673 -27.404 1.80128 23475.9
-6.43046 -30.8261 1.07124 26843.5
-47.2217 -1.84848 5.788 37907.2
-45.048 -2.0916 6.52812 27820
-41.3062 0.758593 7.63765 30862.1
-41.7607 4.51775 7.73065 24505.7
-67.2365 43.5936 -1.22432 24681.2
-61.7773 46.4237 -1.96648 30438.7
-62.1606 46.6308 -2.35176 31614.3
7.32475 15.6146 6.48807 29192.9
4.04293 16.8452 7.38276 28534.4
-55.6412 48.4075 -4.05588 29982.6
-52.8871 -2.07685 2.88483 27174.4
-51.9073 -11.8599 1.03526 30782.4
-50.5349 -12.1983 1.8387 30264.7
-47.8435 -10.9767 3.96648 30926.9
-49.1965 -2.41228 4.83252 29537
-50.6688 -1.33116 4.15067 24844.7
-6.1773 -25.3208 2.71181 25522.1
-0.0519314 -24.6488 1.80249 34149.6
0.73451 -20.409 3.09998 31228.6
-30.5628 -25.4692 2.55172 24788.7
-32.7536 -22.067 3.91908 27284.9
-37.4576 -23.2038 2.64915 31472.3
-32.024 -27.3611 1.44628 26193.8
-9.36569 -36.651 -0.536254 21506.4
-7.5042 -33.2856 0.332844 23469.3
-7.72604 -32.0416 0.755435 22832.7
-24.564 -18.4191 6.33658 30715.1
-32.1612 -19.3887 5.17449 29296.9
19.8261 21.8933 0.20272 36417
16.1555 15.2418 2.96934 36926.8
17.9443 14.1761 2.1417 32719.7
17.4112 21.7024 1.62028 30407
-35.8176 27.9568 6.70539 26246
-34.3139 27.2039 7.25591 29204.4
-33.0389 37.2358 4.30236 30961.7
-35.6989 31.2877 5.86431 32026
-32.8333 -29.6202 0.0396024 21557.3
-40.3106 -23.8229 1.43336 26100.9
-40.4043 -26.2607 0.00336146 28299.9
-36.5928 -29.9683 -0.921268 26083.8
-12.0844 -20.3448 5.29714 29372.6
-16.9702 -20.6987 5.38581 23158.1
-18.8197 49.3036 0.401992 30723.2
-16.5419 44.5657 3.5187 29397
-13.9737 44.3702 3.64229 23523.4
-12.637 45.4395 3.13675 22478.1
-11.5727 48.5007 1.52383 20269
-13.2264 50.3767 0.306145 30806.2
21.7902 38.5151 -6.46448 25744.7
22.757 39.426 -7.48101 12363.7
26.5707 -15.5535 -7.93398 21582.6
-29.8394 -37.8848 -4.74669 21907.5
-31.0624 -35.233 -2.99209 24210.2
-37.9841 -32.2216 -2.74898 29109.5
-39.8644 -33.7187 -5.22176 26993.3
-30.6869 -38.7965 -5.73682 18938.6
-25.1313 48.4533 -0.652146 32596.5
-25.22 51.1299 -2.80546 32261.4
-32.5741 47.7277 -1.85739 39867.6
-31.4166 45.696 -0.0206192 27837.6
-29.544 45.3978 0.626802 32416.1
-55.9263 -11.4211 -1.64105 23223.6
-55.2759 -11.957 -1.34385 29040.2
-54.0415 -2.04656 2.19601 26219.3
-56.0053 -3.18098 0.787505 27551.4
-50.2254 5.96832 4.76325 24670.4
-26.5679 -31.9603 -0.212691 27693
-30.2792 -32.4246 -1.08874 26543.8
13.7663 -1.06013 3.67768 38921.9
17.3781 -1.60379 1.80387 32843.5
19.7508 3.4874 1.11271 25125.8
17.059 5.89568 2.85677 40714.2
16.0727 5.96003 3.41437 38926.3
-59.9314 -1.79094 -1.47699 26735.6
-62.5116 -3.33085 -4.09749 28270.9
-59.3243 -11.1883 -4.29255 27550.7
10.2895 16.7638 5.34255 34358.1
14.1768 14.5006 3.93643 29075
-20.8202 43.1958 3.76214 24137.5
-22.6846 46.894 1.09848 24418.3
-2.68868 -34.0829 -0.24714 32750
-36.1533 -7.72242 8.05444 31483.6
-35.5214 -11.4015 7.70632 41774.6
-32.3343 -15.1569 6.96452 32775.2
-28.0874 -11.5573 8.28333 29570
-31.4453 -6.20768 8.84437 28785
17.6865 -32.2202 -6.26424 20096.5
13.9147 -30.213 -4.13822 23393.5
-12.3357 39.06 5.77145 33129.7
-11.5294 38.0466 6.0186 24514.9
-8.07337 43.3782 4.02704 30583.3
2.27374 -1.78235 7.27046 32650.7
10.9801 -0.715118 4.78647 30377.4
2.0271 0.714345 7.61581 36580.4
6.18003 -20.0983 1.71969 29322.6
6.94127 -15.4064 2.97686 30175.4
-21.1928 52.861 -3.14538 38864.8
-20.4259 54.6485 -4.50778 32220.2
-20.7511 55.6081 -5.63009 31225.6
-15.4825 -0.601318 10.4433 31079.5
-24.734 2.41586 10.2438 26141.2
-19.3716 49.2659 0.302641 30179.6
-47.7934 21.4877 4.80794 23166.3
-45.2005 25.7648 4.6535 21550.5
-7.09997 -40.2965 -1.29089 25285.4
-4.0424 -39.7278 -1.03957 21280.5
17.9685 -44.4249 -7.84323 7371.8
-4.93681 -4.14414 8.40101 26822.1
18.6563 -40.5424 -7.86467 6891.38
-79.8826 32.3229 -3.16219 26408.6
-73.3839 38.7823 -0.36126 30131.4
-75.4117 40.3129 -3.2928 21164.5
-48.9433 -21.8091 -1.45159 35018.2
-43.5396 -20.1646 2.23742 23942.9
-46.7691 -20.3303 0.573112 32177.6
-10.3777 -53.181 -6.60477 8523.51
-68.3852 43.7018 -1.62765 20087
-69.4276 44.7915 -3.37518 20272.6
-62.3467 47.2513 -3.81922 17124.6
19.5062 -36.0265 -7.85606 10926
-47.871 47.5132 -4.40243 24073.2
-80.3101 24.7379 -3.15316 20366.8
-1.99926 -40.52 -1.1647 25442
2.10128 -38.8897 -1.78371 21333.6
-55.9276 -16.0375 -3.60304 28332.7
20.2684 -31.3477 -7.96619 11523.4
29.9236 1.27257 -6.60944 37071.1
26.5647 1.65636 -3.64214 38553.5
24.4821 1.54578 -2.10157 35701.8
-46.3643 -10.926 4.73024 35630.8
-42.6907 -10.0607 6.10203 28539.1
-42.5024 -7.96623 6.42644 26765
-39.0807 -16.7377 5.15015 28039.3
-33.4398 -17.2292 5.93413 27034.3
-40.4276 -13.7546 5.91722 35144.8
-42.2275 26.3546 5.39797 33549.5
-39.7646 33.3296 4.18681 34887.1
-36.8101 13.6482 8.468 28629.5
-35.1411 12.9574 8.89153 24099.8
-31.8832 14.1383 9.34769 28220.9
-28.248 17.4423 9.45357 26586
-37.6436 18.2786 8.00663 31625.2
-44.0139 17.5894 6.54416 31159.5
-41.4134 25.8334 5.75746 33788.3
-40.0471 25.3963 6.22305 27775.4
7.787 45.4862 -0.727804 30282.9
5.98679 46.235 -0.172731 28666.5
3.93461 44.3017 1.36123 29754.9
7.5287 40.0292 1.58785 32649.6
9.61641 -13.4616 2.61377 29546.1
-39.0916 19.4555 7.60454 33038.7
-38.0136 -0.126441 8.27353 29517.8
-36.1978 0.241988 8.73042 33388
-37.463 6.46517 8.65469 28418.6
21.0272 3.98985 0.352127 31457.5
-17.0999 31.6842 7.92567 24431.1
-11.5525 34.7086 6.78571 22187.9
-14.1158 -46.2996 -4.2879 22718.8
-9.80412 -45.036 -2.84375 23540.4
-9.22942 -43.0313 -2.09259 26423.7
-12.6954 52.2888 -0.893181 29549.5
-14.2089 54.9019 -3.30815 29037.7
-17.2946 55.2435 -4.13589 35644.4
-10.3911 13.6562 10.0871 31078.9
-17.2778 56.49 -5.71069 36996.1
-13.6361 56.652 -6.15685 14308.3
-6.04602 48.0812 1.69266 25416.2
-7.43426 49.0242 1.35835 29279.5
-14.5995 -50.3479 -6.4655 6719.11
-56.3221 -16.5881 -4.40148 31214.2
-42.3937 -19.0137 3.39021 33219.7
-14.5259 -1.78734 10.2561 36879.6
-33.9598 7.92373 9.36729 31520.6
-8.1013 53.4219 -1.35648 39866.9
-8.63114 57.4729 -6.37817 27957.6
-26.4301 15.8684 9.8343 30340.3
-21.4982 22.6673 9.50061 35755
-17.5561 29.9164 8.28133 24034.4
-16.1024 27.4745 8.57948 30745.5
-7.39771 52.6582 -0.850387 40698.9
-1.45551 50.752 -0.686646 25393.5
-2.21903 52.7485 -1.80053 29268.1
-1.88745 55.23 -3.71001 34271
-5.61358 57.935 -6.32808 14594.1
0.0373516 56.0452 -4.76658 32164.2
1.27204 57.5314 -6.76896 30118.9
30.4978 14.4808 -6.44473 35232.6
31.3571 16.1607 -7.24738 21546.2
-37.4233 -6.82635 7.7909 32805
-33.4512 0.660173 9.2176 27175.8
-30.9154 3.98782 9.65612 34172.7
-26.6295 4.60553 10.0546 26331.6
-25.1051 8.5682 10.3053 28004.5
-25.6619 9.9174 10.2455 31230
-30.9815 -3.19808 9.19001 28015.6
-24.8533 13.2324 10.1678 24057.2
32.868 14.7404 -8.24186 14438.8
30.3627 7.8819 -6.29112 29130
30.6552 8.33524 -6.47642 27626.2
-9.4494 32.8197 6.98109 24762.8
4.67986 48.7505 -0.815817 28984.3
5.61624 51.3426 -2.56015 38485.4
32.675 7.79255 -8.12901 18611.1
5 70 69 217 216 343 6166
6 278 284 425 426 403 407 6049
7 403 404 73 72 405 406 407 6218
6 246 372 346 345 363 247 6040
6 70 343 29 28 355 67 5954
7 438 103 102 439 206 205 440 5891
5 249 248 387 388 311 5973
6 443 444 445 74 73 404 5896
5 426 448 443 404 403 6050
6 387 248 247 363 297 296 6006
6 411 410 96 95 142 420 5894
5 216 215 30 29 343 6171
6 410 357 362 412 97 96 6042
5 420 421 422 408 411 6046
6 412 336 342 87 86 97 6033
6 379 380 280 279 381 382 5902
6 178 177 91 90 265 375 6047
7 159 158 370 371 372 246 245 6051
6 408 409 358 357 410 411 6062
8 125 297 363 345 344 364 365 121 5903
5 121 365 441 442 122 6070
6 357 358 359 360 361 362 6074
5 415 416 417 418 419 6075
6 347 348 349 350 338 337 5909
6 366 313 312 373 374 367 6174
7 336 337 338 339 340 341 342 6053
6 329 41 34 33 330 331 6182
6 376 377 179 178 375 378 6029
6 240 52 51 433 434 241 6181
6 389 390 391 392 393 394 6079
4 60 64 83 462 6111
8 413 414 399 398 325 156 160 268 6210
5 398 399 400 401 402 5961
4 190 289 453 186 5977
5 25 454 438 440 20 5966
4 402 324 325 398 6209
6 20 440 205 204 56 21 5978
5 186 453 455 55 54 5979
5 456 231 236 457 458 5866
7 204 209 354 355 28 27 56 5968
4 457 463 464 458 5969
4 455 466 50 55 5996
5 209 208 424 423 354 5981
6 387 296 293 182 181 388 6206
7 360 476 477 478 348 347 361 6081
5 468 326 232 231 456 5867
6 423 19 18 67 355 354 6200
7 423 424 376 378 16 15 19 5982
5 472 433 51 50 466 6207
7 16 378 375 265 267 46 12 5984
5 267 266 65 47 46 5963
6 231 232 233 234 235 236 5971
7 266 170 172 395 40 39 65 6208
6 235 305 351 463 457 236 5972
5 396 36 35 40 395 6216
5 464 463 351 353 465 6221
7 308 242 241 434 42 45 309 6170
7 371 427 244 243 328 346 372 5922
4 318 320 326 468 5868
6 326 320 288 287 233 232 5870
5 324 75 79 156 325 5999
6 351 305 277 276 352 353 6222
4 268 269 314 413 5869
6 318 319 274 275 288 320 5875
7 269 250 249 311 312 313 314 6204
6 234 270 273 277 305 235 5874
4 352 356 465 353 6226
6 352 276 262 259 258 356 6225
6 298 299 300 301 302 303 6084
6 296 297 125 124 238 293 5975
6 287 254 253 270 234 233 5980
8 238 237 290 291 292 183 182 293 6195
5 289 190 189 62 61 6205
6 237 104 103 438 454 290 5993
5 275 251 254 287 288 5983
7 278 279 280 281 282 283 284 5910
6 273 272 263 262 276 277 5985
6 274 230 221 222 251 275 5986
6 270 253 252 271 272 273 5876
6 265 90 94 170 266 267 5998
5 262 263 264 260 259 5987
4 395 172 171 396 6215
4 258 259 260 261 5988
8 251 222 210 166 167 252 253 254 5877
7 264 304 194 196 467 261 260 5994
6 268 160 159 245 250 269 6003
4 319 229 230 274 6227
6 471 459 461 359 358 409 6080
6 245 246 247 248 249 250 6004
5 252 167 161 164 271 5997
7 272 271 164 163 304 264 263 5879
6 123 105 104 237 238 124 5884
7 229 143 135 134 220 221 230 6228
5 221 220 211 210 222 5878
5 210 211 129 128 166 5881
6 204 205 206 207 208 209 6009
7 186 54 53 187 188 189 190 6194
6 163 133 132 165 194 304 6001
7 173 174 175 176 177 178 179 5918
6 170 94 93 146 171 172 6032
3 467 196 195 5995
5 134 126 129 211 220 6005
7 153 152 44 11 10 168 169 6184
6 166 128 127 162 161 167 5883
6 161 162 130 133 163 164 6000
7 156 79 78 157 158 159 160 6016
7 194 165 117 1 0 195 196 5882
5 92 144 145 146 93 6063
6 141 142 95 99 135 143 6012
6 127 84 89 131 130 162 6008
6 130 131 112 116 132 133 5886
5 121 122 123 124 125 6024
6 132 116 115 118 117 165 6010
6 117 118 119 120 2 1 5887
6 3 2 120 405 72 71 6217
5 134 135 99 98 126 5885
6 100 101 102 103 104 105 5898
7 126 98 85 84 127 128 129 6013
7 118 115 114 147 148 149 119 5889
7 95 96 97 86 85 98 99 6019
5 90 91 92 93 94 6048
6 84 85 86 87 88 89 6020
7 89 88 449 450 113 112 131 6021
5 112 113 114 115 116 6014
5 75 76 77 78 79 5895
5 120 119 149 406 405 6023
4 71 72 73 74 6219
4 421 420 142 141 6018
6 113 450 482 483 147 114 6027
7 484 485 486 487 300 299 488 6077
6 373 312 311 388 181 180 6190
5 449 88 87 342 341 6034
7 341 340 489 490 482 450 449 6035
5 439 415 419 207 206 6044
6 491 379 382 483 482 490 6036
5 382 381 148 147 483 6037
7 208 207 419 418 377 376 424 5900
6 284 283 435 391 390 425 6085
7 381 279 278 407 406 149 148 6039
6 180 181 182 183 184 185 6175
8 32 4 7 473 474 475 227 226 6211
6 123 122 442 496 100 105 6059
4 489 497 491 490 5901
7 102 101 223 228 416 415 439 6073
5 349 498 499 500 350 6082
6 418 417 501 173 179 377 5912
5 501 475 474 174 173 6119
6 362 361 347 337 336 412 6052
6 339 484 488 497 489 340 6055
7 491 497 488 299 298 380 379 6057
6 283 282 502 503 436 435 5923
6 77 504 505 506 157 78 6066
8 448 389 394 507 508 509 444 443 6064
5 157 506 451 370 158 5908
4 444 509 511 445 5899
4 509 508 512 511 5904
5 392 437 513 514 393 6092
5 298 303 281 280 380 5907
6 515 462 83 82 505 504 6094
5 516 335 334 459 471 6088
5 425 390 389 448 426 6060
6 359 461 460 517 476 360 5920
5 422 516 471 409 408 6061
7 338 350 500 519 485 484 339 6076
6 518 291 290 454 25 24 6198
5 370 451 452 427 371 5913
6 469 470 239 244 427 452 6124
5 507 520 521 512 508 6071
7 300 487 522 321 323 523 301 6097
7 17 14 13 49 286 294 68 6172
5 301 523 525 524 302 6090
5 328 327 344 345 346 5914
5 344 327 307 306 364 6099
6 303 302 524 502 282 281 5915
5 365 364 306 310 441 5916
7 435 436 203 202 437 392 391 5924
6 442 441 310 150 155 496 5929
7 526 514 513 257 256 527 528 6100
6 520 526 528 529 530 521 5919
4 529 531 532 530 6093
7 177 176 533 534 144 92 91 6091
4 332 333 334 335 5925
6 507 394 393 514 526 520 6086
5 348 478 535 498 349 6089
5 517 479 481 477 476 6103
5 499 536 537 519 500 5921
7 519 537 538 539 540 486 485 6107
6 478 477 481 429 428 535 6112
6 416 228 227 475 501 417 6118
7 535 428 432 541 536 499 498 6114
7 100 496 155 154 224 223 101 6102
5 486 540 542 522 487 6095
4 522 542 322 321 6108
5 323 212 219 525 523 6109
4 534 543 145 144 6110
6 470 187 53 52 240 239 6169
5 175 544 545 533 176 6120
5 436 503 546 197 203 6115
5 437 202 201 257 513 6116
7 506 505 82 81 469 452 451 6113
6 528 527 547 548 531 529 6117
8 525 219 218 295 546 503 502 524 6121
5 548 136 140 532 531 6122
7 459 334 333 385 384 460 461 6123
7 413 314 313 366 369 383 414 5956
7 541 317 316 447 538 537 536 6128
7 542 540 539 111 110 193 322 5932
7 321 322 193 192 213 212 323 6132
6 307 327 328 243 242 308 6127
7 306 307 308 309 151 150 310 6131
5 201 200 255 256 257 6134
6 255 494 493 547 527 256 5934
8 384 368 367 374 480 479 517 460 6145
5 479 480 430 429 481 6125
5 428 429 430 431 432 6136
5 538 447 106 111 539 6130
5 43 42 434 433 472 6199
8 212 213 214 215 216 217 218 219 6138
6 294 286 198 197 546 295 5936
6 223 224 225 226 227 228 6135
7 197 198 199 200 201 202 203 6139
6 63 80 81 82 83 64 6152
6 239 240 241 242 243 244 6141
6 431 185 184 317 541 432 6147
6 150 151 152 153 154 155 6146
6 68 294 295 218 217 69 5938
5 136 137 138 139 140 6142
6 401 400 386 385 333 332 6151
5 473 544 175 174 474 5939
5 533 545 549 543 534 6213
6 316 315 446 107 106 447 6153
6 106 107 108 109 110 111 6155
5 110 109 191 192 193 5937
5 192 191 510 214 213 6137
6 469 81 80 188 187 470 5944
6 199 285 495 494 255 200 5946
6 547 493 492 137 136 548 5940
6 383 369 368 384 385 386 6159
6 183 292 315 316 317 184 5947
5 154 153 169 225 224 6148
4 168 10 9 397 5958
6 329 331 492 493 494 495 6157
4 366 367 368 369 6160
7 373 180 185 431 430 480 374 6162
7 510 58 57 26 30 215 214 6165
5 309 45 44 152 151 6156
7 49 48 66 285 199 198 286 6167
5 330 138 137 492 331 6168
7 226 225 169 168 397 31 32 5952
6 473 7 6 549 545 544 6212
7 518 24 23 59 108 107 446 6178
6 59 58 510 191 109 108 6164
5 63 62 189 188 80 5955
6 66 38 41 329 495 285 6173
5 33 37 139 138 330 5950
5 399 414 383 386 400 5951
5 292 291 518 446 315 6177
6 67 18 17 68 69 70 6180
6 48 47 65 39 38 66 6187
5 60 61 62 63 64 6186
5 23 22 57 58 59 5953
6 22 21 56 27 26 57 6192
6 50 51 52 53 54 55 6197
6 13 12 46 47 48 49 5959
6 42 43 8 11 44 45 6191
6 38 39 40 35 34 41 5960
5 33 34 35 36 37 6189
4 31 5 4 32 6185
5 26 27 28 29 30 6193
6 20 21 22 23 24 25 5962
5 15 14 17 18 19 6201
5 12 13 14 15 16 6202
4 8 9 10 11 6183
4 4 5 6 7 6214
4 0 1 2 3 6220
