ply
format ascii 1.0
comment Exported from MorphoGraphX 2.0.1-254
comment Cell Graph: each vertex is a cell, each edge a wall
element vertex 275
property int label
property float x
property float y
property float z
element edge 761
property uint source
property uint target
end_header
5866 0 0 0 
5867 0 0 0 
5868 0 0 0 
5869 0 0 0 
5870 0 0 0 
5874 0 0 0 
5875 0 0 0 
5876 0 0 0 
5877 0 0 0 
5878 0 0 0 
5879 0 0 0 
5881 0 0 0 
5882 0 0 0 
5883 0 0 0 
5884 0 0 0 
5885 0 0 0 
5886 0 0 0 
5887 0 0 0 
5889 0 0 0 
5891 0 0 0 
5894 0 0 0 
5895 0 0 0 
5896 0 0 0 
5898 0 0 0 
5899 0 0 0 
5900 0 0 0 
5901 0 0 0 
5902 0 0 0 
5903 0 0 0 
5904 0 0 0 
5907 0 0 0 
5908 0 0 0 
5909 0 0 0 
5910 0 0 0 
5912 0 0 0 
5913 0 0 0 
5914 0 0 0 
5915 0 0 0 
5916 0 0 0 
5918 0 0 0 
5919 0 0 0 
5920 0 0 0 
5921 0 0 0 
5922 0 0 0 
5923 0 0 0 
5924 0 0 0 
5925 0 0 0 
5929 0 0 0 
5932 0 0 0 
5934 0 0 0 
5936 0 0 0 
5937 0 0 0 
5938 0 0 0 
5939 0 0 0 
5940 0 0 0 
5944 0 0 0 
5946 0 0 0 
5947 0 0 0 
5950 0 0 0 
5951 0 0 0 
5952 0 0 0 
5953 0 0 0 
5954 0 0 0 
5955 0 0 0 
5956 0 0 0 
5958 0 0 0 
5959 0 0 0 
5960 0 0 0 
5961 0 0 0 
5962 0 0 0 
5963 0 0 0 
5966 0 0 0 
5968 0 0 0 
5969 0 0 0 
5971 0 0 0 
5972 0 0 0 
5973 0 0 0 
5975 0 0 0 
5977 0 0 0 
5978 0 0 0 
5979 0 0 0 
5980 0 0 0 
5981 0 0 0 
5982 0 0 0 
5983 0 0 0 
5984 0 0 0 
5985 0 0 0 
5986 0 0 0 
5987 0 0 0 
5988 0 0 0 
5993 0 0 0 
5994 0 0 0 
5995 0 0 0 
5996 0 0 0 
5997 0 0 0 
5998 0 0 0 
5999 0 0 0 
6000 0 0 0 
6001 0 0 0 
6003 0 0 0 
6004 0 0 0 
6005 0 0 0 
6006 0 0 0 
6008 0 0 0 
6009 0 0 0 
6010 0 0 0 
6012 0 0 0 
6013 0 0 0 
6014 0 0 0 
6016 0 0 0 
6018 0 0 0 
6019 0 0 0 
6020 0 0 0 
6021 0 0 0 
6023 0 0 0 
6024 0 0 0 
6027 0 0 0 
6029 0 0 0 
6032 0 0 0 
6033 0 0 0 
6034 0 0 0 
6035 0 0 0 
6036 0 0 0 
6037 0 0 0 
6039 0 0 0 
6040 0 0 0 
6042 0 0 0 
6044 0 0 0 
6046 0 0 0 
6047 0 0 0 
6048 0 0 0 
6049 0 0 0 
6050 0 0 0 
6051 0 0 0 
6052 0 0 0 
6053 0 0 0 
6055 0 0 0 
6057 0 0 0 
6059 0 0 0 
6060 0 0 0 
6061 0 0 0 
6062 0 0 0 
6063 0 0 0 
6064 0 0 0 
6066 0 0 0 
6070 0 0 0 
6071 0 0 0 
6073 0 0 0 
6074 0 0 0 
6075 0 0 0 
6076 0 0 0 
6077 0 0 0 
6079 0 0 0 
6080 0 0 0 
6081 0 0 0 
6082 0 0 0 
6084 0 0 0 
6085 0 0 0 
6086 0 0 0 
6088 0 0 0 
6089 0 0 0 
6090 0 0 0 
6091 0 0 0 
6092 0 0 0 
6093 0 0 0 
6094 0 0 0 
6095 0 0 0 
6097 0 0 0 
6099 0 0 0 
6100 0 0 0 
6102 0 0 0 
6103 0 0 0 
6107 0 0 0 
6108 0 0 0 
6109 0 0 0 
6110 0 0 0 
6111 0 0 0 
6112 0 0 0 
6113 0 0 0 
6114 0 0 0 
6115 0 0 0 
6116 0 0 0 
6117 0 0 0 
6118 0 0 0 
6119 0 0 0 
6120 0 0 0 
6121 0 0 0 
6122 0 0 0 
6123 0 0 0 
6124 0 0 0 
6125 0 0 0 
6127 0 0 0 
6128 0 0 0 
6130 0 0 0 
6131 0 0 0 
6132 0 0 0 
6134 0 0 0 
6135 0 0 0 
6136 0 0 0 
6137 0 0 0 
6138 0 0 0 
6139 0 0 0 
6141 0 0 0 
6142 0 0 0 
6145 0 0 0 
6146 0 0 0 
6147 0 0 0 
6148 0 0 0 
6151 0 0 0 
6152 0 0 0 
6153 0 0 0 
6155 0 0 0 
6156 0 0 0 
6157 0 0 0 
6159 0 0 0 
6160 0 0 0 
6162 0 0 0 
6164 0 0 0 
6165 0 0 0 
6166 0 0 0 
6167 0 0 0 
6168 0 0 0 
6169 0 0 0 
6170 0 0 0 
6171 0 0 0 
6172 0 0 0 
6173 0 0 0 
6174 0 0 0 
6175 0 0 0 
6177 0 0 0 
6178 0 0 0 
6180 0 0 0 
6181 0 0 0 
6182 0 0 0 
6183 0 0 0 
6184 0 0 0 
6185 0 0 0 
6186 0 0 0 
6187 0 0 0 
6189 0 0 0 
6190 0 0 0 
6191 0 0 0 
6192 0 0 0 
6193 0 0 0 
6194 0 0 0 
6195 0 0 0 
6197 0 0 0 
6198 0 0 0 
6199 0 0 0 
6200 0 0 0 
6201 0 0 0 
6202 0 0 0 
6204 0 0 0 
6205 0 0 0 
6206 0 0 0 
6207 0 0 0 
6208 0 0 0 
6209 0 0 0 
6210 0 0 0 
6211 0 0 0 
6212 0 0 0 
6213 0 0 0 
6214 0 0 0 
6215 0 0 0 
6216 0 0 0 
6217 0 0 0 
6218 0 0 0 
6219 0 0 0 
6220 0 0 0 
6221 0 0 0 
6222 0 0 0 
6225 0 0 0 
6226 0 0 0 
6227 0 0 0 
6228 0 0 0 
5866 5867
5866 5969
5866 5971
5866 5972
5867 5868
5867 5870
5867 5971
5868 5870
5868 5875
5869 5956
5869 6003
5869 6204
5869 6210
5870 5875
5870 5971
5870 5980
5870 5983
5874 5876
5874 5971
5874 5972
5874 5980
5874 5985
5874 6222
5875 5983
5875 5986
5875 6227
5876 5877
5876 5879
5876 5980
5876 5985
5876 5997
5877 5878
5877 5881
5877 5883
5877 5980
5877 5983
5877 5986
5877 5997
5878 5881
5878 5986
5878 6005
5878 6228
5879 5985
5879 5987
5879 5994
5879 5997
5879 6000
5879 6001
5881 5883
5881 6005
5881 6013
5882 5887
5882 5994
5882 5995
5882 6001
5882 6010
5882 6220
5883 5997
5883 6000
5883 6008
5883 6013
5884 5898
5884 5975
5884 5993
5884 6024
5884 6059
5884 6195
5885 6005
5885 6012
5885 6013
5885 6019
5885 6228
5886 6000
5886 6001
5886 6008
5886 6010
5886 6014
5886 6021
5887 5889
5887 6010
5887 6023
5887 6217
5887 6220
5889 6010
5889 6014
5889 6023
5889 6027
5889 6037
5889 6039
5891 5898
5891 5966
5891 5978
5891 5993
5891 6009
5891 6044
5891 6073
5894 6012
5894 6018
5894 6019
5894 6042
5894 6046
5894 6062
5895 5999
5895 6016
5895 6066
5896 5899
5896 6050
5896 6064
5896 6218
5896 6219
5898 5993
5898 6059
5898 6073
5898 6102
5899 5904
5899 6064
5900 5912
5900 5981
5900 5982
5900 6009
5900 6029
5900 6044
5900 6075
5901 6035
5901 6036
5901 6055
5901 6057
5902 5907
5902 5910
5902 6036
5902 6037
5902 6039
5902 6057
5903 5914
5903 5916
5903 5975
5903 6006
5903 6024
5903 6040
5903 6070
5903 6099
5904 6064
5904 6071
5907 5910
5907 5915
5907 6057
5907 6084
5908 5913
5908 6016
5908 6051
5908 6066
5908 6113
5909 6052
5909 6053
5909 6076
5909 6081
5909 6082
5909 6089
5910 5915
5910 5923
5910 6039
5910 6049
5910 6085
5912 5918
5912 6029
5912 6075
5912 6118
5912 6119
5913 5922
5913 6051
5913 6113
5913 6124
5914 5922
5914 6040
5914 6099
5914 6127
5915 5923
5915 6084
5915 6090
5915 6121
5916 5929
5916 6070
5916 6099
5916 6131
5918 5939
5918 6029
5918 6047
5918 6091
5918 6119
5918 6120
5919 6071
5919 6086
5919 6093
5919 6100
5919 6117
5920 6074
5920 6080
5920 6081
5920 6103
5920 6123
5920 6145
5921 6076
5921 6082
5921 6107
5921 6114
5921 6128
5922 6040
5922 6051
5922 6124
5922 6127
5922 6141
5923 5924
5923 6085
5923 6115
5923 6121
5924 6079
5924 6085
5924 6092
5924 6115
5924 6116
5924 6139
5925 6088
5925 6123
5925 6151
5929 6059
5929 6070
5929 6102
5929 6131
5929 6146
5932 5937
5932 6095
5932 6107
5932 6108
5932 6130
5932 6132
5932 6155
5934 5940
5934 5946
5934 6100
5934 6117
5934 6134
5934 6157
5936 5938
5936 6115
5936 6121
5936 6139
5936 6167
5936 6172
5937 6132
5937 6137
5937 6155
5937 6164
5938 6121
5938 6138
5938 6166
5938 6172
5938 6180
5939 6119
5939 6120
5939 6211
5939 6212
5940 6117
5940 6122
5940 6142
5940 6157
5940 6168
5944 5955
5944 6113
5944 6124
5944 6152
5944 6169
5944 6194
5946 6134
5946 6139
5946 6157
5946 6167
5946 6173
5947 6128
5947 6147
5947 6153
5947 6175
5947 6177
5947 6195
5950 6142
5950 6168
5950 6182
5950 6189
5951 5956
5951 5961
5951 6151
5951 6159
5951 6210
5952 5958
5952 6135
5952 6148
5952 6184
5952 6185
5952 6211
5953 5962
5953 6164
5953 6165
5953 6178
5953 6192
5954 5968
5954 6166
5954 6171
5954 6180
5954 6193
5954 6200
5955 6152
5955 6186
5955 6194
5955 6205
5956 6159
5956 6160
5956 6174
5956 6204
5956 6210
5958 6183
5958 6184
5959 5963
5959 5984
5959 6167
5959 6172
5959 6187
5959 6202
5960 6173
5960 6182
5960 6187
5960 6189
5960 6208
5960 6216
5961 6151
5961 6209
5961 6210
5962 5966
5962 5978
5962 6178
5962 6192
5962 6198
5963 5984
5963 5998
5963 6187
5963 6208
5966 5978
5966 5993
5966 6198
5968 5978
5968 5981
5968 6009
5968 6192
5968 6193
5968 6200
5969 5972
5969 6221
5971 5972
5971 5980
5972 6221
5972 6222
5973 6004
5973 6006
5973 6190
5973 6204
5973 6206
5975 6006
5975 6024
5975 6195
5975 6206
5977 5979
5977 6194
5977 6205
5978 6009
5978 6192
5979 5996
5979 6194
5979 6197
5980 5983
5981 5982
5981 6009
5981 6200
5982 5984
5982 6029
5982 6200
5982 6201
5982 6202
5983 5986
5984 5998
5984 6029
5984 6047
5984 6202
5985 5987
5985 6222
5985 6225
5986 6227
5986 6228
5987 5988
5987 5994
5987 6225
5988 5994
5988 6225
5993 6195
5993 6198
5994 5995
5994 6001
5996 6197
5996 6207
5997 6000
5998 6032
5998 6047
5998 6048
5998 6208
5999 6016
5999 6209
5999 6210
6000 6001
6000 6008
6001 6010
6003 6004
6003 6016
6003 6051
6003 6204
6003 6210
6004 6006
6004 6040
6004 6051
6004 6204
6005 6013
6005 6228
6006 6040
6006 6206
6008 6013
6008 6020
6008 6021
6009 6044
6010 6014
6012 6018
6012 6019
6012 6228
6013 6019
6013 6020
6014 6021
6014 6027
6016 6051
6016 6066
6016 6210
6018 6046
6019 6020
6019 6033
6019 6042
6020 6021
6020 6033
6020 6034
6021 6027
6021 6034
6021 6035
6023 6039
6023 6217
6023 6218
6024 6059
6024 6070
6027 6035
6027 6036
6027 6037
6029 6047
6032 6048
6032 6063
6032 6208
6032 6215
6033 6034
6033 6042
6033 6052
6033 6053
6034 6035
6034 6053
6035 6036
6035 6053
6035 6055
6036 6037
6036 6057
6037 6039
6039 6049
6039 6218
6040 6051
6042 6052
6042 6062
6042 6074
6044 6073
6044 6075
6046 6061
6046 6062
6047 6048
6047 6091
6048 6063
6048 6091
6049 6050
6049 6060
6049 6085
6049 6218
6050 6060
6050 6064
6050 6218
6052 6053
6052 6074
6052 6081
6053 6055
6053 6076
6055 6057
6055 6076
6055 6077
6057 6077
6057 6084
6059 6070
6059 6102
6060 6064
6060 6079
6060 6085
6061 6062
6061 6080
6061 6088
6062 6074
6062 6080
6063 6091
6063 6110
6064 6071
6064 6079
6064 6086
6066 6094
6066 6113
6071 6086
6073 6075
6073 6102
6073 6118
6073 6135
6074 6080
6074 6081
6075 6118
6076 6077
6076 6082
6076 6107
6077 6084
6077 6095
6077 6097
6077 6107
6079 6085
6079 6086
6079 6092
6080 6088
6080 6123
6081 6089
6081 6103
6081 6112
6082 6089
6082 6114
6084 6090
6084 6097
6086 6092
6086 6100
6088 6123
6089 6112
6089 6114
6090 6097
6090 6109
6090 6121
6091 6110
6091 6120
6091 6213
6092 6100
6092 6116
6093 6117
6093 6122
6094 6111
6094 6113
6094 6152
6095 6097
6095 6107
6095 6108
6097 6108
6097 6109
6097 6132
6099 6127
6099 6131
6100 6116
6100 6117
6100 6134
6102 6135
6102 6146
6102 6148
6103 6112
6103 6125
6103 6145
6107 6128
6107 6130
6108 6132
6109 6121
6109 6132
6109 6138
6110 6213
6111 6152
6111 6186
6112 6114
6112 6125
6112 6136
6113 6124
6113 6152
6114 6128
6114 6136
6114 6147
6115 6121
6115 6139
6116 6134
6116 6139
6117 6122
6118 6119
6118 6135
6118 6211
6119 6211
6120 6212
6120 6213
6121 6138
6122 6142
6123 6145
6123 6151
6123 6159
6124 6141
6124 6169
6125 6136
6125 6145
6125 6162
6127 6131
6127 6141
6127 6170
6128 6130
6128 6147
6128 6153
6130 6153
6130 6155
6131 6146
6131 6156
6131 6170
6132 6137
6132 6138
6134 6139
6135 6148
6135 6211
6136 6147
6136 6162
6137 6138
6137 6164
6137 6165
6138 6165
6138 6166
6138 6171
6139 6167
6141 6169
6141 6170
6141 6181
6142 6168
6145 6159
6145 6160
6145 6162
6145 6174
6146 6148
6146 6156
6146 6184
6147 6162
6147 6175
6148 6184
6151 6159
6152 6186
6153 6155
6153 6177
6153 6178
6155 6164
6155 6178
6156 6170
6156 6184
6156 6191
6157 6168
6157 6173
6157 6182
6159 6160
6160 6174
6162 6174
6162 6175
6162 6190
6164 6165
6164 6178
6165 6171
6165 6192
6165 6193
6166 6171
6166 6180
6167 6172
6167 6173
6167 6187
6168 6182
6169 6181
6169 6194
6169 6197
6170 6181
6170 6191
6170 6199
6171 6193
6172 6180
6172 6201
6172 6202
6173 6182
6173 6187
6174 6190
6174 6204
6175 6190
6175 6195
6175 6206
6177 6178
6177 6195
6177 6198
6178 6198
6180 6200
6180 6201
6181 6197
6181 6199
6181 6207
6182 6189
6183 6184
6183 6191
6184 6191
6185 6211
6185 6214
6186 6205
6187 6208
6189 6216
6190 6204
6190 6206
6191 6199
6192 6193
6194 6197
6194 6205
6195 6198
6195 6206
6197 6207
6199 6207
6200 6201
6201 6202
6208 6215
6208 6216
6209 6210
6211 6212
6211 6214
6212 6213
6212 6214
6215 6216
6217 6218
6217 6219
6217 6220
6218 6219
6221 6222
6221 6226
6222 6225
6222 6226
6225 6226
6227 6228
