ply
format ascii 1.0
comment Exported from MorphoGraphX 2.0.1-254
comment Cell Graph: each vertex is a cell, each edge a wall
element vertex 126
property int label
property float x
property float y
property float z
element edge 342
property uint source
property uint target
end_header
2025 0 0 0 
2027 0 0 0 
2036 0 0 0 
2045 0 0 0 
2056 0 0 0 
2063 0 0 0 
2066 0 0 0 
2067 0 0 0 
2071 0 0 0 
2072 0 0 0 
2073 0 0 0 
2074 0 0 0 
2075 0 0 0 
2076 0 0 0 
2078 0 0 0 
2079 0 0 0 
2080 0 0 0 
2082 0 0 0 
2084 0 0 0 
2086 0 0 0 
2087 0 0 0 
2088 0 0 0 
2089 0 0 0 
2090 0 0 0 
2091 0 0 0 
2092 0 0 0 
2094 0 0 0 
2098 0 0 0 
2099 0 0 0 
2100 0 0 0 
2101 0 0 0 
2103 0 0 0 
2106 0 0 0 
2108 0 0 0 
2109 0 0 0 
2110 0 0 0 
2111 0 0 0 
2112 0 0 0 
2113 0 0 0 
2114 0 0 0 
2115 0 0 0 
2127 0 0 0 
2129 0 0 0 
2131 0 0 0 
2136 0 0 0 
2147 0 0 0 
2151 0 0 0 
2152 0 0 0 
2154 0 0 0 
2157 0 0 0 
2158 0 0 0 
2159 0 0 0 
2170 0 0 0 
2172 0 0 0 
2176 0 0 0 
2177 0 0 0 
2178 0 0 0 
2179 0 0 0 
2181 0 0 0 
2182 0 0 0 
2183 0 0 0 
2188 0 0 0 
2189 0 0 0 
2190 0 0 0 
2191 0 0 0 
2192 0 0 0 
2200 0 0 0 
2201 0 0 0 
2202 0 0 0 
2205 0 0 0 
2206 0 0 0 
2208 0 0 0 
2209 0 0 0 
2212 0 0 0 
2214 0 0 0 
2215 0 0 0 
2223 0 0 0 
2228 0 0 0 
2229 0 0 0 
2230 0 0 0 
2231 0 0 0 
2237 0 0 0 
2238 0 0 0 
2239 0 0 0 
2240 0 0 0 
2242 0 0 0 
2247 0 0 0 
2248 0 0 0 
2250 0 0 0 
2251 0 0 0 
2253 0 0 0 
2257 0 0 0 
2258 0 0 0 
2259 0 0 0 
2260 0 0 0 
2262 0 0 0 
2263 0 0 0 
2266 0 0 0 
2267 0 0 0 
2268 0 0 0 
2269 0 0 0 
2270 0 0 0 
2271 0 0 0 
2274 0 0 0 
2283 0 0 0 
2284 0 0 0 
2287 0 0 0 
2291 0 0 0 
2292 0 0 0 
2293 0 0 0 
2294 0 0 0 
2296 0 0 0 
2297 0 0 0 
2304 0 0 0 
2306 0 0 0 
2308 0 0 0 
2309 0 0 0 
2311 0 0 0 
2314 0 0 0 
2315 0 0 0 
2317 0 0 0 
2318 0 0 0 
2319 0 0 0 
2321 0 0 0 
2322 0 0 0 
2325 0 0 0 
2025 2111
2025 2112
2025 2189
2025 2191
2025 2311
2027 2100
2027 2110
2027 2114
2027 2159
2027 2206
2027 2267
2036 2112
2036 2113
2036 2191
2036 2208
2036 2325
2045 2072
2045 2092
2045 2154
2045 2319
2045 2322
2056 2127
2056 2152
2056 2229
2063 2101
2063 2111
2063 2158
2063 2183
2063 2294
2063 2309
2066 2067
2066 2073
2066 2172
2066 2181
2066 2192
2066 2214
2066 2215
2067 2074
2067 2181
2067 2215
2067 2228
2071 2079
2071 2089
2071 2115
2071 2129
2071 2131
2071 2152
2071 2179
2071 2258
2072 2087
2072 2154
2072 2159
2072 2260
2072 2322
2073 2078
2073 2177
2073 2192
2073 2200
2073 2214
2074 2228
2074 2230
2074 2231
2075 2099
2075 2100
2075 2111
2075 2158
2075 2189
2075 2205
2075 2267
2076 2188
2076 2190
2076 2209
2076 2212
2076 2223
2076 2237
2078 2200
2078 2214
2078 2238
2078 2239
2078 2248
2079 2152
2079 2229
2079 2258
2079 2314
2080 2084
2080 2209
2080 2223
2080 2266
2082 2109
2082 2136
2082 2170
2082 2182
2082 2201
2082 2321
2084 2209
2084 2266
2084 2284
2086 2214
2086 2239
2086 2240
2086 2271
2086 2274
2087 2154
2087 2253
2087 2260
2088 2239
2088 2248
2088 2270
2088 2271
2088 2293
2089 2179
2089 2182
2089 2258
2089 2259
2089 2315
2089 2317
2090 2091
2090 2094
2090 2103
2090 2230
2090 2231
2090 2242
2090 2251
2090 2297
2091 2103
2091 2242
2092 2201
2092 2259
2092 2262
2092 2319
2092 2322
2094 2101
2094 2250
2094 2251
2094 2297
2094 2311
2094 2325
2098 2106
2098 2108
2098 2151
2098 2266
2098 2268
2098 2284
2098 2291
2099 2100
2099 2110
2099 2205
2099 2262
2099 2322
2100 2110
2100 2267
2101 2111
2101 2250
2101 2274
2101 2294
2101 2311
2103 2113
2103 2297
2103 2325
2106 2127
2106 2151
2106 2152
2106 2291
2106 2318
2108 2115
2108 2151
2108 2268
2108 2292
2108 2304
2109 2136
2109 2176
2109 2293
2109 2308
2109 2321
2110 2159
2110 2322
2111 2158
2111 2189
2111 2311
2112 2191
2112 2311
2112 2325
2113 2325
2114 2206
2114 2267
2114 2296
2115 2129
2115 2131
2115 2151
2115 2304
2127 2152
2127 2318
2129 2151
2129 2152
2131 2170
2131 2179
2131 2182
2131 2304
2131 2306
2136 2157
2136 2176
2136 2201
2136 2202
2147 2154
2147 2253
2147 2315
2147 2317
2147 2319
2151 2152
2152 2229
2154 2253
2154 2319
2157 2158
2157 2176
2157 2183
2157 2202
2158 2183
2158 2202
2158 2205
2159 2206
2159 2260
2159 2263
2159 2322
2170 2182
2170 2306
2170 2321
2172 2178
2172 2181
2172 2192
2176 2183
2176 2308
2177 2178
2177 2190
2177 2192
2177 2200
2178 2192
2179 2182
2182 2201
2182 2259
2183 2308
2183 2309
2188 2190
2188 2209
2189 2191
2189 2267
2190 2200
2190 2212
2191 2208
2191 2267
2191 2296
2200 2212
2200 2238
2201 2202
2201 2259
2201 2262
2202 2205
2202 2262
2205 2262
2206 2263
2208 2296
2209 2223
2212 2237
2212 2238
2212 2247
2214 2215
2214 2239
2214 2240
2215 2228
2215 2240
2223 2237
2223 2266
2223 2268
2223 2269
2228 2230
2228 2240
2228 2250
2228 2251
2229 2314
2230 2231
2230 2251
2231 2242
2237 2247
2237 2269
2238 2247
2238 2248
2238 2257
2239 2248
2239 2271
2240 2250
2240 2274
2247 2257
2247 2269
2248 2257
2248 2270
2250 2251
2250 2274
2257 2269
2257 2270
2257 2287
2258 2314
2258 2315
2259 2317
2259 2319
2260 2263
2262 2322
2266 2268
2266 2284
2267 2296
2268 2269
2268 2292
2269 2287
2269 2292
2269 2304
2270 2287
2270 2293
2271 2274
2271 2293
2271 2294
2271 2308
2271 2309
2274 2294
2283 2284
2283 2291
2283 2318
2284 2291
2287 2293
2287 2304
2287 2306
2287 2321
2291 2318
2292 2304
2293 2308
2293 2321
2294 2309
2297 2325
2304 2306
2306 2321
2308 2309
2311 2325
2314 2315
2315 2317
2317 2319
