ply
format ascii 1.0
comment Exported from MorphoGraphX 2.0 1-254
comment Cellular mesh
element vertex 250
property float x
property float y
property float z
property float signal
element face 126
property list int int vertex_index
property int label
end_header
-6.51071 -2.97532 13.7931 47268.3
-4.14067 -1.37132 14.1948 50698.4
-3.96559 5.45836 14.8621 52440.1
-7.11462 7.08636 14.6568 47110.7
-8.68555 6.35796 14.4496 47368.7
-9.25948 3.5319 14.2348 59793.3
-9.52009 -1.85517 13.6093 47659.1
-9.66193 -18.3697 9.23801 46397.9
-7.25384 -20.8667 8.40835 51170.9
-3.32942 -16.2633 10.609 54333.4
-8.03643 -14.2313 10.9567 47100.9
-6.58991 -22.5701 7.63354 48327.3
-8.27929 -24.9514 6.24439 55121
-9.58275 -27.8327 4.38973 53296.5
-8.11839 -28.8924 3.87442 49419.5
-2.01071 -26.9405 5.33397 57556
-1.68023 -26.0088 5.87806 56109.8
-2.14894 -23.4032 7.32577 49614
-7.06803 -30.7329 2.7511 44205.3
-3.98982 -31.8667 2.22777 46737.1
-1.69678 -29.5586 3.73807 51023.5
-11.5981 25.049 11.2064 55717.4
-6.30204 24.9475 12.4988 57844
-5.25134 30.4686 10.7464 59923.7
-6.60363 31.3623 10.0474 63452.6
-9.24708 31.8229 9.1964 60434.5
-11.7342 29.665 9.49355 59031
-12.2373 26.5929 10.5247 60462.9
-11.189 -9.93078 11.7456 50426.2
-8.30348 -10.8714 11.9327 47838.8
-6.67156 -9.46252 12.4768 47819.6
-5.91372 -6.13176 13.2856 52339
-11.4979 -2.729 13.1402 46180.3
-12.0276 -33.9608 -0.573021 41940
-4.40581 -34.3801 0.55471 51234.7
16.8758 18.1835 13.3227 54115
17.0146 14.7443 13.6927 60631.2
22.8082 12.4999 12.5889 59683.3
24.2644 15.5809 11.8974 56747.4
20.6744 19.4735 12.1547 62709.1
16.5142 11.8049 13.8911 52350.1
21.0217 7.93489 12.9986 57213.5
22.7324 9.66643 12.6838 60397.5
16.6065 14.1476 13.8055 60126.9
36.5565 9.25343 8.4482 67438.8
32.7566 9.60722 9.92296 63842.3
31.236 5.33314 10.2823 58182.3
33.0254 3.94097 9.53857 63348.8
35.6142 3.32877 8.45976 64042.7
-13.7597 2.37429 13.2555 55587.5
-13.3377 -2.09075 12.8395 47070.7
22.2425 -19.3838 5.19076 48804.1
19.7455 -22.0235 4.73341 46960.1
18.1804 -25.3846 3.33661 55494
19.2587 -26.1038 2.53639 59447.7
24.2897 -19.9822 3.93519 50727.8
-10.8084 37.4223 5.74358 58335.2
-11.2616 42.1886 2.22249 51840.7
-16.6153 41.0053 1.73139 61143.3
-15.0337 36.9811 4.85933 57390.8
-17.7732 35.127 5.10252 54442.6
-17.2942 33.4443 6.10493 59824.8
-15.8855 31.5407 7.43532 56260.5
-10.1874 36.989 6.16331 59674.1
-6.19092 10.6221 14.7164 55870.7
-6.73741 12.0824 14.5711 53315.5
-11.0702 14.1265 13.6594 56842.5
-14.5254 14.2521 12.7957 54209.6
-16.5519 11.484 12.4687 54627.5
-14.8741 8.02282 13.1689 51471.7
-15.4398 -3.11564 12.1412 47691.4
-17.623 -7.74553 10.6202 50444
-13.2171 -10.6114 11.1642 50930.4
-3.78811 15.9204 14.5746 44389.6
-4.96162 17.5708 14.2412 48471.8
-8.19393 18.9981 13.4932 55822.4
-15.2294 -14.1183 9.68759 56417.7
-17.254 -17.6528 7.90044 48487.6
-15.6082 -19.6614 7.56133 47037.9
-16.4539 -22.0434 6.27061 46419.4
-17.624 -24.2986 4.76638 48478.9
-15.1427 -27.8158 3.33962 40694.8
-12.9967 -29.4077 2.75483 42368.9
-20.5397 26.9793 7.70238 55594.4
-18.8584 24.927 8.93245 50701.9
-18.927 23.3739 9.3684 49513
-15.0815 21.0231 11.3082 52550
-12.8425 21.541 11.8506 49697.4
-21.4578 13.7812 10.3627 49661.8
-19.8659 11.9172 11.2067 54763.1
-15.9983 18.6057 11.5681 54517.5
-16.5433 5.86571 12.646 53064
-18.9882 4.46288 11.7102 57950.9
-19.5444 -0.435863 11.0882 49608.6
15.1507 10.206 14.0935 49695.9
14.1776 4.58325 13.911 52351
16.3104 2.59528 13.416 51138.3
19.1204 3.09065 12.987 53083.3
21.8543 -2.82817 11.458 56280.6
22.28 -1.63413 11.6063 56977.9
22.3196 0.394312 11.9606 50363.4
15.6471 -1.78274 12.9305 56513.8
-20.307 -9.08526 9.37428 46054.3
-20.8243 -11.0907 8.6943 48510.7
-20.9154 -26.0436 2.53877 45011.3
-21.6858 -27.9063 0.878508 42442
-25.1309 30.3364 5.0537 51309.3
-23.596 29.6937 5.75673 55451.2
-20.2725 37.4977 3.05745 55488.9
-3.87151 36.7862 7.64022 61882.5
-0.998045 36.7795 7.94771 59907.9
-0.781645 39.1546 6.33839 61900.1
-22.4399 27.6641 6.81809 53407.1
-20.6905 -17.552 6.76818 50778.5
-23.7173 -22.7696 3.20132 47408
-13.6316 -31.8545 0.720567 46801.1
-23.6297 -29.9008 -1.76348 35441.5
13.1081 20.4729 13.6149 58768
22.2755 22.7848 10.7298 65252.9
21.9657 25.2372 9.90176 56286.6
16.8328 27.3491 10.5966 65010.1
14.4162 24.1563 12.3992 64991.3
-1.3029 21.6277 13.9811 56256.1
-1.85705 23.8127 13.4608 55975.8
-26.3537 22.3128 6.82259 56985
-24.9967 21.7259 7.47902 58270.1
-23.049 20.8758 8.45324 52096.7
20.6568 -8.15881 10.3782 55995
21.8832 -6.60511 10.5043 53683.1
13.5657 -4.38117 12.8068 54060.9
15.8054 -6.95668 11.8431 58171
13.928 -14.6496 9.89384 59361.7
16.5208 -16.6638 8.43313 57396.1
19.965 -15.8067 7.76836 54500
20.7962 -13.4234 8.48927 59150.3
14.8115 -9.75873 11.2961 61548.8
12.9824 -26.0556 4.33481 56429.2
12.3744 -27.5371 3.6143 57370.7
13.2137 -29.809 2.16874 57781
31.4249 -11.4256 4.69026 56903.2
33.9563 -5.17768 6.53262 57692.2
31.5726 -3.59277 8.26101 62003.3
29.0105 -9.83604 6.79966 59612.5
-28.4626 16.1928 6.82805 45495.3
-25.8753 13.916 8.2782 45801.4
-23.4768 14.5829 9.34414 50053.8
-28.7121 -9.27324 5.34335 44547.7
-27.3086 -15.3694 4.45318 42944.4
-23.4517 -14.9529 6.505 45057
-23.4875 -6.91982 8.47534 42145.6
-28.5821 -17.1091 3.08068 45866.7
-26.4585 -21.7332 2.30991 38862.7
-0.561505 24.8604 13.3027 59558.9
0.780203 28.5811 12.1982 58534.7
-0.823286 30.0666 11.5181 58028
10.3478 30.6807 10.5757 56969.6
16.1567 28.5745 10.2305 61281.5
17.279 32.0613 8.00795 63541.1
10.4907 33.7854 8.80616 56918
-35.5776 -3.82095 1.66858 41266.8
-32.664 2.19731 4.50679 41964.7
-36.6751 4.48629 2.00172 45050.8
-37.2897 4.24883 1.52815 48304.7
24.3326 27.8097 7.83851 56961.6
3.29387 -30.1478 3.22678 50184.6
5.84533 -26.9958 4.86621 56023.4
5.62359 -25.0645 6.00095 55352.7
6.46283 -31.7266 2.13071 49681.9
8.89423 -27.9227 3.97141 57534.3
4.05872 -31.5617 2.38341 49032.1
15.372 -20.4103 6.96105 60971.2
8.95322 -16.0356 10.2125 54511.5
10.1118 -14.6997 10.5654 49034.2
9.93163 -10.1791 12.0174 58263.2
8.9503 -8.3253 12.6034 56519.7
2.05906 -9.72393 12.7384 46610
1.46384 -11.2004 12.3574 45138.6
2.68971 -14.2319 11.3959 49145.8
26.5238 2.42278 11.2399 53333.7
28.8689 -1.99058 9.70998 53658
31.2449 -2.79216 8.64847 57402.4
27.9327 4.87118 11.1595 53277.2
-27.9661 9.27753 7.45664 48992.7
-23.7686 6.05074 9.64265 52960.9
-22.6495 6.06038 10.1824 55070.4
-26.3404 -0.0059534 8.00667 51067.3
-23.8466 -1.1796 9.13826 49806.2
10.7433 15.0161 14.6278 61452.3
10.8612 11.8556 14.661 55542.2
-29.4196 22.7758 5.59451 46845
11.0985 4.09952 14.2325 47789.2
9.32619 -0.962224 13.863 47305.2
9.55595 -3.5305 13.4662 46472.3
0.448549 -17.284 10.2785 51411.9
0.566574 -20.5487 8.74999 50081.1
2.51826 -21.0186 8.44231 53107.3
9.15762 -17.5498 9.54178 59939
1.22487 34.5969 9.35888 62316.4
7.23737 35.522 8.33198 63410
27.3039 -4.48275 9.50856 58008.1
-34.0347 10.6783 4.18642 46005.5
-34.8262 12.0212 3.80704 42792.6
-36.5633 12.0239 2.82722 53256.4
1.2711 33.2559 10.1061 62700
8.74611 29.9428 11.2026 62285.9
26.0742 8.31264 11.8345 59003.8
26.4621 -8.71137 8.33591 54777.5
28.0903 20.902 9.32469 59749.9
27.1741 15.3841 11.0612 56535.2
27.8871 15.7276 10.7733 55720.1
8.84629 5.43768 14.5473 45316.3
4.13289 6.59318 14.9172 39393.6
1.89464 3.865 14.8119 40009.7
1.99622 1.78425 14.6206 41388.1
34.9428 15.4539 8.14872 65397.4
32.1742 13.0649 9.75943 53503
6.02555 -23.4683 6.86279 45221
-1.36125 8.69986 15.0877 57185.2
-2.26503 5.5188 14.9351 46313.9
3.24303 8.88238 15.0516 49269.6
-27.7811 -23.8872 0.253976 40981.5
-0.409284 -1.44768 14.2777 46131.5
1.50449 -4.69788 13.774 48088.2
8.61061 -4.53699 13.3931 50441.5
-31.3938 2.7635 5.34195 35676.8
-28.5245 -0.531573 6.77681 47630.9
-29.0464 8.84028 6.88431 56024.2
-30.2437 -7.77887 4.73617 36373.9
5.88476 17.6564 14.6961 50663.8
7.16882 18.1506 14.589 53721
8.47775 20.1679 14.226 54375.5
7.25474 23.1306 13.7235 59890.3
0.895458 -6.32821 13.4943 51504.4
4.45343 11.3373 15.0426 43854.2
9.18798 11.372 14.8003 48378.2
3.28795 13.715 15.0213 40130.7
0.0377194 14.2064 14.9686 43752.4
-1.50314 9.97114 15.0887 57211.8
28.8955 21.439 8.80916 60951.6
25.5434 -13.6827 6.59339 60797.5
26.4014 -8.76163 8.33861 53810.8
-32.9868 -8.65563 2.70064 38546
-31.9436 -17.9281 0.468275 38473.2
-30.7014 17.2391 5.74196 44500.5
-31.8449 19.0897 5.11634 46400.1
10.3907 -21.8434 7.21859 50442.2
26.4964 -17.4315 4.21213 50504.9
12.0201 -22.9479 6.32527 52565.2
8.29222 25.6984 12.9133 63933.2
7.17278 28.0013 12.2274 59183.9
7 181 205 42 41 97 100 178 2322
5 217 218 212 211 219 2176
5 233 219 211 210 234 2157
6 219 233 235 236 237 217 2183
5 119 118 207 238 163 2114
5 208 38 37 42 205 2110
6 74 73 236 235 228 122 2063
7 234 188 187 229 228 235 233 2158
7 228 229 230 231 152 123 122 2111
5 163 157 156 120 119 2296
5 153 152 231 248 249 2025
6 207 118 39 38 208 209 2027
5 249 204 203 154 153 2112
6 158 198 197 203 204 155 2036
4 111 110 197 198 2113
6 177 193 194 195 196 171 2115
6 240 206 199 99 98 128 2319
7 171 172 173 174 175 176 177 2131
5 199 179 178 100 99 2045
5 167 168 165 164 169 2127
6 16 15 20 164 165 166 2106
8 216 166 165 168 137 136 247 245 2152
6 16 166 216 195 194 17 2151
4 245 196 195 216 2129
5 222 232 175 174 223 2170
4 159 160 161 162 2178
6 213 221 222 223 192 191 2082
6 191 190 210 211 212 213 2136
5 141 140 48 47 180 2087
5 169 164 20 19 34 2318
6 139 142 206 240 239 246 2147
4 168 167 138 137 2056
6 180 179 199 206 142 141 2154
6 8 11 17 194 193 9 2108
5 176 175 232 31 30 2306
8 245 247 170 132 131 172 171 196 2071
4 45 44 214 215 2263
6 178 179 180 47 46 181 2072
7 192 223 174 173 135 130 129 2182
7 177 176 30 29 10 9 193 2304
7 205 181 46 45 215 209 208 2159
7 187 43 36 35 117 230 229 2075
5 121 248 231 230 117 2189
7 121 120 156 155 204 249 248 2191
5 215 214 238 207 209 2206
5 162 161 200 201 202 2172
6 221 1 0 31 232 222 2321
6 159 241 227 225 224 160 2177
5 200 161 160 224 226 2192
4 202 201 243 244 2181
6 213 212 218 2 1 221 2109
4 220 151 150 242 2188
6 241 242 150 147 146 227 2190
4 135 173 172 131 2179
7 226 182 144 143 243 201 200 2066
7 129 101 96 95 190 191 192 2201
6 190 95 94 188 234 210 2202
5 40 43 187 188 94 2205
6 149 186 185 225 227 146 2200
4 155 156 157 158 2208
6 22 123 152 153 154 23 2311
6 116 105 104 114 151 220 2209
6 148 147 150 151 114 113 2076
6 146 147 148 103 102 149 2212
6 224 225 185 183 182 226 2073
6 243 143 125 124 189 244 2067
5 143 144 145 126 125 2215
5 189 124 112 107 106 2074
4 139 140 141 142 2253
5 136 137 138 54 53 2229
5 53 52 170 247 136 2079
7 24 23 154 203 197 110 109 2325
7 131 132 133 134 127 130 135 2089
6 93 92 184 183 185 186 2078
6 127 128 98 101 129 130 2259
7 182 183 184 89 88 145 144 2214
7 84 83 112 124 125 126 85 2228
7 117 35 39 118 119 120 121 2267
5 115 82 81 105 116 2084
7 113 114 104 80 79 78 77 2223
6 93 186 149 102 71 70 2238
6 90 86 85 126 145 88 2240
5 112 83 62 61 107 2230
5 106 107 61 60 108 2231
4 81 80 104 105 2080
5 113 77 76 103 148 2237
5 76 72 71 102 103 2247
6 184 92 91 69 68 89 2239
5 51 133 132 170 52 2258
6 98 99 100 97 96 101 2092
6 41 40 94 95 96 97 2262
6 70 50 49 91 92 93 2248
5 88 89 68 67 90 2086
6 21 27 84 85 86 87 2250
5 83 84 27 26 62 2251
4 60 59 58 108 2242
6 80 81 82 13 12 79 2266
6 11 8 7 78 79 12 2268
8 72 76 77 78 7 10 29 28 2269
5 65 73 74 75 66 2294
6 32 50 70 71 72 28 2257
5 5 4 69 91 49 2088
8 4 3 64 65 66 67 68 69 2271
6 75 87 86 90 67 66 2274
8 60 61 62 26 25 63 56 59 2090
4 56 57 58 59 2091
5 51 52 53 54 55 2314
6 33 18 14 13 82 115 2284
5 32 6 5 49 50 2270
5 44 45 46 47 48 2260
6 40 41 42 37 36 43 2099
5 35 36 37 38 39 2100
4 33 34 19 18 2283
7 28 29 30 31 0 6 32 2287
7 75 74 122 123 22 21 87 2101
7 21 22 23 24 25 26 27 2094
6 109 110 111 57 56 63 2103
6 55 246 239 134 133 51 2315
5 18 19 20 15 14 2291
7 11 12 13 14 15 16 17 2098
4 7 8 9 10 2292
7 0 1 2 3 4 5 6 2293
4 109 63 25 24 2297
5 134 239 240 128 127 2317
6 64 3 2 218 217 237 2308
5 237 236 73 65 64 2309
