ply
format ascii 1.0
comment Exported from MorphoGraphX 2.0.1-254
comment Cell Graph: each vertex is a cell, each edge a wall
element vertex 556
property int label
property float x
property float y
property float z
property list uchar float CellCenters
element edge 1588
property uint source
property uint target
end_header
3 0 0 0 3 -122.897 97.9768 0.999999 
4 0 0 0 3 -129.072 92.912 0.999999 
5 0 0 0 3 -140.482 95.088 0.999999 
11 0 0 0 3 -161.709 154.606 0.999999 
12 0 0 0 3 -61.6314 57.7119 0.999999 
15 0 0 0 3 -119.103 28.3824 0.999999 
16 0 0 0 3 -116.597 -15.3102 0.999999 
17 0 0 0 3 -105.634 -1.32769 0.999999 
18 0 0 0 3 -106.057 9.42652 0.999999 
20 0 0 0 3 -70.3165 -7.85065 0.999999 
21 0 0 0 3 -75.1628 11.9761 0.999999 
22 0 0 0 3 -42.8689 32.9295 0.999999 
23 0 0 0 3 -57.7618 47.1728 0.999999 
24 0 0 0 3 -54.4468 43.8542 0.999999 
25 0 0 0 3 -47.8399 47.281 0.999999 
26 0 0 0 3 -45.5083 55.0317 0.999999 
27 0 0 0 3 -33.2177 67.7308 0.999999 
28 0 0 0 3 5.56635 67.6331 0.999999 
30 0 0 0 3 62.3066 66.3845 0.999999 
31 0 0 0 3 88.152 51.4173 0.999999 
32 0 0 0 3 69.057 32.5496 0.999999 
37 0 0 0 3 15.4529 18.1888 0.999999 
39 0 0 0 3 -21.0916 10.0226 0.999999 
40 0 0 0 3 -10.9535 42.4188 0.999999 
41 0 0 0 3 -40.0643 17.8657 0.999999 
42 0 0 0 3 -34.6103 14.8884 0.999999 
43 0 0 0 3 -39.6528 2.99914 0.999999 
44 0 0 0 3 -36.5564 -9.13648 0.999999 
45 0 0 0 3 -46.0661 -8.52323 0.999999 
46 0 0 0 3 -49.4993 -18.1807 0.999999 
48 0 0 0 3 -73.1376 -34.299 0.999999 
49 0 0 0 3 -99.4651 -51.4462 0.999999 
50 0 0 0 3 -119.697 -57.2474 0.999999 
51 0 0 0 3 -96.8092 -44.3145 0.999999 
52 0 0 0 3 -100.857 -66.6143 0.999999 
53 0 0 0 3 -71.8307 -61.5743 0.999999 
54 0 0 0 3 -67.0024 -47.9204 0.999999 
55 0 0 0 3 -57.8812 -50.0561 0.999999 
56 0 0 0 3 -31.804 -54.6398 0.999999 
61 0 0 0 3 36.5134 -15.1377 0.999999 
62 0 0 0 3 21.882 -33.5516 0.999999 
63 0 0 0 3 21.1125 -41.2584 0.999999 
64 0 0 0 3 19.3332 -46.0398 0.999999 
65 0 0 0 3 30.3443 -44.6792 0.999999 
66 0 0 0 3 36.6722 -30.2047 0.999999 
67 0 0 0 3 61.2804 -11.1328 0.999999 
68 0 0 0 3 78.9752 12.6988 0.999999 
71 0 0 0 3 96.3691 40.011 0.999999 
72 0 0 0 3 100.97 43.3701 0.999999 
73 0 0 0 3 105.571 24.383 0.999999 
76 0 0 0 3 82.0027 -0.599297 0.999999 
77 0 0 0 3 98.8828 -26.026 0.999999 
78 0 0 0 3 62.7127 -40.7115 0.999999 
79 0 0 0 3 77.873 -60.9013 0.999999 
80 0 0 0 3 105.138 -54.7602 0.999999 
81 0 0 0 3 30.5296 -63.5702 0.999999 
82 0 0 0 3 -1.44788 -66.8525 0.999999 
83 0 0 0 3 2.13996 -75.5896 0.999999 
84 0 0 0 3 3.37436 -79.2193 0.999999 
85 0 0 0 3 11.1854 -75.8445 0.999999 
86 0 0 0 3 17.0044 -76.4902 0.999999 
87 0 0 0 3 11.6285 -67.0426 0.999999 
92 0 0 0 3 -242.513 -4.62147 0.999999 
93 0 0 0 3 -251.693 -45.2421 0.999999 
94 0 0 0 3 -251.189 -63.6156 0.999999 
95 0 0 0 3 -250.092 -82.0521 0.999999 
96 0 0 0 3 -230.504 -103.334 0.999999 
97 0 0 0 3 -226.39 -62.7165 0.999999 
98 0 0 0 3 -222.822 -24.48 0.999999 
100 0 0 0 3 -208.604 9.65606 0.999999 
101 0 0 0 3 -207.777 -6.06121 0.999999 
103 0 0 0 3 -175.094 -5.41124 0.999999 
104 0 0 0 3 -145.313 -3.6173 0.999999 
105 0 0 0 3 -139.09 -13.56 0.999999 
106 0 0 0 3 -147.136 -14.9084 0.999999 
107 0 0 0 3 -164.456 -20.4412 0.999999 
109 0 0 0 3 -191.873 -40.8456 0.999999 
110 0 0 0 3 -207.641 -63.7368 0.999999 
111 0 0 0 3 -198.026 -68.2156 0.999999 
112 0 0 0 3 -177.973 -57.5612 0.999999 
113 0 0 0 3 -183.847 -79.1641 0.999999 
114 0 0 0 3 -202.287 -91.5074 0.999999 
115 0 0 0 3 -206.161 -118.689 0.999999 
116 0 0 0 3 -193.263 -112.732 0.999999 
117 0 0 0 3 -191.757 -124.293 0.999999 
119 0 0 0 3 -179.575 -93.5909 0.999999 
120 0 0 0 3 -171.43 -92.8886 0.999999 
121 0 0 0 3 -158.335 -74.2303 0.999999 
122 0 0 0 3 -146.517 -35.7108 0.999999 
123 0 0 0 3 -141.986 -56.305 0.999999 
125 0 0 0 3 -142.323 -102.676 0.999999 
127 0 0 0 3 -107.089 -86.8053 0.999999 
128 0 0 0 3 -89.8194 -94.8662 0.999999 
129 0 0 0 3 -71.1549 -88.8226 0.999999 
130 0 0 0 3 -60.7648 -73.9888 0.999999 
131 0 0 0 3 -50.8046 -78.4169 0.999999 
132 0 0 0 3 -58.2826 -81.6685 0.999999 
134 0 0 0 3 -33.5669 -92.9171 0.999999 
135 0 0 0 3 -16.6806 -81.3686 0.999999 
137 0 0 0 3 -18.6552 -119.43 0.999999 
138 0 0 0 3 -15.9338 -132.389 0.999999 
139 0 0 0 3 -22.5211 -130.099 0.999999 
140 0 0 0 3 -45.0302 -122.878 0.999999 
142 0 0 0 3 -90.3311 -128.229 0.999999 
143 0 0 0 3 -69.1428 -132.239 0.999999 
144 0 0 0 3 -108.729 -111.11 0.999999 
145 0 0 0 3 -126.953 -130.913 0.999999 
147 0 0 0 3 -219.383 -136.654 0.999999 
148 0 0 0 3 -230.34 -165.866 0.999999 
149 0 0 0 3 -190.326 -144.488 0.999999 
150 0 0 0 3 -204.247 -169.547 0.999999 
151 0 0 0 3 -191.05 -158.104 0.999999 
152 0 0 0 3 -189.059 -162.441 0.999999 
153 0 0 0 3 -186.205 -170.454 0.999999 
155 0 0 0 3 -194.376 -197.245 0.999999 
156 0 0 0 3 -182.598 -217.621 0.999999 
157 0 0 0 3 -166.729 -200.738 0.999999 
158 0 0 0 3 -160.886 -175.364 0.999999 
160 0 0 0 3 -167.797 -151.501 0.999999 
161 0 0 0 3 -163.608 -160.28 0.999999 
162 0 0 0 3 -145.708 -146.017 0.999999 
163 0 0 0 3 -118.956 -156.14 0.999999 
164 0 0 0 3 -135.357 -173.794 0.999999 
165 0 0 0 3 -123.06 -176.522 0.999999 
166 0 0 0 3 -115.473 -175.608 0.999999 
167 0 0 0 3 -112.448 -199.276 0.999999 
168 0 0 0 3 -148.047 -209.878 0.999999 
170 0 0 0 3 -148.211 -200.402 0.999999 
171 0 0 0 3 -134.94 -197.201 0.999999 
172 0 0 0 3 -132 -208.842 0.999999 
173 0 0 0 3 -125.129 -213.43 0.999999 
176 0 0 0 3 -106.369 -218.511 0.999999 
177 0 0 0 3 -107.094 -227.872 0.999999 
178 0 0 0 3 -97.6113 -179.588 0.999999 
179 0 0 0 3 -100.601 -147.688 0.999999 
180 0 0 0 3 -103.88 -157.675 0.999999 
181 0 0 0 3 -97.6512 -159.325 0.999999 
182 0 0 0 3 -76.3287 -155.824 0.999999 
183 0 0 0 3 -54.7294 -140.587 0.999999 
184 0 0 0 3 -63.0698 -143.81 0.999999 
185 0 0 0 3 -61.5357 -148.331 0.999999 
186 0 0 0 3 -51.2259 -158.782 0.999999 
190 0 0 0 3 -35.3719 -172.93 0.999999 
191 0 0 0 3 -29.9005 -154.843 0.999999 
192 0 0 0 3 -15.8645 -147.6 0.999999 
193 0 0 0 3 0.83656 -164.143 0.999999 
194 0 0 0 3 -9.83393 -185.285 0.999999 
195 0 0 0 3 -27.2778 -184.856 0.999999 
197 0 0 0 3 -43.8861 -208.505 0.999999 
200 0 0 0 3 -88.0736 -235.485 0.999999 
204 0 0 0 3 -108.211 -244.244 0.999999 
205 0 0 0 3 -49.9282 -238.694 0.999999 
207 0 0 0 3 -33.8031 -224.808 0.999999 
208 0 0 0 3 -33.3532 -214.427 0.999999 
209 0 0 0 3 -31.7937 -210.333 0.999999 
210 0 0 0 3 -16.9831 -230.996 0.999999 
211 0 0 0 3 -4.10334 -211.297 0.999999 
212 0 0 0 3 11.4931 -181.075 0.999999 
213 0 0 0 3 3.41551 -133.136 0.999999 
214 0 0 0 3 21.9852 -130.916 0.999999 
217 0 0 0 3 33.1747 -155.771 0.999999 
218 0 0 0 3 21.5278 -150.6 0.999999 
219 0 0 0 3 6.42735 -151.511 0.999999 
220 0 0 0 3 11.1573 -157.043 0.999999 
221 0 0 0 3 16.5432 -166.127 0.999999 
222 0 0 0 3 20.0631 -157.655 0.999999 
223 0 0 0 3 18.6085 -175.964 0.999999 
224 0 0 0 3 31.1658 -172.706 0.999999 
226 0 0 0 3 32.8652 -194.534 0.999999 
227 0 0 0 3 11.7543 -190.65 0.999999 
229 0 0 0 3 25.5784 -216.998 0.999999 
230 0 0 0 3 -1.98101 -229.165 0.999999 
231 0 0 0 3 5.09676 -225.543 0.999999 
240 0 0 0 3 60.78 -192.35 0.999999 
241 0 0 0 3 62.5731 -160.215 0.999999 
243 0 0 0 3 62.8259 -118.601 0.999999 
244 0 0 0 3 73.432 -143.711 0.999999 
245 0 0 0 3 75.377 -150.564 0.999999 
246 0 0 0 3 84.2012 -144.983 0.999999 
248 0 0 0 3 92.4272 -165.708 0.999999 
249 0 0 0 3 136.948 -163.403 0.999999 
250 0 0 0 3 135.958 -140.323 0.999999 
251 0 0 0 3 97.9341 -125.548 0.999999 
252 0 0 0 3 113.216 -187.517 0.999999 
253 0 0 0 3 89.3516 -193.013 0.999999 
254 0 0 0 3 128.759 -179.931 0.999999 
255 0 0 0 3 131.066 -188.693 0.999999 
257 0 0 0 3 -43.9018 -100.991 0.999999 
259 0 0 0 3 32.3053 -96.9891 0.999999 
260 0 0 0 3 45.7472 -98.3373 0.999999 
261 0 0 0 3 52.4684 -103.053 0.999999 
263 0 0 0 3 57.0162 -95.7621 0.999999 
264 0 0 0 3 60.881 -100.593 0.999999 
266 0 0 0 3 89.5756 -104.661 0.999999 
267 0 0 0 3 100.638 -110.105 0.999999 
268 0 0 0 3 103.609 -107.828 0.999999 
272 0 0 0 3 117.24 -93.0368 0.999999 
278 0 0 0 3 150.257 -95.9957 0.999999 
279 0 0 0 3 158.024 -88.537 0.999999 
281 0 0 0 3 167.339 -107.037 0.999999 
283 0 0 0 3 177.444 -126.679 0.999999 
284 0 0 0 3 168.122 -147.977 0.999999 
285 0 0 0 3 176.023 -140.26 0.999999 
286 0 0 0 3 179.345 -145.135 0.999999 
287 0 0 0 3 178.448 -159.605 0.999999 
288 0 0 0 3 182.846 -152.848 0.999999 
289 0 0 0 3 195.415 -143.304 0.999999 
290 0 0 0 3 208.287 -119.643 0.999999 
292 0 0 0 3 231.063 -110.435 0.999999 
294 0 0 0 3 225.665 -134.486 0.999999 
295 0 0 0 3 188.887 -169.098 0.999999 
296 0 0 0 3 155.965 -183.191 0.999999 
299 0 0 0 3 165.083 -15.2368 0.999999 
300 0 0 0 3 163.493 -33.7902 0.999999 
301 0 0 0 3 156.674 -37.1303 0.999999 
302 0 0 0 3 132.922 -40.5456 0.999999 
306 0 0 0 3 125.88 -8.41414 0.999999 
307 0 0 0 3 136.921 8.9171 0.999999 
308 0 0 0 3 143.953 8.28658 0.999999 
309 0 0 0 3 142.218 -3.66491 0.999999 
310 0 0 0 3 155.77 0.657015 0.999999 
311 0 0 0 3 150.262 9.63332 0.999999 
312 0 0 0 3 155.044 12.3891 0.999999 
317 0 0 0 3 50.2486 94.2507 0.999999 
318 0 0 0 3 24.5101 79.099 0.999999 
319 0 0 0 3 34.6841 73.6159 0.999999 
320 0 0 0 3 39.3731 77.956 0.999999 
321 0 0 0 3 78.0655 108.414 0.999999 
322 0 0 0 3 58.2883 116.318 0.999999 
323 0 0 0 3 63.6557 123.75 0.999999 
324 0 0 0 3 65.9817 128.641 0.999999 
325 0 0 0 3 73.6829 134.356 0.999999 
326 0 0 0 3 81.9313 154.131 0.999999 
327 0 0 0 3 102.376 139.221 0.999999 
329 0 0 0 3 83.7362 72.1621 0.999999 
330 0 0 0 3 84.5693 90.1628 0.999999 
331 0 0 0 3 88.7697 85.1965 0.999999 
332 0 0 0 3 93.935 83.2038 0.999999 
333 0 0 0 3 97.495 80.4214 0.999999 
339 0 0 0 3 125.06 64.3458 0.999999 
340 0 0 0 3 110.086 77.2223 0.999999 
341 0 0 0 3 141.464 46.1626 0.999999 
342 0 0 0 3 127.516 30.3958 0.999999 
343 0 0 0 3 128.239 26.2761 0.999999 
344 0 0 0 3 125.017 19.3372 0.999999 
345 0 0 0 3 152.017 25.8123 0.999999 
346 0 0 0 3 177.203 35.7033 0.999999 
347 0 0 0 3 182.304 26.0846 0.999999 
348 0 0 0 3 185.17 32.5525 0.999999 
349 0 0 0 3 194.272 21.3232 0.999999 
350 0 0 0 3 178.532 4.82454 0.999999 
351 0 0 0 3 197.299 40.6857 0.999999 
352 0 0 0 3 177.682 54.2209 0.999999 
353 0 0 0 3 167.5 70.5435 0.999999 
354 0 0 0 3 152.596 74.4887 0.999999 
355 0 0 0 3 159.308 63.7545 0.999999 
358 0 0 0 3 234.219 18.7281 0.999999 
359 0 0 0 3 206.71 2.06131 0.999999 
360 0 0 0 3 228.069 -7.19828 0.999999 
361 0 0 0 3 250.763 -6.05548 0.999999 
362 0 0 0 3 235.575 -14.982 0.999999 
363 0 0 0 3 230.423 -24.4268 0.999999 
364 0 0 0 3 240.106 -17.5275 0.999999 
365 0 0 0 3 242.715 -23.2046 0.999999 
366 0 0 0 3 246.009 -26.7231 0.999999 
367 0 0 0 3 254.633 13.2222 0.999999 
368 0 0 0 3 261.311 15.9124 0.999999 
369 0 0 0 3 258.461 7.97342 0.999999 
370 0 0 0 3 268.666 -0.0561764 0.999999 
371 0 0 0 3 270.375 21.5013 0.999999 
372 0 0 0 3 276.491 18.8307 0.999999 
373 0 0 0 3 279.801 17.7393 0.999999 
375 0 0 0 3 292.918 11.6105 0.999999 
376 0 0 0 3 270.977 -30.8635 0.999999 
378 0 0 0 3 202.592 -52.904 0.999999 
379 0 0 0 3 170.671 -72.8477 0.999999 
380 0 0 0 3 173.162 -50.8447 0.999999 
381 0 0 0 3 177.711 -66.0425 0.999999 
382 0 0 0 3 181.986 -63.9265 0.999999 
384 0 0 0 3 210.7 -65.4108 0.999999 
388 0 0 0 3 297.236 -13.5348 0.999999 
394 0 0 0 3 166.871 133.38 0.999999 
397 0 0 0 3 183.559 155.912 0.999999 
400 0 0 0 3 222.5 184.996 0.999999 
409 0 0 0 3 -19.1683 177.788 0.999999 
410 0 0 0 3 -7.94059 182.238 0.999999 
411 0 0 0 3 -5.74361 190.453 0.999999 
417 0 0 0 3 -30.6885 151.194 0.999999 
418 0 0 0 3 -42.7742 180.135 0.999999 
419 0 0 0 3 -37.8207 198.33 0.999999 
421 0 0 0 3 -16.795 219.623 0.999999 
422 0 0 0 3 1.71603 209.232 0.999999 
424 0 0 0 3 88.8732 208.636 0.999999 
425 0 0 0 3 92.4788 199.098 0.999999 
426 0 0 0 3 94.1524 210.781 0.999999 
427 0 0 0 3 118.997 204.308 0.999999 
428 0 0 0 3 107.507 181.618 0.999999 
429 0 0 0 3 98.0213 161.335 0.999999 
430 0 0 0 3 77.2682 169.948 0.999999 
432 0 0 0 3 79.9007 176.264 0.999999 
433 0 0 0 3 85.7729 172.058 0.999999 
436 0 0 0 3 140.027 141.479 0.999999 
437 0 0 0 3 123.963 119.885 0.999999 
438 0 0 0 3 135.774 162.927 0.999999 
439 0 0 0 3 148.743 182.854 0.999999 
443 0 0 0 3 170.189 202.33 0.999999 
444 0 0 0 3 178.828 204.732 0.999999 
445 0 0 0 3 178.702 217.635 0.999999 
447 0 0 0 3 206.985 210.375 0.999999 
449 0 0 0 3 131.549 235.49 0.999999 
450 0 0 0 3 153.371 228.237 0.999999 
451 0 0 0 3 89.5538 224.585 0.999999 
452 0 0 0 3 61.3611 237.981 0.999999 
454 0 0 0 3 24.3149 232.252 0.999999 
455 0 0 0 3 -55.4148 175.947 0.999999 
456 0 0 0 3 -32.6848 179.687 0.999999 
457 0 0 0 3 -40.9962 171.738 0.999999 
459 0 0 0 3 -40.3275 119.647 0.999999 
461 0 0 0 3 -82.3933 164.602 0.999999 
462 0 0 0 3 -76.2497 154.495 0.999999 
463 0 0 0 3 -71.7658 162.211 0.999999 
464 0 0 0 3 -67.6999 157.881 0.999999 
465 0 0 0 3 -70.9817 151.382 0.999999 
467 0 0 0 3 -133.983 175.34 0.999999 
469 0 0 0 3 -74.259 186.147 0.999999 
471 0 0 0 3 -209.03 141.885 0.999999 
472 0 0 0 3 -208.418 123.738 0.999999 
473 0 0 0 3 -226.267 102.346 0.999999 
474 0 0 0 3 -185.616 146.238 0.999999 
475 0 0 0 3 -198.276 121.047 0.999999 
476 0 0 0 3 -198.022 101.635 0.999999 
477 0 0 0 3 -194.997 100.792 0.999999 
481 0 0 0 3 -171.961 120.457 0.999999 
482 0 0 0 3 -165.879 128.886 0.999999 
483 0 0 0 3 -158.547 135.392 0.999999 
484 0 0 0 3 -156.092 130.505 0.999999 
485 0 0 0 3 -151.686 138.437 0.999999 
487 0 0 0 3 -290.649 20.8291 0.999999 
488 0 0 0 3 -280.791 38.6959 0.999999 
489 0 0 0 3 -260.84 21.3506 0.999999 
490 0 0 0 3 -245.591 32.0774 0.999999 
491 0 0 0 3 -247.591 77.4467 0.999999 
492 0 0 0 3 -225.956 76.9957 0.999999 
493 0 0 0 3 -211.85 60.5355 0.999999 
497 0 0 0 3 -161.596 55.8626 0.999999 
501 0 0 0 3 -213.459 12.7929 0.999999 
504 0 0 0 3 -171.903 29.0179 0.999999 
505 0 0 0 3 -160.967 37.5987 0.999999 
506 0 0 0 3 -155.598 28.8469 0.999999 
507 0 0 0 3 -142.749 53.9539 0.999999 
512 0 0 0 3 -153.153 12.0306 0.999999 
513 0 0 0 3 -136.469 21.0329 0.999999 
514 0 0 0 3 -265.601 -19.9425 0.999999 
515 0 0 0 3 -274.524 7.42584 0.999999 
516 0 0 0 3 -247.003 48.2004 0.999999 
517 0 0 0 3 -246.716 52.5211 0.999999 
518 0 0 0 3 -243.315 57.2668 0.999999 
519 0 0 0 3 -243.28 63.0851 0.999999 
520 0 0 0 3 -235.458 49.1256 0.999999 
521 0 0 0 3 -228.718 43.7298 0.999999 
522 0 0 0 3 -230.672 38.1029 0.999999 
523 0 0 0 3 -266.513 58.4287 0.999999 
524 0 0 0 3 -255.845 94.2303 0.999999 
525 0 0 0 3 -239.331 112.568 0.999999 
526 0 0 0 3 -236.29 126.262 0.999999 
527 0 0 0 3 -229.002 125.604 0.999999 
529 0 0 0 3 -76.5299 37.2442 0.999999 
530 0 0 0 3 -71.9106 80.3873 0.999999 
531 0 0 0 3 -70.393 71.2137 0.999999 
532 0 0 0 3 -68.2046 96.4056 0.999999 
533 0 0 0 3 -58.4097 78.977 0.999999 
537 0 0 0 3 -15.9195 131.112 0.999999 
539 0 0 0 3 17.879 128.976 0.999999 
540 0 0 0 3 8.28239 130.676 0.999999 
541 0 0 0 3 9.89369 135.941 0.999999 
542 0 0 0 3 10.7311 138.851 0.999999 
547 0 0 0 3 134.099 98.0885 0.999999 
548 0 0 0 3 -245.394 -64.2146 0.999999 
551 0 0 0 3 -220.191 24.4194 0.999999 
552 0 0 0 3 -208.726 18.9608 0.999999 
553 0 0 0 3 -189.056 13.472 0.999999 
554 0 0 0 3 -191.256 50.8135 0.999999 
555 0 0 0 3 -194.04 112.499 0.999999 
556 0 0 0 3 -198.22 87.5563 0.999999 
557 0 0 0 3 -190.126 101.366 0.999999 
559 0 0 0 3 -179.06 100.609 0.999999 
560 0 0 0 3 -158.307 87.5988 0.999999 
561 0 0 0 3 -170.808 52.9457 0.999999 
562 0 0 0 3 -161.813 62.5475 0.999999 
564 0 0 0 3 -133.253 148.563 0.999999 
565 0 0 0 3 -143.058 121.862 0.999999 
566 0 0 0 3 -108.359 123.522 0.999999 
567 0 0 0 3 -103.71 178.58 0.999999 
568 0 0 0 3 -91.8544 146.331 0.999999 
569 0 0 0 3 -73.4929 119.263 0.999999 
570 0 0 0 3 -55.9167 142.269 0.999999 
571 0 0 0 3 -95.8942 100.89 0.999999 
572 0 0 0 3 -86.3138 64.0491 0.999999 
574 0 0 0 3 -113.272 79.0301 0.999999 
575 0 0 0 3 -118.4 59.0303 0.999999 
576 0 0 0 3 -126.741 59.9023 0.999999 
577 0 0 0 3 -125.679 53.4605 0.999999 
578 0 0 0 3 -102.512 40.6209 0.999999 
581 0 0 0 3 -14.0432 88.5205 0.999999 
582 0 0 0 3 -34.9629 95.7508 0.999999 
583 0 0 0 3 -6.11245 121.964 0.999999 
584 0 0 0 3 7.08193 98.9263 0.999999 
585 0 0 0 3 27.967 100.594 0.999999 
587 0 0 0 3 24.0268 94.9544 0.999999 
588 0 0 0 3 39.4022 119.576 0.999999 
590 0 0 0 3 33.8405 177.054 0.999999 
592 0 0 0 3 7.66615 181.012 0.999999 
593 0 0 0 3 -4.82445 152.479 0.999999 
595 0 0 0 3 29.8775 205.714 0.999999 
597 0 0 0 3 62.8437 157.999 0.999999 
598 0 0 0 3 68.8836 188.726 0.999999 
599 0 0 0 3 151.344 206.765 0.999999 
600 0 0 0 3 187.106 188.29 0.999999 
601 0 0 0 3 167.476 160.907 0.999999 
603 0 0 0 3 100.14 99.3394 0.999999 
605 0 0 0 3 27.0303 50.3873 0.999999 
606 0 0 0 3 40.1994 36.5267 0.999999 
607 0 0 0 3 45.4461 14.176 0.999999 
608 0 0 0 3 34.6925 32.0986 0.999999 
610 0 0 0 3 14.4658 -15.6572 0.999999 
611 0 0 0 3 -10.9523 -16.7326 0.999999 
612 0 0 0 3 0.488223 -45.0332 0.999999 
615 0 0 0 3 48.4058 -84.6565 0.999999 
616 0 0 0 3 78.4552 -82.3465 0.999999 
620 0 0 0 3 124.352 -88.1638 0.999999 
621 0 0 0 3 129.506 -89.1049 0.999999 
622 0 0 0 3 108.811 -107.331 0.999999 
623 0 0 0 3 113.226 -103.017 0.999999 
624 0 0 0 3 134.452 -111.014 0.999999 
625 0 0 0 3 196.275 -93.0012 0.999999 
627 0 0 0 3 219.312 -69.2759 0.999999 
628 0 0 0 3 236.945 -44.2066 0.999999 
629 0 0 0 3 259.158 -61.2108 0.999999 
630 0 0 0 3 268.365 -78.9355 0.999999 
631 0 0 0 3 226.072 -88.3559 0.999999 
633 0 0 0 3 -77.0894 -175.765 0.999999 
634 0 0 0 3 -84.6974 -212.396 0.999999 
635 0 0 0 3 -52.0261 -185.25 0.999999 
636 0 0 0 3 -61.0894 -213.663 0.999999 
637 0 0 0 3 55.2965 -221.396 0.999999 
638 0 0 0 3 -123.435 -220.659 0.999999 
639 0 0 0 3 -116.949 -220.627 0.999999 
640 0 0 0 3 -143.77 -224.484 0.999999 
641 0 0 0 3 -170.005 -116.678 0.999999 
642 0 0 0 3 -120.137 -93.2495 0.999999 
643 0 0 0 3 -106.755 -96.1624 0.999999 
644 0 0 0 3 325.204 18.751 0.999999 
645 0 0 0 3 315.544 43.7415 0.999999 
648 0 0 0 3 33.9908 146.783 0.999999 
650 0 0 0 3 41.9565 -143.388 0.999999 
652 0 0 0 3 1.99226 -100.772 0.999999 
654 0 0 0 3 -198.17 -25.9513 0.999999 
655 0 0 0 3 -200.458 -18.723 0.999999 
656 0 0 0 3 -97.6754 -8.90826 0.999999 
657 0 0 0 3 -92.3556 -17.0701 0.999999 
658 0 0 0 3 -40.8856 -74.9095 0.999999 
659 0 0 0 3 -40.2435 -81.6892 0.999999 
660 0 0 0 3 -168.677 -133.847 0.999999 
661 0 0 0 3 -168.082 -141.941 0.999999 
662 0 0 0 3 37.3681 -122.076 0.999999 
663 0 0 0 3 38.1921 -130.461 0.999999 
664 0 0 0 3 43.4969 -166.866 0.999999 
665 0 0 0 3 39.6171 -171.341 0.999999 
666 0 0 0 3 -74.6064 -189.2 0.999999 
667 0 0 0 3 -71.6719 -195.563 0.999999 
668 0 0 0 3 1.84599 -199.276 0.999999 
669 0 0 0 3 8.81021 -198.517 0.999999 
670 0 0 0 3 -42.4252 -223.112 0.999999 
671 0 0 0 3 -46.1881 -220.814 0.999999 
672 0 0 0 3 -80.831 -244.243 0.999999 
673 0 0 0 3 -82.5062 -247.096 0.999999 
674 0 0 0 3 -70.0591 -253.845 0.999999 
675 0 0 0 3 -85.2338 -251.132 0.999999 
676 0 0 0 3 -183.762 -187.584 0.999999 
677 0 0 0 3 -183.021 -181.123 0.999999 
678 0 0 0 3 -242.304 -132.816 0.999999 
679 0 0 0 3 -260.831 -125.089 0.999999 
680 0 0 0 3 -172.631 68.8558 0.999999 
681 0 0 0 3 -176.31 75.9585 0.999999 
682 0 0 0 3 -110.585 61.2753 0.999999 
683 0 0 0 3 -104.237 61.5427 0.999999 
684 0 0 0 3 -103.717 26.1736 0.999999 
685 0 0 0 3 -105.151 20.6846 0.999999 
686 0 0 0 3 -94.19 20.4963 0.999999 
687 0 0 0 3 -117.723 137.558 0.999999 
688 0 0 0 3 -120.879 141.77 0.999999 
689 0 0 0 3 -82.3489 195.544 0.999999 
690 0 0 0 3 -82.2865 202.06 0.999999 
691 0 0 0 3 -23.2649 191.598 0.999999 
692 0 0 0 3 -26.1398 197.377 0.999999 
693 0 0 0 3 12.6674 160.447 0.999999 
694 0 0 0 3 7.73234 164.902 0.999999 
695 0 0 0 3 -8.93416 20.3494 0.999999 
696 0 0 0 3 -5.92395 10.4639 0.999999 
697 0 0 0 3 46.0746 43.5312 0.999999 
698 0 0 0 3 43.0776 50.1362 0.999999 
699 0 0 0 3 133.007 210.624 0.999999 
700 0 0 0 3 133.407 217.075 0.999999 
703 0 0 0 3 189.847 159.881 0.999999 
706 0 0 0 3 206.383 21.6791 0.999999 
707 0 0 0 3 207.977 14.9368 0.999999 
709 0 0 0 3 177.108 -33.6403 0.999999 
711 0 0 0 3 234.299 -64.7662 0.999999 
712 0 0 0 3 233.899 -71.7065 0.999999 
713 0 0 0 3 168.217 -88.8929 0.999999 
714 0 0 0 3 170.432 -94.0488 0.999999 
715 0 0 0 3 99.7378 -143.219 0.999999 
717 0 0 0 3 108.861 -83.2724 0.999999 
718 0 0 0 3 143.017 -69.7312 0.999999 
719 0 0 0 3 119.584 -67.1563 0.999999 
720 0 0 0 3 118.733 -60.7967 0.999999 
721 0 0 0 3 100.489 -151.158 0.999999 
722 0 0 0 3 220.683 -116.237 0.999999 
723 0 0 0 3 224.263 -113.688 0.999999 
724 0 0 0 3 -40.1813 -26.1075 0.999999 
725 0 0 0 3 -36.9195 -34.2949 0.999999 
726 0 0 0 3 52.4464 -61.7212 0.999999 
727 0 0 0 3 54.3588 -69.9627 0.999999 
728 0 0 0 3 94.1668 0.601933 0.999999 
729 0 0 0 3 100.222 -5.14105 0.999999 
730 0 0 0 3 48.9504 165.021 0.999999 
731 0 0 0 3 44.3608 170.211 0.999999 
732 0 0 0 3 107.527 164.77 0.999999 
733 0 0 0 3 112.66 160.428 0.999999 
734 0 0 0 3 -201.241 23.4091 0.999999 
735 0 0 0 3 -202.727 30.2194 0.999999 
736 0 0 0 3 25.4695 -0.613817 0.999999 
737 0 0 0 3 29.2803 -7.71988 0.999999 
738 0 0 0 3 -136.104 -72.4976 0.999999 
739 0 0 0 3 -133.594 -81.0909 0.999999 
740 0 0 0 3 -71.7419 -110.886 0.999999 
741 0 0 0 3 -71.3561 -118.829 0.999999 
742 0 0 0 3 90.0199 35.0203 0.999999 
743 0 0 0 3 86.9288 38.6719 0.999999 
744 0 0 0 3 -8.688 103.019 0.999999 
745 0 0 0 3 -13.8336 110.28 0.999999 
746 0 0 0 3 -55.2883 100.741 0.999999 
747 0 0 0 3 -58.785 107.789 0.999999 
748 0 0 0 3 192.473 168.056 0.999999 
749 0 0 0 3 189.925 173.793 0.999999 
751 0 0 0 3 154.139 94.0071 0.999999 
752 0 0 0 3 151.686 103.168 0.999999 
753 0 0 0 3 172.835 116.225 0.999999 
754 0 0 0 3 182.888 98.1711 0.999999 
755 0 0 0 3 54.0439 209.587 0.999999 
756 0 0 0 3 102.636 112.029 0.999999 
757 0 0 0 3 97.459 116.591 0.999999 
758 0 0 0 3 173.333 -25.9343 0.999999 
759 0 0 0 3 200.801 -24.7838 0.999999 
762 0 0 0 3 -33.7259 -185.182 0.999999 
763 0 0 0 3 -24.2278 -203.127 0.999999 
3 4
3 5
3 566
3 571
3 574
4 5
4 574
5 507
5 560
5 565
5 566
5 574
11 467
11 474
11 481
11 482
11 483
11 485
11 564
12 23
12 25
12 26
12 27
12 529
12 531
12 533
12 572
15 16
15 18
15 507
15 513
15 575
15 577
15 578
15 684
15 685
16 17
16 18
16 48
16 50
16 51
16 104
16 105
16 122
16 513
16 656
16 657
17 18
17 21
17 656
18 21
18 685
18 686
20 21
20 43
20 45
20 46
20 48
20 656
20 657
21 22
21 43
21 529
21 656
21 686
22 24
22 25
22 26
22 27
22 39
22 40
22 41
22 42
22 43
22 529
23 24
23 25
23 529
24 25
24 529
25 26
26 27
27 28
27 40
27 533
27 581
27 582
28 40
28 318
28 581
28 584
28 605
30 31
30 32
30 317
30 320
30 321
30 329
30 605
30 697
30 698
31 32
31 71
31 72
31 329
31 339
31 340
31 743
32 67
32 68
32 73
32 606
32 607
32 697
32 742
32 743
37 40
37 605
37 607
37 608
37 610
37 611
37 695
37 696
37 736
39 40
39 42
39 43
39 611
39 695
39 696
40 605
40 695
41 42
41 43
42 43
43 44
43 45
43 611
44 45
44 46
44 611
45 46
46 48
46 611
46 724
48 51
48 53
48 54
48 55
48 56
48 657
48 724
48 725
49 50
49 51
49 52
49 53
50 51
50 52
50 122
50 123
50 127
50 642
50 738
50 739
51 53
52 53
52 127
52 128
52 129
53 54
53 55
53 56
53 129
53 130
53 131
54 55
55 56
56 82
56 131
56 135
56 611
56 612
56 658
56 725
61 66
61 67
61 607
61 610
61 737
62 63
62 65
62 66
62 610
62 612
63 64
63 65
63 612
64 65
64 81
64 612
65 66
65 78
65 81
66 67
66 78
66 610
67 68
67 76
67 77
67 78
67 607
68 73
68 76
71 72
71 73
71 742
71 743
72 73
72 339
73 76
73 306
73 339
73 341
73 342
73 344
73 728
73 729
73 742
76 77
76 728
76 729
77 78
77 79
77 80
77 302
77 306
77 729
78 79
78 81
78 726
79 80
79 616
79 726
79 727
80 302
80 616
80 717
80 719
80 720
81 86
81 87
81 259
81 612
81 615
81 726
81 727
82 83
82 85
82 87
82 135
82 612
83 84
83 85
83 135
84 85
84 135
84 652
85 86
85 87
85 652
86 87
86 259
86 652
87 612
92 93
92 98
92 489
92 490
92 514
92 551
93 94
93 95
93 97
93 98
93 514
93 548
94 95
94 548
95 96
95 97
95 548
95 679
96 97
96 114
96 115
96 147
96 678
96 679
97 98
97 109
97 110
97 114
97 548
98 101
98 109
98 551
98 654
98 655
100 101
100 501
100 552
100 553
101 103
101 501
101 551
101 553
101 655
103 104
103 107
103 109
103 504
103 512
103 553
103 654
103 655
104 105
104 106
104 107
104 512
104 513
105 106
105 122
106 107
106 122
107 109
107 122
109 110
109 111
109 112
109 122
109 654
110 111
110 114
111 112
111 113
111 114
112 113
112 121
112 122
113 114
113 119
113 120
113 121
114 115
114 116
114 119
114 641
115 116
115 117
115 147
115 149
116 117
116 641
117 149
117 641
119 120
119 641
120 121
120 125
120 641
121 122
121 123
121 125
121 738
121 739
122 123
123 738
125 144
125 145
125 641
125 642
125 739
127 128
127 642
127 643
128 129
128 142
128 144
128 643
128 740
129 130
129 132
129 140
129 257
129 740
130 131
130 132
131 132
131 134
131 257
131 658
131 659
132 257
134 135
134 257
134 652
134 659
135 652
135 658
135 659
137 138
137 139
137 140
137 213
137 257
137 652
138 139
138 192
138 213
139 140
139 192
140 143
140 183
140 191
140 192
140 257
140 740
140 741
142 143
142 144
142 145
142 179
142 182
142 740
142 741
143 182
143 183
143 184
143 741
144 145
144 642
144 643
145 162
145 163
145 179
145 641
147 148
147 149
147 150
147 678
148 150
148 155
148 678
148 679
149 150
149 151
149 152
149 158
149 160
149 641
149 660
149 661
150 151
150 152
150 153
150 155
150 676
150 677
151 152
152 153
152 158
153 158
153 677
155 156
155 157
155 676
156 157
156 640
157 158
157 168
157 170
157 640
157 676
158 160
158 161
158 162
158 164
158 170
158 171
158 676
158 677
160 161
160 162
160 661
161 162
162 163
162 164
162 641
162 660
162 661
163 164
163 166
163 178
163 179
163 180
164 165
164 166
164 167
164 171
165 166
165 167
166 167
166 178
167 171
167 172
167 173
167 176
167 178
167 634
167 639
168 170
168 172
168 640
170 171
170 172
171 172
172 173
172 640
173 638
173 639
173 640
176 177
176 200
176 634
176 639
177 200
177 204
177 639
178 180
178 181
178 182
178 633
178 634
178 666
179 180
179 181
179 182
180 181
181 182
182 184
182 185
182 186
182 633
182 635
183 184
183 185
183 186
183 191
184 185
185 186
186 190
186 191
186 635
190 191
190 194
190 195
190 635
190 762
191 192
191 193
191 194
192 193
192 213
193 194
193 212
193 213
193 219
193 220
193 221
193 223
194 195
194 211
194 212
194 227
194 668
194 763
195 762
195 763
197 207
197 208
197 209
197 635
197 636
197 670
197 671
197 763
200 204
200 205
200 634
200 636
200 672
200 673
200 674
200 675
204 639
204 640
204 675
205 207
205 210
205 636
205 670
205 671
205 674
207 208
207 210
207 670
208 209
208 210
209 210
209 763
210 211
210 230
210 763
211 229
211 230
211 231
211 668
211 763
212 223
212 226
212 227
213 214
213 218
213 219
213 220
213 222
213 652
214 217
214 218
214 259
214 650
214 652
214 662
214 663
217 218
217 222
217 224
217 241
217 650
217 664
217 665
218 222
219 220
220 221
220 222
221 222
221 223
221 224
222 224
223 224
223 226
224 226
224 240
224 665
226 227
226 229
226 240
226 637
227 229
227 668
227 669
229 231
229 637
229 668
229 669
230 231
240 241
240 253
240 637
240 664
240 665
241 243
241 244
241 245
241 248
241 253
241 650
241 664
243 244
243 246
243 251
243 259
243 261
243 264
243 266
243 616
243 650
243 662
243 663
244 245
244 246
245 246
245 248
246 248
246 251
246 715
246 721
248 249
248 252
248 253
248 721
249 250
249 252
249 254
249 284
249 287
249 295
249 296
249 721
250 251
250 283
250 284
250 624
250 715
250 721
251 266
251 267
251 268
251 622
251 624
251 715
252 253
252 254
252 255
254 255
254 296
255 296
257 652
259 260
259 261
259 615
259 652
259 662
260 261
260 615
261 263
261 264
261 615
263 264
263 615
263 616
264 616
266 267
266 268
266 616
266 717
267 268
268 622
268 717
272 620
272 623
272 624
272 717
278 279
278 281
278 624
278 718
279 281
279 379
279 713
279 714
279 718
281 283
281 624
281 625
281 714
283 284
283 285
283 286
283 289
283 290
283 624
283 625
284 285
284 286
284 287
284 288
285 286
286 288
286 289
287 288
287 295
288 289
288 295
289 290
289 294
289 295
290 294
290 625
290 722
292 294
292 625
292 631
292 723
294 295
294 722
294 723
295 296
299 300
299 301
299 302
299 306
299 309
299 310
299 350
299 758
299 759
300 301
300 380
300 709
300 758
301 302
301 380
302 306
302 380
302 718
302 719
302 720
306 307
306 309
306 344
306 729
307 308
307 309
307 344
307 345
308 309
308 310
308 311
308 345
309 310
310 311
310 312
310 350
311 312
311 345
312 345
312 350
317 318
317 320
317 321
317 322
317 585
317 587
317 588
318 319
318 320
318 584
318 587
318 605
319 320
319 605
320 605
321 322
321 323
321 324
321 325
321 327
321 329
321 330
321 603
321 757
322 323
322 588
323 324
323 588
324 325
324 588
324 597
325 326
325 327
325 597
326 327
326 429
326 430
326 433
326 597
327 429
327 436
327 437
327 438
327 733
327 757
329 330
329 331
329 332
329 333
329 340
330 331
330 603
331 332
331 603
332 333
332 603
333 340
333 603
339 340
339 341
339 354
339 547
340 547
340 603
341 342
341 345
341 352
341 354
341 355
342 343
342 344
342 345
343 344
343 345
344 345
345 346
345 350
345 352
346 347
346 348
346 350
346 351
346 352
347 348
347 349
347 350
348 349
348 351
349 350
349 351
349 359
349 706
349 707
350 359
350 759
351 352
352 353
352 355
353 354
353 355
353 754
354 355
354 547
354 751
354 754
358 359
358 360
358 361
358 367
358 368
358 706
358 707
359 360
359 707
359 759
360 361
360 362
360 363
360 364
360 759
361 364
361 365
361 366
361 367
361 369
361 370
361 376
362 363
362 364
363 364
363 365
363 366
363 628
363 759
364 365
365 366
366 376
366 628
367 368
367 369
368 369
368 370
368 371
369 370
370 371
370 372
370 375
370 376
370 388
371 372
372 373
372 375
373 375
375 388
375 644
375 645
376 388
376 628
376 629
378 379
378 380
378 382
378 384
378 625
378 627
378 628
378 759
379 380
379 381
379 382
379 625
379 713
379 718
380 381
380 382
380 709
380 718
380 759
381 382
384 625
384 627
388 644
394 397
394 436
394 437
394 547
394 601
394 752
394 753
397 601
397 703
400 447
400 600
400 748
400 749
409 410
409 411
409 417
409 422
409 456
409 593
409 691
410 411
410 592
410 593
411 422
411 592
417 455
417 456
417 457
417 459
417 537
417 570
417 593
418 419
418 455
418 456
418 457
419 421
419 455
419 456
419 691
419 692
421 422
421 692
422 454
422 592
422 595
422 691
422 692
424 425
424 426
424 451
425 426
425 427
425 428
425 451
425 598
426 427
426 451
427 428
427 439
427 449
427 451
427 599
427 699
427 700
428 429
428 433
428 438
428 439
428 598
428 732
428 733
429 433
429 732
429 733
430 432
430 433
430 597
430 598
432 433
432 598
433 598
436 437
436 438
436 601
437 547
437 603
437 756
437 757
438 439
438 601
438 733
439 443
439 599
439 600
439 601
443 444
443 445
443 599
443 600
444 445
444 447
444 600
445 447
445 450
445 599
447 600
449 450
449 451
449 700
450 599
450 700
451 452
451 598
451 755
452 454
452 595
452 755
454 595
455 457
455 461
455 463
455 464
455 469
455 570
456 457
456 691
459 537
459 569
459 570
459 582
459 583
459 746
459 747
461 462
461 463
461 469
461 567
461 568
462 463
462 464
462 465
462 568
463 464
464 465
464 570
465 568
465 570
467 564
467 567
469 567
469 689
471 472
471 474
471 527
472 473
472 474
472 475
472 527
472 555
472 556
473 491
473 492
473 524
473 525
473 527
473 556
474 475
474 481
474 555
474 559
475 555
476 477
476 555
476 556
477 555
477 556
477 557
481 482
481 559
481 560
481 565
482 483
482 484
482 565
483 484
483 485
484 485
484 565
485 564
485 565
487 488
487 515
488 489
488 515
488 523
489 490
489 514
489 515
489 523
490 516
490 520
490 522
490 523
490 551
491 492
491 518
491 519
491 523
491 524
492 493
492 518
492 519
492 520
492 556
493 520
493 521
493 551
493 554
493 556
497 507
497 561
497 562
501 551
501 552
504 505
504 506
504 512
504 553
504 554
504 561
505 506
505 507
505 561
506 507
506 512
506 513
507 513
507 560
507 561
507 562
507 574
507 575
507 576
507 577
512 513
514 515
516 517
516 520
516 523
517 518
517 520
517 523
518 519
518 520
518 523
520 521
520 522
521 522
521 551
522 551
523 524
524 525
525 526
525 527
526 527
529 572
529 578
529 686
530 531
530 532
530 533
530 571
530 572
531 533
531 572
532 533
532 569
532 571
532 582
532 746
532 747
533 582
537 583
537 593
539 540
539 541
539 542
539 583
539 584
539 588
539 593
539 648
540 541
540 583
540 593
541 542
541 593
542 593
547 603
547 751
547 752
551 552
551 554
551 735
552 553
552 734
552 735
553 554
553 734
553 735
554 556
554 561
554 680
554 681
554 735
555 556
555 557
555 559
556 557
556 559
556 681
557 559
559 560
559 681
560 562
560 565
560 680
560 681
561 562
561 680
562 680
564 565
564 567
564 688
565 566
565 687
565 688
566 568
566 569
566 571
566 687
567 568
567 688
567 689
567 690
568 569
568 570
568 687
568 688
569 570
569 571
569 747
571 572
571 574
572 574
572 578
572 683
574 575
574 682
574 683
575 576
575 577
575 578
575 682
576 577
578 682
578 683
578 684
578 686
581 582
581 584
581 744
582 583
582 744
582 745
582 746
583 584
583 593
583 744
583 745
584 587
584 588
584 744
585 587
585 588
587 588
588 597
588 648
590 592
590 595
590 598
590 648
590 693
590 694
590 731
590 755
592 593
592 595
592 694
593 648
593 693
593 694
595 755
597 598
597 648
597 730
598 730
598 731
598 755
599 699
599 700
600 601
600 749
601 703
601 748
601 749
603 756
603 757
605 606
605 608
605 698
606 607
606 608
606 697
606 698
607 608
607 736
607 737
610 611
610 612
610 736
610 737
611 612
611 696
611 724
611 725
615 616
615 727
616 717
616 727
620 621
620 624
620 717
620 718
621 624
621 718
622 623
622 624
622 717
623 624
623 717
624 718
625 627
625 631
625 713
625 714
625 722
625 723
627 628
627 631
627 711
627 712
628 629
628 711
628 759
629 630
629 711
629 712
630 631
630 712
631 712
633 635
633 666
634 636
634 666
634 667
635 636
635 666
635 667
635 762
635 763
636 667
636 671
638 639
638 640
639 640
641 660
642 643
642 739
644 645
648 693
648 730
648 731
650 663
654 655
656 657
658 659
660 661
662 663
664 665
666 667
668 669
670 671
672 673
672 674
673 674
673 675
674 675
676 677
678 679
680 681
682 683
684 685
684 686
685 686
687 688
689 690
691 692
693 694
695 696
697 698
699 700
703 748
706 707
709 758
709 759
711 712
713 714
715 721
717 718
717 719
718 719
719 720
722 723
724 725
726 727
728 729
730 731
732 733
734 735
736 737
738 739
740 741
742 743
744 745
746 747
748 749
751 752
751 753
751 754
752 753
753 754
756 757
758 759
762 763
