ply
format ascii 1.0
comment Exported from MorphoGraphX 2.0.1-254
comment Cell Graph: each vertex is a cell, each edge a wall
element vertex 556
property int label
property float x
property float y
property float z
element edge 1588
property uint source
property uint target
end_header
3 0 0 0 
4 0 0 0 
5 0 0 0 
11 0 0 0 
12 0 0 0 
15 0 0 0 
16 0 0 0 
17 0 0 0 
18 0 0 0 
20 0 0 0 
21 0 0 0 
22 0 0 0 
23 0 0 0 
24 0 0 0 
25 0 0 0 
26 0 0 0 
27 0 0 0 
28 0 0 0 
30 0 0 0 
31 0 0 0 
32 0 0 0 
37 0 0 0 
39 0 0 0 
40 0 0 0 
41 0 0 0 
42 0 0 0 
43 0 0 0 
44 0 0 0 
45 0 0 0 
46 0 0 0 
48 0 0 0 
49 0 0 0 
50 0 0 0 
51 0 0 0 
52 0 0 0 
53 0 0 0 
54 0 0 0 
55 0 0 0 
56 0 0 0 
61 0 0 0 
62 0 0 0 
63 0 0 0 
64 0 0 0 
65 0 0 0 
66 0 0 0 
67 0 0 0 
68 0 0 0 
71 0 0 0 
72 0 0 0 
73 0 0 0 
76 0 0 0 
77 0 0 0 
78 0 0 0 
79 0 0 0 
80 0 0 0 
81 0 0 0 
82 0 0 0 
83 0 0 0 
84 0 0 0 
85 0 0 0 
86 0 0 0 
87 0 0 0 
92 0 0 0 
93 0 0 0 
94 0 0 0 
95 0 0 0 
96 0 0 0 
97 0 0 0 
98 0 0 0 
100 0 0 0 
101 0 0 0 
103 0 0 0 
104 0 0 0 
105 0 0 0 
106 0 0 0 
107 0 0 0 
109 0 0 0 
110 0 0 0 
111 0 0 0 
112 0 0 0 
113 0 0 0 
114 0 0 0 
115 0 0 0 
116 0 0 0 
117 0 0 0 
119 0 0 0 
120 0 0 0 
121 0 0 0 
122 0 0 0 
123 0 0 0 
125 0 0 0 
127 0 0 0 
128 0 0 0 
129 0 0 0 
130 0 0 0 
131 0 0 0 
132 0 0 0 
134 0 0 0 
135 0 0 0 
137 0 0 0 
138 0 0 0 
139 0 0 0 
140 0 0 0 
142 0 0 0 
143 0 0 0 
144 0 0 0 
145 0 0 0 
147 0 0 0 
148 0 0 0 
149 0 0 0 
150 0 0 0 
151 0 0 0 
152 0 0 0 
153 0 0 0 
155 0 0 0 
156 0 0 0 
157 0 0 0 
158 0 0 0 
160 0 0 0 
161 0 0 0 
162 0 0 0 
163 0 0 0 
164 0 0 0 
165 0 0 0 
166 0 0 0 
167 0 0 0 
168 0 0 0 
170 0 0 0 
171 0 0 0 
172 0 0 0 
173 0 0 0 
176 0 0 0 
177 0 0 0 
178 0 0 0 
179 0 0 0 
180 0 0 0 
181 0 0 0 
182 0 0 0 
183 0 0 0 
184 0 0 0 
185 0 0 0 
186 0 0 0 
190 0 0 0 
191 0 0 0 
192 0 0 0 
193 0 0 0 
194 0 0 0 
195 0 0 0 
197 0 0 0 
200 0 0 0 
204 0 0 0 
205 0 0 0 
207 0 0 0 
208 0 0 0 
209 0 0 0 
210 0 0 0 
211 0 0 0 
212 0 0 0 
213 0 0 0 
214 0 0 0 
217 0 0 0 
218 0 0 0 
219 0 0 0 
220 0 0 0 
221 0 0 0 
222 0 0 0 
223 0 0 0 
224 0 0 0 
226 0 0 0 
227 0 0 0 
229 0 0 0 
230 0 0 0 
231 0 0 0 
240 0 0 0 
241 0 0 0 
243 0 0 0 
244 0 0 0 
245 0 0 0 
246 0 0 0 
248 0 0 0 
249 0 0 0 
250 0 0 0 
251 0 0 0 
252 0 0 0 
253 0 0 0 
254 0 0 0 
255 0 0 0 
257 0 0 0 
259 0 0 0 
260 0 0 0 
261 0 0 0 
263 0 0 0 
264 0 0 0 
266 0 0 0 
267 0 0 0 
268 0 0 0 
272 0 0 0 
278 0 0 0 
279 0 0 0 
281 0 0 0 
283 0 0 0 
284 0 0 0 
285 0 0 0 
286 0 0 0 
287 0 0 0 
288 0 0 0 
289 0 0 0 
290 0 0 0 
292 0 0 0 
294 0 0 0 
295 0 0 0 
296 0 0 0 
299 0 0 0 
300 0 0 0 
301 0 0 0 
302 0 0 0 
306 0 0 0 
307 0 0 0 
308 0 0 0 
309 0 0 0 
310 0 0 0 
311 0 0 0 
312 0 0 0 
317 0 0 0 
318 0 0 0 
319 0 0 0 
320 0 0 0 
321 0 0 0 
322 0 0 0 
323 0 0 0 
324 0 0 0 
325 0 0 0 
326 0 0 0 
327 0 0 0 
329 0 0 0 
330 0 0 0 
331 0 0 0 
332 0 0 0 
333 0 0 0 
339 0 0 0 
340 0 0 0 
341 0 0 0 
342 0 0 0 
343 0 0 0 
344 0 0 0 
345 0 0 0 
346 0 0 0 
347 0 0 0 
348 0 0 0 
349 0 0 0 
350 0 0 0 
351 0 0 0 
352 0 0 0 
353 0 0 0 
354 0 0 0 
355 0 0 0 
358 0 0 0 
359 0 0 0 
360 0 0 0 
361 0 0 0 
362 0 0 0 
363 0 0 0 
364 0 0 0 
365 0 0 0 
366 0 0 0 
367 0 0 0 
368 0 0 0 
369 0 0 0 
370 0 0 0 
371 0 0 0 
372 0 0 0 
373 0 0 0 
375 0 0 0 
376 0 0 0 
378 0 0 0 
379 0 0 0 
380 0 0 0 
381 0 0 0 
382 0 0 0 
384 0 0 0 
388 0 0 0 
394 0 0 0 
397 0 0 0 
400 0 0 0 
409 0 0 0 
410 0 0 0 
411 0 0 0 
417 0 0 0 
418 0 0 0 
419 0 0 0 
421 0 0 0 
422 0 0 0 
424 0 0 0 
425 0 0 0 
426 0 0 0 
427 0 0 0 
428 0 0 0 
429 0 0 0 
430 0 0 0 
432 0 0 0 
433 0 0 0 
436 0 0 0 
437 0 0 0 
438 0 0 0 
439 0 0 0 
443 0 0 0 
444 0 0 0 
445 0 0 0 
447 0 0 0 
449 0 0 0 
450 0 0 0 
451 0 0 0 
452 0 0 0 
454 0 0 0 
455 0 0 0 
456 0 0 0 
457 0 0 0 
459 0 0 0 
461 0 0 0 
462 0 0 0 
463 0 0 0 
464 0 0 0 
465 0 0 0 
467 0 0 0 
469 0 0 0 
471 0 0 0 
472 0 0 0 
473 0 0 0 
474 0 0 0 
475 0 0 0 
476 0 0 0 
477 0 0 0 
481 0 0 0 
482 0 0 0 
483 0 0 0 
484 0 0 0 
485 0 0 0 
487 0 0 0 
488 0 0 0 
489 0 0 0 
490 0 0 0 
491 0 0 0 
492 0 0 0 
493 0 0 0 
497 0 0 0 
501 0 0 0 
504 0 0 0 
505 0 0 0 
506 0 0 0 
507 0 0 0 
512 0 0 0 
513 0 0 0 
514 0 0 0 
515 0 0 0 
516 0 0 0 
517 0 0 0 
518 0 0 0 
519 0 0 0 
520 0 0 0 
521 0 0 0 
522 0 0 0 
523 0 0 0 
524 0 0 0 
525 0 0 0 
526 0 0 0 
527 0 0 0 
529 0 0 0 
530 0 0 0 
531 0 0 0 
532 0 0 0 
533 0 0 0 
537 0 0 0 
539 0 0 0 
540 0 0 0 
541 0 0 0 
542 0 0 0 
547 0 0 0 
548 0 0 0 
551 0 0 0 
552 0 0 0 
553 0 0 0 
554 0 0 0 
555 0 0 0 
556 0 0 0 
557 0 0 0 
559 0 0 0 
560 0 0 0 
561 0 0 0 
562 0 0 0 
564 0 0 0 
565 0 0 0 
566 0 0 0 
567 0 0 0 
568 0 0 0 
569 0 0 0 
570 0 0 0 
571 0 0 0 
572 0 0 0 
574 0 0 0 
575 0 0 0 
576 0 0 0 
577 0 0 0 
578 0 0 0 
581 0 0 0 
582 0 0 0 
583 0 0 0 
584 0 0 0 
585 0 0 0 
587 0 0 0 
588 0 0 0 
590 0 0 0 
592 0 0 0 
593 0 0 0 
595 0 0 0 
597 0 0 0 
598 0 0 0 
599 0 0 0 
600 0 0 0 
601 0 0 0 
603 0 0 0 
605 0 0 0 
606 0 0 0 
607 0 0 0 
608 0 0 0 
610 0 0 0 
611 0 0 0 
612 0 0 0 
615 0 0 0 
616 0 0 0 
620 0 0 0 
621 0 0 0 
622 0 0 0 
623 0 0 0 
624 0 0 0 
625 0 0 0 
627 0 0 0 
628 0 0 0 
629 0 0 0 
630 0 0 0 
631 0 0 0 
633 0 0 0 
634 0 0 0 
635 0 0 0 
636 0 0 0 
637 0 0 0 
638 0 0 0 
639 0 0 0 
640 0 0 0 
641 0 0 0 
642 0 0 0 
643 0 0 0 
644 0 0 0 
645 0 0 0 
648 0 0 0 
650 0 0 0 
652 0 0 0 
654 0 0 0 
655 0 0 0 
656 0 0 0 
657 0 0 0 
658 0 0 0 
659 0 0 0 
660 0 0 0 
661 0 0 0 
662 0 0 0 
663 0 0 0 
664 0 0 0 
665 0 0 0 
666 0 0 0 
667 0 0 0 
668 0 0 0 
669 0 0 0 
670 0 0 0 
671 0 0 0 
672 0 0 0 
673 0 0 0 
674 0 0 0 
675 0 0 0 
676 0 0 0 
677 0 0 0 
678 0 0 0 
679 0 0 0 
680 0 0 0 
681 0 0 0 
682 0 0 0 
683 0 0 0 
684 0 0 0 
685 0 0 0 
686 0 0 0 
687 0 0 0 
688 0 0 0 
689 0 0 0 
690 0 0 0 
691 0 0 0 
692 0 0 0 
693 0 0 0 
694 0 0 0 
695 0 0 0 
696 0 0 0 
697 0 0 0 
698 0 0 0 
699 0 0 0 
700 0 0 0 
703 0 0 0 
706 0 0 0 
707 0 0 0 
709 0 0 0 
711 0 0 0 
712 0 0 0 
713 0 0 0 
714 0 0 0 
715 0 0 0 
717 0 0 0 
718 0 0 0 
719 0 0 0 
720 0 0 0 
721 0 0 0 
722 0 0 0 
723 0 0 0 
724 0 0 0 
725 0 0 0 
726 0 0 0 
727 0 0 0 
728 0 0 0 
729 0 0 0 
730 0 0 0 
731 0 0 0 
732 0 0 0 
733 0 0 0 
734 0 0 0 
735 0 0 0 
736 0 0 0 
737 0 0 0 
738 0 0 0 
739 0 0 0 
740 0 0 0 
741 0 0 0 
742 0 0 0 
743 0 0 0 
744 0 0 0 
745 0 0 0 
746 0 0 0 
747 0 0 0 
748 0 0 0 
749 0 0 0 
751 0 0 0 
752 0 0 0 
753 0 0 0 
754 0 0 0 
755 0 0 0 
756 0 0 0 
757 0 0 0 
758 0 0 0 
759 0 0 0 
762 0 0 0 
763 0 0 0 
3 4
3 5
3 566
3 571
3 574
4 5
4 574
5 507
5 560
5 565
5 566
5 574
11 467
11 474
11 481
11 482
11 483
11 485
11 564
12 23
12 25
12 26
12 27
12 529
12 531
12 533
12 572
15 16
15 18
15 507
15 513
15 575
15 577
15 578
15 684
15 685
16 17
16 18
16 48
16 50
16 51
16 104
16 105
16 122
16 513
16 656
16 657
17 18
17 21
17 656
18 21
18 685
18 686
20 21
20 43
20 45
20 46
20 48
20 656
20 657
21 22
21 43
21 529
21 656
21 686
22 24
22 25
22 26
22 27
22 39
22 40
22 41
22 42
22 43
22 529
23 24
23 25
23 529
24 25
24 529
25 26
26 27
27 28
27 40
27 533
27 581
27 582
28 40
28 318
28 581
28 584
28 605
30 31
30 32
30 317
30 320
30 321
30 329
30 605
30 697
30 698
31 32
31 71
31 72
31 329
31 339
31 340
31 743
32 67
32 68
32 73
32 606
32 607
32 697
32 742
32 743
37 40
37 605
37 607
37 608
37 610
37 611
37 695
37 696
37 736
39 40
39 42
39 43
39 611
39 695
39 696
40 605
40 695
41 42
41 43
42 43
43 44
43 45
43 611
44 45
44 46
44 611
45 46
46 48
46 611
46 724
48 51
48 53
48 54
48 55
48 56
48 657
48 724
48 725
49 50
49 51
49 52
49 53
50 51
50 52
50 122
50 123
50 127
50 642
50 738
50 739
51 53
52 53
52 127
52 128
52 129
53 54
53 55
53 56
53 129
53 130
53 131
54 55
55 56
56 82
56 131
56 135
56 611
56 612
56 658
56 725
61 66
61 67
61 607
61 610
61 737
62 63
62 65
62 66
62 610
62 612
63 64
63 65
63 612
64 65
64 81
64 612
65 66
65 78
65 81
66 67
66 78
66 610
67 68
67 76
67 77
67 78
67 607
68 73
68 76
71 72
71 73
71 742
71 743
72 73
72 339
73 76
73 306
73 339
73 341
73 342
73 344
73 728
73 729
73 742
76 77
76 728
76 729
77 78
77 79
77 80
77 302
77 306
77 729
78 79
78 81
78 726
79 80
79 616
79 726
79 727
80 302
80 616
80 717
80 719
80 720
81 86
81 87
81 259
81 612
81 615
81 726
81 727
82 83
82 85
82 87
82 135
82 612
83 84
83 85
83 135
84 85
84 135
84 652
85 86
85 87
85 652
86 87
86 259
86 652
87 612
92 93
92 98
92 489
92 490
92 514
92 551
93 94
93 95
93 97
93 98
93 514
93 548
94 95
94 548
95 96
95 97
95 548
95 679
96 97
96 114
96 115
96 147
96 678
96 679
97 98
97 109
97 110
97 114
97 548
98 101
98 109
98 551
98 654
98 655
100 101
100 501
100 552
100 553
101 103
101 501
101 551
101 553
101 655
103 104
103 107
103 109
103 504
103 512
103 553
103 654
103 655
104 105
104 106
104 107
104 512
104 513
105 106
105 122
106 107
106 122
107 109
107 122
109 110
109 111
109 112
109 122
109 654
110 111
110 114
111 112
111 113
111 114
112 113
112 121
112 122
113 114
113 119
113 120
113 121
114 115
114 116
114 119
114 641
115 116
115 117
115 147
115 149
116 117
116 641
117 149
117 641
119 120
119 641
120 121
120 125
120 641
121 122
121 123
121 125
121 738
121 739
122 123
123 738
125 144
125 145
125 641
125 642
125 739
127 128
127 642
127 643
128 129
128 142
128 144
128 643
128 740
129 130
129 132
129 140
129 257
129 740
130 131
130 132
131 132
131 134
131 257
131 658
131 659
132 257
134 135
134 257
134 652
134 659
135 652
135 658
135 659
137 138
137 139
137 140
137 213
137 257
137 652
138 139
138 192
138 213
139 140
139 192
140 143
140 183
140 191
140 192
140 257
140 740
140 741
142 143
142 144
142 145
142 179
142 182
142 740
142 741
143 182
143 183
143 184
143 741
144 145
144 642
144 643
145 162
145 163
145 179
145 641
147 148
147 149
147 150
147 678
148 150
148 155
148 678
148 679
149 150
149 151
149 152
149 158
149 160
149 641
149 660
149 661
150 151
150 152
150 153
150 155
150 676
150 677
151 152
152 153
152 158
153 158
153 677
155 156
155 157
155 676
156 157
156 640
157 158
157 168
157 170
157 640
157 676
158 160
158 161
158 162
158 164
158 170
158 171
158 676
158 677
160 161
160 162
160 661
161 162
162 163
162 164
162 641
162 660
162 661
163 164
163 166
163 178
163 179
163 180
164 165
164 166
164 167
164 171
165 166
165 167
166 167
166 178
167 171
167 172
167 173
167 176
167 178
167 634
167 639
168 170
168 172
168 640
170 171
170 172
171 172
172 173
172 640
173 638
173 639
173 640
176 177
176 200
176 634
176 639
177 200
177 204
177 639
178 180
178 181
178 182
178 633
178 634
178 666
179 180
179 181
179 182
180 181
181 182
182 184
182 185
182 186
182 633
182 635
183 184
183 185
183 186
183 191
184 185
185 186
186 190
186 191
186 635
190 191
190 194
190 195
190 635
190 762
191 192
191 193
191 194
192 193
192 213
193 194
193 212
193 213
193 219
193 220
193 221
193 223
194 195
194 211
194 212
194 227
194 668
194 763
195 762
195 763
197 207
197 208
197 209
197 635
197 636
197 670
197 671
197 763
200 204
200 205
200 634
200 636
200 672
200 673
200 674
200 675
204 639
204 640
204 675
205 207
205 210
205 636
205 670
205 671
205 674
207 208
207 210
207 670
208 209
208 210
209 210
209 763
210 211
210 230
210 763
211 229
211 230
211 231
211 668
211 763
212 223
212 226
212 227
213 214
213 218
213 219
213 220
213 222
213 652
214 217
214 218
214 259
214 650
214 652
214 662
214 663
217 218
217 222
217 224
217 241
217 650
217 664
217 665
218 222
219 220
220 221
220 222
221 222
221 223
221 224
222 224
223 224
223 226
224 226
224 240
224 665
226 227
226 229
226 240
226 637
227 229
227 668
227 669
229 231
229 637
229 668
229 669
230 231
240 241
240 253
240 637
240 664
240 665
241 243
241 244
241 245
241 248
241 253
241 650
241 664
243 244
243 246
243 251
243 259
243 261
243 264
243 266
243 616
243 650
243 662
243 663
244 245
244 246
245 246
245 248
246 248
246 251
246 715
246 721
248 249
248 252
248 253
248 721
249 250
249 252
249 254
249 284
249 287
249 295
249 296
249 721
250 251
250 283
250 284
250 624
250 715
250 721
251 266
251 267
251 268
251 622
251 624
251 715
252 253
252 254
252 255
254 255
254 296
255 296
257 652
259 260
259 261
259 615
259 652
259 662
260 261
260 615
261 263
261 264
261 615
263 264
263 615
263 616
264 616
266 267
266 268
266 616
266 717
267 268
268 622
268 717
272 620
272 623
272 624
272 717
278 279
278 281
278 624
278 718
279 281
279 379
279 713
279 714
279 718
281 283
281 624
281 625
281 714
283 284
283 285
283 286
283 289
283 290
283 624
283 625
284 285
284 286
284 287
284 288
285 286
286 288
286 289
287 288
287 295
288 289
288 295
289 290
289 294
289 295
290 294
290 625
290 722
292 294
292 625
292 631
292 723
294 295
294 722
294 723
295 296
299 300
299 301
299 302
299 306
299 309
299 310
299 350
299 758
299 759
300 301
300 380
300 709
300 758
301 302
301 380
302 306
302 380
302 718
302 719
302 720
306 307
306 309
306 344
306 729
307 308
307 309
307 344
307 345
308 309
308 310
308 311
308 345
309 310
310 311
310 312
310 350
311 312
311 345
312 345
312 350
317 318
317 320
317 321
317 322
317 585
317 587
317 588
318 319
318 320
318 584
318 587
318 605
319 320
319 605
320 605
321 322
321 323
321 324
321 325
321 327
321 329
321 330
321 603
321 757
322 323
322 588
323 324
323 588
324 325
324 588
324 597
325 326
325 327
325 597
326 327
326 429
326 430
326 433
326 597
327 429
327 436
327 437
327 438
327 733
327 757
329 330
329 331
329 332
329 333
329 340
330 331
330 603
331 332
331 603
332 333
332 603
333 340
333 603
339 340
339 341
339 354
339 547
340 547
340 603
341 342
341 345
341 352
341 354
341 355
342 343
342 344
342 345
343 344
343 345
344 345
345 346
345 350
345 352
346 347
346 348
346 350
346 351
346 352
347 348
347 349
347 350
348 349
348 351
349 350
349 351
349 359
349 706
349 707
350 359
350 759
351 352
352 353
352 355
353 354
353 355
353 754
354 355
354 547
354 751
354 754
358 359
358 360
358 361
358 367
358 368
358 706
358 707
359 360
359 707
359 759
360 361
360 362
360 363
360 364
360 759
361 364
361 365
361 366
361 367
361 369
361 370
361 376
362 363
362 364
363 364
363 365
363 366
363 628
363 759
364 365
365 366
366 376
366 628
367 368
367 369
368 369
368 370
368 371
369 370
370 371
370 372
370 375
370 376
370 388
371 372
372 373
372 375
373 375
375 388
375 644
375 645
376 388
376 628
376 629
378 379
378 380
378 382
378 384
378 625
378 627
378 628
378 759
379 380
379 381
379 382
379 625
379 713
379 718
380 381
380 382
380 709
380 718
380 759
381 382
384 625
384 627
388 644
394 397
394 436
394 437
394 547
394 601
394 752
394 753
397 601
397 703
400 447
400 600
400 748
400 749
409 410
409 411
409 417
409 422
409 456
409 593
409 691
410 411
410 592
410 593
411 422
411 592
417 455
417 456
417 457
417 459
417 537
417 570
417 593
418 419
418 455
418 456
418 457
419 421
419 455
419 456
419 691
419 692
421 422
421 692
422 454
422 592
422 595
422 691
422 692
424 425
424 426
424 451
425 426
425 427
425 428
425 451
425 598
426 427
426 451
427 428
427 439
427 449
427 451
427 599
427 699
427 700
428 429
428 433
428 438
428 439
428 598
428 732
428 733
429 433
429 732
429 733
430 432
430 433
430 597
430 598
432 433
432 598
433 598
436 437
436 438
436 601
437 547
437 603
437 756
437 757
438 439
438 601
438 733
439 443
439 599
439 600
439 601
443 444
443 445
443 599
443 600
444 445
444 447
444 600
445 447
445 450
445 599
447 600
449 450
449 451
449 700
450 599
450 700
451 452
451 598
451 755
452 454
452 595
452 755
454 595
455 457
455 461
455 463
455 464
455 469
455 570
456 457
456 691
459 537
459 569
459 570
459 582
459 583
459 746
459 747
461 462
461 463
461 469
461 567
461 568
462 463
462 464
462 465
462 568
463 464
464 465
464 570
465 568
465 570
467 564
467 567
469 567
469 689
471 472
471 474
471 527
472 473
472 474
472 475
472 527
472 555
472 556
473 491
473 492
473 524
473 525
473 527
473 556
474 475
474 481
474 555
474 559
475 555
476 477
476 555
476 556
477 555
477 556
477 557
481 482
481 559
481 560
481 565
482 483
482 484
482 565
483 484
483 485
484 485
484 565
485 564
485 565
487 488
487 515
488 489
488 515
488 523
489 490
489 514
489 515
489 523
490 516
490 520
490 522
490 523
490 551
491 492
491 518
491 519
491 523
491 524
492 493
492 518
492 519
492 520
492 556
493 520
493 521
493 551
493 554
493 556
497 507
497 561
497 562
501 551
501 552
504 505
504 506
504 512
504 553
504 554
504 561
505 506
505 507
505 561
506 507
506 512
506 513
507 513
507 560
507 561
507 562
507 574
507 575
507 576
507 577
512 513
514 515
516 517
516 520
516 523
517 518
517 520
517 523
518 519
518 520
518 523
520 521
520 522
521 522
521 551
522 551
523 524
524 525
525 526
525 527
526 527
529 572
529 578
529 686
530 531
530 532
530 533
530 571
530 572
531 533
531 572
532 533
532 569
532 571
532 582
532 746
532 747
533 582
537 583
537 593
539 540
539 541
539 542
539 583
539 584
539 588
539 593
539 648
540 541
540 583
540 593
541 542
541 593
542 593
547 603
547 751
547 752
551 552
551 554
551 735
552 553
552 734
552 735
553 554
553 734
553 735
554 556
554 561
554 680
554 681
554 735
555 556
555 557
555 559
556 557
556 559
556 681
557 559
559 560
559 681
560 562
560 565
560 680
560 681
561 562
561 680
562 680
564 565
564 567
564 688
565 566
565 687
565 688
566 568
566 569
566 571
566 687
567 568
567 688
567 689
567 690
568 569
568 570
568 687
568 688
569 570
569 571
569 747
571 572
571 574
572 574
572 578
572 683
574 575
574 682
574 683
575 576
575 577
575 578
575 682
576 577
578 682
578 683
578 684
578 686
581 582
581 584
581 744
582 583
582 744
582 745
582 746
583 584
583 593
583 744
583 745
584 587
584 588
584 744
585 587
585 588
587 588
588 597
588 648
590 592
590 595
590 598
590 648
590 693
590 694
590 731
590 755
592 593
592 595
592 694
593 648
593 693
593 694
595 755
597 598
597 648
597 730
598 730
598 731
598 755
599 699
599 700
600 601
600 749
601 703
601 748
601 749
603 756
603 757
605 606
605 608
605 698
606 607
606 608
606 697
606 698
607 608
607 736
607 737
610 611
610 612
610 736
610 737
611 612
611 696
611 724
611 725
615 616
615 727
616 717
616 727
620 621
620 624
620 717
620 718
621 624
621 718
622 623
622 624
622 717
623 624
623 717
624 718
625 627
625 631
625 713
625 714
625 722
625 723
627 628
627 631
627 711
627 712
628 629
628 711
628 759
629 630
629 711
629 712
630 631
630 712
631 712
633 635
633 666
634 636
634 666
634 667
635 636
635 666
635 667
635 762
635 763
636 667
636 671
638 639
638 640
639 640
641 660
642 643
642 739
644 645
648 693
648 730
648 731
650 663
654 655
656 657
658 659
660 661
662 663
664 665
666 667
668 669
670 671
672 673
672 674
673 674
673 675
674 675
676 677
678 679
680 681
682 683
684 685
684 686
685 686
687 688
689 690
691 692
693 694
695 696
697 698
699 700
703 748
706 707
709 758
709 759
711 712
713 714
715 721
717 718
717 719
718 719
719 720
722 723
724 725
726 727
728 729
730 731
732 733
734 735
736 737
738 739
740 741
742 743
744 745
746 747
748 749
751 752
751 753
751 754
752 753
753 754
756 757
758 759
762 763
