ply
format ascii 1.0
comment Exported from MorphoGraphX 2.0 1-254
comment Cellular mesh
element vertex 1112
property float x
property float y
property float z
property float signal
element face 557
property list int int vertex_index
property int label
end_header
-75.5 149.25 0.999999 72819.2
-72 156 0.999999 77527.1
-72.5 157.5 0.999999 78432.4
-76.5 159.75 0.999999 78822.1
-80 152 0.999999 75332
-85.25 -243.25 0.999999 84614.5
-78.5 -249 0.999999 58364.1
-78.5 -242.75 0.999999 85432.9
-79 -250.5 0.999999 61626.7
-86 -244.5 0.999999 85011.5
-90.25 192.25 0.999999 85958.3
-73 197.25 0.999999 79324.3
-73.25 198.5 0.999999 72417.5
-91 198 0.999999 74785.5
-88 -255.25 0.999999 82691
-81 -256.5 0.999999 59244.2
-91.25 -247 0.999999 83774.2
-89 205 0.999999 87039.8
-71.25 166.5 0.999999 82533.1
-71.25 175.25 0.999999 86086.9
-87.25 175.5 0.999999 82419.8
-92.75 165 0.999999 86539.1
-102 -98.25 0.999999 78464.8
-93.75 -109.5 0.999999 85081.3
-80.75 -113.25 0.999999 82919.1
-74.75 -105 0.999999 75879.3
-89 -77.25 0.999999 86221.8
-102.25 -83 0.999999 83555.2
-102.25 -93.75 0.999999 86349
-99.5 -224.25 0.999999 80909.4
-70.75 -227.25 0.999999 86872.9
-72.5 -200.5 0.999999 81085.8
-82.1111 -194.722 0.999999 73346.2
-84 -192.75 0.999999 74782.6
-94.75 -197.25 0.999999 84460.3
-102 -214.5 0.999999 85236.2
-89.5 43.25 0.999999 80357.9
-71.25 53.25 0.999999 84711.1
-69 65 0.999999 82418.8
-77.25 75 0.999999 84013.3
-78.25 80.5 0.999999 79972.8
-95 84.5 0.999999 81155.4
-100 65 0.999999 74874.1
-103.25 53 0.999999 65673.3
-93 -161.5 0.999999 81715.2
-94 -154.75 0.999999 82610.2
-100 -154.25 0.999999 65230.4
-102.75 -163 0.999999 80121.9
225.667 -67.3889 0.999999 62677.3
243.5 -69.25 0.999999 82120.1
237.5 -60 0.999999 84767.2
228 -61.75 0.999999 83709
-105.75 -47.5 0.999999 80655.9
-92.75 -53 0.999999 84614.9
-87.5 -48.75 0.999999 81670.5
-95 -36.5 0.999999 79964.6
-106 -40.5 0.999999 72868.9
-106.25 -51.25 0.999999 79945.1
-93.5 -56.5 0.999999 84753.2
-70 -241.75 0.999999 85743.6
-68.5 -229.25 0.999999 86832.2
-100.75 -226.25 0.999999 84855.1
-106 -233.5 0.999999 83290.1
-102.25 -140 0.999999 74038.3
-91 -145.75 0.999999 57589.3
-78 -141 0.999999 79170.2
-76.75 -123.25 0.999999 82013.4
-80.25 -116 0.999999 68770.6
-106.5 -122.75 0.999999 84667.1
108 110 0.999999 81480.5
105 121.25 0.999999 67223.1
95.75 108 0.999999 69032.3
101.75 -101.5 0.999999 70495
103 -101.5 0.999999 72642.6
108 -99.25 0.999999 81757.8
110.5 -97.5 0.999999 77916
120.5 -84.75 0.999999 85398.9
125.5 -81.25 0.999999 77790.4
124.5 -72 0.999999 2539.84
110.25 -68.5 0.999999 79206.7
100.75 -73 0.999999 86142.4
95 -90 0.999999 85165
-111.5 -222.75 0.999999 87005.8
-112.5 -212.5 0.999999 85874.8
91.25 -9.25 0.999999 70741.1
106.75 -7 0.999999 66975.8
105.75 2.75 0.999999 64252.9
103.806 3.33333 0.999999 45342.2
90.875 -7.125 0.999999 48374.3
109.5 -63.5 0.999999 62863.1
119.25 -55.25 0.999999 83040.8
109.75 -37.75 0.999999 83223.7
94.75 -50 0.999999 84185.7
91.5 -65.25 0.999999 84551.9
127.25 -95.75 0.999999 73683.4
133.75 -89.25 0.999999 82526.6
126.25 -82 0.999999 76029.6
92.25 -147 0.999999 59571.9
108 -147.25 0.999999 60701.5
106 -139.5 0.999999 77384.1
92.5 -140 0.999999 72723.5
92.5 76.25 0.999999 65989.7
98.5 87.25 0.999999 73720.9
94.75 89.5 0.999999 73365.1
90.25 77.5 0.999999 73844.5
96.25 152 0.999999 84879.8
107.25 154.75 0.999999 70740.7
106.25 156.75 0.999999 53066.3
102.75 168.75 0.999999 79633.4
91.5 172 0.999999 77617.4
89.25 165.25 0.999999 66495.8
92.75 206.75 0.999999 86621
99.5 207.75 0.999999 86931.5
98.75 212.5 0.999999 85464.3
88 212.25 0.999999 86186.9
113.75 168.75 0.999999 52985.7
116 168.75 0.999999 54363.7
124.5 175 0.999999 86064.2
127.25 185.5 0.999999 86554.1
104.75 194 0.999999 86170.9
90.75 189 0.999999 86106.7
87 180.75 0.999999 75363.2
85.75 207.5 0.999999 84117.7
88.75 31 0.999999 61913.1
94 34.25 0.999999 53336.1
92.5 40.5 0.999999 54097.6
84.25 33.25 0.999999 39203.9
84.5 95.75 0.999999 78692.2
88.75 93.25 0.999999 83414.7
100.25 86.5 0.999999 82298.3
116.75 93.5 0.999999 86810.3
118.5 101.75 0.999999 84744.3
91.75 109.75 0.999999 85934.5
17.5 -38.5 0.999999 80354
24.5 -39 0.999999 80691
29.25 -36.25 0.999999 83640.3
24.25 -27 0.999999 81599.8
15.5 -31 0.999999 83044.1
83 179.75 0.999999 64763.3
81.25 172 0.999999 58420.5
81 165.5 0.999999 53312.8
80 204.5 0.999999 84871.9
80.25 -22.5 0.999999 83195.1
84.25 -45 0.999999 81353.7
120.25 -24 0.999999 85444.7
82.125 -12.1875 0.999999 85902.7
78.25 -112.25 0.999999 80660.3
99.5 -114.25 0.999999 74719
100 -103.75 0.999999 73072.2
79.25 -97.25 0.999999 85029.9
76.25 176.5 0.999999 74105.9
82.5 37 0.999999 55386.3
90.75 43 0.999999 65291.1
95.75 47.25 0.999999 85554.8
100 48.5 0.999999 80775.1
102.75 58 0.999999 85443.6
95.5 64.5 0.999999 85700
82.25 61.75 0.999999 84163.6
75.5 48.75 0.999999 82056.1
77.5 -146.5 0.999999 84002.4
78.5 -154.25 0.999999 81885.2
92 -153.5 0.999999 78876.6
78.5 -131.75 0.999999 78894.8
75.25 -139 0.999999 85086.4
75 165.5 0.999999 74189
74.5 176.25 0.999999 81247.8
124 -128.25 0.999999 83968.4
112.75 -114.25 0.999999 79745.4
106.75 -114 0.999999 66100.3
104.5 -114.75 0.999999 48565.2
102.25 37.25 0.999999 74218.3
105.25 42.75 0.999999 82701
96 74.75 0.999999 81180.8
83 83.5 0.999999 85487.8
81.5 85.75 0.999999 85199.4
75 83.5 0.999999 83937.8
74 -154.25 0.999999 81272.7
70.75 -148.5 0.999999 83707.5
71.25 -139 0.999999 83072.6
81.25 -203.5 0.999999 86967.5
103.75 -197.5 0.999999 85210.7
101.75 -178 0.999999 86893
84.5 -175.75 0.999999 86408.1
72 -183.5 0.999999 87035.9
59.25 -106.5 0.999999 71247
64.5 -96.5 0.999999 70898.4
61.75 -94 0.999999 77486
56.5 -101.5 0.999999 62749
58.5 -91.25 0.999999 82137.9
63.5 -70.25 0.999999 75558.9
55.25 -76 0.999999 76447.2
146.5 -14 0.999999 85281.4
152.306 -6.66667 0.999999 86408.3
147.5 4.75 0.999999 83229.6
140.25 4.25 0.999999 83515.9
133.5 3.75 0.999999 81093.7
52.5 -94.5 0.999999 80849.4
72.6667 11.9444 0.999999 77796.6
85 15.75 0.999999 66904.8
52.75 46.5 0.999999 61830.1
48.25 39 0.999999 62804.1
49.25 32.25 0.999999 73905
63.25 15.75 0.999999 71795.8
145.5 -23.25 0.999999 84803.6
132 8.75 0.999999 82967.8
118.25 14.75 0.999999 69037.4
46.5 -104 0.999999 84054.7
48.5 -107.75 0.999999 80451.8
48.5 -94.75 0.999999 85561.3
43.75 -94.5 0.999999 82417.2
104.75 123 0.999999 81571.3
94.5 120 0.999999 80420.1
45 -126.25 0.999999 44727.3
46 -132 0.999999 75754.9
53.25 -140.75 0.999999 80578
42.25 -118 0.999999 78852.9
41.5 71.5 0.999999 82847.4
46.75 55.25 0.999999 75386.3
51 49 0.999999 43866.1
68.25 92.5 0.999999 83934
45.5 78.25 0.999999 73430.9
-117 92 0.999999 83055.8
-73 87.25 0.999999 67072.4
-79 105 0.999999 81140.9
-88.75 120 0.999999 83453.2
-117.75 105.5 0.999999 71178.5
52 -201.5 0.999999 85207.1
62.25 -209.75 0.999999 85222.5
48.5 -174.5 0.999999 73563.9
47.5 -174.5 0.999999 51829.3
42.25 -178 0.999999 77909.1
41.25 -184.25 0.999999 86927.4
45.75 -230 0.999999 85603.2
42.25 -208.5 0.999999 86774.1
-245.25 -117.75 0.999999 71761.6
-232 -119.5 0.999999 69532.3
-218 -117 0.999999 66056.5
-208 -104.5 0.999999 84468.5
-221.25 -86.5 0.999999 82440.5
-236.75 -87.25 0.999999 84271.8
-251.5 -98.25 0.999999 75274.5
40 160.5 0.999999 50021.1
49.25 158.25 0.999999 66987.3
56.75 172.25 0.999999 71966.4
54 173.75 0.999999 59633.2
44 -73 0.999999 83069.4
39 -79.25 0.999999 83397.3
42 -161.5 0.999999 81278.8
42.5 -154.25 0.999999 86215.5
38 197.5 0.999999 85236.5
52 192.75 0.999999 86805.1
70.75 207.5 0.999999 85407.6
63 227.5 0.999999 86451.8
47.75 223 0.999999 86738.2
19 -146.25 0.999999 83725.8
25.25 -149.25 0.999999 84738.6
31.25 -147.25 0.999999 81740.1
31.75 -134 0.999999 70746.7
30.25 -127.25 0.999999 46162.2
31 -118.5 0.999999 77068.8
23 -112.5 0.999999 85507.8
11.5556 -119.222 0.999999 82823.8
36 -162.75 0.999999 54567.5
-144 -70.5 0.999999 60252.1
-131.5 -66.5 0.999999 65427.4
-137.5 -44 0.999999 74292.1
-153.5 -53.5 0.999999 65361.8
34.5 -163 0.999999 70884.3
34.75 83.75 0.999999 81509.9
64.75 112.25 0.999999 78200.1
53.5 108.5 0.999999 73478.7
31 103 0.999999 83822.2
31.75 96.25 0.999999 84950.4
31 89 0.999999 82609.6
30.5 39.5 0.999999 74029.2
41.5 28 0.999999 59527.1
38.5 44 0.999999 37274.7
36.25 45.75 0.999999 70548.4
23 -50.5 0.999999 81444
37 -48 0.999999 84627
37.75 -38 0.999999 81180
23.25 -45.5 0.999999 85165.8
-171.25 -85.25 0.999999 82984.9
-165 -90.75 0.999999 85607.7
-143.25 -82.75 0.999999 71357
-143.75 -78.25 0.999999 44985.9
-164 -55.25 0.999999 82185.9
-176 -68.5 0.999999 85337.9
-172.25 -43.75 0.999999 74542
-120.75 -33.25 0.999999 71840.2
-135.25 -17.25 0.999999 72368.6
-142.5 -18.25 0.999999 76766.2
-149.25 -19.5 0.999999 79089.6
-168.25 -33.5 0.999999 79566.4
-207.75 -54.25 0.999999 68858.5
-201.5 -57.5 0.999999 79105.6
-192.75 -56.75 0.999999 63228.2
-178 -24.5 0.999999 73623.5
-189 -24.75 0.999999 52489.9
-206.75 -28.75 0.999999 76549.4
-214 -39 0.999999 84464.4
33.5 27.75 0.999999 62400.2
28.75 35 0.999999 78250.1
44.5 -3.5 0.999999 59791.2
42 -21.75 0.999999 79836.1
48.25 -31.25 0.999999 82727.7
73.25 7.75 0.999999 84170.1
158.875 9.625 0.999999 86258.1
163 -3.25 0.999999 37198.4
187.25 -12.75 0.999999 87037.5
199.25 -6 0.999999 86975.9
193 6.25 0.999999 86960
184.5 22.75 0.999999 85879.1
177.75 23.5 0.999999 86898.8
173 23.75 0.999999 83734.9
157.75 15 0.999999 85694.6
29.75 4.5 0.999999 68431
33.25 -0.999999 0.999999 40856.3
36.5 -4 0.999999 69439.8
25.75 -25 0.999999 78883.2
-14.875 12.625 0.999999 32851
-0.25 16.25 0.999999 26128.2
-2.25 25.5 0.999999 47721.8
-17.5 19.75 0.999999 58011.3
-284.125 5.625 0.999999 86526.4
-281 21 0.999999 83687.7
-290 38.5 0.999999 85820.8
-4 -235.5 0.999999 85091.9
3.25 -231 0.999999 86999.7
0.875001 -223.125 0.999999 86915.8
-4 -223 0.999999 84725.9
-4.25 97.5 0.999999 71692.3
-3.5 110.5 0.999999 59540.2
-5.5 112 0.999999 41548.4
-18.75 100.75 0.999999 46918.5
-18.75 99.75 0.999999 66529.2
67.75 122.25 0.999999 63249.8
71.5 123 0.999999 78626.8
64.5 136 0.999999 72547
62 134.25 0.999999 73408.6
61.75 128.25 0.999999 71805.6
-13.75 77.25 0.999999 82708.5
-2.18055 82.7639 0.999999 81413.1
-25.25 82.25 0.999999 75764.9
8.5 34 0.999999 75029.3
12.25 50.75 0.999999 85992
-12.75 58.75 0.999999 77692.8
-29.25 50.75 0.999999 83572.3
-26.25 25.75 0.999999 72027.8
37.75 163 0.999999 62778
50.5 178.25 0.999999 84044.2
-37.5 -184 0.999999 82676.5
-32 -180 0.999999 84380.7
-24 -179 0.999999 86006.5
-22.5 -174.75 0.999999 86715.5
-40.5 -162 0.999999 81630.8
-46 -171.5 0.999999 84812.2
26.5 -160.5 0.999999 83448.9
24.5 -155.25 0.999999 85470.8
168.25 -33 0.999999 54371.8
183 -27.25 0.999999 41388.7
182 -22.25 0.999999 86956.6
166.25 -24.25 0.999999 76508.2
-23 -136 0.999999 78450.4
-21.5 -136 0.999999 78498.4
-18.5 -126.5 0.999999 84318
-27 -127.5 0.999999 80422.3
-178.75 63.25 0.999999 78624.2
-168 64.5 0.999999 78585.3
-165.5 68.25 0.999999 74284.1
-168.5 76.25 0.999999 73285.5
-180.75 67.75 0.999999 68070.1
66 119.25 0.999999 82822.9
59.25 125.25 0.999999 84224
-12 -160 0.999999 85687.3
-2.19444 -150.833 0.999999 85493.5
-11.25 -136 0.999999 81415.3
-27.75 -142.25 0.999999 85106.2
116.75 156.25 0.999999 78802.6
6 -60.5 0.999999 85174.8
13.875 -61.125 0.999999 85914.6
19.25 -50.75 0.999999 83040.6
16.5 -40.25 0.999999 85701.1
4.80556 -25.6667 0.999999 76311.5
-19 -39.5 0.999999 79124.9
-8.5 -61 0.999999 84963.2
22.75 101.75 0.999999 84825.3
-41.5 -11.5 0.999999 59892.5
-31.25 -14 0.999999 71666.4
-30 -9.5 0.999999 79506
-43.125 -6.375 0.999999 57184.9
-27.75 202 0.999999 86866
-20 201.5 0.999999 86835.4
-0.5 224 0.999999 85048
-31.25 212 0.999999 86932.9
-31.75 190.25 0.999999 79001.2
-19.5 198.5 0.999999 59724.6
-195.25 -163.5 0.999999 64796.4
-184.75 -158.25 0.999999 76533.3
-196 -159.75 0.999999 61518.8
-26.75 185.75 0.999999 81821
-16.75 191.5 0.999999 86918.5
-31.75 188.5 0.999999 84946.4
-208.25 -182.75 0.999999 85524
-192 -185.75 0.999999 69943.9
-191 -180.75 0.999999 80739
-191 -176.75 0.999999 76252.4
-194.25 -167 0.999999 59053.8
-206.5 -152.5 0.999999 84638.6
-219.25 -156.25 0.999999 79200
41 228.5 0.999999 86798.4
83.75 234.75 0.999999 86562.2
37.25 239.5 0.999999 86575.8
-31.25 -190.5 0.999999 80992.6
-22.75 -190.25 0.999999 86378.9
21.5 -7.5 0.999999 46277.1
19 9.53674e-07 0.999999 74345.1
-31.25 10.75 0.999999 60261.1
-20.125 -2.125 0.999999 67120
-8 3.75 0.999999 33322.4
-33.25 21 0.999999 73559.1
26.75 -178.75 0.999999 82173.2
21.5 -164.25 0.999999 63886.6
21.25 -169.25 0.999999 82360.1
-11.1111 -130.694 0.999999 81420.4
-4.66667 -117.806 0.999999 82226.5
-24.75 -108 0.999999 83350.1
-33.75 -114.5 0.999999 79965.8
-245.5 -148.75 0.999999 79982.1
-231 -145 0.999999 81917.6
-33.5 -78.25 0.999999 59999.4
-33.25 -84 0.999999 77994.3
-22.25 -94 0.999999 86223.2
1.5 -83 0.999999 82461
-2.30556 -78.3333 0.999999 70900.5
-3.5 -76.25 0.999999 75406.1
-11.25 -69.5 0.999999 83474.4
-35 -72.5 0.999999 73567.8
-179.5 -194.25 0.999999 84251.1
-174.25 -188 0.999999 80547.4
-175 -187 0.999999 74488.9
-34.75 -205.5 0.999999 83784.9
-26.75 -214.75 0.999999 84844.6
-13.25 -213.75 0.999999 86702.9
-13.875 -202.188 0.999999 87009.4
-33.8438 -190.219 0.999999 83856.5
-36.25 -201.75 0.999999 85764.3
15.5 -160.75 0.999999 71614.7
16.75 -150.25 0.999999 85385.9
15 -151.5 0.999999 85836.8
-28.25 -215.75 0.999999 82112.4
-37 -209.75 0.999999 86421.9
-34.75 21.75 0.999999 74123.3
-38 11.5 0.999999 68596.3
9 116.5 0.999999 6807.67
6.5 124.75 0.999999 19135.6
3.125 133.375 0.999999 49125.7
-2.25 135.5 0.999999 78095.7
-24.5 122.5 0.999999 78286
-25.5 117.25 0.999999 67715.2
-19.75 113.5 0.999999 59063.1
112.5 -172.75 0.999999 86500.7
104.25 -156.5 0.999999 82393.3
12.125 -169.188 0.999999 85771
11.6667 -164.056 0.999999 83693.4
-38.5 176 0.999999 87028.1
-34 170 0.999999 84250.5
-29 172 0.999999 84202.7
-40.5 183.25 0.999999 85898.7
17 -81 0.999999 78588.6
20.5 -76.5 0.999999 81380.7
182.25 -36.5 0.999999 80884.1
191.75 -44 0.999999 85642.5
214.25 -33.75 0.999999 86703.6
224.25 -30.75 0.999999 86804.1
219 -18.5 0.999999 86036.4
211.5 -8 0.999999 87017.3
19.25 102.5 0.999999 85639.1
52.25 141.75 0.999999 76228.7
28 130.25 0.999999 74921.9
15.75 116.25 0.999999 23952.8
86.25 11.875 0.999999 78812.7
92.25 6 0.999999 59635
121.25 29.5 0.999999 70783.4
126.75 33.75 0.999999 73651.2
121.5 48 0.999999 84371
16 92.25 0.999999 78223.2
-50.75 -30.25 0.999999 57093.7
-32.75 -20.5 0.999999 46090.3
-51.2778 -8.44444 0.999999 64413.5
-62.1389 -15.6944 0.999999 83421.2
280.5 -64 0.999999 85408.4
244.25 -70.75 0.999999 76537.1
239.25 -76.25 0.999999 81710.8
246 -92 0.999999 85146.9
-125.25 -239.25 0.999999 83404.8
-112.5 -228.75 0.999999 85537.4
-121.5 -229.5 0.999999 84863
10.25 -225 0.999999 85764.1
6.125 -221.188 0.999999 85980.8
6.875 -73.125 0.999999 82798.6
7.5 -72 0.999999 83188.7
114.75 -109.75 0.999999 82250.9
117 -101.5 0.999999 75084.3
-66.75 163.25 0.999999 74969.7
15.25 168.25 0.999999 58849.2
18.75 160.25 0.999999 71935.3
22.25 182.25 0.999999 86014.2
15 170 0.999999 70223.2
126.5 83.5 0.999999 84451.4
70.75 145.75 0.999999 68241.6
-51.25 -55.75 0.999999 84883
-48 -66.75 0.999999 84596
-45.25 -71 0.999999 83578.1
-27 -34 0.999999 78879.4
-47.5 -37.75 0.999999 66041.9
-53.25 -46.75 0.999999 79798.1
7.69444 -75.8333 0.999999 73049.4
154.75 -124.25 0.999999 86739.6
158.5 -115.25 0.999999 86990.2
148.75 -101.25 0.999999 85732.7
147 -92 0.999999 85697.6
126.25 -96 0.999999 77085.4
109.5 -150 0.999999 81623.3
-106.25 -161.5 0.999999 85235.2
-107.5 -154.25 0.999999 84498.8
-31.5 -233 0.999999 85749.5
-29.25 -218.75 0.999999 86700.3
-37.5 -215 0.999999 85240.7
-40 -216.75 0.999999 81504.2
-42.25 -227.75 0.999999 82442.5
182.25 166 0.999999 76742.3
196 164.5 0.999999 37233.2
200.5 169.25 0.999999 73429.3
198.25 173.25 0.999999 61155.7
182.75 167.75 0.999999 58616.5
-66.75 153.25 0.999999 66361.9
-63.5 158.25 0.999999 80979.2
-251.5 -156.5 0.999999 84043.9
-258 -95.25 0.999999 82336.6
-27.25 -101.5 0.999999 86249.5
14.75 -80 0.999999 85112
8.55556 -78.2222 0.999999 75853.9
-197.75 -79.75 0.999999 81299.4
-189 -68.75 0.999999 79610.5
-207.75 -74.5 0.999999 84410.3
62.75 -63 0.999999 40514.8
43.5 -67.5 0.999999 49490.8
-59 -165.5 0.999999 85907.7
-48.25 -147.25 0.999999 76080.6
-56.75 -148.25 0.999999 59119.8
-62 -151.75 0.999999 67509.5
11.25 -150 0.999999 86330.1
2.19445 -151.611 0.999999 85880.5
158.75 88 0.999999 77024.8
163.75 79.5 0.999999 85018.7
169.5 79.75 0.999999 85965.2
189.5 113 0.999999 79979.1
162 100.75 0.999999 81216.3
18.5 -72.75 0.999999 85530.1
14.25 -73.125 0.999999 86892.4
211.25 -77.25 0.999999 81173.5
226.75 -74.5 0.999999 77721.5
223.5 -57.25 0.999999 86565.1
215.25 -59.5 0.999999 86655.2
210 -73.75 0.999999 86096.2
5.5 -178 0.999999 86802.2
10.75 -176 0.999999 86805.6
5.125 -156.375 0.999999 86003.2
-7 -170 0.999999 87015.5
-201 18.25 0.999999 72085.9
-195 27 0.999999 58276.3
-208.75 26.5 0.999999 47404.2
61.75 -58.25 0.999999 74230.9
5 136 0.999999 48017.2
5.25 138.75 0.999999 43736.1
14.5 140 0.999999 61480.7
17.25 143 0.999999 77838
10.0556 154.333 0.999999 79647.6
4.25 157.25 0.999999 27553.2
0.694445 162.167 0.999999 52838.4
-5.75 178.75 0.999999 85983.6
-10.5 178 0.999999 86212.7
-18 164 0.999999 83383.7
-14.25 136.5 0.999999 52457.3
-109 -78.75 0.999999 77903.8
-85.5 -71.25 0.999999 83799.3
-11.1944 186.167 0.999999 86857
-3 184 0.999999 86133.9
-0.124999 190.875 0.999999 85495.6
-12 189.25 0.999999 86764.8
7.5 -206.5 0.999999 55484.2
3.55556 -191.333 0.999999 70685.7
1.88889 -189.833 0.999999 83778.3
-3.25 -199 0.999999 82492.6
4.75 -207.5 0.999999 83476.6
-111.25 -92.25 0.999999 86328.2
-113.25 -86.75 0.999999 84612.5
-176.75 -207.75 0.999999 85081.5
-164.5 -213.75 0.999999 86618.3
-156.5 -210.75 0.999999 86978.2
-155 -203.25 0.999999 86733.8
-155.25 -193.75 0.999999 85782.3
-66.5 -146 0.999999 45609.3
-58.25 -146 0.999999 50289.4
-63.5 -140 0.999999 66301.2
-67.25 -143.75 0.999999 61666.4
-29 -27.75 0.999999 43049.7
-48.25 -34.25 0.999999 42352
46.5 -58 0.999999 64010.5
-183 -162.25 0.999999 66652.1
-183 -160.5 0.999999 64126
174 -88.25 0.999999 63214.8
175.25 -96 0.999999 73327.2
184 -112.5 0.999999 87021.4
194.25 -114.75 0.999999 86516.1
216 -110.75 0.999999 85236.5
218.5 -108.5 0.999999 80553.9
220.75 -107 0.999999 80137.9
221.75 -102.5 0.999999 86881.2
206.5 -69 0.999999 80089.1
190.75 -72.75 0.999999 83878.5
173.25 -84.75 0.999999 79849.9
11.25 199.25 0.999999 86803
198 177 0.999999 84231.7
181.5 172.5 0.999999 68995.8
-70.5 147.25 0.999999 69460.1
5.25 -180.75 0.999999 86760.1
16.5 -186.5 0.999999 87029.1
17.5 -183 0.999999 86603.9
159.25 101.25 0.999999 69660
185 130.75 0.999999 86915.2
156 110.25 0.999999 78375.7
-58.75 195.5 0.999999 86613.7
81.75 128 0.999999 84908.3
119 131.75 0.999999 85550.4
126.25 149 0.999999 81058.4
81 142 0.999999 81968.4
13.5 88 0.999999 81992.8
-49.4444 -5.72222 0.999999 50246.2
-46.25 16.25 0.999999 69218
-51.75 16 0.999999 77977.5
-57.0556 5.22222 0.999999 63218.3
-41.75 166.25 0.999999 82128.6
-47 178.75 0.999999 83265.8
154 7.75 0.999999 86612.6
148.125 5.625 0.999999 86407.7
-65.75 -74 0.999999 78117.1
-57 -69.75 0.999999 73924.7
-62.5 -53.75 0.999999 86221.8
-72.25 -51.25 0.999999 65398.9
-68 -170.5 0.999999 86036
-84.25 -167 0.999999 86413
-82 -186.25 0.999999 85220.1
-67.25 -185.25 0.999999 86172.1
-254 -26.25 0.999999 84643.6
-237.25 -24.75 0.999999 84260.7
-228.25 -4 0.999999 85795.8
-236 20.25 0.999999 85631
-249.5 16 0.999999 84213.7
-255.194 -0.430555 0.999999 85687
23.25 219.25 0.999999 86684.4
10 231 0.999999 86254
-47.75 80.75 0.999999 83626.5
-47.25 102.75 0.999999 71480.9
-54.75 95 0.999999 74016.8
-55.25 88.75 0.999999 84885.3
-57.25 -132.5 0.999999 82108.3
-63 -120.25 0.999999 82138.5
-107.75 27 0.999999 70508.4
-102 21.5 0.999999 38452.9
-100.5 27.5 0.999999 65570
-107 29.75 0.999999 71152
-49.25 -225.5 0.999999 81586.8
-48.25 -217.75 0.999999 84203.9
-50.25 -202.75 0.999999 86441.9
-62.25 -194.5 0.999999 86548.1
-241.25 -74.25 0.999999 86183.7
-248.25 -69.5 0.999999 83952.2
-254.25 -64 0.999999 78853.5
-261 -70.5 0.999999 83521
1.75 8 0.999999 72974.6
-202.25 -207.75 0.999999 85532.6
-212.5 -187.5 0.999999 85240.1
226.5 -121 0.999999 66756.1
228.75 -119.5 0.999999 84207.6
-66.5 76 0.999999 82076.2
-66.75 84.75 0.999999 77102
-40.5 51 0.999999 82007.1
-41.25 48.5 0.999999 74016.4
-51 41.5 0.999999 60051.6
-58 40 0.999999 72184.1
-62.25 28 0.999999 75472.2
-64.1111 -190.222 0.999999 66006
-250.5 -57.75 0.999999 79972.9
114.5 225.75 0.999999 86578
117 241.75 0.999999 85716.9
-210.5 27.75 0.999999 61853.6
-195 28.25 0.999999 64150.9
-202 35.25 0.999999 70646.3
-168.75 -100.75 0.999999 83469.6
-148 -114.75 0.999999 84880.4
-121.5 -119.5 0.999999 83415.1
-121.5 -104.5 0.999999 83520
-130 -87.5 0.999999 66066.4
-62.75 -115 0.999999 50422.4
14 -200.75 0.999999 85749.7
20.25 -201.25 0.999999 86555.1
-63 -110.5 0.999999 76855.7
-55 -104.25 0.999999 86118.1
-58 -85.5 0.999999 84330.9
-62.75 -80 0.999999 84716.6
-41.5 -216.5 0.999999 84534.5
-47.25 -226.5 0.999999 67682
-58.5 -249 0.999999 86040.9
-30.5 -243.25 0.999999 86602.7
-50 105.75 0.999999 53819.8
-64.75 102.5 0.999999 50245.5
-26 132.75 0.999999 67914.7
-41.5 137 0.999999 69211.8
-56.25 123.5 0.999999 77457.4
-56.5 113.25 0.999999 71361.8
-64 69.75 0.999999 77696.6
-56.25 69.25 0.999999 80417.4
15 135.5 0.999999 41114.6
13.875 132.875 0.999999 58844.7
-53.25 49.5 0.999999 62586.9
-51.5 56.5 0.999999 83113.5
-54.75 52 0.999999 66895.6
-128 105 0.999999 83419.9
-84.25 130.75 0.999999 83955.2
-111.75 136.75 0.999999 85327.4
-124.5 130 0.999999 79604
-131.25 112.5 0.999999 82245.9
-62.25 44.75 0.999999 78081.8
-50.25 59.25 0.999999 83245.6
-205.875 6.625 0.999999 78872.4
-193 -6.25 0.999999 83775.4
-175.25 12.75 0.999999 86240.6
-183.5 34.75 0.999999 78760.3
-204.5 10 0.999999 82475.8
-63.75 -42.25 0.999999 80767
-85 -20 0.999999 60131.6
-95.75 -24.25 0.999999 66077.4
-66.5 107 0.999999 74372.1
33.5 70.25 0.999999 82720.8
37.5 71.25 0.999999 82166.1
33.75 78.5 0.999999 85814.9
24 -13 0.999999 74696.8
8.875 -1.125 0.999999 81014.6
25 64.25 0.999999 81713
-68.5 134.25 0.999999 79438.2
-88.5 -5.25 0.999999 21920.6
-88.125 -7.375 0.999999 39642.9
-176.75 45.75 0.999999 80546.6
-167.5 41 0.999999 82318.8
-161 44.75 0.999999 82996.1
-161.25 52.25 0.999999 85258.3
-165 58.75 0.999999 85878.1
-46.75 157.75 0.999999 83148.4
-43.75 184.75 0.999999 84973.2
-46.75 198.25 0.999999 87027.2
-84.5 20.5 0.999999 79168
-98 10.75 0.999999 64261.2
-98 6.5 0.999999 59458.7
-95.5 -0.5 0.999999 41927.7
-157.5 56.5 0.999999 83664.6
-155.5 61.75 0.999999 83018.7
-59.25 41.75 0.999999 66113.6
-92.5 31.25 0.999999 76721.8
-148.75 145.75 0.999999 86271.6
-142.25 133 0.999999 85299.6
-129 135.75 0.999999 65586.6
-117 150 0.999999 81962.1
-121 161.5 0.999999 86902.5
-143.75 157.75 0.999999 85379
-47.5 -78.25 0.999999 55438.2
-197.75 -129.75 0.999999 82813.4
-184.75 -127.5 0.999999 78048.2
-188.25 -116 0.999999 84022.1
-197.25 -117.25 0.999999 85630.6
-159.5 110.25 0.999999 65233.2
-145.75 108.5 0.999999 83052.4
-126.75 132.5 0.999999 60680.6
-151.25 128 0.999999 79695
-160 127.75 0.999999 70396.2
-166 121.75 0.999999 80846.8
-43.5 -85.75 0.999999 79147.3
150.875 14.625 0.999999 86515.9
-106.5 53.5 0.999999 42097.8
-110.25 53 0.999999 73093.3
-115.25 45.5 0.999999 83012.3
-113 148.75 0.999999 59468.6
-112.75 146.75 0.999999 70001.6
-180.25 -177 0.999999 77299.2
-44.25 -90.5 0.999999 85820.3
-55.5 -85.25 0.999999 83697.4
307 7.5 0.999999 84787.6
312.25 21.75 0.999999 86436.9
298 30 0.999999 86235.9
282 23.25 0.999999 68818.8
276.125 12.625 0.999999 53643.2
275.694 12.1667 0.999999 73385.6
282.125 -6.1875 0.999999 86838.4
262.5 -48.5 0.999999 86912.8
247.5 -30.5 0.999999 82641.4
242 -30.75 0.999999 73646
-164 -228.5 0.999999 85810.6
-48.5 -136.5 0.999999 85693.2
-183.5 71.25 0.999999 77955.6
-171.5 82.75 0.999999 64702.4
-179 81.75 0.999999 65244.4
-153 -13 0.999999 85281.8
-157.5 -9 0.999999 81850.3
-56.5 -77.5 0.999999 83014.1
333.25 43.75 0.999999 85348.5
315.75 -7 0.999999 85937.9
-193.556 -13.7778 0.999999 71317.8
-190.5 -20.5 0.999999 28280.6
-155.5 -2 0.999999 84780.2
-163.875 14.625 0.999999 84949.9
299.5 59.25 0.999999 45763
335.25 59.75 0.999999 84152.1
-135.5 -8.5 0.999999 80343.1
-143.5 -10.5 0.999999 82469.7
277.75 -11 0.999999 86343.8
290.5 -35.75 0.999999 84980.7
-136 1.5 0.999999 84251.5
-142.444 8.27778 0.999999 84503.4
-127.25 -74.5 0.999999 45589.3
-115.25 185.5 0.999999 86896
149.25 87.5 0.999999 86281.1
145.25 96.25 0.999999 57541.2
148 108 0.999999 84511.2
127.75 -193.75 0.999999 82019.4
125.25 -187.25 0.999999 86649.5
122.25 -178.5 0.999999 85898.7
142.5 191.5 0.999999 83480.3
137.25 205.75 0.999999 82290.2
122 214.5 0.999999 82313.3
123 218.75 0.999999 86975.6
144.25 61 0.999999 84398
144.5 82.25 0.999999 85997.6
201.806 12.1667 0.999999 87030.2
200.5 17 0.999999 49230.2
206 26.25 0.999999 86534.7
204.75 30.5 0.999999 86995.2
188.5 32.5 0.999999 86599.1
186.75 28.75 0.999999 86524
-273.25 23.5 0.999999 85737.5
-271 36.5 0.999999 86395.7
-281.5 56 0.999999 86462.6
135.25 -177.75 0.999999 84832.8
163 -174 0.999999 86764.8
170.25 -162.5 0.999999 86585.3
168.5 -157.25 0.999999 86726.9
159.5 -150.5 0.999999 87016.1
142 115 0.999999 86266.7
146.25 131.5 0.999999 85834.5
164.5 -139.5 0.999999 87035.7
-274.5 -9.5 0.999999 85949.4
-264.875 3.8125 0.999999 86586.2
-258.75 42.25 0.999999 86132.1
-252.25 49.75 0.999999 79201.6
-252 52.5 0.999999 65696.6
-251 56.25 0.999999 71595.1
-252 60.25 0.999999 84097.8
-259.5 74.25 0.999999 86040.5
-269 81.5 0.999999 86675
220.556 -0.166666 0.999999 86576.5
213.167 12.0556 0.999999 84627.9
-268.5 -41.75 0.999999 65241.3
236.5 4.5 0.999999 86472.5
250.5 13 0.999999 84626.4
254.5 19 0.999999 82097.2
256.75 22.75 0.999999 75373.8
214.25 21.75 0.999999 84240
214.25 19.75 0.999999 67957.5
153.75 -30 0.999999 83914.9
156.25 -29.5 0.999999 72236.4
-244.25 -56.5 0.999999 85297.2
-231.25 -41.75 0.999999 76825.1
-243.25 93.25 0.999999 85296.4
-241.75 101.75 0.999999 85212.6
-248.5 113.75 0.999999 85611.3
235.25 -18.5 0.999999 82952.9
238.5 -12.75 0.999999 85521.2
232.875 -14.375 0.999999 85899.1
129.75 -62.25 0.999999 64742.2
128 -62.25 0.999999 64234
-111.75 -167.5 0.999999 80041.7
-111 -185.75 0.999999 85132.6
-111 -147 0.999999 82781
156.25 -46 0.999999 85976.9
157 -43.75 0.999999 86036.7
242.25 -12.5 0.999999 86226.4
245.25 -18.75 0.999999 83211.7
247.5 -21 0.999999 79109.5
250.25 -24.75 0.999999 83658.7
264 -11.25 0.999999 85455.7
256.75 4.25 0.999999 81057.6
255 7 0.999999 81648.8
136.5 15 0.999999 75316.6
132.25 23.75 0.999999 66938.3
122.5 28.5 0.999999 60741.5
136 221.75 0.999999 78840.9
153 239 0.999999 75387.1
-248.5 62 0.999999 85235.4
-242.75 66.5 0.999999 80583.5
-234 83.25 0.999999 86102.7
153 157.25 0.999999 86263.5
157.25 169.75 0.999999 86081.8
-231.5 33.5 0.999999 79605.7
-235.75 38.5 0.999999 85769.1
-244.25 44 0.999999 80258.8
259.167 12.0556 0.999999 78904.3
262 8 0.999999 76040.7
267.5 12.75 0.999999 81912.2
263 22.75 0.999999 61583.4
274.764 12.6806 0.999999 77963.5
278.75 25 0.999999 81166
161 143 0.999999 84508.8
132.75 28 0.999999 56281.3
133 30.75 0.999999 64286.2
160.75 40 0.999999 85177.1
158.75 58.25 0.999999 82654.6
154.5 60.5 0.999999 84137.1
134.5 -183.25 0.999999 85505.6
-241.75 48.75 0.999999 65882.5
-241 50.5 0.999999 70956.4
-236.25 59.5 0.999999 84744.9
-238.5 62 0.999999 85030.9
143.5 213 0.999999 77074.6
-145.25 -195.25 0.999999 85087.8
-140.5 -187.75 0.999999 84376.5
-145.25 -160.25 0.999999 81167
-158.25 -156 0.999999 82238
-170 -159.75 0.999999 84836.9
-174 -156.25 0.999999 81837.4
144.5 215.5 0.999999 83539.2
150 -89.5 0.999999 86592.4
158.75 -78 0.999999 84056.9
158.5 -59.5 0.999999 84499.4
165.75 176 0.999999 86606.6
170.5 194.75 0.999999 86551.3
162.5 201.25 0.999999 86229.3
-229 117 0.999999 82029.6
-235.25 121 0.999999 85072.6
-240.75 123 0.999999 85060
136.5 -190 0.999999 85363.2
-124.75 -171.5 0.999999 72924.2
-120.5 -180.5 0.999999 84167.7
-124.5 -168.25 0.999999 71529.9
-211.75 -71 0.999999 82517.9
-122.75 -225.75 0.999999 84219.3
-122.75 -216.25 0.999999 81802.5
-127 -218.75 0.999999 73469
-233.5 42.75 0.999999 86931.8
-228 48 0.999999 84614.7
-228.25 57.75 0.999999 84911.2
-209.75 78.25 0.999999 86569.3
-216 94.75 0.999999 86555.9
-209.75 107.25 0.999999 84966.7
-224 121.25 0.999999 82477.4
-139.25 -205.75 0.999999 82778.5
-125 -204 0.999999 85579.5
-128.25 -191.25 0.999999 84592
-233.5 132.5 0.999999 72355.6
141.25 13.5 0.999999 79047.8
147.25 11.75 0.999999 80404.1
168 36 0.999999 86257
-208.75 -24.25 0.999999 50702.4
-210.5 -20 0.999999 78779.5
-219.5 -4.25 0.999999 81779
-120 -211 0.999999 84662.8
-214.25 8 0.999999 59551.2
-215.5 18 0.999999 78653.2
-207.75 50.25 0.999999 86089.5
-224.25 42 0.999999 82106.5
-225.75 40 0.999999 84104.7
181.5 -187 0.999999 84876.2
-212.278 7.55556 0.999999 77700.8
-210 13.75 0.999999 85481.5
-223.25 129 0.999999 83687.1
-227.75 133.75 0.999999 78045
-177.5 140.25 0.999999 84884.5
-170.75 133.75 0.999999 85244.3
-163 134.75 0.999999 74916.5
-160.25 138.75 0.999999 82415.6
-156.5 176.5 0.999999 84925
-173.5 163.5 0.999999 86682.9
-110 -100.5 0.999999 76155.1
-124.75 -80.75 0.999999 72234.7
163.25 217.75 0.999999 86954.9
173.75 228.5 0.999999 85555
-197 -107.75 0.999999 83117.4
-189.75 -109 0.999999 86367
-181.5 -99 0.999999 73739.9
-184.25 -92 0.999999 77071
-205 -134 0.999999 84953.5
164.5 209.5 0.999999 86705.2
-150.5 24.75 0.999999 79646
-160 24.25 0.999999 81448.1
-124 13.5 0.999999 83072.3
-131.25 37.75 0.999999 85955.5
-149.25 29 0.999999 83260.1
-196 71.75 0.999999 83676.4
-197.25 139 0.999999 86955.7
-197.75 156.5 0.999999 80511.4
-101.5 -18.75 0.999999 36342.9
-105.5 -11.5 0.999999 52178
-113 4.5 0.999999 80715.7
-114 9.5 0.999999 81485.3
-194.75 96 0.999999 63494.9
-188.5 95.5 0.999999 83665
-187.75 108 0.999999 69307.6
-193.25 106.25 0.999999 57354.1
189 150 0.999999 85801.9
177.75 156.5 0.999999 80694.5
159.75 70.75 0.999999 86975.6
-203 108.5 0.999999 84732.8
-201.75 115.75 0.999999 83368.7
-195.75 126 0.999999 78146.8
163.5 -96.5 0.999999 77536.2
155 -99.5 0.999999 86527.8
-197.75 96.75 0.999999 43226.5
-200.25 104.25 0.999999 74706.4
-106.75 16.5 0.999999 69016.1
-119.75 48 0.999999 79386.7
-124.5 48 0.999999 77732.1
163.5 -94.75 0.999999 59237.3
167.25 -84.75 0.999999 79681
161.5 -43.25 0.999999 85028.1
-177 -134.5 0.999999 78551.1
-160.75 -132.25 0.999999 77208.3
-151.5 -129.75 0.999999 86312.7
-175.75 -99 0.999999 78452.7
187.25 -69.5 0.999999 84680.3
182 -68.5 0.999999 61962.3
173.5 -65.75 0.999999 84824.3
180.75 162.5 0.999999 84531.2
164 62.5 0.999999 84220.4
-177.25 -87.5 0.999999 83471.8
172.5 -139 0.999999 86978.4
180.5 -139 0.999999 86437.7
183.25 -140.25 0.999999 86080
200 -130 0.999999 86943.2
-175 -143.75 0.999999 75129.7
-176.25 -138.5 0.999999 66239
176 -63 0.999999 84642
182.25 -58.5 0.999999 83975.7
171.5 -39.25 0.999999 86243
-192 121 0.999999 79075.6
-195.25 106 0.999999 47678
-186.75 119.25 0.999999 71675.3
176.5 -151.75 0.999999 85652.7
177 -150.75 0.999999 85210.1
174 -144.5 0.999999 86767.8
185.75 46 0.999999 85462.5
198.75 50.25 0.999999 80642.8
176.25 68.5 0.999999 83509.5
-181.75 121.75 0.999999 78105.1
179.5 198.75 0.999999 85368.1
173 208.75 0.999999 86898.8
211.75 -152.25 0.999999 86200.5
207.25 -149.75 0.999999 86169.9
188.5 -154.5 0.999999 85338.9
187.75 -156.75 0.999999 83069.4
-131.25 -215.25 0.999999 85370.7
-123.5 -207.5 0.999999 84950.1
-139 -211.75 0.999999 82644.1
-139.5 -207 0.999999 84598.3
183 207.75 0.999999 86093.6
191.25 226 0.999999 80003.4
210.25 194.75 0.999999 86425.9
182.5 199.25 0.999999 84708.9
181.75 30.75 0.999999 86238.8
185.5 36.75 0.999999 87012.1
183 -148.25 0.999999 85159.3
190.25 152.25 0.999999 84042.7
-161.5 -145 0.999999 77639.7
-158.75 -155 0.999999 80829.4
-130.25 -159.25 0.999999 79633.6
-127.5 -142.75 0.999999 85698.4
-161.5 -137.75 0.999999 51970.2
229.75 203.25 0.999999 85905
206 -134.5 0.999999 85632.8
223 -122.75 0.999999 82605.4
-124 -180.25 0.999999 85114.9
238.25 -118 0.999999 81785.5
232.5 -103.5 0.999999 85961.7
241.25 -28.5 0.999999 72293.1
238.5 -23 0.999999 77878.5
275 -50 0.999999 86507.6
280 24 0.999999 49001.7
-171 105.75 0.999999 79442.4
-103.75 15.5 0.999999 53505.7
-162.75 30 0.999999 86446.6
-148 77.75 0.999999 75865.3
-161.5 132.5 0.999999 81554
-154 35.75 0.999999 83013.7
-153.5 134.5 0.999999 80938.7
-130.25 60 0.999999 83534.2
-127.25 64.25 0.999999 74395.5
-127.25 64.75 0.999999 77168
-135.5 78.5 0.999999 83421.4
-130.75 88.75 0.999999 72850
-131 98.5 0.999999 65044.1
-113.5 68.25 0.999999 76553.5
-109 69.5 0.999999 31092.9
-125 88.75 0.999999 63903.6
-123.25 55.75 0.999999 85617.6
7 508 507 623 589 588 581 580 592
8 60 59 714 715 526 530 713 673 205
7 673 674 675 676 31 30 60 636
9 393 392 396 401 590 589 623 661 662 422
5 654 653 33 32 693 666
4 651 652 653 654 633
10 654 693 676 675 446 445 351 356 548 651 635
10 651 548 551 603 606 65 64 45 44 652 182
6 606 605 667 668 66 65 143
4 668 705 67 66 741
5 25 24 67 705 708 740
8 708 709 710 711 647 586 26 25 129
10 647 648 512 511 649 650 54 53 58 586 53
3 649 741 650 54
11 741 516 515 608 487 490 742 743 55 54 650 48
7 490 489 639 642 752 753 742 20
8 642 641 692 762 763 764 765 752 21
8 692 691 768 734 37 36 769 762 529
8 734 728 727 735 723 722 38 37 12
4 722 686 39 38 531
5 686 687 222 40 39 530
7 687 666 665 717 744 223 222 532
7 744 721 720 751 730 224 223 569
7 720 719 759 537 536 626 751 570
9 626 0 4 21 792 793 731 730 751 568
4 536 1 0 626 465
5 536 537 504 2 1 464
4 504 18 3 2 463
10 504 537 759 643 644 760 761 633 19 18 455
5 633 11 10 20 19 469
6 59 7 6 8 15 714 674
4 329 328 498 499 231
7 499 595 594 444 443 330 329 211
8 499 498 232 233 707 706 591 595 229
4 551 550 604 603 185
4 603 604 605 606 184
5 591 592 593 594 595 668
3 591 706 592 669
6 593 592 706 707 628 627 227
9 627 566 569 354 353 414 444 594 593 194
5 627 628 629 567 566 212
9 566 567 463 464 568 553 375 374 569 193
5 464 447 449 552 568 220
3 553 568 552 219
10 552 449 448 254 261 425 424 376 375 553 213
10 433 432 540 426 425 261 260 469 541 542 652
6 722 723 663 666 687 686 533
4 542 517 434 433 84
4 517 500 435 434 83
6 500 501 379 385 436 435 82
9 379 380 381 382 133 137 383 384 385 612
4 717 716 721 744 747
8 137 136 319 748 415 416 749 383 610
11 749 681 419 418 389 388 488 607 514 384 383 611
9 322 321 681 749 416 316 301 302 344 37
7 344 345 346 347 348 323 322 40
6 342 341 346 345 750 638 28
8 638 486 477 480 454 332 331 342 584
4 491 492 493 494 630
9 454 455 456 457 458 459 460 333 332 583
4 455 725 574 456 540
13 574 575 576 577 578 579 580 581 582 583 584 457 456 593
4 574 725 724 575 541
3 724 576 575 542
4 578 506 505 579 693
4 505 508 580 579 694
4 711 814 648 647 130
5 816 797 803 825 826 388
7 797 798 799 800 801 802 803 375
5 799 798 815 822 821 645
4 665 664 716 717 746
5 501 560 559 380 379 87
4 676 693 32 31 667
6 604 550 549 808 667 605 183
4 649 511 516 741 55
8 454 480 479 577 576 724 725 455 539
10 667 808 377 363 366 427 709 708 705 668 140
4 710 796 814 711 132
6 548 356 355 549 550 551 186
6 517 542 541 560 501 500 85
10 344 302 274 277 217 216 746 745 750 345 605
6 487 488 388 387 489 490 46
4 815 798 797 816 644
11 641 640 452 420 348 347 688 689 690 691 692 22
4 768 726 728 734 23
7 709 427 426 540 795 796 710 257
4 662 661 410 412 454
2 821 822 -1
4 691 690 726 768 24
8 254 255 256 257 258 259 260 261 214
8 796 795 787 776 513 512 648 814 131
9 639 390 389 418 417 453 640 641 642 43
8 716 664 459 458 718 719 720 721 459
8 577 479 478 242 241 349 506 578 648
8 735 688 347 346 341 343 663 723 27
5 726 690 689 727 728 25
9 663 343 335 334 460 459 664 665 666 582
5 629 421 423 463 567 223
6 623 507 249 253 410 661 595
8 674 712 529 528 451 441 446 675 197
10 511 512 513 437 436 385 384 514 515 516 56
5 463 423 422 447 464 221
4 489 387 390 639 45
4 689 688 735 727 26
4 608 607 488 487 724
4 673 713 712 674 671
7 638 750 745 747 268 273 486 318
7 549 355 354 569 374 377 808 191
4 515 514 607 608 725
4 787 431 430 776 659
4 776 430 437 513 658
5 541 469 470 559 560 86
10 559 470 246 245 547 609 279 278 381 380 81
4 643 466 465 644 457
4 530 529 712 713 670
8 719 718 584 583 467 466 643 759 417
4 465 468 760 644 418
7 760 468 402 395 391 394 761 419
6 447 422 357 358 448 449 222
6 351 352 353 354 355 356 190
4 381 278 281 382 64
5 133 134 135 136 137 62
3 453 452 640 41
8 505 506 349 350 250 249 507 508 590
7 628 707 233 226 231 421 629 226
5 540 432 431 787 795 134
4 382 281 134 133 63
5 486 273 272 386 477 587
10 477 386 271 270 373 340 339 478 479 480 588
4 387 388 389 390 44
4 358 255 254 448 218
9 469 260 259 215 207 206 209 246 470 259
5 526 527 528 529 530 207
6 465 466 467 400 402 468 456
4 528 527 450 451 208
4 445 413 352 351 762
4 417 420 452 453 42
4 450 442 441 451 209
4 415 317 316 416 736
8 441 442 443 444 414 413 445 446 763
8 430 431 432 433 434 435 436 437 135
6 366 365 424 425 426 427 137
7 421 231 230 267 357 422 423 224
4 748 318 317 415 737
7 417 418 419 320 323 348 420 39
8 715 327 330 443 442 450 527 526 210
4 413 414 353 352 195
5 400 401 396 395 402 691
4 395 396 392 391 692
4 391 392 393 394 421
6 278 279 280 135 134 281 65
3 272 271 386 585
7 583 582 587 590 401 400 467 409
6 374 375 376 364 363 377 192
6 135 280 305 304 319 136 66
5 319 304 303 318 748 61
4 363 364 365 366 139
8 357 267 262 247 248 256 255 358 217
4 458 457 584 718 537
5 341 342 331 335 343 581
4 376 424 365 364 138
3 334 333 460 745
5 331 332 333 334 335 744
4 320 321 322 323 695
8 316 317 318 303 202 201 275 301 607
4 301 275 274 302 608
5 256 248 214 213 257 650
4 257 213 212 258 663
4 258 212 215 259 662
6 274 275 201 200 276 277 606
4 419 681 321 320 696
8 268 220 219 269 270 271 272 273 317
4 582 581 588 587 410
4 587 588 589 590 411
3 745 746 747 319
4 230 229 262 267 665
5 747 746 216 220 268 320
4 327 328 329 330 230
4 229 228 247 262 664
4 277 276 218 217 698
5 249 250 251 252 253 755
7 279 609 573 143 142 305 280 78
4 349 241 244 350 731
5 410 253 252 411 412 452
4 200 199 218 276 697
7 209 208 196 188 190 245 246 615
4 241 242 243 244 730
4 232 227 226 233 637
8 226 227 179 183 228 229 230 231 240
9 216 217 218 199 158 157 175 219 220 30
9 247 228 183 182 176 177 178 214 248 241
12 212 213 214 178 163 162 146 149 185 184 207 215 243
8 202 303 304 305 142 145 306 197 67
3 206 208 209 260
5 245 190 189 546 547 727
4 547 546 573 609 726
6 206 207 184 187 196 208 261
8 85 144 203 191 195 204 205 86 306
10 197 198 123 126 151 158 199 200 201 202 32
8 478 339 338 510 164 165 243 242 597
11 244 243 165 150 138 121 120 141 251 250 350 598
4 196 187 186 188 263
4 270 269 372 373 322
5 191 192 193 194 195 309
9 188 186 185 149 81 80 93 189 190 616
4 184 185 186 187 264
4 372 336 340 373 323
9 251 141 122 114 113 695 696 411 252 451
6 546 189 93 92 143 573 79
5 336 337 338 339 340 324
5 338 337 634 637 510 325
11 219 175 174 127 132 211 634 337 336 372 269 321
5 179 180 181 182 183 253
4 177 159 163 178 244
6 510 637 105 110 140 164 326
4 176 160 159 177 245
7 182 181 461 462 161 160 176 248
8 157 156 172 101 104 173 174 175 329
6 145 84 88 482 481 306 76
4 306 481 198 197 68
9 162 100 99 166 167 168 169 147 146 251
5 164 140 139 150 165 430
7 159 160 161 97 100 162 163 246
8 151 152 153 154 155 156 157 158 31
3 139 138 150 432
3 324 325 326 487
6 192 308 307 645 646 193 310
6 146 147 148 72 81 149 266
8 142 143 92 91 144 85 84 145 77
6 120 119 112 111 122 141 425
4 173 128 127 174 330
9 634 211 210 635 636 378 106 105 637 327
6 110 109 121 138 139 140 433
4 645 307 315 788 312
4 126 125 152 151 743
10 127 128 103 102 129 130 131 69 71 132 603
4 104 103 128 173 331
4 123 124 125 126 742
13 481 482 87 86 205 483 484 485 171 170 124 123 198 73
3 111 114 122 424
3 88 87 482 728
9 109 108 115 116 117 118 119 120 121 428
4 111 112 113 114 426
6 105 106 107 108 109 110 429
4 101 102 103 104 332
5 161 462 523 98 97 721
4 97 98 99 100 715
7 80 79 89 90 91 92 93 80
5 84 85 86 87 88 729
5 125 124 170 153 152 71
4 172 129 102 101 333
5 132 71 70 210 211 757
9 307 308 309 310 311 312 313 314 315 350
10 72 73 74 75 76 77 78 79 80 81 717
6 156 155 509 130 129 172 340
4 170 171 154 153 72
3 69 70 71 756
6 180 834 835 836 461 181 252
3 147 169 148 267
9 119 118 837 838 839 840 695 113 112 427
5 169 168 73 72 148 268
7 171 485 841 842 509 155 154 339
8 311 843 844 845 846 847 848 312 349
5 326 325 849 850 851 488
5 168 167 502 74 73 622
3 107 115 108 732
9 461 836 852 853 854 855 856 523 462 249
7 69 131 857 858 635 210 70 437
7 98 523 856 859 518 166 99 250
5 860 861 849 325 324 515
9 851 850 862 863 864 865 866 867 868 523
6 310 476 869 870 843 311 359
5 871 655 660 861 860 514
5 538 428 234 240 539 679
8 870 869 872 873 874 875 876 877 358
6 849 861 660 659 862 850 489
5 106 378 116 115 107 733
9 203 878 879 362 361 309 308 192 191 299
8 680 679 694 880 881 656 655 871 93
5 868 867 882 883 884 524
3 885 886 887 362
4 502 503 75 74 623
5 79 78 888 889 89 719
3 889 90 89 720
4 75 503 522 76 272
9 90 889 888 893 894 878 203 144 91 302
9 895 896 897 898 899 900 901 873 872 361
11 166 518 519 520 521 95 94 522 503 502 167 624
6 204 902 903 904 483 205 344
5 695 840 905 906 696 449
7 539 240 239 677 678 679 680 95
6 866 907 908 909 882 867 491
6 378 636 910 911 117 116 438
7 659 658 912 913 914 863 862 490
6 915 916 917 918 875 874 368
8 509 842 831 832 833 857 131 130 547
4 428 429 235 234 678
6 655 656 657 658 659 660 92
4 919 920 918 917 371
5 858 921 910 636 635 436
8 899 825 803 802 919 917 916 900 370
5 522 94 96 77 76 620
3 678 694 679 94
5 904 922 923 484 483 342
7 484 923 924 925 926 841 485 341
4 835 927 852 836 254
6 683 403 409 429 428 538 148
7 234 235 236 237 238 239 240 96
4 914 928 864 863 516
4 864 928 929 865 517
6 865 929 930 931 907 866 518
3 903 922 904 343
3 838 932 839 699
5 932 939 905 840 839 700
4 678 677 880 694 548
10 77 96 95 521 940 941 942 893 888 78 718
3 907 931 908 519
7 117 911 943 944 945 837 118 439
5 883 946 947 948 884 525
4 834 949 927 835 255
4 843 870 877 844 707
3 94 95 96 621
8 677 239 238 953 294 300 881 880 97
8 913 957 958 959 930 929 928 914 520
7 908 931 930 959 960 961 909 492
7 909 961 962 963 946 883 882 473
5 562 493 492 49 48 712
3 947 967 948 526
5 195 194 968 902 204 307
11 968 969 788 315 314 970 924 923 922 903 902 345
8 656 881 300 299 971 972 973 657 98
11 657 973 975 976 697 699 977 978 979 912 658 551
5 949 980 853 852 927 296
4 912 979 957 913 522
4 975 981 982 976 501
6 946 963 983 984 967 947 527
6 982 740 570 572 697 976 552
7 972 817 737 736 981 975 973 101
5 905 939 993 994 906 450
4 972 971 818 817 655
4 979 978 958 957 521
9 817 818 298 297 813 819 820 738 737 103
8 736 737 738 739 698 571 570 740 553
6 429 409 408 999 236 235 147
7 837 945 1000 993 939 932 838 599
5 819 828 1001 1002 820 512
5 297 293 292 812 813 107
4 292 291 824 812 106
6 828 827 1003 1004 1005 1001 513
6 978 977 1006 960 959 958 493
7 813 812 824 823 827 828 819 104
5 194 193 646 969 968 308
4 984 983 1007 1008 471
12 823 290 289 56 55 743 1009 1010 1011 1012 1003 827 16
4 1010 765 764 1011 17
8 833 632 631 1017 1018 921 858 857 394
7 841 926 1019 555 554 831 842 354
7 962 1020 1021 1022 1007 983 963 472
4 753 1009 743 742 657
4 832 630 632 833 752
5 831 554 558 630 832 751
9 238 237 995 996 997 998 543 545 953 114
6 519 614 613 1023 1024 520 281
9 403 404 405 406 407 397 399 408 409 150
4 520 1024 940 521 278
4 646 645 788 969 311
6 999 777 780 995 237 236 115
11 960 1006 809 811 1014 1013 1025 1026 1020 962 961 556
6 1024 1023 1030 1031 941 940 279
9 294 295 296 288 293 297 298 299 300 109
6 682 598 438 404 403 683 155
4 953 545 295 294 110
4 894 1032 879 878 301
4 981 736 740 982 100
5 697 572 571 698 699 735
8 941 1031 622 621 1037 1038 1039 942 379
9 921 1018 1040 531 535 625 943 911 910 601
4 925 1041 1019 926 355
4 299 298 818 971 654
3 570 571 572 734
5 543 544 296 295 545 111
9 859 1043 1044 1045 1046 615 614 519 518 283
9 977 699 698 739 754 367 371 809 1006 554
11 399 398 611 938 1047 1048 1033 778 777 999 408 149
10 942 1039 1049 1050 472 471 1051 1032 894 893 380
5 1032 1051 359 362 879 300
5 630 558 557 631 632 753
3 1021 1052 1022 475
4 807 599 598 682 156
8 1026 1053 1016 1015 1054 1052 1021 1020 555
7 856 855 1055 1056 1057 1043 859 284
7 924 970 1058 1059 1060 1041 925 352
5 554 555 556 557 558 754
5 1041 1060 556 555 1019 353
3 1025 1053 1026 476
4 777 778 779 780 117
4 780 779 996 995 116
6 543 998 1042 282 287 544 113
4 1025 1013 1016 1053 477
8 1022 1052 1054 1061 985 990 1008 1007 474
5 944 1062 1063 1000 945 443
7 980 1064 1065 1066 1067 854 853 295
4 613 612 1030 1023 714
4 1030 612 622 1031 713
3 397 398 399 151
6 1000 1063 1072 1073 994 993 445
7 943 625 624 1074 1075 1062 944 600
4 854 1067 1055 855 287
4 1051 471 360 359 709
4 359 360 361 362 758
6 314 313 1076 1077 1058 970 346
3 1057 1044 1043 285
5 407 610 611 398 397 152
13 612 613 614 615 616 617 618 619 561 565 620 621 622 625
4 1062 1075 1072 1063 444
5 1056 1078 1045 1044 1057 286
3 1038 1049 1039 381
4 1013 1014 1015 1016 557
4 1038 1037 1050 1049 382
5 1055 1067 1066 1078 1056 288
4 312 848 1076 313 347
4 1017 1079 1040 1018 397
10 361 360 471 472 473 474 475 476 310 309 759
4 1079 532 531 1040 703
4 535 534 624 625 749
8 1037 621 620 564 563 473 472 1050 378
4 848 847 1077 1076 348
4 406 794 610 407 153
5 1074 1085 1073 1072 1075 447
6 1066 1065 1086 1046 1045 1078 289
5 847 846 1059 1058 1077 351
5 296 544 287 286 288 112
5 1046 1086 1087 616 615 290
5 531 532 533 534 535 748
5 533 1085 1074 624 534 400
4 844 877 876 845 706
7 1065 1064 1089 685 684 1087 1086 294
6 619 1090 494 493 562 561 631
3 620 565 564 384
5 404 438 439 440 405 676
7 561 562 48 51 563 564 565 627
7 475 887 886 895 872 869 476 360
8 563 51 50 804 805 806 474 473 628
4 1087 684 617 616 722
4 684 685 618 617 723
7 475 474 806 1091 1092 885 887 363
5 685 1089 1090 619 618 292
4 440 794 406 405 677
5 885 1092 896 895 886 364
6 49 492 491 1093 804 50 629
4 1091 897 896 1092 365
5 806 805 898 897 1091 366
10 779 778 1033 1034 1035 701 700 1036 997 996 641
7 898 805 804 1093 826 825 899 376
4 874 873 901 915 367
4 916 915 901 900 369
5 919 802 801 1094 920 372
3 801 800 1094 373
7 1014 811 810 1095 1061 1054 1015 559
4 997 1036 1042 998 119
7 820 1002 1097 755 754 739 738 504
5 809 371 370 810 811 681
12 794 440 439 602 933 934 935 936 937 938 611 610 158
6 1061 1095 781 786 986 985 481
5 367 368 369 370 371 680
7 598 599 600 601 602 439 438 157
7 754 755 756 757 758 368 367 561
8 985 986 987 988 770 775 989 990 11
4 1048 1084 1034 1033 660
5 1036 700 283 282 1042 120
5 938 937 1081 1080 1047 160
4 1047 1080 1084 1048 661
8 282 283 284 285 263 266 286 287 121
9 288 286 266 265 289 290 291 292 293 122
8 810 370 369 767 1098 782 781 1095 560
5 786 785 1099 987 986 482
3 936 1081 937 161
7 700 701 702 703 704 284 283 125
4 1097 1100 756 755 505
5 758 766 767 369 368 562
10 781 782 733 732 783 772 771 784 785 786 565
9 495 497 954 956 1068 1070 600 599 807 640
3 757 766 758 497
5 1002 1001 1005 1100 1097 506
4 1099 1101 988 987 483
4 291 290 823 824 105
9 1080 1081 936 935 1082 1083 1035 1034 1084 162
4 785 784 1101 1099 484
13 756 1100 1005 1004 1029 1102 1103 1104 1105 1098 767 766 757 507
5 988 1101 784 771 770 485
9 1003 1012 1027 669 672 791 1028 1029 1004 15
4 1070 1071 601 600 168
4 775 774 830 989 467
6 1011 764 763 1096 1027 1012 18
5 1071 964 933 602 601 170
4 263 264 265 266 123
7 1098 1105 1106 1107 729 733 782 5
5 1009 753 752 765 1010 656
6 763 762 769 671 670 1096 686
7 1083 892 63 68 702 701 1035 145
6 770 771 772 773 774 775 564
7 934 966 1088 950 952 1082 935 164
5 933 964 965 966 934 171
5 284 704 992 829 285 739
4 285 829 264 263 738
6 1070 1068 1069 965 964 1071 172
10 264 829 992 597 585 57 52 56 289 265 50
9 1104 1108 1109 42 41 221 1110 1106 1105 574
3 1106 1110 1107 4
4 1029 1028 1111 1102 577
5 1068 956 955 974 1069 173
5 1110 221 225 729 1107 3
7 729 225 224 730 731 732 733 566
7 1082 952 890 524 525 892 1083 163
6 703 991 596 597 992 704 642
3 1102 1111 1103 576
5 783 793 792 773 772 688
10 966 965 1069 974 83 35 34 891 951 1088 167
3 954 955 956 638
7 1104 1103 1111 1028 791 790 1108 575
4 732 731 793 783 687
6 495 14 16 62 496 497 204
3 1088 951 950 165
5 950 951 891 890 952 166
7 954 497 496 82 83 974 955 639
6 702 68 23 22 991 703 144
9 773 792 21 20 10 13 17 830 774 567
7 221 41 40 222 223 224 225 571
8 672 671 769 36 43 789 790 791 578
4 790 789 1109 1108 682
4 496 62 61 82 177
5 82 61 29 35 83 176
5 596 28 27 585 597 127
6 585 27 26 586 58 57 52
9 34 33 653 652 44 47 524 890 891 178
6 525 46 45 64 63 892 179
4 991 22 28 596 643
4 43 42 1109 789 683
4 524 47 46 525 180
4 1027 1096 670 669 685
4 669 670 671 672 684
8 63 64 65 66 67 24 23 68 142
10 16 9 5 7 59 60 30 29 61 62 200
4 57 58 53 52 49
5 52 53 54 55 56 51
4 48 49 50 51 711
4 44 45 46 47 181
8 36 37 38 39 40 41 42 43 572
7 29 30 31 32 33 34 35 634
7 22 23 24 25 26 27 28 128
6 4 3 18 19 20 21 461
3 13 12 17 690
5 14 15 8 9 16 675
4 10 11 12 13 689
4 8 6 5 9 673
3 5 6 7 672
5 0 1 2 3 4 462
