ply
format ascii 1.0
comment Exported from MorphoGraphX 2.0.1-254
comment Cell Graph: each vertex is a cell, each edge a wall
element vertex 290
property int label
property float x
property float y
property float z
element edge 787
property uint source
property uint target
end_header
3784 0 0 0 
3785 0 0 0 
3786 0 0 0 
3787 0 0 0 
3788 0 0 0 
3789 0 0 0 
3790 0 0 0 
3791 0 0 0 
3792 0 0 0 
3793 0 0 0 
3794 0 0 0 
3795 0 0 0 
3798 0 0 0 
3799 0 0 0 
3802 0 0 0 
3806 0 0 0 
3808 0 0 0 
3809 0 0 0 
3810 0 0 0 
3811 0 0 0 
3813 0 0 0 
3817 0 0 0 
3818 0 0 0 
3819 0 0 0 
3820 0 0 0 
3821 0 0 0 
3822 0 0 0 
3824 0 0 0 
3825 0 0 0 
3826 0 0 0 
3827 0 0 0 
3828 0 0 0 
3829 0 0 0 
3830 0 0 0 
3831 0 0 0 
3832 0 0 0 
3833 0 0 0 
3834 0 0 0 
3835 0 0 0 
3836 0 0 0 
3837 0 0 0 
3838 0 0 0 
3841 0 0 0 
3842 0 0 0 
3843 0 0 0 
3844 0 0 0 
3847 0 0 0 
3849 0 0 0 
3850 0 0 0 
3851 0 0 0 
3852 0 0 0 
3853 0 0 0 
3854 0 0 0 
3855 0 0 0 
3856 0 0 0 
3857 0 0 0 
3858 0 0 0 
3859 0 0 0 
3860 0 0 0 
3861 0 0 0 
3862 0 0 0 
3863 0 0 0 
3865 0 0 0 
3866 0 0 0 
3867 0 0 0 
3868 0 0 0 
3869 0 0 0 
3870 0 0 0 
3871 0 0 0 
3872 0 0 0 
3873 0 0 0 
3874 0 0 0 
3875 0 0 0 
3876 0 0 0 
3877 0 0 0 
3878 0 0 0 
3879 0 0 0 
3880 0 0 0 
3881 0 0 0 
3882 0 0 0 
3883 0 0 0 
3884 0 0 0 
3885 0 0 0 
3886 0 0 0 
3887 0 0 0 
3888 0 0 0 
3889 0 0 0 
3891 0 0 0 
3892 0 0 0 
3893 0 0 0 
3895 0 0 0 
3896 0 0 0 
3897 0 0 0 
3898 0 0 0 
3899 0 0 0 
3900 0 0 0 
3901 0 0 0 
3902 0 0 0 
3903 0 0 0 
3904 0 0 0 
3905 0 0 0 
3907 0 0 0 
3909 0 0 0 
3910 0 0 0 
3911 0 0 0 
3912 0 0 0 
3913 0 0 0 
3914 0 0 0 
3915 0 0 0 
3916 0 0 0 
3917 0 0 0 
3918 0 0 0 
3927 0 0 0 
3928 0 0 0 
3929 0 0 0 
3930 0 0 0 
3931 0 0 0 
3937 0 0 0 
3938 0 0 0 
3939 0 0 0 
3940 0 0 0 
3941 0 0 0 
3942 0 0 0 
3943 0 0 0 
3944 0 0 0 
3945 0 0 0 
3946 0 0 0 
3947 0 0 0 
3948 0 0 0 
3949 0 0 0 
3954 0 0 0 
3958 0 0 0 
3959 0 0 0 
3961 0 0 0 
3962 0 0 0 
3966 0 0 0 
3973 0 0 0 
3975 0 0 0 
3976 0 0 0 
3977 0 0 0 
3978 0 0 0 
3979 0 0 0 
3980 0 0 0 
3981 0 0 0 
3982 0 0 0 
3984 0 0 0 
3985 0 0 0 
3986 0 0 0 
3987 0 0 0 
3988 0 0 0 
3989 0 0 0 
3990 0 0 0 
3991 0 0 0 
3992 0 0 0 
3993 0 0 0 
3994 0 0 0 
3995 0 0 0 
3996 0 0 0 
3997 0 0 0 
3998 0 0 0 
3999 0 0 0 
4000 0 0 0 
4001 0 0 0 
4002 0 0 0 
4003 0 0 0 
4004 0 0 0 
4005 0 0 0 
4006 0 0 0 
4007 0 0 0 
4008 0 0 0 
4009 0 0 0 
4010 0 0 0 
4011 0 0 0 
4012 0 0 0 
4013 0 0 0 
4014 0 0 0 
4015 0 0 0 
4016 0 0 0 
4017 0 0 0 
4019 0 0 0 
4028 0 0 0 
4029 0 0 0 
4030 0 0 0 
4031 0 0 0 
4042 0 0 0 
4043 0 0 0 
4044 0 0 0 
4045 0 0 0 
4046 0 0 0 
4047 0 0 0 
4048 0 0 0 
4049 0 0 0 
4050 0 0 0 
4051 0 0 0 
4052 0 0 0 
4053 0 0 0 
4065 0 0 0 
4082 0 0 0 
4083 0 0 0 
4084 0 0 0 
4085 0 0 0 
4086 0 0 0 
4087 0 0 0 
4088 0 0 0 
4098 0 0 0 
4099 0 0 0 
4100 0 0 0 
4101 0 0 0 
4103 0 0 0 
4105 0 0 0 
4109 0 0 0 
4110 0 0 0 
4125 0 0 0 
4127 0 0 0 
4136 0 0 0 
4137 0 0 0 
4139 0 0 0 
4158 0 0 0 
4160 0 0 0 
4169 0 0 0 
4170 0 0 0 
4172 0 0 0 
4179 0 0 0 
4198 0 0 0 
4199 0 0 0 
4200 0 0 0 
4202 0 0 0 
4203 0 0 0 
4204 0 0 0 
4205 0 0 0 
4206 0 0 0 
4207 0 0 0 
4210 0 0 0 
4211 0 0 0 
4213 0 0 0 
4219 0 0 0 
4222 0 0 0 
4223 0 0 0 
4224 0 0 0 
4226 0 0 0 
4227 0 0 0 
4228 0 0 0 
4229 0 0 0 
4230 0 0 0 
4231 0 0 0 
4232 0 0 0 
4233 0 0 0 
4234 0 0 0 
4257 0 0 0 
4258 0 0 0 
4259 0 0 0 
4260 0 0 0 
4262 0 0 0 
4263 0 0 0 
4264 0 0 0 
4265 0 0 0 
4266 0 0 0 
4267 0 0 0 
4268 0 0 0 
4269 0 0 0 
4271 0 0 0 
4272 0 0 0 
4293 0 0 0 
4294 0 0 0 
4295 0 0 0 
4304 0 0 0 
4306 0 0 0 
4307 0 0 0 
4308 0 0 0 
4309 0 0 0 
4310 0 0 0 
4312 0 0 0 
4313 0 0 0 
4316 0 0 0 
4317 0 0 0 
4333 0 0 0 
4340 0 0 0 
4342 0 0 0 
4344 0 0 0 
4345 0 0 0 
4346 0 0 0 
4347 0 0 0 
14287 0 0 0 
14289 0 0 0 
14290 0 0 0 
14291 0 0 0 
14292 0 0 0 
14293 0 0 0 
14296 0 0 0 
14298 0 0 0 
3784 3785
3784 3793
3784 3794
3784 3795
3785 3786
3785 3787
3785 3792
3785 3793
3786 3787
3786 3788
3787 3788
3787 3789
3787 3790
3787 3791
3787 3792
3788 3789
3788 3811
3789 3790
3789 3808
3789 3809
3789 3810
3789 3811
3790 3791
3790 3808
3790 4258
3790 4259
3791 3792
3791 3802
3791 4259
3792 3793
3792 3802
3793 3794
3793 3802
3793 4200
3794 3795
3794 3799
3794 4200
3795 3798
3795 3799
3795 4342
3798 3799
3798 4262
3798 4263
3798 4342
3799 4200
3799 4263
3802 4199
3802 4200
3802 4259
3806 3829
3806 3830
3806 4198
3806 4257
3806 4258
3806 4259
3808 3809
3808 3817
3808 3818
3808 4257
3808 4258
3809 3810
3809 3817
3809 4346
3809 4347
3810 3811
3810 4347
3811 4345
3811 4347
3813 3876
3813 4345
3817 3818
3817 3819
3817 3820
3817 3821
3817 4346
3818 3819
3818 3837
3818 4257
3819 3820
3819 3837
3819 3838
3820 3821
3820 3838
3820 4203
3820 4204
3821 3822
3821 3841
3821 3842
3821 4204
3821 4346
3822 3824
3822 3828
3822 3842
3822 4344
3822 4346
3824 3825
3824 3826
3824 3828
3824 4344
3824 4345
3825 3826
3825 3873
3825 3875
3825 3876
3825 4345
3826 3827
3826 3828
3826 3873
3826 3874
3827 3828
3827 3870
3827 3871
3827 3874
3828 3842
3828 3870
3829 3830
3829 3834
3829 3835
3829 3837
3829 4257
3830 3831
3830 3833
3830 3834
3830 4198
3831 3832
3831 3833
3831 4198
3831 4199
3831 4200
3832 3833
3832 3843
3832 3844
3832 4200
3832 4263
3833 3834
3833 3843
3833 3851
3833 3852
3834 3835
3834 3852
3834 3853
3834 3854
3835 3836
3835 3837
3835 3854
3835 3858
3836 3837
3836 3838
3836 3858
3836 3859
3836 3861
3837 3838
3837 4257
3838 3861
3838 4203
3841 3842
3841 3863
3841 3870
3841 4204
3842 3870
3843 3844
3843 3850
3843 3851
3844 3850
3844 4260
3844 4263
3847 4262
3847 4333
3847 4342
3849 3850
3849 4016
3849 4017
3849 4260
3849 4333
3850 3851
3850 4015
3850 4016
3850 4260
3851 3852
3851 3853
3851 3857
3851 4015
3852 3853
3853 3854
3853 3855
3853 3856
3853 3857
3854 3855
3854 3858
3854 4008
3855 3856
3855 4007
3855 4008
3855 4009
3855 4010
3855 4012
3856 3857
3856 4009
3856 4013
3857 4013
3857 4014
3857 4015
3858 3859
3858 3999
3858 4008
3859 3860
3859 3861
3859 3998
3859 3999
3860 3861
3860 3862
3860 3996
3860 3997
3860 3998
3861 3862
3861 4203
3862 3992
3862 3996
3862 4202
3862 4203
3863 3865
3863 3870
3863 4202
3863 4203
3863 4204
3865 3866
3865 3867
3865 3868
3865 3869
3865 3870
3865 4202
3866 3867
3866 3989
3866 3991
3866 3992
3866 4202
3867 3868
3867 3989
3867 3990
3867 14298
3868 3869
3868 3872
3868 3885
3868 14298
3869 3870
3869 3871
3869 3872
3870 3871
3871 3872
3871 3874
3872 3874
3872 3879
3872 3884
3872 3885
3873 3874
3873 3875
3873 3878
3873 3879
3874 3879
3875 3876
3875 3877
3875 3878
3876 4345
3877 3878
3877 3880
3877 3881
3878 3879
3878 3880
3879 3880
3879 3882
3879 3883
3879 3884
3880 3881
3880 3882
3881 3882
3881 3887
3881 3888
3882 3883
3882 3886
3882 3887
3883 3884
3883 3885
3883 3886
3883 3892
3883 3893
3884 3885
3885 3893
3885 14298
3886 3887
3886 3889
3886 3892
3887 3888
3887 3889
3888 3889
3888 3891
3888 3902
3889 3891
3889 3892
3889 3899
3891 3899
3891 3900
3891 3901
3891 3902
3891 14296
3892 3893
3892 3898
3892 3899
3893 3896
3893 3898
3893 14298
3895 3896
3895 3897
3895 3913
3895 3914
3895 3990
3895 14298
3896 3897
3896 3898
3896 14298
3897 3898
3897 3899
3897 3911
3897 3912
3897 3913
3898 3899
3899 3900
3899 3904
3899 3911
3900 3904
3900 3905
3900 14296
3901 3902
3901 3903
3901 3907
3901 4265
3901 14296
3902 3903
3903 4264
3903 4265
3904 3905
3904 3910
3904 3911
3905 3907
3905 3910
3905 3918
3905 14296
3907 3909
3907 3918
3907 4206
3907 4265
3907 14296
3909 4206
3909 4265
3909 4266
3909 14293
3910 3911
3910 3912
3910 3916
3910 3917
3910 3918
3911 3912
3912 3913
3912 3915
3912 3916
3913 3914
3913 3915
3914 3915
3914 3941
3914 3942
3914 3943
3914 3990
3915 3916
3915 3939
3915 3940
3915 3941
3916 3917
3916 3938
3916 3940
3917 3918
3917 3927
3917 3938
3918 3927
3918 4206
3927 3928
3927 3938
3927 4205
3927 4206
3928 3929
3928 3930
3928 3938
3928 4205
3929 3930
3929 3931
3929 3938
3930 3931
3930 3958
3930 3961
3930 3962
3930 4205
3931 3958
3937 3938
3937 3939
3937 3940
3937 3946
3937 3948
3938 3940
3939 3940
3939 3941
3939 3946
3941 3942
3941 3944
3941 3945
3941 3946
3942 3943
3942 3944
3943 3944
3943 3984
3943 3986
3943 3989
3943 3990
3944 3945
3944 3977
3944 3984
3945 3946
3945 3947
3945 3976
3945 3977
3946 3947
3946 3948
3947 3948
3947 3949
3947 3975
3947 3976
3948 3949
3949 3975
3954 3973
3954 3975
3954 4210
3958 3959
3958 3961
3958 3966
3959 3961
3959 3966
3959 14292
3961 3962
3961 14292
3962 4205
3962 4207
3962 14292
3966 14290
3966 14292
3973 4210
3973 4211
3975 3976
3975 3981
3975 4210
3976 3977
3976 3980
3976 3981
3977 3978
3977 3979
3977 3980
3977 3984
3977 4086
3978 3979
3978 4086
3978 4109
3978 4223
3979 3980
3979 3982
3979 4223
3979 4226
3980 3981
3980 3982
3981 3982
3981 4210
3981 4213
3982 4213
3982 4224
3982 4226
3984 3985
3984 3986
3984 4086
3985 3986
3985 3987
3985 3995
3985 4086
3986 3987
3986 3988
3986 3989
3987 3988
3987 3993
3987 3994
3987 3995
3988 3989
3988 3991
3988 3992
3988 3993
3989 3990
3989 3991
3990 14298
3991 3992
3992 3993
3992 3996
3992 4202
3993 3994
3993 3996
3993 4001
3994 3995
3994 4001
3994 4002
3994 4084
3994 4085
3995 4085
3995 4086
3996 3997
3996 4001
3997 3998
3997 4000
3997 4001
3997 4002
3997 4003
3998 3999
3998 4000
3999 4000
3999 4006
3999 4008
4000 4003
4000 4004
4000 4006
4001 4002
4002 4003
4002 4083
4002 4084
4003 4004
4003 4082
4003 4083
4004 4005
4004 4006
4004 4047
4004 4082
4005 4006
4005 4007
4005 4010
4005 4047
4006 4007
4006 4008
4007 4008
4007 4010
4009 4012
4009 4013
4010 4011
4010 4012
4010 4045
4010 4046
4010 4047
4011 4012
4011 4029
4011 4044
4011 4045
4012 4013
4012 4029
4013 4014
4013 4028
4013 4029
4014 4015
4014 4028
4015 4016
4015 4019
4016 4017
4016 4019
4017 4019
4017 4065
4017 4333
4017 4340
4028 4029
4028 4030
4028 4031
4029 4030
4029 4044
4030 4031
4030 4042
4030 4043
4030 4044
4031 4042
4042 4043
4042 4048
4042 4049
4043 4044
4043 4049
4043 4050
4043 4101
4043 4160
4044 4045
4044 4101
4045 4046
4045 4100
4045 4101
4046 4047
4046 4099
4046 4100
4047 4082
4047 4098
4047 4099
4048 4049
4048 4051
4048 4052
4048 4053
4049 4050
4049 4051
4050 4051
4050 4158
4050 4160
4050 4272
4051 4052
4051 4137
4051 4158
4051 4234
4052 4053
4052 4137
4052 14287
4065 4333
4065 4340
4082 4083
4082 4088
4082 4098
4083 4084
4083 4087
4083 4088
4084 4085
4084 4087
4085 4086
4087 4088
4087 4227
4088 4098
4088 4227
4098 4099
4098 4103
4098 4227
4099 4100
4099 4103
4099 4271
4100 4101
4100 4271
4101 4160
4101 4271
4101 4272
4103 4105
4103 4227
4103 4228
4103 4233
4103 4271
4105 4228
4105 4229
4105 4233
4109 4110
4109 4223
4110 4125
4110 4127
4110 4223
4125 4127
4125 4222
4125 4223
4136 4137
4136 4139
4136 4234
4136 14287
4137 4234
4137 14287
4139 4234
4139 14289
4158 4170
4158 4232
4158 4234
4158 4272
4160 4272
4169 4170
4169 4172
4169 4230
4169 4308
4169 4312
4169 14289
4170 4230
4170 4232
4170 4234
4170 14289
4172 4308
4172 4313
4172 14289
4179 4228
4179 4229
4179 4293
4179 4309
4198 4199
4198 4259
4199 4200
4199 4259
4200 4263
4202 4203
4203 4204
4205 4206
4205 4207
4206 4207
4206 14293
4207 4267
4207 4269
4207 14291
4207 14292
4207 14293
4210 4211
4210 4213
4213 4219
4213 4224
4219 4224
4222 4223
4222 4224
4222 4226
4223 4226
4224 4226
4227 4228
4228 4229
4229 4233
4229 4309
4230 4231
4230 4232
4230 4304
4230 4312
4231 4232
4231 4233
4231 4271
4231 4272
4231 4304
4232 4272
4233 4271
4233 4304
4233 4309
4233 4310
4234 14289
4257 4258
4258 4259
4260 4262
4260 4263
4260 4333
4262 4263
4262 4333
4262 4342
4264 4265
4264 4266
4265 4266
4266 4268
4266 14293
4267 4268
4267 4269
4267 14293
4268 14293
4269 14291
4271 4272
4293 4294
4293 4309
4293 4310
4294 4295
4294 4310
4295 4304
4295 4310
4304 4310
4304 4312
4306 4307
4306 4308
4306 4312
4306 4317
4307 4308
4307 4313
4307 4316
4307 4317
4308 4312
4308 4313
4309 4310
4313 4316
4316 4317
4344 4345
4344 4346
4344 4347
4345 4347
4346 4347
14290 14291
14290 14292
14291 14292
