ply
format ascii 1.0
comment Exported from MorphoGraphX 2.0 1-254
comment Cellular mesh
element vertex 580
property float x
property float y
property float z
property float signal
element face 291
property list int int vertex_index
property int label
end_header
-385.361 -363.494 19.4955 2020.27
-370.567 -369.934 19.4955 2070.56
-358.502 -347.885 19.4955 2075.13
-354.525 -342.674 19.4955 1325.24
-372.892 -327.275 19.4955 2156.51
-384.728 -346.627 19.4955 1865.76
-373.697 -399.314 19.4955 2045.85
-370.369 -387.267 19.4955 1835.66
-394.942 -372.674 19.4955 1828.94
-395.353 -379.72 19.4955 2117.05
-337.275 -311.642 19.4955 1658.13
-339.418 -306.098 19.4955 1516.54
-362.058 -303.709 19.4955 1936.56
-380.99 -214.724 19.4955 2216.58
-371.743 -191.427 19.4955 1975.22
-369.31 -184.31 19.4955 1743.27
-394.115 -172.881 19.4955 2130.96
-401.417 -189.318 19.4955 2080.34
-407.881 -209.115 19.4955 2098.57
-413.015 -300.116 19.4955 1992.16
-405.353 -319.72 19.4955 1854.58
-394.938 -323.287 19.4955 1798.57
-385.567 -289.517 19.4955 1974.33
-382.889 -281.639 19.4955 1771.04
-399.007 -260.676 19.4955 2016.52
-409.732 -267.264 19.4955 2022.45
-409.103 -284.72 19.4955 2005.03
-405.357 -340.357 19.4955 1741.4
-381.002 -426.635 19.4955 2572.75
-373.502 -402.885 19.4955 2137.28
-408.498 -383.498 19.4955 2119.45
-411.006 -97.2714 19.4955 1937.67
-394.716 -119.716 19.4955 1666.94
-384.732 -92.2635 19.4955 1782.59
-397.267 -64.1188 19.4955 1895.21
-410.567 -74.9337 19.4955 1471.79
-418.9 -349.934 19.4955 1991.92
-414.938 -366.203 19.4955 2086.05
80.0623 63.7965 19.4955 1214.27
83.9983 52.1154 19.4955 1103.51
105.276 29.0101 19.4955 788.613
113.373 65.272 19.4955 1292.13
82.7247 87.1075 19.4955 1020.87
-371.211 -243.295 19.4955 2064.33
-390.574 -233.291 19.4955 1940.63
-356.002 -242.885 19.4955 1553.23
-342.267 -205.369 19.4955 1571.64
-356.639 -291.639 19.4955 2177.12
-208.498 -388.498 19.4955 1786.43
-201.006 -407.271 19.4955 1717.2
-187.275 -396.642 19.4955 1647.53
-177.681 -381.215 19.4955 1709.32
-189.72 -369.103 19.4955 1796.35
-505.353 -74.7202 19.4955 2048.44
-501.642 -72.2753 19.4955 1495.38
-501.006 -42.2714 19.4955 1441.23
-500.369 -32.2675 19.4955 1664.39
-221.639 -87.8885 19.4955 1766.02
-210.466 -88.6989 19.4955 2058.54
-198.697 -59.314 19.4955 2294.46
-204.942 -41.8403 19.4955 2154.2
-228.084 -74.3179 19.4955 1852.99
-497.275 -162.892 19.4955 2058.78
-486.627 -134.728 19.4955 1854.44
-488.697 -95.1473 19.4955 1469.93
135.276 51.5101 19.4955 1033.93
129.639 71.5062 19.4955 1265.09
94.0023 11.5023 19.4955 775.196
107.111 -6.63851 19.4955 984.469
-254.115 -482.881 19.4955 2185.94
-251.635 -473.502 19.4955 2248.64
-254.724 -470.99 19.4955 2245.38
-277.271 -461.006 19.4955 2032.79
-296.627 -454.728 19.4955 2014.13
-301.006 -467.271 19.4955 1867.26
-76.6306 60.8851 19.4955 1566
-92.4705 49.8448 19.4955 1916.64
-78.5017 18.3654 19.4955 1522.71
-66.6385 22.1115 19.4955 1519.18
-56.0017 38.3654 19.4955 1756.68
-247.279 -387.279 19.4955 2074.07
-255.99 -374.724 19.4955 2122.78
-274.107 -364.107 19.4955 1940.53
-284.716 -384.716 19.4955 1759.99
-305.365 -397.881 19.4955 1844.89
-292.681 -416.215 19.4955 1771.19
-269.115 -396.631 19.4955 2334.83
-263.494 -415.361 19.4955 1850.12
-263.299 -426.848 19.4955 1897.75
-238.494 -424.111 19.4955 1882.37
-219.732 -417.264 19.4955 2010.05
-226.386 -388.636 19.4955 2015
-245.998 -438.498 19.4955 1682.46
-228.287 -444.938 19.4955 1603.14
-217.681 -443.299 19.4955 1345.1
-199.46 -433.051 19.4955 1407.84
-234.119 97.7325 19.4955 1598.72
-253.908 86.7093 19.4955 2084.07
-257.881 80.8851 19.4955 2183.83
-245.151 48.583 19.4955 1380.49
-233.808 48.4735 19.4955 1628.81
-219.115 72.1194 19.4955 2051.15
-211.639 88.3615 19.4955 1848.26
-269.107 -454.107 19.4955 1825.26
-283.701 -428.701 19.4955 1822.11
-230.998 31.5023 19.4955 1396.53
-209.525 17.3264 19.4955 1567.85
-198.49 30.2759 19.4955 1982.02
-203.287 65.0623 19.4955 2014.61
-307.264 -364.732 19.4955 2013.29
-260.998 -355.998 19.4955 2133.66
-271.215 -341.848 19.4955 2013.2
-285.357 -329.107 19.4955 1993.48
-293.49 -349.724 19.4955 1537.92
-380.788 123.579 19.4955 1135.43
-363.49 105.276 19.4955 1489.09
-343.088 121.295 19.4955 1569.69
-337.275 132.108 19.4955 1153.54
-348.084 150.682 19.4955 1263.05
-218.705 -258.088 19.4955 1293.82
-199.119 -277.267 19.4955 1717.96
-174.517 -258.9 19.4955 1872.17
-179.119 -247.267 19.4955 1769.52
-204.119 -232.267 19.4955 1155.49
-210.25 -244.834 19.4955 1471.63
-218.295 -306.211 19.4955 2031.04
-226.639 -321.639 19.4955 2205.34
-218.908 -331.207 19.4955 1953.5
-194.72 -329.103 19.4955 2384.18
-189.732 -312.264 19.4955 2108.24
-175.78 -299.314 19.4955 1605.17
-201.639 -282.889 19.4955 1908.23
-94.7241 91.5101 19.4955 1539.44
-82.2635 100.268 19.4955 1363.69
-106.006 122.729 19.4955 1450.6
-125.998 114.002 19.4955 906.657
-143.498 106.502 19.4955 1805.41
-124.115 78.3694 19.4955 1574.7
94.8527 -105.78 19.4955 1188.3
119.635 -111.631 19.4955 1483.81
132.115 -91.0017 19.4955 1220.15
132.108 -82.2753 19.4955 1258.67
97.9382 -66.4289 19.4955 1009.44
91.4944 -77.2714 19.4955 1198.46
88.3654 -86.0017 19.4955 1237.77
-46.6385 -327.889 19.4955 1761.01
-52.8806 -340.365 19.4955 2225.82
-33.5056 -357.271 19.4955 1538.12
-15.357 -359.107 19.4955 1762.14
19.0023 -323.498 19.4955 995.017
9.01013 -309.724 19.4955 1233.6
-22.8885 -316.639 19.4955 1434.27
-65.1513 -121.417 19.4955 1685.88
-41.6346 -133.502 19.4955 1844.28
-40.922 -109.281 19.4955 1747.76
-33.805 -91.1019 19.4955 1643.73
-75.3649 -77.8806 19.4955 1734.91
-91.6385 -91.6385 19.4955 1692.07
80.2759 -0.989865 19.4955 762.76
55.6899 20.6899 19.4955 764.3
-175.361 -485.994 19.4955 2196.85
-137.267 -480.369 19.4955 1702.15
-129.724 -468.49 19.4955 1465.77
-144.72 -460.353 19.4955 2186.76
-159.732 -457.264 19.4955 2017.98
-191.631 -480.365 19.4955 2190.76
182.111 -176.639 19.4955 1201.77
178.361 -157.889 19.4955 1757.55
145.276 -153.49 19.4955 1074.73
139.635 -166.631 19.4955 1710.86
130.276 -185.99 19.4955 1510.17
160.284 -194.716 19.4955 1202.99
-62.6815 -246.215 19.4955 1928.35
-52.2753 -216.642 19.4955 1699.48
-38.4977 -188.498 19.4955 2035.36
-64.1188 -187.267 19.4955 1948.58
-83.5056 -232.271 19.4955 1901.74
-395.365 103.369 19.4955 1457.57
-345.574 161.709 19.4955 1258.36
-355.782 169.534 19.4955 1187.72
-388.498 141.502 19.4955 1291.1
-403.502 112.115 19.4955 1282.58
14.647 -269.72 19.4955 1435.07
18.3575 -247.275 19.4955 1462.81
-2.47448 -233.709 19.4955 1636.19
-11.6306 -244.115 19.4955 1630.03
-29.7241 -273.49 19.4955 2417.62
-45.792 -287.058 19.4955 2236.59
-29.732 -302.264 19.4955 1962.82
25.475 -286.84 19.4955 1569.92
-446.635 11.4983 19.4955 584.692
-430.998 36.5023 19.4955 1177.84
-449.103 40.2798 19.4955 1315.3
-460.998 44.0023 19.4955 1038.07
-474.828 19.434 19.4955 850.434
-471.627 5.27196 19.4955 857.85
182.736 -9.73198 19.4955 893.699
215.272 -16.6267 19.4955 643.708
226.502 -0.997748 19.4955 704.614
234.635 17.1194 19.4955 874.456
200.272 28.3733 19.4955 1105.31
184.849 3.58296 19.4955 901.513
160.885 -126.631 19.4955 1372.22
166.599 -106.848 19.4955 1233.97
152.123 -99.728 19.4955 1524.1
112.733 -159.119 19.4955 1689.63
115.885 -166.631 19.4955 1682.77
-221.642 -472.275 19.4955 2037.35
-180.369 -447.267 19.4955 2007.75
-194.728 -457.877 19.4955 1743.48
-187.877 -214.728 19.4955 1538.36
-174.942 -186.84 19.4955 2135.41
-157.885 -153.502 19.4955 2105.7
-164.732 -142.264 19.4955 1514.05
-201.635 -181.002 19.4955 2013.27
-209.72 -195.353 19.4955 1686.64
-320.99 -449.724 19.4955 2107.93
-318.494 -435.361 19.4955 2072.85
-333.49 -434.724 19.4955 2131.72
-351.635 -428.502 19.4955 2348.97
-335.986 -454.725 19.4939 2279.69
30.2759 -175.99 19.4955 1313.36
44.643 -139.107 19.4955 1613.81
51.9084 -123.092 19.4955 1284.33
30.893 -119.107 19.4955 1476.42
-4.7241 -165.99 19.4955 1259.13
0.48292 -173.9 19.4955 1373.58
197.725 -57.8925 19.4955 957.98
208.361 -32.8885 19.4955 1077.17
172.729 -28.5056 19.4955 1053.05
169.492 -37.6431 19.4955 925.768
-376.627 -89.728 19.4955 1650.1
-355.357 -69.107 19.4955 1714.03
-350.361 -58.4938 19.4955 1453.9
-369.103 -39.7202 19.4955 1556.23
41.9117 -0.894239 19.4955 637.264
34.6391 -13.4938 19.4955 646.17
66.0882 -32.6776 19.4955 631.225
-88.0877 74.2119 19.4955 1784.27
-146.639 68.3615 19.4955 1531.77
-132.892 47.7247 19.4955 1654.54
-488.908 16.7093 19.4955 1263.13
-480.361 -25.9938 19.4955 1047.16
-35.1552 -232.054 19.4955 2173.6
-55.5706 -260.571 19.4955 1993.52
-457.889 67.1115 19.4955 1167.72
-347.881 185.885 19.4955 1213.21
-402.889 148.361 19.4955 1133.94
8.36149 -217.889 19.4955 1563.51
19.6391 -195.994 19.4955 1425.01
-18.5056 -202.271 19.4955 1891.43
-81.6385 -281.639 19.4955 2109.83
-62.2675 -295.369 19.4955 2214.49
-311.635 -433.502 19.4955 2001.45
62.5295 -144.322 19.4955 1464.33
36.9123 -210.788 19.4955 1148.29
45.6781 -207.054 19.4955 1380.7
68.579 -58.7048 19.4955 1203.54
106.51 -14.7241 19.4955 643.943
47.5255 -40.792 19.4955 979.468
47.5295 -50.1552 19.4955 1093.55
-159.942 13.1597 19.4955 1505.83
-132.474 34.208 19.4955 1618.75
-165.147 51.3031 19.4955 1417.28
-189.115 33.3694 19.4955 1671.99
-128.49 -194.724 19.4955 1593.66
-130.365 -221.631 19.4955 2072.22
-147.267 -234.119 19.4955 1525.05
-110.571 -245.571 19.4955 1545.97
-99.1149 -221.631 19.4955 2109.17
-91.8403 -194.525 19.4955 1827.07
77.1194 -99.1149 19.4955 1826.98
35.893 -75.357 19.4955 1194.51
39.8487 -86.417 19.4955 996.22
-156.277 -195.327 19.4955 2014.71
-134.716 -179.716 19.4955 2259.68
-119.216 -156.418 19.4955 1901.19
-126.108 -147.366 19.4955 1619.42
-135.369 -142.267 19.4955 2393.28
-331.627 -369.728 19.4955 2048.01
-311.954 -348.401 19.4955 1513.12
-312.993 -337.062 19.4955 1455.55
-335.357 -334.107 19.4955 1582.8
-343.907 -351.101 19.4955 1798.69
-348.299 -362.681 19.4955 1978.48
2.11543 -131.002 19.4955 1231.56
-20.353 -114.72 19.4955 1533.57
-47.5826 -146.747 19.4955 2128.79
-24.728 -161.627 19.4955 1837.43
-15.5706 -158.904 19.4955 1321.17
152.729 26.4944 19.4955 1121.47
145.889 51.5062 19.4955 980.161
129.647 -24.7202 19.4955 799.939
137.119 -10.3649 19.4955 953.574
-243.49 -184.724 19.4955 1317.44
-235.365 -157.881 19.4955 1333.5
-260.155 -152.054 19.4955 1567.24
-285.353 -159.72 19.4955 1737.86
-181.211 73.7887 19.4955 1226.3
-74.107 -310.357 19.4955 1838.8
-89.1109 -275.994 19.4955 1815.84
-114.724 -300.99 19.4955 1631.54
-109.724 -313.49 19.4955 2033.57
-86.417 -315.151 19.4955 2215.42
196.912 -128.705 19.4955 1585.73
204.643 -114.107 19.4955 1203.99
210.058 -81.8403 19.4955 1282.89
186.502 -75.9977 19.4955 1269.11
174.957 -81.098 19.4955 910.148
-217.058 -13.7087 19.4955 1827.76
-186.421 -23.7048 19.4955 1520.82
-178.701 -5.78416 19.4955 1941.57
-226.848 1.70139 19.4955 1189.82
10.2798 -69.103 19.4955 879.729
-2.26746 -59.1188 19.4955 510.413
-22.6736 -74.9416 19.4955 1151.88
-316.635 -301.002 19.4955 1276.4
-296.002 -311.635 19.4955 1469.71
-292.275 -307.892 19.4955 1447.7
-278.502 -281.635 19.4955 1811.89
-302.275 -276.642 19.4955 1402.46
-253.506 -37.2714 19.4955 1481
-267.889 -51.6385 19.4955 1858.48
-261.639 -67.8885 19.4955 1517.22
-249.72 -70.353 19.4955 1512.94
-318.084 -315.151 19.4955 1375.28
18.9944 -107.271 19.4955 987.952
-76.6306 65.8851 19.4955 1063.16
-118.494 24.6391 19.4955 1867.58
-319.728 153.373 19.4955 1207.26
-301.006 157.729 19.4955 1391.98
-279.619 -119.514 19.4955 1267.29
-245.361 -78.4938 19.4955 1602.18
-300.369 -97.2675 19.4955 1642.52
-310.998 -110.998 19.4955 1548.85
-294.728 -121.627 19.4955 1314.15
-159.619 -434.93 19.4955 1638.39
-151.635 -426.002 19.4955 2040.82
-167.279 -412.279 19.4955 2149
-177.469 -409.837 19.4955 1824.89
-71.6346 -171.002 19.4955 2155.22
-85.9899 -164.724 19.4955 1820.76
-122.881 -445.365 19.4955 1679.92
-114.107 -439.107 19.4955 1190.86
-101.642 -422.275 19.4955 1723.83
-101.635 -421.002 19.4955 1772.41
-126.639 -407.889 19.4955 1955.44
-74.1109 -468.494 19.4955 1103.32
-87.1705 -451.854 19.4955 1232.73
-96.6425 -457.275 19.4955 1092.59
-167.881 -64.1149 19.4955 2088.46
-156.627 -74.728 19.4955 1819.69
-110.998 -33.4977 19.4955 1583.95
-152.892 -37.2753 19.4955 2204.34
-171.281 -55.9641 19.4955 2290.72
-57.2675 -55.3688 19.4955 1513.6
-71.4249 -63.0916 19.4955 1379.41
-133.697 -384.314 19.4955 2309.33
-156.203 -364.938 19.4955 2132.88
-360.357 -420.357 19.4955 2372.2
-348.494 -414.111 19.4955 2275.57
-343.705 -408.088 19.4955 1560.66
-352.643 -395.508 19.4955 1665.42
-364.039 -384.141 19.4955 1707.43
-230.998 -303.498 19.4955 2002.09
-9.11881 -432.267 19.4955 891.988
-16.2113 -413.295 19.4955 865.608
-27.8885 -401.639 19.4955 1353.46
-40.9938 -419.111 19.4955 1695.43
-65.357 -429.107 19.4955 1363.84
-71.6385 -442.889 19.4955 1135.19
-53.8993 -454.828 19.4955 988.125
-340.365 92.1194 19.4955 1688.64
-357.889 72.1115 19.4955 1554.03
-342.275 42.1075 19.4955 1767.75
-327.275 43.3575 19.4955 2100.61
-317.889 57.1115 19.4955 1861.49
75.8812 -137.267 19.4955 1394.83
-66.421 -395.788 19.4955 1719.8
-84.728 -376.627 19.4955 1716.01
-108.494 -395.361 19.4955 1959.24
-152.267 -210.369 19.4955 1854.68
-76.8482 -363.299 19.4955 2086.08
-102.054 -350.155 19.4955 1605.67
-127.38 -382.585 19.4955 2231.36
-16.2074 -40.5745 19.4955 1118.85
-59.1188 -42.2675 19.4955 1296.16
-3.80368 -45.8896 19.4955 579.107
148.361 -57.8885 19.4955 1151.62
120.897 -39.7202 19.4955 1060.47
-205.147 156.303 19.4955 1379.11
-225.353 150.28 19.4955 1168.44
-247.885 116.498 19.4955 1713.86
-239.732 107.736 19.4955 1558
-46.0017 -376.635 19.4955 1850.65
-58.4977 -393.498 19.4955 1875.24
-24.1149 -392.881 19.4955 1519.56
-159.72 -129.103 19.4955 2219.49
-200.357 -124.107 19.4955 1769.37
-209.119 -147.267 19.4955 1712.94
-221.215 -157.681 19.4955 1601.97
-259.103 -199.72 19.4955 1336.55
-290.365 -177.881 19.4955 1567.98
-303.498 -203.498 19.4955 1566.74
-269.517 -218.9 19.4955 1147.95
-307.275 -207.892 19.4955 1722.99
-318.98 -227.643 19.4955 1490.57
-312.892 -247.275 19.4955 1325.7
-289.119 -252.267 19.4955 1258.19
-280.147 -240.78 19.4955 1220.95
-235.353 -374.72 19.4955 2020.54
-147.474 -105.792 19.4955 1502.56
-184.31 155.69 19.4955 1345.59
-100.353 -54.7202 19.4955 1848.9
-104.119 -37.2675 19.4955 1494.97
-136.006 -87.2714 19.4955 2160.74
-130.365 -86.6306 19.4955 1897.92
-434.111 -28.4938 19.4955 1023.16
-428.49 -14.7241 19.4955 1000.13
-452.984 -5.57648 19.4955 1123.36
-470.361 -38.4938 19.4955 1344.76
-469.119 -62.2675 19.4955 882.529
-465.994 -74.1109 19.4955 988.693
-452.877 -69.728 19.4955 1275.68
-245.369 -252.267 19.4955 1345.75
-241.417 -234.318 19.4955 1110.63
-246.844 -213.912 19.4955 1263.77
-253.49 5.2759 19.4955 1439.03
-267.271 -18.5056 19.4955 1676.73
-192.674 -99.9416 19.4955 1936.64
243.361 -41.6385 19.4955 1058.31
254.643 -14.107 19.4955 1082.9
-319.728 -67.8767 19.4955 1333.04
-310.361 -58.4938 19.4955 1948.48
-329.728 -37.8767 19.4955 1533.2
-342.271 -36.0056 19.4955 1847.48
-332.877 -79.728 19.4955 1578.31
-327.275 -422.892 19.4955 1410.31
-315.68 -408.394 19.4955 1536.54
-322.877 -394.728 19.4955 1446.91
-336.631 -405.365 19.4955 1671.09
71.4944 -247.271 19.4955 1460.5
63.3654 -238.502 19.4955 1611.97
54.1492 -254.349 19.4955 1286.07
54.6312 -262.267 19.4955 793.603
145.268 -67.2635 19.4955 1125.02
-475.99 -144.724 19.4955 1794.05
-466.321 -132.784 19.4955 1469.78
-265.998 -273.498 19.4955 1097.11
-60.887 85.3709 19.4955 1519.49
88.9983 -147.885 19.4955 1299.51
95.272 -157.877 19.4955 1889.13
241.494 42.7286 19.4955 1304.32
243.152 58.7847 19.4955 1548.44
215.885 63.3694 19.4955 1378.69
-166.457 91.3291 19.4955 1688.05
-86.6346 -266.002 19.4955 1722.41
-36.7433 -226.427 19.4955 2006.85
-118.709 7.52553 19.4955 1570.68
-135.357 -334.107 19.4955 2078.25
-106.006 -337.271 19.4955 2213.13
240.28 -74.103 19.4955 2096.73
-427.889 98.3615 19.4955 1406.33
-443.9 100.483 19.4955 1023.11
189.639 -140.994 19.4955 1312.31
-441.635 -283.502 19.4955 1792.67
-439.119 -312.267 19.4955 1909.9
-430.361 -320.994 19.4955 1758.84
-186.635 113.998 19.4955 1561.75
-167.267 130.881 19.4955 1879.61
-98.4899 -104.724 19.4955 1513.97
-312.271 -163.506 19.4955 1354.97
-253.701 -138.701 19.4955 1829.48
-337.478 -376.429 19.4955 1630.41
-138.188 -350.469 19.4955 2152.32
-164.214 -336.205 19.4955 2041.43
-187.271 -361.006 19.4955 2075.35
-155.369 -277.267 19.4955 1829.72
-147.889 -256.639 19.4955 1737.87
223.358 -152.275 19.4955 1686.66
-115.99 -254.724 19.4955 1580.56
72.0191 -215.046 19.4955 1541.2
72.4266 -190.261 19.4955 1591.99
140.885 87.1194 19.4955 810.918
-161.006 -322.271 19.4955 1895.11
-128.092 -297.989 19.4955 1708.17
-132.267 -284.119 19.4955 1470.46
-244.716 -119.716 19.4955 1042.24
228.571 -127.478 19.4955 1498.66
-422.877 -239.728 19.4955 2002.62
-438.502 -241.635 19.4955 2078.57
-440.361 -270.994 19.4955 1827.66
-426.006 142.729 19.4955 1011.43
-413.697 109.853 19.4955 989.544
25.8506 -236.701 19.4955 1470.66
272.111 33.3615 19.4955 1211.56
29.0023 -370.998 19.4955 1191.08
7.11149 -396.639 19.4955 1229.11
27.7247 -407.892 19.4955 961.856
-278.498 -318.498 19.4955 1915.74
-253.49 -294.724 19.4955 2163.69
-270.353 30.2798 19.4955 1455.37
-275.99 20.2759 19.4955 1616.67
-159.517 -20.5666 19.4955 2180.09
-201.631 -345.365 19.4955 2051.39
-33.5056 67.7286 19.4955 1330.15
-338.49 -194.724 19.4955 1538.28
-339.938 -251.203 19.4955 1448.12
14.8566 -40.1434 19.4955 742.717
-317.685 -387.685 19.4955 1477.38
-242.271 -286.006 19.4955 1804.62
-278.506 -17.2714 19.4955 1617.97
-310.998 -75.9977 19.4955 1589.57
28.3694 9.63513 19.4955 425.818
162.721 22.7207 19.4955 1619.29
-290.361 114.006 19.4955 1300.79
-317.279 97.7207 19.4955 1371.89
-324.724 -280.99 19.4955 1547.21
-97.8846 -138.502 19.4955 2174.82
257.423 89.1025 19.4955 1493.73
-137.267 155.881 19.4955 1743.3
-104.111 139.006 19.4955 1384.04
-354.107 -115.357 19.4955 1726.46
-344.732 -107.264 19.4955 1673.93
-447.279 -317.279 19.4955 1925.95
-461.211 -253.295 19.4955 1645.28
-472.264 -259.732 19.4955 1877.39
-446.639 -212.889 19.4955 1673.42
-455.147 -223.697 19.4955 1884.92
-158.705 133.579 19.4955 1617.92
-465.574 -196.207 19.4955 1657.62
-436.846 -188.707 19.4955 1519.5
-430.788 -173.088 19.4955 1908.32
-443.088 -163.705 19.4955 1741.42
-441.639 -147.889 19.4955 1570.87
-454.72 -124.103 19.4955 1448.7
-478.299 -186.848 19.4955 1973.32
-422.471 -109.322 19.4955 1551.34
-435.143 -85.1434 19.4955 1266.44
-445.78 -89.314 19.4955 1331.27
15.0663 -353.9 19.4955 1203.43
4.00619 -375.361 19.4955 1320.87
-345.578 -267.678 19.4955 1889.79
-420.578 -57.6776 19.4955 1493.76
-405.998 -38.4977 19.4955 1308.72
-408.701 11.2992 19.4955 662.942
-400.361 26.5062 19.4955 1066.41
-423.49 55.2759 19.4955 1065.82
-279.728 52.1233 19.4955 1687.44
116.498 -222.885 19.4955 1320.77
-296.642 2.72466 19.4955 1430.85
-313.49 -9.7241 19.4955 1437.53
212.733 75.8812 19.4955 1314.31
-418.494 -214.111 19.4955 1701.91
-420.782 -159.007 19.4955 1904.33
-320.353 -164.72 19.4955 1384.82
-335.78 -145.147 19.4955 1482.62
-352.885 -166.002 19.4955 1977.61
89.8448 -232.054 19.4955 1652.53
96.5062 -199.111 19.4955 1710.04
-323.697 -135.147 19.4955 1456.22
-295.365 22.1194 19.4955 1077.06
-477.471 -229.322 19.4955 1954.89
-325.369 12.7325 19.4955 1121.79
-342.271 -3.50563 19.4955 1185.46
-298.701 31.2992 19.4955 1314.85
-316.639 32.1115 19.4955 1781.6
-404.728 83.3733 19.4955 978.741
-379.31 89.8566 19.4955 1390.83
-386.852 52.3146 19.4955 1490.72
-372.674 70.475 19.4955 1594.34
-360.788 28.579 19.4955 1422
-364.111 16.5062 19.4955 1319.36
-349.724 -0.989865 19.4955 1576.71
-395.361 -125.994 19.4955 1600.16
-379.115 -146.631 19.4955 2075.79
-384.716 -9.71622 19.4955 1353.28
-381.631 4.63513 19.4955 947.235
-370.357 -144.107 19.4955 1635.67
-370.998 -23.4977 19.4955 1281.04
6 215 426 425 124 123 210 3862
4 42 41 66 483 4294
6 130 129 484 485 486 477 3835
6 477 478 121 120 131 130 3836
6 440 361 360 219 218 437 3811
7 429 398 397 411 415 351 350 3994
6 472 296 295 400 399 487 3988
6 442 481 256 255 494 443 4030
6 421 420 242 55 54 64 4265
5 288 287 340 175 174 4005
4 74 73 216 220 3786
6 195 194 241 56 55 242 4266
5 448 319 318 499 500 4204
6 487 57 61 332 331 472 3986
6 416 470 157 156 356 413 4083
6 64 63 446 447 422 421 3901
4 377 450 139 138 4160
5 168 167 464 304 202 4137
7 303 460 383 382 146 145 299 3851
6 204 203 308 445 141 140 4158
5 350 354 59 58 429 3995
6 140 139 450 451 205 204 4050
3 496 497 498 4340
4 437 438 439 440 3810
5 199 198 431 495 452 4313
3 505 79 78 4127
6 413 414 352 351 415 416 4084
5 91 410 80 86 87 4258
4 441 442 443 444 4031
5 452 453 454 200 199 4307
5 505 449 327 75 79 4125
7 202 203 204 205 206 169 168 4051
5 488 305 304 464 479 4136
6 458 328 262 261 311 503 3978
6 448 424 409 408 320 319 3863
7 354 353 503 311 310 60 59 4086
6 131 120 119 510 364 125 3838
4 365 498 497 366 4065
5 198 197 228 430 431 4172
6 478 267 266 381 122 121 3859
7 322 321 428 511 433 432 512 3941
5 343 342 163 162 349 3798
5 419 190 195 242 420 3909
4 463 462 493 492 4269
4 515 516 372 376 3931
4 479 464 167 166 14287
6 439 509 473 362 361 440 4347
6 60 310 309 324 332 61 3984
6 457 243 185 184 248 250 4012
8 309 310 311 261 264 107 106 312 3977
7 417 418 419 420 421 422 423 3907
6 81 80 410 504 128 127 4257
7 481 482 451 450 377 254 256 4043
6 254 222 221 249 255 256 4044
5 133 132 238 327 449 4222
6 344 343 349 348 370 369 4262
4 519 453 452 495 4316
6 424 425 426 401 404 409 4202
4 77 76 328 458 4109
5 159 39 38 513 235 4179
7 404 403 405 406 407 408 409 3865
6 151 188 187 252 299 145 3857
7 365 366 367 368 369 370 371 4333
6 307 227 230 388 445 308 4170
6 401 294 297 402 403 404 3866
5 394 395 368 367 396 3849
6 509 109 113 280 279 473 4346
6 385 386 355 315 314 387 4227
6 381 274 211 210 123 122 3860
7 254 377 138 144 271 223 222 4101
5 372 373 374 375 376 3929
6 388 230 229 293 292 389 4230
6 196 201 514 290 293 229 4312
5 126 125 364 111 110 3819
5 315 355 356 156 155 4088
5 279 284 363 362 473 4344
4 488 461 306 305 4139
6 175 340 341 270 269 176 4006
7 331 332 324 323 333 334 335 3943
7 76 75 327 238 240 262 328 4223
6 309 312 321 322 323 324 3944
6 313 314 315 155 154 286 4098
5 271 273 326 224 223 4100
7 203 202 304 305 306 307 308 4234
8 250 226 225 289 288 174 173 457 4010
4 294 295 296 297 3991
7 285 286 154 153 287 288 289 4047
7 299 252 251 300 301 302 303 3853
6 279 280 281 282 283 284 3822
7 274 275 276 277 278 212 211 3997
7 271 144 143 257 260 272 273 4271
5 347 348 349 162 161 4342
6 265 266 267 268 269 270 3999
6 261 262 240 239 263 264 3979
6 172 176 269 268 480 456 4008
7 73 72 103 104 253 217 216 3787
5 186 244 251 252 187 3856
8 257 258 68 67 158 237 259 260 4233
4 245 241 194 193 4268
6 306 461 430 228 227 307 14289
5 238 132 137 239 240 4226
5 108 107 264 263 298 3980
4 237 236 508 259 4105
7 335 471 402 297 296 472 331 3989
5 235 236 237 158 159 4229
8 456 300 251 244 243 457 173 172 3855
6 227 228 197 196 229 230 4169
6 210 211 212 213 214 215 3996
6 213 397 398 399 400 214 3993
7 396 367 366 497 496 540 541 4017
4 540 149 148 541 4019
7 145 146 147 148 149 150 151 4015
6 196 197 198 199 200 201 4308
7 182 183 184 185 186 187 188 4013
4 243 244 186 185 4009
5 172 173 174 175 176 4007
5 158 67 40 39 159 4309
5 246 179 178 329 330 3966
6 152 153 154 155 156 157 4082
7 138 139 140 141 142 143 144 4272
6 132 133 134 135 136 137 4224
7 393 96 102 468 469 412 390 4210
5 281 317 316 325 282 3842
6 263 239 137 136 455 298 3982
2 520 521 -1
5 216 217 218 219 220 3788
3 390 412 391 4211
5 248 249 221 226 250 4011
6 325 10 3 2 283 282 3828
5 212 278 411 397 213 4001
6 221 222 223 224 225 226 4045
6 298 455 468 102 101 108 3981
7 217 253 85 84 438 437 218 3789
6 524 466 465 491 525 526 3881
5 491 490 527 528 525 3887
8 325 316 320 408 407 517 11 10 3870
6 455 136 135 529 469 468 4213
6 530 528 527 531 532 533 3889
6 160 161 162 163 164 165 3795
7 533 534 535 447 446 536 530 3891
5 534 537 538 539 535 3900
5 535 539 423 422 447 14296
6 104 88 87 86 85 253 3790
5 517 542 47 12 11 3871
6 423 539 538 543 544 417 3905
7 313 272 260 259 508 387 314 4103
4 323 322 512 333 3942
7 418 545 546 547 191 190 419 4206
6 26 25 489 490 491 465 3882
6 190 191 192 193 194 195 14293
5 192 462 463 245 193 4267
5 517 407 406 507 542 3869
6 270 341 518 276 275 265 4000
3 171 170 549 4053
5 208 164 163 342 336 3799
5 350 351 352 353 354 4085
7 507 45 43 23 22 47 542 3872
5 511 550 551 434 433 3939
4 552 454 453 519 4317
4 390 391 392 393 3973
5 492 493 181 180 247 14291
6 406 405 506 46 45 507 3868
6 553 18 17 554 532 531 3892
7 474 459 302 301 485 484 475 3834
6 480 486 485 301 300 456 3854
4 97 96 393 392 3954
6 405 403 402 471 555 506 3867
6 106 105 427 428 321 312 3945
7 555 556 557 15 14 46 506 14298
6 152 157 470 277 276 518 4003
6 441 558 559 482 481 442 4042
7 337 336 342 343 344 345 346 4263
6 555 471 335 334 560 556 3990
6 511 428 427 502 561 550 3946
7 334 333 512 432 436 523 560 3914
5 201 200 454 552 514 4306
6 337 346 380 384 357 338 3832
6 528 530 536 562 526 525 3888
6 100 99 501 502 427 105 3947
6 339 338 357 358 51 50 3831
6 438 84 83 109 509 439 3809
7 432 433 434 435 233 232 436 3915
5 225 224 326 285 289 4046
7 357 384 383 460 459 474 358 3833
6 52 51 358 474 475 476 3830
4 99 98 548 501 3949
5 551 563 564 435 434 3940
6 561 565 566 563 551 550 3937
6 286 285 326 273 272 313 4099
5 135 134 521 520 529 4219
6 278 277 470 416 415 411 4002
6 499 112 111 364 510 500 3820
7 500 510 119 124 425 424 448 4203
5 502 501 548 565 561 3948
8 566 375 374 571 572 573 564 563 3938
6 267 478 477 486 480 268 3858
7 290 291 65 68 258 292 293 4304
5 378 379 380 346 345 3844
4 303 302 459 460 3852
6 369 368 395 378 345 344 4260
7 516 116 115 568 570 373 372 3930
5 266 265 275 274 381 3998
6 516 515 330 329 117 116 3958
5 37 36 467 466 524 3877
5 36 27 20 19 467 3878
7 25 24 44 13 18 553 489 3883
8 554 574 32 31 537 534 533 532 3899
7 113 112 499 318 317 281 280 3821
5 489 553 531 527 490 3886
4 329 178 118 117 3959
5 554 17 16 575 574 3898
5 538 537 31 35 543 3904
6 518 341 340 287 153 152 4004
5 562 536 446 63 62 3902
6 443 494 183 182 189 444 4028
8 192 191 547 567 177 181 493 462 4207
6 184 183 494 255 249 248 4029
6 48 52 476 504 410 91 3806
4 483 66 65 291 4295
5 19 26 465 466 467 3880
6 544 576 577 545 418 417 3918
6 560 523 522 578 557 556 3895
5 207 165 164 208 209 3794
5 127 126 110 82 81 3818
6 546 569 570 568 567 547 4205
5 567 568 115 114 177 3962
3 359 29 28 3813
8 359 360 361 362 363 7 6 29 4345
6 363 284 283 2 1 7 3824
5 231 522 523 436 232 3913
5 413 356 355 386 414 4087
5 541 148 147 394 396 4016
7 215 214 400 295 294 401 426 3992
5 15 557 578 575 16 3896
5 316 317 318 319 320 3841
5 70 69 160 165 207 3784
5 382 383 384 380 379 3843
6 385 387 508 236 235 513 4228
6 399 398 429 58 57 487 3987
4 348 347 371 370 3847
6 166 167 168 169 170 171 4052
7 575 578 522 231 33 32 574 3897
6 34 33 231 232 233 234 3912
5 445 388 389 142 141 4232
6 234 233 435 564 573 579 3916
7 35 34 234 579 576 544 543 3910
8 94 209 208 336 337 338 339 95 4200
5 90 95 339 50 49 4199
5 579 573 572 577 576 3917
6 549 170 169 206 559 558 4048
6 577 572 571 569 546 545 3927
5 482 559 206 205 451 4049
5 569 571 374 373 570 3928
7 378 395 394 147 146 382 379 3850
6 504 476 475 484 129 128 3829
6 143 142 389 292 258 257 4231
6 207 209 94 93 71 70 3793
7 125 126 127 128 129 130 131 3837
6 119 120 121 122 123 124 3861
5 71 93 92 103 72 3792
5 114 115 116 117 118 3961
7 177 114 118 178 179 180 181 14292
7 109 83 82 110 111 112 113 3817
6 105 106 107 108 101 100 3976
5 103 92 89 88 104 3791
7 96 97 98 99 100 101 102 3975
6 89 92 93 94 95 90 3802
7 87 88 89 90 49 48 91 4259
7 80 81 82 83 84 85 86 3808
5 150 189 182 188 151 4014
5 75 76 77 78 79 4110
6 69 70 71 72 73 74 3785
6 65 66 41 40 67 68 4310
5 62 63 64 54 53 3903
5 57 58 59 60 61 3985
4 53 54 55 56 4264
5 48 49 50 51 52 4198
6 5 4 12 47 22 21 3874
6 44 43 45 46 14 13 3885
4 24 23 43 44 3884
4 180 179 246 247 14290
5 38 39 40 41 42 4293
6 30 9 8 27 36 37 3875
5 31 32 33 34 35 3911
5 28 29 6 9 30 3876
6 27 8 0 5 21 20 3873
8 19 20 21 22 23 24 25 26 3879
6 13 14 15 16 17 18 3893
5 4 3 10 11 12 3827
6 6 7 1 0 8 9 3825
6 0 1 2 3 4 5 3826
