ply
format ascii 1.0
comment Exported from MorphoGraphX 2.0 1-254
comment Cellular mesh
element vertex 299
property float x
property float y
property float z
property float signal
element face 150
property list int int vertex_index
property int label
end_header
5.52071 28.7095 -15.5185 44874.2
3.90598 33.7241 -18.261 43831.5
0.842528 33.8549 -18.0592 46145.2
0.0842137 29.806 -15.5716 39606.3
1.35556 28.1669 -14.8012 42931.8
-13.0488 -30.3579 -12.4616 51970.8
-12.8529 -33.627 -13.8792 39463.2
-9.45742 -35.2533 -13.9427 47293.5
-7.10855 -34.2702 -13.065 43505.9
-8.53358 -29.4719 -11.1153 49495.4
-12.5657 -29.1091 -11.8877 46832.8
-2.3475 -4.01057 -6.53062 57479.8
-0.269192 0.241095 -6.55773 52009.3
-2.45808 1.39894 -6.8667 48981.8
-6.79798 0.659237 -7.33022 40054.7
-6.67226 -2.9099 -7.16325 50773.6
-7.0827 18.2543 -10.4344 48591.3
-8.60538 14.6178 -9.43353 54255
-8.15427 10.8296 -8.49171 53331
-5.66276 10.0405 -8.10285 54924.8
-2.72633 10.3376 -7.92235 51487.3
-1.83132 11.9667 -8.22187 57105.8
-1.20014 16.7894 -9.58714 43824.1
-1.56448 17.7223 -9.92703 45182.3
-0.318898 -7.63355 -6.07731 52513.1
0.313754 -6.59434 -6.08023 50917.8
-7.6916 -3.98401 -7.24564 54440
-7.9551 -8.56615 -7.02197 47423.1
-5.82597 -10.6892 -6.58416 48106.8
-13.9785 -23.3858 -10.4571 41179.6
-12.7962 -23.9555 -10.2866 40495.5
-8.97501 -22.4344 -8.783 47207.4
-11.7288 -16.3522 -8.0317 53002
-14.2245 -16.7314 -8.88085 48784.4
-4.81812 34.3081 -18.1377 46403.2
-3.09459 29.7754 -15.342 51543
-7.44556 28.4581 -14.8524 45536.4
-8.8725 26.8477 -14.2242 47643.8
-6.41234 23.1362 -12.2787 49007.6
-0.788451 23.9714 -12.6011 47131.4
0.716577 26.0086 -13.638 52423.6
-0.134266 22.2171 -11.7416 52930.7
-8.61379 19.7994 -11.2811 46800.4
-1.98259 3.02893 -6.89812 55234.1
-1.57355 6.9926 -7.22351 52239.7
-8.7376 2.34667 -7.64526 49053.4
-15.0296 -10.2745 -8.34129 45892.4
-15.3919 -15.4526 -9.01354 46869.3
-9.8857 -15.504 -7.42521 57604.7
-10.8922 -9.40326 -7.43497 52988.5
-12.5889 -8.91519 -7.77856 42520.2
-19.1068 -26.5527 -12.7492 53160.4
-18.1754 -28.8692 -13.2283 43187
-17.2595 -24.8003 -11.7718 47525.6
28.9172 21.7575 -18.4726 57502.4
29.4873 19.9887 -17.8158 55514.1
30.586 16.7624 -16.7559 57623.9
33.8359 16.6561 -18.3525 53370.3
34.8347 18.2726 -19.5666 61796.3
-7.58246 33.8822 -18.028 48173.7
-8.43134 32.0057 -16.9023 47204.3
-11.4423 3.45104 -8.1414 43148
-12.2867 9.28097 -8.87194 46797.4
23.8662 -0.802593 -8.80222 55056.2
25.5369 -4.36543 -9.1197 48031.6
28.0467 -4.25138 -10.0677 59683.5
30.9518 -3.51747 -11.4181 53760.4
31.5246 -2.44167 -11.8066 45405.9
26.6452 2.08498 -10.1993 58369.6
-19.0671 -16.8171 -10.4564 47189.1
-20.6507 -18.6687 -11.4103 47880.8
23.6578 -13.5261 -8.65566 60114.6
20.7572 -15.5364 -7.96964 53243.7
21.5906 -19.4529 -8.88104 59174.3
22.4661 -20.9216 -9.55344 55253.6
25.796 -19.5259 -10.3097 57807.7
29.5564 -29.3774 -15.4516 45649.3
28.0215 -27.8348 -14.2247 44640
23.4665 -29.3885 -13.2293 51567.1
23.2489 -30.3613 -13.5944 55628.6
23.6061 -32.9967 -15.022 54444.4
8.90492 -3.35515 -5.85113 60071.1
10.4247 -2.62706 -5.93208 58828.5
12.6503 -0.716575 -6.40029 55622.8
10.2536 3.33589 -6.74476 51089.1
5.99409 2.35149 -6.43437 52888.3
5.77438 2.07828 -6.40866 51754.3
13.0181 11.0368 -8.41247 57132.7
14.4593 13.0546 -9.34897 51994.4
13.5285 16.067 -10.3507 47034.8
7.92738 16.8847 -9.84789 50271.6
6.59528 16.0704 -9.40178 48083.5
-6.4799 -24.9259 -9.01422 49152.3
-1.03831 -24.0778 -7.88568 57984.4
-0.66721 -23.4647 -7.65234 58642.1
-1.84382 -19.4996 -6.88488 50864.8
-4.94854 -19.3673 -7.28459 41791.2
-7.47769 -22.131 -8.3388 46609.1
41.7352 -13.7936 -17.2254 49961.7
38.6254 -15.3354 -15.7558 44727.5
40.4338 -21.0917 -17.4361 47406.3
-20.7064 28.5254 -19.1577 36572.4
-26.3986 26.2653 -21.515 34446
-23.3556 24.4617 -18.1832 37413.3
8.40111 -9.60544 -5.8937 50912.4
11.5007 -8.95163 -6.0141 51858.4
6.18437 -6.09276 -5.87007 52090.7
-6.09161 -27.8742 -10.0313 47278.4
11.8255 8.77898 -7.71299 53904.3
4.59918 15.4016 -9.04601 51957.6
4.81121 11.7965 -7.87674 59701
5.27758 10.4816 -7.54644 54932.6
39.4317 11.8015 -20.0185 48303.8
41.9034 13.6326 -22.5806 54966.6
29.356 15.8738 -15.7667 51874
30.4953 13.6726 -15.3573 50291.9
37.5142 9.4385 -17.8487 46262.6
39.0896 10.4753 -19.2738 50565.7
8.22659 -9.98433 -5.88979 49893.3
4.24846 -4.94529 -5.97291 44374.3
1.24141 -11.388 -5.86467 51432.8
-13.7948 -3.51357 -8.1504 50383.8
-13.302 -3.75056 -8.05576 47885.3
-15.0186 1.39027 -8.67841 42718.5
32.2547 -32.2471 -17.9786 47347.3
31.6978 -30.4039 -16.7718 50720.9
23.1118 -34.0955 -15.4692 55891.2
24.6729 -36.7746 -17.4698 55111.9
5.21113 4.41615 -6.61923 59724.7
4.58105 7.86225 -7.02377 53231
19.5516 5.15721 -8.56802 51121.6
20.225 1.51734 -8.06971 57603
21.9802 -0.174582 -8.29402 55661.2
27.3115 5.89431 -11.3712 52137
23.9607 7.19234 -10.4319 51422.6
20.2168 5.71114 -8.87172 57369.6
36.962 8.68552 -17.2394 46669
38.2697 4.78871 -16.7984 57417
42.9809 3.03646 -19.5787 46583.7
44.4677 5.64119 -21.6665 43163.2
8.35983 22.8158 -12.5769 53727.7
8.25513 24.2231 -13.3505 52323.7
3.46672 22.0837 -11.6866 54959.7
7.84505 21.9401 -12.0464 48518.6
32.0182 -9.51247 -11.7728 57342.4
30.2635 -10.5739 -10.9626 55847.3
28.1899 -13.1098 -10.3041 53033
29.9332 -16.2044 -11.4672 51303.4
33.0173 -15.9656 -12.8787 53093.7
9.53099 27.5202 -15.5295 45900.2
8.05944 28.6261 -15.9092 46383.8
-23.6735 13.3198 -14.1039 36834.4
-24.4268 8.35392 -13.1291 39088.8
-22.3443 5.96386 -11.8319 41136.8
-19.7827 7.54602 -11.023 48701.8
-18.8406 13.8371 -12.0552 41478.4
-20.3927 14.3359 -12.8255 43920.3
12.2531 5.50924 -7.26194 47498.6
3.6829 -17.9915 -6.33175 51443.1
1.09144 -17.5957 -6.37061 47985.6
4.60949 -21.4973 -6.92248 56239.7
15.3618 -30.5483 -11.6429 53357.4
15.0713 -32.5161 -12.5687 52699.8
15.9242 -34.5256 -13.8465 51188.2
19.8736 -34.9356 -15.0087 59410.6
-2.20654 -29.9299 -10.3686 43033.7
0.857953 -27.7942 -9.10699 45672.4
17.3584 23.2041 -14.8189 53628.1
16.9669 22.0664 -14.0304 52861.5
24.6295 19.3563 -15.3905 50527.8
24.5705 20.7407 -16.1208 59293.4
23.5335 22.9798 -16.9265 41805.7
25.5443 16.4945 -14.335 52079
16.0539 21.0431 -13.1834 52984.2
16.0329 19.1228 -12.1906 53172.5
24.19 14.8245 -12.9955 49198.6
23.577 12.8538 -11.9778 48778.7
17.2193 12.5673 -9.83469 55769.2
-20.8148 19.9819 -14.8142 42642
-16.0988 26.1091 -15.8023 42033.8
-17.5429 28.8557 -17.7837 37175.6
-24.8794 20.929 -17.3668 36711.8
-24.5234 19.4045 -16.5228 38268.1
14.3329 -8.96562 -6.23386 54458.2
16.6265 -6.59883 -6.6064 49846.8
15.0174 -1.9508 -6.60735 57047.5
45.7997 5.61016 -22.9144 46513.5
9.65252 -22.1185 -7.46485 59961.7
5.70883 -23.138 -7.42506 52542.4
5.62898 -26.3856 -8.62354 50948.5
9.0902 -28.833 -9.92191 55332.1
11.4952 -28.0298 -9.8862 49041
22.0903 -23.796 -10.5142 59376.8
28.6964 -24.7964 -13.2985 49784.9
29.9479 -22.5111 -12.9615 52156.3
29.0966 -18.6668 -11.5712 51125.8
35.3064 -16.3971 -14.1578 51849.5
38.2164 -14.9582 -15.5269 43580.1
36.8053 -9.83885 -14.5419 50217.8
34.8847 -8.03975 -13.3561 51945.2
33.2786 -7.36245 -12.4387 51841
-26.166 15.0572 -15.9506 36147.4
-19.4626 19.8335 -14.2006 41462.1
-26.1608 17.0022 -16.5822 42963
10.1332 -16.1976 -6.46282 57358.4
11.8407 -19.1194 -7.06057 53807.1
14.4459 -19.8283 -7.54058 53283.4
18.6697 -15.1305 -7.44771 51320.6
17.3882 -13.29 -6.99097 58020.7
15.6596 -12.077 -6.58342 59290.3
42.5134 1.07965 -18.7707 50376.3
46.3902 -1.10747 -21.3635 44154.1
-13.1188 31.6259 -17.7614 46077.6
-15.6733 31.9186 -18.9121 38197.8
-14.3386 24.5584 -14.5612 42336
-11.5316 26.2969 -14.4816 45551.6
-2.10861 -36.3939 -13.4674 47713.5
-2.13987 -38.7157 -14.8644 44310.4
5.57864 -37.0175 -13.6984 51779.1
37.6027 -0.933173 -15.3579 52349.2
33.2516 7.81866 -14.8096 49664.3
32.1054 5.9953 -13.6972 40343
34.5167 0.0312991 -13.7304 45591.2
36.2882 -1.24311 -14.5482 47715
14.5425 -28.4282 -10.5482 49401.5
16.3581 -25.5784 -9.8349 49029.2
15.5932 -23.0295 -8.73933 56040.7
12.9649 22.4814 -13.2058 51780.3
33.9402 -22.8971 -14.8513 54089
20.7756 -26.386 -11.1954 48388.1
-6.48001 -15.359 -6.85329 52860.6
-26.3949 7.76383 -13.8775 41144.4
-28.1178 13.959 -16.7868 35023.9
2.59036 16.6382 -9.43427 52505.6
-5.56238 -13.0454 -6.55769 51081.5
0.607198 -14.3057 -6.06397 52956.8
25.7069 -11.6452 -9.25955 52910
8.5707 -15.0279 -6.24126 47100.2
8.32793 -32.3374 -11.406 47784.3
3.17315 -0.243156 -6.31617 43938.7
-23.2924 -4.31388 -11.3069 40164.4
-18.8941 -4.49335 -9.44311 47662.4
-18.0227 -3.97811 -9.12292 49452.6
-19.5762 1.52862 -10.1801 49708.7
-21.312 1.88609 -10.9229 46256
-23.4087 -0.141782 -11.5403 35790.9
18.9372 -39.2771 -16.9355 52891.5
24.4506 11.4912 -11.8442 53587.6
30.5126 11.6176 -14.5758 51772.2
35.687 -23.9415 -15.9609 54479.5
39.1281 -23.7984 -17.4893 45756.5
-30.4823 17.6175 -20.1577 36603.9
-30.0068 13.4242 -17.9527 39666.5
-17.8917 -10.0192 -9.17653 47385.8
-20.9512 -10.9609 -10.4284 46482.5
-15.234 14.0862 -10.8995 42899.2
-14.8066 14.4589 -10.8796 41622.4
-13.5257 19.5621 -12.3252 38460.1
-14.9144 21.0262 -13.2735 40475
-2.90504 -34.4403 -12.4882 48133.3
-1.82138 -32.4073 -11.4319 45953.4
3.56303 -32.2462 -11.0152 54056.3
3.40379 -27.8207 -9.06186 52452.5
16.5459 28.9637 -17.9568 51259.3
15.7045 27.7257 -17.0039 39866.9
24.1715 24.1203 -17.7603 50758.3
24.3435 24.1711 -17.8492 51447.8
40.0335 -2.25644 -16.7359 42770.9
41.5891 -5.23196 -17.4778 43085.5
43.3263 -6.2402 -18.4864 50316.3
8.80505 32.493 -18.3553 53346.7
11.7053 27.6234 -16.0187 44233.8
14.9277 -36.9789 -15.0652 53233.5
7.04756 -33.5398 -11.8736 51173.9
7.12853 -35.6402 -13.0281 53588.4
23.7089 -7.30938 -8.45425 50904.3
-28.668 -6.36562 -12.9964 44484.6
-29.1615 -6.81584 -13.1728 43756.9
-25.0191 -13.7346 -12.1291 46238.1
-23.0756 -10.9162 -11.2164 42629.3
-24.5239 -6.2423 -11.655 43561.7
-32.423 1.57753 -15.6997 47711.1
-29.9714 2.07177 -14.5673 39372.7
-29.3657 6.16401 -15.1626 40786.4
-30.9541 8.79527 -16.838 39407.4
34.5136 -27.6576 -16.7641 46936.8
37.4301 -31.3158 -20.0967 44887.7
-13.9772 10.3353 -9.47388 48854
-17.5582 8.22434 -10.2466 49053.5
-17.171 2.00151 -9.31332 46487.7
-29.0022 21.562 -20.8509 38187.3
20.9324 -7.38247 -7.6055 54067.3
19.4917 -6.84684 -7.21611 57974.1
-25.3673 0.378334 -12.2785 45000.5
-28.5759 0.875319 -13.7038 38557.7
-30.7268 -7.26794 -13.8225 45793.7
-27.3754 6.82517 -14.2021 45687.3
-25.7206 -16.5534 -12.8219 41497.2
-23.9368 -19.5027 -12.7316 41396.3
7 148 196 197 198 199 200 144 117
6 273 238 190 189 262 261 328
5 187 188 189 190 191 180
6 191 190 238 162 161 224 15
6 124 125 76 80 126 127 62
7 191 224 225 226 206 205 187 147
8 285 249 228 194 193 77 76 125 317
4 285 125 124 286 36
7 160 188 187 205 204 237 158 351
6 204 205 206 207 208 209 148
6 75 74 192 193 194 195 371
7 209 183 105 104 118 237 204 115
6 195 147 146 236 71 75 372
6 183 184 185 83 82 105 227
6 208 291 292 184 183 209 35
6 194 228 196 148 147 195 352
7 196 228 249 250 100 99 197 210
6 84 83 185 131 130 157 3
5 292 132 131 185 184 19
7 135 177 88 87 108 157 130 53
5 177 135 134 247 176 154
3 216 217 218 81
7 218 274 273 261 260 259 216 120
6 176 175 174 89 88 177 118
5 166 165 260 261 262 121
5 192 229 78 77 193 98
6 172 169 168 173 174 175 399
5 211 210 267 268 269 306
7 94 93 166 262 189 188 160 126
5 167 168 169 170 171 158
6 223 199 198 268 267 219 124
5 137 219 267 210 138 222
7 219 137 136 220 221 222 223 206
5 158 159 95 94 160 159
6 108 87 91 109 110 111 223
7 111 129 128 85 84 157 108 218
4 43 128 129 44 384
6 129 111 110 21 20 44 368
5 144 145 146 147 148 134
6 117 116 136 137 138 139 226
6 120 235 159 158 237 118 130
5 139 186 113 112 117 230
6 96 230 48 32 31 97 356
7 118 104 106 119 25 24 120 189
7 112 57 56 114 115 116 117 379
4 112 113 58 57 280
7 97 31 30 10 9 107 92 96
5 104 105 82 81 106 358
3 98 99 100 302
5 106 81 86 239 119 8
5 217 216 259 8 7 393
5 109 233 22 21 110 369
6 92 93 94 95 96 97 380
6 91 90 143 142 233 109 387
5 87 88 89 90 91 150
5 92 107 165 166 93 394
6 81 82 83 84 85 86 93
5 186 139 138 210 211 18
7 140 141 40 39 41 142 143 370
7 143 90 89 174 173 227 140 20
6 9 8 259 260 165 107 378
5 140 227 271 149 141 249
6 272 163 162 238 273 274 196
6 141 149 150 0 4 40 388
5 226 73 72 207 206 250
6 65 64 275 236 146 145 336
5 200 66 65 145 144 373
6 264 263 270 150 149 271 263
4 1 0 150 270 389
8 130 131 132 63 68 133 134 135 257
7 263 264 167 171 265 266 265 266
6 271 227 173 168 167 264 383
6 199 223 222 67 66 200 177
6 96 95 159 235 234 230 381
4 281 282 283 284 198
5 67 222 221 133 68 341
5 239 12 11 25 119 396
6 79 78 229 225 224 161 287
6 295 277 276 294 282 281 39
6 232 252 284 283 296 231 40
6 226 225 229 192 74 73 71
5 251 252 232 201 203 201
5 251 203 182 181 290 213
4 290 181 103 102 41
7 208 207 72 71 236 275 291 292
6 292 291 275 64 63 132 255
7 43 13 12 239 86 85 128 112
4 250 249 285 286 296
7 175 176 247 248 115 114 172 260
5 115 248 220 136 116 377
6 172 114 56 55 170 169 55
5 282 294 293 296 283 46
6 266 265 171 170 55 54 211
5 231 152 151 201 232 229
6 198 197 99 98 269 268 78
3 101 102 103 48
4 277 295 297 278 237
5 276 277 278 279 280 256
6 280 240 245 293 294 276 239
7 293 245 244 153 152 231 296 258
7 201 151 156 202 178 182 203 244
7 178 179 180 101 103 181 182 245
6 151 152 153 154 155 156 241
5 178 202 258 214 179 60
4 246 164 163 272 284
7 126 80 79 161 162 163 164 286
6 279 254 253 241 240 280 58
6 240 241 242 243 244 245 269
6 154 153 244 243 289 288 270
5 288 287 255 155 154 271
6 220 248 247 134 133 221 298
7 202 156 155 255 256 257 258 273
6 212 213 180 179 214 215 275
4 213 212 60 59 276
4 127 126 164 246 97
6 234 28 27 49 48 230 337
4 51 53 70 298 73
7 298 70 69 254 279 278 297 61
7 38 37 215 214 258 257 42 80
5 215 37 36 60 212 297
5 234 235 120 24 28 102
5 69 47 46 253 254 74
7 242 241 253 46 50 122 121 75
5 121 123 289 243 242 282
6 62 287 288 289 123 61 293
6 287 62 18 17 256 255 294
5 42 257 256 17 16 295
5 76 77 78 79 80 313
5 71 72 73 74 75 291
6 33 47 69 70 53 29 304
8 121 122 26 15 14 45 61 123 319
6 63 64 65 66 67 68 339
5 61 45 19 18 62 321
5 59 60 36 35 34 307
5 54 55 56 57 58 345
3 6 5 52 332
7 51 52 5 10 30 29 53 316
7 46 47 33 32 48 49 50 83
5 50 49 27 26 122 338
6 16 23 41 39 38 42 343
8 35 36 37 38 39 40 4 3 324
4 3 2 34 35 344
5 29 30 31 32 33 333
7 24 25 11 15 26 27 28 367
8 16 17 18 19 20 21 22 23 342
5 11 12 13 14 15 357
7 43 44 20 19 45 14 13 340
6 5 6 7 8 9 10 366
5 41 23 22 233 142 359
5 0 1 2 3 4 361
