ply
format ascii 1.0
comment Exported from MorphoGraphX 2.0.1-254
comment Cell Graph: each vertex is a cell, each edge a wall
element vertex 150
property int label
property float x
property float y
property float z
element edge 407
property uint source
property uint target
end_header
3 0 0 0 
8 0 0 0 
15 0 0 0 
18 0 0 0 
19 0 0 0 
20 0 0 0 
35 0 0 0 
36 0 0 0 
39 0 0 0 
40 0 0 0 
41 0 0 0 
46 0 0 0 
48 0 0 0 
53 0 0 0 
55 0 0 0 
58 0 0 0 
60 0 0 0 
61 0 0 0 
62 0 0 0 
71 0 0 0 
73 0 0 0 
74 0 0 0 
75 0 0 0 
78 0 0 0 
80 0 0 0 
81 0 0 0 
83 0 0 0 
93 0 0 0 
96 0 0 0 
97 0 0 0 
98 0 0 0 
102 0 0 0 
112 0 0 0 
115 0 0 0 
117 0 0 0 
118 0 0 0 
120 0 0 0 
121 0 0 0 
124 0 0 0 
126 0 0 0 
130 0 0 0 
134 0 0 0 
147 0 0 0 
148 0 0 0 
150 0 0 0 
154 0 0 0 
158 0 0 0 
159 0 0 0 
177 0 0 0 
180 0 0 0 
189 0 0 0 
196 0 0 0 
198 0 0 0 
201 0 0 0 
206 0 0 0 
210 0 0 0 
211 0 0 0 
213 0 0 0 
218 0 0 0 
222 0 0 0 
223 0 0 0 
226 0 0 0 
227 0 0 0 
229 0 0 0 
230 0 0 0 
237 0 0 0 
239 0 0 0 
241 0 0 0 
244 0 0 0 
245 0 0 0 
249 0 0 0 
250 0 0 0 
255 0 0 0 
256 0 0 0 
257 0 0 0 
258 0 0 0 
260 0 0 0 
263 0 0 0 
266 0 0 0 
269 0 0 0 
270 0 0 0 
271 0 0 0 
273 0 0 0 
275 0 0 0 
276 0 0 0 
280 0 0 0 
282 0 0 0 
284 0 0 0 
286 0 0 0 
287 0 0 0 
291 0 0 0 
292 0 0 0 
293 0 0 0 
294 0 0 0 
295 0 0 0 
296 0 0 0 
297 0 0 0 
298 0 0 0 
302 0 0 0 
304 0 0 0 
306 0 0 0 
307 0 0 0 
313 0 0 0 
316 0 0 0 
317 0 0 0 
319 0 0 0 
321 0 0 0 
324 0 0 0 
328 0 0 0 
332 0 0 0 
333 0 0 0 
336 0 0 0 
337 0 0 0 
338 0 0 0 
339 0 0 0 
340 0 0 0 
341 0 0 0 
342 0 0 0 
343 0 0 0 
344 0 0 0 
345 0 0 0 
351 0 0 0 
352 0 0 0 
356 0 0 0 
357 0 0 0 
358 0 0 0 
359 0 0 0 
361 0 0 0 
366 0 0 0 
367 0 0 0 
368 0 0 0 
369 0 0 0 
370 0 0 0 
371 0 0 0 
372 0 0 0 
373 0 0 0 
377 0 0 0 
378 0 0 0 
379 0 0 0 
380 0 0 0 
381 0 0 0 
383 0 0 0 
384 0 0 0 
387 0 0 0 
388 0 0 0 
389 0 0 0 
393 0 0 0 
394 0 0 0 
396 0 0 0 
399 0 0 0 
3 19
3 53
3 93
3 218
3 227
3 257
8 93
8 112
8 189
8 358
8 396
15 147
15 180
15 196
15 286
15 287
15 328
18 222
18 226
18 230
18 306
19 35
19 227
19 255
19 257
20 118
20 150
20 249
20 370
20 383
20 387
20 399
35 115
35 148
35 227
35 255
35 292
36 62
36 296
36 317
39 46
39 198
39 237
39 239
39 256
40 46
40 198
40 201
40 229
40 258
41 48
41 213
41 245
46 198
46 239
46 258
48 245
53 118
53 150
53 154
53 218
53 223
53 257
55 158
55 211
55 260
55 345
55 379
55 399
58 61
58 74
58 75
58 239
58 256
58 269
60 80
60 244
60 245
60 273
60 275
61 73
61 74
61 237
61 256
61 304
62 97
62 286
62 313
62 317
71 98
71 147
71 250
71 287
71 291
71 371
73 304
73 316
74 75
74 83
74 304
75 83
75 269
75 282
75 319
75 338
78 117
78 124
78 210
78 302
78 306
80 273
80 275
80 295
80 297
80 324
80 343
81 120
81 393
83 304
83 333
83 337
83 338
83 356
93 112
93 218
93 227
93 358
96 316
96 333
96 356
96 366
96 378
96 380
96 394
97 284
97 286
98 287
98 313
98 317
98 371
102 130
102 189
102 337
102 367
102 381
112 218
112 340
112 357
112 384
112 396
115 130
115 148
115 189
115 227
115 351
115 358
117 124
117 134
117 177
117 210
117 352
117 373
118 150
118 154
118 260
118 399
120 121
120 196
120 328
120 378
120 393
121 126
121 328
121 378
121 394
124 177
124 206
124 222
124 306
126 159
126 180
126 328
126 351
126 380
126 394
130 159
130 189
130 351
130 381
134 336
134 352
134 372
134 373
147 148
147 180
147 250
147 287
147 351
148 250
148 292
148 351
150 223
150 387
154 257
154 260
154 298
158 211
158 266
158 383
158 399
159 351
159 380
159 381
177 206
177 339
177 341
177 373
180 328
180 351
189 358
189 367
189 396
196 284
196 286
196 328
201 213
201 229
201 244
206 222
206 226
206 298
206 341
206 377
210 296
210 302
210 317
210 352
211 266
211 345
213 244
213 245
218 223
218 368
218 384
222 226
222 306
223 368
223 369
223 387
226 230
226 377
226 379
227 358
229 241
229 244
229 258
230 280
230 379
237 256
239 256
239 258
239 269
241 244
241 258
241 270
241 271
241 273
244 245
244 273
245 275
249 263
249 370
249 383
249 388
250 291
250 292
255 257
255 292
255 336
255 339
257 298
257 339
257 341
258 269
258 270
260 298
260 377
260 379
260 399
263 266
263 383
263 388
263 389
266 383
269 270
269 282
270 271
270 282
270 293
271 273
271 293
271 294
273 294
273 295
275 276
275 297
276 297
276 307
280 345
280 379
282 293
282 319
284 286
286 287
286 313
287 313
291 292
291 371
291 372
292 336
292 372
293 294
293 319
293 321
294 295
294 321
294 342
295 342
295 343
296 317
297 307
297 324
298 341
298 377
304 316
304 333
307 324
307 344
313 317
316 332
316 333
316 366
317 352
317 371
319 321
319 338
319 340
319 357
319 367
321 340
321 342
324 343
324 344
324 361
324 370
324 388
332 366
333 356
336 339
336 372
336 373
337 338
337 356
337 367
337 381
338 367
339 341
339 373
340 342
340 357
340 368
340 384
342 343
342 359
342 368
342 369
343 359
343 370
344 361
345 379
352 371
352 372
356 380
356 381
357 367
357 396
359 369
359 370
359 387
361 388
361 389
366 378
366 393
367 396
368 369
368 384
369 387
370 387
370 388
371 372
377 379
378 393
378 394
380 381
380 394
383 399
388 389
