ply
format ascii 1.0
comment Exported from MorphoGraphX 2.0.1-254
comment Cell Graph: each vertex is a cell, each edge a wall
element vertex 284
property int label
property float x
property float y
property float z
element edge 767
property uint source
property uint target
end_header
37289 0 0 0 
40538 0 0 0 
41063 0 0 0 
41084 0 0 0 
41087 0 0 0 
41488 0 0 0 
41504 0 0 0 
41596 0 0 0 
41685 0 0 0 
41700 0 0 0 
41785 0 0 0 
41982 0 0 0 
42063 0 0 0 
42206 0 0 0 
42211 0 0 0 
42261 0 0 0 
42262 0 0 0 
42350 0 0 0 
42375 0 0 0 
42488 0 0 0 
42662 0 0 0 
42697 0 0 0 
42908 0 0 0 
42913 0 0 0 
42915 0 0 0 
42965 0 0 0 
42983 0 0 0 
42988 0 0 0 
42993 0 0 0 
43015 0 0 0 
43048 0 0 0 
43078 0 0 0 
43167 0 0 0 
43186 0 0 0 
43269 0 0 0 
43291 0 0 0 
43391 0 0 0 
43472 0 0 0 
43509 0 0 0 
43595 0 0 0 
43636 0 0 0 
43666 0 0 0 
43686 0 0 0 
43689 0 0 0 
43793 0 0 0 
43838 0 0 0 
43906 0 0 0 
43994 0 0 0 
44009 0 0 0 
44129 0 0 0 
44158 0 0 0 
44164 0 0 0 
44171 0 0 0 
44241 0 0 0 
44289 0 0 0 
44302 0 0 0 
44304 0 0 0 
44328 0 0 0 
44338 0 0 0 
44390 0 0 0 
44394 0 0 0 
44404 0 0 0 
44407 0 0 0 
44431 0 0 0 
44435 0 0 0 
44436 0 0 0 
44439 0 0 0 
44453 0 0 0 
44457 0 0 0 
44475 0 0 0 
44495 0 0 0 
44509 0 0 0 
44531 0 0 0 
44538 0 0 0 
44543 0 0 0 
44551 0 0 0 
44558 0 0 0 
44567 0 0 0 
44569 0 0 0 
44571 0 0 0 
44572 0 0 0 
44582 0 0 0 
44609 0 0 0 
44617 0 0 0 
44637 0 0 0 
44648 0 0 0 
44652 0 0 0 
44661 0 0 0 
44671 0 0 0 
44675 0 0 0 
44681 0 0 0 
44693 0 0 0 
44697 0 0 0 
44714 0 0 0 
44729 0 0 0 
44732 0 0 0 
44795 0 0 0 
44805 0 0 0 
44824 0 0 0 
44837 0 0 0 
44857 0 0 0 
44889 0 0 0 
44893 0 0 0 
44901 0 0 0 
44905 0 0 0 
44911 0 0 0 
44914 0 0 0 
44954 0 0 0 
44961 0 0 0 
44971 0 0 0 
44979 0 0 0 
44984 0 0 0 
45002 0 0 0 
45014 0 0 0 
45019 0 0 0 
45020 0 0 0 
45034 0 0 0 
45038 0 0 0 
45047 0 0 0 
45071 0 0 0 
45090 0 0 0 
45092 0 0 0 
45093 0 0 0 
45095 0 0 0 
45106 0 0 0 
45123 0 0 0 
45129 0 0 0 
45134 0 0 0 
45143 0 0 0 
45148 0 0 0 
45156 0 0 0 
45157 0 0 0 
45158 0 0 0 
45159 0 0 0 
45160 0 0 0 
45161 0 0 0 
45162 0 0 0 
45163 0 0 0 
45164 0 0 0 
45165 0 0 0 
45166 0 0 0 
45167 0 0 0 
45168 0 0 0 
45169 0 0 0 
45170 0 0 0 
45171 0 0 0 
45172 0 0 0 
45173 0 0 0 
45174 0 0 0 
45175 0 0 0 
45176 0 0 0 
45177 0 0 0 
45178 0 0 0 
45179 0 0 0 
45180 0 0 0 
45181 0 0 0 
45182 0 0 0 
45183 0 0 0 
45184 0 0 0 
45196 0 0 0 
45197 0 0 0 
45198 0 0 0 
45208 0 0 0 
45209 0 0 0 
45210 0 0 0 
45232 0 0 0 
45233 0 0 0 
45234 0 0 0 
45235 0 0 0 
45236 0 0 0 
45237 0 0 0 
45238 0 0 0 
45239 0 0 0 
45240 0 0 0 
45241 0 0 0 
45242 0 0 0 
45243 0 0 0 
45244 0 0 0 
45245 0 0 0 
45246 0 0 0 
45247 0 0 0 
45248 0 0 0 
45249 0 0 0 
45250 0 0 0 
45252 0 0 0 
45254 0 0 0 
45255 0 0 0 
45256 0 0 0 
45257 0 0 0 
45258 0 0 0 
45259 0 0 0 
45260 0 0 0 
45261 0 0 0 
45262 0 0 0 
45270 0 0 0 
45271 0 0 0 
45272 0 0 0 
45273 0 0 0 
45274 0 0 0 
45275 0 0 0 
45276 0 0 0 
45277 0 0 0 
45278 0 0 0 
45279 0 0 0 
45280 0 0 0 
45281 0 0 0 
45282 0 0 0 
45283 0 0 0 
45284 0 0 0 
45285 0 0 0 
45286 0 0 0 
45287 0 0 0 
45288 0 0 0 
45289 0 0 0 
45290 0 0 0 
45291 0 0 0 
45292 0 0 0 
45293 0 0 0 
45295 0 0 0 
45298 0 0 0 
45299 0 0 0 
45300 0 0 0 
45301 0 0 0 
45312 0 0 0 
45313 0 0 0 
45314 0 0 0 
45317 0 0 0 
45318 0 0 0 
45319 0 0 0 
45320 0 0 0 
45322 0 0 0 
45325 0 0 0 
45327 0 0 0 
45328 0 0 0 
45330 0 0 0 
45331 0 0 0 
45332 0 0 0 
45334 0 0 0 
45335 0 0 0 
45336 0 0 0 
45338 0 0 0 
45340 0 0 0 
45341 0 0 0 
45342 0 0 0 
45343 0 0 0 
45345 0 0 0 
45346 0 0 0 
45347 0 0 0 
45348 0 0 0 
45349 0 0 0 
45350 0 0 0 
45351 0 0 0 
45380 0 0 0 
45381 0 0 0 
45382 0 0 0 
45383 0 0 0 
45384 0 0 0 
45385 0 0 0 
45386 0 0 0 
45387 0 0 0 
45388 0 0 0 
45389 0 0 0 
45401 0 0 0 
45405 0 0 0 
45406 0 0 0 
45407 0 0 0 
45409 0 0 0 
45410 0 0 0 
45411 0 0 0 
45435 0 0 0 
45436 0 0 0 
45437 0 0 0 
45447 0 0 0 
45448 0 0 0 
45452 0 0 0 
45453 0 0 0 
45459 0 0 0 
45460 0 0 0 
45461 0 0 0 
45462 0 0 0 
45467 0 0 0 
45468 0 0 0 
45472 0 0 0 
45473 0 0 0 
37289 44732
37289 44971
37289 44979
37289 45299
40538 41700
40538 44509
40538 44582
40538 45174
41063 44404
41063 44569
41063 45167
41063 45168
41063 45175
41063 45176
41084 42350
41084 43994
41084 44009
41084 44158
41084 45255
41084 45256
41084 45258
41087 42206
41087 43391
41087 44129
41087 45260
41087 45288
41488 42988
41488 44164
41488 45244
41488 45381
41488 45461
41504 43595
41504 45106
41504 45238
41504 45241
41504 45462
41596 43906
41596 45284
41596 45285
41596 45287
41596 45288
41596 45289
41685 42908
41685 42913
41685 44893
41685 44901
41685 45300
41685 45435
41685 45436
41700 44158
41700 44509
41700 44571
41700 44582
41785 45236
41785 45237
41785 45238
41785 45239
41982 44328
41982 44824
41982 45286
41982 45290
41982 45293
42063 43167
42063 43689
42063 44338
42063 45170
42063 45171
42063 45172
42206 43391
42206 45288
42206 45289
42206 45452
42211 42261
42211 44241
42211 44538
42211 45318
42211 45320
42261 45318
42262 42908
42262 43472
42262 44805
42262 44914
42262 44961
42262 45436
42350 44129
42350 45256
42350 45258
42375 44404
42375 44435
42375 44567
42375 44661
42375 44675
42375 44681
42488 44901
42488 44911
42488 45301
42488 45435
42662 45238
42662 45239
42662 45240
42662 45242
42662 45387
42662 45388
42697 42965
42697 43048
42697 44572
42697 44617
42697 45182
42697 45183
42697 45249
42908 42913
42908 44961
42908 44979
42908 45436
42913 44979
42913 45299
42913 45300
42915 44637
42915 44729
42915 45410
42915 45411
42965 44569
42965 44572
42965 45176
42965 45249
42965 45250
42965 45459
42983 42993
42983 44905
42983 45325
42988 44164
42988 45244
42988 45245
42988 45246
42988 45247
42993 43015
42993 44905
42993 45276
42993 45279
42993 45280
42993 45325
43015 43078
43015 44171
43015 45034
43015 45276
43015 45325
43048 44435
43048 44572
43048 44617
43078 44171
43078 45034
43078 45274
43078 45275
43167 43689
43167 44338
43167 44857
43167 45261
43167 45262
43167 45319
43186 45092
43186 45181
43186 45182
43186 45183
43186 45246
43186 45247
43269 44407
43269 44431
43269 44436
43269 44457
43291 45179
43291 45198
43291 45208
43291 45209
43291 45243
43291 45468
43391 44129
43391 45156
43391 45256
43391 45452
43472 44914
43472 44954
43472 44961
43472 45341
43472 45345
43509 43793
43509 44648
43509 45167
43509 45168
43509 45169
43595 44302
43595 45092
43595 45241
43595 45244
43595 45245
43595 45462
43595 45468
43636 43666
43636 44241
43636 44538
43636 44543
43636 45271
43636 45272
43666 44538
43666 44543
43666 44857
43666 45095
43666 45317
43666 45319
43686 43994
43686 44453
43686 45252
43686 45258
43686 45259
43689 44571
43689 44582
43689 44857
43689 45172
43689 45173
43689 45317
43793 44407
43793 44436
43793 44648
43793 45169
43793 45170
43838 44304
43838 44436
43838 44648
43838 44661
43838 44671
43838 45160
43906 45123
43906 45278
43906 45279
43906 45282
43906 45284
43906 45289
43994 44158
43994 44453
43994 45258
44009 44158
44009 44571
44009 45095
44009 45255
44009 45317
44129 45256
44129 45257
44129 45258
44129 45260
44158 44453
44158 44509
44158 44571
44164 45071
44164 45247
44164 45381
44171 45274
44171 45322
44171 45325
44241 44538
44241 45272
44241 45273
44241 45320
44289 44637
44289 45134
44289 45283
44289 45285
44289 45286
44289 45292
44302 45019
44302 45143
44302 45241
44302 45242
44302 45244
44302 45461
44304 44436
44304 44457
44304 44475
44304 44558
44304 45160
44328 44394
44328 44824
44328 45020
44328 45260
44328 45290
44328 45291
44338 44439
44338 45171
44338 45261
44390 44652
44390 45047
44390 45313
44390 45314
44390 45349
44394 45020
44394 45090
44394 45257
44394 45259
44394 45260
44404 44435
44404 44569
44404 44661
44404 45167
44407 44431
44407 44436
44407 45170
44407 45171
44431 44439
44431 45171
44435 44569
44435 44572
44435 44617
44435 44675
44436 44457
44436 44648
44439 45171
44453 44509
44453 44531
44453 44984
44453 45252
44457 44475
44475 44495
44475 44558
44475 45159
44495 45159
44495 45184
44509 44531
44509 45174
44509 45177
44531 44551
44531 44984
44531 45177
44531 45460
44538 45318
44538 45319
44543 45095
44543 45156
44543 45256
44543 45271
44551 45177
44551 45250
44551 45380
44551 45459
44551 45460
44558 45159
44558 45160
44567 44675
44567 44681
44567 44697
44567 45163
44567 45164
44569 44572
44569 45176
44571 44582
44571 45317
44582 45173
44582 45174
44609 45168
44609 45169
44609 45173
44609 45174
44609 45175
44617 44675
44617 45180
44617 45182
44637 44729
44637 44732
44637 45283
44637 45292
44637 45410
44648 44661
44648 45167
44652 44805
44652 44914
44652 45047
44652 45313
44652 45342
44661 44671
44661 44681
44661 45167
44671 44681
44671 45157
44671 45160
44675 44697
44675 45178
44675 45180
44681 45157
44681 45163
44693 44729
44693 44954
44693 44971
44693 45340
44693 45411
44697 45164
44697 45178
44697 45197
44697 45198
44714 45071
44714 45380
44714 45405
44714 45406
44729 44732
44729 44971
44729 45411
44732 44971
44732 45292
44732 45299
44795 45143
44795 45381
44795 45382
44795 45383
44795 45384
44795 45385
44795 45461
44805 44914
44805 45312
44805 45313
44805 45436
44824 45002
44824 45020
44824 45293
44824 45295
44837 45164
44837 45165
44837 45166
44837 45196
44857 45317
44857 45319
44889 44893
44889 45312
44889 45313
44889 45314
44893 44901
44893 45312
44893 45436
44901 44911
44901 45435
44905 45280
44905 45328
44905 45332
44911 45301
44914 45342
44914 45345
44954 44961
44954 44971
44954 45340
44954 45341
44961 44971
44961 44979
44971 44979
44979 45299
44984 45252
44984 45405
44984 45407
44984 45460
45002 45020
45002 45090
45002 45295
45014 45234
45014 45237
45014 45240
45014 45453
45014 45473
45019 45143
45019 45242
45019 45385
45019 45386
45019 45387
45020 45090
45034 45270
45034 45275
45034 45276
45034 45277
45038 45252
45038 45406
45038 45407
45047 45342
45047 45343
45047 45347
45047 45348
45047 45349
45071 45247
45071 45248
45071 45380
45090 45254
45090 45259
45092 45181
45092 45245
45092 45246
45092 45468
45093 45123
45093 45270
45093 45271
45093 45275
45093 45452
45095 45255
45095 45256
45095 45317
45106 45209
45106 45235
45106 45236
45106 45238
45106 45243
45106 45462
45123 45270
45123 45278
45123 45289
45123 45452
45129 45334
45129 45335
45129 45336
45129 45338
45129 45410
45134 45282
45134 45283
45134 45285
45143 45385
45143 45461
45148 45252
45148 45254
45148 45259
45156 45256
45156 45271
45156 45452
45157 45158
45157 45160
45157 45162
45157 45163
45158 45159
45158 45160
45158 45161
45158 45162
45158 45184
45159 45160
45159 45184
45161 45162
45161 45166
45161 45184
45162 45163
45162 45165
45162 45166
45163 45164
45163 45165
45164 45165
45164 45196
45164 45197
45165 45166
45167 45168
45168 45169
45168 45175
45169 45170
45169 45173
45170 45171
45170 45172
45170 45173
45172 45173
45173 45174
45174 45175
45174 45176
45174 45177
45174 45459
45175 45176
45176 45459
45177 45459
45178 45179
45178 45180
45178 45198
45179 45180
45179 45181
45179 45198
45179 45468
45180 45181
45180 45182
45181 45182
45181 45468
45182 45183
45183 45247
45183 45248
45183 45249
45196 45197
45197 45198
45198 45208
45208 45209
45208 45210
45209 45210
45209 45235
45209 45243
45210 45232
45210 45235
45210 45467
45232 45233
45232 45235
45232 45236
45232 45467
45233 45234
45233 45236
45233 45237
45233 45448
45234 45237
45234 45448
45234 45453
45235 45236
45236 45237
45236 45238
45237 45239
45237 45240
45238 45239
45238 45241
45238 45242
45239 45240
45240 45388
45240 45447
45240 45473
45241 45242
45242 45387
45243 45462
45243 45468
45244 45245
45244 45461
45245 45246
45246 45247
45247 45248
45248 45249
45248 45250
45248 45380
45249 45250
45250 45380
45250 45459
45252 45259
45252 45407
45254 45259
45255 45256
45257 45258
45257 45259
45257 45260
45258 45259
45260 45288
45260 45291
45261 45262
45262 45318
45262 45319
45270 45275
45270 45277
45270 45278
45271 45272
45271 45275
45271 45452
45272 45273
45272 45274
45272 45275
45273 45274
45273 45320
45273 45322
45274 45275
45274 45322
45276 45277
45276 45279
45277 45278
45277 45279
45278 45279
45279 45280
45279 45281
45279 45282
45279 45327
45280 45327
45280 45328
45281 45282
45281 45283
45281 45327
45281 45409
45282 45283
45282 45284
45282 45285
45283 45334
45283 45409
45283 45410
45284 45285
45285 45286
45285 45287
45286 45287
45286 45290
45286 45292
45286 45293
45287 45288
45287 45290
45287 45291
45288 45289
45288 45291
45289 45452
45290 45291
45292 45293
45292 45299
45292 45437
45293 45295
45293 45437
45295 45298
45295 45300
45295 45437
45298 45300
45298 45301
45298 45435
45299 45300
45299 45437
45300 45435
45300 45437
45301 45435
45312 45313
45312 45436
45313 45314
45314 45349
45318 45319
45327 45328
45327 45409
45328 45330
45328 45331
45328 45332
45328 45409
45330 45331
45330 45334
45330 45335
45330 45409
45331 45332
45331 45335
45334 45335
45334 45409
45334 45410
45335 45336
45336 45338
45340 45341
45341 45345
45341 45346
45342 45343
45342 45345
45343 45347
45345 45346
45347 45348
45347 45351
45348 45349
45348 45350
45348 45351
45349 45350
45350 45351
45380 45405
45380 45460
45381 45382
45381 45461
45382 45383
45383 45384
45384 45385
45385 45386
45386 45387
45386 45389
45387 45388
45387 45389
45388 45389
45388 45401
45388 45447
45389 45401
45401 45447
45405 45406
45405 45407
45405 45460
45406 45407
45410 45411
45447 45473
45453 45472
45453 45473
45462 45468
45472 45473
