ply
format ascii 1.0
comment Exported from MorphoGraphX 2.0 1-254
comment Cellular mesh
element vertex 526
property float x
property float y
property float z
property float signal
element face 265
property list int int vertex_index
property int label
end_header
102.721 12.7207 19.4955 3738.52
128.361 28.3615 19.4955 4397.28
129.002 51.5023 19.4955 4208.37
115.885 63.3694 19.4955 4128.52
89.7432 46.8134 19.4955 3617.33
100.682 88.583 19.4955 3408.45
119.643 90.893 19.4955 3928.47
133.361 98.3615 19.4955 4281.77
127.736 125.268 19.4955 3832.14
96.4944 122.729 19.4955 4057.34
-108.904 189.429 19.4955 4715.75
-114.732 202.736 19.4955 4943.18
-162.394 196.022 19.4955 3594.61
-161.417 169.849 19.4955 4222.61
-163.084 145.682 19.4955 4036.52
-108.912 158.156 19.4955 4686.11
87.7365 325.268 19.4955 2662.73
113.688 344.743 19.4955 2726.53
85.268 357.736 19.4955 2392.71
79.0023 79.0023 19.4955 3425.91
-164.716 290.284 19.4955 2390.25
-140.357 295.893 19.4955 3533.95
-149.115 352.119 19.4955 2806.82
-169.115 338.369 19.4955 2097.49
-176.425 301.908 19.4955 1810.99
-167.264 230.268 19.4955 2787.05
-169.732 207.736 19.4955 2568.82
-116.425 221.908 19.4955 6043.04
-124.724 251.51 19.4955 3032.68
-171.421 256.295 19.4955 2634.42
386.908 81.9084 19.4955 2640.16
400.276 84.0101 19.4955 1612.31
382.742 116.192 19.4955 3226
361.51 95.2759 19.4955 3595.56
361.908 83.5751 19.4955 2455.84
-9.11881 347.733 19.4955 3849.43
-35.3649 382.119 19.4955 3291.86
-59.3179 408.583 19.4955 2909.99
-94.908 404.783 19.4955 5704.22
-58.0916 346.908 19.4955 4438.43
-44.2151 328.688 19.4955 4489.72
61.0882 187.322 19.4955 2371.89
121.096 214.429 19.4955 2890.59
108.583 229.849 19.4955 2830.98
58.3694 214.635 19.4955 2527.65
42.3224 194.422 19.4955 1992.28
255.893 49.643 19.4955 5473.48
249.002 64.0023 19.4955 4578.64
239.643 89.643 19.4955 5284.72
225.893 94.643 19.4955 5101.26
192.721 82.7207 19.4955 3698.53
191.502 76.5023 19.4955 4901.71
208.583 34.8487 19.4955 5701.49
77.1194 80.8851 19.4955 3564.55
84.4215 152.322 19.4955 2417.23
68.5751 166.908 19.4955 3429.03
42.7286 148.994 19.4955 3572.63
126.502 -320.998 19.4955 7334.79
152.721 -312.279 19.4955 8899.38
165.276 -295.99 19.4955 9232.3
160.885 -247.881 19.4955 9186.96
144.635 -242.881 19.4955 8467.66
124.01 -254.724 19.4955 7281.44
126.916 -279.318 19.4955 7817.22
381.502 139.002 19.4955 2043.44
351.096 139.429 19.4955 2260.53
341.916 130.682 19.4955 3537.42
-114.716 305.284 19.4955 4483.11
-120.151 291.916 19.4955 4134.68
-106.317 266.602 19.4955 4560.67
-63.0916 251.908 19.4955 5309.88
-83.0844 309.743 19.4955 5608.03
0.268017 292.736 19.4955 2975.06
11.0961 279.429 19.4955 2525.18
42.1194 294.635 19.4955 1922.3
24.6351 318.369 19.4955 1657.28
9.00225 324.002 19.4955 3111.32
-93.0837 -150.151 19.4955 4213.54
-76.8442 -158.912 19.4955 3698.16
-58.5056 -142.271 19.4955 4774.18
-74.7241 -93.4899 19.4955 5301.43
-102.279 -102.279 19.4955 5443.33
-111.84 -119.942 19.4955 4587.76
285.284 85.2838 19.4955 4462.94
282.721 117.721 19.4955 5607.36
274.422 118.156 19.4955 5835.71
-104.115 118.369 19.4955 5007.87
-96.5265 94.3174 19.4955 4418.11
-63.0837 74.8487 19.4955 4681.13
-47.2793 97.7207 19.4955 5545.87
-53.9118 127.322 19.4955 6142.16
-77.6776 134.422 19.4955 5495.36
-98.0916 133.575 19.4955 4804.45
440.284 -34.7162 19.4955 1704.89
427.22 -5.68393 19.4955 1226.73
417.721 -22.2793 19.4955 2563.85
410.284 -44.7162 19.4955 2964.11
424.643 -55.357 19.4955 2800.85
-55.9977 209.002 19.4955 5500.82
-58.0837 234.849 19.4955 4754.84
80.2838 -4.71622 19.4955 2550.72
74.9977 -19.2411 19.4955 3687.42
89.643 -34.107 19.4955 6524.09
140.284 -4.71622 19.4955 2829.2
159.849 256.916 19.4955 3451.93
188.052 240.781 19.4955 4052.19
204.01 250.276 19.4955 3724.89
174.429 291.096 19.4955 5157.4
156.916 289.849 19.4955 3240.38
-16.2113 202.539 19.4955 6208.09
3.57507 208.575 19.4955 3331.03
29.7393 228.052 19.4955 2952.61
37.3224 254.422 19.4955 3651.62
12.7207 267.721 19.4955 3530.4
-20.1473 236.303 19.4955 6906.71
281.1 -319.934 19.4955 9277.72
286.096 -340.571 19.4955 9575.93
309.957 -333.39 19.4955 10112
318.052 -314.219 19.4955 7679.26
276.908 -153.092 19.4955 6469.16
274.006 -135.361 19.4955 8521.6
260.276 -120.99 19.4955 5952.14
234.422 -116.844 19.4955 5713.39
204.849 -133.084 19.4955 5812.55
206.908 -138.092 19.4955 5239.78
224.643 -179.107 19.4955 7440.39
225.893 -179.107 19.4955 7622.02
152.322 209.422 19.4955 4727.42
183.575 211.908 19.4955 2832.29
146.918 250.061 19.4955 3420.74
229.849 298.583 19.4955 2992.1
264.002 269.002 19.4955 2560.42
280.276 271.51 19.4955 2570.68
242.729 308.994 19.4955 2123.38
67.7207 307.721 19.4955 2262.42
92.7365 295.268 19.4955 2363.06
115.69 305.69 19.4955 4146.01
134.857 325.69 19.4955 3235.48
117.322 344.422 19.4955 1576.47
71.0961 321.096 19.4955 3214.26
-48.4938 304.639 19.4955 4634.74
-28.4977 251.502 19.4955 6643.81
386.908 -48.0916 19.4955 2563.28
388.156 -73.9118 19.4955 2861.75
403.994 -77.2714 19.4955 3653.24
428.583 -80.1513 19.4955 1598.83
434.643 -74.107 19.4955 1320.46
-5.35698 150.893 19.4955 4586.2
-22.5708 180.372 19.4955 6002.95
-59.732 172.736 19.4955 6607.81
-49.3179 138.583 19.4955 6043.24
21.9084 -41.4249 19.4955 3586.92
35.6821 -23.0837 19.4955 3800
18.1558 9.42155 19.4955 983.15
-31.6306 -5.36487 19.4955 2404.28
-24.7241 -33.4899 19.4955 5269.53
290.284 -264.716 19.4955 6665.62
311.092 -263.291 19.4955 7586.49
334.849 -241.417 19.4955 5919.07
348.156 -220.578 19.4955 6309.39
344.849 -198.084 19.4955 5971.82
301.096 -218.904 19.4955 6243.74
289.422 -237.678 19.4955 5760.83
279.002 29.0023 19.4955 4095.82
289.639 54.0062 19.4955 3978.69
298.47 76.8056 19.4955 4861.51
300.483 -170.567 19.4955 6924.96
286.096 -155.571 19.4955 8208.29
241.096 -210.571 19.4955 8239.39
284.002 -193.498 19.4955 9114.32
78.3615 -176.639 19.4955 7172.71
91.0882 -196.844 19.4955 6970.38
106.494 -187.271 19.4955 6964.12
109.429 -173.904 19.4955 8256.21
97.1115 -116.639 19.4955 7365.71
80.6821 -111.417 19.4955 5162.21
61.5101 -119.724 19.4955 7386.12
-68.9039 -223.904 19.4955 5644.64
-36.4922 -208.637 19.4955 4940.26
-28.9039 -189.321 19.4955 6001
-73.9039 -183.904 19.4955 4216.1
-77.2793 -187.279 19.4955 5537.51
282.829 158.04 19.4955 4026.57
302.721 162.721 19.4955 2477.29
322.721 192.721 19.4955 2135.72
310.885 218.369 19.4955 2353.82
283.571 212.938 19.4955 2288.47
271.494 197.729 19.4955 2473.73
141.916 -384.318 19.4955 9361.64
151.908 -398.092 19.4955 9506.31
164.643 -424.107 19.4955 9792.29
183.683 -418.398 19.4955 11064.5
177.729 -391.006 19.4955 9482.97
151.916 -364.318 19.4955 7491.8
-263.506 -147.271 19.4955 3352.23
-245.151 -141.417 19.4955 2843.53
-245.151 -101.417 19.4955 2038.25
-281.425 -96.4249 19.4955 1450.17
-273.49 -124.724 19.4955 1165.83
187.322 174.422 19.4955 4190.1
196.494 192.729 19.4955 3382.91
131.096 206.096 19.4955 4277.43
130.268 182.736 19.4955 2677.77
139.002 164.002 19.4955 3196.42
156.494 377.729 19.4955 927.173
111.916 405.682 19.4955 544.405
84.4294 389.429 19.4955 600.133
77.7207 367.721 19.4955 1476.03
-189.111 -303.494 19.4955 4206.44
-199.115 -271.631 19.4955 5056.97
-203.498 -253.498 19.4955 5808.3
-237.264 -279.732 19.4955 4413.07
278.994 2.7286 19.4955 2683.23
282.326 -19.9416 19.4955 3610.73
310.284 -4.71622 19.4955 2360.29
316.908 38.5751 19.4955 3495.75
304.422 52.3224 19.4955 3573.57
407.322 -5.57845 19.4955 1703.34
403.575 21.9084 19.4955 1495.31
387.736 35.268 19.4955 1479.03
351.502 36.5023 19.4955 2561.24
340.276 26.5101 19.4955 2701.86
352.119 0.885134 19.4955 1554.06
367.721 -12.2793 19.4955 1611.26
10.8851 28.3694 19.4955 2360.93
50.893 34.643 19.4955 2939.09
44.643 70.893 19.4955 2474.36
16.9163 90.6821 19.4955 2278.33
-15.357 65.893 19.4955 4240.06
-210.151 288.583 19.4955 1788.29
-203.774 332.049 19.4955 1437.83
-218.506 297.729 19.4955 1267.76
151.91 143.477 19.4955 3866.86
-187.264 -49.732 19.4955 2351.53
-168.092 -73.0916 19.4955 3486.55
-141.417 -59.3179 19.4955 2914.1
-138.498 -13.4977 19.4955 3295.83
-154.732 2.73649 19.4955 2172.75
-182.271 -6.00563 19.4955 764.462
-186.006 -27.2714 19.4955 2468.91
-248.084 255.682 19.4955 681.286
-235.261 298.052 19.4955 1081.39
-242.885 316.498 19.4955 711.957
-281.006 252.729 19.4955 790.58
-275.998 214.002 19.4955 1475.88
-242.271 208.994 19.4955 1828.86
-233.506 227.729 19.4955 1482.78
330.284 70.2838 19.4955 3270.19
317.119 90.8851 19.4955 5092.27
300.284 135.284 19.4955 4479.01
308.575 152.325 19.4955 3927.77
256.908 146.908 19.4955 3910.56
4.42155 403.156 19.4955 703.771
21.7119 395.683 19.4955 676.321
50.2838 405.284 19.4955 462.805
22.7286 431.494 19.4955 318.293
-9.7241 426.51 19.4955 437.921
-256.741 182.112 19.4955 2043.59
-233.904 196.096 19.4955 1743.13
-279.514 189.964 19.4955 1665.41
383.583 -34.3179 19.4955 2663.2
156.295 56.9123 19.4955 4481.71
220.682 16.9163 19.4955 4237.68
231.506 -10.3609 19.4955 3238.4
38.583 -289.318 19.4955 5877.69
40.2759 -258.49 19.4955 5705.95
-5.35698 -269.107 19.4955 5896.14
-35.5706 -295.571 19.4955 6296.54
190.268 -242.264 19.4955 8612.58
184.635 -221.631 19.4955 8684.68
167.736 -204.732 19.4955 9160.93
146.502 -208.498 19.4955 7907.67
-121.844 399.422 19.4955 4207.58
-88.4899 340.276 19.4955 5088.07
58.5751 -68.0916 19.4955 5500.9
67.7207 -57.2793 19.4955 5874.39
50.893 -25.357 19.4955 4968.95
25.268 -67.2635 19.4955 3677.88
37.7286 -73.5056 19.4955 6099.71
-152.271 96.4944 19.4955 5280.54
-163.976 58.8638 19.4955 4066
-144.318 56.9163 19.4955 4155.58
-122.279 67.7207 19.4955 4587.58
244.002 189.002 19.4955 2991.34
206.088 162.322 19.4955 3310.12
216.51 145.276 19.4955 5758.72
249.643 259.643 19.4955 2971.16
247.721 237.721 19.4955 2589.58
319.422 228.156 19.4955 1775.43
-267.881 114.635 19.4955 1627.54
-239.318 116.916 19.4955 2456.81
-238.084 159.849 19.4955 2232.26
-185.578 17.3224 19.4955 1498.32
-179.111 26.5062 19.4955 2949.24
-202.271 36.4944 19.4955 3897.67
-234.318 28.583 19.4955 1944.08
-229.724 1.51013 19.4955 1024.13
422.052 31.5686 19.4955 2338.56
189.422 298.156 19.4955 3041.13
192.736 310.268 19.4955 2336.77
185.268 327.736 19.4955 1772.97
182.111 332.111 19.4955 2427.34
220.466 199.216 19.4955 2882.35
215.997 225.586 19.4955 2882.26
211.096 249.429 19.4955 3566.29
169.643 -190.357 19.4955 9741.4
230.466 -223.701 19.4955 7650.38
334.849 -33.0837 19.4955 2122.64
322.721 -12.2793 19.4955 2225.7
284.429 -45.5706 19.4955 3841.52
298.994 -57.2714 19.4955 4635.6
60.893 405.893 19.4955 637.92
59.4215 428.156 19.4955 224.456
345.284 -254.716 19.4955 5962.63
337.322 -273.912 19.4955 7324.38
355.466 -303.701 19.4955 8479.5
379.422 -301.844 19.4955 7224.13
382.725 -281.642 19.4955 6218.61
171.916 -89.3179 19.4955 6255.98
172.721 -72.2793 19.4955 6411.97
164.422 -66.8442 19.4955 4916.97
118.361 -87.8885 19.4955 6910.29
120.268 -97.2635 19.4955 6836.24
136.98 -110.859 19.4955 6925.96
-143.359 39.3905 19.4955 4752.84
-201.417 45.6821 19.4955 4519.98
-301.639 -156.639 19.4955 1394.24
-283.498 -155.998 19.4955 2391.23
-199.318 -216.417 19.4955 6277.98
-173.904 -205.571 19.4955 5079.98
-164.732 -197.264 19.4955 4683.83
-158.506 -172.271 19.4955 3273.5
-177.279 -157.279 19.4955 4724.16
-212.264 -184.732 19.4955 5394.09
-283.084 -200.257 19.4955 3090.01
-302.064 -201.853 19.4955 1908.02
-142.678 -115.578 19.4955 3681.58
-115.578 -156.844 19.4955 2984.06
-79.7162 40.2838 19.4955 5566.4
-57.2714 36.4944 19.4955 5403.53
-55.5706 51.0961 19.4955 3422.27
239.849 -238.084 19.4955 8831
244.422 -256.844 19.4955 7030.77
245.893 -285.357 19.4955 8087.01
276.096 -290.571 19.4955 7891.09
-47.8806 9.63513 19.4955 4586.28
-79.732 -12.2635 19.4955 4026.2
-86.7387 -38.8089 19.4955 5479.04
-64.732 -77.2635 19.4955 5473.12
-38.4938 -75.3609 19.4955 5684.67
-252.889 77.1115 19.4955 2357.4
-227.889 108.361 19.4955 2924.08
-284.425 72.6323 19.4955 1038.75
-205.151 203.583 19.4955 2736.73
-190.998 171.502 19.4955 3902
48.1558 336.088 19.4955 2265.32
35.2759 361.51 19.4955 1715.55
293.994 -402.271 19.4955 9602.82
319.635 -366.631 19.4955 9644.42
318.361 -362.889 19.4955 9862.89
290.268 -367.264 19.4955 9894.62
238.571 -307.478 19.4955 10498.4
212.736 -329.732 19.4955 8837.3
230.69 -364.31 19.4955 9513.9
241.916 -385.151 19.4955 11052.2
262.736 -379.732 19.4955 11605.7
262.729 -353.506 19.4955 10482.2
50.2838 -294.716 19.4955 8499.22
78.9944 -282.271 19.4955 7389.62
85.2838 -244.716 19.4955 7769.26
54.4215 -216.844 19.4955 6356.7
23.9944 -232.271 19.4955 5506.1
-113.092 -68.0916 19.4955 5728.35
-160.578 -102.678 19.4955 4419.72
238.361 -61.6385 19.4955 4351.22
258.156 -65.5785 19.4955 3803.13
-126.425 -201.425 19.4955 5228.91
-115.357 -219.107 19.4955 5186.83
-83.7738 -247.951 19.4955 4493.6
-57.8182 -236.285 19.4955 5392.89
313.575 -336.425 19.4955 8797.82
350.582 -336.098 19.4955 9334.91
317.119 -284.115 19.4955 7378.96
286.916 -349.318 19.4955 9475.78
221.908 266.908 19.4955 2946.09
-153.092 -253.092 19.4955 4105.31
-160.998 -225.998 19.4955 5880.47
-205.998 -233.498 19.4955 6232.74
311.916 -74.3179 19.4955 3770.58
268.156 -98.9118 19.4955 4271.9
437.736 -124.732 19.4955 1316.75
414.429 -113.904 19.4955 3841.35
431.494 -132.271 19.4955 2867.12
222.322 334.422 19.4955 1211.09
175.284 365.284 19.4955 867.4
154.002 -38.4977 19.4955 5995.69
111.096 -63.9039 19.4955 5281.3
89.643 280.893 19.4955 2169.75
-13.4977 -128.498 19.4955 4227.88
16.9156 -125.257 19.4955 5010.66
38.1558 -105.578 19.4955 5255.77
-25.5785 -91.8442 19.4955 3866.7
319.849 -113.084 19.4955 4774.55
319.002 -88.4977 19.4955 6168.44
-202.279 112.721 19.4955 3350.65
-196.844 131.088 19.4955 3919.79
-213.49 160.276 19.4955 4117.37
191.502 164.002 19.4955 3844.33
210.268 -67.2635 19.4955 6253.9
195.682 -61.417 19.4955 5153.84
178.575 -16.4249 19.4955 4684.54
147.729 -18.5056 19.4955 4838.29
382.864 -146.925 19.4955 6972.83
385.486 -140.142 19.4955 7269.8
359.006 -125.361 19.4955 6182.74
340.284 -124.716 19.4955 6443.72
325.268 -137.264 19.4955 8273.92
330.466 -148.701 19.4955 7744.66
344.422 -157.678 19.4955 7843.51
11.5023 -195.998 19.4955 6828.3
42.9356 -166.853 19.4955 6262.99
-24.732 -142.264 19.4955 5707.45
-9.7241 -185.99 19.4955 5710.95
189.01 0.2759 19.4955 3537.67
-48.0837 -280.151 19.4955 5365.66
380.268 -82.2635 19.4955 4638.53
340.418 -44.3764 19.4955 3534.3
347.729 -76.0056 19.4955 2699.79
364.212 -86.421 19.4955 4849.19
157.322 56.0882 19.4955 3437.51
166.494 117.729 19.4955 5754.81
164.002 136.502 19.4955 3771.05
390.268 -117.264 19.4955 5337.28
-88.5056 187.729 19.4955 6725.73
-62.2635 185.268 19.4955 6154.65
10.2838 115.284 19.4955 3654.53
371.096 191.096 19.4955 1446.17
336.096 189.429 19.4955 2418.35
-137.271 368.994 19.4955 3613.3
205.268 282.736 19.4955 3312.44
-258.494 -205.361 19.4955 5091.95
-240.353 -179.72 19.4955 5613.77
-232.881 -154.115 19.4955 4596.15
-254.318 -278.084 19.4955 4827.97
-251.421 -233.705 19.4955 5895.25
-263.084 -229.318 19.4955 4131.64
-284.107 -229.107 19.4955 3503.94
414.002 -210.998 19.4955 4763.51
418.575 -176.425 19.4955 4256.41
405.885 -171.631 19.4955 5066.28
394.643 -170.357 19.4955 5982.15
388.265 -185.047 19.4955 5102.18
398.128 -213.022 19.4955 4839.1
394.849 -243.084 19.4955 3773.77
407.736 -254.732 19.4955 4869.88
4.42943 136.096 19.4955 3380.3
29.0023 154.002 19.4955 2816.76
28.7873 188.576 19.4955 2926.32
338.369 70.8851 19.4955 2536.18
51.5023 -203.498 19.4955 8139.42
365.679 -225.571 19.4955 4999.22
115.682 266.916 19.4955 1711.74
130.276 249.01 19.4955 3051.93
148.575 -156.425 19.4955 7813.63
181.502 -485.998 19.4955 10937.3
181.096 -440.571 19.4955 10746.9
149.433 -449.517 19.4955 8857.25
190.268 -457.264 19.4955 11644.2
219.849 -443.084 19.4955 10410.5
209.643 -384.107 19.4955 10958.9
201.506 -375.361 19.4955 11374.9
186.502 -385.998 19.4955 9937.1
-132.271 -196.006 19.4955 4910.39
-123.498 -168.498 19.4955 4745.98
-138.092 -263.092 19.4955 3634.13
-90.1513 -263.084 19.4955 4261.55
110.885 -227.881 19.4955 8902
208.158 123.575 19.4955 5118.91
343.369 -359.115 19.4955 9182.19
-131.213 23.5764 19.4955 3934.76
-100.571 16.0961 19.4955 5085.69
-147.264 -304.732 19.4955 3849.41
-228.084 -94.3179 19.4955 2624.76
-218.092 -73.0916 19.4955 3435.94
-230.99 -44.7241 19.4955 1628.91
-242.678 -33.9118 19.4955 1085.46
-254.716 40.2838 19.4955 3376.63
-246.639 58.3615 19.4955 3103
92.1818 -56.2852 19.4955 6265.96
-170.151 118.583 19.4955 3747.2
393.365 -136.002 19.4955 6223.5
444.643 -74.107 19.4955 1660.75
333.369 160.885 19.4955 2461.73
-205.357 65.893 19.4955 4583.58
202.721 -267.279 19.4955 7715.62
195.049 -288.701 19.4955 9205.28
207.319 -331.215 19.4955 8776.27
-208.912 233.156 19.4955 1469.89
434.002 -155.998 19.4955 3765.4
414.712 -148.766 19.4955 4451.71
120.682 -411.417 19.4955 8090.5
-105.571 -43.9039 19.4955 5660.41
180.268 -347.264 19.4955 10636.7
162.721 -332.279 19.4955 7322.38
114.643 -344.107 19.4955 6986
118.575 -366.425 19.4955 5985.27
279.002 -408.498 19.4955 11275.3
235.276 -398.49 19.4955 11252.5
239.422 -402.678 19.4955 11346.3
267.729 -443.506 19.4955 9287.12
145.284 -159.716 19.4955 7438.78
316.096 126.096 19.4955 4216.31
-92.2635 -294.732 19.4955 4987.15
226.506 324.639 19.4955 2369.29
96.5023 -378.498 19.4955 7768.8
86.7119 -344.317 19.4955 7833.18
73.1545 -358.707 19.4955 7962.99
50.8851 228.369 19.4955 2686.34
-215.578 -126.844 19.4955 5631.95
-180.571 -120.571 19.4955 4847.06
201.502 -470.998 19.4955 12095.7
240.682 -433.084 19.4955 10577.8
249.422 -451.844 19.4955 11044.2
236.096 -480.571 19.4955 7646.04
221.916 -445.151 19.4955 11236.2
90.2838 -294.716 19.4955 8988.64
5 388 310 309 375 389 357
4 486 487 350 352 1209
7 340 339 345 154 153 224 228 421
5 130 439 384 286 131 301
5 32 64 65 66 33 437
6 263 374 375 309 213 212 1155
4 82 336 337 77 330
6 89 88 340 228 227 435 827
5 464 465 191 190 466 1237
5 151 152 153 154 155 417
4 443 444 445 446 1275
5 219 30 34 458 220 667
6 307 308 214 213 309 310 638
6 310 388 403 427 426 307 1014
5 394 204 138 137 301 1205
4 301 300 393 394 1031
5 287 286 384 304 303 298
6 376 377 378 379 177 181 751
7 371 419 422 179 178 266 265 450
7 265 264 367 368 369 370 371 853
7 366 383 116 115 344 343 361 1255
6 361 362 363 364 365 366 1248
5 446 445 440 334 335 1274
4 334 327 326 335 1272
4 194 198 326 327 1273
6 341 342 343 344 156 162 1269
6 162 161 169 168 306 341 754
7 168 126 125 305 270 269 306 1152
6 318 319 320 321 322 323 502
7 334 440 441 442 195 194 327 1271
5 370 459 420 419 371 590
6 419 420 399 398 421 422 529
6 406 354 353 258 257 291 668
7 451 450 412 418 160 159 460 1177
4 460 453 452 451 654
5 323 463 124 123 318 1147
6 161 160 418 417 166 169 729
6 377 386 385 474 475 378 1171
4 264 265 266 267 446
6 271 172 171 476 62 61 1120
5 194 195 196 197 198 464
6 166 167 119 126 168 169 1162
4 320 395 396 321 1149
6 196 482 483 484 485 197 545
6 395 411 103 102 488 396 1176
4 166 417 416 167 631
6 338 339 340 88 87 282 844
6 282 281 324 479 480 338 1180
6 178 177 379 424 267 266 642
6 395 320 319 409 410 411 615
8 410 423 429 261 2 1 103 411 1224
6 416 415 402 120 119 167 524
7 412 413 414 415 416 417 418 1129
6 402 403 388 389 121 120 913
6 1 0 100 101 102 103 1053
6 421 79 78 180 179 422 830
5 378 475 512 424 379 692
6 413 490 432 425 428 414 1261
5 350 351 290 289 352 507
7 374 263 262 423 410 409 408 945
6 398 399 400 278 277 401 532
5 297 31 30 219 218 1216
5 289 290 291 257 259 487
5 261 7 6 3 2 1201
6 187 283 284 285 251 182 1214
6 87 86 279 280 281 282 1030
5 349 401 277 151 155 415
9 261 429 51 50 430 431 232 8 7 548
6 61 60 268 269 270 271 582
5 313 314 315 316 317 1264
6 260 142 96 95 217 223 944
5 257 258 245 244 259 1193
5 244 245 246 240 243 416
7 425 143 142 260 426 427 428 1183
4 240 241 242 243 526
6 232 203 202 54 9 8 1127
5 431 407 199 203 232 627
5 224 225 226 227 228 568
7 212 213 214 215 216 164 163 594
6 459 170 176 400 399 420 709
7 199 200 128 127 201 202 203 597
6 291 290 351 404 405 406 629
7 86 87 88 89 90 91 92 858
6 188 189 190 191 192 193 1235
6 86 92 15 14 489 279 970
6 212 163 46 52 262 263 1217
6 435 455 147 150 90 89 388
5 177 178 179 180 181 371
6 260 223 222 308 307 426 663
6 127 129 462 43 42 201 1203
7 148 147 455 456 457 110 109 511
6 47 46 163 164 165 83 648
4 147 148 149 150 1188
5 15 92 91 433 10 540
5 127 128 105 104 129 554
8 119 120 121 122 123 124 125 126 1154
5 164 216 247 248 165 685
8 104 108 136 135 397 461 462 129 1204
6 109 110 111 112 113 114 483
7 217 218 219 220 221 222 223 946
6 10 433 434 98 27 11 954
5 104 105 106 107 108 598
6 114 113 73 72 140 141 426
6 83 165 248 511 249 84 539
6 98 99 70 69 28 27 861
4 272 273 39 38 1157
8 108 107 298 299 300 301 137 136 1158
5 83 84 85 48 47 788
5 40 140 72 76 35 644
4 316 315 381 478 1266
5 72 73 74 75 76 575
7 249 250 183 182 251 85 84 428
6 121 389 375 374 408 122 543
5 67 68 69 70 71 605
6 68 21 20 29 28 69 1115
8 36 35 76 75 355 356 253 252 486
6 408 409 319 318 123 122 1156
7 204 205 206 207 18 17 138 1229
5 71 273 272 438 67 1190
6 182 183 184 185 186 187 694
4 252 256 37 36 375
7 57 58 59 60 61 62 63 1230
5 252 253 254 255 256 652
6 35 36 37 38 39 40 1093
6 150 149 434 433 91 90 705
5 30 31 32 33 34 1280
8 181 180 78 77 337 473 472 376 1172
7 132 131 286 287 186 185 288 700
7 445 444 387 328 333 441 440 619
5 214 308 222 221 215 963
4 130 131 132 133 811
5 64 436 437 492 65 1140
8 140 40 39 273 71 70 99 141 775
7 342 494 495 496 362 361 343 1270
5 436 288 185 184 437 1084
5 400 176 175 274 278 683
7 353 26 25 497 246 245 258 849
8 191 465 467 468 469 470 471 192 1243
7 274 275 276 152 151 277 278 129
6 77 78 79 80 81 82 832
6 215 221 220 458 247 216 852
4 190 189 500 466 1236
7 276 101 100 225 224 153 152 712
7 155 154 345 346 347 348 349 755
6 81 80 348 347 501 372 834
4 498 499 449 448 338
8 109 114 141 99 98 434 149 148 1222
7 501 347 346 480 479 237 236 1065
5 193 192 471 502 503 1246
7 46 47 48 49 50 51 52 1166
5 346 345 339 338 480 921
6 392 391 432 490 499 498 1262
7 193 503 58 57 504 505 188 1232
6 58 503 502 496 495 59 1231
6 251 285 477 49 48 85 1168
7 225 100 0 4 19 53 226 886
5 59 495 494 268 60 655
5 390 145 144 391 392 1128
4 390 491 146 145 564
6 506 365 364 507 508 509 1249
6 287 303 302 283 187 186 576
6 510 173 172 271 270 305 1218
7 248 247 458 34 33 66 511 1281
5 305 125 124 463 510 1080
6 283 302 200 199 407 284 1170
4 146 491 93 97 233
7 435 227 226 53 56 456 455 691
5 443 211 210 387 444 662
5 93 94 95 96 97 344
4 357 358 359 360 1257
5 21 68 67 438 22 1117
4 512 475 474 481 1279
6 511 66 65 492 250 249 856
6 357 360 383 366 365 506 1251
4 208 209 210 211 715
7 53 19 5 9 54 55 56 909
6 359 380 117 116 383 360 1252
6 486 295 294 325 493 487 626
5 423 262 52 51 429 623
4 115 116 117 118 1254
5 250 492 437 184 183 740
6 56 55 41 45 457 456 693
6 115 118 382 157 156 344 835
7 156 157 158 159 160 161 162 674
6 240 246 497 229 231 241 610
7 398 401 349 348 80 79 421 767
6 328 329 330 331 332 333 759
6 45 44 517 111 110 457 542
6 333 332 519 518 442 441 719
5 517 461 397 112 111 891
5 518 482 196 195 442 593
6 133 513 299 298 439 130 1113
7 112 397 135 134 74 73 113 892
7 519 373 234 233 483 482 518 782
4 233 239 484 483 114
5 75 74 134 139 355 671
6 239 238 292 296 485 484 681
5 188 505 514 500 189 1234
5 297 218 217 95 94 293
4 520 467 465 464 1238
6 355 139 16 18 207 356 805
6 207 206 311 254 253 356 747
5 292 293 294 295 296 744
7 317 454 453 460 159 158 313 1174
4 255 254 311 312 124
4 447 452 453 454 1268
5 487 493 404 351 350 653
4 521 522 509 508 1250
6 447 448 449 450 451 452 504
6 405 489 14 13 354 406 791
6 362 496 502 471 470 363 1247
4 50 49 477 430 894
7 97 96 142 143 144 145 146 940
6 430 477 285 284 407 431 841
4 523 522 521 524 1240
6 499 490 413 412 450 449 1061
6 497 25 29 20 24 229 820
5 364 363 470 469 507 1245
5 229 24 23 230 231 825
4 242 241 231 230 632
5 391 144 143 425 432 935
6 342 341 306 269 268 494 1074
5 516 515 525 368 367 818
5 208 481 474 385 209 923
7 209 385 386 329 328 387 210 812
6 510 463 323 322 174 173 1122
7 325 280 279 489 405 404 493 816
6 106 304 384 439 298 107 843
7 200 302 303 304 106 105 128 901
5 41 42 43 44 45 836
4 299 513 393 300 792
5 359 358 478 381 380 1253
7 117 380 381 315 314 382 118 1265
5 382 314 313 158 157 837
6 428 427 403 402 415 414 1260
5 63 525 515 504 57 1044
5 524 468 467 520 523 1239
6 294 293 324 281 280 325 191
7 170 171 172 173 174 175 176 905
5 353 354 13 12 26 764
8 134 135 136 137 138 17 16 139 1068
6 370 369 476 171 170 459 932
5 275 488 102 101 276 795
5 44 43 462 461 517 1003
7 372 235 234 373 336 82 81 1110
7 233 234 235 236 237 238 239 870
4 311 206 205 312 975
5 514 505 504 515 516 1233
6 386 377 376 472 330 329 1060
6 521 508 507 469 468 524 1244
6 238 237 479 324 293 292 968
8 175 174 322 321 396 488 275 274 1026
6 55 54 202 201 42 41 1029
4 330 472 473 331 986
7 332 331 473 337 336 373 519 1105
6 525 63 62 476 369 368 1083
4 501 236 235 372 1063
7 25 26 12 11 27 28 29 1034
5 20 21 22 23 24 937
0 -1
5 4 3 6 5 19 1057
3 16 17 18 1006
6 10 11 12 13 14 15 1182
5 5 6 7 8 9 1059
5 0 1 2 3 4 1092
