ply
format ascii 1.0
comment Exported from MorphoGraphX 2.0.1-254
comment Cell Graph: each vertex is a cell, each edge a wall
element vertex 177
property int label
property float x
property float y
property float z
element edge 487
property uint source
property uint target
end_header
565 0 0 0 
573 0 0 0 
585 0 0 0 
589 0 0 0 
591 0 0 0 
595 0 0 0 
596 0 0 0 
598 0 0 0 
599 0 0 0 
600 0 0 0 
606 0 0 0 
608 0 0 0 
612 0 0 0 
613 0 0 0 
616 0 0 0 
617 0 0 0 
618 0 0 0 
622 0 0 0 
628 0 0 0 
629 0 0 0 
631 0 0 0 
632 0 0 0 
642 0 0 0 
645 0 0 0 
646 0 0 0 
648 0 0 0 
649 0 0 0 
652 0 0 0 
653 0 0 0 
654 0 0 0 
659 0 0 0 
660 0 0 0 
666 0 0 0 
667 0 0 0 
669 0 0 0 
670 0 0 0 
672 0 0 0 
674 0 0 0 
676 0 0 0 
678 0 0 0 
681 0 0 0 
694 0 0 0 
704 0 0 0 
710 0 0 0 
715 0 0 0 
717 0 0 0 
718 0 0 0 
723 0 0 0 
724 0 0 0 
727 0 0 0 
729 0 0 0 
732 0 0 0 
733 0 0 0 
736 0 0 0 
738 0 0 0 
739 0 0 0 
743 0 0 0 
745 0 0 0 
747 0 0 0 
752 0 0 0 
762 0 0 0 
763 0 0 0 
764 0 0 0 
765 0 0 0 
766 0 0 0 
767 0 0 0 
769 0 0 0 
771 0 0 0 
772 0 0 0 
775 0 0 0 
778 0 0 0 
779 0 0 0 
783 0 0 0 
785 0 0 0 
786 0 0 0 
788 0 0 0 
789 0 0 0 
790 0 0 0 
794 0 0 0 
799 0 0 0 
801 0 0 0 
802 0 0 0 
803 0 0 0 
809 0 0 0 
810 0 0 0 
812 0 0 0 
814 0 0 0 
822 0 0 0 
825 0 0 0 
827 0 0 0 
835 0 0 0 
836 0 0 0 
837 0 0 0 
839 0 0 0 
840 0 0 0 
845 0 0 0 
847 0 0 0 
849 0 0 0 
850 0 0 0 
851 0 0 0 
852 0 0 0 
853 0 0 0 
854 0 0 0 
857 0 0 0 
865 0 0 0 
866 0 0 0 
868 0 0 0 
869 0 0 0 
870 0 0 0 
872 0 0 0 
873 0 0 0 
875 0 0 0 
882 0 0 0 
883 0 0 0 
885 0 0 0 
886 0 0 0 
888 0 0 0 
895 0 0 0 
896 0 0 0 
898 0 0 0 
900 0 0 0 
901 0 0 0 
902 0 0 0 
903 0 0 0 
905 0 0 0 
907 0 0 0 
908 0 0 0 
909 0 0 0 
911 0 0 0 
912 0 0 0 
913 0 0 0 
914 0 0 0 
916 0 0 0 
925 0 0 0 
927 0 0 0 
928 0 0 0 
930 0 0 0 
931 0 0 0 
932 0 0 0 
934 0 0 0 
935 0 0 0 
936 0 0 0 
938 0 0 0 
939 0 0 0 
940 0 0 0 
945 0 0 0 
947 0 0 0 
948 0 0 0 
949 0 0 0 
950 0 0 0 
952 0 0 0 
953 0 0 0 
954 0 0 0 
955 0 0 0 
957 0 0 0 
959 0 0 0 
961 0 0 0 
965 0 0 0 
966 0 0 0 
967 0 0 0 
968 0 0 0 
970 0 0 0 
972 0 0 0 
973 0 0 0 
979 0 0 0 
982 0 0 0 
996 0 0 0 
997 0 0 0 
998 0 0 0 
999 0 0 0 
1000 0 0 0 
1001 0 0 0 
1002 0 0 0 
1003 0 0 0 
1004 0 0 0 
1005 0 0 0 
1006 0 0 0 
565 743
565 763
565 794
565 801
573 672
573 704
573 717
573 769
573 948
573 979
585 724
585 727
585 952
585 968
585 982
585 996
585 999
589 670
589 752
589 954
589 982
589 999
591 596
591 670
591 674
591 739
591 752
595 600
595 718
595 727
595 772
596 616
596 738
596 739
596 752
596 886
598 608
598 779
598 803
598 839
598 1004
599 717
599 769
599 771
599 837
599 870
599 873
600 727
600 772
600 903
600 905
600 996
600 997
606 743
606 786
606 794
606 851
606 854
606 914
606 916
608 803
608 839
608 840
608 853
612 629
612 799
612 827
612 885
612 1003
612 1006
613 676
613 745
613 898
616 739
616 783
616 849
616 886
616 909
617 618
617 694
617 710
617 788
617 902
618 710
618 802
618 857
618 902
618 957
618 961
622 723
622 732
622 857
622 865
622 911
628 645
628 845
628 847
628 895
629 642
629 648
629 653
629 868
629 885
629 1003
631 632
631 840
631 852
631 853
631 900
631 913
632 853
632 913
632 931
642 653
642 654
642 868
642 888
642 938
645 895
645 934
645 935
646 895
646 896
646 925
646 935
646 948
648 653
648 885
648 908
648 927
648 928
649 654
649 888
649 900
649 930
652 704
652 715
652 766
652 767
652 947
652 965
652 966
653 928
653 938
653 954
654 888
654 930
654 938
654 955
659 790
659 854
659 916
660 672
660 717
660 718
660 771
660 772
660 949
666 869
666 870
666 959
667 676
667 745
667 872
667 873
667 875
667 903
667 932
667 959
669 729
669 909
669 967
669 970
669 1001
670 674
670 752
670 938
670 954
672 717
672 948
672 949
674 739
674 775
674 783
674 938
674 955
676 745
676 785
676 872
676 898
678 743
678 786
678 789
678 801
678 972
681 694
681 785
681 788
681 872
681 905
681 932
681 936
694 710
694 788
694 936
694 967
704 715
704 769
704 966
704 979
710 729
710 802
710 967
715 767
715 769
715 837
717 769
717 771
718 724
718 727
718 772
718 949
718 950
723 729
723 732
723 802
723 857
723 970
723 973
724 727
724 950
724 952
727 996
729 802
729 967
729 970
732 790
732 812
732 865
732 914
732 916
732 973
733 747
733 764
733 765
736 738
736 752
736 814
736 999
736 1002
738 752
738 886
738 1002
739 783
743 786
743 794
743 801
745 959
747 765
747 779
747 1005
752 999
762 764
762 778
762 810
763 801
763 940
764 765
764 799
764 810
764 1006
765 1005
765 1006
766 767
766 869
767 837
767 869
769 837
771 772
771 873
772 873
772 875
772 903
775 783
775 789
775 939
775 955
778 809
778 810
779 1004
779 1005
783 786
783 789
783 849
785 788
785 872
785 898
785 901
786 789
786 849
786 851
788 901
788 902
789 939
789 972
790 812
790 916
794 854
799 810
799 827
799 1006
801 940
801 972
802 857
803 853
809 810
809 825
809 835
810 825
810 827
810 836
812 865
814 998
814 999
814 1002
822 835
822 845
822 847
825 835
825 836
825 866
827 836
827 885
835 847
835 866
835 882
836 866
836 883
836 885
837 869
837 870
839 840
839 850
839 852
839 888
839 1004
840 852
840 853
845 847
847 882
847 895
847 896
849 851
849 909
849 912
850 868
850 888
850 1003
850 1004
851 912
851 914
852 888
852 900
854 916
857 911
857 961
865 911
866 882
866 883
866 907
868 888
868 1003
869 870
870 873
870 959
872 932
873 875
873 959
875 903
882 896
882 907
883 885
883 907
883 908
885 908
886 909
886 1001
886 1002
888 900
895 896
895 935
896 907
896 925
898 901
898 945
900 913
900 930
900 939
901 902
901 945
901 953
902 953
902 957
903 905
903 932
905 932
905 936
905 997
907 908
907 925
907 927
907 950
908 927
909 912
909 970
909 1001
911 961
912 914
912 970
912 973
913 931
913 939
913 940
913 972
914 916
914 973
925 948
925 949
925 950
927 928
927 950
927 952
927 968
928 954
928 968
928 982
930 939
930 955
931 940
934 935
934 947
934 965
934 966
935 948
935 966
935 979
936 967
936 997
936 1000
938 954
938 955
939 955
939 972
940 972
945 953
947 965
948 949
948 979
949 950
950 952
952 968
953 957
954 982
957 961
965 966
966 979
967 1000
967 1001
968 982
970 973
982 999
996 997
996 998
996 999
997 998
997 1000
998 999
998 1000
998 1001
998 1002
1000 1001
1001 1002
1003 1004
1003 1006
1004 1005
1004 1006
1005 1006
