ply
format ascii 1.0
comment Exported from MorphoGraphX 2.0 1-254
comment Cellular mesh
element vertex 352
property float x
property float y
property float z
property float signal
element face 177
property list int int vertex_index
property int label
end_header
1.68388 13.9562 17.8742 61059.5
-0.827667 8.57975 19.2242 60007.2
0.132478 7.30962 19.1126 53825.6
3.43027 7.84459 18.4859 55213.7
5.65381 11.5604 17.5829 53408.7
4.59121 14.2127 17.3439 61334.7
32.0445 6.44276 8.28961 47701.2
29.2185 6.19602 9.69526 55409.7
28.3936 2.22051 10.2218 51382.4
31.3492 0.656125 8.75455 52158.7
32.8693 0.752896 7.9335 50905.2
-3.66803 9.69107 19.4976 54565.3
-2.8171 14.876 18.2022 53012.6
-4.34196 11.7557 19.1961 49579.1
1.29892 -1.70107 19.2181 60342.3
4.7094 -4.02867 18.6864 55879.3
5.64 -3.35162 18.5539 55670.7
7.72522 2.61784 18.1014 56851.4
6.21838 4.79612 18.253 58210.3
4.77421 5.18286 18.4631 54997.4
2.3107 -16.8176 16.8996 64394.3
0.477812 -14.9919 17.6307 57995.2
-1.69623 -15.6399 17.7079 58628.8
-2.99869 -16.8129 17.4241 58551.7
-4.32437 -20.7003 15.9358 54344.9
-1.11599 -23.2827 14.7217 58484.5
2.12821 -22.2355 14.8586 58411.4
4.94404 -22.0125 14.6342 53741.2
6.86025 -18.3777 15.6655 53608.8
6.47144 -16.9476 16.1008 58528.9
30.1841 16.5882 8.27443 49199.1
26.1879 17.2999 9.76692 55094.9
25.0025 14.8743 10.754 52146.9
25.0375 11.0189 11.2707 53011.6
27.8487 10.3263 10.0175 46262
30.7656 12.6857 8.47812 49335.5
-3.7451 -9.22403 19.2101 59191.8
-1.48074 -8.84154 19.0767 57617.3
-0.108159 -2.25539 19.41 58174.2
-2.95202 -0.36349 19.7649 54536.7
-7.3391 -5.50096 19.8177 56963.7
-6.7839 -8.04303 19.5023 53468.8
25.5981 -5.15336 11.5704 54368.5
25.9023 -5.48764 11.4044 47254.9
29.1963 -6.24751 9.71693 56072.8
26.4692 1.71698 11.1209 53182.4
25.8648 -1.84851 11.4339 58002.6
-4.60263 -48.277 3.69993 48716
-0.499602 -49.1439 3.51559 54670.2
0.903385 -47.3747 4.49762 56265
2.21074 -45.1971 5.34772 54155.5
0.440867 -43.1023 6.3096 48918.4
-2.257 -42.8842 6.42471 56635
33.8181 -36.2541 -3.31561 40406.6
29.7553 -35.5491 -0.172579 46883
27.0525 -39.6157 -0.987571 40063
27.9907 -41.6731 -3.17796 35928.4
-6.35276 18.033 17.6087 58282.7
-3.22963 17.1093 17.6027 58428.6
-0.170547 20.4382 16.4151 56206.4
-0.616541 22.4238 16.0859 59086.9
-2.655 24.0791 15.8981 62457.9
-4.03745 24.4888 15.8443 60119.2
-8.14327 19.6027 17.1174 59387.5
-6.46038 6.45585 20.0382 55419.2
-8.52447 12.0404 19.4227 56690.7
-7.15874 -14.0151 18.6746 56352.4
-8.16651 -17.2148 17.8255 61848.6
-7.4171 -21.3356 15.755 56759.7
30.9995 17.882 7.67592 49621.6
31.0946 19.5618 7.26824 44929.3
23.8769 23.1211 8.91901 40630.6
22.6235 20.8628 10.0822 54578.7
-10.7976 -4.31952 20.0712 50822.9
-2.98356 0.789057 19.7355 56395.8
-7.23111 3.2018 20.165 54704.4
-9.04261 3.17811 20.2678 52281.7
-8.82641 -22.3354 15.3366 59209.3
-9.96813 -25.2087 14.2706 57231.1
-6.94994 -27.5 13.5516 62868.7
-3.44926 -28.6235 12.9003 58193.7
-2.24962 -27.6804 13.2429 51959.8
-11.811 -32.019 10.6204 51327.1
-10.3087 -33.5293 10.0799 56743.5
-8.16695 -33.7819 10.2879 55988.9
-4.71533 -32.5894 11.0628 56691
-3.91992 -38.9634 8.04256 56361.2
-1.66031 -36.3022 9.23989 58644.9
-1.42536 -34.5509 9.95564 46719.3
27.8507 -26.7612 5.89153 45676.3
29.6633 -25.1007 5.37042 46453.5
27.8707 -20.2567 8.06047 58215.1
24.6895 -20.2073 9.55351 51160.5
22.7788 -23.9095 9.42393 42815.4
23.26 -25.557 8.76065 50058.9
-4.99767 26.1935 15.3492 54016.3
-13.4203 22.4231 15.9787 56037.3
-12.2241 20.2043 16.5615 51758.8
-11.9876 14.464 18.4169 51635.5
-11.4989 12.4823 19.0724 48710.5
-14.0083 -18.7698 17.0775 56405.6
-13.496 -20.1097 16.4663 61651.1
-11.6336 -36.5425 8.39797 54142.9
-6.7511 -42.7978 6.07319 52758.8
-4.42977 -41.8105 6.75519 47262.8
2.26073 -32.6609 10.4211 47585.5
4.78626 -32.2791 10.3772 51133.5
6.69551 -30.2672 11.2776 59286.3
7.45995 -28.8534 11.7437 50237.6
5.85662 -26.4 12.7743 52913.5
0.457966 -28.2201 12.8162 60554.5
5.05881 15.4014 16.9663 61918.4
5.10858 18.2072 16.1457 54918.5
20.7521 19.9382 11.0047 45952.5
20.6608 16.2979 12.1334 58361.8
-15.4137 -2.29097 20.3422 50020.7
-13.4503 -4.43355 20.1953 47445.9
-11.8595 4.31878 20.1486 55874.6
20.0975 14.2391 12.8212 55734.3
20.6537 11.0903 13.0819 48424.8
23.7223 10.6363 11.8919 54175.9
-11.974 -45.2416 3.29896 46864.4
-9.58753 -46.0129 3.66574 44792.1
-14.2877 -37.6721 7.28141 57644.1
-15.5002 -17.1689 17.5472 52645.6
-9.2546 -11.1484 19.223 51656.3
-12.6908 -12.4324 19.2977 52592.6
-15.1492 -15.179 18.381 54224.6
45.6244 -11.7196 -2.21847 38871.3
45.7862 -6.34685 -1.30454 48131.7
43.9223 -6.08472 0.372951 37928.4
42.6033 -6.94512 1.28917 40517.2
41.2387 -9.66385 1.82638 41017.8
43.4208 -12.3775 -0.440929 35236
-16.5363 -25.774 12.9208 61492
-13.5528 -27.6349 12.6565 59375.6
-15.6282 -23.2118 14.6194 65970.6
-13.7856 -30.346 11.1197 55270.7
2.81692 -11.2134 18.1357 55015.5
2.44961 -10.217 18.3926 56396.6
40.8916 -22.3425 -1.26054 40540.4
41.6509 -24.2551 -2.66274 35520.2
44.2529 -24.6841 -5.22697 38553
46.5099 -18.2506 -4.82264 34949.6
45.7938 -17.813 -4.02314 37834
43.3574 -17.6745 -1.79344 36285.1
22.3833 -32.5247 5.98973 56015.6
20.6764 -30.3251 7.91745 51338.5
15.0739 -31.4561 9.02201 49442.4
14.4777 -32.7839 8.55678 41859.1
15.7048 -34.7304 7.22223 45668.2
6.19775 -23.9359 13.6377 59249.2
13.2169 -27.897 10.9948 44577.8
13.8957 -27.0319 11.1953 49461
13.9797 -24.015 12.2904 57890.8
10.4686 -23.0179 13.4668 56488.4
12.2745 3.15312 17.0473 57613.8
12.7997 5.60252 16.6423 55368
12.2811 6.94355 16.5936 58321.3
-14.3759 -37.5799 7.30665 58043.3
-16.2148 -38.8244 5.93524 57437
11.9453 -33.1096 8.95648 63850.7
10.4371 -34.1478 8.68525 53563
14.8193 -37.6101 5.70628 46217.6
15.924 -36.6918 5.89097 39919.1
7.6898 20.4029 15.0726 54462.1
8.51916 23.5177 13.8472 56481.9
4.20718 25.9399 14.0176 60755.4
12.8111 -40.8367 4.69631 45168.2
11.3715 -43.866 3.52434 45987.2
13.7777 -45.1609 2.06281 49487.2
19.306 -42.5417 1.33942 39745.9
18.9856 -40.1383 2.80834 44180
14.9576 -46.877 0.666317 53136.4
21.0442 -44.8021 -1.00986 39998.9
20.8059 -44.0913 -0.407527 42394.7
4.2484 -6.50134 18.6044 59319.7
7.73023 -12.9047 16.7643 60283.1
10.6467 -11.622 16.3421 57381.7
10.6354 -8.5752 16.8971 64965.6
16.8742 21.7258 11.8001 43644.6
15.6321 20.6076 12.672 56252.1
13.8868 16.8585 14.4413 60441.4
13.8955 15.4512 14.763 55818.8
31.1236 25.3033 5.38036 36049.4
26.1715 27.3425 6.46579 43114.7
23.8418 24.9937 8.24689 50639.3
31.9794 20.1469 6.71317 49017.5
33.9922 27.3355 3.10028 39107.2
25.7139 31.4478 4.55735 37496.5
10.1957 -38.3344 6.71915 53734.7
12.6975 -39.5424 5.38648 44130.6
6.85895 -34.647 8.93423 52265.1
7.14852 -36.29 8.198 52170.1
-22.8245 -14.955 16.1214 54704.8
-19.769 -18.329 15.8609 58148.8
-21.2176 -11.6494 17.9071 53445
19.0143 -37.8798 3.97334 38200.9
24.5072 -39.2038 0.740907 47772.3
21.8595 -36.9783 3.32538 39398.5
11.7249 -5.25185 17.0183 58485.5
33.0728 12.4488 7.40992 48859.4
33.4487 6.67944 7.51843 47214.5
45.4695 10.0426 -0.396033 32030.9
43.4804 8.85975 1.13959 34716.2
42.1725 7.15189 2.15645 40240.6
43.4468 3.98305 1.40166 33855.8
47.7329 3.88916 -2.22501 34232.6
35.3068 0.146145 6.55455 39246
36.2021 0.535443 6.05375 42702
36.7955 4.7783 5.64582 42069.1
8.31871 -47.5645 2.81479 44239.2
8.2209 -45.8707 3.58243 49918.9
23.8385 3.05986 12.3294 55099.3
15.1902 -47.6096 0.138694 49583.7
9.73617 -44.1334 3.90904 46975.7
8.48429 -49.3218 1.80294 49222.4
-31.2781 7.42751 12.6009 59820.9
-27.1654 4.06187 16.1718 58184.9
-25.196 5.07486 16.9311 57011.3
-23.7954 8.59461 16.3799 54254.1
-28.3206 11.0666 13.3148 57578.1
37.5662 -21.8168 1.41598 45148.3
35.2488 -19.8403 3.64714 43525.3
33.5635 -20.0243 4.72526 48249.6
31.524 -24.5364 4.40616 48040.8
33.8799 -26.8674 1.79301 51567.2
12.6849 -4.96278 16.7538 56408.6
12.5812 -12.2356 15.6566 59548.7
17.6148 -11.6765 14.0943 43972.5
18.0297 -9.23969 14.4074 59119.9
17.6482 -6.11054 14.9729 55457.6
21.7619 -28.9486 8.14038 49388.8
27.6827 -29.6954 4.63422 47417.1
44.672 -1.48267 0.177416 40270.9
42.5123 -0.019522 2.06131 38686.7
40.4426 -0.381681 3.55117 41435.9
39.6649 -0.594031 4.05374 45002.3
39.6002 -3.79929 3.92679 46795.5
42.8143 -16.1933 -0.904834 34785.1
37.4199 -15.748 3.32796 44662
38.2366 5.59784 4.76827 45248.1
39.6122 7.42141 3.84078 41543.3
37.8801 12.8999 4.65648 42091.3
35.3296 13.1606 6.14046 50955.7
-14.6663 7.24266 19.348 49328.5
-17.9072 5.95277 18.8886 51160.3
-18.6171 0.291247 19.9848 44137.6
35.1165 -33.6914 -2.44579 44479.7
31.9675 -30.5554 1.41369 50157.8
28.0097 -30.7646 3.81308 49614.6
27.0865 -32.6736 3.22961 42069.9
18.9797 8.58684 14.0261 55668.9
13.0545 14.2022 15.3157 61671.8
12.3357 11.4404 15.9671 53893.1
13.6346 10.0467 15.7131 44944.8
46.8144 -11.7141 -3.33544 39157.4
31.3897 -17.0698 6.88295 50624.9
3.72183 -39.4242 7.57812 57039.5
3.7817 -39.5089 7.53665 57670.6
6.74058 -41.5122 6.17589 55933.5
-22.0406 8.80039 17.0398 53824.4
-21.4446 12.7406 16.4103 56267.8
-24.57 15.0746 14.5679 56773.4
-26.7328 15.8983 13.2809 57554
23.1876 -11.8808 11.9559 57871.2
25.0915 -13.2903 10.8174 53569.1
29.915 -6.8928 9.34364 54932.6
16.3921 25.2212 10.7148 48795.9
14.4912 26.8663 10.7008 45666.8
10.4381 27.1007 11.8545 49539.9
8.59911 23.6933 13.7621 55658.4
17.699 -11.7949 14.0436 43517.3
17.1881 -16.5814 13.3174 51031.8
24.1334 -18.0623 10.3002 49004.2
25.6477 -13.8762 10.4298 52378.3
23.6815 -34.2648 4.2094 39405.3
19.3032 5.91648 14.2146 57943.3
20.3722 3.20617 13.941 48769.1
19.1905 -3.71187 14.6031 52188.4
18.5331 -2.03244 14.9081 56740.3
13.1839 -1.67827 16.9182 61010.5
34.4165 -28.2493 0.78715 43781.5
37.6301 -30.0229 -2.43769 37845.2
-19.0169 18.3939 16.1025 56133.3
-20.403 19.473 15.6239 49983.7
13.221 2.54754 16.8323 52773.8
-26.6501 -2.90494 17.2145 52146.3
-27.787 -6.10325 16.3061 55349.2
-25.6521 -8.05885 17.1053 55367.3
-20.7964 -10.4974 18.4923 53749.1
-19.0887 -8.93958 19.532 47650.8
-22.1853 -1.53107 19.4322 45923.4
-22.4784 -1.41724 19.3218 46651
47.4323 -0.158887 -2.31763 27829.6
19.1147 -0.119066 14.6411 52372.7
18.7911 1.56882 14.7351 49749.7
1.08589 28.7663 13.606 60311.6
9.0074 29.7156 11.0715 58087.8
4.13098 27.1014 13.5931 59533.1
-31.9248 -8.22109 13.3921 58212
-30.6402 -7.04598 14.4452 58587.1
-32.1375 -0.359379 13.4771 62147.2
-33.7849 0.834001 12.0491 58872.6
20.1973 27.11 8.71033 49840.4
10.9457 -18.5713 14.7505 65216
11.8823 -18.1963 14.5995 57550.3
-14.4812 10.1038 18.8868 51680.8
-17.5972 12.5825 17.6488 56827.8
-19.993 13.4344 16.8227 53117.2
-30.0482 -18.9609 10.8688 64219.5
-28.4347 -17.5748 12.8312 59847.2
-27.6062 -15.0041 14.3146 56966.9
-32.3072 -11.5931 12.5284 53088.4
15.5497 -19.1891 13.2212 53336.4
-15.8642 -8.03822 20.0039 50219
21.948 -45.9713 -2.4084 37786.1
36.1063 19.5724 4.81961 48642.4
39.1431 14.2467 3.76772 42042.1
39.645 16.4652 3.21197 43529.6
-26.0522 -14.7839 15.0397 52312.5
35.3656 -6.27901 6.46584 44997.1
37.7242 -7.60068 4.71773 42544.8
32.2582 -8.32945 8.14039 49563
-12.9243 15.4988 17.9025 54399.6
-13.9503 17.5842 17.0287 54794.7
-17.8201 17.596 16.4448 53356.3
36.759 22.6851 3.53497 49645.7
37.1379 -14.0915 3.89341 44427.2
31.9313 -11.9691 7.62363 47866
30.0981 -14.3799 8.09258 50571.6
39.3332 -9.70681 3.18168 37591.3
41.4548 17.6339 1.91711 42287.7
20.338 -24.3032 10.336 42396.4
16.37 -21.593 12.3083 50359.9
20.0905 32.6759 5.97942 48726.8
-28.672 -0.603912 15.9955 58432.1
15.4506 32.1689 7.8472 51014.1
48.2516 -11.1869 -4.5935 31447.8
8.96767 32.1984 9.86007 56625.1
2.62063 29.0116 13.1498 55359.6
-26.5478 -23.8681 10.2569 62036.3
-24.2244 -22.3127 12.2255 59234.5
37.7747 -30.9144 -3.01632 40193.1
-21.6807 -22.188 13.3079 57264
-20.7333 -19.9629 14.7698 62123.1
48.066 -6.29363 -3.53957 36416.5
23.0341 -4.53563 12.9164 61579.2
-21.4055 -28.3665 10.1124 53155.4
-19.0625 -25.7987 12.1874 53703.9
-21.2234 -31.3222 8.36284 53094.1
-17.4864 -31.946 9.2978 53496.7
6 112 111 253 183 182 165 789
4 310 311 312 313 762
4 300 301 302 303 733
6 228 306 314 273 272 229 996
8 227 200 179 178 228 229 230 231 999
6 226 282 283 141 140 222 676
5 271 166 165 182 181 678
7 200 227 281 286 156 17 16 752
5 282 249 248 343 283 745
5 294 207 206 235 234 961
5 254 253 111 5 4 775
5 222 223 224 225 226 872
6 181 180 268 269 270 271 743
5 303 302 336 218 217 747
6 166 271 270 298 299 167 801
8 317 187 70 69 244 243 318 319 732
4 319 332 327 317 812
5 188 184 187 317 327 790
5 339 298 270 269 337 565
7 240 328 329 330 257 224 223 681
6 223 222 140 145 239 240 785
6 53 248 249 250 251 54 959
5 257 91 90 225 224 932
5 231 279 280 281 227 736
5 286 281 280 295 296 738
6 256 128 133 239 145 144 901
7 104 52 51 259 258 87 86 935
6 328 331 322 321 323 329 694
6 296 278 277 157 156 286 596
8 214 173 170 169 215 212 211 216 652
5 277 252 255 158 157 739
4 49 211 212 50 965
5 203 204 205 206 207 911
6 51 50 212 215 260 259 966
5 16 15 176 179 200 589
6 260 215 169 168 191 190 704
7 255 254 4 3 19 18 158 674
6 209 208 321 322 238 237 710
7 252 119 118 183 253 254 255 783
5 193 258 259 260 190 979
6 190 191 163 162 192 193 573
7 44 267 323 321 208 10 9 967
7 118 114 113 180 181 182 183 786
6 176 139 138 177 178 179 982
7 228 178 177 29 28 305 306 585
6 202 6 10 208 209 210 729
7 210 241 242 243 244 201 202 723
5 171 170 173 174 175 767
5 168 169 170 171 172 715
5 237 236 241 210 209 802
6 172 197 164 163 191 168 769
5 106 192 162 161 107 672
6 107 161 149 148 152 108 660
6 150 149 161 162 163 164 717
6 165 166 167 60 59 112 972
7 151 109 108 152 153 154 155 718
6 110 81 80 85 88 105 925
6 201 35 34 7 6 202 970
5 146 147 148 149 150 771
5 155 305 28 27 151 724
8 333 153 152 148 147 232 94 93 772
4 154 153 333 334 595
6 154 334 314 306 305 155 727
4 216 211 49 48 947
7 81 110 109 151 27 26 25 950
5 30 35 201 244 69 973
5 301 288 287 336 302 765
5 335 337 269 268 304 794
7 300 313 312 320 289 288 301 764
4 144 143 338 256 945
5 156 157 158 18 17 591
4 298 339 340 299 763
5 217 218 219 220 221 779
5 21 20 29 177 138 968
4 311 310 341 342 778
4 316 174 173 214 766
6 176 15 14 38 37 139 954
6 197 199 276 146 150 164 599
7 93 92 274 273 314 334 333 600
4 142 141 283 343 613
6 272 273 274 275 266 265 997
8 342 344 345 195 194 320 312 311 810
7 287 288 289 290 291 292 293 1006
5 336 287 293 219 218 1005
8 225 90 89 233 250 249 282 226 667
6 220 261 262 263 264 221 598
6 167 299 340 297 61 60 940
6 331 328 240 239 133 132 788
7 113 72 71 186 304 268 180 606
6 275 274 92 91 257 330 905
5 128 256 338 346 129 953
5 132 131 238 322 331 617
5 342 341 348 349 344 809
5 196 290 289 320 194 799
7 234 235 236 237 238 131 130 618
7 261 220 219 293 292 247 246 1004
4 284 285 264 263 803
5 263 262 309 326 284 608
6 236 235 206 205 242 241 857
5 205 204 318 243 242 622
4 184 188 189 185 659
6 175 198 199 197 172 171 837
4 350 160 159 351 822
7 351 137 135 134 349 348 350 835
5 194 195 124 127 196 827
5 332 319 318 204 203 865
6 291 315 116 115 247 292 1003
7 246 245 307 308 309 262 261 839
7 265 43 42 347 230 229 272 998
4 347 279 231 230 814
6 295 280 279 347 42 46 1002
6 46 45 213 278 296 295 886
6 325 324 98 57 63 97 631
6 277 278 213 120 119 252 616
7 193 192 106 105 88 87 258 948
5 345 344 349 134 136 825
6 136 101 100 124 195 345 836
6 127 126 315 291 290 196 612
5 304 186 185 189 335 854
5 309 308 324 325 326 840
6 284 326 325 97 96 285 853
5 129 346 294 234 130 957
6 330 329 323 267 266 275 936
4 121 123 159 160 845
7 159 123 102 83 82 137 351 847
6 175 174 316 56 55 198 869
5 117 245 246 247 115 850
6 276 199 198 55 54 251 870
7 251 250 233 232 147 146 276 873
4 94 232 233 89 875
6 140 141 142 143 144 145 898
6 138 139 37 36 22 21 928
5 79 78 135 137 82 882
6 134 135 78 77 101 136 866
6 128 129 130 131 132 133 902
7 124 100 67 66 125 126 127 885
7 125 41 40 73 116 315 126 629
6 114 118 119 120 33 32 849
5 115 116 73 76 117 868
5 32 31 72 113 114 851
8 65 99 307 245 117 76 75 64 888
5 308 307 99 98 324 852
7 59 58 12 0 5 111 112 939
5 121 122 103 102 123 628
6 105 106 107 108 109 110 949
6 84 83 102 103 104 86 895
5 77 68 67 100 101 883
7 57 98 99 65 13 12 58 900
5 62 95 96 97 63 632
6 89 90 91 92 93 94 903
5 52 104 103 122 47 645
5 265 266 267 44 43 1000
6 82 83 84 85 80 79 896
8 68 77 78 79 80 81 25 24 907
7 7 34 33 120 213 45 8 909
6 73 40 39 74 75 76 642
6 69 70 71 72 31 30 914
6 184 185 186 71 70 187 916
5 86 87 88 85 84 646
5 24 23 66 67 68 908
6 23 22 36 41 125 66 648
4 64 11 13 65 649
7 57 58 59 60 61 62 63 913
4 53 54 55 56 666
6 47 48 49 50 51 52 934
7 42 43 44 9 8 45 46 1001
6 36 37 38 39 40 41 653
6 75 74 2 1 11 64 654
6 30 31 32 33 34 35 912
4 95 62 61 297 931
5 26 27 28 29 20 952
7 20 21 22 23 24 25 26 927
7 19 3 2 74 39 38 14 938
5 11 1 0 12 13 930
5 6 7 8 9 10 669
6 0 1 2 3 4 5 955
6 14 15 16 17 18 19 670
