ply
format ascii 1.0
comment Exported from MorphoGraphX 2.0.1-254
comment Cell Graph: each vertex is a cell, each edge a wall
element vertex 296
property int label
property float x
property float y
property float z
element edge 823
property uint source
property uint target
end_header
4913 0 0 0 
4930 0 0 0 
4932 0 0 0 
4935 0 0 0 
4937 0 0 0 
4939 0 0 0 
4944 0 0 0 
4946 0 0 0 
4948 0 0 0 
4952 0 0 0 
4953 0 0 0 
4954 0 0 0 
4955 0 0 0 
4958 0 0 0 
4959 0 0 0 
4964 0 0 0 
4973 0 0 0 
4974 0 0 0 
4975 0 0 0 
4978 0 0 0 
4979 0 0 0 
4980 0 0 0 
4981 0 0 0 
4983 0 0 0 
4984 0 0 0 
4985 0 0 0 
4986 0 0 0 
4987 0 0 0 
4988 0 0 0 
4989 0 0 0 
4990 0 0 0 
4991 0 0 0 
4992 0 0 0 
4994 0 0 0 
4995 0 0 0 
4996 0 0 0 
4997 0 0 0 
4998 0 0 0 
4999 0 0 0 
5000 0 0 0 
5003 0 0 0 
5005 0 0 0 
5006 0 0 0 
5007 0 0 0 
5008 0 0 0 
5009 0 0 0 
5011 0 0 0 
5012 0 0 0 
5013 0 0 0 
5014 0 0 0 
5015 0 0 0 
5016 0 0 0 
5017 0 0 0 
5019 0 0 0 
5020 0 0 0 
5021 0 0 0 
5022 0 0 0 
5023 0 0 0 
5024 0 0 0 
5025 0 0 0 
5026 0 0 0 
5027 0 0 0 
5028 0 0 0 
5029 0 0 0 
5030 0 0 0 
5031 0 0 0 
5032 0 0 0 
5035 0 0 0 
5039 0 0 0 
5045 0 0 0 
5046 0 0 0 
5048 0 0 0 
5051 0 0 0 
5053 0 0 0 
5056 0 0 0 
5057 0 0 0 
5060 0 0 0 
5061 0 0 0 
5063 0 0 0 
5064 0 0 0 
5065 0 0 0 
5066 0 0 0 
5068 0 0 0 
5069 0 0 0 
5070 0 0 0 
5071 0 0 0 
5072 0 0 0 
5074 0 0 0 
5075 0 0 0 
5076 0 0 0 
5077 0 0 0 
5078 0 0 0 
5079 0 0 0 
5080 0 0 0 
5081 0 0 0 
5083 0 0 0 
5084 0 0 0 
5085 0 0 0 
5086 0 0 0 
5087 0 0 0 
5088 0 0 0 
5089 0 0 0 
5090 0 0 0 
5091 0 0 0 
5092 0 0 0 
5093 0 0 0 
5094 0 0 0 
5096 0 0 0 
5097 0 0 0 
5098 0 0 0 
5099 0 0 0 
5100 0 0 0 
5101 0 0 0 
5102 0 0 0 
5104 0 0 0 
5105 0 0 0 
5106 0 0 0 
5107 0 0 0 
5108 0 0 0 
5109 0 0 0 
5111 0 0 0 
5112 0 0 0 
5113 0 0 0 
5114 0 0 0 
5115 0 0 0 
5116 0 0 0 
5117 0 0 0 
5119 0 0 0 
5120 0 0 0 
5121 0 0 0 
5122 0 0 0 
5123 0 0 0 
5125 0 0 0 
5126 0 0 0 
5127 0 0 0 
5128 0 0 0 
5129 0 0 0 
5130 0 0 0 
5131 0 0 0 
5132 0 0 0 
5133 0 0 0 
5134 0 0 0 
5135 0 0 0 
5136 0 0 0 
5137 0 0 0 
5138 0 0 0 
5139 0 0 0 
5140 0 0 0 
5141 0 0 0 
5142 0 0 0 
5143 0 0 0 
5144 0 0 0 
5145 0 0 0 
5146 0 0 0 
5147 0 0 0 
5148 0 0 0 
5150 0 0 0 
5151 0 0 0 
5152 0 0 0 
5153 0 0 0 
5154 0 0 0 
5155 0 0 0 
5156 0 0 0 
5157 0 0 0 
5159 0 0 0 
5160 0 0 0 
5162 0 0 0 
5164 0 0 0 
5165 0 0 0 
5167 0 0 0 
5168 0 0 0 
5169 0 0 0 
5170 0 0 0 
5171 0 0 0 
5172 0 0 0 
5173 0 0 0 
5174 0 0 0 
5175 0 0 0 
5176 0 0 0 
5177 0 0 0 
5178 0 0 0 
5180 0 0 0 
5181 0 0 0 
5182 0 0 0 
5186 0 0 0 
5188 0 0 0 
5189 0 0 0 
5190 0 0 0 
5192 0 0 0 
5193 0 0 0 
5195 0 0 0 
5196 0 0 0 
5198 0 0 0 
5200 0 0 0 
5201 0 0 0 
5202 0 0 0 
5203 0 0 0 
5204 0 0 0 
5207 0 0 0 
5209 0 0 0 
5210 0 0 0 
5211 0 0 0 
5212 0 0 0 
5213 0 0 0 
5214 0 0 0 
5215 0 0 0 
5216 0 0 0 
5217 0 0 0 
5218 0 0 0 
5219 0 0 0 
5220 0 0 0 
5221 0 0 0 
5222 0 0 0 
5223 0 0 0 
5224 0 0 0 
5225 0 0 0 
5226 0 0 0 
5227 0 0 0 
5228 0 0 0 
5229 0 0 0 
5230 0 0 0 
5231 0 0 0 
5232 0 0 0 
5233 0 0 0 
5234 0 0 0 
5235 0 0 0 
5236 0 0 0 
5237 0 0 0 
5239 0 0 0 
5240 0 0 0 
5241 0 0 0 
5242 0 0 0 
5243 0 0 0 
5244 0 0 0 
5245 0 0 0 
5246 0 0 0 
5247 0 0 0 
5248 0 0 0 
5249 0 0 0 
5250 0 0 0 
5252 0 0 0 
5253 0 0 0 
5254 0 0 0 
5255 0 0 0 
5256 0 0 0 
5257 0 0 0 
5258 0 0 0 
5259 0 0 0 
5260 0 0 0 
5261 0 0 0 
5262 0 0 0 
5263 0 0 0 
5264 0 0 0 
5265 0 0 0 
5266 0 0 0 
5267 0 0 0 
5268 0 0 0 
5269 0 0 0 
5270 0 0 0 
5271 0 0 0 
5272 0 0 0 
5273 0 0 0 
5274 0 0 0 
5275 0 0 0 
5276 0 0 0 
5277 0 0 0 
5278 0 0 0 
5279 0 0 0 
5280 0 0 0 
5281 0 0 0 
5282 0 0 0 
5283 0 0 0 
5284 0 0 0 
5285 0 0 0 
5286 0 0 0 
5287 0 0 0 
5288 0 0 0 
5289 0 0 0 
5290 0 0 0 
5291 0 0 0 
5292 0 0 0 
5293 0 0 0 
5294 0 0 0 
5295 0 0 0 
5296 0 0 0 
5297 0 0 0 
5298 0 0 0 
5299 0 0 0 
5300 0 0 0 
5301 0 0 0 
5303 0 0 0 
5304 0 0 0 
5305 0 0 0 
5306 0 0 0 
5307 0 0 0 
5308 0 0 0 
4913 5086
4913 5178
4913 5189
4930 4959
4930 4984
4932 4973
4932 4980
4935 5032
4935 5091
4935 5216
4935 5218
4935 5247
4935 5249
4937 4991
4937 5088
4937 5224
4939 4997
4939 5083
4939 5107
4939 5222
4939 5228
4939 5235
4944 4990
4944 5100
4944 5168
4944 5169
4944 5260
4944 5289
4946 4998
4946 5128
4946 5132
4946 5256
4946 5276
4948 4953
4948 5011
4948 5133
4948 5136
4948 5171
4948 5293
4952 5024
4952 5025
4952 5032
4952 5135
4952 5151
4952 5276
4952 5291
4953 5136
4953 5151
4953 5171
4953 5306
4954 4978
4954 5056
4954 5157
4954 5239
4955 5064
4955 5068
4955 5096
4955 5131
4955 5207
4958 4959
4958 4974
4958 5146
4958 5154
4958 5295
4958 5308
4959 4974
4959 4984
4959 5154
4964 5057
4964 5171
4964 5202
4964 5293
4964 5298
4973 4980
4973 5201
4974 4984
4974 5078
4974 5094
4974 5308
4975 5074
4975 5075
4975 5076
4975 5214
4978 4979
4978 5020
4978 5027
4978 5157
4978 5239
4979 5020
4979 5021
4979 5096
4979 5157
4979 5177
4980 4983
4980 5071
4980 5201
4980 5209
4981 5065
4981 5074
4981 5222
4981 5227
4981 5228
4983 4988
4983 5071
4983 5089
4984 5094
4984 5113
4985 5030
4985 5087
4985 5141
4985 5180
4985 5233
4986 5063
4986 5116
4986 5165
4986 5173
4986 5188
4986 5243
4987 5170
4987 5189
4988 4996
4988 5071
4988 5089
4988 5102
4988 5104
4988 5220
4989 5016
4989 5053
4989 5115
4989 5119
4989 5169
4990 5000
4990 5046
4990 5100
4990 5212
4990 5260
4991 5088
4991 5224
4991 5240
4991 5250
4992 5079
4992 5098
4992 5101
4992 5155
4992 5244
4992 5292
4994 4999
4994 5219
4994 5224
4994 5237
4994 5240
4995 5089
4995 5102
4995 5254
4996 5097
4996 5104
4996 5106
4996 5220
4996 5227
4997 5107
4997 5228
4997 5245
4997 5262
4998 5093
4998 5128
4998 5231
4998 5248
4998 5256
4999 5111
4999 5117
4999 5231
4999 5237
4999 5240
4999 5248
4999 5257
5000 5046
5000 5175
5000 5210
5000 5259
5000 5260
5000 5289
5003 5009
5003 5022
5003 5045
5003 5099
5003 5101
5003 5155
5003 5176
5005 5108
5005 5114
5005 5127
5005 5270
5005 5274
5006 5007
5006 5139
5006 5140
5006 5146
5006 5252
5006 5253
5006 5264
5007 5140
5007 5253
5008 5021
5008 5092
5008 5112
5008 5200
5008 5236
5008 5265
5009 5022
5009 5023
5009 5031
5009 5176
5011 5133
5011 5134
5011 5257
5011 5293
5012 5029
5012 5035
5012 5144
5012 5207
5012 5258
5013 5015
5013 5051
5013 5060
5013 5066
5013 5125
5014 5120
5014 5121
5014 5148
5014 5281
5014 5284
5014 5285
5015 5066
5015 5079
5015 5125
5015 5170
5016 5115
5016 5119
5016 5182
5016 5241
5016 5244
5017 5142
5017 5159
5017 5267
5017 5273
5017 5303
5019 5090
5019 5138
5019 5153
5019 5172
5019 5198
5019 5232
5019 5263
5020 5021
5020 5027
5020 5265
5020 5280
5021 5112
5021 5130
5021 5177
5021 5265
5022 5023
5022 5045
5022 5056
5023 5031
5023 5056
5023 5144
5023 5258
5024 5032
5024 5196
5024 5216
5024 5290
5024 5291
5024 5305
5025 5032
5025 5151
5025 5181
5025 5218
5025 5306
5026 5159
5026 5173
5026 5188
5026 5190
5026 5285
5027 5061
5027 5239
5027 5279
5027 5280
5028 5048
5028 5085
5028 5160
5028 5167
5028 5212
5028 5296
5029 5064
5029 5207
5030 5051
5030 5060
5030 5141
5030 5180
5030 5304
5031 5069
5031 5086
5031 5144
5031 5176
5032 5216
5032 5218
5035 5069
5035 5144
5039 5105
5039 5109
5039 5164
5039 5186
5039 5272
5039 5286
5045 5056
5045 5099
5045 5129
5045 5239
5046 5167
5046 5175
5046 5212
5048 5072
5048 5085
5048 5196
5048 5213
5048 5296
5048 5305
5051 5060
5051 5162
5051 5304
5053 5119
5053 5152
5053 5169
5053 5198
5053 5275
5056 5157
5056 5239
5056 5258
5057 5171
5057 5200
5057 5202
5057 5236
5060 5066
5060 5180
5061 5129
5061 5156
5061 5204
5061 5239
5061 5279
5063 5165
5063 5243
5064 5131
5064 5207
5065 5071
5065 5209
5065 5227
5066 5079
5066 5098
5066 5180
5068 5070
5068 5096
5068 5131
5068 5143
5068 5177
5069 5086
5069 5144
5070 5131
5070 5143
5070 5297
5071 5209
5071 5220
5071 5227
5072 5085
5072 5126
5072 5213
5074 5214
5074 5222
5075 5076
5075 5083
5075 5214
5076 5083
5076 5203
5076 5217
5076 5229
5076 5230
5077 5105
5077 5299
5078 5094
5078 5112
5078 5130
5078 5202
5078 5307
5078 5308
5079 5098
5079 5155
5079 5170
5079 5178
5080 5186
5080 5193
5080 5221
5080 5225
5080 5277
5080 5278
5080 5301
5081 5219
5081 5223
5081 5231
5081 5237
5083 5214
5083 5222
5083 5229
5083 5235
5084 5141
5084 5174
5084 5225
5084 5255
5084 5278
5085 5100
5085 5126
5085 5212
5085 5275
5086 5176
5086 5178
5087 5098
5087 5180
5087 5233
5087 5241
5087 5292
5088 5242
5088 5250
5089 5102
5090 5172
5090 5204
5090 5232
5090 5287
5091 5181
5091 5218
5091 5234
5091 5249
5092 5181
5092 5200
5092 5234
5092 5265
5092 5306
5093 5217
5093 5223
5093 5230
5093 5231
5093 5246
5093 5256
5094 5113
5094 5130
5094 5268
5096 5157
5096 5177
5096 5207
5097 5106
5097 5227
5097 5228
5097 5245
5098 5180
5098 5292
5099 5101
5099 5129
5099 5182
5099 5244
5099 5287
5100 5152
5100 5169
5100 5212
5100 5275
5101 5155
5101 5244
5102 5104
5102 5254
5104 5106
5104 5121
5104 5122
5104 5254
5105 5109
5105 5164
5105 5299
5105 5300
5106 5122
5106 5123
5106 5245
5106 5261
5107 5114
5107 5235
5107 5262
5108 5114
5108 5127
5108 5229
5108 5235
5108 5246
5109 5186
5109 5195
5109 5221
5109 5277
5109 5300
5111 5117
5111 5240
5111 5250
5111 5264
5112 5130
5112 5202
5112 5236
5113 5268
5114 5235
5114 5262
5114 5270
5115 5168
5115 5169
5115 5174
5115 5241
5115 5255
5116 5164
5116 5188
5116 5226
5116 5243
5116 5271
5116 5272
5116 5299
5117 5134
5117 5137
5117 5257
5117 5264
5119 5182
5119 5198
5119 5232
5120 5121
5120 5254
5121 5122
5121 5254
5121 5266
5121 5281
5122 5123
5122 5266
5122 5273
5123 5261
5123 5267
5123 5273
5126 5153
5126 5213
5126 5263
5126 5275
5127 5132
5127 5135
5127 5246
5127 5274
5128 5133
5128 5136
5128 5248
5128 5257
5128 5276
5129 5204
5129 5239
5129 5287
5130 5143
5130 5177
5130 5268
5132 5135
5132 5246
5132 5256
5132 5276
5133 5136
5133 5257
5134 5137
5134 5145
5134 5257
5134 5293
5135 5274
5135 5276
5135 5291
5136 5151
5136 5276
5137 5139
5137 5145
5137 5264
5138 5156
5138 5172
5138 5215
5138 5247
5138 5263
5139 5145
5139 5146
5139 5264
5139 5294
5139 5295
5140 5146
5140 5147
5140 5154
5141 5174
5141 5225
5141 5233
5141 5304
5142 5261
5142 5267
5142 5269
5142 5288
5142 5303
5143 5177
5143 5268
5143 5297
5144 5258
5145 5293
5145 5294
5145 5298
5146 5154
5146 5295
5147 5154
5148 5165
5148 5284
5150 5160
5150 5270
5150 5274
5150 5283
5150 5290
5150 5296
5150 5305
5151 5276
5151 5306
5152 5169
5152 5275
5153 5198
5153 5263
5153 5275
5155 5170
5155 5176
5155 5178
5156 5172
5156 5204
5156 5247
5156 5279
5157 5207
5157 5258
5159 5190
5159 5192
5159 5273
5159 5281
5159 5285
5159 5303
5160 5167
5160 5282
5160 5283
5160 5296
5162 5195
5162 5221
5162 5304
5164 5272
5164 5299
5165 5173
5165 5284
5167 5175
5167 5212
5167 5282
5167 5288
5167 5303
5168 5169
5168 5193
5168 5255
5168 5289
5170 5178
5170 5189
5171 5200
5171 5293
5171 5306
5172 5204
5173 5188
5173 5284
5173 5285
5174 5233
5174 5241
5174 5255
5175 5210
5175 5303
5176 5178
5178 5189
5181 5218
5181 5234
5181 5306
5182 5232
5182 5244
5182 5287
5186 5277
5186 5286
5186 5301
5188 5190
5188 5226
5190 5192
5190 5226
5192 5210
5192 5226
5192 5303
5193 5255
5193 5278
5193 5289
5193 5301
5195 5221
5195 5300
5196 5213
5196 5215
5196 5216
5196 5305
5198 5232
5198 5275
5200 5236
5200 5306
5201 5209
5202 5236
5202 5298
5202 5307
5203 5211
5203 5217
5204 5287
5207 5258
5210 5226
5210 5259
5210 5303
5211 5217
5211 5223
5213 5215
5213 5263
5214 5222
5215 5216
5215 5247
5215 5263
5216 5247
5217 5223
5217 5230
5219 5224
5219 5237
5220 5227
5221 5225
5221 5277
5221 5304
5222 5228
5223 5231
5224 5240
5225 5278
5225 5304
5226 5259
5226 5272
5226 5286
5227 5228
5228 5245
5229 5230
5229 5235
5229 5246
5230 5246
5231 5237
5231 5248
5232 5287
5233 5241
5234 5249
5234 5265
5234 5280
5240 5250
5241 5244
5241 5292
5242 5250
5242 5252
5242 5253
5243 5271
5244 5292
5245 5261
5245 5262
5246 5256
5247 5249
5247 5279
5248 5257
5249 5279
5249 5280
5250 5252
5250 5264
5252 5253
5252 5264
5255 5278
5259 5286
5259 5289
5259 5301
5260 5289
5261 5262
5261 5267
5261 5269
5262 5269
5262 5270
5262 5283
5265 5280
5266 5273
5266 5281
5267 5273
5268 5297
5269 5282
5269 5283
5269 5288
5270 5274
5270 5283
5271 5299
5272 5286
5273 5281
5274 5290
5274 5291
5279 5280
5281 5285
5282 5283
5282 5288
5284 5285
5286 5301
5288 5303
5289 5301
5290 5291
5290 5305
5293 5298
5294 5295
5294 5298
5294 5307
5294 5308
5295 5308
5296 5305
5298 5307
5307 5308
