ply
format ascii 1.0
comment Exported from MorphoGraphX 2.0 1-254
comment Cellular mesh
element vertex 589
property float x
property float y
property float z
property float signal
element face 296
property list int int vertex_index
property int label
end_header
-7.66563 60.489 -8.05519 24753.1
-5.47944 58.6281 -6.90928 27647
-2.94841 60.3347 -8.48657 20227.9
20.0034 -42.9142 -8.40882 27683.9
18.109 -42.108 -7.02164 39292.9
17.5926 -44.1463 -8.35292 35808.1
46.0158 -7.79152 -8.02959 34254.2
43.851 -8.68689 -6.76344 37942.7
44.3278 -13.345 -7.97108 24619.9
47.7775 5.05796 -8.28972 34581.6
46.5058 4.76165 -7.20973 35870.4
46.7882 1.19187 -7.61784 26410.2
0.0452325 -48.3726 -8.35918 29537
-0.738369 -47.2398 -7.50823 33496.8
-2.92425 -46.5627 -6.96891 33513.8
-5.75565 -49.3016 -8.47576 37136.6
29.0956 42.9282 -7.75982 31507.5
28.5759 41.5949 -6.70707 35349.4
30.9918 38.7148 -6.19179 37029.8
33.4121 40.249 -8.16206 40262.7
7.24194 31.5067 3.67552 36301.5
10.7036 30.1148 3.4188 34897.8
12.0185 31.2606 2.69294 39971.6
13.9471 33.5989 1.46519 37534.2
12.6555 36.0193 1.01951 37910.1
9.48999 36.3845 1.6405 38270.5
-21.4291 2.5351 7.35833 37492.1
-17.6864 0.309412 7.81388 33745
-15.8225 1.85064 8.32763 37674.4
-16.9012 7.37786 8.35972 34274.5
-17.9211 8.29007 8.04738 36346.7
-20.6712 8.97272 7.42516 35333.9
-22.6405 4.56897 7.01385 31785.4
23.2644 44.8612 -6.05221 42478.8
17.7818 44.5507 -3.88512 41032.1
17.5142 43.0742 -2.93364 37789.7
23.1171 39.4823 -2.97949 39885.8
24.8278 41.5488 -4.75462 38853.8
-20.9249 -9.98222 6.17583 36761.5
-18.756 -11.3131 6.30994 34257.3
-16.1693 -9.14861 7.31378 33506.4
-15.0763 -6.71003 7.76283 35840.7
-18.172 -3.16772 7.60157 31011.8
-22.4912 -5.39149 6.65744 31331.6
-20.9063 -26.8841 0.948612 37850.6
-18.5501 -25.6561 2.2112 32551.4
-17.3757 -23.1921 3.4086 34478.1
-20.7195 -20.1886 3.42943 32731.9
-23.6695 -22.806 1.83162 34267.2
-18.6248 -45.5789 -8.43031 30711.9
-18.1959 -44.3542 -7.2311 31013.2
-15.8159 -40.0127 -4.28501 35323.5
-15.7277 -39.6575 -4.02893 36655.9
-19.9991 -37.91 -4.01017 28706.4
-22.144 -38.993 -5.29408 32534
-20.3712 -44.8005 -8.44018 28867
-25.6621 26.1046 2.90483 31940.4
-22.5432 24.6601 4.02417 31994.4
-20.0765 28.4548 3.71461 31475.8
-20.8 31.4549 2.83037 31730.4
-24.1547 32.3106 1.64415 30575.8
-25.2986 -1.81025 6.4122 36792
-23.1712 -5.46535 6.48914 31239.8
-21.1213 -16.8416 4.1868 34427.8
-18.9894 -15.2582 5.25945 36100.7
-17.8419 -13.7505 5.91644 34986.2
-23.8276 -15.6201 3.79032 32054
-26.8543 53.9428 -5.67225 22283.9
-23.0525 55.3736 -5.76766 23178.9
-23.8081 58.7943 -7.913 23912.5
-29.3117 56.6634 -7.70916 23834.9
-23.4113 48.3071 -2.91124 28745.5
-18.9867 51.6592 -3.56847 31339.4
-19.5637 53.7312 -4.62887 25199.1
-27.5195 51.95 -5.04464 24628.9
-25.3107 49.0988 -3.55057 27503.7
26.0594 31.9399 -1.09024 34104.2
27.9065 31.2768 -1.61561 35824.3
31.0436 32.315 -3.25495 34670.2
31.8592 33.8624 -4.19306 36108.1
30.6811 36.7155 -4.93767 38204.3
25.0833 35.4216 -1.84138 38162.8
-25.8527 16.0446 5.23618 30872.4
-26.6699 12.9149 5.76052 33806.9
-26.4976 10.9051 6.0354 36186.7
-21.1161 10.1344 7.16208 34379.7
-19.8391 14.4502 6.71319 32297.6
-22.64 17.1498 5.75088 33205.8
-27.5376 4.07781 5.82585 34328.8
-28.7233 1.11224 5.46463 34539.1
-28.4891 -13.6805 3.06653 29178.1
-25.5302 -16.3463 3.07803 34367.1
-26.3987 -7.91942 5.25827 36672.1
-28.2002 -9.63365 4.22237 32189.2
-27.3581 -20.3084 1.28889 32083
-26.404 -22.8883 0.591092 34814.3
-27.0229 -25.1501 -0.521112 32224.5
-22.0236 -28.3003 -0.0492671 32423.7
-25.753 -32.4611 -3.03067 32817.6
-25.0444 -32.3818 -2.68688 32790.6
-21.8634 -29.8619 -0.545443 30066.2
-28.7027 -26.4642 -1.50077 30602.2
18.1873 -14.5712 3.36135 32085.8
18.2609 -16.9882 2.78609 36934.5
20.3974 -20.1613 1.20119 33901.5
23.8908 -18.2251 0.930874 37655.6
24.2947 -16.561 1.18966 37023.1
21.631 -13.1605 2.6534 38315.6
1.04404 47.8616 -1.94001 35819.9
5.01383 43.4481 -0.56438 36166.1
7.52475 44.4925 -1.32531 36918.8
8.03548 47.6943 -3.06675 32963.3
6.05434 51.0956 -4.59585 32291.5
3.94158 51.8191 -4.59513 33797.3
1.4683 49.6247 -2.90962 37171.1
-26.828 -34.4391 -4.27441 29716.3
-22.9416 -38.6006 -5.36407 29329.1
-20.1351 -36.028 -3.04915 36201.6
20.1151 -21.113 1.01776 36090.3
23.6315 -24.929 -0.809397 37956.7
27.4879 -21.038 -1.17415 38544.7
28.0341 17.2212 1.4014 34285.1
30.6298 12.164 0.845847 41275
35.8913 11.7928 -1.07382 34232.2
36.5037 12.4596 -1.3511 34332.6
35.8346 16.257 -1.37606 35689.9
32.697 19.4108 -0.649194 36653.5
29.472 18.6102 0.840066 39579.2
28.5236 24.7369 0.237504 38987.4
27.2718 24.1283 0.858375 37395.4
33.0671 23.2672 -1.51477 35150.8
7.04872 37.458 1.63488 36125.8
4.46492 42.1876 0.0838418 38019.5
1.64489 40.4098 1.12471 37038.5
1.28713 38.1415 2.08763 37200.7
1.71217 37.3429 2.34918 36609.7
2.65283 36.4217 2.55332 32360.6
2.19257 33.1341 3.63345 34078
5.92554 31.1411 3.92941 34734.9
-30.079 35.6744 -0.55575 28257.5
-28.5921 34.0479 0.15948 27913.5
-25.8723 34.8869 0.474799 29353.9
-23.3675 39.1292 -0.147934 31428.3
-23.4285 41.6571 -0.94654 27090.7
-25.8994 42.575 -1.61785 27338.4
-29.7845 27.3921 1.50163 32293
-27.925 25.6325 2.53204 28570.7
-24.5998 33.4842 1.16429 31166.2
4.49947 28.3231 4.94402 42136.4
4.20422 28.0924 5.11189 41550
1.65247 24.5541 6.37798 35889.1
2.67131 22.0308 6.60809 35505.1
4.96742 21.5887 6.31795 33060.6
7.92925 24.8758 5.40764 38586
18.8217 -31.3556 -1.92551 38092.3
25.3807 -29.6634 -3.24651 38627.7
23.9744 -26.9326 -1.79863 35814.7
20.202 -28.7765 -1.15044 37162.6
-22.5518 20.2557 5.10952 32821.9
-28.6393 21.0829 3.46209 31737
-29.3361 17.8954 3.85394 32149.9
-29.2959 6.87635 5.18016 31872.9
3.73167 3.39063 7.34885 32434.2
6.72252 4.43943 6.90726 31616.1
7.90646 6.21419 6.71753 30511
6.37459 9.73987 6.7599 31930.6
4.26817 11.0398 6.87174 33868
1.86372 9.47728 7.26004 31906.4
-11.3348 6.49698 8.82664 29637.5
-12.4224 8.52269 8.60874 32123.4
-13.5442 2.12212 8.72007 29166.5
36.4417 -11.2766 -2.48298 32798
34.9431 -6.75647 -1.34335 34339.6
31.5076 -7.49594 0.0606939 39653.9
31.2009 -12.5644 -0.563045 37847.4
32.8651 -12.7904 -1.31252 37474.6
-38.7955 48.308 -8.40676 27252.4
-35.5649 45.5229 -4.98451 21369.6
-33.3455 46.8935 -4.77767 24166.7
-32.7527 50.5953 -5.94042 23486.3
-35.0948 52.2985 -8.21729 28039.6
24.7795 17.4626 2.23382 35628.1
22.3329 22.6739 2.3732 35213.1
19.1452 22.3779 3.3906 40645.4
18.3048 21.7012 3.69322 36805.6
20.4083 15.661 3.75717 34388.2
23.1673 15.668 2.92793 33116
42.9316 -7.73723 -5.98612 34216.8
41.2481 -3.43346 -4.51373 33636.7
40.3116 -3.17118 -3.82188 33852
38.2388 -4.1482 -2.57014 36545.4
39.0101 -10.962 -3.89218 36620
39.9242 -10.6544 -4.49698 38508.7
14.3277 -7.19418 5.51137 35129.9
13.5688 -7.03109 5.75526 35947.6
7.68827 -10.8834 6.24653 37561
7.69922 -11.0222 6.22057 38256.7
11.0108 -14.7466 4.95941 35286.8
16.1782 -12.4962 4.10931 31900.6
17.3821 -9.86351 4.14837 33357.3
-8.84459 -1.78771 9.07121 32262.7
-10.9805 -1.18582 8.90691 36237.4
-13.7862 -6.40287 7.90552 33964.2
-10.1805 -8.70418 7.65362 32725.1
-6.84898 -4.35977 8.53686 33347.1
18.1651 -39.4645 -5.44012 33430.7
19.0218 -36.7163 -4.48053 32797.7
16.1809 -33.1632 -2.05874 40609.4
13.4799 -32.248 -0.960577 33827.5
11.2359 -34.4649 -1.35081 36371.3
10.7864 -38.6382 -2.6721 33406
-2.89141 38.0752 2.52389 40538.6
-3.79545 42.3317 1.04812 39168
-4.68093 42.2741 1.12581 39406.6
-8.61919 39.0331 2.17034 31890.3
-6.83682 36.5564 3.01682 33349.3
-6.97614 33.7304 3.86706 34035.6
-4.91212 32.7546 4.24586 38609.3
-11.164 31.7023 4.53485 33684.5
-13.0828 27.1587 5.44337 32378.2
-11.78 24.8876 6.00199 32073.7
-9.27926 24.9376 6.12059 33910.2
-4.71022 31.8918 4.53434 36616.5
-8.93018 53.685 -3.82715 25374.9
-11.843 52.4872 -3.19174 25008.8
-12.9147 50.1547 -2.24143 28204.7
-11.5923 48.7855 -1.57946 30342.3
-5.85498 50.2742 -2.31826 30851.5
-5.32874 51.8528 -3.13513 27466.2
43.1363 -16.9967 -8.18097 31578.7
40.2061 -16.8977 -6.11879 38716.8
38.5361 -16.9927 -5.26744 34463.4
36.3895 -18.8793 -4.71532 35102.9
38.4406 -21.9129 -6.41218 39892.6
40.1014 -24.8018 -8.37734 33898.3
-6.55245 23.4764 6.59997 32216.8
-2.92641 27.0883 5.87926 33154.6
-2.50884 28.6229 5.42291 34894.4
-2.4871 30.8267 4.75032 29320
-6.68334 20.9195 7.17053 34434.6
-13.9074 21.252 6.68864 36238.3
-9.76475 18.1877 7.47738 33062.7
-13.031 -14.2839 6.43807 36189
-12.4146 -13.5984 6.6252 35806.9
24.9363 1.88346 2.92815 36322.1
26.0112 0.307144 2.33974 32950.2
27.0753 0.466182 2.03803 34404.3
30.5207 3.50621 1.03284 31941.5
31.4317 5.51396 0.738904 30457.5
28.7242 8.28368 1.60423 34226.9
26.7988 8.21656 2.35297 35992.4
-8.95239 43.8897 0.447873 34247.6
-10.8657 41.0242 1.10514 33538.5
-9.93149 38.9841 1.93233 31761.6
32.4516 -28.1324 -5.60514 38652.6
32.4562 -25.2561 -4.68988 37134.2
31.9865 -24.5989 -4.14833 39032.1
24.1915 -26.047 -1.49388 37419.5
26.9459 -30.7242 -4.3808 35646.9
-3.87091 19.5917 7.61507 39197.9
0.76507 24.5287 6.44301 38083.5
25.3918 8.69943 2.82483 31239.3
15.6408 42.1014 -1.89276 38186.3
17.2983 46.6513 -5.02342 38760.9
13.4283 48.9075 -4.9641 38028.8
11.0106 47.8766 -3.67115 36426
33.9703 -1.41163 -0.398868 33993.7
33.9321 -0.0359557 -0.187785 35784.1
29.1139 -3.18911 1.18736 36637.1
35.8857 34.2131 -6.07984 38448.9
39.1409 29.6623 -5.7998 37537.1
41.576 31.049 -7.50588 35123.6
38.8635 36.1651 -8.46342 36899.5
-0.84553 8.49921 7.72529 35355.6
-3.5051 11.1523 8.16029 34943.1
-6.43259 11.6108 8.42503 35968.8
-7.55002 5.87111 8.74963 34128.9
-5.99902 4.81219 8.65093 35895.8
-3.39722 4.56895 8.2154 30521
-34.8678 -10.5595 1.70626 32694.1
-32.4034 -8.01571 3.39 29123.5
-33.0569 -5.63777 3.45932 28188
-36.6248 -4.87798 1.75706 31163.1
-38.3541 -5.45917 0.857465 31527.3
-35.7132 -10.9995 1.0846 35674.1
-8.62874 45.4102 -0.0303884 31672.9
-5.84183 47.6735 -1.20603 29625.1
-11.2479 47.6449 -1.04444 32770.7
37.6877 -12.1052 -3.34381 36768.3
35.6692 -4.51407 -1.44729 33436.3
-4.99882 -4.06018 8.56135 29378.3
-3.53344 -1.38693 8.55241 33188.9
-1.9149 2.32052 8.03878 30248.3
39.7882 12.8205 -2.83869 38025.1
41.4481 7.28906 -3.69742 38545.5
43.7045 8.07873 -5.27764 34781.1
45.5057 11.6877 -6.54716 33289.9
44.2104 14.5576 -5.6195 35251.9
43.8193 14.855 -5.36924 37811.4
13.4382 39.0581 -0.14569 37789.8
14.9135 40.1322 -0.894961 35463.4
-9.43074 -12.3912 7.00266 30897.3
-6.9106 -13.3522 6.66632 30716.6
-2.47959 -7.28622 7.83768 37983.6
-13.3826 -36.5857 -1.60598 33187.8
-10.0014 -42.4367 -4.80804 33987.9
-8.3996 -40.1958 -2.99228 30692.9
-11.344 -36.3199 -1.00672 34209.2
-36.6829 -20.6802 -2.62084 27096.5
-36.8918 -20.7223 -2.73878 26740.9
-35.2033 -26.3334 -3.71398 28025.2
-32.1598 -27.829 -3.39184 28638
-30.8726 -25.883 -2.11518 27381.4
-32.2088 -24.0486 -1.79772 26659.4
-19.6643 39.1205 0.688271 34396.3
-19.966 44.593 -1.28144 32366.5
-21.2739 44.4376 -1.47416 28920
-33.926 -31.4786 -5.2131 25001.3
-31.3891 -36.8899 -6.77224 27628.8
-29.7135 -36.252 -5.96011 28764.3
-28.1849 -34.5344 -4.6799 27416.3
-32.3797 -30.1299 -4.3403 25510.7
-31.8445 -15.1638 1.34504 38927
-27.7478 -41.8887 -8.42707 23481.4
-24.675 -43.1322 -8.43038 25126.6
41.9453 19.9603 -4.98281 31738.2
39.284 19.0008 -3.28483 34870.9
-9.64042 -29.1324 2.34097 30461.6
-5.93182 -27.0541 3.24392 32348.1
-5.03121 -25.4618 3.80829 36090.9
-8.91977 -19.8465 5.35193 35122.6
-10.7787 -19.791 5.33329 31069.2
-13.2602 -21.6332 4.57337 35191.3
-13.6684 -22.5303 4.13841 32524.2
-10.6371 -28.4652 2.52759 29568.3
-2.68475 -14.3094 6.51695 35336.4
-5.6359 -15.1219 6.24148 31807.2
-6.34082 -18.1009 5.68813 33248.9
-1.82703 -21.7108 4.78817 32708.3
0.659982 -19.3654 5.30967 35479.8
9.11128 -25.2883 2.55996 39688.1
14.5749 -21.5852 2.52936 39636.5
13.3433 -19.511 3.37023 37096.4
10.4176 -17.817 4.38708 33774.5
8.73746 -18.7718 4.35445 34341.7
7.6523 -22.4558 3.71725 36143.5
7.79058 -24.2465 3.08543 32926.1
-3.12264 18.3896 7.76334 36991.9
-10.528 15.1905 7.81445 32853.1
-7.52445 13.2059 8.25376 33558.2
5.62651 -31.7113 0.812296 35887.8
10.2531 -27.2687 1.648 35182.6
3.65661 -26.2834 2.78954 35628.3
2.31505 -30.3211 1.58888 31360
33.8127 24.1122 -2.0363 35092.5
34.425 28.0477 -3.17612 33449.4
10.9691 26.0087 4.41008 37067
42.2389 20.9072 -5.30419 33448.2
38.423 28.5659 -5.08021 37225.3
20.4918 9.62022 4.20161 39073.8
22.2926 7.09573 3.87345 32156
19.5424 14.4893 4.15605 34391.9
33.7294 -19.0213 -3.46516 34037.5
-8.4426 -33.6117 0.508861 33716
-8.53468 -32.203 1.13058 39590.2
-13.9549 -30.5406 1.22734 36331.7
-15.5841 -32.4678 0.0160418 35157.9
12.8471 -28.4755 0.6285 36310
6.96273 -33.2717 0.0348594 38874
-33.4604 -16.3846 0.109417 31992.4
-30.4121 -20.0289 0.350541 35609.3
-35.9243 -31.5647 -5.78548 23927.3
-38.4781 -25.2632 -4.27223 23045.1
-39.5024 -27.8499 -5.41931 22713.7
-3.2472 52.9528 -3.8577 29993.5
-2.08611 54.6994 -4.95782 30212.3
-6.19342 57.5012 -6.04434 27235.6
-8.87891 56.4897 -5.35666 23974.7
-34.672 19.6605 1.45784 30604.7
-33.1258 22.7831 1.40954 33742.7
-32.5371 26.4495 0.979003 29021.7
-34.1885 27.6968 0.172396 29605
-37.277 26.854 -0.955577 26556.8
-38.8316 23.2512 -0.941214 26643.6
-37.2248 20.2766 0.378231 30212.7
36.3544 7.19673 -1.1728 34610.5
-19.1927 -32.9367 -1.09876 31971.8
-17.1608 45.9502 -1.33359 28924.9
-16.6663 48.6667 -2.09977 28340
-18.7394 51.6797 -3.51916 30910.6
3.4397 -14.558 5.99428 37071.1
4.24175 -16.6412 5.47038 34642
-49.1636 -25.7589 -7.81958 21349
-43.7484 -29.535 -6.97758 22302.4
-43.1222 -27.8107 -6.36525 21995.5
-46.5195 -22.8046 -6.64386 21985.7
17.5451 4.5714 4.8046 32953
15.1234 7.236 5.38167 31733
11.7651 6.24398 6.17556 36014.9
10.5209 1.13126 6.53863 37049.2
11.784 -0.73814 6.33448 33048.7
17.3988 1.02708 4.91857 32073.1
47.3917 17.7329 -8.25523 34515.4
47.3036 11.7856 -7.9604 35744.7
46.3999 -4.37883 -7.90957 27624
44.0058 -1.12659 -5.86006 36790.8
-15.098 44.6423 -0.556247 32895.9
-6.40696 -39.3562 -2.17541 32929.9
-5.01504 -36.6612 -0.907026 33903.6
22.509 -4.57038 2.95019 27871.1
20.3401 -1.48213 4.08514 33324.1
19.488 -1.28781 4.42823 34546.9
-34.5599 13.2246 2.96003 28320.1
-35.1788 10.6764 3.01456 29243.8
-32.4773 7.86021 4.19435 33170.5
-32.674 14.5119 3.42247 32353.9
3.33002 -42.7443 -4.48306 33951.2
5.7153 -43.9111 -5.65355 35929.5
8.64278 -42.595 -4.84837 34638.6
9.36371 -40.789 -3.88181 35433.9
9.22583 -39.9234 -3.34042 35939.4
4.73679 -36.4917 -1.08814 38930.3
0.812521 -38.6549 -1.99704 33132.4
1.05022 -40.549 -3.02208 33217.7
-17.8452 36.2292 1.99631 32271.1
-17.3363 37.9559 1.46526 31657.2
32.2486 -20.0107 -3.01931 32495.4
27.9177 -13.4108 0.367519 35670.6
27.7515 -14.5966 0.129579 34587.4
30.2253 -18.8608 -1.73464 34682.2
9.82482 55.5379 -8.04076 29492.4
6.24049 56.9906 -7.94777 26817.4
2.81395 54.972 -6.2078 33482.9
7.51667 52.7555 -5.77088 33617.3
-17.6843 35.5149 2.27953 34140
13.4493 51.2531 -6.36274 40870.4
13.7251 53.3623 -7.87825 35132
0.381606 15.7373 7.48989 34366.8
3.84861 13.8975 6.8378 34320.1
7.51334 17.2422 6.42822 34816.6
6.58524 19.3982 6.36951 35508.2
-0.230579 17.1527 7.58135 37306.5
1.98453 -19.1478 5.28054 36678
0.182788 -12.2797 6.625 32765.5
23.3701 36.5712 -1.74261 36342.5
-15.8511 27.385 5.23037 35120.9
-13.7722 33.5193 3.58594 37727.9
-17.8207 28.5078 4.36616 37352.5
0.342353 -31.6611 1.2513 35604.7
-1.55728 -23.2122 4.26447 33502.6
14.6235 -45.2055 -8.22792 29535.5
7.88748 -47.1085 -8.20104 27264.4
-11.4047 60.522 -8.30773 22075.9
-10.8362 57.5086 -6.1665 26112
46.1493 22.4221 -7.8346 29344.5
1.41749 1.19609 7.67195 29452.1
16.836 27.9848 2.97332 40231.9
12.5662 24.6692 4.3606 36523.6
15.8947 26.6932 3.55523 39818.3
-11.2513 -45.228 -6.5874 34957.4
-9.88214 -43.0894 -5.17766 33680.4
-12.9812 13.4986 7.99206 31061.7
-16.4875 56.7147 -5.8616 26467.8
-14.6782 55.2916 -4.84785 27990
-14.5488 59.8438 -8.0736 24358
-16.6154 57.3062 -6.22312 25681.9
-13.7827 41.0324 0.763204 32169.4
-14.8272 14.0835 7.81996 36924.3
-16.2124 15.3277 7.17834 34923.6
22.6275 2.85068 3.75091 32181.5
22.7901 -4.53015 2.84301 27734
-1.48599 45.8067 -0.701378 35301.1
-1.19585 43.452 0.20762 34721.9
-13.9432 34.1526 3.29416 35749.3
-21.7479 22.051 4.90812 31851.2
-18.7842 21.7971 5.74571 38648.3
-15.4817 20.128 6.58214 33231.9
16.1049 10.0987 5.14999 31205.1
15.7079 10.8201 5.21114 32577.4
10.822 11.8385 6.18667 33917
29.8492 -7.1954 0.684846 35860.3
26.1825 -9.53005 1.42558 32588.9
17.958 -41.488 -6.50085 38915.2
25.1441 -8.96598 1.81455 31595.6
-0.233808 56.1102 -6.22024 28716.3
-0.837638 59.2586 -8.06329 22113.8
21.2097 5.45551 4.17696 32571.7
30.9557 -34.4157 -7.75748 38683
26.429 -32.5461 -5.01925 38501.2
23.8813 -35.6285 -5.6666 39339
25.486 -39.0707 -8.4706 32273.4
-3.73297 -45.2016 -6.02148 34753.6
-1.98674 -42.9082 -4.29391 35795.6
-46.6178 -7.23086 -3.97338 24047.8
-45.1465 -3.12759 -2.4222 25774
-44.1658 -2.48677 -1.66417 29037.7
-45.758 3.15097 -1.96069 27002.9
-47.5213 4.33782 -2.91096 21931.4
16.3409 -25.8793 0.769634 41193.8
16.8104 -23.4439 1.29504 38248.1
-0.424625 -33.3629 0.571281 39613.8
-14.2804 54.7772 -4.46437 28763.2
-32.7698 -38.6719 -8.08126 24536.3
-35.0552 -38.307 -8.45238 22144.8
-10.857 -48.2737 -8.3647 30517.9
-20.0698 59.9535 -8.2925 27323.5
38.4799 2.19344 -2.32223 36201.8
38.1325 6.30557 -1.93885 33968.5
-41.4114 -27.6551 -5.92935 23010.3
-43.2889 -20.9633 -5.07668 22474.4
-45.763 -19.5615 -5.96697 20614.5
10.171 -3.64265 6.57472 33896.1
5.5545 -7.11712 6.89263 30787.3
-1.91967 -36.3597 -0.819267 29916.8
-43.3017 -34.8108 -8.53148 19855.2
-43.8315 -31.9291 -7.68792 21195.9
-47.4834 -31.7308 -8.37547 22067.6
3.38686 -6.19927 7.04296 30792.9
8.51866 1.44378 6.84256 34027.7
2.86119 -2.69639 7.41845 31244.1
23.0221 24.4353 1.8258 36256.7
35.221 -30.7419 -8.06622 34943.1
21.9812 27.4485 1.51907 36913.9
19.2806 28.9104 2.05126 34567.5
0.998454 -8.61656 7.02729 35570.7
1.99862 -2.23987 7.60184 32929.9
-39.9583 7.84218 0.923067 29713.4
-38.4014 14.3502 1.45211 31952
-41.1639 8.46993 0.147307 30485.7
25.1316 30.9279 -0.361227 41902
19.0399 31.7209 1.30404 39679.3
-45.3983 15.6777 -3.19164 27270.9
-42.6399 14.4981 -1.11121 25878.8
-40.5273 16.4408 0.109536 28654.6
-43.8077 19.5663 -2.86643 30793.7
-29.1401 22.9234 2.94928 30559.6
9.6696 16.9367 6.1458 33547.4
13.7896 18.1918 4.89673 31959.7
16.4873 13.5866 4.83968 31359.9
19.2501 50.4923 -8.23852 34828.4
23.2444 46.6399 -7.3051 36217.1
20.2947 35.3709 -0.31763 40440
18.3849 32.8031 1.04686 35967.4
14.1976 21.4029 4.45878 32777.4
12.827 22.999 4.55661 35389
-44.0284 -11.7962 -3.69835 23638.3
-40.687 -10.4866 -1.73091 28043.8
-40.8272 -7.43403 -0.909759 27355.9
-41.3047 2.1346 0.277192 26161.9
-39.7482 3.64641 1.0487 29851.4
-42.8225 9.85873 -0.942617 27323.2
-46.7434 8.02644 -2.72404 21790.4
-31.4159 -3.21344 4.31728 32890.9
-31.0082 -0.0799525 4.73493 30948.4
-35.11 1.95633 3.06638 34623.8
-35.5792 1.8423 2.82339 32171.8
-38.5536 -36.1502 -8.22346 22901.8
-41.0895 -28.0784 -5.97617 23116.2
-33.9841 31.7004 -0.477355 29503.8
-37.9844 31.3125 -1.8351 23890.2
-38.4078 28.9853 -1.68851 24511.3
-40.9795 -19.4249 -4.02826 22734.5
-41.4693 -16.972 -3.63575 23416.7
-43.091 -15.5213 -3.95527 23454.4
-39.7403 -5.48817 0.0772076 31075.5
-42.0751 -1.79782 -0.475256 25546.8
-44.1827 26.5092 -4.33251 22818.4
-43.094 22.2636 -2.89744 25157.8
-38.4245 32.0613 -2.13858 21239.9
-41.6709 33.0063 -3.9104 23048.1
-41.1654 38.182 -4.89839 23256
-37.8875 39.3894 -3.83492 22213.1
-37.8089 42.6123 -5.1973 21286.7
-41.0027 45.0459 -8.26495 22804.8
-39.059 -20.8609 -3.61063 23416.3
-37.6882 -14.2613 -1.17864 28632.3
-37.6927 -13.1335 -0.824979 31152
-40.2028 16.4835 0.272216 29153.4
-36.2639 36.2655 -2.29397 22282
-37.0308 38.6206 -3.22671 23025.1
-32.4873 35.5523 -1.22054 24549.1
-31.6961 36.1576 -1.1497 27125
-30.9413 40.0397 -1.85085 25511.9
-34.3435 41.6171 -3.19239 25307.2
-35.0823 -16.7607 -0.825411 32667
-31.8419 17.1107 3.17765 27815.7
-36.1311 43.758 -4.79956 22591.4
-28.6107 44.3499 -2.77961 27387.4
-28.1354 43.0519 -2.19347 27072.4
6 430 431 432 113 112 433 5268
4 433 435 436 430 5297
5 445 219 218 446 447 4953
6 435 433 112 111 265 264 5143
6 447 58 57 474 475 445 5136
6 278 292 455 162 167 273 5213
6 446 473 434 59 58 447 4948
6 245 244 469 410 409 470 5016
5 480 481 427 174 173 5233
7 470 483 481 480 268 246 245 5241
7 468 476 475 474 158 87 86 5276
6 491 492 407 306 305 460 5173
6 86 85 31 30 467 468 5135
5 147 60 59 434 424 5011
6 424 425 314 142 141 147 5134
7 424 434 473 253 252 466 425 5293
6 466 406 387 315 314 425 5145
4 450 418 417 451 5271
5 306 407 408 363 307 5026
6 405 188 187 7 6 404 5015
6 404 11 10 295 294 405 5170
6 358 270 269 79 78 355 5144
6 450 5 4 482 419 418 5299
6 388 387 406 287 226 225 5294
7 315 387 388 389 72 71 316 5139
7 426 362 175 174 427 428 429 5141
5 122 249 248 385 123 5101
6 94 91 90 322 369 370 5245
5 50 459 460 305 51 5284
6 462 463 453 452 464 465 5154
7 374 228 227 286 471 108 114 5078
5 429 428 106 105 120 5084
6 357 325 298 297 402 454 5086
5 30 29 169 461 467 5291
5 332 331 242 65 64 5288
6 498 499 341 340 351 367 5301
6 396 397 398 399 400 401 5198
5 176 177 178 179 180 5242
7 437 438 439 440 152 151 441 5247
6 347 441 151 150 260 259 4935
5 388 225 224 501 389 5295
6 411 410 469 486 396 401 5119
6 244 250 261 360 486 469 5182
5 205 210 420 419 482 5164
6 73 72 389 501 463 462 5146
5 502 318 317 371 503 5089
6 173 172 289 266 268 480 5087
7 107 483 470 409 199 198 102 5115
7 348 241 240 476 468 467 461 4952
5 420 210 209 368 421 5272
8 416 417 418 419 420 421 422 423 5116
6 69 68 73 462 465 505 5140
3 505 465 464 5147
6 205 206 207 208 209 210 5039
6 396 486 360 359 477 397 5232
4 504 459 50 49 5148
6 506 507 385 248 247 267 4992
6 188 405 294 507 506 189 5079
6 175 362 232 231 288 171 5030
6 209 208 367 351 350 368 5286
6 359 360 261 186 185 361 5287
6 304 52 51 305 306 307 5285
6 52 304 366 386 117 53 5281
6 456 22 21 356 457 458 5027
6 128 130 354 355 78 77 5023
4 487 488 489 490 5300
8 307 363 364 327 334 365 366 304 5159
7 386 366 365 45 44 97 100 5273
5 365 334 333 46 45 5017
6 350 351 340 346 352 353 5259
4 269 270 271 272 5035
6 47 46 333 332 64 63 5142
8 327 328 329 330 331 332 333 334 5303
7 340 341 342 343 344 345 346 5289
4 324 55 54 116 5120
5 179 74 67 70 180 5253
4 100 99 117 386 5266
5 90 93 280 279 322 4997
6 481 483 107 106 428 427 5174
6 153 356 21 20 138 148 5280
5 317 318 319 320 321 5102
5 142 314 315 316 143 5137
6 308 309 310 311 312 313 4996
7 299 110 109 132 131 25 24 5021
8 337 336 302 301 243 242 331 330 5167
7 81 80 18 17 37 36 444 5207
6 290 204 203 301 302 303 5028
6 298 325 326 125 124 293 5176
6 265 111 110 299 300 262 5177
6 293 294 295 296 297 298 5178
5 326 354 130 126 125 5009
7 204 290 291 292 278 277 200 5048
6 355 354 326 325 357 358 5031
6 277 276 168 170 201 200 5305
6 171 288 191 190 289 172 5180
6 273 274 275 276 277 278 5196
5 266 267 247 246 268 5292
6 262 35 34 263 264 265 5068
6 349 275 274 437 441 347 5216
6 347 259 239 241 348 349 5032
7 186 261 250 249 122 121 181 5099
5 242 243 40 39 65 5282
6 40 243 301 203 202 41 5160
5 236 235 239 259 260 5218
6 344 343 197 196 390 391 4944
5 199 409 410 411 193 4989
7 244 245 246 247 248 249 250 5244
6 239 235 221 220 240 241 5025
6 235 236 237 238 222 221 5181
4 402 297 296 403 4913
7 216 218 219 220 221 222 217 5306
6 215 216 217 135 134 211 5200
5 211 212 213 214 215 5057
5 200 201 202 203 204 5296
6 187 188 189 190 191 192 5066
6 181 182 183 184 185 186 5129
7 42 41 202 201 170 28 27 5150
5 213 251 252 253 214 4964
6 103 102 198 197 343 342 5168
5 171 172 173 174 175 4985
5 168 169 29 28 170 5290
7 471 286 285 251 213 212 472 5202
5 285 286 227 226 287 5307
6 223 224 225 226 227 228 5308
6 228 374 375 376 377 223 4974
6 0 452 453 377 376 1 4959
7 193 194 195 196 197 198 199 5169
5 231 230 192 191 288 5060
6 154 157 498 367 208 207 5186
5 500 448 328 327 364 5192
6 267 266 289 190 189 506 5098
7 461 169 168 276 275 349 348 5024
6 15 14 491 460 459 504 5165
4 194 511 512 195 5152
6 445 475 476 240 220 219 5151
6 513 408 407 492 423 422 5188
5 403 296 295 10 9 5189
5 500 364 363 408 513 5190
7 517 512 511 400 399 518 519 5275
6 127 129 520 182 181 121 5045
6 411 401 400 511 194 193 5053
6 293 124 123 385 507 294 5155
6 448 353 352 449 329 328 5210
6 118 104 103 342 341 499 5193
5 330 329 449 338 337 5175
7 473 446 218 216 215 214 253 5171
5 234 233 255 254 521 5162
7 458 183 182 520 522 523 456 5239
5 518 399 398 164 163 5153
6 252 251 285 287 406 466 5298
5 335 336 337 338 339 5046
5 521 254 258 488 487 5195
6 524 303 302 336 335 443 5212
7 303 524 517 519 525 291 290 5085
4 516 515 393 392 4973
4 392 393 394 395 5201
5 454 271 270 358 357 5069
7 165 164 398 397 477 478 479 5019
7 522 520 129 128 77 76 529 5056
5 493 494 495 496 497 4975
6 229 230 231 232 233 234 5051
6 224 223 377 453 463 501 4958
4 529 530 523 522 4954
7 56 146 535 159 158 474 57 5128
6 165 479 536 439 438 166 5138
5 537 536 479 478 538 5172
5 539 263 34 33 540 5131
6 217 222 238 137 136 135 5092
5 395 394 508 509 510 5209
7 81 444 541 542 530 529 76 5157
6 440 439 536 537 543 544 5156
5 545 546 547 494 493 5074
6 192 230 229 8 7 187 5013
8 496 548 549 526 528 550 551 497 5076
6 538 361 185 184 543 537 5204
4 550 532 531 551 5203
6 375 484 485 2 1 376 4984
6 272 19 18 80 79 269 5012
6 184 183 458 457 544 543 5061
6 544 457 356 153 152 440 5279
6 256 255 233 232 362 426 5304
6 416 423 492 491 14 13 4986
5 16 540 33 37 17 5064
6 523 530 542 23 22 456 4978
3 514 515 516 4932
7 393 515 514 556 557 508 394 4980
6 300 299 24 23 542 541 4979
5 510 509 561 562 563 5065
5 547 564 565 495 494 5214
4 495 565 548 496 5075
6 541 444 36 35 262 300 5096
4 531 532 533 534 5211
6 167 166 438 437 274 273 5215
7 339 338 449 352 346 345 442 5000
5 566 567 383 382 560 5081
5 560 559 568 569 566 5219
6 339 442 391 390 443 335 4990
4 570 571 572 573 4937
5 264 263 539 436 435 5070
4 291 525 455 292 5072
7 508 557 373 372 574 561 509 5071
6 545 563 562 575 576 546 4981
7 283 282 555 549 548 565 564 5083
6 577 533 532 550 528 527 5217
6 114 113 432 484 375 374 5094
6 534 533 577 384 383 567 5223
6 569 568 578 579 571 570 5224
6 138 137 238 237 149 148 5234
7 254 255 256 257 156 155 258 5221
5 472 212 211 134 133 5236
7 207 206 489 488 258 155 154 5109
5 556 503 371 373 557 4983
7 371 317 321 311 310 372 373 4988
4 310 309 574 372 5220
7 562 561 574 309 308 584 575 5227
6 547 546 576 284 283 564 5222
6 555 554 414 413 526 549 5229
7 499 498 157 156 257 119 118 5080
5 526 413 412 527 528 5230
6 426 429 120 119 257 256 5225
7 527 412 415 585 378 384 577 5093
5 451 417 416 13 12 5243
5 573 572 586 177 176 5088
8 422 421 368 350 353 448 500 513 5226
7 284 576 575 584 369 322 279 5228
7 587 588 144 143 316 71 75 5264
5 144 588 582 581 139 5111
6 279 280 281 282 283 284 4939
6 282 281 552 553 554 555 5235
7 378 379 380 381 382 383 384 5231
5 382 381 558 559 560 5237
5 578 568 559 558 580 4994
6 580 581 582 583 579 578 5240
5 583 586 572 571 579 4991
5 361 538 478 477 359 5090
5 308 313 370 369 584 5097
5 260 150 149 237 236 5091
6 553 89 88 161 414 554 5108
7 412 413 414 161 84 83 415 5246
6 585 160 159 535 379 378 4998
6 472 133 132 109 108 471 5112
8 145 140 139 581 580 558 381 380 4999
7 582 588 587 178 177 586 583 5250
4 485 484 432 431 5113
4 323 319 318 502 4995
7 321 320 115 98 101 312 311 5104
7 313 312 101 96 95 94 370 5106
5 281 280 93 92 552 5107
6 92 62 61 89 553 552 5114
5 83 82 160 585 415 5256
5 380 379 535 146 145 5248
4 442 345 344 391 5260
5 587 75 74 179 178 5252
7 443 390 196 195 512 517 524 5100
7 4 3 490 489 206 205 482 5105
6 323 324 116 115 320 319 5254
6 518 163 162 455 525 519 5126
6 162 163 164 165 166 167 5263
6 161 88 32 31 85 84 5127
5 87 158 159 160 82 4946
4 154 155 156 157 5277
6 148 149 150 151 152 153 5249
7 145 146 56 60 147 141 140 5257
6 139 140 141 142 143 144 5117
6 137 138 20 25 131 136 5265
6 131 132 133 134 135 136 5008
5 128 129 127 126 130 5022
7 121 122 123 124 125 126 127 5003
5 105 104 118 119 120 5278
7 115 116 54 53 117 99 98 5121
7 108 109 110 111 112 113 114 5130
6 102 103 104 105 106 107 5255
6 98 99 100 97 96 101 5122
5 95 96 97 44 48 5123
7 48 47 63 66 91 94 95 5261
8 90 91 66 38 43 62 92 93 5262
5 61 26 32 88 89 5005
6 82 83 84 85 86 87 5132
6 76 77 78 79 80 81 5258
7 71 72 73 68 67 74 75 5006
4 67 68 69 70 5007
6 63 64 65 39 38 66 5269
6 27 26 61 62 43 42 5270
5 56 57 58 59 60 5133
7 49 50 51 52 53 54 55 5014
5 44 45 46 47 48 5267
6 38 39 40 41 42 43 5283
5 33 34 35 36 37 4955
7 26 27 28 29 30 31 32 5274
6 20 21 22 23 24 25 5020
4 16 17 18 19 5029
4 12 13 14 15 5063
3 9 10 11 4987
3 6 7 8 5125
3 3 4 5 5077
3 0 1 2 4930
