ply
format ascii 1.0
comment Exported from MorphoGraphX 2.0 1-254
comment Cellular mesh
element vertex 278
property float x
property float y
property float z
property float signal
element face 140
property list int int vertex_index
property int label
end_header
27.379 -21.3458 7.62148 42563.5
25.7572 -24.5736 5.90855 39055.5
26.5526 -26.5875 4.62315 45810
32.7369 -24.3218 6.01142 41426
32.7006 -23.0352 6.70079 35851.5
-18.4913 21.4983 4.69656 40037.1
-19.742 22.4382 3.58724 41441.2
-22.0625 22.6233 1.83902 36986.9
-23.7817 20.7221 1.12906 35088.4
-22.9308 14.834 3.43873 44067.5
-21.3484 14.1577 4.67176 41173.9
-19.7944 14.1668 5.63719 37673.9
-18.7446 17.3682 5.6589 39371.3
-14.134 6.07504 8.85959 37225
-11.2134 7.98388 10.0096 43188.8
-11.5878 13.0436 9.65012 44348.7
-18.1264 12.3582 6.79758 39366.5
-18.5626 7.5352 6.86913 38020.9
-8.25567 2.09738 10.7035 40654.4
-2.55487 4.92636 12.4108 39681.3
-4.36171 9.28804 12.0112 44423.8
-7.02324 8.5695 11.3309 52599
-9.78377 6.62902 10.4773 33113.9
-6.91039 -1.79457 10.6069 36646.9
-0.843016 -0.46048 12.3582 48704.6
-0.525878 0.426192 12.5223 46187.7
-1.34209 4.5708 12.6618 43085.9
-8.55141 1.61747 10.5605 40671.9
3.52325 -9.24351 11.3922 49576.3
9.01082 -9.386 11.9747 46300.7
10.0721 -7.42729 12.5312 48325.9
9.41423 -4.89295 13.0234 50295.4
7.80551 -3.08023 13.2213 41232.6
2.11314 -4.1642 12.3297 53406.5
2.44205 -7.41044 11.6884 57221.4
9.4115 -15.4095 9.98757 43865.6
10.5476 -16.148 9.76853 51257.9
14.6966 -12.0635 11.3792 60645.5
13.3896 -7.84041 12.5166 55181.5
16.818 -13.4711 10.9194 61713.6
11.7465 -18.1556 8.97177 42955
16.1315 -18.6486 8.91817 44500
18.0477 -15.9231 10.0423 45102.2
20.8515 -15.3969 10.1728 49612.3
16.8423 -20.8773 7.85522 46333.7
19.8284 -23.1356 6.68443 42642.1
23.0975 -18.5447 8.93182 42671.5
27.2838 -20.2186 8.12309 34809.2
24.8801 -18.6189 8.85383 40874.3
20.4975 -24.2639 6.02986 39436.4
0.298725 -3.81694 12.0669 49461.6
-6.90568 -3.49063 10.3116 36853
-4.04601 -6.22374 10.5468 44279
-21.9978 7.00176 5.01767 39172.8
-19.7047 6.40911 6.2906 32896.4
-13.8868 -0.0270996 8.46183 40795.4
-12.3986 -0.327557 8.98246 39669.5
22.7495 17.5858 12.1898 57701.8
26.8014 17.61 10.9773 54083.3
28.5408 20.4781 9.78198 57148.4
27.0475 22.4658 9.90302 54018.2
21.959 20.3477 11.8935 65027.7
40.404 6.60038 6.47194 57308.2
41.2558 8.51494 5.63562 54067.4
39.5095 10.917 6.00387 57581.3
37.9558 11.3681 6.7388 54452
34.8713 6.82026 8.91976 52332.5
36.5403 5.38977 8.41892 51775.2
35.6322 13.7415 7.53915 53640.2
36.4382 15.7137 6.72119 52599.2
35.0903 17.6794 7.08313 50953.4
34.0954 17.9393 7.57392 51620.2
28.0238 15.2393 10.872 57324.8
28.3429 11.6629 11.0842 56943.7
31.3153 11.5852 9.92007 54700.6
5.28741 5.13264 13.744 47289.6
2.76089 6.9659 13.4386 35351.8
5.64955 2.99359 13.6929 52036.5
-3.56815 -18.9102 6.10277 43747.7
-1.78353 -17.7173 7.15304 43435.1
-1.65771 -16.0219 7.95146 47981.7
-2.2362 -12.3617 9.24199 47662.6
-4.23806 -10.7817 9.24367 42521.7
-7.19159 -12.1914 7.89883 41478.3
-7.94548 -14.6999 6.70529 48535.5
33.4902 7.13206 9.4655 53219.5
19.2605 -8.83744 12.0741 61351.9
16.6698 -7.00261 12.6083 52178.2
3.44644 37.4978 5.41542 63581.6
3.78282 34.0241 7.30636 55118.6
7.82946 33.2523 8.11814 49184.7
9.50991 37.0965 6.178 56586.9
9.45901 38.2673 5.48553 58292.2
-8.83596 -25.9048 -0.0117301 44459.7
-8.24456 -22.3798 2.68171 38199.2
-10.5557 -17.8528 4.38511 39665.4
-13.4717 -19.5127 2.41027 42099.3
-12.2113 -24.8487 -0.546511 38482.7
36.2185 0.75411 9.14423 46093.2
41.6987 3.30323 6.58562 56115.9
42.7662 14.9797 3.21508 52065
39.6711 17.139 4.48222 47492.5
38.2798 23.1089 3.60147 36656.9
36.6131 -2.84996 9.35897 45257.2
38.7905 -4.29411 8.84583 44763.9
41.3292 -3.38119 7.93686 50637.6
42.3922 2.58464 6.44661 58465.7
35.379 -1.39922 9.62745 48817.8
-10.0252 -16.1781 5.3599 42005.5
-5.47336 -21.6417 4.04792 41479.8
44.6508 9.25585 3.75005 55824
47.0539 2.98518 4.36205 55258.2
-9.34925 25.599 7.60531 59640.2
-8.47765 28.8879 6.6259 47570.2
-11.5086 31.1492 4.39244 35346.5
-13.9213 29.8731 3.84419 36874.2
-15.0909 26.891 4.57479 45018.9
-14.4049 24.9868 5.70583 48480.5
-11.6044 19.9101 8.49418 48888.8
-14.7168 22.4886 6.42791 40226.7
-11.9887 18.1089 8.74408 46227.3
-8.49688 22.1867 8.99013 53072
-6.02206 22.2661 9.69935 51630.3
-2.43761 24.6889 9.8633 51941.8
-4.35613 29.0678 7.83662 45706.7
-3.74234 29.9107 7.65354 48808.2
2.24752 29.7583 8.96888 55007.3
2.21897 33.3982 7.36988 56150.9
-2.64546 33.9765 6.07231 45708.3
-10.1247 15.1217 9.9173 43712.3
43.0349 -4.18667 7.47029 55347.1
44.487 -4.24589 6.96145 49691.2
36.7994 -9.12458 9.51182 44548.5
36.8968 -9.7351 9.47207 42426.8
38.7231 -10.632 9.03982 49162.2
39.3348 -10.6809 8.90016 51685
16.5094 0.576288 13.646 44192.7
21.3598 2.10418 13.131 43015.4
22.6632 8.48231 12.9152 47588
19.9547 9.89729 13.4106 47079
13.82 4.51799 14.045 50294.9
13.7528 1.45356 13.875 43186.3
23.303 -11.1334 11.2347 42691.6
20.7827 -9.02418 11.9121 54205.3
0.983663 19.7583 11.7953 50194.8
4.77826 20.063 12.2652 63202
5.20358 20.6115 12.1927 64242.2
2.23997 25.3058 10.5446 56141.3
-0.588812 23.8873 10.4829 44905.1
22.5846 -3.80158 12.5068 54579.9
24.3145 -10.7425 11.2266 44527.6
26.2675 -7.4663 11.5391 46491.7
27.1428 -2.84465 11.7743 45073
25.6457 -1.92595 12.1156 45258.9
35.9584 24.7956 4.51342 41138.3
33.0394 22.4311 7.08155 53831.1
31.9472 20.4598 8.1965 52535
9.30381 -24.0064 5.63816 38211
9.30945 -25.2023 4.86057 40469.3
13.2667 -25.3151 5.09586 43193.5
32.8022 -15.4793 9.36287 26953.3
34.841 -17.1652 8.7349 36207.6
23.0581 33.7131 6.71066 47445.1
21.9737 32.1618 7.83502 52870.3
24.6373 30.0874 8.13177 60971.4
26.2685 29.2945 7.88532 55429.3
-3.96236 10.6438 12.0493 44191.8
2.8518 11.1102 13.3009 39120.1
3.7019 13.1782 13.2386 34405.8
0.27413 17.971 12.0326 44594.9
-3.8699 16.9259 11.3891 49123.2
-5.39287 15.1269 11.2946 41791.4
3.47906 42.0709 2.55161 45943.9
3.10414 38.3194 4.90234 62082.5
9.80271 41.3782 3.4978 51954.7
15.3856 10.7953 13.9333 53286.4
10.1295 17.7187 13.1915 53191.6
7.50244 14.9312 13.4431 53879.7
11.4789 8.99793 14.105 47241.4
-7.81915 15.0113 10.664 48252.6
34.189 -8.34281 10.0851 42524.2
31.9908 -3.12412 10.6653 44115
31.7848 -6.69203 10.6411 42878.6
31.8933 -8.07474 10.5399 47609.8
17.7405 -3.8503 13.0575 56310.4
25.3699 0.258834 12.257 39738.5
16.6195 -1.59347 13.4333 51434.7
18.4583 -27.2125 4.01512 37313.5
8.04928 6.93627 14.0078 50273.4
4.4338 13.3555 13.3132 45100.6
25.9367 25.3299 9.52093 54175.6
23.665 25.3997 10.1962 60013.4
20.8168 25.1772 10.9044 52417.3
19.1923 23.111 11.7452 53335.4
10.8507 7.7531 14.1214 47893.5
6.42763 14.7876 13.3644 51066.4
20.0995 27.4945 10.2418 58636.5
14.0613 27.2976 10.7621 62727.5
14.1264 25.8332 11.2739 61375.4
16.6474 22.4018 12.1684 55601.4
26.8628 -12.6869 10.5637 40456.3
29.5442 -12.6088 10.3015 37998.5
8.07755 0.291584 13.6778 40564.9
35.0193 -18.0506 8.48113 32881.6
30.8425 -15.3079 9.5741 30031.1
-22.455 25.6465 0.212972 33996.7
-23.5856 26.4333 -1.18671 32134.9
-10.312 -5.90836 8.70455 39478.4
30.108 27.6057 6.86455 51246.5
27.4872 27.1041 8.30283 51091.8
18.2542 11.6103 13.5862 49920.5
18.6048 15.6083 13.1888 55745.6
15.0271 19.6965 12.8507 49252.6
10.6853 19.1826 12.9349 50980.2
3.85133 -20.2267 7.08028 44128.3
1.57971 -20.4545 6.54172 41911.5
0.498359 -23.2767 4.6759 47669.4
5.63597 -22.9756 5.81777 44136.7
8.01286 -31.8412 -0.653776 32300.8
8.92455 -29.3691 1.68897 40261.8
8.36839 -27.0826 3.42586 37196.8
0.295275 -27.9504 1.28963 37468.7
40.9542 -12.6541 8.4887 53740.1
36.5254 -18.0009 8.34851 36809.6
-12.8944 36.972 0.505453 32393.8
-11.4353 33.4917 3.25116 46019.6
-8.20638 34.8647 3.8759 45631
-6.21202 39.4513 1.87407 41335.7
28.6411 3.97137 11.4079 49004
30.5945 4.8103 10.7432 55313.2
26.5299 10.5702 11.7772 51885.3
25.2798 9.23433 12.2191 55017.4
-16.9175 30.8388 1.66935 46215.5
-18.327 32.5563 -0.200931 39696.4
-0.649682 -27.2244 1.62468 36527.7
-0.489095 -24.7564 3.47772 40992
-4.01207 -23.3214 3.46356 38397.9
-6.65322 -27.343 -0.36042 43337.9
30.0067 -2.08823 11.1541 51390.3
-24.5285 6.99034 3.38415 38187.3
9.32561 24.4746 11.5523 60515.5
9.14778 21.5173 12.3344 56445.1
19.7298 30.4373 9.08269 51269
3.21757 26.5146 10.3043 56834
8.14695 26.5538 10.817 50655.7
21.1915 16.2038 12.7044 63594.1
17.6651 31.2134 8.97409 64020.7
14.3911 31.7653 8.9276 55337.7
12.9765 30.4918 9.52297 52571.9
19.2203 35.955 6.18353 59452.5
15.2318 35.6959 6.86538 60045.8
12.6381 37.0327 6.22342 61903.1
9.39429 30.7763 9.31945 54507.8
16.1848 37.1764 5.88684 58395.1
-16.0521 -19.86 1.13824 31445.7
-3.36417 35.5846 5.06623 45151.7
-19.6592 -0.749795 5.87436 35473.5
-22.9894 -1.25831 4.09076 28174.4
-3.40276 39.1505 2.98209 46864.9
-2.99671 37.2976 4.2088 51691
-12.3488 -13.8355 5.49603 48323.2
-12.7455 -13.7201 5.394 43202.3
-17.6034 -14.7303 3.02092 31676.1
-16.904 -10.0542 5.06642 31017.8
-17.8857 -11.5478 4.13959 34811.9
-11.3137 -7.98227 7.84584 39145.8
-12.8985 -8.00954 7.2525 40248
-16.4027 -7.32213 6.06335 38918
-17.0639 -5.79619 6.17218 42255.9
-21.8814 -6.29763 3.85178 37352.7
-16.8469 -2.24663 6.93101 32112.7
18.5039 -31.1246 0.859576 43117.7
18.141 -30.2445 1.61602 43014.6
6.16911 -17.4783 8.76977 44342.9
3.69192 -14.6369 9.6064 52132.5
12.7948 41.8884 3.05161 47031.8
1.64068 -11.3257 10.4373 55236.7
-4.0311 -8.41014 9.99503 45929.9
6 39 42 43 142 143 86 698
4 8 7 205 206 516
5 143 149 184 87 86 637
5 86 87 38 37 39 699
7 184 149 153 185 137 136 186 509
6 186 31 30 38 87 184 522
5 172 173 88 92 174 715
6 141 202 32 31 186 136 457
6 166 167 168 169 170 171 461
6 154 155 156 71 70 102 511
6 136 137 138 139 140 141 534
7 202 141 140 194 188 75 77 523
6 222 135 134 161 203 223 524
6 76 75 188 189 168 167 525
4 133 160 161 134 743
7 183 201 204 160 133 132 180 742
7 77 25 24 50 33 32 202 700
5 75 76 26 25 77 701
6 182 151 150 200 201 183 657
6 167 166 20 19 26 76 531
6 180 103 107 181 182 183 559
5 181 238 152 151 182 528
3 155 154 208 465
7 149 143 142 150 151 152 153 669
6 116 115 232 205 7 6 721
5 171 179 21 20 166 532
6 139 210 175 178 194 140 536
4 232 233 206 205 725
6 22 21 179 129 15 14 704
8 120 129 179 171 170 122 121 118 686
6 188 194 178 177 195 189 538
4 175 176 177 178 568
5 111 106 105 130 131 681
6 170 169 144 148 123 122 464
5 6 5 119 117 116 547
6 16 15 129 120 12 11 687
6 168 189 195 145 144 169 539
6 113 112 121 122 123 124 541
5 118 119 5 12 120 706
6 112 113 114 115 116 117 678
6 233 232 115 114 225 224 468
6 110 63 62 99 106 111 550
5 121 112 117 119 118 708
4 110 100 64 63 548
6 84 108 95 94 109 78 602
7 103 104 105 106 99 98 107 653
7 208 209 190 60 59 156 155 624
6 69 68 65 64 100 101 549
4 67 98 99 62 682
5 88 89 90 91 92 710
5 74 85 66 65 68 572
7 78 79 80 81 82 83 84 626
7 68 69 70 71 72 73 74 574
5 58 72 71 156 59 618
6 62 63 64 65 66 67 552
5 57 58 59 60 61 635
6 60 190 191 192 193 61 656
4 135 222 131 130 590
7 104 132 133 134 135 130 105 593
4 180 132 104 103 594
6 164 163 242 196 192 191 627
6 196 197 198 199 193 192 666
8 238 181 107 98 67 66 85 229 504
6 185 153 152 238 229 228 561
6 196 242 246 247 248 197 562
5 228 231 138 137 185 597
7 250 251 91 90 252 248 247 567
5 249 253 250 247 246 514
5 93 94 95 96 97 583
3 97 96 254 483
7 176 213 241 146 145 195 177 600
5 144 145 146 147 148 571
7 126 125 124 123 148 147 243 603
8 124 125 128 255 226 225 114 113 607
4 172 258 259 173 728
7 228 229 85 74 73 230 231 658
7 259 255 128 127 89 88 173 697
4 234 235 236 237 595
5 93 237 236 109 94 484
4 102 70 69 101 676
6 245 230 73 72 58 57 688
4 162 163 164 165 489
4 218 219 220 221 592
7 254 96 95 108 260 261 262 596
7 61 193 199 212 211 245 57 691
8 217 216 235 234 221 220 158 157 492
4 261 263 264 262 490
5 267 268 269 264 263 604
5 257 269 268 270 256 494
6 175 210 211 212 213 176 497
4 271 272 219 218 613
7 79 78 109 236 235 216 215 601
6 243 147 146 241 240 244 631
6 265 266 260 108 84 83 617
5 263 261 260 266 267 493
5 242 163 162 249 246 689
4 224 225 226 227 717
4 223 203 4 3 518
6 159 158 220 219 272 187 623
4 214 215 216 217 615
8 207 56 55 270 268 267 266 265 498
5 256 54 53 239 257 734
7 4 203 161 160 204 47 0 711
4 275 251 250 253 693
6 212 199 198 240 241 213 663
5 48 47 204 201 200 628
7 214 217 157 40 36 35 273 639
6 214 273 274 80 79 215 625
4 274 276 81 80 640
7 83 82 277 52 51 207 265 629
5 191 190 209 165 164 683
7 210 139 138 231 230 245 211 496
6 197 248 252 244 240 198 634
6 200 150 142 43 46 48 712
5 255 259 258 227 226 726
6 2 1 49 187 272 271 503
6 44 41 40 157 158 159 638
5 159 187 49 45 44 649
5 275 174 92 91 251 630
5 207 51 23 27 56 643
6 256 270 55 13 17 54 644
7 244 252 90 89 127 126 243 696
4 125 126 127 128 668
4 239 53 10 9 655
6 35 29 28 276 274 273 662
6 81 276 28 34 277 82 642
5 277 34 33 50 52 664
7 22 14 13 55 56 27 18 667
6 11 10 53 54 17 16 654
5 50 24 23 51 52 665
7 1 0 47 48 46 45 49 680
6 43 42 41 44 45 46 508
6 39 37 36 40 41 42 672
6 35 36 37 38 30 29 674
7 28 29 30 31 32 33 34 684
7 23 24 25 26 19 18 27 510
5 18 19 20 21 22 513
5 13 14 15 16 17 675
8 5 6 7 8 9 10 11 12 677
5 0 1 2 3 4 512
