ply
format ascii 1.0
comment Exported from MorphoGraphX 2.0.1-254
comment Cell Graph: each vertex is a cell, each edge a wall
element vertex 140
property int label
property float x
property float y
property float z
element edge 377
property uint source
property uint target
end_header
457 0 0 0 
461 0 0 0 
464 0 0 0 
465 0 0 0 
468 0 0 0 
483 0 0 0 
484 0 0 0 
489 0 0 0 
490 0 0 0 
492 0 0 0 
493 0 0 0 
494 0 0 0 
496 0 0 0 
497 0 0 0 
498 0 0 0 
503 0 0 0 
504 0 0 0 
508 0 0 0 
509 0 0 0 
510 0 0 0 
511 0 0 0 
512 0 0 0 
513 0 0 0 
514 0 0 0 
516 0 0 0 
518 0 0 0 
522 0 0 0 
523 0 0 0 
524 0 0 0 
525 0 0 0 
528 0 0 0 
531 0 0 0 
532 0 0 0 
534 0 0 0 
536 0 0 0 
538 0 0 0 
539 0 0 0 
541 0 0 0 
547 0 0 0 
548 0 0 0 
549 0 0 0 
550 0 0 0 
552 0 0 0 
559 0 0 0 
561 0 0 0 
562 0 0 0 
567 0 0 0 
568 0 0 0 
571 0 0 0 
572 0 0 0 
574 0 0 0 
583 0 0 0 
590 0 0 0 
592 0 0 0 
593 0 0 0 
594 0 0 0 
595 0 0 0 
596 0 0 0 
597 0 0 0 
600 0 0 0 
601 0 0 0 
602 0 0 0 
603 0 0 0 
604 0 0 0 
607 0 0 0 
613 0 0 0 
615 0 0 0 
617 0 0 0 
618 0 0 0 
623 0 0 0 
624 0 0 0 
625 0 0 0 
626 0 0 0 
627 0 0 0 
628 0 0 0 
629 0 0 0 
630 0 0 0 
631 0 0 0 
634 0 0 0 
635 0 0 0 
637 0 0 0 
638 0 0 0 
639 0 0 0 
640 0 0 0 
642 0 0 0 
643 0 0 0 
644 0 0 0 
649 0 0 0 
653 0 0 0 
654 0 0 0 
655 0 0 0 
656 0 0 0 
657 0 0 0 
658 0 0 0 
662 0 0 0 
663 0 0 0 
664 0 0 0 
665 0 0 0 
666 0 0 0 
667 0 0 0 
668 0 0 0 
669 0 0 0 
672 0 0 0 
674 0 0 0 
675 0 0 0 
676 0 0 0 
677 0 0 0 
678 0 0 0 
680 0 0 0 
681 0 0 0 
682 0 0 0 
683 0 0 0 
684 0 0 0 
686 0 0 0 
687 0 0 0 
688 0 0 0 
689 0 0 0 
691 0 0 0 
693 0 0 0 
696 0 0 0 
697 0 0 0 
698 0 0 0 
699 0 0 0 
700 0 0 0 
701 0 0 0 
704 0 0 0 
706 0 0 0 
708 0 0 0 
710 0 0 0 
711 0 0 0 
712 0 0 0 
715 0 0 0 
717 0 0 0 
721 0 0 0 
725 0 0 0 
726 0 0 0 
728 0 0 0 
734 0 0 0 
742 0 0 0 
743 0 0 0 
457 509
457 522
457 523
457 534
457 684
457 700
461 464
461 525
461 531
461 532
461 539
461 686
464 539
464 541
464 571
464 603
464 686
465 511
465 624
468 607
468 678
468 717
468 721
468 725
483 583
483 596
484 583
484 595
484 601
484 602
489 627
489 683
489 689
490 493
490 596
490 604
492 592
492 595
492 601
492 615
492 623
492 638
492 639
493 498
493 596
493 604
493 617
494 498
494 604
494 644
494 734
496 497
496 534
496 536
496 597
496 658
496 688
496 691
497 536
497 568
497 600
497 663
497 691
498 604
498 617
498 629
498 643
498 644
498 667
503 512
503 613
503 623
503 649
503 680
504 528
504 552
504 559
504 561
504 572
504 653
504 658
504 682
508 638
508 649
508 672
508 680
508 698
508 712
509 522
509 534
509 561
509 597
509 637
509 669
510 513
510 531
510 643
510 665
510 667
510 700
510 701
511 574
511 618
511 624
511 676
512 518
512 680
512 711
513 531
513 532
513 667
513 704
514 562
514 567
514 689
514 693
516 677
516 721
516 725
518 524
518 711
522 637
522 674
522 684
522 699
523 525
523 534
523 536
523 538
523 700
523 701
524 590
524 593
524 711
524 743
525 531
525 538
525 539
525 701
528 559
528 561
528 657
528 669
531 532
531 701
532 686
532 704
534 536
534 597
536 538
536 568
538 539
538 568
538 600
539 571
539 600
541 603
541 607
541 678
541 686
541 708
547 677
547 678
547 706
547 708
547 721
548 549
548 550
548 552
549 552
549 572
549 574
549 676
550 552
550 653
550 681
550 682
552 572
552 682
559 594
559 653
559 657
559 742
561 597
561 658
561 669
562 567
562 627
562 634
562 666
562 689
567 630
567 634
567 693
567 696
567 710
568 600
571 600
571 603
571 631
572 574
572 658
574 618
574 658
574 676
574 688
583 596
583 602
590 593
590 681
592 613
592 623
593 594
593 653
593 681
593 742
593 743
594 653
594 742
595 601
596 602
596 617
597 658
600 631
600 663
601 602
601 615
601 625
601 626
602 617
602 626
603 607
603 631
603 668
603 696
607 668
607 678
607 697
607 717
607 726
613 623
615 625
615 639
617 626
617 629
618 624
618 635
618 688
623 638
623 649
624 635
624 656
624 683
625 626
625 639
625 640
625 662
626 629
626 640
626 642
627 656
627 666
627 683
627 689
628 657
628 680
628 711
628 712
628 742
629 642
629 643
629 664
629 665
630 693
630 710
630 715
631 634
631 663
631 696
634 663
634 666
634 696
635 656
635 688
635 691
637 669
637 698
637 699
638 639
638 649
638 672
639 662
639 672
639 674
640 642
640 662
642 662
642 664
642 684
643 665
643 667
644 654
644 667
644 675
644 734
649 680
653 681
653 682
654 655
654 675
654 677
654 687
654 734
655 677
655 734
656 666
656 683
656 691
657 669
657 712
657 742
658 688
662 674
662 684
663 666
663 691
664 665
664 684
664 700
665 700
666 691
667 675
667 704
668 696
668 697
669 698
669 712
672 674
672 698
672 699
674 684
674 699
675 687
675 704
677 687
677 706
677 721
678 708
678 721
680 711
680 712
684 700
686 687
686 704
686 706
686 708
687 704
687 706
688 691
696 697
696 710
697 710
697 715
697 726
697 728
698 699
698 712
700 701
706 708
710 715
711 742
711 743
715 728
717 726
721 725
726 728
742 743
