ply
format ascii 1.0
comment Exported from MorphoGraphX 2.0.1-254
comment Cell Graph: each vertex is a cell, each edge a wall
element vertex 149
property int label
property float x
property float y
property float z
element edge 406
property uint source
property uint target
end_header
1641 0 0 0 
1642 0 0 0 
1651 0 0 0 
1659 0 0 0 
1663 0 0 0 
1666 0 0 0 
1667 0 0 0 
1668 0 0 0 
1672 0 0 0 
1673 0 0 0 
1677 0 0 0 
1681 0 0 0 
1683 0 0 0 
1685 0 0 0 
1687 0 0 0 
1690 0 0 0 
1691 0 0 0 
1692 0 0 0 
1693 0 0 0 
1694 0 0 0 
1695 0 0 0 
1697 0 0 0 
1701 0 0 0 
1703 0 0 0 
1706 0 0 0 
1708 0 0 0 
1709 0 0 0 
1710 0 0 0 
1711 0 0 0 
1712 0 0 0 
1713 0 0 0 
1714 0 0 0 
1718 0 0 0 
1720 0 0 0 
1723 0 0 0 
1724 0 0 0 
1725 0 0 0 
1726 0 0 0 
1735 0 0 0 
1736 0 0 0 
1740 0 0 0 
1742 0 0 0 
1744 0 0 0 
1747 0 0 0 
1749 0 0 0 
1750 0 0 0 
1751 0 0 0 
1752 0 0 0 
1753 0 0 0 
1758 0 0 0 
1762 0 0 0 
1763 0 0 0 
1772 0 0 0 
1773 0 0 0 
1774 0 0 0 
1779 0 0 0 
1784 0 0 0 
1785 0 0 0 
1787 0 0 0 
1788 0 0 0 
1789 0 0 0 
1794 0 0 0 
1795 0 0 0 
1796 0 0 0 
1797 0 0 0 
1798 0 0 0 
1802 0 0 0 
1803 0 0 0 
1804 0 0 0 
1810 0 0 0 
1811 0 0 0 
1816 0 0 0 
1818 0 0 0 
1822 0 0 0 
1824 0 0 0 
1827 0 0 0 
1833 0 0 0 
1836 0 0 0 
1837 0 0 0 
1839 0 0 0 
1842 0 0 0 
1843 0 0 0 
1844 0 0 0 
1850 0 0 0 
1851 0 0 0 
1852 0 0 0 
1853 0 0 0 
1854 0 0 0 
1855 0 0 0 
1856 0 0 0 
1858 0 0 0 
1860 0 0 0 
1861 0 0 0 
1862 0 0 0 
1864 0 0 0 
1865 0 0 0 
1872 0 0 0 
1876 0 0 0 
1877 0 0 0 
1878 0 0 0 
1879 0 0 0 
1880 0 0 0 
1882 0 0 0 
1883 0 0 0 
1884 0 0 0 
1889 0 0 0 
1890 0 0 0 
1892 0 0 0 
1893 0 0 0 
1895 0 0 0 
1896 0 0 0 
1897 0 0 0 
1898 0 0 0 
1905 0 0 0 
1906 0 0 0 
1908 0 0 0 
1909 0 0 0 
1912 0 0 0 
1918 0 0 0 
1919 0 0 0 
1920 0 0 0 
1922 0 0 0 
1926 0 0 0 
1928 0 0 0 
1929 0 0 0 
1930 0 0 0 
1931 0 0 0 
1932 0 0 0 
1933 0 0 0 
1936 0 0 0 
1940 0 0 0 
1943 0 0 0 
1945 0 0 0 
1946 0 0 0 
1947 0 0 0 
1948 0 0 0 
1953 0 0 0 
1954 0 0 0 
1955 0 0 0 
1956 0 0 0 
1957 0 0 0 
1958 0 0 0 
1959 0 0 0 
1960 0 0 0 
1969 0 0 0 
1987 0 0 0 
2002 0 0 0 
2007 0 0 0 
2008 0 0 0 
1641 1666
1641 1749
1641 1818
1641 1926
1641 1943
1641 1954
1642 1687
1642 1750
1642 1772
1642 1779
1642 1804
1642 1833
1642 1860
1651 1667
1651 1687
1651 1693
1651 1697
1651 1753
1651 1784
1651 1862
1659 1668
1659 1681
1659 1683
1659 1785
1659 1794
1663 1677
1663 1744
1663 1773
1663 1798
1663 1853
1666 1758
1666 1818
1666 1954
1666 1955
1667 1687
1667 1692
1667 1779
1667 1862
1668 1672
1668 1683
1668 1785
1672 1683
1672 1785
1672 1795
1672 1837
1672 1850
1672 1851
1673 1795
1673 1796
1673 1837
1673 1839
1673 1852
1673 1865
1677 1744
1677 1774
1677 1827
1677 1853
1677 1880
1677 1905
1681 1683
1681 1695
1681 1794
1681 1836
1681 1864
1683 1850
1683 1864
1685 1811
1685 1855
1685 1856
1685 1883
1687 1697
1687 1772
1687 1779
1690 1706
1690 1836
1690 1876
1690 1877
1691 1810
1691 1822
1691 1854
1691 1855
1691 1882
1692 1779
1692 1833
1692 1862
1692 1884
1692 1912
1692 1930
1693 1694
1693 1784
1693 1862
1693 2002
1694 1784
1694 1969
1694 2002
1695 1836
1695 1864
1695 1877
1695 1892
1697 1708
1697 1714
1697 1753
1697 1772
1697 1872
1701 1798
1701 1824
1701 1853
1701 1928
1703 1712
1703 1839
1703 1854
1703 1865
1703 1895
1703 1896
1706 1718
1706 1876
1706 1877
1706 1906
1706 1919
1708 1714
1708 1726
1708 1736
1708 1772
1708 1936
1709 1723
1709 1724
1709 1864
1709 1892
1709 1893
1709 1929
1710 1724
1710 1851
1710 1878
1710 1893
1710 1909
1710 1931
1710 1956
1711 1725
1711 1879
1711 1895
1711 1909
1711 1920
1712 1895
1712 1896
1712 1920
1712 1933
1712 1945
1713 1720
1713 1726
1713 1882
1713 1883
1713 1897
1713 1922
1714 1726
1714 1872
1714 1959
1718 1723
1718 1906
1718 1919
1718 1943
1718 1953
1720 1726
1720 1882
1720 1896
1720 1936
1723 1892
1723 1906
1723 1929
1723 1943
1723 1954
1723 1955
1724 1893
1724 1929
1724 1955
1724 1956
1725 1735
1725 1909
1725 1920
1725 1932
1725 1945
1725 1958
1726 1922
1726 1936
1726 1959
1735 1762
1735 1789
1735 1803
1735 1932
1735 1958
1736 1772
1736 1861
1736 1933
1736 1936
1736 1945
1740 1742
1740 1798
1740 1818
1740 1824
1740 1926
1742 1758
1742 1773
1742 1798
1742 1818
1742 1940
1744 1773
1744 1774
1744 1843
1744 1940
1747 1750
1747 1762
1747 1774
1747 1802
1747 1843
1747 1844
1749 1926
1749 1943
1749 1953
1750 1763
1750 1802
1750 1804
1750 1844
1750 1860
1751 1898
1751 1947
1751 1948
1751 1987
1752 1758
1752 1842
1752 1955
1752 1956
1753 1784
1753 1872
1758 1818
1758 1842
1758 1940
1758 1955
1762 1789
1762 1803
1762 1843
1762 1844
1763 1803
1763 1844
1763 1860
1763 1890
1763 1958
1772 1860
1772 1861
1773 1798
1773 1940
1774 1802
1774 1827
1774 1843
1779 1833
1784 1816
1784 1872
1784 1969
1785 1787
1785 1795
1787 1795
1787 1796
1788 1796
1788 1797
1788 1822
1789 1842
1789 1843
1789 1932
1789 1957
1794 1836
1795 1796
1795 1837
1796 1822
1796 1839
1797 1810
1797 1811
1797 1822
1798 1824
1798 1853
1802 1804
1802 1827
1803 1844
1803 1958
1804 1827
1804 1833
1804 1858
1804 1884
1810 1811
1810 1822
1810 1855
1811 1855
1816 1872
1816 1889
1818 1926
1822 1839
1822 1854
1827 1858
1827 1880
1833 1884
1836 1877
1837 1851
1837 1852
1839 1854
1839 1865
1842 1843
1842 1940
1842 1956
1842 1957
1843 1940
1850 1851
1850 1864
1850 1878
1850 1893
1851 1852
1851 1878
1851 1879
1851 1909
1852 1865
1852 1879
1853 1905
1853 1928
1854 1882
1854 1896
1855 1882
1855 1883
1856 1883
1856 1897
1858 1880
1858 1884
1858 1908
1860 1861
1860 1890
1861 1890
1861 1945
1862 1912
1862 2002
1864 1892
1864 1893
1865 1879
1865 1895
1872 1889
1872 1959
1872 1960
1876 1918
1876 1919
1877 1892
1877 1906
1878 1893
1879 1895
1879 1909
1880 1905
1880 1908
1882 1883
1882 1896
1883 1897
1884 1908
1884 1930
1884 1948
1889 1960
1890 1945
1890 1958
1892 1906
1895 1920
1896 1933
1896 1936
1897 1922
1898 1947
1905 1908
1905 1928
1905 1946
1905 1947
1908 1947
1908 1948
1909 1931
1909 1932
1912 1930
1912 2002
1912 2008
1918 1919
1919 1953
1920 1945
1922 1959
1922 1960
1928 1946
1929 1955
1930 1948
1930 1987
1930 2007
1930 2008
1931 1932
1931 1956
1931 1957
1932 1957
1933 1936
1933 1945
1943 1953
1943 1954
1945 1958
1946 1947
1947 1948
1948 1987
1954 1955
1955 1956
1956 1957
1959 1960
1987 2007
2002 2008
2007 2008
