ply
format ascii 1.0
comment Exported from MorphoGraphX 2.0 1-254
comment Cellular mesh
element vertex 296
property float x
property float y
property float z
property float signal
element face 149
property list int int vertex_index
property int label
end_header
-10.8432 -32.5213 9.63883 41874.8
-11.9984 -33.233 9.04722 47896.4
-12.4474 -35.3917 7.70817 40624.5
-5.70134 -36.946 7.19248 45763.3
-5.88962 -35.8202 7.95913 50502.8
-6.34964 -34.6731 8.71179 48594
-15.4909 26.0121 13.3522 50825.9
-14.8377 24.7654 13.8583 47938.2
-13.795 22.9392 14.5612 49750.5
-9.60122 22.9377 15.1844 43287.1
-8.95532 23.9054 14.9699 53809.5
-8.62975 26.4555 14.1922 59958.8
-9.87946 28.3634 13.4171 55169.8
-9.08515 11.2142 17.8537 59203
-11.7597 13.281 17.1427 55721.9
-14.5888 11.9075 16.8475 48760.1
-15.6056 8.77437 17.0595 44363.7
-11.9164 4.30673 18.104 48945.1
-10.0015 3.79964 18.3721 54775
-7.63788 6.29629 18.4888 60066.9
-7.01069 7.45147 18.4567 58861.4
-8.67635 1.07634 18.5395 53795.7
-13.61 2.18197 17.8979 62183.3
-16.7836 -2.05699 17.2962 51606.3
-15.0708 -4.35905 17.5629 53071.9
-12.3135 -4.49977 18.0083 54423.4
-16.5979 -6.91811 17.1184 58067.7
-10.9456 -11.1904 17.612 62026.8
-9.61371 -10.1216 17.8844 52089.6
-9.55731 -6.53797 18.1972 47065
-12.9214 -15.1124 16.693 50409.6
-11.6029 -14.3486 17.0391 53289.7
-18.4711 -9.37482 16.5019 53093.7
-10.2395 -29.4792 11.4953 44566.7
-10.8876 -27.7718 12.3221 49080.4
-15.3046 -26.7096 11.9923 47408.9
-16.2841 -27.8514 11.1644 55777.8
-17.1454 -29.3369 10.1437 51064.4
-15.0913 -31.4459 9.49015 44496.6
-2.39876 27.6824 13.963 51434.2
-2.43682 30.0546 12.9703 51964.6
-9.57735 30.606 12.5909 53193.2
-10.4549 32.431 11.7637 43566.8
-16.5093 31.1972 11.393 51082.9
-17.7378 28.5044 12.0814 43618.6
-10.1099 17.3193 16.5745 51989.5
-8.21218 18.6156 16.5072 46325.7
-17.6333 17.9542 14.9702 39950.8
-16.7895 16.2472 15.5516 39580.2
-16.6599 14.1236 16.008 48263.4
-19.2371 -33.0781 7.59359 45146.4
-16.5968 -36.3602 6.50485 39834.8
-13.8736 -36.417 6.92615 42604.7
-18.3667 -38.1659 5.23631 41773.4
-18.3712 -38.5465 5.05349 43084.2
-11.9782 -40.7392 4.63026 44055.4
-11.5128 -40.2713 4.92753 40741.8
23.7254 -15.518 13.4388 59663
20.4995 -17.9833 13.9516 53745.7
21.1201 -19.7457 13.2237 58066
22.7748 -21.7893 11.8273 50000.4
26.5853 -17.4761 11.6235 51361.5
-5.96771 17.955 16.8607 41904.9
-3.0294 20.0238 16.4963 57288.9
-2.5417 21.6675 16.0444 59469.9
-21.2069 26.7354 11.6817 39556.9
-21.6356 24.7143 12.1395 40889.9
-20.48 22.4226 13.122 44275.2
-19.9653 19.14 14.0841 35592.4
-20.1903 -0.0149873 16.4903 47700
-18.6812 -1.47222 16.8774 52766.1
-17.7873 3.8464 16.9583 56159.3
-4.23379 13.9167 17.8016 66224.6
-41.1198 0.993981 4.28304 24357.4
-36.957 5.61334 7.86966 35329.4
-38.2311 7.43626 6.44014 32308.3
-40.6389 7.73129 3.90497 26361.6
2.43265 24.3646 15.0301 48924.1
4.94636 28.9167 12.9226 50181.6
4.82857 29.7987 12.5144 53297.4
1.35844 31.4557 12.0559 49834.8
-1.54396 31.7076 12.1658 48560.6
-0.511807 23.8063 15.3587 55373.5
-2.6286 9.44413 18.4712 51053.9
-2.22011 10.7356 18.3286 52709.9
16.9327 -8.12563 16.459 63702.3
15.1884 -10.2755 16.6653 62616.4
17.2442 -12.9487 15.8824 65916.6
21.8844 -8.39681 15.0742 52352
19.3856 -6.54494 15.9183 53508.2
4.39639 22.6149 15.4745 66741.4
9.53241 25.2709 13.8593 64291.4
2.10958 -5.78418 18.5144 60959.7
-1.15623 -2.38529 18.7579 53515.2
-4.50926 -3.31233 18.6797 54258.9
-5.50857 -4.90629 18.5708 55792.2
-1.24874 -11.3837 18.1418 53874.5
2.80985 -8.18346 18.3257 53876.9
2.5698 36.1738 9.20992 44446.4
-2.29534 35.2861 10.3141 46905.6
-2.33081 -13.4078 17.8696 56666
-3.76634 -13.847 17.7752 55261.7
16.244 -24.7687 12.5425 60304.1
16.1166 -24.2341 12.8405 62079.4
14.5664 -22.1699 14.1134 60579.1
12.0097 -23.5948 13.9902 55308.2
9.03127 -26.2004 13.2062 51998.6
9.11962 -26.48 13.0493 48862.2
10.477 -28.3847 11.7488 60335.9
-41.0971 -2.11628 4.41877 23478
-41.0204 -8.85775 3.92106 27587.6
-39.2013 -7.77434 5.99827 29468.6
-38.5782 -3.2218 6.98741 27338.5
24.9815 -12.7783 13.4655 50805.9
22.2533 -8.34469 14.9589 57374.1
17.2611 -16.6701 15.1867 58059.2
7.33623 33.9728 9.80611 46073.3
-21.8822 0.541309 16.0007 42764
-25.5618 -2.13174 14.8461 48660.1
-23.9911 -6.67977 15.2087 47540.2
-22.393 -7.43339 15.6498 47269
-4.66916 -24.3982 14.6154 56072.3
-1.49283 -21.1823 15.9995 67358.7
-5.75749 -18.7152 16.6004 63585
-7.5856 -22.5357 15.1578 45216.7
-3.5888 -33.0235 9.88869 43420.7
-6.16055 -29.3674 12.0145 50453.7
0.979349 17.2986 17.1572 65748.1
4.86599 20.8414 15.988 61475
11.9978 -30.7515 9.85087 44373.9
17.4089 -27.4243 10.7101 46134.9
-0.343779 -28.5101 12.6749 44943.2
1.86902 -27.0651 13.3967 55039.5
4.56019 -22.7062 15.2562 51932.3
0.981938 -19.4929 16.5206 55315.1
-3.32236 -27.5192 13.1774 46583.7
-4.60711 2.12543 18.7955 65284.5
-6.90317 0.179474 18.6662 60884.4
-0.362318 -0.410989 18.8165 64624.4
8.7719 -13.2652 17.309 64563.5
6.47436 -12.2555 17.6761 56944.9
3.21222 -15.2834 17.4452 63962.2
7.91338 -19.3308 16.0982 55922.4
8.87453 -18.7583 16.1472 65502.1
10.1223 -17.0774 16.4222 59013.1
6.04359 -22.4616 15.2325 59020
16.7369 18.1432 14.6926 57272.7
17.6495 23.7955 12.365 49877.1
13.2707 25.5892 12.9881 59041.4
11.6996 23.9475 13.9943 56439.5
11.9235 20.9426 14.9731 63774.8
28.4056 -12.381 11.9044 56841.5
12.1089 9.96891 17.1254 64700.9
16.0866 5.37365 16.6568 63580.5
19.5841 6.454 15.6995 59969.3
19.6268 7.93904 15.569 60667.2
16.343 12.5552 15.8813 62132.1
14.8573 12.8179 16.184 68609.1
12.5778 12.0714 16.7672 53936.4
-4.04747 3.04776 18.8059 65907.6
-0.467843 5.75637 18.7528 53779.5
1.51227 1.02178 18.8098 63603.3
2.01536 3.39415 18.7887 54826.4
2.86999 12.3368 18.0131 56604.8
3.48568 13.947 17.715 60896.8
-5.60796 -17.1773 17.0178 58462.6
0.351543 -16.35 17.3336 60016.5
10.6394 8.63538 17.5413 67357.2
9.25146 5.66315 17.9931 55101.1
13.2372 3.32178 17.3861 60708.9
-24.3521 -33.6531 5.68081 41826.8
-24.6347 -34.1499 5.34789 40743
-20.7586 -31.9933 7.70271 44291.3
-40.668 -15.2666 2.66076 23188.2
-38.6911 -15.0514 4.75523 28721.5
-36.998 -14.092 6.61263 31233.7
-37.775 -10.309 6.89402 29634.7
22.9169 10.1096 14.3222 65373.8
20.2617 15.342 14.3301 60767.7
18.2963 14.9771 14.9905 53860.8
5.50082 -1.5796 18.4939 61072.5
4.99817 14.287 17.5305 67890.8
7.8451 16.3187 16.8079 60654.9
7.83248 18.2837 16.3532 58490.2
13.0661 -10.5953 17.0214 68146.1
11.313 -5.07931 17.6628 68169.8
9.48335 -5.38466 17.9071 59814.8
5.64409 -9.53114 18.0334 60900.9
-21.7156 11.2123 15.0861 49981.3
-22.8008 12.032 14.6053 48964.4
-27.8399 8.51931 13.1654 39456.2
-26.8056 6.22246 13.8974 43976.2
-23.3761 4.49636 15.323 44275.4
-20.1544 8.11014 15.9736 50490.1
6.25008 5.2369 18.3845 59227.7
31.0401 -1.06519 11.1851 46860.7
29.5246 7.05475 11.6832 59273.6
27.6326 5.92932 12.7506 56720.6
26.1181 2.68903 13.7693 49192
29.243 -0.833826 12.3715 47816.3
5.57602 -29.7531 11.5859 53601.7
32.8316 -4.95275 9.80181 48447.7
27.7844 -7.37453 12.8389 56293.7
29.6622 -11.4288 11.3602 46142.7
1.50143 -36.1414 7.39799 44988.4
1.54881 -33.7218 9.24053 45213
-0.184256 -32.1029 10.4757 43614.9
-17.4664 7.9592 16.7103 49418.4
4.66489 -33.0374 9.45685 46639.2
9.10421 -34.5042 7.5184 44018.3
13.1088 28.387 11.6422 58361.2
8.30505 33.8117 9.6949 46085.8
-23.7815 16.761 13.3689 41076
7.48804 4.83784 18.2676 68897.4
-9.31121 -22.687 14.9009 54184.6
-9.82357 -24.3305 14.1456 61434.9
-29.831 1.81061 12.9214 40785.1
-28.61 -1.83659 13.6195 44516.6
6.98299 -1.80754 18.3509 69145.1
23.0179 17.3583 12.6867 62960.6
24.3939 10.521 13.6407 63489.1
26.0392 14.6725 12.2164 58788.4
26.3162 -5.02669 13.6568 51068.6
-25.4768 -14.9249 13.3557 36436.4
-24.7697 -17.7998 12.7767 46644.5
-19.0927 -16.5404 15.0316 54251
-21.9044 -12.286 15.1747 47724.6
1.85969 -36.9985 6.6776 37801.2
-16.9699 -23.1337 13.2683 54212.4
-34.2878 -14.6347 8.59003 32767.9
-32.4319 -13.8346 10.0972 36708.7
-30.6305 -12.3186 11.5431 33835.6
-30.8025 -10.1687 11.8668 37003
-33.2958 -7.89176 10.727 37442.3
-3.30331 -40.0049 4.91792 34606.9
-20.1777 -40.751 3.69405 36568.9
-27.4007 -36.3726 3.31627 39405.3
8.28399 0.392747 18.243 68480.3
-20.7292 -30.2471 8.61592 46314.4
-24.411 -27.1242 8.85342 40436
-27.2669 -27.6662 7.30049 36037.9
-28.5886 -29.2256 5.89425 36581.3
-13.5868 -18.2567 15.7865 47337.4
12.8736 -3.31538 17.4668 68570.2
13.196 -3.08912 17.4147 69826.6
15.2159 -0.448094 17.038 55177.8
14.6372 -17.7786 15.499 61017.8
-20.793 -9.57461 15.8936 46559.6
-27.7059 -8.51097 13.6298 48570
-16.5919 -19.1403 14.8812 51748.6
-18.276 -21.7876 13.4825 49171.8
10.8596 19.7206 15.5143 61723.5
-34.6426 -27 3.18207 28462.7
-34.1541 -24.7993 4.55611 25291.1
-34.6902 -22.3265 5.27819 25173.5
-38.9623 -20.2262 2.51684 27405.7
-32.9039 -20.6988 7.30007 32044.6
-33.6527 -18.3952 7.72661 32470
-36.9709 -2.59505 8.42244 30852.3
-34.8837 2.76865 9.82804 32790.1
-35.168 4.90783 9.38581 35043.7
-36.5152 10.7328 7.31737 34534.1
-36.7116 16.0567 5.82265 31724.8
-39.4755 15.9191 3.16284 32663.9
-22.6534 -24.4501 10.8645 46341
-23.5912 -25.0995 10.183 52887.7
-29.1771 -23.169 8.48337 36291.7
-28.9442 -25.4536 7.51807 33894.4
-29.8907 9.55016 12.0027 36641.8
-30.2268 13.4642 11.0945 34650.5
-31.1844 13.766 10.4654 37269.9
-21.9198 -22.3068 12.1169 41743.8
-31.1763 -29.7682 4.21752 30174.8
-24.953 -19.4357 12.1229 34969.1
-27.4234 -20.3278 10.6459 42121.2
-29.7484 -21.4765 8.92706 36937.1
-34.0468 -4.68894 10.5378 30654.7
-33.6005 18.4148 7.69644 34474.5
-33.9692 20.8934 6.69823 35796.7
-34.7399 21.9596 5.75453 30170.7
-30.0436 -2.96847 12.9122 41207.1
22.6349 2.13078 15.0346 50298.8
-32.6031 18.0952 8.50086 32291.6
-24.9815 17.0362 12.8505 44625.7
-27.5266 21.5388 10.6057 36642.1
21.2487 0.0814331 15.5002 62190.1
25.2373 -4.96929 14.0884 49587.8
18.9219 24.0716 11.7428 55448.1
14.3187 30.3247 9.98255 51700.4
-27.3681 22.9559 10.2975 36267.4
-28.7648 24.1097 9.21857 42989.8
-28.9947 24.7333 8.89976 36867.8
-31.0019 26.7066 6.99518 31171.3
18.4128 -1.55386 16.2922 57139.6
-22.9881 27.9619 10.6846 42240.3
-24.2841 29.4903 9.67165 42099.6
6 209 129 108 107 200 208 1740
4 108 129 130 102 1824
6 205 208 200 132 131 206 1818
6 145 133 132 200 107 106 1742
3 201 202 203 1898
7 202 222 286 114 113 151 203 1947
7 127 63 62 72 84 163 164 1772
6 166 134 133 145 142 141 1940
5 105 143 142 145 106 1773
6 164 181 182 183 128 127 1687
5 42 41 40 81 99 1960
4 61 151 113 57 1946
6 139 140 141 142 143 144 1744
4 223 224 225 226 1878
7 141 140 187 97 96 100 166 1843
6 140 139 184 185 186 187 1774
8 126 135 121 124 214 215 34 33 1955
6 97 187 186 218 180 92 1747
4 121 122 123 124 1752
5 199 222 202 201 195 1751
5 234 227 204 4 3 1749
5 92 180 161 138 93 1844
7 213 194 162 161 180 218 237 1750
6 204 205 206 125 5 4 1641
7 237 243 244 245 169 168 213 1804
7 181 164 163 194 213 168 167 1642
5 206 131 135 126 125 1666
5 158 182 181 167 152 1779
8 226 247 120 119 248 232 231 223 1851
5 195 196 197 198 199 1987
7 131 132 133 134 122 121 135 1758
7 128 183 251 150 149 91 90 1651
4 90 91 78 77 1753
7 77 82 64 63 127 128 90 1697
7 214 124 123 165 31 30 242 1956
8 210 211 116 79 78 91 149 148 1784
6 70 69 117 118 119 120 1879
4 98 80 79 116 1816
5 136 137 94 93 138 1803
7 58 57 113 114 88 87 115 1905
7 101 165 123 122 134 166 100 1842
7 102 103 104 105 106 107 108 1798
6 138 161 162 160 159 136 1763
6 100 96 95 29 28 101 1789
6 92 93 94 95 96 97 1762
5 208 205 204 227 209 1926
4 221 220 197 196 2007
6 117 192 191 216 217 118 1865
5 101 28 27 31 165 1957
5 83 84 72 13 20 1861
5 85 86 87 88 89 1880
6 173 174 175 176 111 110 1785
8 77 78 79 80 81 40 39 82 1872
4 109 110 111 112 1787
4 73 74 75 76 1788
5 20 19 159 160 83 1890
6 62 46 45 14 13 72 1736
7 188 49 48 47 68 212 189 1896
6 84 83 160 162 194 163 1860
5 144 143 105 104 246 1663
7 87 86 184 139 144 246 115 1677
5 218 186 185 243 237 1802
5 11 10 64 82 39 1714
5 152 167 168 169 153 1833
4 98 99 81 80 1889
5 251 183 182 158 157 1667
4 252 253 254 255 1794
6 174 173 255 254 256 257 1659
7 112 258 259 260 74 73 109 1796
5 235 54 53 171 236 1876
5 76 75 261 262 263 1797
5 103 102 130 60 59 1701
6 172 238 239 240 241 170 1877
6 239 238 37 36 264 265 1892
5 265 266 267 240 239 1695
5 234 3 2 52 56 1953
6 137 21 25 29 95 94 1735
6 36 35 228 250 271 264 1709
7 271 273 274 275 266 265 264 1864
6 115 246 104 103 59 58 1853
6 271 250 249 225 224 273 1893
4 257 229 175 174 1668
6 176 233 276 258 112 111 1795
7 75 74 260 268 269 270 261 1822
5 277 278 279 263 262 1811
7 225 249 242 30 32 247 226 1710
7 120 247 32 26 24 23 70 1909
6 157 156 179 146 150 251 1862
7 229 230 231 232 233 176 175 1672
6 276 280 217 216 259 258 1673
3 288 211 210 1969
5 262 261 270 282 277 1810
6 117 69 71 207 193 192 1895
6 188 189 190 191 192 193 1703
6 285 286 222 199 198 281 1948
6 136 159 19 18 21 137 1958
6 268 190 189 212 283 269 1854
6 267 253 252 272 241 240 1836
6 256 254 253 267 266 275 1681
6 229 257 256 275 274 230 1683
6 230 274 273 224 223 231 1850
5 233 232 248 280 276 1837
6 260 259 216 191 190 268 1839
6 193 207 16 15 49 188 1712
6 284 289 290 278 277 282 1855
5 270 269 283 284 282 1691
5 278 290 291 292 279 1685
5 293 245 244 85 89 1858
6 89 88 114 286 285 293 1908
7 289 284 283 212 68 67 66 1882
7 293 285 281 154 153 169 245 1884
6 244 243 185 184 86 85 1827
6 66 65 294 291 290 289 1883
5 65 44 43 295 294 1897
4 295 292 291 294 1856
7 152 153 154 155 156 157 158 1692
5 241 272 236 171 170 1690
5 146 147 148 149 150 1693
5 148 147 287 288 210 1694
5 217 280 248 119 118 1852
6 249 250 228 215 214 242 1724
5 155 177 178 179 156 1912
6 178 219 287 147 146 179 2002
6 170 171 53 51 50 172 1706
7 154 281 198 197 220 177 155 1930
3 55 54 235 1918
5 172 50 38 37 238 1906
5 69 70 23 22 71 1711
5 67 68 47 8 7 1720
6 44 65 66 67 7 6 1713
6 10 9 46 62 63 64 1708
5 57 58 59 60 61 1928
6 52 51 53 54 55 56 1919
6 38 50 51 52 2 1 1718
5 22 17 16 207 71 1920
5 15 14 45 48 49 1933
6 45 46 9 8 47 48 1936
6 6 12 41 42 43 44 1922
5 39 40 41 12 11 1959
8 33 34 35 36 37 38 1 0 1723
4 35 34 215 228 1929
5 30 31 27 26 32 1931
6 24 26 27 28 29 25 1932
7 21 18 17 22 23 24 25 1725
8 13 14 15 16 17 18 19 20 1945
7 6 7 8 9 10 11 12 1726
5 219 178 177 220 221 2008
6 0 1 2 3 4 5 1943
5 0 5 125 126 33 1954
