ply
format ascii 1.0
comment Exported from MorphoGraphX 2.0 1-254
comment Cellular mesh
element vertex 288
property float x
property float y
property float z
property float signal
element face 145
property list int int vertex_index
property int label
end_header
-10.5681 -22.1152 12.5156 57656.7
-9.103 -22.2096 12.7338 50690.1
-6.52213 -19.6149 14.1101 56365.7
-7.35333 -15.5602 15.2678 63752.5
-10.6598 -15.5114 14.9206 66320.5
-12.6024 -16.3278 14.3414 62715.4
-8.2576 -24.7094 11.722 58129.6
-2.53873 -24.3005 12.5076 63846.4
-2.46621 -23.6202 12.8233 63810
-3.01591 -20.0952 14.1606 59221.3
-5.73771 -33.928 6.84697 51674.9
-4.46433 -31.921 8.22758 53007.9
-4.64524 -29.5984 9.54499 43377.3
-8.35554 -27.4338 10.3453 50350.2
-10.9973 -28.6858 9.35376 51151.5
-10.124 -33.4901 6.62455 51225.1
-7.28542 10.4756 18.0308 66003.4
-7.18359 14.5706 17.8044 68379.6
-13.6952 14.5914 16.9552 63829.2
-13.8513 14.4025 16.9456 61704.5
-13.0263 10.3557 17.3624 63106.6
-11.0741 9.02076 17.6366 60890.6
21.77 -15.5745 11.5915 60400.3
19.0507 -17.5447 11.9744 61695.3
19.2698 -21.0355 10.5217 59822.7
19.8967 -22.194 9.78251 56433.6
22.8956 -21.2446 9.09045 54822.7
-14.6344 -23.5313 11.1119 49428.3
-14.941 -28.2756 8.86958 54445.6
-9.8669 26.7345 15.0109 68506.5
-11.3903 32.4123 12.2761 63884.9
-14.1772 32.7561 11.3144 59294.4
-16.2242 30.1005 12.0408 58746.5
-14.7433 26.8532 13.9182 67755.8
-12.9592 25.1754 14.9558 65367.8
-16.584 8.69909 16.6332 67925.9
-16.4373 2.25122 16.4503 67301
-14.2775 1.67931 16.7863 61531.4
-10.7899 3.2612 17.3017 53917
-15.2348 -10.1275 15.3306 60894.4
-16.2476 -14.8502 13.9943 65160.4
-15.0468 -16.2591 13.8358 61241.3
-10.9433 -9.58393 16.0578 64516.8
-12.9659 -8.83716 15.9118 57406.7
-6.02015 34.4215 11.8799 64929.3
-6.691 36.4356 10.4793 61447.2
-7.00742 32.8165 12.7494 63910.3
-6.95615 19.7203 17.0025 67371
-4.83875 22.7624 16.4085 67517.3
-7.58006 26.9628 15.1781 65532.7
-13.824 21.5531 15.7306 64068.6
-11.937 19.8066 16.4538 67016
24.2864 9.13088 12.5933 60419.3
23.4553 10.4025 12.8044 60445.7
17.625 10.4447 15.1504 67997.1
20.0275 3.56331 14.7739 64206.5
23.6665 4.80972 13.2602 59715.2
-19.5965 15.0755 15.3066 64993.2
-17.9106 14.5536 15.9183 67832
-18.5891 20.5244 14.6487 66395.4
-20.0439 21.0858 13.9399 66297.7
37.7982 -4.42707 4.98563 43860.2
39.1885 -7.27775 3.7546 38712.4
40.8106 -8.16733 2.46437 48233.9
43.822 -2.93737 0.0525118 38013.3
40.4195 -1.07838 3.05652 43069.1
31.1464 -9.58469 8.58297 55288.7
32.4661 -10.1931 7.71844 55726.4
34.4289 -3.46386 7.29964 49128
32.9724 -2.64443 8.25453 48985
29.8498 -4.58381 9.98242 47797.7
29.1566 -6.01488 10.223 54422.6
23.2352 -3.22273 13.4127 65867.4
24.5147 -6.62931 12.4826 57974.9
26.7299 -6.70784 11.4108 63418.2
26.3016 -0.44952 12.1419 66138.4
-6.03886 -11.4367 16.151 61175.8
-0.4291 -8.52865 16.6268 65386
0.19825 -7.74192 16.7092 61976.5
-2.05765 -4.66421 16.9697 65427.8
-6.6117 -3.18022 16.969 58705.4
-7.4768 -4.0887 16.8555 64735
-8.11965 -8.9231 16.3694 59685.3
5.89346 -7.35231 16.6332 60254.4
7.2416 -10.9675 16.0485 59367.8
7.59767 -11.1428 15.991 60323.2
10.9333 -10.284 15.7831 65402.9
10.3855 -4.31685 16.6178 68718.3
9.00508 -4.94928 16.6945 68371.3
17.6239 20.07 12.9904 67687.4
18.2329 21.5517 12.2474 61837.6
16.7109 26.4328 11.0478 49302.2
12.7766 26.7671 12.2564 59079.5
14.0853 20.7521 14.0906 67928.4
16.8992 19.3746 13.4904 65192.3
24.54 16.9864 10.7864 60613.8
25.4861 14.2673 11.0151 64207.1
28.8084 13.3652 9.40841 59368.1
30.449 14.3982 8.22472 65056.1
29.3203 17.8035 8.04451 60047.3
24.858 18.6765 10.1311 63886.1
17.3771 27.4779 10.415 60581.4
17.292 28.2304 10.1684 57907.3
9.81233 31.7382 11.0339 62691.1
9.24282 27.7979 12.8748 58166.1
10.8138 26.4977 12.9638 60902.5
-19.1408 8.11493 15.9791 68576.2
3.05173 27.704 14.2889 59934.4
6.76892 28.0026 13.4199 62511.3
5.12779 33.5458 11.301 64911.5
2.30573 33.6672 11.754 66490.8
1.45321 29.7366 13.7496 57524.4
29.7552 -11.9003 8.88186 58326.8
30.1501 -17.7797 7.02262 51506.9
32.3946 -18.3956 5.63889 48634.4
35.1726 -17.0253 4.49096 39529
33.8646 -11.7327 6.58362 51195.6
-6.23255 -13.4806 15.7919 65083.6
26.5518 3.44707 11.9513 59912.6
19.1755 2.87877 15.0716 61224.5
19.988 -0.823669 14.7624 63855.6
21.5492 -2.47742 14.1285 62424.7
-3.44208 34.7863 11.6826 67820.9
-1.48955 29.4897 14.2025 67478.9
1.11334 35.5633 10.8324 60050.2
-1.5365 35.644 11.0361 64144
42.3819 3.56319 0.920667 41600.9
38.1115 7.97966 4.06837 47016.6
36.314 7.16303 5.57064 45955.1
35.8842 6.14041 6.00768 45344.4
36.6973 2.40018 5.74669 46859.8
40.4787 0.986366 2.90017 41493.8
35.6709 -3.40219 6.49803 54427.9
32.3396 5.24462 8.49819 52788.3
31.2143 3.47679 9.3165 41236.8
30.6152 -24.5278 4.05309 46978.8
32.0738 -25.2645 2.94192 52231.6
36.9059 -22.6993 1.48343 42246.3
35.7067 -17.2681 4.11063 45640.7
23.7451 21.1437 9.91064 52045
24.768 22.3804 9.0526 59632.8
9.48194 22.9729 14.6425 66441.2
2.38522 25.4381 15.1849 64299.4
-3.33869 40.2405 7.60488 53982
26.7917 -24.0428 6.1065 48573.4
25.3817 -25.749 5.82257 41166.8
24.4832 -29.2493 4.10024 44719.2
25.7351 -30.5282 2.7208 51040.1
27.652 -31.2262 1.31849 47164.8
13.5629 -10.5653 15.3021 59931.3
7.15034 -16.3322 14.8356 59234.9
8.73906 -17.5941 14.274 62770.9
14.8109 -13.9649 14.2938 66882.4
4.9253 21.1694 16.0721 67700.7
3.82861 15.7247 17.3092 67504.2
6.14167 14.1561 17.251 63590.4
7.61361 14.6111 16.9659 66463.2
9.08139 15.4046 16.5823 62617.3
9.12141 20.779 15.4009 60490.8
-0.460667 6.02116 18.0651 63705.7
-1.30139 2.10266 17.6752 65092
5.76026 3.16714 17.6083 65877.8
5.32715 6.38554 17.8009 63582.1
10.5657 1.49616 16.9918 60508.8
12.5322 3.80354 16.7286 57771.2
12.5163 6.92967 16.7234 64437.7
6.33567 8.90351 17.6814 64949.6
6.12404 0.706623 17.3918 66937.7
6.1765 0.698668 17.3877 67043.8
27.4447 -18.2846 8.20941 47087
26.4163 -20.4061 7.91383 50721.9
-23.6402 20.669 12.3844 60593.2
-25.7508 16.6477 12.3045 54897.1
-22.8999 14.4797 14.0908 62976.3
2.95806 39.9757 7.56216 48789
6.28056 33.9639 10.8479 65728.8
9.28855 33.1352 10.5421 65458
9.70915 34.88 9.61839 62620.8
8.19089 38.6078 7.88063 59975
38.7523 -15.8604 2.62862 47673.1
-27.7208 15.7781 11.3783 60526.4
-25.8764 8.92575 13.5054 64680.1
-24.298 9.33778 14.1398 64576
-5.37277 17.712 17.4326 63667.8
-0.265258 16.7412 17.4847 62417.8
1.57215 21.3415 16.4398 67973.1
0.696596 23.3566 16.002 65828.9
-6.04401 0.0994838 17.2938 53025.2
-1.91275 0.923307 17.5251 57074.7
-1.577 9.44459 18.1933 63239.8
-4.22724 9.31869 18.1691 67031.6
-7.9464 2.13904 17.4038 62819.9
11.6215 -29.2401 8.25432 53201.4
12.1644 -30.6965 7.24941 60290.2
19.8369 -31.0938 4.71708 48973.4
19.9668 -30.3942 5.127 48153
17.7459 -27.3616 7.68213 44825.6
13.6746 -26.4752 9.3326 52714.4
0.362074 -0.575759 17.3967 62359.9
13.3781 9.07312 16.4451 68239.5
5.81776 10.5865 17.6632 67499.7
0.0175391 -15.012 15.5537 67842.4
0.564722 -12.48 16.063 65979.2
3.49516 -1.21399 17.3168 61295.7
3.91316 -6.18965 16.8248 58854.5
10.1847 -20.3484 13.0867 61998.8
12.6367 -21.3182 12.204 59616.7
17.1265 -16.9836 12.7748 62769.4
16.0627 -15.1136 13.656 65388.3
8.8603 -28.8353 9.08536 53523.5
6.43067 -29.206 9.29705 51196.1
5.12576 -32.377 7.50761 58102.3
11.8058 -32.835 5.92386 61440.4
0.119388 -18.2626 14.723 60308.6
2.34001 -19.0133 14.4213 58054.8
9.6109 21.3661 15.1225 66073.3
26.5492 22.6012 8.16722 53917
27.5166 24.3909 7.30441 53372.2
17.9928 28.8037 9.72676 63291.4
33.012 14.3353 6.67294 61579.1
34.2909 16.0546 5.51348 67521.4
34.4373 17.9134 5.04514 62373.9
28.8734 19.8606 7.73714 61350.3
38.2338 9.62388 3.72273 52812.4
40.645 11.6428 1.35248 60847.5
39.6702 13.9206 1.87536 58291.1
13.2943 -24.0587 10.7357 59884.6
28.242 -12.8463 9.45416 59247.2
3.72857 -35.3195 5.64939 51308.6
4.00628 -33.2705 7.06604 51934.3
0.746234 -32.2793 8.01015 59891.8
12.4878 -34.7087 4.4029 54609.2
-6.02142 28.5621 14.718 65841.4
34.709 18.087 4.84052 66382.5
-18.4034 -3.98734 15.4708 67384.6
-23.4576 -3.08017 14.2467 58639.7
-24.8702 -5.05515 13.6947 62322
-24.0199 -9.85101 13.1747 56853.9
-21.4168 -10.3102 13.8044 67387.1
-18.3406 -9.23456 14.7959 64714.1
26.0359 -15.1538 9.88398 52951.7
0.352645 16.1526 17.5405 59589.7
7.75401 -23.2416 12.2717 65482.2
3.89599 -23.8735 12.4919 63710.8
3.27762 -26.8452 11.0501 57896.6
23.9737 -13.838 11.1722 54217.9
22.5643 -9.67451 12.7685 60044.8
19.7866 -9.57208 13.8313 66329
14.0323 35.2539 8.45061 57058.6
-0.475597 11.084 18.1238 66653.8
43.3082 3.63055 -0.00237336 43102.1
18.5272 -9.00196 14.3539 65946.3
15.9301 -8.756 15.1072 63474.3
14.4014 14.2584 15.5344 59362.6
14.987 10.9698 15.8692 65890.8
2.96765 -22.296 13.2533 65659.4
19.8704 -33.2764 3.17459 52789.8
19.3544 -34.2252 2.6407 54303.2
-28.682 2.44964 12.8198 56833.9
-25.6817 1.8338 13.8695 64151.9
-26.8034 8.16555 13.1705 68266.7
-29.1989 7.8367 12.1089 60123.4
0.880202 -28.1352 10.4884 57917.8
1.49267 39.5535 8.00731 52441.8
30.0392 9.02144 9.47974 64016.7
29.9305 11.1656 9.19146 60041.6
-1.41713 -27.7925 10.7002 51305.8
14.7031 -3.89666 15.9727 64419.6
12.4645 -2.5154 16.484 65287.1
-13.2298 -3.67847 16.4643 65137.6
-15.6595 -22.6912 11.2439 51354.1
-18.7586 1.96124 15.8956 65794.5
-21.8386 6.83881 15.155 61080.6
-21.1446 2.4798 15.2678 57882.4
-20.0804 -16.0409 12.5777 61095.8
-21.8964 -17.6294 11.5189 64202.4
-19.292 -23.7516 9.95483 51165.1
24.3272 12.8113 11.9365 60127.4
-18.0007 -3.51182 15.6188 65313.5
-13.8835 -3.35886 16.4119 62886.3
-15.5725 -29.3863 8.13043 52932.8
-29.3208 -4.89156 12.393 63746.7
-23.0455 1.10099 14.6411 54365.4
19.3399 -24.8885 8.5796 53932.7
-25.8986 -12.5712 11.9302 64243.9
-25.4647 -18.1241 10.3367 48230.3
16.9047 17.1958 14.1026 67455.8
-21.118 -25.4097 8.77988 56937
5 79 78 204 203 198 3085
6 169 170 144 135 114 113 3025
6 117 76 82 42 4 3 3233
6 188 198 203 167 161 160 2997
6 183 184 185 186 48 47 3272
8 107 111 123 232 49 48 186 142 3000
6 3 2 9 213 201 117 2958
5 231 212 211 229 228 3142
5 220 219 223 224 225 3253
6 140 216 217 218 102 101 3250
4 159 160 161 162 3100
5 113 112 227 240 169 2890
6 209 210 211 212 193 192 3001
6 139 100 99 222 216 140 3266
5 210 209 242 243 244 2952
6 159 162 166 200 249 189 3002
7 242 209 192 197 226 206 205 3046
5 11 10 228 229 230 3151
5 95 100 139 90 89 3273
7 205 151 150 214 255 243 242 3160
6 89 94 286 277 96 95 3213
6 149 86 85 150 151 152 3053
6 83 84 85 86 87 88 3011
5 241 154 153 185 184 3012
4 148 147 256 257 3235
5 154 241 249 200 155 3006
4 225 233 221 220 3257
6 122 123 111 110 124 125 3242
6 116 62 61 132 68 67 3182
6 88 168 167 203 204 83 2959
5 201 202 77 76 117 2960
5 168 88 87 268 163 3013
5 112 66 71 74 227 3024
5 232 123 122 44 46 2891
6 246 245 240 227 74 73 3179
5 125 143 45 44 122 3020
6 165 199 156 155 200 166 3019
8 163 164 165 166 162 161 167 168 2898
5 253 157 156 199 254 3096
6 153 154 155 156 157 158 3227
6 63 62 116 115 138 179 3245
7 144 145 146 147 148 136 135 3180
7 158 215 141 142 186 185 153 3014
6 141 105 104 108 107 142 3274
5 126 250 224 223 127 2922
6 126 127 128 129 130 131 2989
6 115 114 135 136 137 138 3099
6 108 104 103 176 175 109 2901
5 174 175 176 177 178 2988
5 107 108 109 110 111 2905
6 95 96 97 98 99 100 2936
3 178 177 248 3065
7 67 66 112 113 114 115 116 3106
7 76 77 78 79 80 81 82 3265
6 72 73 74 71 70 75 2968
6 66 67 68 69 70 71 3035
5 65 131 130 132 61 3249
5 61 62 63 64 65 3163
5 134 118 75 70 69 3050
5 101 91 90 139 140 3176
6 230 229 211 210 244 262 2924
6 174 263 124 110 109 175 3038
6 52 56 118 134 133 264 2917
7 264 265 97 96 277 53 52 2932
7 128 127 223 219 98 97 265 3194
6 99 98 219 220 221 222 3123
5 262 266 12 11 230 3157
6 205 206 207 208 152 151 3086
5 216 222 221 233 217 3052
6 252 267 268 87 86 149 3091
5 269 43 42 82 81 3221
6 163 268 267 120 119 164 2946
7 8 7 266 262 244 243 255 2918
8 81 80 187 191 38 37 279 269 2980
7 215 158 157 253 286 94 93 2913
5 93 92 105 141 215 3062
5 79 198 188 187 80 3267
7 101 102 103 104 105 92 91 3063
5 131 65 64 250 126 3066
6 248 177 176 103 102 218 3102
5 214 213 9 8 255 2921
7 187 188 160 159 189 190 191 2995
7 213 214 150 85 84 202 201 3128
6 202 84 83 204 78 77 3197
5 190 16 21 38 191 3236
6 193 212 231 257 256 194 2945
6 192 193 194 195 196 197 3122
6 197 196 283 25 24 226 3125
5 147 146 195 194 256 3201
5 206 226 24 23 207 3126
6 149 152 208 247 251 252 3129
7 165 164 119 55 54 254 199 3134
4 261 260 181 180 3109
3 179 138 137 3239
6 89 90 91 92 93 94 3138
4 284 237 236 281 2942
6 281 236 235 282 259 258 2943
4 258 259 260 261 3108
5 195 146 145 283 196 3202
6 170 26 25 283 145 144 2983
7 69 68 132 130 129 133 134 3116
4 287 276 275 285 2950
6 238 237 284 285 275 274 3132
5 265 264 133 129 128 2944
8 190 189 249 241 184 183 17 16 3270
7 282 273 272 182 181 260 259 3135
5 173 172 180 181 182 3118
5 252 251 121 120 267 2955
6 26 170 169 240 245 22 3148
6 234 235 236 237 238 239 3147
6 182 272 106 58 57 173 3150
6 254 54 53 277 286 253 2956
6 57 59 60 171 172 173 3152
4 171 60 33 32 3173
5 183 47 51 18 17 3237
6 280 28 27 270 276 287 3184
6 270 41 40 274 275 276 3167
4 125 124 263 143 3259
5 239 238 274 40 39 3169
6 273 282 235 234 278 271 3170
6 271 36 35 106 272 273 3172
5 13 12 266 7 6 2992
7 23 22 245 246 247 208 207 3206
7 239 39 43 269 279 278 234 3188
5 278 279 37 36 271 3189
5 106 35 20 19 58 3190
6 73 72 121 251 247 246 3207
5 60 59 50 34 33 3192
7 57 58 19 18 51 50 59 3191
5 52 53 54 55 56 3210
7 47 48 49 29 34 50 51 2981
5 5 41 270 27 0 3203
7 39 40 41 5 4 42 43 2965
6 21 20 35 36 37 38 3205
6 29 30 31 32 33 34 3208
4 15 14 28 280 3200
7 6 1 0 27 28 14 13 3220
5 22 23 24 25 26 3204
5 44 45 31 30 46 3238
8 75 118 56 55 119 120 121 72 2985
6 16 17 18 19 20 21 3223
6 10 11 12 13 14 15 3230
5 46 30 29 49 232 2982
6 2 1 6 7 8 9 2986
6 0 1 2 3 4 5 3232
