ply
format ascii 1.0
comment Exported from MorphoGraphX 2.0.1-254
comment Cell Graph: each vertex is a cell, each edge a wall
element vertex 145
property int label
property float x
property float y
property float z
element edge 397
property uint source
property uint target
end_header
2890 0 0 0 
2891 0 0 0 
2898 0 0 0 
2901 0 0 0 
2905 0 0 0 
2913 0 0 0 
2917 0 0 0 
2918 0 0 0 
2921 0 0 0 
2922 0 0 0 
2924 0 0 0 
2932 0 0 0 
2936 0 0 0 
2942 0 0 0 
2943 0 0 0 
2944 0 0 0 
2945 0 0 0 
2946 0 0 0 
2950 0 0 0 
2952 0 0 0 
2955 0 0 0 
2956 0 0 0 
2958 0 0 0 
2959 0 0 0 
2960 0 0 0 
2965 0 0 0 
2968 0 0 0 
2980 0 0 0 
2981 0 0 0 
2982 0 0 0 
2983 0 0 0 
2985 0 0 0 
2986 0 0 0 
2988 0 0 0 
2989 0 0 0 
2992 0 0 0 
2995 0 0 0 
2997 0 0 0 
3000 0 0 0 
3001 0 0 0 
3002 0 0 0 
3006 0 0 0 
3011 0 0 0 
3012 0 0 0 
3013 0 0 0 
3014 0 0 0 
3019 0 0 0 
3020 0 0 0 
3024 0 0 0 
3025 0 0 0 
3035 0 0 0 
3038 0 0 0 
3046 0 0 0 
3050 0 0 0 
3052 0 0 0 
3053 0 0 0 
3062 0 0 0 
3063 0 0 0 
3065 0 0 0 
3066 0 0 0 
3085 0 0 0 
3086 0 0 0 
3091 0 0 0 
3096 0 0 0 
3099 0 0 0 
3100 0 0 0 
3102 0 0 0 
3106 0 0 0 
3108 0 0 0 
3109 0 0 0 
3116 0 0 0 
3118 0 0 0 
3122 0 0 0 
3123 0 0 0 
3125 0 0 0 
3126 0 0 0 
3128 0 0 0 
3129 0 0 0 
3132 0 0 0 
3134 0 0 0 
3135 0 0 0 
3138 0 0 0 
3142 0 0 0 
3147 0 0 0 
3148 0 0 0 
3150 0 0 0 
3151 0 0 0 
3152 0 0 0 
3157 0 0 0 
3160 0 0 0 
3163 0 0 0 
3167 0 0 0 
3169 0 0 0 
3170 0 0 0 
3172 0 0 0 
3173 0 0 0 
3176 0 0 0 
3179 0 0 0 
3180 0 0 0 
3182 0 0 0 
3184 0 0 0 
3188 0 0 0 
3189 0 0 0 
3190 0 0 0 
3191 0 0 0 
3192 0 0 0 
3194 0 0 0 
3197 0 0 0 
3200 0 0 0 
3201 0 0 0 
3202 0 0 0 
3203 0 0 0 
3204 0 0 0 
3205 0 0 0 
3206 0 0 0 
3207 0 0 0 
3208 0 0 0 
3210 0 0 0 
3213 0 0 0 
3220 0 0 0 
3221 0 0 0 
3223 0 0 0 
3227 0 0 0 
3230 0 0 0 
3232 0 0 0 
3233 0 0 0 
3235 0 0 0 
3236 0 0 0 
3237 0 0 0 
3238 0 0 0 
3239 0 0 0 
3242 0 0 0 
3245 0 0 0 
3249 0 0 0 
3250 0 0 0 
3253 0 0 0 
3257 0 0 0 
3259 0 0 0 
3265 0 0 0 
3266 0 0 0 
3267 0 0 0 
3270 0 0 0 
3272 0 0 0 
3273 0 0 0 
3274 0 0 0 
2890 3024
2890 3025
2890 3106
2890 3148
2890 3179
2891 2982
2891 3000
2891 3020
2891 3238
2891 3242
2898 2946
2898 2959
2898 2997
2898 3002
2898 3013
2898 3019
2898 3100
2898 3134
2901 2905
2901 2988
2901 3038
2901 3063
2901 3102
2901 3274
2905 3000
2905 3038
2905 3242
2905 3274
2913 2956
2913 3014
2913 3062
2913 3096
2913 3138
2913 3213
2913 3227
2917 2932
2917 2944
2917 2985
2917 3050
2917 3116
2917 3210
2918 2921
2918 2924
2918 2952
2918 2986
2918 2992
2918 3157
2918 3160
2921 2958
2921 2986
2921 3128
2921 3160
2922 2989
2922 3066
2922 3194
2922 3253
2924 2952
2924 3001
2924 3142
2924 3151
2924 3157
2932 2936
2932 2944
2932 2956
2932 3194
2932 3210
2932 3213
2936 3123
2936 3194
2936 3213
2936 3266
2936 3273
2942 2943
2942 3132
2942 3147
2943 3108
2943 3135
2943 3147
2943 3170
2944 2989
2944 3116
2944 3194
2945 3001
2945 3122
2945 3142
2945 3201
2945 3235
2946 2955
2946 2985
2946 3013
2946 3091
2946 3134
2950 3132
2950 3167
2950 3184
2952 3001
2952 3046
2952 3160
2955 2985
2955 3091
2955 3129
2955 3207
2956 3096
2956 3134
2956 3210
2956 3213
2958 2960
2958 2986
2958 3128
2958 3232
2958 3233
2959 2997
2959 3011
2959 3013
2959 3085
2959 3197
2960 3128
2960 3197
2960 3233
2960 3265
2965 3167
2965 3169
2965 3188
2965 3203
2965 3221
2965 3232
2965 3233
2968 2985
2968 3024
2968 3035
2968 3050
2968 3179
2968 3207
2980 2995
2980 3188
2980 3189
2980 3205
2980 3221
2980 3236
2980 3265
2980 3267
2981 2982
2981 3000
2981 3191
2981 3192
2981 3208
2981 3237
2981 3272
2982 3000
2982 3208
2982 3238
2983 3025
2983 3125
2983 3148
2983 3180
2983 3202
2983 3204
2985 3050
2985 3134
2985 3207
2985 3210
2986 2992
2986 3220
2986 3232
2988 3038
2988 3065
2988 3102
2989 3066
2989 3116
2989 3194
2989 3249
2992 3157
2992 3220
2992 3230
2995 2997
2995 3002
2995 3100
2995 3236
2995 3267
2995 3270
2997 3085
2997 3100
2997 3267
3000 3014
3000 3242
3000 3272
3000 3274
3001 3046
3001 3122
3001 3142
3002 3006
3002 3019
3002 3100
3002 3270
3006 3012
3006 3019
3006 3227
3006 3270
3011 3013
3011 3053
3011 3091
3011 3128
3011 3197
3012 3014
3012 3227
3012 3270
3012 3272
3013 3091
3014 3062
3014 3227
3014 3272
3014 3274
3019 3096
3019 3134
3019 3227
3020 3238
3020 3242
3020 3259
3024 3035
3024 3106
3024 3179
3025 3099
3025 3106
3025 3148
3025 3180
3035 3050
3035 3106
3035 3116
3035 3182
3038 3242
3038 3259
3046 3086
3046 3122
3046 3125
3046 3126
3046 3160
3050 3116
3052 3123
3052 3250
3052 3257
3052 3266
3053 3086
3053 3091
3053 3128
3053 3129
3053 3160
3062 3063
3062 3138
3062 3274
3063 3102
3063 3138
3063 3176
3063 3250
3063 3274
3065 3102
3066 3163
3066 3249
3085 3197
3085 3265
3085 3267
3086 3126
3086 3129
3086 3160
3086 3206
3091 3129
3096 3134
3096 3227
3099 3106
3099 3180
3099 3239
3099 3245
3102 3250
3106 3182
3106 3245
3108 3109
3108 3135
3109 3118
3109 3135
3116 3182
3116 3249
3118 3135
3118 3150
3118 3152
3122 3125
3122 3201
3122 3202
3123 3194
3123 3253
3123 3257
3123 3266
3125 3126
3125 3202
3125 3204
3126 3204
3126 3206
3128 3160
3128 3197
3129 3206
3129 3207
3132 3147
3132 3167
3132 3169
3134 3210
3135 3150
3135 3170
3135 3172
3138 3176
3138 3213
3138 3273
3142 3151
3147 3169
3147 3170
3147 3188
3148 3179
3148 3204
3148 3206
3150 3152
3150 3172
3150 3190
3150 3191
3151 3157
3151 3230
3152 3173
3152 3191
3152 3192
3157 3230
3163 3182
3163 3245
3163 3249
3167 3169
3167 3184
3167 3203
3169 3188
3170 3172
3170 3188
3170 3189
3172 3189
3172 3190
3172 3205
3173 3192
3173 3208
3176 3250
3176 3266
3176 3273
3179 3206
3179 3207
3180 3201
3180 3202
3180 3235
3182 3245
3182 3249
3184 3200
3184 3203
3184 3220
3188 3189
3188 3221
3189 3205
3190 3191
3190 3205
3190 3223
3191 3192
3191 3223
3191 3237
3192 3208
3194 3253
3197 3265
3200 3220
3200 3230
3201 3202
3201 3235
3203 3220
3203 3232
3204 3206
3205 3223
3205 3236
3206 3207
3208 3238
3213 3273
3220 3230
3220 3232
3221 3233
3221 3265
3223 3236
3223 3237
3223 3270
3232 3233
3233 3265
3236 3270
3237 3270
3237 3272
3239 3245
3242 3259
3250 3266
3253 3257
3265 3267
3266 3273
3270 3272
