ply
format ascii 1.0
comment Exported from MorphoGraphX 2.0 1-254
comment Cellular mesh
element vertex 959
property float x
property float y
property float z
property float signal
element face 481
property list int int vertex_index
property int label
end_header
143 51.75 0.999999 80213.3
155.75 50 0.999999 83968
156.25 54.25 0.999999 58026.7
146.25 57 0.999999 75093.3
155.75 46.25 0.999999 81578.7
142.5 51.25 0.999999 70656
142.25 33.5 0.999999 79189.3
153 36.25 0.999999 76117.3
158 40.5 0.999999 86698.7
133.25 46.5 0.999999 75434.7
131.25 5 0.999999 79872
138.5 9.53674e-07 0.999999 87040
145 4.25 0.999999 78848
155.25 22 0.999999 87040
134.75 23.5 0.999999 87040
122 30.25 0.999999 69290.7
122 25 0.999999 83285.3
124 23.5 0.999999 87040
121.25 35.75 0.999999 55637.3
10 -113.75 0.999999 86016
15.3333 -106.542 0.999999 76344.9
8.75 -101.5 0.999999 60416
9 -113 0.999999 81578.7
4 154 0.999999 26282.7
6 153 0.999999 19114.7
15.75 166 0.999999 42325.3
12 168.25 0.999999 54954.7
20.25 109.5 0.999999 45397.3
16.75 117.25 0.999999 23552
17.75 125 0.999999 29354.7
13.875 129.875 0.999999 38229.3
4.25 123.75 0.999999 39936
2 112.5 0.999999 75434.7
7.75 105.25 0.999999 52565.3
16.5 104.5 0.999999 44032
-2 93.5 0.999999 84992
6.75 85.5 0.999999 63829.3
15.25 94.75 0.999999 82944
-4.5 -1.5 0.999999 86016
6 -0.5 0.999999 87040
7.5 3.5 0.999999 87040
-2 7.5 0.999999 86357.3
-5.875 1.625 0.999999 85674.7
-2.5 127.5 0.999999 31061.3
15 141 0.999999 31061.3
11 150.75 0.999999 25600
-3 150 0.999999 33450.7
-7.25 141.75 0.999999 41984
0.5 -120.5 0.999999 82944
3 -119 0.999999 87040
-3.5 -109.5 0.999999 87040
-7.75 -112 0.999999 84992
-10.4583 112.333 0.999999 86243.6
-11 114.5 0.999999 73728
-8 -157.75 0.999999 87040
10.5 -151.5 0.999999 80896
7.75 -143.25 0.999999 84309.3
-11.5 -148.5 0.999999 87040
7.75 11 0.999999 86698.7
6.83333 22.2917 0.999999 82488.9
-4 21.5 0.999999 80213.3
-10.25 15.5 0.999999 83285.3
-13.25 6.75 0.999999 86357.3
-7.66667 -23.5417 0.999999 69290.7
7.5 -15 0.999999 82261.3
0.125001 -13.375 0.999999 86698.7
-8 -8.25 0.999999 86698.7
-13.75 -17.75 0.999999 78848
-14.5 -57 0.999999 78165.3
-9.125 -60.125 0.999999 60074.7
0.25 -56.5 0.999999 74410.7
6.75 -39.25 0.999999 79530.7
-6.20833 -34.875 0.999999 81237.3
-15.5 -40.5 0.999999 73045.3
-16.4167 -52.7917 0.999999 75776
-12.875 97.8125 0.999999 57344
-8.25 93 0.999999 69632
-16.3333 100.708 0.999999 47672.9
-17.75 19.75 0.999999 85333.3
-7 27.5 0.999999 85333.3
-18.5 -130 0.999999 74752
-16 -146 0.999999 87040
14.25 -136.25 0.999999 87040
0.75 -129 0.999999 86698.7
-20.75 84.5 0.999999 49493.3
-17.75 82 0.999999 66218.7
6 -72 0.999999 83968
6.5 -61.5 0.999999 79872
-16.25 -67.5 0.999999 82261.3
-18.75 -68.25 0.999999 65877.3
-21.25 -75.25 0.999999 71680
-19.75 -79.5 0.999999 83968
-13.5 -82.5 0.999999 82944
-9.79167 -28.5833 0.999999 85674.7
-21.25 -21 0.999999 75093.3
-22.5 -26.5 0.999999 87040
-22.75 27.75 0.999999 84309.3
-9.16667 34.7917 0.999999 87040
-17.5 -60 0.999999 81237.3
-23 -64.5 0.999999 78506.7
-24.5 95.75 0.999999 56661.3
-14 -87 0.999999 87040
-24 -82.5 0.999999 87040
-25 -94.5 0.999999 87040
-19.25 -108.5 0.999999 82261.3
-11.75 -107.75 0.999999 86357.3
-10 -102.5 0.999999 87040
-12.5 -95.5 0.999999 87040
-11.0833 -91.7083 0.999999 87040
-13.4583 -89.6667 0.999999 86926.2
-27.5 -12 0.999999 84650.7
-23.5 4 0.999999 80213.3
-27 -93.25 0.999999 87040
-29.75 -57.75 0.999999 80213.3
-29.25 117 0.999999 55637.3
-28.5 117 0.999999 43690.7
-23.25 130.75 0.999999 21845.3
-33.5 124.5 0.999999 46762.7
-33 20.75 0.999999 87040
-33.5417 15.1667 0.999999 87040
-32 11 0.999999 83968
-10 -163.25 0.999999 87040
-33.5 -148.75 0.999999 75776
-35.25 -154.25 0.999999 78848
-33 -160.5 0.999999 77482.7
-29.75 -165.75 0.999999 61440
-28.5 -167.25 0.999999 71338.7
-28.75 135.25 0.999999 36181.3
-31.75 138.5 0.999999 25600
-37.75 133.5 0.999999 50517.3
-32.25 70 0.999999 79530.7
-18.25 75.5 0.999999 71680
-30 96.75 0.999999 86698.7
-33.5 90.75 0.999999 87040
-37.25 81.25 0.999999 83626.7
-38 60.75 0.999999 73728
-37.25 58 0.999999 62122.7
-35 55.5 0.999999 84650.7
-28.25 51 0.999999 80554.7
-20 52 0.999999 87040
-9.75 61 0.999999 86016
-37.25 124.75 0.999999 79530.7
-22 130.5 0.999999 36522.7
-21.5 135.25 0.999999 50858.7
-39 132 0.999999 25258.7
-36.25 -96 0.999999 81237.3
-33.75 -76.5 0.999999 78506.7
-40.75 -86.5 0.999999 65877.3
-42.75 -168.75 0.999999 70314.7
-40.25 -172.5 0.999999 83968
-7.25 40 0.999999 87040
-39.5 37.5 0.999999 81578.7
-42.25 29.5 0.999999 86357.3
-40.25 24 0.999999 87040
-38.5 -74.25 0.999999 86357.3
-39.25 -59.75 0.999999 86357.3
-42.5 -70.75 0.999999 75093.3
-41 -132.75 0.999999 86016
-28.25 -129 0.999999 69632
-34 -123.75 0.999999 81578.7
-43 -127.5 0.999999 86357.3
-39.25 -143.25 0.999999 60757.3
-35 -147.5 0.999999 67925.3
-42.5 -136.25 0.999999 86357.3
-4.5 -173.5 0.999999 85674.7
-43.25 -177 0.999999 84650.7
-41 -185 0.999999 87040
-20.75 -180.75 0.999999 58026.7
-42 -111.75 0.999999 75093.3
-34 -116 0.999999 57685.3
-43.75 -103 0.999999 82602.7
-43.75 -164.25 0.999999 72362.7
-40.5 7.5 0.999999 80896
-44.5 11.75 0.999999 85674.7
-45.5 -85.75 0.999999 83626.7
-45 -151.75 0.999999 57002.7
-45 -153 0.999999 54613.3
-47.75 46 0.999999 68266.7
-45.5 20.25 0.999999 86357.3
-47.25 30 0.999999 84650.7
-34.25 -117.5 0.999999 63146.7
-48.25 -123 0.999999 61098.7
-48.5 15.75 0.999999 84992
-30.75 -37 0.999999 76800
-45.5 -36 0.999999 81920
-48.75 -41.25 0.999999 87040
-48 -47.75 0.999999 84992
-45.5 -51.5 0.999999 78506.7
-44 -56.25 0.999999 74069.3
-41 121 0.999999 87040
-49.5 126.75 0.999999 86698.7
-49 123.25 0.999999 87040
-49.75 -116.25 0.999999 71338.7
-50.5 -121 0.999999 68949.3
-48.75 -197.5 0.999999 79872
-51 -188 0.999999 80896
-51.75 -75.25 0.999999 82602.7
-46.5 148.75 0.999999 22186.7
-33 152.25 0.999999 31061.3
-27.5 157.75 0.999999 26624
-32 173 0.999999 48810.7
-53 157.5 0.999999 15018.7
-45.5 -19.5 0.999999 75093.3
-52.5 -29.5 0.999999 83968
-53.75 69.25 0.999999 84309.3
-49 59.75 0.999999 78506.7
-48.75 79 0.999999 85674.7
-51.25 -153.25 0.999999 83968
-49.5 -137 0.999999 77824
-54.25 -103.25 0.999999 62464
-54.25 -164.5 0.999999 83626.7
-56 -158 0.999999 84309.3
-57 24.5 0.999999 66218.7
-58.75 -32 0.999999 86016
-53 -41 0.999999 86357.3
-58.5 -31 0.999999 81578.7
-58 -173.75 0.999999 86357.3
-59 -168.5 0.999999 84650.7
-57.25 -58.5 0.999999 79872
-59.75 -55.25 0.999999 80554.7
-59.75 -41.5 0.999999 84650.7
-57.75 -133.75 0.999999 80213.3
-61 -123 0.999999 80896
-57.5 -199.25 0.999999 87040
-61.5 -187.5 0.999999 85333.3
-61.75 -188.25 0.999999 84992
-62.5 131.5 0.999999 87040
-57.75 127.75 0.999999 87040
-62.75 138.25 0.999999 74410.7
-64.25 -176.75 0.999999 82261.3
-65.25 -19.75 0.999999 80896
-64.5 -27.5 0.999999 83626.7
-51.75 -11.5 0.999999 81920
-64.75 -200.25 0.999999 84992
-67.25 -192 0.999999 84650.7
-67 -91.25 0.999999 70997.3
-61.75 -97.25 0.999999 83968
-60.5 -101.25 0.999999 59733.3
-59 -73.75 0.999999 77141.3
-67.75 -83.25 0.999999 83626.7
-67.75 -166.25 0.999999 87040
-64.5 -156.5 0.999999 82261.3
-68.25 -163.75 0.999999 86698.7
-68.5417 -14.8333 0.999999 76913.8
-59.5 -2.5 0.999999 82944
-60 -2.5 0.999999 67925.3
-66.75 -54.5 0.999999 87040
-68.5 -43.5 0.999999 83626.7
-70.25 -58.25 0.999999 87040
-68.5 -108 0.999999 75434.7
-69.75 -106.5 0.999999 80554.7
-70 -141.75 0.999999 80896
-69.5 -174.25 0.999999 74752
-68 -121.25 0.999999 75434.7
-71 -114 0.999999 64853.3
-70 141.75 0.999999 79530.7
-63.5 138.5 0.999999 69973.3
-70.75 152.5 0.999999 70997.3
-73.5 146.5 0.999999 84992
-72.75 36 0.999999 59733.3
-65.25 26 0.999999 63488
-50.75 49.5 0.999999 32426.7
-53 52.5 0.999999 62464
-69.75 43 0.999999 71680
-73 -35.5 0.999999 83968
-71 -93.5 0.999999 61440
-70.75 -99.75 0.999999 48810.7
-73.25 -103.5 0.999999 51541.3
-75 130.5 0.999999 63488
-75 129.5 0.999999 73386.7
-74.75 53.25 0.999999 79530.7
-72.75 48 0.999999 85333.3
-62 66.25 0.999999 84309.3
-73.25 57.75 0.999999 77141.3
-69.25 110.5 0.999999 86698.7
-55.25 99 0.999999 87040
-47.25 100 0.999999 87040
-41.25 111.25 0.999999 79530.7
-44.75 116.5 0.999999 83626.7
-70.75 117 0.999999 81578.7
-79.25 -95.25 0.999999 55637.3
-77.75 87.5 0.999999 87040
-73.5 86 0.999999 87040
-58.25 91.75 0.999999 79189.3
-81 107.75 0.999999 78506.7
-82.5 101.5 0.999999 87040
-80.5 35.25 0.999999 66901.3
-82.75 40.5 0.999999 82261.3
-82.75 -165 0.999999 79872
-79.25 -174.5 0.999999 83968
-72.75 -191 0.999999 86357.3
-82.75 -179.5 0.999999 87040
-76 119.25 0.999999 87040
-85.25 112.75 0.999999 86698.7
-85 45.5 0.999999 63829.3
-81.5 12.5 0.999999 75093.3
-72.75 11 0.999999 81237.3
-85.5 29 0.999999 80554.7
-87 70.75 0.999999 84309.3
-82.5 64.75 0.999999 85674.7
-68.75 75.25 0.999999 86016
-71.75 79 0.999999 62122.7
-86.25 77.75 0.999999 85333.3
-78.75 122.75 0.999999 87040
-84.75 122.25 0.999999 85674.7
-84.5 -206 0.999999 86698.7
-85.75 -193.75 0.999999 86016
-88.25 -25.5 0.999999 82602.7
-80.75 -36.25 0.999999 75776
-76.75 -14.5 0.999999 82261.3
-81.5 -143 0.999999 83626.7
-87.5 -133.25 0.999999 82261.3
-80.5 -96.25 0.999999 40618.7
-88.75 130 0.999999 86698.7
-84.5 141.75 0.999999 87040
-89 -68.5 0.999999 57685.3
-87 -71.75 0.999999 57002.7
-82.5 -79.5 0.999999 77141.3
-89.25 -62.25 0.999999 87040
-90.75 -65 0.999999 80213.3
-91 2.5 0.999999 86698.7
-82 -8 0.999999 76117.3
-68 3.5 0.999999 81578.7
-91.25 -163 0.999999 85333.3
-93.5 -153.75 0.999999 79189.3
-89 -113 0.999999 66901.3
-93.75 -103.25 0.999999 58709.3
-93 -173.5 0.999999 87040
-90.25 -178 0.999999 86698.7
-94.5 -168.25 0.999999 80554.7
-92.5 46.5 0.999999 71680
-83.5 63.75 0.999999 87040
-89.75 58.75 0.999999 74069.3
-95 52.75 0.999999 63829.3
-91.25 30 0.999999 85674.7
-97.5 40.5 0.999999 49493.3
-95 -54.25 0.999999 85333.3
-96.5 -46.25 0.999999 82602.7
18.5 68.25 0.999999 69290.7
24.75 78 0.999999 68266.7
20 92 0.999999 75776
-1.625 64.0417 0.999999 81920
5.54167 55.3333 0.999999 81692.4
16.5 58.5 0.999999 72704
-98.5 -129 0.999999 66560
-93.75 -134.25 0.999999 72021.3
-99 -120.75 0.999999 63829.3
-100.25 65.25 0.999999 87040
-97.75 53.75 0.999999 77482.7
-92.5 63.75 0.999999 87040
-93.25 66.25 0.999999 84650.7
-97.25 -84.5 0.999999 84309.3
-100 -77.75 0.999999 72021.3
-100.5 75.25 0.999999 77482.7
-91.25 80.25 0.999999 87040
-92.25 81.75 0.999999 81237.3
-101.25 80 0.999999 84992
-101.75 84.25 0.999999 86698.7
-94.75 87 0.999999 83285.3
-33.25 110 0.999999 85674.7
-101.75 -74.25 0.999999 65194.7
-103.25 58.75 0.999999 70997.3
-102.75 64.5 0.999999 83968
-103 -69.25 0.999999 70656
-99.5 -182.25 0.999999 82944
-102.75 -176.5 0.999999 87040
-104.75 141 0.999999 87040
-99 129.5 0.999999 87040
-89.25 146.25 0.999999 87040
-97.75 147.25 0.999999 87040
-100.75 -101 0.999999 68608
-103.75 -91 0.999999 71680
-104.5 -172.5 0.999999 84309.3
-105.25 118.75 0.999999 76800
-100.75 114.5 0.999999 70997.3
-101 110.75 0.999999 79189.3
-98.75 106.25 0.999999 87040
-89.25 101 0.999999 83968
-106.25 122.25 0.999999 87040
-98.5 -55.5 0.999999 87040
-104 -47 0.999999 80896
-104.5 -50 0.999999 86357.3
-100.25 -196.25 0.999999 86698.7
-104.5 -187.75 0.999999 87040
-104.75 12.75 0.999999 60757.3
-103.75 8.25 0.999999 67242.7
-98.625 3.45833 0.999999 80554.7
-105.75 16.5 0.999999 50176
-105.542 -8.125 0.999999 85333.3
-103 -17.25 0.999999 79872
-97.5 -25.25 0.999999 80896
-79.25 -11.25 0.999999 53930.7
-104.25 -56.5 0.999999 85333.3
-105.25 72.75 0.999999 87040
-108.25 69.75 0.999999 81920
-105 85.25 0.999999 87040
-109.5 81.5 0.999999 87040
-108.75 -44.25 0.999999 86016
-107.75 -33.25 0.999999 76800
-105.75 -154 0.999999 77824
-94.75 -135.75 0.999999 70314.7
-107.5 -144.5 0.999999 61440
-109.75 -139.5 0.999999 73045.3
-110.5 -137.75 0.999999 69973.3
-110.5 114 0.999999 65194.7
-110.75 109.75 0.999999 78848
-93 90.5 0.999999 87040
-103.25 101.25 0.999999 87040
-108.25 99.25 0.999999 86357.3
-111.5 95.25 0.999999 77824
-109.25 -200.75 0.999999 85333.3
-111.75 -206.5 0.999999 83626.7
-113.5 108 0.999999 86016
-113 77 0.999999 82261.3
-110.5 -171.75 0.999999 81920
-114.25 -158.5 0.999999 46080
-115.75 -122.25 0.999999 82944
-107.75 -125.25 0.999999 84992
-104.75 -120.25 0.999999 54272
-115.75 -120.5 0.999999 58026.7
-115.5 -127.5 0.999999 63488
-114.5 -69.25 0.999999 83285.3
-116.25 -61.5 0.999999 74410.7
-114 -89.25 0.999999 65194.7
-118.25 -74.75 0.999999 65536
-116.75 -136.75 0.999999 65536
-117.5 41.75 0.999999 82944
-112 37.25 0.999999 40277.3
-117.5 51.25 0.999999 60074.7
-119.5 44.75 0.999999 52565.3
-120 -54.5 0.999999 73386.7
-117.75 -155.25 0.999999 87040
-119.5 -140.75 0.999999 82944
-119.25 108 0.999999 87040
-118 120.75 0.999999 85674.7
-121.25 113 0.999999 87040
-117.25 95.25 0.999999 81578.7
-115.75 18.5 0.999999 60757.3
-120.75 25.5 0.999999 72362.7
-12.5 162 0.999999 34474.7
-4.75 169.75 0.999999 40277.3
-119 -32.5 0.999999 69632
-111.25 -30.75 0.999999 79530.7
-111 -23 0.999999 50858.7
-121 -28.5 0.999999 46762.7
-120.75 -118 0.999999 68608
-121 -111.5 0.999999 49834.7
-119.75 138 0.999999 73045.3
-117.75 135 0.999999 58026.7
-121.5 144.25 0.999999 74410.7
-111.25 -19.5 0.999999 74410.7
-122.75 -25 0.999999 36864
-121.75 130.75 0.999999 57685.3
-124 127.75 0.999999 82602.7
-123 -185 0.999999 74069.3
-124 -177 0.999999 73045.3
-123.5 70.5 0.999999 82602.7
-126 58.5 0.999999 72704
-127.75 -102.75 0.999999 58709.3
-127.25 -107.5 0.999999 43349.3
-126.25 -97 0.999999 54272
-127.75 -141.75 0.999999 59050.7
-126.25 -146 0.999999 44373.3
-125.75 -151 0.999999 51541.3
-121 -155.75 0.999999 83968
-126 -139.75 0.999999 74752
-128 -173.25 0.999999 75776
-128.75 -167 0.999999 74069.3
-128.5 83.25 0.999999 75093.3
-126 73 0.999999 82261.3
-128.5 87.5 0.999999 87040
-129.25 85 0.999999 74410.7
-127.75 -208 0.999999 83285.3
-126 -196.5 0.999999 75093.3
-121 -6.25 0.999999 73386.7
-129.125 -14.625 0.999999 84650.7
-127 44.5 0.999999 79189.3
-130.5 56.25 0.999999 87040
-128.75 23.75 0.999999 82944
-130 34.25 0.999999 87040
-129.5 -126.75 0.999999 50517.3
-129.75 -194.75 0.999999 77482.7
-129.5 -186 0.999999 81237.3
-131.25 -188 0.999999 81237.3
-132 38.25 0.999999 48469.3
-130.25 -174.25 0.999999 86016
-134.25 -178.75 0.999999 86016
-134.5 106.5 0.999999 61098.7
-135.5 100.75 0.999999 81578.7
-135.75 -44.75 0.999999 78165.3
-131.25 -54.75 0.999999 67242.7
-134.5 -93.25 0.999999 61440
-135.75 -81.25 0.999999 81578.7
-134.75 -110.25 0.999999 65536
-137.75 -105.25 0.999999 52565.3
-138.5 -174.25 0.999999 84992
-138.75 -155 0.999999 76800
-139.5 -152 0.999999 68949.3
-136.75 -165.75 0.999999 81920
-139.75 -169.75 0.999999 80554.7
80.5 103.75 0.999999 25258.7
83.75 100.25 0.999999 49834.7
92 98.75 0.999999 21845.3
104 108.75 0.999999 26965.3
97 115.75 0.999999 20480
84 113.5 0.999999 14336
-142.5 3 0.999999 81578.7
-137.25 -1.5 0.999999 81578.7
-126.875 2.625 0.999999 85674.7
-120.25 9 0.999999 55296
-119.75 10.5 0.999999 42325.3
-141.25 13 0.999999 72704
-1.5 -107.5 0.999999 87040
-4.5 -99.75 0.999999 87040
-6.125 -100.125 0.999999 87040
-159.75 -201.75 0.999999 77141.3
-160 -191.75 0.999999 83626.7
-170.25 -188.75 0.999999 79872
-173.5 -193 0.999999 82944
-130 132.5 0.999999 80213.3
-125 135.5 0.999999 82261.3
-130.25 143.5 0.999999 84992
-132.5 136.75 0.999999 69973.3
76.5 93.5 0.999999 87040
75 101.5 0.999999 73386.7
82.25 64.25 0.999999 75434.7
97.5 73.5 0.999999 84992
90.25 85.25 0.999999 78165.3
76 83.25 0.999999 71680
73.5 76.25 0.999999 77141.3
74.5 13.5 0.999999 87040
82.25 13.75 0.999999 86357.3
82.75 16.25 0.999999 87040
79 21 0.999999 86698.7
73 17.75 0.999999 87040
74.5 8 0.999999 87040
81.0833 8.20833 0.999999 86016
-19.75 118.25 0.999999 31402.7
-2.375 -96.9583 0.999999 87040
-127.75 128.75 0.999999 81237.3
-125.25 134 0.999999 86698.7
71 91.75 0.999999 79872
70.25 46.25 0.999999 76117.3
81.5 41.5 0.999999 86016
91.75 44.5 0.999999 86698.7
104 49 0.999999 86357.3
109.75 50.75 0.999999 87040
111.25 56.75 0.999999 86357.3
103.75 71.75 0.999999 87040
68.25 51.5 0.999999 87040
36.5 -28.25 0.999999 74069.3
40.25 -33.25 0.999999 83968
55.5 -36.25 0.999999 87040
61.5 -30.75 0.999999 83626.7
59.75 -18 0.999999 87040
56.6667 -15.4583 0.999999 80327.1
51.75 -18.25 0.999999 85333.3
43.5 -18.75 0.999999 80213.3
37.5 -22.25 0.999999 86016
97 25.5 0.999999 87040
99.5 30.75 0.999999 86698.7
96.5 38 0.999999 87040
93.5 42.5 0.999999 87040
74.75 29.75 0.999999 84992
-1.5 50.5 0.999999 86357.3
-0.0833325 43.2917 0.999999 86698.7
14.25 39.25 0.999999 86357.3
17.5 44.75 0.999999 81237.3
21 51.75 0.999999 83968
-209.75 -47.5 0.999999 86016
-204 -48 0.999999 83626.7
-193 -42.5 0.999999 86357.3
-183.25 -26.25 0.999999 86698.7
-194 -21.75 0.999999 82602.7
-200.5 -28 0.999999 78848
21 -90.75 0.999999 86698.7
22.25 -83 0.999999 82944
19.25 -79.5 0.999999 84992
15.25 -75.75 0.999999 70997.3
5.45833 -96.125 0.999999 86584.9
-8 60.25 0.999999 87040
-142.5 -76.5 0.999999 71338.7
-141.25 -79.25 0.999999 65877.3
-144.25 -70 0.999999 70997.3
-194.75 -18.75 0.999999 86698.7
-205.5 -23 0.999999 72021.3
75 154.25 0.999999 33450.7
82 158.25 0.999999 24917.3
73.75 164.5 0.999999 26624
71.25 162.25 0.999999 21845.3
162 7.5 0.999999 41301.3
159.5 8.75 0.999999 43690.7
157.25 20.5 0.999999 86016
156.25 -0.5 0.999999 49493.3
63.5 127 0.999999 40277.3
63.5 125.75 0.999999 46421.3
68.5 122.5 0.999999 26282.7
84.5 125.5 0.999999 31744
95.25 124.25 0.999999 21845.3
107 136.5 0.999999 30720
92 144.5 0.999999 41301.3
63.75 135.5 0.999999 30378.7
167 22.25 0.999999 62122.7
165.5 22.25 0.999999 57002.7
-152.75 -113.25 0.999999 70314.7
-147 -115.75 0.999999 60416
-141.5 -99.75 0.999999 49493.3
-154.5 -106 0.999999 57002.7
77 -8 0.999999 82261.3
89.5 1 0.999999 86357.3
66.75 8 0.999999 87040
64.3333 4.29167 0.999999 87040
-210 -73.5 0.999999 70997.3
-205.5 -76.75 0.999999 72704
-201.5 -76.25 0.999999 69632
-195 -66.5 0.999999 73386.7
-199 -58 0.999999 74069.3
-202 -53.25 0.999999 84650.7
25.5 125 0.999999 25258.7
37.25 131 0.999999 26282.7
48.75 134.25 0.999999 37205.3
50 134.5 0.999999 32768
53.75 138.75 0.999999 34474.7
56.75 151.25 0.999999 47104
45.75 156.25 0.999999 36522.7
19.5 159.25 0.999999 28330.7
127.75 -17 0.999999 49493.3
134.5 -23.5 0.999999 65194.7
34.75 102.25 0.999999 53930.7
26.25 110.25 0.999999 37888
63.5 13.75 0.999999 80213.3
65.75 160 0.999999 23893.3
59.25 168.75 0.999999 34816
71 102 0.999999 40277.3
-141.75 125 0.999999 85333.3
-137.25 117.75 0.999999 64170.7
-127.5 128 0.999999 78165.3
62.25 28.75 0.999999 82602.7
58.25 22.75 0.999999 87040
67 -33.75 0.999999 72704
68 -33.5 0.999999 63829.3
77.25 -30.5 0.999999 52224
80.75 -22.25 0.999999 87040
76 -15.25 0.999999 87040
69.75 45.75 0.999999 75776
58 37.75 0.999999 63146.7
82.75 -39.75 0.999999 79530.7
87 -40.75 0.999999 86357.3
98.75 -39.75 0.999999 86698.7
102.5 -31.5 0.999999 80896
98.25 -19.5 0.999999 85674.7
87.25 -49.75 0.999999 87040
93.25 -50.25 0.999999 86357.3
100 -48 0.999999 86016
-203.75 -105.75 0.999999 74752
-201.75 -98.75 0.999999 46421.3
-204.5 -90 0.999999 25600
-207 -86.5 0.999999 31061.3
55.5 9.53674e-07 0.999999 84992
55 -6.5 0.999999 86357.3
-182.75 -164 0.999999 67242.7
-179.75 -167.75 0.999999 43349.3
-178.5 -169.75 0.999999 58026.7
-172 -174.25 0.999999 84992
-161.5 -174 0.999999 85333.3
-169.25 -161 0.999999 70314.7
-177.5 -160 0.999999 87040
-182.5 -161 0.999999 76458.7
67.75 155.25 0.999999 19456
-210.75 48 0.999999 81920
-194 56.75 0.999999 85333.3
-193 64 0.999999 87040
-195.5 66.5 0.999999 87040
-199.25 71.25 0.999999 76800
-62.875 -1.375 0.999999 60416
56.5 -55 0.999999 84992
63.25 -56.5 0.999999 87040
74.5 -47 0.999999 73045.3
50.75 -46.5 0.999999 69973.3
55 -104 0.999999 82602.7
63.5 -103 0.999999 84650.7
72.75 -91 0.999999 87040
70 -83 0.999999 86357.3
63.75 -80 0.999999 86357.3
52.25 -87 0.999999 84309.3
50 -98.25 0.999999 76800
-166.75 -156.5 0.999999 81578.7
-169 -149.75 0.999999 85674.7
-171.25 -146.25 0.999999 85333.3
-182.25 -147.75 0.999999 86357.3
52.5 88.75 0.999999 61098.7
59 81 0.999999 60757.3
60 78.5 0.999999 60757.3
64.5 111.5 0.999999 43690.7
51.75 111.25 0.999999 34816
48.5 102.25 0.999999 35840
48.0417 -7.875 0.999999 81464.9
49.25 -61 0.999999 85674.7
43.25 -56 0.999999 85333.3
43.5 82 0.999999 53248
44.5 79.75 0.999999 55296
-194.25 -14.75 0.999999 82261.3
-175 -22 0.999999 80896
-169.125 -8.45833 0.999999 86584.9
-175.75 -1.75 0.999999 83968
27.5 75.5 0.999999 84650.7
31.5 75 0.999999 79189.3
-174.75 6.75 0.999999 87040
-162.75 12.75 0.999999 78506.7
-166 16.5 0.999999 67584
-163.75 29.5 0.999999 64853.3
-165.75 31.5 0.999999 87040
-178.5 24 0.999999 65536
-181.75 14.75 0.999999 71338.7
31 -18.5 0.999999 85333.3
29.25 -29 0.999999 84992
-174.75 78 0.999999 85333.3
-169 73.25 0.999999 84309.3
-156.25 82.25 0.999999 82261.3
-149 91.5 0.999999 83285.3
-154.25 97.25 0.999999 83626.7
-162.75 94.5 0.999999 66901.3
-172.75 89 0.999999 86016
20.25 -26.25 0.999999 74752
25 -16.5 0.999999 86016
20.875 -8.125 0.999999 86357.3
10.625 -8.95833 0.999999 83512.9
15.125 -36.1875 0.999999 74752
39.7917 -8.625 0.999999 77027.6
37.25 3 0.999999 83285.3
30.5 4.75 0.999999 86016
-177.25 94.75 0.999999 86016
-175.25 90.75 0.999999 86357.3
-164.25 100.25 0.999999 60416
-164.5 101.75 0.999999 82944
-168.25 107 0.999999 86357.3
148 75.25 0.999999 86357.3
148.75 78.5 0.999999 63146.7
142.75 81 0.999999 73386.7
139 75.25 0.999999 87040
19.25 33.25 0.999999 87040
28 36.75 0.999999 87040
27.25 43.25 0.999999 84309.3
22 -133.25 0.999999 86698.7
17.5 -126 0.999999 86016
24 -120 0.999999 59392
29.25 -115 0.999999 86016
28.5 -106.5 0.999999 87040
81.75 -42 0.999999 86698.7
-185.5 -180.5 0.999999 87040
-174.5 -179.5 0.999999 87040
-187.25 -175.5 0.999999 78165.3
179.25 53.75 0.999999 63146.7
169 68.25 0.999999 52224
53 46.75 0.999999 71338.7
52.25 45.75 0.999999 66560
-197.5 -80.75 0.999999 53930.7
-196.5 -84.25 0.999999 42325.3
-191.5 -87.25 0.999999 73728
-179.25 -79.75 0.999999 64170.7
-184.25 -65 0.999999 60757.3
-188 -64.25 0.999999 87040
44.125 6.625 0.999999 83968
41.75 13.5 0.999999 70314.7
30.75 19.25 0.999999 82944
24 13 0.999999 83968
103.75 -14.75 0.999999 87040
100.75 -4 0.999999 86357.3
98 2 0.999999 86698.7
26.25 -152.25 0.999999 87040
128.5 76.25 0.999999 71338.7
130.25 82.25 0.999999 57685.3
55.5 65 0.999999 86698.7
60.5 54.5 0.999999 55296
54.75 72 0.999999 84309.3
-191.75 -95.25 0.999999 63146.7
-170.75 -97.75 0.999999 61098.7
-167.5 -90 0.999999 73728
-171 -82 0.999999 69632
41.75 15.5 0.999999 71338.7
33 23 0.999999 56320
38.25 -139.5 0.999999 85674.7
32 -131.25 0.999999 86357.3
27.75 -132 0.999999 87040
17 -48.75 0.999999 53589.3
32.5 -48 0.999999 54954.7
30.5 -41.25 0.999999 60074.7
19.25 -40.5 0.999999 69973.3
-190.25 -171.75 0.999999 69632
129.75 63.5 0.999999 83968
139.75 68.25 0.999999 84992
-190.25 -114.5 0.999999 86016
-179.5 -114.75 0.999999 80554.7
-168 -110 0.999999 72021.3
-166 -105 0.999999 62805.3
-194.75 -96.75 0.999999 83285.3
38 25.75 0.999999 85674.7
38 32 0.999999 84992
16.75 25.75 0.999999 87040
26.75 50.25 0.999999 79530.7
32.75 -77.25 0.999999 80554.7
32.5 -77 0.999999 83285.3
25.25 -74.5 0.999999 74410.7
-190.5 -47.25 0.999999 76458.7
-188.25 -50 0.999999 81237.3
-180.5 -54.75 0.999999 76117.3
-173.25 -52.75 0.999999 84650.7
-160.5 -40.75 0.999999 77482.7
-167.75 -30.5 0.999999 86016
-164.125 -11.125 0.999999 78506.7
-155 -7.25 0.999999 66218.7
-150.5 18.75 0.999999 66560
-163 -18.5 0.999999 80213.3
-150 -12.25 0.999999 69973.3
32.5 -70.75 0.999999 86016
26.25 -69.5 0.999999 81237.3
-213.25 -170.25 0.999999 73386.7
-204.25 -172.25 0.999999 73045.3
-192 -167.25 0.999999 50858.7
-195.75 -154 0.999999 62464
8 -4.5 0.999999 87040
105.25 10.5 0.999999 87040
30 -56.75 0.999999 59050.7
18 -57.75 0.999999 65536
36.5 -99.25 0.999999 86357.3
41.25 -97.5 0.999999 86698.7
40.5 -91.25 0.999999 62464
40.75 -82.5 0.999999 77482.7
-164 -71.25 0.999999 82261.3
-165.5 -62.75 0.999999 74410.7
7.75 -101 0.999999 75776
23.75 66.75 0.999999 82944
-194 -148.5 0.999999 77824
41 61 0.999999 86357.3
33.75 67 0.999999 76117.3
133 -27.5 0.999999 42666.7
119.75 -23.5 0.999999 61781.3
119 -27 0.999999 75434.7
-197 4.5 0.999999 83968
-200.75 -11.25 0.999999 76458.7
-158.75 -23.75 0.999999 75093.3
-148.125 -14.375 0.999999 61440
-191 -54.75 0.999999 87040
44 19.25 0.999999 77141.3
80 -78 0.999999 87040
75.5 -77.75 0.999999 87040
-206.75 -188.25 0.999999 79872
-202 -182.5 0.999999 73728
27.25 116 0.999999 53589.3
75.25 -66.5 0.999999 86698.7
96 -57 0.999999 87040
96.75 -57.25 0.999999 86698.7
101.5 -50.75 0.999999 80896
143.25 67 0.999999 84992
37 -120.75 0.999999 67242.7
38.25 -123 0.999999 80213.3
55.5 -121.25 0.999999 73045.3
36.75 -116.25 0.999999 62122.7
96 118.25 0.999999 18773.3
83.25 120 0.999999 25941.3
24.5 -120.5 0.999999 52565.3
-189.5 -187.5 0.999999 76800
-184.5 -183 0.999999 80896
119.5 -20.25 0.999999 74752
32.25 -126.5 0.999999 73728
-146.5 -185.25 0.999999 74410.7
-154.5 -168 0.999999 80213.3
-156.25 -173.5 0.999999 78506.7
87.25 -57 0.999999 77141.3
41 165.25 0.999999 47445.3
-163.75 122.75 0.999999 86357.3
-161 115 0.999999 86016
-152.75 112.75 0.999999 80213.3
-149.5 -35.25 0.999999 82261.3
-139 -18.75 0.999999 72704
-134.875 -12.9583 0.999999 84992
50.75 -86 0.999999 80896
35.75 -62.5 0.999999 87040
-151.75 -86 0.999999 70997.3
-154 -81 0.999999 85674.7
-155.5 -73 0.999999 78165.3
-154.25 103 0.999999 87040
-154.5 100.75 0.999999 83626.7
-185.5 30.5 0.999999 74410.7
-193.5 26 0.999999 71680
-188 77.75 0.999999 87040
-190.25 80.5 0.999999 74752
-198 74.5 0.999999 85674.7
-191.5 73.75 0.999999 87040
-199.25 34.25 0.999999 85674.7
-191.25 41.25 0.999999 69290.7
-188.25 51.5 0.999999 86698.7
-142.75 -44.5 0.999999 79189.3
115.75 83 0.999999 85333.3
111 108.5 0.999999 23552
103.25 44.25 0.999999 87040
133.5 116 0.999999 21504
-136.5 38.25 0.999999 82602.7
-151 25 0.999999 55978.7
1.875 -107.125 0.999999 80896
110 9 0.999999 87040
113.75 9 0.999999 81920
107.5 29.5 0.999999 79872
107 30.75 0.999999 68949.3
114 38.75 0.999999 78848
114.5 -30.25 0.999999 79189.3
114.167 -12.7083 0.999999 86584.9
-204.5 -192.75 0.999999 83626.7
-189.75 -194.5 0.999999 84992
108.5 -2.25 0.999999 87040
-199 -88.5 0.999999 43690.7
118.5 -2.75 0.999999 86357.3
115.5 9.53674e-07 0.999999 84650.7
-185.5 -203.5 0.999999 81920
122.5 87.25 0.999999 54272
-137.5 57 0.999999 75776
-143 48.75 0.999999 75093.3
-58 90 0.999999 77141.3
-55 85.75 0.999999 80896
-187 -122.5 0.999999 87040
-184.5 -122 0.999999 87040
-179.75 -120.25 0.999999 77141.3
-189.75 89.25 0.999999 86357.3
-178 45.75 0.999999 57002.7
-172.25 58.5 0.999999 60416
-174 60.5 0.999999 77824
-182.5 52.25 0.999999 69290.7
-185.25 36.5 0.999999 75776
-188.25 37.75 0.999999 86016
-196.25 30 0.999999 82602.7
-168.25 -136.5 0.999999 83968
-176.25 -127.5 0.999999 74410.7
-181.25 -131.25 0.999999 85333.3
-187 -131.5 0.999999 75093.3
-135.75 71 0.999999 59733.3
-184 68.5 0.999999 87040
-182 74.75 0.999999 87040
-185 77.75 0.999999 87040
-174 63.25 0.999999 87040
-154.25 25.25 0.999999 67242.7
-175.25 43.25 0.999999 75434.7
-175 -182.75 0.999999 84309.3
-157 45 0.999999 80896
-161.25 52.75 0.999999 87040
-166.75 52.75 0.999999 78848
-139.5 76 0.999999 84309.3
-158.5 -132.5 0.999999 78848
-163 -120.25 0.999999 74410.7
-166 -113.75 0.999999 67925.3
-148.5 72.5 0.999999 87040
-150.75 -140 0.999999 82944
-151.75 -134.25 0.999999 67584
-160.75 -157.25 0.999999 65194.7
-146.25 -146.25 0.999999 80896
-155 -115 0.999999 81237.3
-144.5 -127.5 0.999999 75093.3
-147.75 -202.75 0.999999 83285.3
-141.25 -147.75 0.999999 56661.3
-144.5 71.75 0.999999 84309.3
5 769 55 54 121 164 160
8 769 781 782 783 743 82 56 55 161
3 743 783 744 389
6 783 782 864 860 745 744 390
4 864 855 854 860 842751
5 854 857 746 745 860 842750
11 743 744 745 746 747 20 19 49 48 83 82 162
7 747 824 575 579 830 21 20 174
7 824 825 826 827 800 576 575 188
5 800 801 802 577 576 187
4 577 802 815 578 185
4 801 814 815 802 186
8 815 814 877 822 823 87 86 578 842752
4 822 785 784 823 842754
4 784 785 786 787 842755
7 787 786 551 550 715 723 727 192
4 715 714 724 723 193
8 724 714 558 557 728 729 730 725 195
10 723 724 725 726 64 63 93 72 71 727 180
10 725 730 765 798 59 58 40 39 820 726 217
7 707 708 709 710 711 712 713 842773
6 730 729 762 763 764 765 218
8 765 764 780 796 797 741 740 798 220
5 740 741 742 567 566 221
4 742 799 568 567 304
7 568 799 833 834 831 338 343 302
4 834 706 705 831 262
4 338 831 705 339 301
8 705 706 699 690 695 628 340 339 265
6 340 628 629 27 34 37 299
4 27 629 848 28 285
4 848 618 29 28 284
10 29 618 619 620 621 622 623 624 44 30 282
7 618 848 629 628 695 694 619 283
5 45 44 624 869 625 281
9 741 797 755 754 773 772 833 799 742 842732
7 746 857 679 685 825 824 747 388
7 810 813 841 874 875 507 506 12
4 550 558 714 715 194
8 877 698 678 552 551 786 785 822 191
9 506 507 508 509 510 437 438 478 511 13
10 801 800 827 876 684 683 697 698 877 814 189
4 763 779 780 764 219
7 706 834 833 772 774 700 699 261
5 781 856 855 864 782 410
4 779 843 796 780 223
5 875 475 474 508 507 23
6 854 855 856 680 679 857 409
9 550 551 552 553 554 555 556 557 558 199
6 728 696 659 658 762 729 460
6 694 693 596 595 620 619 267
3 826 876 827 208
4 557 556 696 728 461
7 796 843 638 637 645 755 797 222
6 508 474 388 386 385 509 457
5 825 685 684 876 826 209
9 762 658 611 610 630 638 843 779 763 212
4 385 384 510 509 842710
6 624 623 668 631 632 869 275
4 699 700 691 690 264
4 697 675 678 698 190
4 774 692 691 700 263
4 556 555 659 696 197
7 683 682 845 849 676 675 697 207
10 690 691 692 529 528 541 633 693 694 695 256
4 595 594 621 620 842738
4 321 391 674 322 842761
7 679 680 681 682 683 684 685 210
7 675 676 677 639 553 552 678 200
5 309 243 245 674 391 842760
4 594 601 622 621 842739
10 296 322 674 245 244 172 173 182 212 260 317
4 645 644 754 755 842736
5 644 542 549 773 754 842735
7 622 601 600 587 586 668 623 274
7 555 554 643 608 611 658 659 211
7 772 773 549 525 529 692 774 842737
6 654 655 656 657 613 612 842767
7 244 232 202 110 111 120 172 459
6 637 563 543 542 644 645 225
7 553 639 640 641 642 643 554 198
6 630 534 533 563 637 638 226
4 631 589 588 632 276
5 610 535 530 534 630 227
5 12 11 626 627 593 406
5 95 183 73 72 93 175
8 849 868 651 647 646 748 677 676 206
6 608 609 536 535 610 611 230
4 591 590 602 603 842791
4 846 847 817 816 412
8 594 595 596 597 598 599 600 601 273
6 143 142 537 53 43 47 486
6 590 591 592 13 12 593 405
4 68 98 88 69 74
8 85 131 140 580 341 36 35 76 296
8 633 524 500 505 859 597 596 693 266
5 669 670 671 672 673 423
4 668 586 589 631 277
6 140 139 150 565 564 580 322
3 106 514 107 165
11 575 576 577 578 86 92 101 109 108 538 579 173
4 677 748 640 639 842756
4 541 523 524 633 385
4 681 844 845 682 842749
4 748 646 641 640 842757
10 542 543 544 545 546 547 548 526 525 549 456
8 612 613 614 615 616 617 570 569 25
6 528 527 502 501 523 541 387
4 586 587 588 589 278
6 816 817 818 660 667 819 443
5 46 23 26 440 439 842745
5 514 513 538 108 107 166
6 845 844 851 850 868 849 408
4 535 536 531 530 229
5 530 531 532 533 534 228
5 525 526 527 528 529 259
6 569 570 571 572 573 574 842776
7 51 50 512 513 514 106 105 164
8 642 650 766 767 768 609 608 643 237
9 533 532 559 560 561 562 544 543 563 231
4 523 501 500 524 386
7 646 647 648 649 650 642 641 205
8 199 198 128 127 143 47 46 439 481
7 609 768 821 559 532 531 536 236
6 500 501 502 503 504 505 270
4 505 504 858 859 842741
10 83 48 51 105 104 169 180 159 158 80 156
5 889 890 891 670 669 379
4 859 858 598 597 842740
4 564 342 341 580 305
5 66 65 820 39 38 178
4 868 850 652 651 203
5 651 652 653 648 647 202
3 591 603 592 842790
9 740 566 565 150 97 79 60 59 798 213
7 526 548 893 894 503 502 527 255
4 562 895 545 544 251
3 561 895 562 252
5 850 851 852 653 652 204
4 657 756 614 613 842706
4 585 584 701 839 842778
7 858 504 503 894 896 599 598 271
6 512 50 49 19 22 899 170
9 821 900 901 17 16 902 903 560 559 235
7 560 903 904 546 545 895 561 232
6 512 899 830 579 538 513 167
8 649 905 837 836 863 906 766 650 243
5 907 908 861 847 846 414
5 767 909 900 821 768 239
5 656 910 757 756 657 842766
5 653 852 905 649 648 244
6 766 906 911 912 909 767 238
7 343 342 564 565 566 567 568 303
3 40 58 41 214
3 913 908 907 415
4 655 795 910 656 842704
7 547 789 770 771 914 893 548 254
4 574 573 584 585 842777
4 65 64 726 820 179
4 893 914 896 894 272
8 847 861 862 749 751 788 818 817 413
4 909 912 901 900 240
9 654 791 792 793 794 776 775 795 655 35
5 902 15 18 904 903 233
4 617 803 571 570 26
3 16 15 902 234
11 904 18 9 5 0 3 853 790 789 547 546 250
5 713 712 883 884 838 4
6 906 863 626 11 10 911 242
6 912 911 10 14 17 901 241
8 756 757 758 759 760 761 615 614 33
5 616 842 804 803 617 27
4 22 21 830 899 168
6 838 839 701 704 707 713 5
3 835 836 837 842748
4 615 761 842 616 28
4 672 888 887 673 842717
4 889 929 928 890 377
5 884 883 927 928 929 378
5 819 667 666 689 832 442
7 832 689 688 930 931 932 933 441
5 757 910 795 775 758 842703
5 922 731 735 871 870 425
7 701 584 573 572 702 703 704 7
7 672 671 935 936 937 885 888 384
7 891 926 925 938 935 671 670 380
9 571 803 804 805 806 807 808 702 572 444
4 788 661 660 818 417
6 775 776 777 778 759 758 34
7 890 928 927 940 923 926 891 375
4 885 886 887 888 842716
4 788 751 662 661 418
5 791 919 920 921 792 842696
5 842 761 760 805 804 29
7 913 518 517 941 862 861 908 416
6 886 885 937 732 731 922 382
5 749 750 663 662 751 419
8 712 711 942 943 944 940 927 883 374
4 862 941 750 749 420
4 933 932 920 919 842695
5 936 716 722 732 937 383
7 759 778 828 829 806 805 760 445
5 938 717 716 936 935 381
8 660 661 662 663 664 665 666 667 468
6 666 665 686 687 688 689 467
4 932 931 921 920 842694
4 923 924 925 926 842715
8 921 931 930 946 947 948 793 792 56
4 940 944 924 923 842714
9 704 703 809 810 506 511 811 708 707 6
7 731 732 722 721 733 734 735 450
8 517 516 865 867 664 663 750 941 392
6 702 808 840 812 809 703 10
7 716 717 718 719 720 721 722 451
8 924 944 943 949 718 717 938 925 369
5 836 835 627 626 863 842747
4 515 516 517 518 421
5 806 829 892 873 807 31
6 687 950 951 946 930 688 91
9 776 794 607 606 491 492 582 878 777 55
6 777 878 879 880 828 778 446
6 664 867 866 952 686 665 394
5 686 952 953 950 687 92
6 948 954 604 607 794 793 89
6 840 808 807 873 874 841 9
3 709 939 710 842771
5 734 881 872 871 735 448
3 947 954 948 90
7 828 880 583 490 489 892 829 37
4 812 813 810 809 842709
5 708 811 898 939 709 842712
7 711 710 939 898 897 916 942 842772
4 813 812 840 841 842708
4 721 720 882 733 842718
6 870 871 872 634 522 521 842727
7 946 951 955 605 604 954 947 458
6 515 956 481 483 865 516 154
8 952 866 499 498 496 497 957 953 150
6 943 942 916 915 958 949 453
4 733 882 881 734 842719
8 865 483 482 486 495 499 866 867 153
4 879 581 583 880 842698
8 949 958 945 471 470 488 719 718 370
6 604 605 493 494 606 607 88
9 720 719 488 487 635 634 872 881 882 449
4 878 582 581 879 842697
8 951 950 953 957 461 465 480 955 93
7 511 478 479 484 897 898 811 14
9 874 873 892 489 441 444 451 475 875 41
4 956 472 473 481 397
7 955 480 445 446 459 493 605 96
9 581 582 492 424 421 422 430 490 583 39
8 915 477 457 456 469 934 945 958 323
6 897 484 476 477 915 916 15
6 634 635 636 539 519 522 842722
4 497 462 461 957 842693
5 494 458 460 491 606 97
6 499 495 485 466 467 498 151
5 498 467 464 463 496 105
4 496 463 462 497 842692
4 934 468 471 945 842720
6 487 435 434 453 636 635 372
3 486 485 495 152
4 493 459 458 494 98
3 934 469 468 842721
5 491 460 423 424 492 58
7 489 490 430 397 398 442 441 40
6 470 436 433 435 487 488 325
6 482 454 455 466 485 486 155
5 479 426 429 476 484 18
6 519 520 447 449 521 522 842723
8 481 473 410 382 383 454 482 483 145
8 465 432 425 420 416 419 445 480 95
5 478 438 427 426 479 19
5 476 429 428 457 477 16
6 451 450 389 388 474 475 43
4 519 539 540 520 842724
4 472 411 410 473 396
10 468 469 456 413 396 395 409 436 470 471 331
7 466 455 414 415 431 464 467 128
7 461 462 463 464 431 432 465 842691
7 458 459 446 370 371 423 460 87
5 539 636 453 452 540 842725
7 428 361 362 394 413 456 457 332
7 454 383 364 365 372 414 455 129
5 540 452 448 447 520 842726
7 434 378 367 366 448 452 453 348
4 444 443 450 451 842769
8 445 419 418 346 325 326 370 446 99
4 441 442 443 444 842770
4 510 384 387 437 842711
6 437 387 334 335 427 438 20
5 436 409 408 412 433 326
8 433 412 405 404 373 378 434 435 327
5 447 448 366 369 449 432
8 431 415 399 401 402 403 425 432 103
6 422 392 381 380 397 430 60
9 426 427 335 330 333 348 361 428 429 17
7 425 403 344 346 418 417 420 102
8 423 371 351 352 360 363 421 424 59
8 421 363 319 318 336 379 392 422 86
3 420 417 416 101
4 416 417 418 419 100
7 414 372 329 323 324 399 415 132
4 394 393 396 413 333
6 408 407 376 375 405 412 329
5 305 306 382 410 411 146
6 442 398 390 389 450 443 440
7 395 357 358 406 407 408 409 472
4 405 375 374 404 842765
3 404 374 373 842764
3 401 400 402 106
5 402 400 345 344 403 107
7 399 324 310 311 345 400 401 108
7 397 380 337 308 307 390 398 63
6 393 353 356 357 395 396 334
9 362 347 350 298 302 354 353 393 394 470
3 392 379 381 61
9 388 389 390 307 309 391 321 320 386 45
8 384 385 386 320 295 297 334 387 46
7 382 306 290 291 328 364 383 136
5 379 336 337 380 381 62
12 373 374 375 376 377 285 284 293 304 313 367 378 350
4 365 327 329 372 131
10 370 326 312 280 265 235 239 317 351 371 83
6 366 367 313 314 368 369 349
4 364 328 327 365 130
4 360 315 319 363 842700
4 361 348 347 362 338
4 407 406 377 376 355
4 352 316 315 360 842699
4 357 356 355 358 473
4 353 354 355 356 474
4 351 317 316 352 85
6 347 348 333 332 349 350 339
7 344 345 311 253 254 325 346 109
8 338 339 340 37 36 341 342 343 300
8 336 318 248 246 247 264 308 337 64
7 334 297 286 287 294 330 335 343
8 330 294 270 273 299 331 332 333 342
8 355 354 302 281 285 377 406 358 354
7 327 328 291 289 288 323 329 133
7 325 254 249 250 267 312 326 113
7 323 288 242 241 251 310 324 127
5 349 331 299 298 350 842779
5 320 321 322 296 295 47
3 332 331 349 842780
8 315 316 317 239 238 248 318 319 65
8 313 304 303 269 268 255 258 314 365
4 368 314 258 257 439
6 310 251 221 222 253 311 110
7 307 308 264 231 230 243 309 49
5 305 233 234 290 306 147
4 293 292 303 304 351
9 298 299 273 272 300 301 282 281 302 471
6 295 296 260 259 286 297 316
4 287 271 270 294 344
5 284 274 279 292 293 352
8 290 234 225 224 229 252 289 291 135
5 288 289 252 240 242 134
5 286 259 263 271 287 345
7 281 282 283 275 274 284 285 353
4 267 266 280 312 842702
3 280 266 265 842701
6 303 292 279 227 226 269 367
3 268 256 255 842729
8 270 271 263 262 205 204 272 273 346
5 226 228 256 268 269 842728
4 301 917 283 282 356
6 250 236 235 265 266 267 114
6 247 220 213 215 231 264 50
10 259 260 212 179 152 151 177 261 262 263 310
7 255 256 228 197 201 257 258 475
4 300 918 917 301 357
8 253 222 193 192 209 237 249 254 111
9 274 275 276 277 278 191 190 227 279 364
5 229 216 217 240 252 138
6 241 211 207 208 221 251 126
4 249 237 236 250 115
9 238 196 156 155 188 218 219 246 248 66
7 246 219 186 185 214 220 247 68
5 243 230 232 244 245 52
5 272 204 206 918 300 358
6 240 217 210 211 241 242 139
11 235 236 237 209 170 145 147 174 196 238 239 82
4 233 223 225 234 148
6 230 231 215 203 202 232 51
6 224 195 166 165 216 229 137
9 226 227 190 144 129 128 198 197 228 488
5 223 194 195 224 225 149
8 221 208 163 157 160 181 193 222 842763
3 220 214 213 69
4 218 187 186 219 842759
7 216 165 149 148 171 210 217 140
6 213 214 185 184 203 215 70
3 188 187 218 842758
8 283 917 918 206 134 133 276 275 359
4 182 178 179 212 312
7 210 171 124 123 176 207 211 125
4 192 168 170 209 116
6 207 176 175 161 163 208 122
6 204 205 135 130 134 206 307
7 202 203 184 183 95 94 110 54
5 261 136 135 205 262 842734
5 197 198 199 200 201 487
4 196 174 154 156 81
4 194 167 166 195 842775
6 181 180 169 168 192 193 117
3 278 189 191 436
5 189 141 144 190 191 437
10 73 183 184 185 186 187 188 155 113 74 71
6 173 119 118 153 178 182 318
4 160 159 180 181 842792
4 178 153 152 179 311
4 151 138 137 177 309
4 177 137 136 261 842733
5 276 133 132 359 277 360
3 175 162 161 123
5 123 122 162 175 176 124
4 174 147 146 154 80
4 172 120 119 173 319
4 148 125 124 171 141
7 168 169 104 103 112 145 170 171
7 277 359 114 117 141 189 278 362
7 164 121 126 149 165 166 167 144
8 161 162 122 81 80 158 157 163 157
4 157 158 159 160 120
8 154 146 90 89 99 113 155 156 76
9 97 150 139 138 151 152 153 118 96 313
4 148 149 126 125 142
7 145 112 102 91 90 146 147 77
8 141 117 116 142 143 127 129 144 484
8 131 130 135 136 137 138 139 140 306
8 130 131 85 84 100 132 133 134 295
3 127 128 129 482
9 121 54 57 81 122 123 124 125 126 143
8 111 62 61 78 96 118 119 120 320
9 53 537 115 114 359 132 100 77 52 361
4 114 115 116 117 842730
4 439 440 200 199 433
5 74 113 99 98 68 72
5 109 101 102 112 103 78
4 537 142 116 115 842731
8 110 94 67 66 38 42 62 111 321
7 103 104 105 106 107 108 109 172
4 101 92 91 102 79
4 75 77 100 84 293
4 89 88 98 99 73
4 96 78 79 97 314
5 93 63 67 94 95 176
9 86 87 70 69 88 89 90 91 92 75
4 76 75 84 85 294
6 80 81 57 56 82 83 158
4 78 61 60 79 315
7 75 76 35 33 32 52 77 298
7 68 69 70 71 72 73 74 181
5 63 64 65 66 67 177
7 42 41 58 59 60 61 62 215
4 54 55 56 57 159
5 52 32 31 43 53 291
4 48 49 50 51 163
9 43 31 30 44 45 24 23 46 47 286
5 38 39 40 41 42 216
5 34 33 35 36 37 297
7 823 784 787 727 71 70 87 842753
8 27 28 29 30 31 32 33 34 292
4 23 24 25 26 842744
4 625 25 24 45 842743
4 19 20 21 22 169
7 15 16 17 14 6 9 18 245
4 789 790 739 770 401
4 770 739 738 771 400
7 10 11 12 13 7 6 14 246
6 6 7 8 4 5 9 247
4 790 853 736 739 403
4 736 737 738 739 402
4 4 1 0 5 248
4 0 1 2 3 249
6 3 2 753 737 736 853 842746
7 13 592 603 602 752 8 7 404
6 4 8 752 753 2 1 399
