ply
format ascii 1.0
comment Exported from MorphoGraphX 2.0 1-254
comment Cellular mesh
element vertex 963
property float x
property float y
property float z
property float signal
element face 481
property list int int vertex_index
property int label
end_header
-18.75 -68.25 0.999999 65877.3
-16.25 -67.5 0.999999 82261.3
-17.5 -60 0.999999 81237.3
-23 -64.5 0.999999 78506.7
-29.25 117 0.999999 55637.3
-28.5 117 0.999999 43690.7
-22.25 130.25 0.999999 32426.7
-22.25 130.5 0.999999 31402.7
-33.5 124.5 0.999999 46762.7
-32.25 70 0.999999 79530.7
-18.25 75.5 0.999999 71680
-17.75 82 0.999999 66218.7
-20.75 84.5 0.999999 49493.3
-24.5 95.75 0.999999 56661.3
-30 96.75 0.999999 86698.7
-33.5 90.75 0.999999 87040
-37.25 81.25 0.999999 83626.7
-28.75 135.25 0.999999 36181.3
-31.75 138.5 0.999999 25600
-37.75 133.5 0.999999 50517.3
-37.25 124.75 0.999999 79530.7
-22 130.5 0.999999 36522.7
-21.5 135.25 0.999999 50858.7
-39 132 0.999999 25258.7
-36.25 -96 0.999999 81237.3
-27 -93.25 0.999999 87040
-24 -82.5 0.999999 87040
-19.75 -79.5 0.999999 83968
-21.25 -75.25 0.999999 71680
-33.75 -76.5 0.999999 78506.7
-40.75 -86.5 0.999999 65877.3
-38.5 -74.25 0.999999 86357.3
-29.75 -57.75 0.999999 80213.3
-39.25 -59.75 0.999999 86357.3
-42.5 -70.75 0.999999 75093.3
-41 -132.75 0.999999 86016
-28.25 -129 0.999999 69632
-34 -123.75 0.999999 81578.7
-43 -127.5 0.999999 86357.3
-42.75 -168.75 0.999999 70314.7
-40.25 -172.5 0.999999 83968
-28.5 -167.25 0.999999 71338.7
-29.75 -165.75 0.999999 61440
-42 -111.75 0.999999 75093.3
-34 -116 0.999999 57685.3
-19.25 -108.5 0.999999 82261.3
-25 -94.5 0.999999 87040
-43.75 -103 0.999999 82602.7
-33 -160.5 0.999999 77482.7
-43.75 -164.25 0.999999 72362.7
-35.25 -154.25 0.999999 78848
-33.5 -148.75 0.999999 75776
-35 -147.5 0.999999 67925.3
-45 -151.75 0.999999 57002.7
-45 -153 0.999999 54613.3
-45.5 -85.75 0.999999 83626.7
-39.25 -143.25 0.999999 60757.3
-39.5 37.5 0.999999 81578.7
-28.25 51 0.999999 80554.7
-35 55.5 0.999999 84650.7
-47.75 46 0.999999 68266.7
-45.5 20.25 0.999999 86357.3
-40.25 24 0.999999 87040
-42.25 29.5 0.999999 86357.3
-47.25 30 0.999999 84650.7
-34.25 -117.5 0.999999 63146.7
-48.25 -123 0.999999 61098.7
-41 121 0.999999 87040
-49.5 126.75 0.999999 86698.7
-49 123.25 0.999999 87040
-49.75 -116.25 0.999999 71338.7
-50.5 -121 0.999999 68949.3
-48.75 -197.5 0.999999 79872
-20.75 -180.75 0.999999 58026.7
-41 -185 0.999999 87040
-51 -188 0.999999 80896
-51.75 -75.25 0.999999 82602.7
-46.5 148.75 0.999999 22186.7
-33 152.25 0.999999 31061.3
-27.5 157.75 0.999999 26624
-32 173 0.999999 48810.7
-53 157.5 0.999999 15018.7
-53.75 69.25 0.999999 84309.3
-49 59.75 0.999999 78506.7
-38 60.75 0.999999 73728
-48.75 79 0.999999 85674.7
-51.25 -153.25 0.999999 83968
-42.5 -136.25 0.999999 86357.3
-49.5 -137 0.999999 77824
-54.25 -103.25 0.999999 62464
-54.25 -164.5 0.999999 83626.7
-56 -158 0.999999 84309.3
-48.5 15.75 0.999999 84992
-57 24.5 0.999999 66218.7
-58.75 -32 0.999999 86016
-53 -41 0.999999 86357.3
-48.75 -41.25 0.999999 87040
-45.5 -36 0.999999 81920
-52.5 -29.5 0.999999 83968
-58.5 -31 0.999999 81578.7
-58 -173.75 0.999999 86357.3
-43.25 -177 0.999999 84650.7
-59 -168.5 0.999999 84650.7
-57.25 -58.5 0.999999 79872
-45.5 -51.5 0.999999 78506.7
-48 -47.75 0.999999 84992
-59.75 -55.25 0.999999 80554.7
-59.75 -41.5 0.999999 84650.7
-57.75 -133.75 0.999999 80213.3
-61 -123 0.999999 80896
-57.5 -199.25 0.999999 87040
-61.5 -187.5 0.999999 85333.3
-61.75 -188.25 0.999999 84992
-62.5 131.5 0.999999 87040
-57.75 127.75 0.999999 87040
-62.75 138.25 0.999999 74410.7
-64.25 -176.75 0.999999 82261.3
-64.75 -200.25 0.999999 84992
-67.25 -192 0.999999 84650.7
-67 -91.25 0.999999 70997.3
-61.75 -97.25 0.999999 83968
-60.5 -101.25 0.999999 59733.3
-59 -73.75 0.999999 77141.3
-67.75 -83.25 0.999999 83626.7
-67.75 -166.25 0.999999 87040
-64.5 -156.5 0.999999 82261.3
-68.25 -163.75 0.999999 86698.7
-66.75 -54.5 0.999999 87040
-68.5 -43.5 0.999999 83626.7
-44 -56.25 0.999999 74069.3
-70.25 -58.25 0.999999 87040
-68.5 -108 0.999999 75434.7
-69.75 -106.5 0.999999 80554.7
-70 -141.75 0.999999 80896
-69.5 -174.25 0.999999 74752
-68 -121.25 0.999999 75434.7
-71 -114 0.999999 64853.3
-72.75 36 0.999999 59733.3
-65.25 26 0.999999 63488
-50.75 49.5 0.999999 32426.7
-53 52.5 0.999999 62464
-69.75 43 0.999999 71680
-64.5 -27.5 0.999999 83626.7
-73 -35.5 0.999999 83968
-71 -93.5 0.999999 61440
-70.75 -99.75 0.999999 48810.7
-73.25 -103.5 0.999999 51541.3
-70 141.75 0.999999 79530.7
-63.5 138.5 0.999999 69973.3
-70.75 152.5 0.999999 70997.3
-73.5 146.5 0.999999 84992
-75 130.5 0.999999 63488
-75 129.5 0.999999 73386.7
-74.75 53.25 0.999999 79530.7
-72.75 48 0.999999 85333.3
-62 66.25 0.999999 84309.3
-73.25 57.75 0.999999 77141.3
-69.25 110.5 0.999999 86698.7
-55.25 99 0.999999 87040
-47.25 100 0.999999 87040
-41.25 111.25 0.999999 79530.7
-44.75 116.5 0.999999 83626.7
-70.75 117 0.999999 81578.7
-79.25 -95.25 0.999999 55637.3
-77.75 87.5 0.999999 87040
-73.5 86 0.999999 87040
-58.25 91.75 0.999999 79189.3
-81 107.75 0.999999 78506.7
-82.5 101.5 0.999999 87040
-80.5 35.25 0.999999 66901.3
-82.75 40.5 0.999999 82261.3
-82.75 -165 0.999999 79872
-79.25 -174.5 0.999999 83968
-72.75 -191 0.999999 86357.3
-82.75 -179.5 0.999999 87040
-76 119.25 0.999999 87040
-85.25 112.75 0.999999 86698.7
-85 45.5 0.999999 63829.3
-78.75 122.75 0.999999 87040
-84.75 122.25 0.999999 85674.7
-87 70.75 0.999999 84309.3
-82.5 64.75 0.999999 85674.7
-68.75 75.25 0.999999 86016
-71.75 79 0.999999 62122.7
-86.25 77.75 0.999999 85333.3
-84.5 -206 0.999999 86698.7
-85.75 -193.75 0.999999 86016
143 51.75 0.999999 80213.3
155.75 50 0.999999 83968
156.25 54.25 0.999999 58026.7
146.25 57 0.999999 75093.3
155.75 46.25 0.999999 81578.7
142.5 51.25 0.999999 70656
-81.5 -143 0.999999 83626.7
-87.5 -133.25 0.999999 82261.3
-80.5 -96.25 0.999999 40618.7
-88.75 130 0.999999 86698.7
-84.5 141.75 0.999999 87040
-89 -68.5 0.999999 57685.3
-87 -71.75 0.999999 57002.7
-82.5 -79.5 0.999999 77141.3
-89.25 -62.25 0.999999 87040
-90.75 -65 0.999999 80213.3
-89 -113 0.999999 66901.3
-93.75 -103.25 0.999999 58709.3
-91.25 -163 0.999999 85333.3
-93.5 -153.75 0.999999 79189.3
-92.5 46.5 0.999999 71680
-83.5 63.75 0.999999 87040
-89.75 58.75 0.999999 74069.3
-95 52.75 0.999999 63829.3
-93 -173.5 0.999999 87040
-90.25 -178 0.999999 86698.7
-94.5 -168.25 0.999999 80554.7
-95 -54.25 0.999999 85333.3
-80.75 -36.25 0.999999 75776
-96.5 -46.25 0.999999 82602.7
-91.25 30 0.999999 85674.7
-85.5 29 0.999999 80554.7
-97.5 40.5 0.999999 49493.3
-98.5 -129 0.999999 66560
-93.75 -134.25 0.999999 72021.3
-99 -120.75 0.999999 63829.3
-100.25 65.25 0.999999 87040
-97.75 53.75 0.999999 77482.7
-92.5 63.75 0.999999 87040
-93.25 66.25 0.999999 84650.7
-100.5 75.25 0.999999 77482.7
-91.25 80.25 0.999999 87040
-92.25 81.75 0.999999 81237.3
-101.25 80 0.999999 84992
-97.25 -84.5 0.999999 84309.3
-100 -77.75 0.999999 72021.3
-101.75 84.25 0.999999 86698.7
-94.75 87 0.999999 83285.3
-33.25 110 0.999999 85674.7
-101.75 -74.25 0.999999 65194.7
-103.25 58.75 0.999999 70997.3
-102.75 64.5 0.999999 83968
-103 -69.25 0.999999 70656
-99.5 -182.25 0.999999 82944
-102.75 -176.5 0.999999 87040
-100.75 -101 0.999999 68608
-103.75 -91 0.999999 71680
-104.75 141 0.999999 87040
-99 129.5 0.999999 87040
-89.25 146.25 0.999999 87040
-97.75 147.25 0.999999 87040
-98.5 -55.5 0.999999 87040
-104 -47 0.999999 80896
-104.5 -50 0.999999 86357.3
-104.5 -172.5 0.999999 84309.3
-100.25 -196.25 0.999999 86698.7
-104.5 -187.75 0.999999 87040
-105.25 118.75 0.999999 76800
-100.75 114.5 0.999999 70997.3
-101 110.75 0.999999 79189.3
-98.75 106.25 0.999999 87040
-89.25 101 0.999999 83968
-106.25 122.25 0.999999 87040
-104.25 -56.5 0.999999 85333.3
-105.25 72.75 0.999999 87040
-108.25 69.75 0.999999 81920
-108.75 -44.25 0.999999 86016
-88.25 -25.5 0.999999 82602.7
-97.5 -25.25 0.999999 80896
-107.75 -33.25 0.999999 76800
-105.75 -154 0.999999 77824
-94.75 -135.75 0.999999 70314.7
-107.5 -144.5 0.999999 61440
-105 85.25 0.999999 87040
-109.5 81.5 0.999999 87040
-109.75 -139.5 0.999999 73045.3
-110.5 114 0.999999 65194.7
-110.75 109.75 0.999999 78848
-110.5 -137.75 0.999999 69973.3
-93 90.5 0.999999 87040
-103.25 101.25 0.999999 87040
-108.25 99.25 0.999999 86357.3
-111.5 95.25 0.999999 77824
-109.25 -200.75 0.999999 85333.3
-111.75 -206.5 0.999999 83626.7
10 -113.75 0.999999 86016
15.3333 -106.542 0.999999 76344.9
8.75 -101.5 0.999999 60416
9 -113 0.999999 81578.7
-113 77 0.999999 82261.3
-113.5 108 0.999999 86016
-110.5 -171.75 0.999999 81920
-114.25 -158.5 0.999999 46080
-115.75 -122.25 0.999999 82944
-107.75 -125.25 0.999999 84992
-104.75 -120.25 0.999999 54272
-115.75 -120.5 0.999999 58026.7
-115.5 -127.5 0.999999 63488
-2.5 127.5 0.999999 31061.3
4.25 123.75 0.999999 39936
13.875 129.875 0.999999 38229.3
15 141 0.999999 31061.3
11 150.75 0.999999 25600
6 153 0.999999 19114.7
4 154 0.999999 26282.7
-3 150 0.999999 33450.7
-7.25 141.75 0.999999 41984
-114.5 -69.25 0.999999 83285.3
-116.25 -61.5 0.999999 74410.7
-10.4583 112.333 0.999999 86243.6
2 112.5 0.999999 75434.7
-11 114.5 0.999999 73728
-114 -89.25 0.999999 65194.7
-118.25 -74.75 0.999999 65536
-116.75 -136.75 0.999999 65536
-117.5 41.75 0.999999 82944
-112 37.25 0.999999 40277.3
-117.5 51.25 0.999999 60074.7
-119.5 44.75 0.999999 52565.3
-120 -54.5 0.999999 73386.7
-117.75 -155.25 0.999999 87040
-119.5 -140.75 0.999999 82944
-119.25 108 0.999999 87040
-118 120.75 0.999999 85674.7
-121.25 113 0.999999 87040
-117.25 95.25 0.999999 81578.7
-115.75 18.5 0.999999 60757.3
-105.75 16.5 0.999999 50176
-120.75 25.5 0.999999 72362.7
-120.75 -118 0.999999 68608
-121 -111.5 0.999999 49834.7
-119.75 138 0.999999 73045.3
-117.75 135 0.999999 58026.7
-121.5 144.25 0.999999 74410.7
-121 -28.5 0.999999 46762.7
-111 -23 0.999999 50858.7
-111 -22.75 0.999999 47445.3
-111.25 -19.5 0.999999 74410.7
-122.75 -25 0.999999 36864
-121.75 130.75 0.999999 57685.3
-124 127.75 0.999999 82602.7
142.25 33.5 0.999999 79189.3
153 36.25 0.999999 76117.3
158 40.5 0.999999 86698.7
133.25 46.5 0.999999 75434.7
-123 -185 0.999999 74069.3
-124 -177 0.999999 73045.3
-123.5 70.5 0.999999 82602.7
-126 58.5 0.999999 72704
-127.75 -102.75 0.999999 58709.3
-127.25 -107.5 0.999999 43349.3
-126.25 -97 0.999999 54272
-127.75 -141.75 0.999999 59050.7
-126.25 -146 0.999999 44373.3
-125.75 -151 0.999999 51541.3
-121 -155.75 0.999999 83968
-126 -139.75 0.999999 74752
-128.5 83.25 0.999999 75093.3
-126 73 0.999999 82261.3
-128.5 87.5 0.999999 87040
-129.25 85 0.999999 74410.7
-128 -173.25 0.999999 75776
-128.75 -167 0.999999 74069.3
-37.25 58 0.999999 62122.7
-127.75 -208 0.999999 83285.3
-126 -196.5 0.999999 75093.3
-128.75 23.75 0.999999 82944
-130 34.25 0.999999 87040
-127 44.5 0.999999 79189.3
-130.5 56.25 0.999999 87040
-129.5 -126.75 0.999999 50517.3
-129.75 -194.75 0.999999 77482.7
-129.5 -186 0.999999 81237.3
-131.25 -188 0.999999 81237.3
-132 38.25 0.999999 48469.3
-130.25 -174.25 0.999999 86016
-134.25 -178.75 0.999999 86016
-134.5 106.5 0.999999 61098.7
-135.5 100.75 0.999999 81578.7
-135.75 -44.75 0.999999 78165.3
-131.25 -54.75 0.999999 67242.7
-111.25 -30.75 0.999999 79530.7
-119 -32.5 0.999999 69632
-134.5 -93.25 0.999999 61440
-135.75 -81.25 0.999999 81578.7
-134.75 -110.25 0.999999 65536
-137.75 -105.25 0.999999 52565.3
-138.5 -174.25 0.999999 84992
-138.75 -155 0.999999 76800
-139.5 -152 0.999999 68949.3
-136.75 -165.75 0.999999 81920
-139.75 -169.75 0.999999 80554.7
-58 90 0.999999 77141.3
-141.25 -147.75 0.999999 56661.3
-141.5 -99.75 0.999999 49493.3
-136.5 38.25 0.999999 82602.7
-137.5 57 0.999999 75776
-143 48.75 0.999999 75093.3
-135.75 71 0.999999 59733.3
-139.5 76 0.999999 84309.3
-144.5 71.75 0.999999 84309.3
-142.5 -76.5 0.999999 71338.7
-141.25 -79.25 0.999999 65877.3
-144.25 -70 0.999999 70997.3
-144.5 -127.5 0.999999 75093.3
-147 -115.75 0.999999 60416
-147.75 -202.75 0.999999 83285.3
-151.75 -134.25 0.999999 67584
-150.75 -140 0.999999 82944
-146.25 -146.25 0.999999 80896
-151.75 -86 0.999999 70997.3
-154 -81 0.999999 85674.7
-154.25 97.25 0.999999 83626.7
-149 91.5 0.999999 83285.3
-137.25 117.75 0.999999 64170.7
-141.75 125 0.999999 85333.3
-152.75 112.75 0.999999 80213.3
-154.25 103 0.999999 87040
-154.5 100.75 0.999999 83626.7
-152.75 -113.25 0.999999 70314.7
-154.5 -106 0.999999 57002.7
-148.5 72.5 0.999999 87040
-156.25 82.25 0.999999 82261.3
-146.5 -185.25 0.999999 74410.7
-154.5 -168 0.999999 80213.3
-156.25 -173.5 0.999999 78506.7
159.5 8.75 0.999999 43690.7
165.5 22.25 0.999999 57002.7
157.25 20.5 0.999999 86016
-161.25 52.75 0.999999 87040
-157 45 0.999999 80896
-160.75 -157.25 0.999999 65194.7
-159.75 -201.75 0.999999 77141.3
-160 -191.75 0.999999 83626.7
-158.5 -132.5 0.999999 78848
-155 -115 0.999999 81237.3
-163 -120.25 0.999999 74410.7
-165.75 31.5 0.999999 87040
-163.75 29.5 0.999999 64853.3
-154.25 25.25 0.999999 67242.7
-151 25 0.999999 55978.7
-164 -71.25 0.999999 82261.3
-155.5 -73 0.999999 78165.3
-142.75 -44.5 0.999999 79189.3
-165.5 -62.75 0.999999 74410.7
-166 -113.75 0.999999 67925.3
131.25 5 0.999999 79872
138.5 9.53674e-07 0.999999 87040
145 4.25 0.999999 78848
155.25 22 0.999999 87040
134.75 23.5 0.999999 87040
-164.5 101.75 0.999999 82944
-161 115 0.999999 86016
-168.25 107 0.999999 86357.3
-166 -105 0.999999 62805.3
-168 -110 0.999999 72021.3
-166 16.5 0.999999 67584
-166.75 -156.5 0.999999 81578.7
-169 -149.75 0.999999 85674.7
-19.75 118.25 0.999999 31402.7
-22 130.25 0.999999 33109.3
-161.5 -174 0.999999 85333.3
-169.25 -161 0.999999 70314.7
-167.5 -90 0.999999 73728
-171 -82 0.999999 69632
-170.75 -97.75 0.999999 61098.7
-168.25 -136.5 0.999999 83968
-171.25 -146.25 0.999999 85333.3
-173.25 -52.75 0.999999 84650.7
-149.5 -35.25 0.999999 82261.3
-160.5 -40.75 0.999999 77482.7
-170.25 -188.75 0.999999 79872
-173.5 -193 0.999999 82944
-174.75 78 0.999999 85333.3
-169 73.25 0.999999 84309.3
-162.75 94.5 0.999999 66901.3
-172.75 89 0.999999 86016
-172 -174.25 0.999999 84992
-174.5 -179.5 0.999999 87040
-175 -182.75 0.999999 84309.3
-177.25 94.75 0.999999 86016
-175.25 90.75 0.999999 86357.3
-164.25 100.25 0.999999 60416
15.75 166 0.999999 42325.3
12 168.25 0.999999 54954.7
-4.5 -1.5 0.999999 86016
6 -0.5 0.999999 87040
7.5 3.5 0.999999 87040
-2 7.5 0.999999 86357.3
-5.875 1.625 0.999999 85674.7
7.75 -101 0.999999 75776
1.875 -107.125 0.999999 80896
0.125001 -13.375 0.999999 86698.7
7.5 -15 0.999999 82261.3
10.625 -8.95833 0.999999 83512.9
8 -4.5 0.999999 87040
7.75 11 0.999999 86698.7
-10 -163.25 0.999999 87040
-8 -157.75 0.999999 87040
-11.5 -148.5 0.999999 87040
-16 -146 0.999999 87040
-4.5 -173.5 0.999999 85674.7
66.75 8 0.999999 87040
74.5 8 0.999999 87040
74.5 13.5 0.999999 87040
73 17.75 0.999999 87040
63.5 13.75 0.999999 80213.3
-45.5 -19.5 0.999999 75093.3
-30.75 -37 0.999999 76800
-22.5 -26.5 0.999999 87040
-21.25 -21 0.999999 75093.3
-27.5 -12 0.999999 84650.7
65.75 160 0.999999 23893.3
71.25 162.25 0.999999 21845.3
73.75 164.5 0.999999 26624
59.25 168.75 0.999999 34816
61.5 -30.75 0.999999 83626.7
67 -33.75 0.999999 72704
68 -33.5 0.999999 63829.3
77.25 -30.5 0.999999 52224
80.75 -22.25 0.999999 87040
76 -15.25 0.999999 87040
59.75 -18 0.999999 87040
79 21 0.999999 86698.7
74.75 29.75 0.999999 84992
62.25 28.75 0.999999 82602.7
58.25 22.75 0.999999 87040
-203.75 -105.75 0.999999 74752
-201.75 -98.75 0.999999 46421.3
-204.5 -90 0.999999 25600
-207 -86.5 0.999999 31061.3
-205.5 -76.75 0.999999 72704
-210 -73.5 0.999999 70997.3
-13.75 -17.75 0.999999 78848
-8 -8.25 0.999999 86698.7
-13.25 6.75 0.999999 86357.3
-23.5 4 0.999999 80213.3
-65.25 -19.75 0.999999 80896
-51.75 -11.5 0.999999 81920
-13.4583 -89.6667 0.999999 86926.2
-14 -87 0.999999 87040
-59.5 -2.5 0.999999 82944
-32 11 0.999999 83968
-40.5 7.5 0.999999 80896
87.25 -49.75 0.999999 87040
93.25 -50.25 0.999999 86357.3
100 -48 0.999999 86016
98.75 -39.75 0.999999 86698.7
87 -40.75 0.999999 86357.3
56.6667 -15.4583 0.999999 80327.1
77 -8 0.999999 82261.3
64.3333 4.29167 0.999999 87040
55.5 9.53674e-07 0.999999 84992
55 -6.5 0.999999 86357.3
-182.75 -164 0.999999 67242.7
-179.75 -167.75 0.999999 43349.3
-178.5 -169.75 0.999999 58026.7
-177.5 -160 0.999999 87040
-182.5 -161 0.999999 76458.7
-68.5417 -14.8333 0.999999 76913.8
-60 -2.5 0.999999 67925.3
53.75 138.75 0.999999 34474.7
63.75 135.5 0.999999 30378.7
92 144.5 0.999999 41301.3
82 158.25 0.999999 24917.3
75 154.25 0.999999 33450.7
67.75 155.25 0.999999 19456
56.75 151.25 0.999999 47104
-22.75 27.75 0.999999 84309.3
-17.75 19.75 0.999999 85333.3
-7 27.5 0.999999 85333.3
-9.16667 34.7917 0.999999 87040
56.5 -55 0.999999 84992
63.25 -56.5 0.999999 87040
74.5 -47 0.999999 73045.3
55.5 -36.25 0.999999 87040
50.75 -46.5 0.999999 69973.3
-126.875 2.625 0.999999 85674.7
-121 -6.25 0.999999 73386.7
-105.542 -8.125 0.999999 85333.3
-98.625 3.45833 0.999999 80554.7
-103.75 8.25 0.999999 67242.7
-120.25 9 0.999999 55296
-82 -8 0.999999 76117.3
-79.25 -11.25 0.999999 53930.7
-62.875 -1.375 0.999999 60416
-68 3.5 0.999999 81578.7
-10.25 15.5 0.999999 83285.3
-4 21.5 0.999999 80213.3
55 -104 0.999999 82602.7
63.5 -103 0.999999 84650.7
72.75 -91 0.999999 87040
70 -83 0.999999 86357.3
63.75 -80 0.999999 86357.3
52.25 -87 0.999999 84309.3
50 -98.25 0.999999 76800
-182.25 -147.75 0.999999 86357.3
52.5 88.75 0.999999 61098.7
59 81 0.999999 60757.3
60 78.5 0.999999 60757.3
73.5 76.25 0.999999 77141.3
76 83.25 0.999999 71680
71 91.75 0.999999 79872
71 102 0.999999 40277.3
64.5 111.5 0.999999 43690.7
51.75 111.25 0.999999 34816
48.5 102.25 0.999999 35840
63.5 127 0.999999 40277.3
63.5 125.75 0.999999 46421.3
68.5 122.5 0.999999 26282.7
84.5 125.5 0.999999 31744
95.25 124.25 0.999999 21845.3
107 136.5 0.999999 30720
162 7.5 0.999999 41301.3
167 22.25 0.999999 62122.7
51.75 -18.25 0.999999 85333.3
48.0417 -7.875 0.999999 81464.9
44.125 6.625 0.999999 83968
44 19.25 0.999999 77141.3
41.75 15.5 0.999999 71338.7
41.75 13.5 0.999999 70314.7
45.75 156.25 0.999999 36522.7
41 165.25 0.999999 47445.3
41.25 -97.5 0.999999 86698.7
50.75 -86 0.999999 80896
40.5 -91.25 0.999999 62464
75.5 -77.75 0.999999 87040
75.25 -66.5 0.999999 86698.7
49.25 -61 0.999999 85674.7
43.5 -18.75 0.999999 80213.3
39.7917 -8.625 0.999999 77027.6
96 -57 0.999999 87040
96.75 -57.25 0.999999 86698.7
101.5 -50.75 0.999999 80896
40.75 -82.5 0.999999 77482.7
38 25.75 0.999999 85674.7
58 37.75 0.999999 63146.7
52.25 45.75 0.999999 66560
38 32 0.999999 84992
87.25 -57 0.999999 77141.3
82.75 -39.75 0.999999 79530.7
81.75 -42 0.999999 86698.7
37.25 3 0.999999 83285.3
36.5 -28.25 0.999999 74069.3
40.25 -33.25 0.999999 83968
37.5 -22.25 0.999999 86016
70.25 46.25 0.999999 76117.3
81.5 41.5 0.999999 86016
91.75 44.5 0.999999 86698.7
104 49 0.999999 86357.3
109.75 50.75 0.999999 87040
111.25 56.75 0.999999 86357.3
103.75 71.75 0.999999 87040
97.5 73.5 0.999999 84992
82.25 64.25 0.999999 75434.7
68.25 51.5 0.999999 87040
33 23 0.999999 56320
-134.875 -12.9583 0.999999 84992
-129.125 -14.625 0.999999 84650.7
-137.25 -1.5 0.999999 81578.7
-139 -18.75 0.999999 72704
-12.875 97.8125 0.999999 57344
-8.25 93 0.999999 69632
-2 93.5 0.999999 84992
7.75 105.25 0.999999 52565.3
-16.3333 100.708 0.999999 47672.9
-81.5 12.5 0.999999 75093.3
-72.75 11 0.999999 81237.3
32.5 -77 0.999999 83285.3
32.75 -77.25 0.999999 80554.7
43.25 -56 0.999999 85333.3
35.75 -62.5 0.999999 87040
32.5 -70.75 0.999999 86016
128.5 76.25 0.999999 71338.7
139 75.25 0.999999 87040
142.75 81 0.999999 73386.7
130.25 82.25 0.999999 57685.3
55.5 65 0.999999 86698.7
60.5 54.5 0.999999 55296
54.75 72 0.999999 84309.3
-191.75 -95.25 0.999999 63146.7
-179.25 -79.75 0.999999 64170.7
-191.5 -87.25 0.999999 73728
30.75 19.25 0.999999 82944
20.25 -26.25 0.999999 74752
25 -16.5 0.999999 86016
20.875 -8.125 0.999999 86357.3
-7.66667 -23.5417 0.999999 69290.7
-9.79167 -28.5833 0.999999 85674.7
-6.20833 -34.875 0.999999 81237.3
6.75 -39.25 0.999999 79530.7
15.125 -36.1875 0.999999 74752
-33.5417 15.1667 0.999999 87040
-44.5 11.75 0.999999 85674.7
-104.75 12.75 0.999999 60757.3
-119.75 10.5 0.999999 42325.3
43.5 82 0.999999 53248
44.5 79.75 0.999999 55296
-194.25 -14.75 0.999999 82261.3
-194.75 -18.75 0.999999 86698.7
-194 -21.75 0.999999 82602.7
-183.25 -26.25 0.999999 86698.7
-175 -22 0.999999 80896
-169.125 -8.45833 0.999999 86584.9
-175.75 -1.75 0.999999 83968
19.25 -40.5 0.999999 69973.3
30.5 -41.25 0.999999 60074.7
29.25 -29 0.999999 84992
69.75 45.75 0.999999 75776
53 46.75 0.999999 71338.7
30.5 4.75 0.999999 86016
24 13 0.999999 83968
16.75 25.75 0.999999 87040
6.83333 22.2917 0.999999 82488.9
-76.75 -14.5 0.999999 82261.3
-20 52 0.999999 87040
-9.75 61 0.999999 86016
20.25 109.5 0.999999 45397.3
16.75 117.25 0.999999 23552
17.75 125 0.999999 29354.7
16.5 104.5 0.999999 44032
129.75 63.5 0.999999 83968
139.75 68.25 0.999999 84992
50 134.5 0.999999 32768
48.75 134.25 0.999999 37205.3
-190.25 -114.5 0.999999 86016
-179.5 -114.75 0.999999 80554.7
-194.75 -96.75 0.999999 83285.3
22 -133.25 0.999999 86698.7
17.5 -126 0.999999 86016
24 -120 0.999999 59392
29.25 -115 0.999999 86016
28.5 -106.5 0.999999 87040
3 -119 0.999999 87040
0.5 -120.5 0.999999 82944
0.75 -129 0.999999 86698.7
14.25 -136.25 0.999999 87040
148 75.25 0.999999 86357.3
148.75 78.5 0.999999 63146.7
19.25 33.25 0.999999 87040
28 36.75 0.999999 87040
27.25 43.25 0.999999 84309.3
17.5 44.75 0.999999 81237.3
14.25 39.25 0.999999 86357.3
26.25 -152.25 0.999999 87040
38.25 -139.5 0.999999 85674.7
32 -131.25 0.999999 86357.3
27.75 -132 0.999999 87040
7.75 -143.25 0.999999 84309.3
10.5 -151.5 0.999999 80896
17 -48.75 0.999999 53589.3
32.5 -48 0.999999 54954.7
-190.25 -171.75 0.999999 69632
-187.25 -175.5 0.999999 78165.3
30 -56.75 0.999999 59050.7
18 -57.75 0.999999 65536
-192 -167.25 0.999999 50858.7
-197 4.5 0.999999 83968
-200.75 -11.25 0.999999 76458.7
-174.75 6.75 0.999999 87040
-181.75 14.75 0.999999 71338.7
-150 -12.25 0.999999 69973.3
-163 -18.5 0.999999 80213.3
-158.75 -23.75 0.999999 75093.3
-148.125 -14.375 0.999999 61440
33.75 67 0.999999 76117.3
31.5 75 0.999999 79189.3
27.5 75.5 0.999999 84650.7
23.75 66.75 0.999999 82944
-91 2.5 0.999999 86698.7
16.5 58.5 0.999999 72704
5.54167 55.3333 0.999999 81692.4
-1.5 50.5 0.999999 86357.3
-0.0833325 43.2917 0.999999 86698.7
21 51.75 0.999999 83968
21 -90.75 0.999999 86698.7
22.25 -83 0.999999 82944
19.25 -79.5 0.999999 84992
15.25 -75.75 0.999999 70997.3
6 -72 0.999999 83968
-13.5 -82.5 0.999999 82944
-11.0833 -91.7083 0.999999 87040
-2.375 -96.9583 0.999999 87040
5.45833 -96.125 0.999999 86584.9
18.5 68.25 0.999999 69290.7
24.75 78 0.999999 68266.7
20 92 0.999999 75776
15.25 94.75 0.999999 82944
6.75 85.5 0.999999 63829.3
-1.625 64.0417 0.999999 81920
-103 -17.25 0.999999 79872
-7.25 40 0.999999 87040
25.25 -74.5 0.999999 74410.7
26.25 -69.5 0.999999 81237.3
-195.75 -154 0.999999 62464
-194 -148.5 0.999999 77824
41 61 0.999999 86357.3
26.75 50.25 0.999999 79530.7
-191 -54.75 0.999999 87040
-188 -64.25 0.999999 87040
-184.25 -65 0.999999 60757.3
-180.5 -54.75 0.999999 76117.3
-188.25 -50 0.999999 81237.3
133 -27.5 0.999999 42666.7
119.75 -23.5 0.999999 61781.3
119 -27 0.999999 75434.7
36.5 -99.25 0.999999 86357.3
-164.125 -11.125 0.999999 78506.7
-155 -7.25 0.999999 66218.7
-142.5 3 0.999999 81578.7
-141.25 13 0.999999 72704
-150.5 18.75 0.999999 66560
-162.75 12.75 0.999999 78506.7
-127.5 128 0.999999 78165.3
-11.75 -107.75 0.999999 86357.3
-10 -102.5 0.999999 87040
-12.5 -95.5 0.999999 87040
34.75 102.25 0.999999 53930.7
26.25 110.25 0.999999 37888
-178.5 24 0.999999 65536
-185.5 30.5 0.999999 74410.7
-193.5 26 0.999999 71680
-18.5 -130 0.999999 74752
27.25 116 0.999999 53589.3
25.5 125 0.999999 25258.7
-199 -58 0.999999 74069.3
-190.5 -47.25 0.999999 76458.7
-202 -53.25 0.999999 84650.7
6.5 -61.5 0.999999 79872
-185.5 -203.5 0.999999 81920
-189.75 -194.5 0.999999 84992
-204.5 -192.75 0.999999 83626.7
-195 -66.5 0.999999 73386.7
169 68.25 0.999999 52224
143.25 67 0.999999 84992
37 -120.75 0.999999 67242.7
38.25 -123 0.999999 80213.3
55.5 -121.25 0.999999 73045.3
36.75 -116.25 0.999999 62122.7
37.25 131 0.999999 26282.7
-201.5 -76.25 0.999999 69632
-204 -48 0.999999 83626.7
-209.75 -47.5 0.999999 86016
127.75 -17 0.999999 49493.3
134.5 -23.5 0.999999 65194.7
156.25 -0.5 0.999999 49493.3
19.5 159.25 0.999999 28330.7
-213.25 -170.25 0.999999 73386.7
-204.25 -172.25 0.999999 73045.3
-163.75 122.75 0.999999 86357.3
-132.5 136.75 0.999999 69973.3
-130.25 143.5 0.999999 84992
32.25 -126.5 0.999999 73728
24.5 -120.5 0.999999 52565.3
-167.75 -30.5 0.999999 86016
75 101.5 0.999999 73386.7
80.5 103.75 0.999999 25258.7
84 113.5 0.999999 14336
83.25 120 0.999999 25941.3
-189.5 -187.5 0.999999 76800
-202 -182.5 0.999999 73728
-206.75 -188.25 0.999999 79872
-8 60.25 0.999999 87040
-193 -42.5 0.999999 86357.3
-33 20.75 0.999999 87040
-199 -88.5 0.999999 43690.7
-196.5 -84.25 0.999999 42325.3
-197.5 -80.75 0.999999 53930.7
31 -18.5 0.999999 85333.3
179.25 53.75 0.999999 63146.7
-125.25 134 0.999999 86698.7
-125 135.5 0.999999 82261.3
-7.75 -112 0.999999 84992
-184.5 -183 0.999999 80896
-185.5 -180.5 0.999999 87040
119.5 -20.25 0.999999 74752
-127.75 128.75 0.999999 81237.3
96 118.25 0.999999 18773.3
97 115.75 0.999999 20480
104 108.75 0.999999 26965.3
111 108.5 0.999999 23552
133.5 116 0.999999 21504
83.75 100.25 0.999999 49834.7
92 98.75 0.999999 21845.3
-14.5 -57 0.999999 78165.3
-9.125 -60.125 0.999999 60074.7
-110.75 -23 0.999999 51200
-200.5 -28 0.999999 78848
-205.5 -23 0.999999 72021.3
-16.4167 -52.7917 0.999999 75776
0.25 -56.5 0.999999 74410.7
-15.5 -40.5 0.999999 73045.3
-12.5 162 0.999999 34474.7
-4.75 169.75 0.999999 40277.3
-179.75 -120.25 0.999999 77141.3
-176.25 -127.5 0.999999 74410.7
89.5 1 0.999999 86357.3
81.0833 8.20833 0.999999 86016
80 -78 0.999999 87040
82.25 13.75 0.999999 86357.3
-210.75 48 0.999999 81920
-194 56.75 0.999999 85333.3
-193 64 0.999999 87040
-195.5 66.5 0.999999 87040
-199.25 71.25 0.999999 76800
-6.125 -100.125 0.999999 87040
-4.5 -99.75 0.999999 87040
-130 132.5 0.999999 80213.3
76.5 93.5 0.999999 87040
90.25 85.25 0.999999 78165.3
-3.5 -109.5 0.999999 87040
-1.5 -107.5 0.999999 87040
82.75 16.25 0.999999 87040
97 25.5 0.999999 87040
99.5 30.75 0.999999 86698.7
96.5 38 0.999999 87040
93.5 42.5 0.999999 87040
98.25 -19.5 0.999999 85674.7
103.75 -14.75 0.999999 87040
100.75 -4 0.999999 86357.3
98 2 0.999999 86698.7
102.5 -31.5 0.999999 80896
105.25 10.5 0.999999 87040
-188 77.75 0.999999 87040
-190.25 80.5 0.999999 74752
-198 74.5 0.999999 85674.7
-191.5 73.75 0.999999 87040
-199.25 34.25 0.999999 85674.7
-191.25 41.25 0.999999 69290.7
-188.25 51.5 0.999999 86698.7
115.75 83 0.999999 85333.3
103.25 44.25 0.999999 87040
-172.25 58.5 0.999999 60416
-166.75 52.75 0.999999 78848
-174 63.25 0.999999 87040
-174 60.5 0.999999 77824
107 30.75 0.999999 68949.3
114 38.75 0.999999 78848
110 9 0.999999 87040
113.75 9 0.999999 81920
124 23.5 0.999999 87040
122 25 0.999999 83285.3
107.5 29.5 0.999999 79872
114.5 -30.25 0.999999 79189.3
114.167 -12.7083 0.999999 86584.9
108.5 -2.25 0.999999 87040
118.5 -2.75 0.999999 86357.3
115.5 9.53674e-07 0.999999 84650.7
122.5 87.25 0.999999 54272
122 30.25 0.999999 69290.7
121.25 35.75 0.999999 55637.3
-55 85.75 0.999999 80896
-187 -122.5 0.999999 87040
-184.5 -122 0.999999 87040
-175.25 43.25 0.999999 75434.7
-178 45.75 0.999999 57002.7
-196.25 30 0.999999 82602.7
-188.25 37.75 0.999999 86016
-181.25 -131.25 0.999999 85333.3
-187 -131.5 0.999999 75093.3
-182.5 52.25 0.999999 69290.7
-185.25 36.5 0.999999 75776
-184 68.5 0.999999 87040
-182 74.75 0.999999 87040
-185 77.75 0.999999 87040
-189.75 89.25 0.999999 86357.3
7 767 768 769 770 740 739 771 303
7 771 794 793 762 765 781 767 302
8 781 782 783 784 785 786 768 767 300
4 781 765 764 782 301
6 783 814 815 714 717 784 299
5 717 661 660 785 784 297
8 714 715 716 297 296 307 661 717 292
4 714 815 820 715 285
4 820 821 716 715 284
10 716 821 836 721 720 558 564 618 298 297 282
5 299 298 618 619 843 281
4 843 480 300 299 842743
7 695 696 697 698 699 700 701 7
6 754 755 695 701 756 757 5
5 741 746 495 494 498 160
8 741 742 743 744 725 733 745 746 161
11 725 726 727 728 729 283 282 730 731 732 733 162
3 725 744 726 389
6 744 743 849 850 727 726 390
7 729 803 772 780 487 284 283 174
11 772 773 774 775 776 777 537 536 778 779 780 173
4 774 789 790 775 185
8 790 669 668 751 752 825 776 775 842752
7 752 747 702 688 687 887 825 842753
4 751 748 747 752 842754
4 747 748 703 702 842755
7 702 703 641 640 704 681 688 192
10 681 682 683 491 490 684 685 686 687 688 180
10 683 707 708 709 710 493 484 483 492 491 217
8 708 680 653 632 635 737 736 709 220
9 736 740 770 788 568 567 585 710 709 213
5 736 737 738 739 740 221
4 738 794 771 739 304
4 849 833 832 850 842751
5 832 835 728 727 850 842750
7 803 620 622 631 666 773 772 188
5 666 665 789 774 773 187
4 665 669 790 789 186
4 704 865 682 681 193
8 682 865 642 626 627 639 707 683 195
5 757 816 817 818 754 4
7 756 809 453 435 434 816 757 842773
6 707 639 614 617 680 708 218
4 762 763 764 765 262
8 764 763 693 594 603 814 783 782 265
7 821 820 815 814 603 602 836 283
9 701 700 804 805 806 807 808 809 756 6
6 699 851 760 759 804 700 10
9 737 635 634 706 675 674 793 794 738 842732
4 759 758 805 804 842709
5 809 808 437 436 453 842712
7 728 835 586 592 620 803 729 388
7 805 758 761 657 654 656 806 12
4 758 759 760 761 842708
6 760 851 467 466 657 761 9
4 640 642 865 704 194
7 807 363 364 371 392 437 808 14
9 806 656 574 579 692 323 325 363 807 13
8 668 667 573 572 641 703 748 751 191
4 617 616 653 680 219
7 763 762 793 674 676 694 693 261
5 742 834 833 849 743 410
10 665 666 631 621 591 590 625 667 668 669 189
9 657 466 440 376 379 331 335 655 654 41
5 654 655 575 574 656 23
4 616 615 632 653 223
6 832 833 834 587 586 835 409
9 640 641 572 513 519 546 612 626 642 199
6 335 334 787 576 575 655 43
6 574 575 576 577 578 579 457
6 627 613 550 549 614 639 460
6 602 601 606 605 721 836 267
7 632 615 523 522 633 634 635 222
3 622 621 631 208
4 626 612 613 627 461
5 620 592 591 621 622 209
4 578 691 692 579 842710
4 692 691 324 323 842711
6 618 564 563 509 512 619 275
9 614 549 548 499 503 523 615 616 617 212
4 625 569 573 667 190
4 693 694 595 594 264
4 676 596 595 694 263
9 576 787 265 264 711 581 580 766 577 45
8 691 578 577 766 663 218 217 324 46
7 590 589 623 624 570 569 625 207
4 612 546 550 613 197
4 423 610 611 424 842791
10 594 595 596 597 598 599 600 601 602 603 256
5 766 580 583 664 663 47
4 605 604 720 721 842738
7 586 587 588 589 590 591 592 210
4 604 559 558 720 842739
4 580 581 582 583 842761
6 663 664 138 137 169 218 316
7 569 570 571 514 513 572 573 200
5 711 556 557 582 581 842760
7 264 215 143 142 534 556 711 49
4 633 705 706 634 842736
10 664 583 582 557 538 540 690 92 93 138 317
5 705 643 652 675 706 842735
7 558 559 560 561 562 563 564 274
5 556 534 535 538 557 52
7 546 519 518 547 548 549 550 211
7 674 675 652 651 597 596 676 842737
7 538 535 504 508 533 539 540 459
6 534 142 99 98 504 535 51
6 524 525 526 527 528 529 842767
6 522 521 644 643 705 633 225
6 690 689 861 62 61 92 318
4 540 539 689 690 319
6 503 502 520 521 522 523 226
7 513 514 515 516 517 518 519 198
4 509 510 511 512 276
7 504 98 97 505 506 507 508 54
8 533 532 584 566 565 861 689 539 320
8 508 507 530 531 482 486 532 533 321
8 624 636 541 545 637 638 571 570 206
5 499 500 501 502 503 227
8 604 605 606 607 608 609 560 559 273
7 498 494 41 40 101 74 73 144
9 494 495 496 497 51 50 48 42 41 143
8 56 52 51 497 819 36 35 87 157
6 819 497 496 745 733 732 158
10 732 731 869 811 45 44 65 37 36 819 156
7 46 45 811 812 813 778 536 172
5 536 537 26 25 46 78
4 537 777 27 26 79
4 881 2 1 882 74
5 886 32 3 2 881 72
7 881 882 887 687 686 888 886 181
10 888 505 97 96 105 104 129 33 32 886 71
5 506 505 888 686 685 175
5 685 684 530 507 506 176
4 566 584 585 567 315
4 565 566 567 568 314
9 568 788 712 58 57 63 62 861 565 313
6 713 712 788 770 769 859 322
8 10 9 84 360 59 58 712 713 306
8 11 10 713 859 786 785 660 659 296
6 547 893 894 500 499 548 230
4 858 857 845 844 412
8 600 852 853 854 855 607 606 601 266
4 659 658 12 11 294
4 658 662 13 12 293
7 658 659 660 661 307 306 662 298
9 308 456 5 4 235 14 13 662 306 361
7 22 21 457 456 308 295 303 486
8 79 78 18 17 22 303 302 889 481
4 889 890 80 79 433
9 776 825 887 882 1 0 28 27 777 75
5 897 898 899 900 901 423
3 812 902 813 165
4 563 562 510 509 277
4 571 638 515 514 842756
5 684 490 489 531 530 177
7 486 485 493 710 585 584 532 215
4 638 637 516 515 842757
10 643 644 645 646 647 648 649 650 651 652 456
4 599 905 852 600 385
5 302 301 481 890 889 842745
4 588 895 623 589 842749
8 529 528 837 829 822 824 838 839 25
4 495 746 745 496 159
6 598 906 880 879 905 599 387
4 562 561 511 510 278
5 902 903 779 778 813 166
6 844 845 753 551 555 791 443
7 869 907 908 903 902 812 811 164
6 623 895 629 628 636 624 408
5 501 896 909 520 502 228
5 651 650 906 598 597 259
4 500 894 896 501 229
9 520 909 910 911 912 913 645 644 521 231
4 905 879 853 852 386
6 839 838 860 698 697 884 842776
8 517 914 915 916 917 893 547 518 237
7 637 545 544 918 914 517 516 205
6 853 879 880 876 875 854 270
7 893 917 919 910 909 896 894 236
6 610 423 425 446 445 842 405
4 854 875 874 855 842741
4 855 874 608 607 842740
5 924 925 926 898 897 379
4 636 628 542 541 203
5 541 542 543 544 545 202
7 650 649 927 877 876 880 906 255
4 913 928 646 645 251
5 628 629 630 543 542 204
3 912 928 913 252
4 527 864 837 528 842706
7 874 875 876 877 878 609 608 271
4 885 696 695 755 842778
7 911 933 934 647 646 928 912 232
9 919 935 936 937 938 939 933 911 910 235
8 918 940 802 801 872 941 915 914 243
5 828 827 856 857 858 414
5 916 942 935 919 917 239
5 526 862 863 864 527 842766
5 543 630 940 918 544 244
6 915 941 943 944 942 916 238
3 826 827 828 415
4 525 724 862 526 842704
7 648 718 670 673 945 927 649 254
4 884 697 696 885 842777
3 938 946 939 234
5 939 946 947 934 933 233
4 927 945 878 877 272
8 857 856 870 871 750 749 753 845 413
4 942 944 936 935 240
9 524 722 723 452 451 462 677 724 525 35
4 824 823 860 838 26
11 934 947 341 192 187 190 831 719 718 648 647 250
6 941 872 840 444 443 943 242
6 944 943 443 447 937 936 241
8 864 863 679 678 797 796 829 837 33
5 822 795 799 823 824 27
3 800 801 802 842748
5 801 800 841 840 872 842747
4 829 796 795 822 28
5 863 862 724 677 679 842703
4 924 953 954 925 377
4 900 923 922 901 842717
4 920 921 922 923 842716
7 792 593 464 463 892 955 956 441
5 791 555 554 593 792 442
5 818 817 958 954 953 378
7 900 899 959 960 961 920 923 384
5 962 477 450 449 846 425
7 926 957 932 931 959 899 898 380
9 860 823 799 798 465 467 851 699 698 444
4 749 552 551 753 417
6 677 462 460 461 678 679 34
4 749 750 553 552 418
5 795 796 797 798 799 29
7 925 954 958 951 952 957 926 375
7 826 469 468 476 870 856 827 416
4 956 955 950 949 842695
5 722 949 950 891 723 842696
6 921 920 961 478 477 962 382
5 871 475 474 553 750 419
4 870 476 475 871 420
8 816 434 427 426 930 951 958 817 374
5 960 470 473 478 961 383
7 946 938 937 447 338 341 947 245
4 955 892 891 950 842694
7 678 461 438 441 465 798 797 445
5 931 471 470 960 959 381
8 551 552 553 474 458 459 554 555 468
4 952 929 932 957 842715
6 554 459 454 455 464 593 467
8 891 892 463 431 433 442 452 723 56
4 769 768 786 859 305
5 531 489 492 483 482 178
4 731 730 907 869 163
6 908 907 730 282 285 488 170
6 908 488 487 780 779 903 167
3 484 493 485 214
4 489 490 491 492 179
4 285 284 487 488 168
5 482 483 484 485 486 216
4 951 930 929 952 842714
4 301 300 480 481 842744
7 477 478 473 472 479 448 450 450
8 468 430 420 422 458 474 475 476 392
7 470 471 419 410 409 472 473 451
4 429 430 468 469 421
8 929 930 426 418 419 471 931 932 369
5 465 441 440 466 467 31
6 455 405 404 431 463 464 91
9 462 451 417 391 380 381 399 407 460 55
6 460 407 408 439 438 461 446
6 458 422 421 428 454 459 394
5 454 428 406 405 455 92
3 453 436 435 842771
6 442 432 416 417 451 452 89
5 448 414 413 449 450 448
5 445 444 840 841 842 406
7 443 444 445 446 339 338 447 246
3 433 432 442 90
7 438 439 400 377 376 440 441 37
4 718 719 671 670 401
7 434 435 436 437 392 394 427 842772
4 472 409 415 479 842718
4 479 415 414 448 842719
6 846 449 413 412 847 848 842727
4 670 671 672 673 400
7 431 404 401 402 416 432 433 458
6 429 403 368 370 420 430 154
8 428 421 388 387 385 386 390 406 150
6 426 427 394 393 397 418 453
8 420 370 369 373 384 388 421 422 153
4 408 398 400 439 842698
8 418 397 396 357 356 375 410 419 370
6 416 402 382 383 391 417 88
9 409 410 375 374 411 412 413 414 415 449
4 407 399 398 408 842697
8 404 405 406 390 349 353 367 401 93
4 403 361 362 368 397
7 401 367 326 327 347 382 402 96
9 398 399 381 310 304 305 316 377 400 39
8 393 366 345 344 355 395 396 397 323
6 392 371 365 366 393 394 15
5 383 346 348 380 391 97
6 412 411 810 873 904 847 842722
4 386 350 349 390 842693
6 388 384 372 358 359 387 151
5 387 359 352 351 385 105
4 385 351 350 386 842692
4 395 354 357 396 842720
6 374 321 320 337 810 411 372
3 373 372 384 152
4 382 347 346 383 98
5 380 348 309 310 381 58
7 376 377 316 263 266 378 379 40
3 395 355 354 842721
6 356 322 319 321 374 375 325
6 369 342 343 358 372 373 155
6 904 868 328 330 848 847 842723
5 364 312 315 365 371 18
8 368 362 280 252 253 342 369 370 145
8 353 318 311 294 290 293 326 367 95
5 365 315 314 345 366 16
5 363 325 313 312 364 19
4 904 873 867 868 842724
4 361 281 280 362 396
7 358 343 288 289 317 352 359 128
10 354 355 344 286 271 270 279 322 356 357 331
7 349 350 351 352 317 318 353 842691
7 346 347 327 242 243 309 348 87
5 873 810 337 336 867 842725
7 314 237 238 262 286 344 345 332
7 342 253 240 241 251 288 343 129
6 338 339 340 191 192 341 247
5 867 336 329 328 868 842726
7 320 259 245 244 329 336 337 348
5 331 332 333 334 335 842769
5 328 329 244 247 330 432
8 326 293 292 222 203 204 242 327 99
5 379 378 883 332 331 842770
6 323 324 217 219 313 325 20
5 322 279 278 287 319 326
8 319 287 274 273 254 259 320 321 327
8 317 289 267 269 272 275 311 318 103
6 305 260 250 249 263 316 60
9 312 313 219 207 210 224 237 314 315 17
7 311 275 220 222 292 291 294 102
8 309 243 231 232 236 239 304 310 59
5 306 307 296 295 308 291
8 304 239 202 201 214 248 260 305 86
9 295 296 297 298 299 300 301 302 303 286
3 294 291 290 101
4 290 291 292 293 100
7 288 251 213 205 206 267 289 132
6 278 277 257 256 274 287 329
4 262 261 271 286 333
4 282 283 284 285 169
5 185 186 252 280 281 146
7 378 266 265 787 334 333 883 440
7 270 233 234 276 277 278 279 472
5 272 268 221 220 275 107
4 274 256 255 273 842765
3 273 255 254 842764
3 269 268 272 106
6 261 227 230 233 270 271 334
7 267 206 193 194 221 268 269 108
7 263 249 216 215 264 265 266 63
9 238 223 226 180 184 228 227 261 262 470
3 260 248 250 61
12 254 255 256 257 258 168 167 176 179 196 245 259 350
7 252 186 173 174 212 240 253 136
4 241 211 213 251 131
5 248 214 216 249 250 62
6 244 245 196 197 246 247 349
10 242 204 195 163 144 119 123 200 231 243 83
4 240 212 211 241 130
4 236 198 202 239 842700
4 237 224 223 238 338
4 277 276 258 257 355
4 232 199 198 236 842699
4 233 230 229 234 473
4 231 200 199 232 85
4 227 228 229 230 474
6 223 224 210 209 225 226 339
7 220 221 194 135 136 203 222 109
7 217 218 169 170 177 207 219 343
8 214 201 130 127 128 143 215 216 64
7 211 212 174 172 171 205 213 133
8 207 177 153 156 181 208 209 210 342
8 229 228 184 164 168 258 276 234 354
7 205 171 126 125 133 193 206 127
7 203 136 131 132 146 195 204 113
3 209 208 225 842780
5 225 208 181 180 226 842779
8 198 199 200 123 122 130 201 202 65
4 719 831 734 671 403
4 734 735 672 671 402
3 423 424 425 842790
8 196 179 178 152 151 147 150 197 365
4 246 197 150 149 439
6 193 133 108 109 135 194 110
4 191 188 187 192 248
4 187 188 189 190 249
6 190 189 830 735 734 831 842746
5 185 117 118 173 186 147
9 180 181 156 155 182 183 165 164 184 471
4 176 175 178 179 351
4 170 154 153 177 344
5 167 157 162 175 176 352
8 173 118 112 111 116 134 172 174 135
5 171 172 134 124 126 134
5 169 137 141 154 170 345
7 164 165 166 158 157 167 168 353
7 446 425 424 611 866 340 339 404
4 146 145 163 195 842702
3 163 145 144 842701
6 178 175 162 114 113 152 367
3 151 148 147 842729
8 153 154 141 140 83 82 155 156 346
5 113 115 148 151 152 842728
4 183 389 166 165 356
7 147 148 115 77 81 149 150 475
6 132 120 119 144 145 146 114
6 128 107 94 99 142 143 50
10 137 138 93 64 63 57 60 139 140 141 310
4 182 948 389 183 357
8 135 109 71 70 89 121 131 136 111
9 157 158 159 160 161 69 68 114 162 364
5 116 100 102 124 134 138
6 125 91 86 88 108 133 126
4 131 121 120 132 115
9 122 76 34 33 129 103 106 127 130 66
7 127 106 105 96 95 107 128 68
6 191 340 866 830 189 188 399
5 155 82 85 948 182 358
6 124 102 90 91 125 126 139
11 119 120 121 89 47 24 30 55 76 122 123 82
4 117 110 112 118 148
6 111 75 74 101 100 116 137
9 113 114 68 23 19 18 78 77 115 488
5 110 72 75 111 112 149
8 108 88 87 35 38 66 71 109 842763
3 107 95 94 69
4 103 104 105 106 842759
7 100 101 40 39 49 90 102 140
6 94 95 96 97 98 99 70
8 166 389 948 85 16 15 159 158 359
3 129 104 103 842758
4 92 61 64 93 312
7 90 49 48 50 54 86 91 125
4 70 43 47 89 116
6 86 54 53 56 87 88 122
6 82 83 84 9 16 85 307
5 139 360 84 83 140 842734
5 77 78 79 80 81 487
4 76 55 31 34 81
4 72 73 74 75 842775
6 66 65 44 43 70 71 117
4 60 59 360 139 842733
3 161 67 69 436
5 67 20 23 68 69 437
4 38 37 65 66 842792
4 61 62 63 64 311
4 57 58 59 60 309
5 159 15 14 235 160 360
3 53 52 56 123
4 55 30 29 31 80
5 50 51 52 53 54 124
7 160 235 4 8 20 67 161 362
4 39 42 48 49 141
7 43 44 45 46 25 24 47 171
4 39 40 41 42 142
4 35 36 37 38 120
8 31 29 28 0 3 32 33 34 76
7 24 25 26 27 28 29 30 77
8 20 8 7 21 22 17 19 23 484
3 17 18 19 482
8 9 10 11 12 13 14 15 16 295
5 4 5 6 7 8 842730
4 456 457 6 5 842731
4 0 1 2 3 73
