ply
format ascii 1.0
comment Exported from MorphoGraphX 2.0.1-254
comment Cell Graph: each vertex is a cell, each edge a wall
element vertex 481
property int label
property float x
property float y
property float z
property list uchar float CellCenters
element edge 1365
property uint source
property uint target
end_header
4 0 0 0 3 -190.897 17.2517 0.999999 
5 0 0 0 3 -188.273 0.294814 0.999999 
6 0 0 0 3 -158.548 4.12767 0.999999 
7 0 0 0 3 -181.796 -13.7614 0.999999 
9 0 0 0 3 -152.529 -27.8553 0.999999 
10 0 0 0 3 -167.817 -20.4383 0.999999 
12 0 0 0 3 -144.812 -6.7048 0.999999 
13 0 0 0 3 -129.603 11.9574 0.999999 
14 0 0 0 3 -138.535 24.6566 0.999999 
15 0 0 0 3 -134.817 47.5597 0.999999 
16 0 0 0 3 -124.192 50.9283 0.999999 
17 0 0 0 3 -106.227 47.7516 0.999999 
18 0 0 0 3 -125.371 40.1858 0.999999 
19 0 0 0 3 -121.493 33.081 0.999999 
20 0 0 0 3 -105.797 28.9216 0.999999 
23 0 0 0 3 -129.537 -5.83949 0.999999 
25 0 0 0 3 -205.966 -62.4185 0.999999 
26 0 0 0 3 -197.783 -47.0957 0.999999 
27 0 0 0 3 -195.24 -52.8446 0.999999 
28 0 0 0 3 -193.55 -61.1021 0.999999 
29 0 0 0 3 -185.676 -56.9601 0.999999 
31 0 0 0 3 -158.262 -49.0393 0.999999 
33 0 0 0 3 -189.846 -75.8405 0.999999 
34 0 0 0 3 -179.738 -90.811 0.999999 
35 0 0 0 3 -185.698 -105.574 0.999999 
37 0 0 0 3 -147.332 -59.5334 0.999999 
39 0 0 0 3 -129.348 -67.5097 0.999999 
40 0 0 0 3 -121.405 -43.4985 0.999999 
41 0 0 0 3 -134.085 -30.3887 0.999999 
43 0 0 0 3 -116.55 -14.4909 0.999999 
45 0 0 0 3 -92.2844 -12.1267 0.999999 
46 0 0 0 3 -93.4162 15.7206 0.999999 
47 0 0 0 3 -81.0575 3.47613 0.999999 
49 0 0 0 3 -75.9539 -25.319 0.999999 
50 0 0 0 3 -65.4105 -36.0446 0.999999 
51 0 0 0 3 -55.5593 -21.9301 0.999999 
52 0 0 0 3 -59.9699 -12.1915 0.999999 
54 0 0 0 3 -36.1828 -25.5496 0.999999 
55 0 0 0 3 -151.807 -93.7904 0.999999 
56 0 0 0 3 -169.29 -123.535 0.999999 
58 0 0 0 3 -125.177 -85.2241 0.999999 
59 0 0 0 3 -108.441 -79.8894 0.999999 
60 0 0 0 3 -111.555 -53.6449 0.999999 
61 0 0 0 3 -102.611 -53.8257 0.999999 
62 0 0 0 3 -99.071 -50.0798 0.999999 
63 0 0 0 3 -95.0197 -36.6235 0.999999 
64 0 0 0 3 -81.5425 -49.1685 0.999999 
65 0 0 0 3 -74.8134 -69.8232 0.999999 
66 0 0 0 3 -55.526 -64.6555 0.999999 
68 0 0 0 3 -59.5571 -47.344 0.999999 
69 0 0 0 3 -57.2774 -38.0862 0.999999 
70 0 0 0 3 -51.9196 -35.248 0.999999 
71 0 0 0 3 -32.4428 -46.6653 0.999999 
72 0 0 0 3 -22.7866 -57.2037 0.999999 
73 0 0 0 3 -18.7976 -64.4712 0.999999 
74 0 0 0 3 -12.9827 -62.8026 0.999999 
75 0 0 0 3 -6.43406 -69.9635 0.999999 
76 0 0 0 3 -31.3995 -67.7175 0.999999 
77 0 0 0 3 -31.0226 -84.9653 0.999999 
78 0 0 0 3 -22.2021 -88.9422 0.999999 
79 0 0 0 3 -18.4233 -83.7496 0.999999 
80 0 0 0 3 -39.1893 -80.6271 0.999999 
81 0 0 0 3 -45.8292 -77.4617 0.999999 
82 0 0 0 3 -52.7041 -90.4353 0.999999 
83 0 0 0 3 -85.3738 -89.9163 0.999999 
85 0 0 0 3 -90.4575 -79.8741 0.999999 
86 0 0 0 3 -103.387 -62.5696 0.999999 
87 0 0 0 3 -114.264 -99.9028 0.999999 
88 0 0 0 3 -145.363 -107.175 0.999999 
89 0 0 0 3 -160.173 -109.455 0.999999 
90 0 0 0 3 -160.855 -116.172 0.999999 
91 0 0 0 3 -161.351 -140.65 0.999999 
92 0 0 0 3 -157.421 -148.779 0.999999 
93 0 0 0 3 -139.505 -136.146 0.999999 
95 0 0 0 3 -122.534 -130.005 0.999999 
96 0 0 0 3 -133.882 -118.692 0.999999 
97 0 0 0 3 -133.658 -99.29 0.999999 
98 0 0 0 3 -131.651 -106.143 0.999999 
99 0 0 0 3 -104.722 -111.976 0.999999 
100 0 0 0 3 -109.692 -120.874 0.999999 
101 0 0 0 3 -112.655 -125.177 0.999999 
102 0 0 0 3 -107.617 -128.979 0.999999 
103 0 0 0 3 -112.968 -147.846 0.999999 
105 0 0 0 3 -130.515 -159.566 0.999999 
106 0 0 0 3 -101.499 -140.714 0.999999 
107 0 0 0 3 -102.352 -134.262 0.999999 
108 0 0 0 3 -93.889 -145.528 0.999999 
109 0 0 0 3 -84.1919 -122.135 0.999999 
110 0 0 0 3 -72.7635 -132.635 0.999999 
111 0 0 0 3 -60.4225 -113.573 0.999999 
113 0 0 0 3 -82.2238 -105.759 0.999999 
114 0 0 0 3 -67.5041 -98.2646 0.999999 
115 0 0 0 3 -64.6456 -103.365 0.999999 
116 0 0 0 3 -48.9516 -108.326 0.999999 
117 0 0 0 3 -43.0289 -117.25 0.999999 
120 0 0 0 3 -35.0903 -129.669 0.999999 
122 0 0 0 3 -47.3137 -144.516 0.999999 
123 0 0 0 3 -40.8014 -147.114 0.999999 
124 0 0 0 3 -38.8911 -151.633 0.999999 
125 0 0 0 3 -45.0704 -158.814 0.999999 
126 0 0 0 3 -59.5795 -145.912 0.999999 
127 0 0 0 3 -78.4894 -153.504 0.999999 
128 0 0 0 3 -119.625 -167.757 0.999999 
129 0 0 0 3 -111.777 -180.652 0.999999 
130 0 0 0 3 -96.2886 -178.508 0.999999 
131 0 0 0 3 -98.8281 -171.778 0.999999 
132 0 0 0 3 -103.089 -162.313 0.999999 
133 0 0 0 3 -86.9238 -171.327 0.999999 
134 0 0 0 3 -75.3617 -167.388 0.999999 
135 0 0 0 3 -71.9074 -182.297 0.999999 
136 0 0 0 3 -89.2473 -187.886 0.999999 
137 0 0 0 3 -53.3572 -181.423 0.999999 
138 0 0 0 3 -64.0408 -171.495 0.999999 
139 0 0 0 3 -60.9975 -162.293 0.999999 
140 0 0 0 3 -49.7589 -170.721 0.999999 
141 0 0 0 3 -37.1258 -164.531 0.999999 
142 0 0 0 3 -34.9743 -169.747 0.999999 
143 0 0 0 3 -22.223 -156.923 0.999999 
144 0 0 0 3 -23.8389 -174.868 0.999999 
145 0 0 0 3 -114.998 -192.464 0.999999 
146 0 0 0 3 -96.7558 -202.642 0.999999 
147 0 0 0 3 -76.1338 -199.186 0.999999 
148 0 0 0 3 -62.4174 -195.093 0.999999 
149 0 0 0 3 -54.4209 -192.907 0.999999 
150 0 0 0 3 -148.163 -158.749 0.999999 
151 0 0 0 3 -133.342 -170.341 0.999999 
152 0 0 0 3 -134.477 -175.707 0.999999 
153 0 0 0 3 -143.629 -177.45 0.999999 
154 0 0 0 3 -146.129 -194.254 0.999999 
155 0 0 0 3 -127.917 -180.282 0.999999 
156 0 0 0 3 -16.6103 -120.819 0.999999 
157 0 0 0 3 -27.4389 -139.609 0.999999 
158 0 0 0 3 -4.65632 -136.865 0.999999 
159 0 0 0 3 -0.68898 -149.865 0.999999 
160 0 0 0 3 7.74493 -160.846 0.999999 
161 0 0 0 3 23.7653 -142.445 0.999999 
162 0 0 0 3 15.127 -120.401 0.999999 
163 0 0 0 3 -3.16279 -115.822 0.999999 
164 0 0 0 3 -6.53048 -106.191 0.999999 
165 0 0 0 3 -10.2968 -99.122 0.999999 
166 0 0 0 3 -7.06023 -94.9473 0.999999 
167 0 0 0 3 1.37321 -101.206 0.999999 
168 0 0 0 3 6.33 -107.396 0.999999 
169 0 0 0 3 11.6366 -107.503 0.999999 
170 0 0 0 3 3.33303 -113.277 0.999999 
171 0 0 0 3 -31.2201 -106.111 0.999999 
172 0 0 0 3 -17.5861 -99.9085 0.999999 
173 0 0 0 3 4.25272 -84.7462 0.999999 
174 0 0 0 3 20.2051 -98.2186 0.999999 
175 0 0 0 3 -20.1775 -33.3923 0.999999 
176 0 0 0 3 -15.1204 -24.2134 0.999999 
177 0 0 0 3 -3.25327 -17.235 0.999999 
178 0 0 0 3 -0.649212 -6.44621 0.999999 
179 0 0 0 3 5.79186 -10.4547 0.999999 
180 0 0 0 3 8.85424 -24.5582 0.999999 
181 0 0 0 3 -5.79322 -46.4388 0.999999 
185 0 0 0 3 20.8161 -73.5744 0.999999 
186 0 0 0 3 29.0926 -72.9684 0.999999 
187 0 0 0 3 25.5702 -78.6951 0.999999 
188 0 0 0 3 32.0201 -88.1793 0.999999 
189 0 0 0 3 46.9403 -73.6645 0.999999 
190 0 0 0 3 50.3248 -54.1141 0.999999 
191 0 0 0 3 41.4426 -45.7161 0.999999 
192 0 0 0 3 26.2146 -33.6567 0.999999 
193 0 0 0 3 25.5544 -22.9369 0.999999 
194 0 0 0 3 33.1276 -24.2951 0.999999 
195 0 0 0 3 31.8785 -8.90088 0.999999 
197 0 0 0 3 52.7911 -11.739 0.999999 
198 0 0 0 3 69.3863 -23.5688 0.999999 
199 0 0 0 3 49.7541 -26.6336 0.999999 
200 0 0 0 3 62.0217 -44.9032 0.999999 
202 0 0 0 3 93.2276 -44.2604 0.999999 
203 0 0 0 3 90.5358 -53.9949 0.999999 
204 0 0 0 3 97.3444 -52.0436 0.999999 
205 0 0 0 3 90.3725 -29.888 0.999999 
206 0 0 0 3 76.9643 -54.8895 0.999999 
207 0 0 0 3 62.3527 -68.6046 0.999999 
208 0 0 0 3 44.5592 -86.1004 0.999999 
209 0 0 0 3 46.6447 -93.7582 0.999999 
210 0 0 0 3 61.6846 -92.7983 0.999999 
211 0 0 0 3 64.5708 -7.5203 0.999999 
212 0 0 0 3 53.5902 12.049 0.999999 
213 0 0 0 3 3.89735 32.1098 0.999999 
214 0 0 0 3 3.99102 7.92668 0.999999 
215 0 0 0 3 -2.16013 12.9459 0.999999 
216 0 0 0 3 0.410338 2.07541 0.999999 
217 0 0 0 3 16.1387 7.66864 0.999999 
218 0 0 0 3 33.7975 10.4005 0.999999 
219 0 0 0 3 35.9627 16.8623 0.999999 
220 0 0 0 3 26.5564 25.9294 0.999999 
221 0 0 0 3 21.2865 38.9839 0.999999 
222 0 0 0 3 49.4753 31.9225 0.999999 
223 0 0 0 3 39.0314 21.327 0.999999 
225 0 0 0 3 70.5242 36.3985 0.999999 
226 0 0 0 3 68.1231 22.455 0.999999 
227 0 0 0 3 69.8027 12.3041 0.999999 
228 0 0 0 3 78.0394 16.7389 0.999999 
229 0 0 0 3 78.1617 10.868 0.999999 
230 0 0 0 3 77.2531 0.467952 0.999999 
231 0 0 0 3 87.1296 30.8389 0.999999 
232 0 0 0 3 105.901 39.7374 0.999999 
233 0 0 0 3 115.039 33.412 0.999999 
234 0 0 0 3 115.443 26.6876 0.999999 
235 0 0 0 3 109.895 19.668 0.999999 
236 0 0 0 3 93.0282 12.3069 0.999999 
237 0 0 0 3 89.8966 -11.5177 0.999999 
238 0 0 0 3 108.841 -7.78668 0.999999 
239 0 0 0 3 104.365 2.7763 0.999999 
240 0 0 0 3 111.967 3.29603 0.999999 
241 0 0 0 3 125.084 10.9517 0.999999 
242 0 0 0 3 126.321 -7.51755 0.999999 
243 0 0 0 3 108.891 -22.7601 0.999999 
244 0 0 0 3 108.1 -41.5613 0.999999 
245 0 0 0 3 131.211 33.514 0.999999 
246 0 0 0 3 143.435 19.0551 0.999999 
247 0 0 0 3 144.168 42.0956 0.999999 
248 0 0 0 3 149.284 47.7447 0.999999 
249 0 0 0 3 149.929 53.6011 0.999999 
250 0 0 0 3 127.683 52.4848 0.999999 
251 0 0 0 3 97.7891 47.2511 0.999999 
252 0 0 0 3 98.6072 41.513 0.999999 
254 0 0 0 3 118.452 69.6067 0.999999 
255 0 0 0 3 103.096 89.2526 0.999999 
256 0 0 0 3 62.0472 94.7022 0.999999 
259 0 0 0 3 86.0391 74.3928 0.999999 
261 0 0 0 3 42.6153 71.3474 0.999999 
262 0 0 0 3 29.0438 69.6121 0.999999 
263 0 0 0 3 52.42 76.7658 0.999999 
264 0 0 0 3 51.5182 83.6768 0.999999 
265 0 0 0 3 36.5905 90.6421 0.999999 
266 0 0 0 3 75.3939 115.502 0.999999 
267 0 0 0 3 51.2305 122.37 0.999999 
270 0 0 0 3 92.1989 107.044 0.999999 
271 0 0 0 3 115.761 124.268 0.999999 
272 0 0 0 3 121.968 102.916 0.999999 
273 0 0 0 3 84.6425 134.243 0.999999 
274 0 0 0 3 72.7361 146.879 0.999999 
275 0 0 0 3 53.8339 162.119 0.999999 
276 0 0 0 3 65.9978 166.745 0.999999 
277 0 0 0 3 70.1091 158.26 0.999999 
278 0 0 0 3 76.7684 159.787 0.999999 
281 0 0 0 3 28.2379 153.954 0.999999 
282 0 0 0 3 35.209 140.609 0.999999 
283 0 0 0 3 36.9557 115.513 0.999999 
284 0 0 0 3 22.261 120.801 0.999999 
285 0 0 0 3 22.132 113.853 0.999999 
286 0 0 0 3 3.9739 138.611 0.999999 
291 0 0 0 3 -2.5227 118.973 0.999999 
292 0 0 0 3 11.1773 115.986 0.999999 
293 0 0 0 3 -19.8055 92.8539 0.999999 
294 0 0 0 3 -13.7587 89.2595 0.999999 
295 0 0 0 3 -28.1346 82.0303 0.999999 
296 0 0 0 3 -5.41347 77.8708 0.999999 
297 0 0 0 3 7.43439 96.3416 0.999999 
298 0 0 0 3 -5.40883 103.964 0.999999 
299 0 0 0 3 25.0173 100.93 0.999999 
300 0 0 0 3 11.3361 73.7663 0.999999 
301 0 0 0 3 22.2737 72.5983 0.999999 
302 0 0 0 3 27.9296 59.5608 0.999999 
303 0 0 0 3 9.76412 47.9908 0.999999 
304 0 0 0 3 23.0938 46.8547 0.999999 
305 0 0 0 3 -1.05656 57.4559 0.999999 
306 0 0 0 3 -24.0284 62.7754 0.999999 
307 0 0 0 3 -43.0263 70.402 0.999999 
309 0 0 0 3 -36.8573 45.2588 0.999999 
310 0 0 0 3 -56.4841 37.596 0.999999 
311 0 0 0 3 -44.4847 25.3724 0.999999 
312 0 0 0 3 -51.2855 24.0075 0.999999 
313 0 0 0 3 -25.9899 36.599 0.999999 
314 0 0 0 3 -15.3175 28.8859 0.999999 
315 0 0 0 3 -10.3961 21.2441 0.999999 
316 0 0 0 3 -75.7532 24.1663 0.999999 
317 0 0 0 3 -57.6772 10.7518 0.999999 
318 0 0 0 3 -40.4478 17.9188 0.999999 
319 0 0 0 3 -38.0635 11.765 0.999999 
320 0 0 0 3 -22.8009 15.222 0.999999 
321 0 0 0 3 -17.3548 -6.20158 0.999999 
322 0 0 0 3 -10.1116 50.2537 0.999999 
323 0 0 0 3 -134.249 65.253 0.999999 
325 0 0 0 3 -125.944 100.218 0.999999 
326 0 0 0 3 -115.322 101.71 0.999999 
327 0 0 0 3 -113.742 116.085 0.999999 
329 0 0 0 3 -105.867 105.643 0.999999 
331 0 0 0 3 -117.626 83.9047 0.999999 
332 0 0 0 3 -115.282 63.464 0.999999 
333 0 0 0 3 -109.525 75.3943 0.999999 
334 0 0 0 3 -104.507 79.2034 0.999999 
338 0 0 0 3 -100.069 59.562 0.999999 
339 0 0 0 3 -94.8917 60.0554 0.999999 
342 0 0 0 3 -84.1483 54.9119 0.999999 
343 0 0 0 3 -89.1756 37.7551 0.999999 
344 0 0 0 3 -79.273 47.7108 0.999999 
345 0 0 0 3 -75.9654 40.9097 0.999999 
346 0 0 0 3 -61.8055 55.3485 0.999999 
348 0 0 0 3 -110.913 130.132 0.999999 
349 0 0 0 3 -94.8946 138.183 0.999999 
350 0 0 0 3 -93.1383 115.809 0.999999 
351 0 0 0 3 -82.0914 118.26 0.999999 
352 0 0 0 3 -76.5991 112.681 0.999999 
353 0 0 0 3 -69.6358 99.5199 0.999999 
354 0 0 0 3 -85.3234 89.58 0.999999 
355 0 0 0 3 -95.1588 98.9608 0.999999 
356 0 0 0 3 -66.9398 87.3291 0.999999 
357 0 0 0 3 -62.7349 82.0783 0.999999 
358 0 0 0 3 -58.2245 75.1946 0.999999 
359 0 0 0 3 -46.048 89.8621 0.999999 
360 0 0 0 3 -38.0244 101.969 0.999999 
361 0 0 0 3 -23.2182 107.629 0.999999 
362 0 0 0 3 -36.6063 117.005 0.999999 
364 0 0 0 3 -55.0776 112.726 0.999999 
365 0 0 0 3 -80.4254 134.866 0.999999 
367 0 0 0 3 -67.7833 123.854 0.999999 
369 0 0 0 3 -161.426 67.4838 0.999999 
370 0 0 0 3 -142.237 86.1947 0.999999 
372 0 0 0 3 -128.87 116.561 0.999999 
374 0 0 0 3 -170.806 38.1332 0.999999 
375 0 0 0 3 -183.959 43.8572 0.999999 
377 0 0 0 3 -193.987 36.0155 0.999999 
378 0 0 0 3 -189.992 31.5838 0.999999 
379 0 0 0 3 -199.584 45.819 0.999999 
380 0 0 0 3 -185.115 60.0055 0.999999 
381 0 0 0 3 -176.036 70.7493 0.999999 
382 0 0 0 3 -183.942 87.032 0.999999 
383 0 0 0 3 -178.378 82.3652 0.999999 
384 0 0 0 3 -188.358 70.9302 0.999999 
385 0 0 0 3 72.511 96.9193 0.999999 
386 0 0 0 3 79.2975 98.7685 0.999999 
387 0 0 0 3 83.1916 90.8742 0.999999 
388 0 0 0 3 40.8445 -106.718 0.999999 
389 0 0 0 3 22.4548 -130.01 0.999999 
390 0 0 0 3 24.8251 -126.206 0.999999 
392 0 0 0 3 -161.142 -182.421 0.999999 
394 0 0 0 3 -161.813 -165.14 0.999999 
396 0 0 0 3 -119.793 -202.222 0.999999 
397 0 0 0 3 -136.726 -202.7 0.999999 
399 0 0 0 3 168.495 54.2347 0.999999 
400 0 0 0 3 135.784 79.6405 0.999999 
401 0 0 0 3 132.445 70.3733 0.999999 
402 0 0 0 3 144.21 77.7404 0.999999 
403 0 0 0 3 143.317 71.7343 0.999999 
404 0 0 0 3 168.451 36.1614 0.999999 
405 0 0 0 3 152.783 9.36773 0.999999 
406 0 0 0 3 141.48 -9.62533 0.999999 
408 0 0 0 3 86.7842 -66.6152 0.999999 
409 0 0 0 3 52.6009 -114.369 0.999999 
410 0 0 0 3 43.5093 -129.656 0.999999 
412 0 0 0 3 -210.067 -179.455 0.999999 
413 0 0 0 3 -194.983 -176.804 0.999999 
414 0 0 0 3 -197.697 -189.055 0.999999 
415 0 0 0 3 -194.799 -199.852 0.999999 
416 0 0 0 3 -180.865 -193.258 0.999999 
417 0 0 0 3 -186.438 -167.742 0.999999 
418 0 0 0 3 -184.26 -171.947 0.999999 
419 0 0 0 3 -179.201 -175.754 0.999999 
420 0 0 0 3 -179.815 -181.438 0.999999 
421 0 0 0 3 -165.573 -195.202 0.999999 
423 0 0 0 3 -205.309 59.492 0.999999 
425 0 0 0 3 -178.487 105.817 0.999999 
432 0 0 0 3 -109.481 147.051 0.999999 
433 0 0 0 3 -19.0245 170.089 0.999999 
436 0 0 0 3 -45.8725 120.391 0.999999 
437 0 0 0 3 -42.9508 127.446 0.999999 
439 0 0 0 3 -80.4322 151.299 0.999999 
440 0 0 0 3 -105.032 -24.6482 0.999999 
441 0 0 0 3 -182.039 -139.371 0.999999 
442 0 0 0 3 -186.409 -153.616 0.999999 
443 0 0 0 3 -200.298 -162.698 0.999999 
444 0 0 0 3 -177.37 -39.5411 0.999999 
445 0 0 0 3 -174.278 -67.7667 0.999999 
446 0 0 0 3 -161.343 -81.9253 0.999999 
448 0 0 0 3 -159.479 108.217 0.999999 
449 0 0 0 3 -145.058 107.795 0.999999 
450 0 0 0 3 -170.446 97.6277 0.999999 
451 0 0 0 3 -163.12 85.7101 0.999999 
453 0 0 0 3 -149.747 57.3682 0.999999 
456 0 0 0 3 90.5672 55.9123 0.999999 
457 0 0 0 3 -112.711 0.181518 0.999999 
458 0 0 0 3 -153.397 -124.106 0.999999 
459 0 0 0 3 -39.5878 -4.55908 0.999999 
460 0 0 0 3 45.6126 -1.62146 0.999999 
461 0 0 0 3 45.5024 -13.6781 0.999999 
467 0 0 0 3 -174.283 -153.156 0.999999 
468 0 0 0 3 -172.479 -167.184 0.999999 
470 0 0 0 3 -96.4862 71.5986 0.999999 
471 0 0 0 3 -74.895 70.9679 0.999999 
472 0 0 0 3 -102.728 92.7633 0.999999 
473 0 0 0 3 -97.3419 83.6193 0.999999 
474 0 0 0 3 -96.4972 78.3725 0.999999 
475 0 0 0 3 -59.7295 148.106 0.999999 
481 0 0 0 3 -19.6039 149.054 0.999999 
482 0 0 0 3 -33.0393 135.287 0.999999 
484 0 0 0 3 -30.9167 130.9 0.999999 
486 0 0 0 3 -12.8529 130.165 0.999999 
487 0 0 0 3 -39.885 160.213 0.999999 
488 0 0 0 3 -45.8003 139.66 0.999999 
842691 0 0 0 3 -122.017 -147.267 0.999999 
842692 0 0 0 3 -131.749 -151.74 0.999999 
842693 0 0 0 3 -134.267 -145.716 0.999999 
842694 0 0 0 3 -180.087 -125.288 0.999999 
842695 0 0 0 3 -185.652 -127.389 0.999999 
842696 0 0 0 3 -184.772 -116.801 0.999999 
842697 0 0 0 3 -147.695 -81.2945 0.999999 
842698 0 0 0 3 -149.39 -74.4883 0.999999 
842699 0 0 0 3 -94.0097 -73.8267 0.999999 
842700 0 0 0 3 -96.7362 -68.6381 0.999999 
842701 0 0 0 3 -73.7742 -95.9211 0.999999 
842702 0 0 0 3 -75.9326 -99.6054 0.999999 
842703 0 0 0 3 -194.952 -90.097 0.999999 
842704 0 0 0 3 -200.394 -93.9693 0.999999 
842706 0 0 0 3 -203.365 -80.7243 0.999999 
842708 0 0 0 3 -155.477 -18.2472 0.999999 
842709 0 0 0 3 -158.406 -12.3626 0.999999 
842710 0 0 0 3 -111.446 8.04423 0.999999 
842711 0 0 0 3 -112.732 14.381 0.999999 
842712 0 0 0 3 -157.475 18.4989 0.999999 
842714 0 0 0 3 -172.103 50.5293 0.999999 
842715 0 0 0 3 -177.591 53.6504 0.999999 
842716 0 0 0 3 -193.159 77.0601 0.999999 
842717 0 0 0 3 -195.692 71.0466 0.999999 
842718 0 0 0 3 -159.587 98.0755 0.999999 
842719 0 0 0 3 -159.12 102.333 0.999999 
842720 0 0 0 3 -134.813 78.8079 0.999999 
842721 0 0 0 3 -130.035 75.3627 0.999999 
842722 0 0 0 3 -135.094 127.479 0.999999 
842723 0 0 0 3 -126.475 139.513 0.999999 
842724 0 0 0 3 -127.483 132.467 0.999999 
842725 0 0 0 3 -124.549 130.7 0.999999 
842726 0 0 0 3 -121.402 135.117 0.999999 
842727 0 0 0 3 -147.381 130.448 0.999999 
842728 0 0 0 3 -67.6214 131.922 0.999999 
842729 0 0 0 3 -70.816 136.65 0.999999 
842730 0 0 0 3 -28.6154 124.835 0.999999 
842731 0 0 0 3 -22.5964 122.589 0.999999 
842732 0 0 0 3 42.379 49.0047 0.999999 
842733 0 0 0 3 -42.2719 51.3665 0.999999 
842734 0 0 0 3 -45.5989 56.3929 0.999999 
842735 0 0 0 3 61.8074 49.4954 0.999999 
842736 0 0 0 3 61.25 42.5585 0.999999 
842737 0 0 0 3 67.5224 65.8495 0.999999 
842738 0 0 0 3 55.2101 127.852 0.999999 
842739 0 0 0 3 58.0904 133.55 0.999999 
842740 0 0 0 3 89.5457 122.202 0.999999 
842741 0 0 0 3 89.5815 115.722 0.999999 
842743 0 0 0 3 13.4295 157.986 0.999999 
842744 0 0 0 3 8.29552 161.3 0.999999 
842745 0 0 0 3 -0.969408 162.533 0.999999 
842746 0 0 0 3 156.204 67.9557 0.999999 
842747 0 0 0 3 127.62 -22.1438 0.999999 
842748 0 0 0 3 125.96 -28.3573 0.999999 
842749 0 0 0 3 76.2387 -84.0164 0.999999 
842750 0 0 0 3 31.1093 -118.371 0.999999 
842751 0 0 0 3 30.7579 -123.04 0.999999 
842752 0 0 0 3 19.9188 -65.3479 0.999999 
842753 0 0 0 3 9.90828 -49.9297 0.999999 
842754 0 0 0 3 25.101 -52.2146 0.999999 
842755 0 0 0 3 24.3447 -44.4868 0.999999 
842756 0 0 0 3 73.3847 -41.3233 0.999999 
842757 0 0 0 3 76.1862 -35.4417 0.999999 
842758 0 0 0 3 -50.0678 -57.1235 0.999999 
842759 0 0 0 3 -53.3374 -52.353 0.999999 
842760 0 0 0 3 -69.1495 -8.96252 0.999999 
842761 0 0 0 3 -73.2455 -3.18746 0.999999 
842763 0 0 0 3 -51.7486 -129.03 0.999999 
842764 0 0 0 3 -105.656 115.796 0.999999 
842765 0 0 0 3 -105.983 111.941 0.999999 
842766 0 0 0 3 -201.568 -85.8757 0.999999 
842767 0 0 0 3 -211.7 -92.3089 0.999999 
842769 0 0 0 3 -116.832 -23.2271 0.999999 
842770 0 0 0 3 -114.615 -28.3162 0.999999 
842771 0 0 0 3 -162.024 23.7928 0.999999 
842772 0 0 0 3 -150.477 36.8432 0.999999 
842773 0 0 0 3 -172.077 17.6174 0.999999 
842775 0 0 0 3 -33.3851 -190.709 0.999999 
842776 0 0 0 3 -198.347 -35.049 0.999999 
842777 0 0 0 3 -199.681 -22.8449 0.999999 
842778 0 0 0 3 -201.803 -16.7063 0.999999 
842779 0 0 0 3 -87.6551 66.838 0.999999 
842780 0 0 0 3 -88.282 61.947 0.999999 
842790 0 0 0 3 159.748 15.9494 0.999999 
842791 0 0 0 3 165.396 14.5837 0.999999 
842792 0 0 0 3 -40.0565 -123.045 0.999999 
4 5
4 374
4 378
4 842773
5 6
5 7
5 842773
5 842778
6 7
6 10
6 12
6 13
6 14
6 842709
6 842712
6 842773
7 10
7 444
7 842776
7 842777
7 842778
9 10
9 12
9 31
9 41
9 444
9 842708
10 444
10 842708
10 842709
12 13
12 23
12 41
12 842708
12 842709
13 14
13 19
13 20
13 23
13 457
13 842710
13 842711
14 15
14 18
14 19
14 842712
14 842772
15 16
15 18
15 323
15 453
15 842772
16 17
16 18
16 323
16 332
17 18
17 19
17 20
17 332
17 338
17 339
17 342
17 343
18 19
19 20
20 46
20 343
20 842711
23 41
23 43
23 457
25 26
25 27
25 28
25 33
25 842706
25 842767
25 842776
26 27
26 444
26 842776
27 28
27 29
27 444
28 29
28 33
29 33
29 444
29 445
31 37
31 41
31 444
31 445
33 34
33 445
33 842703
33 842706
33 842766
34 35
34 55
34 445
34 446
34 842703
35 55
35 56
35 89
35 842696
35 842703
35 842704
35 842767
37 39
37 40
37 41
37 445
37 446
37 842698
39 40
39 55
39 58
39 59
39 60
39 86
39 842697
39 842698
40 41
40 60
40 63
40 440
40 842770
41 43
41 842769
41 842770
43 45
43 440
43 457
43 842769
45 46
45 47
45 49
45 63
45 440
45 457
45 842760
45 842761
46 47
46 316
46 343
46 457
46 842710
46 842711
47 316
47 317
47 842761
49 50
49 51
49 52
49 63
49 64
49 842760
50 51
50 64
50 68
50 69
50 70
51 52
51 54
51 70
51 459
52 317
52 459
52 842760
54 70
54 71
54 175
54 176
54 321
54 459
55 58
55 88
55 89
55 97
55 446
55 842697
56 89
56 90
56 91
56 441
56 458
56 842694
56 842696
58 59
58 87
58 97
59 83
59 85
59 86
59 87
59 842699
59 842700
60 61
60 62
60 63
60 86
61 62
61 86
62 63
62 64
62 86
63 64
63 440
64 65
64 66
64 68
64 86
65 66
65 82
65 83
65 85
65 86
65 842699
65 842700
66 68
66 71
66 76
66 81
66 82
66 842758
66 842759
68 69
68 70
68 71
68 842759
69 70
70 71
71 72
71 76
71 175
71 181
71 842758
71 842759
72 73
72 74
72 76
72 181
73 74
73 75
73 76
74 75
74 181
75 76
75 77
75 79
75 173
75 181
75 842752
75 842753
76 77
76 80
76 81
77 78
77 79
77 80
77 82
77 171
78 79
78 171
78 172
78 173
79 173
80 81
80 82
81 82
82 83
82 111
82 114
82 115
82 116
82 171
83 85
83 87
83 99
83 113
83 114
83 842701
83 842702
85 842699
86 842700
87 96
87 97
87 98
87 99
88 89
88 96
88 97
88 98
88 458
89 90
89 458
90 458
91 92
91 93
91 441
91 458
91 467
92 93
92 150
92 394
92 467
93 95
93 96
93 150
93 458
93 842691
93 842693
95 96
95 99
95 100
95 101
95 102
95 103
95 842691
96 98
96 99
96 458
97 98
99 100
99 102
99 109
99 113
100 101
100 102
101 102
102 103
102 107
102 109
103 106
103 107
103 108
103 128
103 132
103 842691
105 128
105 150
105 151
105 842691
105 842692
106 107
106 108
107 108
107 109
108 109
108 110
108 127
108 132
109 110
109 111
109 113
110 111
110 126
110 127
110 842763
111 113
111 115
111 116
111 117
111 842763
113 114
113 115
113 842702
114 115
114 842701
114 842702
116 117
116 171
117 156
117 171
117 842763
117 842792
120 156
120 157
120 842763
120 842792
122 123
122 124
122 125
122 126
122 157
122 842763
123 124
123 157
124 125
124 143
124 157
125 126
125 139
125 140
125 141
125 143
126 127
126 139
126 842763
127 132
127 133
127 134
127 139
128 129
128 132
128 151
128 155
128 842691
129 130
129 131
129 132
129 136
129 145
129 155
130 131
130 133
130 136
131 132
131 133
132 133
133 134
133 135
133 136
134 135
134 138
134 139
135 136
135 137
135 138
135 147
135 148
135 149
136 145
136 146
136 147
137 138
137 140
137 144
137 149
137 842775
138 139
138 140
139 140
140 141
140 142
140 144
141 142
141 143
142 143
142 144
143 144
143 157
143 158
143 159
143 160
144 160
144 842775
145 146
145 153
145 154
145 155
145 396
145 397
146 147
146 396
147 148
148 149
149 842775
150 151
150 153
150 394
150 842692
150 842693
151 152
151 153
151 155
152 153
152 155
153 154
153 155
153 392
153 394
154 392
154 397
154 421
156 157
156 158
156 162
156 163
156 164
156 171
156 172
156 842792
157 158
157 842763
158 159
158 161
158 162
159 160
159 161
160 161
161 162
161 389
161 390
161 410
162 163
162 169
162 170
162 174
162 388
162 389
162 390
162 842750
163 164
163 170
164 165
164 166
164 167
164 170
164 172
165 166
165 172
166 167
166 172
166 173
167 168
167 170
167 173
167 174
168 169
168 170
168 174
169 170
169 174
171 172
172 173
173 174
173 185
173 187
173 188
173 842752
174 188
174 388
175 176
175 180
175 181
176 177
176 180
176 321
177 178
177 179
177 180
177 321
178 179
178 216
178 217
178 321
179 180
179 217
180 181
180 192
180 193
180 195
180 217
180 842753
181 842753
185 186
185 187
185 842752
186 187
186 189
186 842752
187 188
187 189
188 189
188 208
188 209
188 388
189 190
189 191
189 207
189 208
189 209
189 210
189 842752
190 191
190 200
190 207
191 192
191 199
191 200
191 842752
191 842754
191 842755
192 193
192 194
192 199
192 842753
192 842755
193 194
193 195
194 195
194 199
195 199
195 217
195 218
195 460
195 461
197 199
197 211
197 460
197 461
198 199
198 200
198 205
198 211
198 237
198 842756
198 842757
199 200
199 211
199 461
200 206
200 207
200 842756
202 203
202 204
202 205
202 206
202 244
203 204
203 206
203 408
204 244
204 408
205 206
205 237
205 243
205 244
205 842757
206 207
206 408
206 842756
206 842757
207 210
207 408
207 842749
208 209
209 210
209 388
210 388
210 409
210 842749
211 212
211 230
211 237
211 460
212 218
212 219
212 222
212 223
212 226
212 227
212 230
212 460
213 215
213 217
213 220
213 221
213 303
213 313
213 314
213 315
213 322
214 215
214 216
214 217
215 216
215 217
215 315
215 320
215 321
216 217
216 321
217 218
217 220
218 219
218 220
218 460
219 220
219 223
220 221
220 222
220 223
220 842732
221 303
221 304
221 842732
222 223
222 225
222 226
222 842732
222 842736
225 226
225 231
225 456
225 842735
225 842736
226 227
226 228
226 231
227 228
227 229
227 230
228 229
228 231
228 236
229 230
229 236
230 236
230 237
231 232
231 235
231 236
231 251
231 252
231 456
232 233
232 235
232 250
232 251
232 252
232 456
233 234
233 235
233 245
233 250
234 235
234 245
235 236
235 239
235 240
235 241
235 245
236 237
236 239
237 238
237 239
237 243
238 239
238 240
238 241
238 242
238 243
239 240
240 241
241 242
241 245
241 246
242 243
242 246
242 406
242 842747
243 244
243 842747
243 842748
245 246
245 247
245 250
246 247
246 404
246 405
246 406
247 248
247 250
247 399
247 404
248 249
248 250
248 399
249 250
249 399
249 842746
250 254
250 401
250 403
250 456
250 842746
251 252
251 456
254 255
254 272
254 400
254 401
254 456
255 259
255 270
255 271
255 272
255 387
255 456
256 259
256 263
256 264
256 265
256 266
256 267
256 283
256 385
256 387
256 842737
259 387
259 456
259 842737
261 262
261 263
261 264
261 265
261 302
261 842732
261 842737
262 265
262 301
262 302
263 264
263 842737
264 265
265 283
265 299
265 300
265 301
266 267
266 270
266 273
266 385
266 386
266 842740
266 842741
267 273
267 282
267 283
267 842738
270 271
270 386
270 387
270 842741
271 272
271 273
271 842740
271 842741
273 274
273 842738
273 842739
273 842740
274 275
274 277
274 278
274 282
274 842739
275 276
275 277
275 281
275 282
276 277
276 278
277 278
281 282
281 286
281 842743
282 283
282 284
282 286
282 292
282 842738
282 842739
283 284
283 285
283 299
284 285
284 292
285 292
285 299
286 291
286 292
286 481
286 486
286 842743
286 842744
286 842745
291 292
291 298
291 361
291 486
292 297
292 298
292 299
293 294
293 295
293 298
293 361
294 295
294 296
294 298
295 296
295 306
295 307
295 359
295 360
295 361
296 297
296 298
296 300
296 305
296 306
296 322
297 298
297 299
297 300
298 361
299 300
300 301
300 302
300 303
300 305
301 302
302 303
302 304
302 842732
303 304
303 305
303 322
304 842732
305 322
306 307
306 309
306 313
306 322
306 842733
306 842734
307 346
307 358
307 359
307 842734
309 310
309 313
309 842733
310 311
310 312
310 313
310 316
310 317
310 345
310 346
310 842733
310 842734
311 312
311 313
311 318
312 317
312 318
313 314
313 318
313 320
313 322
314 315
314 320
315 320
316 317
316 343
316 345
317 318
317 319
317 459
317 842760
317 842761
318 319
318 320
319 320
319 459
320 321
320 459
321 459
323 331
323 332
323 370
323 453
323 842720
323 842721
325 326
325 327
325 331
325 370
325 372
325 449
326 327
326 329
326 331
326 472
327 329
327 348
327 350
327 372
327 842764
327 842765
329 350
329 355
329 472
329 842765
331 332
331 333
331 334
331 370
331 472
331 842720
331 842721
332 333
332 338
332 470
333 334
333 470
334 470
334 472
334 473
334 474
338 339
338 470
339 342
339 470
339 842779
339 842780
342 343
342 344
342 346
342 471
342 842779
342 842780
343 344
343 345
344 345
344 346
345 346
346 358
346 471
346 842734
348 349
348 350
348 372
348 432
348 842725
348 842726
349 350
349 365
349 432
349 439
350 351
350 352
350 353
350 354
350 355
350 365
350 842764
350 842765
351 352
351 365
351 367
352 353
352 364
352 367
353 354
353 356
353 359
353 364
353 471
354 355
354 470
354 471
354 472
354 473
354 474
355 472
356 357
356 359
356 471
357 358
357 359
357 471
358 359
358 471
359 360
359 364
360 361
360 362
360 364
361 362
361 486
361 842730
361 842731
362 364
362 436
362 437
362 484
362 842730
364 367
364 436
364 437
364 488
365 367
365 439
365 475
365 842728
365 842729
367 488
367 842728
369 370
369 374
369 380
369 381
369 451
369 453
369 842714
369 842715
370 449
370 451
370 453
370 842720
372 449
372 842722
372 842725
374 375
374 378
374 453
374 842714
374 842772
374 842773
375 377
375 378
375 379
375 380
375 842714
375 842715
377 378
377 379
379 380
379 423
380 381
380 384
380 423
380 842715
381 383
381 384
381 451
382 383
382 384
382 425
382 450
382 842716
383 384
383 450
383 451
384 423
384 842716
384 842717
385 386
385 387
386 387
388 409
388 842750
389 390
390 410
390 842750
390 842751
392 394
392 416
392 419
392 420
392 421
392 468
394 467
394 468
396 397
399 404
399 842746
400 401
400 402
400 403
401 402
401 403
402 403
402 842746
403 842746
404 405
404 842790
404 842791
405 406
405 842790
405 842791
406 842747
408 842749
409 410
409 842750
409 842751
410 842751
412 413
412 414
412 443
413 414
413 416
413 417
413 418
413 419
413 420
413 443
414 415
414 416
415 416
416 420
416 421
417 418
417 443
417 468
418 419
418 468
419 420
419 468
423 842717
425 448
425 450
425 842727
432 842723
432 842726
433 481
433 487
433 842745
436 437
437 484
437 488
439 475
440 842769
440 842770
441 442
441 467
441 842694
441 842695
442 443
442 467
442 468
443 468
444 445
444 842776
445 446
446 842697
446 842698
448 449
448 450
448 842719
448 842727
449 451
449 842718
449 842719
449 842722
449 842727
450 451
450 842718
450 842719
451 842718
453 842772
456 842735
456 842737
457 842710
460 461
467 468
470 471
470 474
470 842779
471 842779
472 473
473 474
475 487
475 488
475 842728
475 842729
481 482
481 484
481 486
481 487
481 488
481 842745
482 484
482 488
484 486
484 488
484 842730
486 842731
487 488
488 842728
842691 842692
842691 842693
842692 842693
842694 842695
842694 842696
842695 842696
842697 842698
842699 842700
842701 842702
842703 842704
842703 842766
842704 842766
842704 842767
842706 842766
842706 842767
842708 842709
842710 842711
842712 842771
842712 842772
842712 842773
842714 842715
842716 842717
842718 842719
842720 842721
842722 842723
842722 842724
842722 842725
842722 842727
842723 842724
842723 842726
842723 842727
842724 842725
842724 842726
842725 842726
842728 842729
842730 842731
842732 842735
842732 842736
842732 842737
842733 842734
842735 842736
842735 842737
842738 842739
842740 842741
842743 842744
842744 842745
842747 842748
842750 842751
842752 842753
842752 842754
842753 842754
842753 842755
842754 842755
842756 842757
842758 842759
842760 842761
842763 842792
842764 842765
842766 842767
842769 842770
842771 842772
842771 842773
842772 842773
842776 842777
842777 842778
842779 842780
842790 842791
