ply
format ascii 1.0
comment Exported from MorphoGraphX 2.0 1-254
comment Cellular mesh
element vertex 552
property float x
property float y
property float z
property float signal
element face 278
property list int int vertex_index
property int label
end_header
-42.6118 14.4442 -5.93825 42207.7
-40.7518 14.9209 -3.66626 54752.9
-40.6681 15.3579 -3.76072 54177.3
-42.3531 16.0443 -5.80854 58217.5
45.8585 -22.0045 -4.21203 52719
45.6288 -15.5882 -2.77273 52764.5
44.2312 -15.9304 -2.19694 56144
42.7647 -16.9468 -1.79205 51487.6
43.8751 -21.8855 -3.24309 51645.2
-6.66812 49.644 -4.04427 59390.8
-6.67667 47.8538 -3.39218 59626.9
-4.6756 45.9487 -2.93858 54067.6
-1.38798 48.7051 -4.72085 55211.1
-1.30826 50.0005 -5.70973 52920.8
-4.22073 50.8341 -5.44583 58907.7
-0.490012 42.1726 -1.18331 59740.8
-1.07489 42.201 -1.18607 61687.1
-5.7333 38.3421 0.0432387 55404
-4.31039 36.2824 1.00891 60021.4
0.0399706 38.1755 0.648452 61701.7
23.7044 30.3605 1.19595 61553.6
23.9127 27.1919 1.97713 59659.8
26.8051 25.4779 1.66622 54029.7
30.2158 29.289 -0.15077 59366.3
4.68095 36.9219 1.1108 60884
4.27945 37.8438 0.70929 56139.4
-4.57608 33.2013 2.10262 57868.2
-2.69655 31.8758 2.79197 58492.1
-0.488877 25.5665 4.90421 56930.4
-4.83449 21.4647 5.3964 63702.2
-4.76487 19.0513 5.87775 61297.6
-2.20465 17.2188 6.4993 64917.6
3.15844 22.2382 5.79202 61799
1.99582 14.1958 6.78994 61779.4
-1.29213 15.7196 6.77009 64399.2
-5.68526 10.387 6.88478 64209.6
-4.5172 8.50202 7.0759 64855.7
-1.9634 7.99482 7.1585 62957.7
2.45562 12.7197 6.82056 60435.6
2.46418 -13.3347 6.54703 58394.4
-1.22387 -11.4304 6.80629 64581.9
-6.02373 -17.6221 5.83121 56963
-4.3279 -19.515 5.54128 55463.3
-1.34918 -18.9381 5.78787 57371.1
1.74693 -16.9153 6.12758 57121
26.4817 -9.10713 4.0904 37946
30.5162 -3.60207 3.41376 51598.9
29.319 -1.94993 3.75533 52558.2
26.6248 -1.0239 4.41485 48221.2
23.9234 -5.96232 4.94824 54521.5
-5.96124 -44.9913 -2.87074 52425.8
-1.37351 -48.4202 -3.79512 46912.2
2.20944 -46.5467 -2.88677 44546.1
1.85154 -44.6349 -2.06664 45237
-1.01125 -42.7409 -1.22172 43382.7
-4.58736 -42.9073 -1.68173 47379.5
-7.48544 52.4199 -5.6985 47495.6
-7.71773 51.6883 -4.73071 54005.6
-6.73779 38.5554 -0.160111 54510.8
-5.15524 44.2282 -2.20197 55601.1
-8.00008 40.7854 -1.08654 54304.5
23.5261 -26.6128 1.98255 49799.9
27.1706 -30.3184 0.157289 50697.1
31.2993 -26.7299 0.0195264 55204.5
27.3462 -23.316 1.86409 48369.9
23.603 -25.5968 2.2435 48757.8
-9.57934 30.5657 2.38513 58401.8
-9.71914 29.3235 2.76541 61216.9
-5.5823 27.5532 3.81584 65510.3
-2.45423 30.4769 3.26524 56847.6
-0.0480772 27.0919 4.51387 61182.2
-0.282211 29.7361 3.68333 53949.4
-7.59424 23.4532 4.58412 59815.3
-8.58458 15.9894 5.89505 64001.3
-9.1393 12.7917 6.2698 62208.2
-6.48938 2.35129 7.223 58581.6
-4.89931 0.820875 7.33572 59033.1
-1.86107 0.640735 7.34981 56721.6
1.00801 4.93767 7.1664 60552.4
-8.15844 -5.16317 7.11683 65397.3
-5.56335 -8.02556 7.04824 64775
-3.87553 -7.98972 7.08581 59856.3
-2.31515 -5.56946 7.21521 60927.5
-0.530477 -1.57975 7.29334 57846.2
-9.43647 -12.5007 6.43539 59563.4
-8.38607 -16.2874 5.98489 58383.5
-4.0226 -30.3982 3.21861 57084.1
-0.513784 -28.1259 3.84359 54547.6
-0.785474 -26.5967 4.20826 55668
-5.4977 -23.0312 4.76908 57676.7
-8.38993 -24.7399 4.27592 57305.1
-26.6367 11.0653 3.56334 60536.8
-25.6714 14.2476 3.15272 59788.9
-29.4587 16.3562 1.51771 59051.5
-32.2416 15.6084 0.591447 52855.4
-33.203 13.1454 0.815037 58267.7
-30.3664 11.4391 2.48652 63477.9
-32.556 6.38047 2.81823 59067.3
-30.4882 5.15101 3.57626 58097.5
-29.2457 5.16377 3.86989 55963.8
-26.1308 9.62162 3.96299 58941.8
5.42894 40.6758 -0.701691 59713.7
2.54488 43.9413 -2.27134 58131.8
36.0591 -12.5521 1.32478 53142.9
35.6248 -17.5839 0.695025 53994.5
37.5412 -17.8232 0.00504989 56505.9
41.2951 -15.893 -1.01361 47694.2
39.9004 -11.6335 0.116119 47318.5
-14.6009 37.6657 -0.40589 51326.8
-10.3205 41.0697 -1.25262 55286.4
-11.0584 45.1149 -2.16967 61935.2
-13.0037 46.6339 -2.15067 57936.4
-16.3871 44.4848 -1.32096 58845.8
-16.5954 38.7683 -0.599061 55216.4
21.0889 -46.3374 -4.94019 43218.7
22.3617 -43.3989 -3.64799 52489.1
19.0004 -39.3967 -1.26809 52871.9
16.1613 -38.2307 -0.340593 51141.3
13.4336 -40.3171 -0.750784 52761.6
13.3 -44.3355 -2.26826 50938.5
-29.1919 21.5075 0.256868 54451.1
-27.9416 24.0128 0.0223405 49205.5
-29.5424 25.7602 -0.849938 48137.2
-32.6152 24.9419 -1.80148 46661.6
-33.2073 21.0765 -1.33711 56954.5
-33.0747 -1.33033 3.15682 60473.1
-31.1049 -2.73105 3.67228 53470.1
-28.6834 -1.81428 4.28428 55895.9
-27.2003 1.79046 4.52406 54924.4
34.4693 -12.3416 1.85037 50376.1
30.0455 -14.4414 2.71849 48749.3
32.1217 -18.3824 1.55208 49143.9
13.255 -19.786 5.17817 58014.9
12.6323 -22.9143 4.65551 57404.4
15.6909 -24.5718 3.98232 61954.5
21.0785 -22.1036 3.58053 59840.7
21.3628 -19.7224 3.91226 52635.9
19.0989 -17.4603 4.61104 52637.7
31.8084 -19.7087 1.38748 48439.8
34.3947 -24.4532 -0.368055 47845.3
36.3368 -25.361 -1.23596 47108.6
38.3881 -24.1636 -1.66084 50926.9
5.41843 32.2266 2.89095 58309.7
6.00694 35.7455 1.55942 61020.2
-28.9931 45.9318 0.405943 49185.2
-26.2935 49.4073 -0.0243595 58109.1
-31.1058 54.5606 -1.87719 57962.7
-34.0144 54.1453 -2.32287 58102.8
-35.6975 49.369 -1.37397 56044.1
-32.4728 46.7183 0.00311498 56090.8
15.4191 40.7688 -1.45021 66425.4
11.9867 45.1593 -3.66767 61966
9.15432 43.8442 -2.57001 62526.8
8.50028 42.6034 -1.8184 59226.2
10.5271 39.4724 -0.200712 65253.6
39.7786 25.8206 -2.60247 50592.3
44.6417 26.2661 -4.71543 39607.8
45.3993 27.7442 -5.85019 40735.4
40.7921 32.71 -5.53375 44437.8
38.0144 32.5027 -4.09512 52122.1
36.6387 30.6114 -2.90541 49579.8
10.8588 36.6203 0.990774 60313.7
13.091 35.5184 1.16649 62709.9
17.0062 35.6695 0.493023 58520.4
17.8184 38.8806 -1.00513 57419.9
-16.2184 -45.1324 -5.88206 52804.4
-13.057 -41.6657 -2.6754 54476.5
-15.6096 -37.5218 -1.16108 53590.6
-19.4179 -37.9785 -2.76222 52449
-20.5272 -40.9439 -4.71313 52873.1
-20.0862 -43.1134 -5.77612 45723.8
-36.7749 41.8718 -1.19567 60292
-36.0062 39.9133 -1.42385 57999.9
-32.8421 38.0761 -0.974043 54315.2
-31.4456 38.9554 -0.280803 55203.3
-27.6902 43.6691 0.505562 49523.6
-25.0381 43.2771 0.328276 51533.3
-20.0434 47.6459 -0.718144 62528.3
-21.0545 50.3286 -0.836528 60625.9
-22.9874 51.3823 -0.734056 60599.7
14.5094 23.6546 4.49218 61034.9
14.3175 28.4734 3.3384 58947
10.9363 30.3432 3.14043 60352.8
9.14798 30.022 3.39903 59260.3
7.21629 26.5609 4.61979 62968.6
7.22999 26.0958 4.75052 64574.3
10.6898 22.5884 5.20072 63842.1
-28.2343 -24.9287 -0.314332 54719.7
-25.714 -20.6184 2.03962 51136.1
-28.8162 -17.8297 2.0631 54060.2
-32.3499 -19.3982 0.227524 53852.5
-34.1859 -21.0971 -1.5404 55370.2
-31.3261 -24.7932 -1.68389 55664.3
-28.556 -13.3151 3.40986 51377.4
-26.9296 -12.5491 4.04503 59821.6
-26.153 -11.1589 4.44435 56717.7
-28.9895 -8.063 4.12247 65192.3
-31.5608 -6.11445 3.41217 53709.6
-33.6786 -9.36507 2.38931 54254.4
-32.6929 -11.7951 2.32852 57322.9
35.3662 -39.0544 -5.44214 55615.3
40.0987 -36.1047 -5.68139 42956.7
36.7631 -33.7739 -3.26295 46584.4
34.5452 -35.728 -3.21774 57474.1
8.99538 5.9321 6.52614 55997.9
10.3835 2.5547 6.61357 56121.6
14.3832 2.72588 6.50039 55513.6
16.5934 3.12341 6.30447 57804.2
18.4965 3.55886 6.00958 48331.7
19.4889 6.33352 5.67023 48120
19.1907 7.11678 5.66547 52721
13.8753 8.21735 6.17565 63234.6
-35.184 11.7294 0.260253 56141.3
-35.7872 9.37316 0.682111 52844.3
-32.733 6.3041 2.77063 58351.1
27.7932 -21.7706 2.08992 52921.5
36.0983 -29.7378 -2.10907 53669.5
27.7769 -31.5587 -0.328101 47926.6
11.1602 -8.87502 6.77535 63007.9
13.0564 -7.8906 6.66517 55264.9
14.5002 -5.00181 6.66539 56565.8
13.097 -3.08291 6.85834 60498.2
11.2479 -2.4406 6.93999 60565
8.21027 -5.34804 7.19328 65441.6
16.3398 -11.3029 5.9525 58971.3
17.4325 -11.3629 5.78112 58078.9
22.6432 -5.59893 5.26108 54041.3
21.1538 -3.3147 5.6576 49613.2
17.5799 -4.11999 6.28373 63083.7
46.3803 22.0298 -4.04901 48483.3
48.7525 17.5342 -4.17582 43761.7
51.2579 18.3884 -5.60345 45033
-19.0323 46.84 -0.887076 59550.6
-13.2194 51.8212 -3.21507 58532.2
-12.9362 53.8569 -5.71262 40286.3
-14.9311 54.7479 -5.76065 40833.5
9.1085 0.57929 6.80153 53996.9
42.8742 20.0832 -2.15701 53999.5
45.3044 15.5673 -2.33661 54596
48.3448 16.6086 -3.82675 47135.8
-37.0712 -24.9066 -5.03812 46312
-33.3009 -28.6529 -4.60461 47290.2
-36.5186 -21.205 -3.18297 48951.8
5.15313 -10.6871 6.74459 56801.6
4.69012 -7.09619 7.05453 57699.7
3.7672 -6.25752 7.10474 61146.7
20.7076 -14.5532 4.70547 53580.5
10.065 -15.7487 6.11313 62526.5
-34.6827 29.3902 -2.77754 52545.5
-34.3309 28.6458 -2.66341 52485.5
-29.5287 30.0463 -1.29222 50496.2
-28.5384 32.3499 -1.06932 45263
-30.2542 33.4728 -1.34961 51202.1
-32.904 33.6867 -2.04296 48376.8
-33.825 33.1151 -2.33772 50271.8
-37.405 -4.23688 1.49376 54278.2
-37.1122 -8.35764 1.17957 52401.8
-35.565 -0.318117 2.26191 52957.9
-36.0947 -0.383323 2.03797 49227.3
-39.8809 44.7929 -2.32388 54627.4
-38.9477 48.2652 -2.15446 57511.1
12.5011 13.7413 5.99608 55511.1
17.0815 15.1932 5.37881 55027.7
17.6666 18.6584 4.84818 55234.7
16.202 20.1021 4.85673 60668.7
9.50844 16.3807 6.03957 63492.4
10.1129 14.1713 6.14413 61939.3
45.2961 -28.9905 -5.64729 41676.4
43.2344 -27.2714 -4.02818 53296
36.6841 -30.6971 -2.48021 51161.7
12.223 -32.9628 2.03127 53500.8
11.1298 -30.596 2.90595 55705.8
9.55379 -29.3966 3.39022 53950.4
5.07391 -31.5361 2.95835 53544.7
3.53495 -35.6856 1.77817 49024.7
7.56602 -37.3359 1.0834 50944.1
-35.1341 3.20913 2.31393 56955.7
-35.4398 -14.13 0.739513 56889.1
-34.9614 18.1876 -1.52663 52287.3
-37.6718 18.5791 -3.00464 53067
-38.9617 12.9601 -2.02136 56291.3
15.3603 -34.4933 1.11445 49603.2
8.80555 -39.1643 0.347616 54127.4
-25.4922 58.5009 -5.76498 54279.3
-26.5693 56.9623 -2.87627 52252
-23.3161 53.9003 -1.40298 63320
-20.4828 57.0029 -5.64235 41460.2
-38.9426 7.35861 -0.424988 54886.6
33.8298 22.3763 0.471593 59467.4
38.6898 20.6399 -0.74081 46958.8
39.722 21.65 -1.36462 43906.2
33.3586 29.5743 -1.33057 49121.9
-37.4759 57.5504 -5.99997 59696.6
-29.7251 55.7569 -2.21635 55969.1
-31.7712 59.8298 -5.7629 40429.4
-39.7885 28.9041 -6.03302 51849.2
-38.7081 33.7248 -3.87386 51332
-40.5196 32.2564 -5.83888 35162.6
-40.9124 6.20255 -1.4576 49992.8
-41.0346 2.11462 -0.665229 45696.5
34.528 15.5623 1.51186 56415.3
38.4545 16.3 0.141254 48391.3
32.2495 21.5966 1.12063 59689.2
-15.2442 13.1216 5.6225 61028.2
-13.9363 11.7236 5.96598 63991.4
-12.1188 10.811 6.23514 60524.3
-12.8386 19.7026 4.78375 63387.2
-14.3778 18.8801 4.75911 60171.5
16.893 -27.0857 3.22001 59518.1
11.0032 -23.7964 4.61224 57209.8
9.49134 -27.7378 3.83636 57494.2
-37.3495 -15.0759 -0.656753 52854
-39.2771 -9.02845 -0.0609121 51354.3
13.3702 -50.9856 -5.93789 40181.6
17.9952 -48.628 -5.61005 33989.9
11.7878 -47.0814 -3.29849 45251.6
11.0997 -48.9838 -4.19144 44524.9
-39.2679 -18.5675 -3.98013 52831.7
-39.3859 -17.513 -3.48665 52388.6
21.4304 0.660247 5.563 46509
-40.2863 36.1252 -4.05447 58184.7
-24.8177 33.6128 -0.36779 42862.3
-23.3039 32.3542 -0.139105 47060.2
-15.936 35.0931 0.199222 52836.4
-21.208 38.4901 -0.234367 49985.6
-23.4903 36.2867 -0.118857 50150.9
3.99998 22.0353 5.79357 60037.5
8.41005 -49.9664 -4.48349 38188.4
8.44334 -52.3659 -5.89271 42245.6
7.75512 -11.5833 6.62022 53774.4
-15.8584 34.4829 0.36064 55041.7
-11.7628 33.1657 1.18081 57209.2
5.12786 -19.3497 5.76526 60926.6
-39.2319 20.8645 -4.49944 53056.1
-34.4657 25.8831 -2.65702 50045
-38.1388 25.1164 -4.4778 49459.6
-42.0314 52.5559 -5.87596 58979.1
30.463 34.5275 -2.03865 57086.2
31.3544 30.3013 -0.831587 57768.6
36.9289 35.9446 -5.37895 42849.7
6.54403 -41.879 -0.474765 54130.1
6.16061 -42.9457 -1.02422 51616.9
11.5135 -45.8304 -2.71615 48096.1
-41.7332 36.5649 -4.99165 45064.2
-42.3396 36.7559 -5.93704 45323.3
47.2643 3.4744 -2.1401 54421.5
46.0562 8.89472 -1.91278 56642.9
42.3315 8.9241 -0.452326 48941.1
41.4268 8.14597 -0.0566473 45347.8
41.9841 3.20557 -0.0786568 44091.4
43.9491 2.1194 -0.792484 44160.3
33.8564 -7.90255 2.49339 56430.9
33.42 -7.71628 2.61892 59516.4
28.0546 -10.8583 3.59973 50416
28.7751 -13.8294 3.08619 48028.4
5.1313 -48.9174 -3.84943 45015.1
-40.1326 21.2758 -5.7322 38817.2
-23.897 -27.3715 0.405988 57206.8
-20.7082 -31.6295 -0.134324 53572.9
-18.3386 -30.4064 1.10098 54824.5
-17.2732 -27.9579 2.13655 52775.2
-20.6495 -25.2973 2.0377 54387.2
29.7753 8.696 3.55086 60139.7
30.1255 4.73663 3.63853 56446.1
31.5129 4.15871 3.29372 55684.8
33.9086 4.20544 2.58859 53852.8
36.0732 8.65835 1.78374 55681
34.657 10.9711 2.04451 57610.8
3.06065 -52.4263 -5.82584 38872.4
3.37943 -3.20525 7.19539 54791.5
1.37668 -2.00779 7.25388 59377.6
3.9828 5.6059 6.95057 59226.5
6.72106 7.44977 6.64832 58535
6.28327 10.734 6.55711 57555.4
-2.70315 -51.6942 -5.83879 41575
-41.2748 -8.93021 -1.58747 48758.5
-43.3988 -3.94542 -2.23171 54186.2
-44.0295 -4.22361 -2.88429 51456.8
36.5679 1.30507 1.65279 45869.1
31.5472 -3.57023 3.14268 53221
36.0627 -0.66725 1.79465 48451.3
-25.8621 -37.299 -5.21288 50229.4
-26.486 -37.6426 -5.91322 49812
-38.4051 -25.5901 -6.05249 41475.6
-40.3977 -18.7306 -5.7136 52877.6
-41.7917 7.00265 -2.26705 58200.5
-43.7557 7.74911 -4.03537 57742.8
-46.0872 1.79286 -4.59839 60336.3
-43.482 0.498624 -1.99547 45382.8
6.01193 -21.67 5.3488 57636.2
3.44249 -24.2943 4.93108 59045.6
-42.4812 -14.1877 -6.001 21183
-44.3458 -10.2246 -6.0727 23656.7
-31.8416 -32.187 -5.96488 47554.9
-31.4598 -30.9228 -4.81932 45159.9
23.712 11.0704 4.73977 55866.8
24.6803 5.78912 4.78946 62262.5
26.4987 3.45833 4.4461 54218.8
27.6828 12.3908 3.68781 54768.5
24.5217 12.0268 4.47452 57029.4
-44.8358 8.41008 -5.76667 44654.7
24.6775 -17.941 3.46215 56529.7
50.4306 11.0716 -4.16447 53770.1
41.9183 12.8328 -0.690329 50679.9
21.7127 -47.084 -5.85664 52324.2
-12.6595 -18.8591 5.303 58099.6
-10.0346 -24.5545 4.20414 58885
-11.681 -17.6572 5.61935 61792.9
27.3417 -42.4606 -4.55249 54426.6
29.9997 -38.882 -3.34266 51132.6
30.2755 -37.1119 -2.66741 43289.6
28.8677 -35.7698 -1.85866 54552.8
21.9265 -37.3031 -0.914702 57132.4
2.05013 -24.257 4.91308 59428
-4.98217 -32.2383 2.71526 51860.5
1.23391 -36.9248 1.55924 45772.6
5.88816 -0.321445 7.07211 57850.9
4.76917 2.68361 7.06099 66035.8
-39.6738 25.7872 -6.00539 39633
33.5253 -40.8114 -5.83185 54929.1
-25.9 -4.32385 4.95768 63937.3
-29.1726 -31.099 -3.72868 48387.5
-27.6962 -30.5896 -2.73275 48027.1
-27.034 -27.6111 -0.962208 49325.4
27.9165 21.7697 2.19703 58409.4
38.7504 -5.67942 0.956218 48493.7
38.9076 -4.49463 0.941929 49538.6
-45.3835 -4.39058 -5.9214 56653.5
2.47052 46.2865 -3.57853 59357.5
22.603 44.4098 -5.50329 63906.9
22.3446 43.042 -4.33349 62944.1
28.1046 39.0632 -3.45642 61423.8
29.882 41.0162 -6.02167 57975.3
7.62542 18.8037 5.963 61884.8
16.0877 22.4116 4.49412 60204.6
-9.88755 -49.1268 -5.9123 39394.8
-8.17677 -45.6656 -3.7143 49865.4
-11.3382 -41.4944 -2.14069 56805.7
5.10595 48.4463 -5.1334 61312.8
5.12067 49.2791 -5.83453 61665.9
-46.9989 1.89215 -5.92331 57900.2
41.0683 -9.07575 -0.0927953 49287.5
28.0523 -43.6742 -5.84758 55450.5
44.2325 -2.25943 -0.970035 52808.4
28.3626 36.0915 -2.09984 60847.5
25.2218 34.9236 -0.775675 62457.8
23.1615 32.089 0.756684 57493.7
-42.8465 42.5671 -4.20687 54668.1
-44.257 42.4859 -6.02476 44963.9
12.4647 47.1278 -5.36486 59658.5
26.8304 20.3266 2.74399 57685.8
29.0681 14.4588 3.12172 57934.1
33.2797 14.3008 2.05367 50950.6
0.769774 -39.706 0.651619 51130.8
0.369014 -38.9517 0.963565 51055.9
47.7243 -22.6438 -5.8318 49603.8
41.342 -24.1637 -2.72383 44914.4
5.11081 19.4343 6.0788 60267.4
-18.6282 -19.8587 4.12674 58947.8
-17.26 -18.1238 4.77072 59187.3
-18.2789 -14.844 5.21002 61701.5
-20.2676 -13.6975 5.07306 62191.2
-22.9923 -16.3523 4.15017 61448.6
-23.9432 -20.0031 2.79308 53607.9
-21.1493 -21.2998 3.15922 53171.4
47.7976 3.22885 -2.38901 53700.2
50.7419 3.91235 -3.89922 52309.6
52.5968 7.33878 -5.53222 32794.8
52.448 11.1595 -5.64486 42243.9
-28.5779 19.9059 0.901419 57218.5
27.5528 -32.7247 -0.598479 46768.6
36.935 36.062 -5.47849 43276
51.2774 -13.5198 -5.66229 46312.8
48.629 -12.5603 -3.90482 44207.2
46.0292 -7.69728 -2.20048 47869.7
47.0147 -7.90431 -2.70318 48577.2
50.2493 -5.68437 -4.25744 48486.8
-12.5406 -26.3148 3.44369 54739.1
-13.2874 -27.5657 2.99529 57093.5
-10.4441 -33.9796 1.46163 48350.8
-9.91812 -34.3812 1.40312 45877.4
19.2539 -31.5388 1.45529 56079.3
19.6572 -28.984 2.17615 54954.1
-13.9754 -35.5776 0.20667 54364.7
-28.838 28.1366 -0.962031 54256.6
-27.6113 36.7605 -0.107182 57150.2
-27.9184 37.2998 -0.0177214 52283.4
-7.89269 -39.5807 -0.444941 50965
-8.03296 -37.7807 0.417015 51000.5
-24.1706 42.1087 0.196015 50788.8
-28.2513 -34.7494 -5.35015 44028
-22.3241 -35.1188 -2.51779 52709.6
-22.5159 -33.1425 -1.62043 47917.5
-14.1838 -10.2895 6.20011 60872
-13.2115 -10.1397 6.33556 61632.9
-9.87219 -4.64151 6.98022 63585.9
-12.6705 -0.793328 6.70939 62383.6
-14.8446 -0.870882 6.4669 63527.5
-17.1517 -2.39118 6.10731 58313.7
-17.7065 -6.41711 5.86061 58285.5
52.0578 -5.72934 -5.72052 53171.5
-16.6891 19.7295 4.1778 62122.8
-20.4228 14.4484 4.38436 61616.3
-19.1478 12.698 4.98034 59767.4
-22.3194 15.6246 3.68156 58038.1
-22.3471 18.8829 2.97532 57637.3
20.4078 42.076 -3.25359 61006.8
19.5538 39.9222 -1.87734 59077.8
19.9677 9.98505 5.41246 51333.4
18.1304 14.1254 5.35585 59597.5
-20.991 20.7471 2.87124 53727.5
-21.952 23.5586 1.85582 56797.8
-25.2131 24.9486 0.628325 51509.7
-24.7409 28.9909 -0.024564 54984
-18.879 27.6619 1.57716 52731.4
-16.4078 27.6023 2.1869 59981.8
-11.7568 32.5162 1.40318 58128.3
-19.6814 30.478 0.739556 51450.5
53.1101 0.585134 -6.0399 43617.7
15.8855 29.5088 2.82137 61752.6
18.3826 32.8884 1.30085 60805.3
16.4473 46.8545 -5.78443 61682.7
43.7209 -9.04457 -1.22347 51540
-22.0238 -9.00429 5.19525 52459.5
-22.4834 -8.82865 5.15833 47666.9
-24.8753 -4.65182 5.09958 60454.3
-20.8788 -0.409666 5.6603 60276.4
-22.0951 1.75762 5.54734 58024.7
-25.2003 2.16586 4.97368 59492.3
-23.9295 8.46863 4.68486 65740.2
-20.6606 8.0196 5.35216 62306.8
23.2674 -34.8464 -0.229914 52076.8
-22.7756 31.0656 0.0664584 47521.6
22.8142 15.3534 4.44331 61249.7
22.2314 19.1321 3.97089 60902.5
-21.2542 41.3421 -0.290486 52887.2
-19.9243 6.62929 5.64625 58705.2
-17.913 44.6548 -1.02863 59182.5
19.9178 24.2157 3.5229 65346.3
20.7742 25.7852 3.01283 65985.1
-15.5197 -12.7136 5.83806 63248.7
-15.8591 4.91317 6.37379 65556.8
-16.9765 5.93321 6.16559 64876.2
-17.7031 20.6523 3.73769 62106.1
-14.4767 26.3248 2.91314 60574.8
23.2882 20.1041 3.58628 63468.4
-11.828 50.6359 -3.14572 56625.6
-11.5546 5.80312 6.67961 63726.1
-10.3945 23.494 4.19969 62127.1
-11.6254 25.9656 3.41164 53657.9
-10.4145 3.2069 6.84258 59265.8
25.1542 1.51093 4.7353 50667.2
7 395 396 397 363 362 398 399 5725
6 266 373 372 204 211 261 5751
7 273 272 310 390 413 88 87 5842
6 83 370 417 371 78 77 5727
5 19 25 101 102 15 5508
7 350 443 474 475 476 465 345 5599
6 380 379 352 351 425 426 5594
7 428 12 11 59 16 15 102 5596
4 375 377 427 392 5600
4 429 430 431 432 5527
6 427 377 376 388 387 440 5728
5 13 12 428 438 439 5512
7 222 236 416 369 245 244 223 5830
4 310 309 389 390 5677
6 299 298 385 386 387 388 5736
4 440 387 386 400 5731
6 389 309 133 132 247 332 5809
6 302 424 450 451 452 300 5729
4 368 328 327 355 5700
5 368 355 52 51 374 5847
7 291 338 23 22 424 302 288 5721
6 186 433 265 264 434 180 5766
6 391 318 311 312 375 392 5735
8 53 52 355 327 316 315 342 341 5705
7 378 365 364 47 46 379 380 5760
6 375 312 256 255 376 377 5611
5 388 376 255 258 299 5612
5 142 71 70 184 183 5614
6 345 346 347 348 349 350 5603
4 417 370 369 416 5601
4 419 409 408 442 5525
7 23 338 337 444 445 446 20 5841
6 400 386 385 280 1 0 5607
7 416 236 205 204 372 371 417 5845
5 341 340 453 54 53 5602
7 282 275 274 415 454 453 340 5710
4 344 343 447 448 5732
6 455 4 8 456 268 267 5828
5 448 447 259 260 336 5742
5 419 200 203 410 409 5491
6 87 86 414 415 274 273 5724
5 326 457 433 186 185 5741
5 367 452 451 398 362 5713
6 438 428 102 101 153 152 5531
7 116 115 408 409 410 411 412 5692
5 152 151 449 439 438 5605
7 346 345 465 466 467 468 402 5733
4 384 317 318 391 5604
8 203 202 269 216 217 470 411 410 5757
6 38 37 78 371 372 373 5850
6 432 431 444 337 339 471 5747
7 38 373 266 265 433 457 33 5737
5 472 473 5 4 455 5616
6 385 298 287 213 212 280 5617
5 3 2 279 333 356 5530
5 89 88 413 43 42 5706
6 332 44 43 413 390 389 5726
7 143 161 154 153 101 25 24 5829
6 362 363 364 365 366 367 5648
5 297 296 320 343 344 5740
6 343 320 172 171 259 447 5743
5 336 260 148 147 292 5750
6 44 332 247 329 243 39 5699
4 313 316 327 328 5625
6 185 184 70 28 32 326 5663
6 402 239 238 403 347 346 5624
5 383 240 242 317 384 5609
7 317 242 191 190 277 311 318 5533
4 313 314 315 316 5546
6 311 277 199 198 256 312 5622
6 282 340 341 342 119 118 5613
5 300 301 289 288 302 5768
6 276 287 298 299 258 257 5492
4 287 276 214 213 5534
6 118 117 281 270 275 282 5529
8 212 95 94 278 279 2 1 280 5535
6 216 140 139 63 62 217 5499
7 333 279 278 124 123 334 335 5623
6 270 271 272 273 274 275 5650
4 356 333 335 418 5615
6 418 335 334 249 248 295 5618
5 295 248 254 296 297 5746
6 183 182 162 161 143 142 5543
6 296 254 253 173 172 320 5536
5 259 171 149 148 260 5755
7 243 244 245 82 81 40 39 5849
5 393 394 241 240 383 5744
5 240 241 192 191 242 5621
7 308 134 133 309 310 272 271 5495
6 337 338 291 160 159 339 5493
5 229 237 238 239 230 5795
8 255 256 198 197 126 125 257 258 5628
6 132 137 246 225 224 247 5501
5 224 219 218 329 247 5745
5 157 156 229 230 231 5558
5 223 244 243 329 218 5826
6 218 219 220 221 222 223 5532
5 292 147 146 293 294 5619
5 206 205 236 222 221 5541
5 215 64 63 139 138 5756
5 245 369 370 83 82 5593
8 204 205 206 207 208 209 210 211 5764
6 187 188 189 190 191 192 5497
5 277 190 189 193 199 5626
4 200 201 202 203 5774
7 193 194 195 196 197 198 199 5761
6 261 262 263 264 265 266 5498
6 125 98 97 214 276 257 5753
6 96 95 212 213 214 97 5629
7 180 181 182 183 184 185 186 5754
6 124 278 94 93 469 120 5630
7 171 172 173 174 175 144 149 5759
6 154 161 162 163 164 150 5545
5 150 151 152 153 154 5770
6 144 145 146 147 148 149 5544
7 105 104 131 138 139 140 141 5537
7 394 421 422 423 187 192 241 5635
6 314 404 114 119 342 315 5565
5 420 127 126 197 196 5762
5 104 103 129 130 131 5817
6 125 126 127 128 99 98 5763
6 114 115 116 117 118 119 5642
5 103 104 105 106 107 5556
6 97 98 99 100 91 96 5765
6 91 92 93 94 95 96 5772
6 107 441 425 351 129 103 5652
5 120 121 122 123 124 5636
6 271 270 281 481 482 308 5549
6 123 122 484 250 249 334 5631
7 248 249 250 251 252 253 254 5758
6 173 253 252 485 486 174 5767
5 174 486 489 176 175 5773
4 294 293 284 283 5639
6 138 131 130 354 401 215 5588
4 490 421 394 393 5633
7 382 381 491 492 422 421 490 5551
5 500 476 475 473 472 5542
6 189 188 463 462 194 193 5641
5 378 349 348 366 365 5784
8 367 366 348 347 403 301 300 452 5665
5 93 92 504 505 469 5777
6 261 211 210 508 509 262 5778
7 469 505 510 511 512 121 120 5660
5 512 513 484 122 121 5554
5 251 321 325 485 252 5643
5 465 476 500 518 466 5796
6 145 179 285 284 293 146 5550
6 181 519 520 163 162 182 5779
6 288 289 290 155 160 291 5791
5 422 492 358 357 423 5775
7 357 361 464 463 188 187 423 5653
7 449 151 150 164 507 506 521 5780
6 473 475 474 522 6 5 5524
5 196 195 524 525 420 5644
7 127 420 525 526 527 528 128 5645
5 529 100 99 128 528 5771
8 529 530 503 502 504 92 91 100 5659
6 116 412 531 481 281 117 5785
7 250 484 513 532 322 321 251 5555
6 325 324 535 489 486 485 5649
7 144 175 176 177 178 179 145 5502
6 132 133 134 135 136 137 5560
4 169 168 491 381 5651
5 357 358 359 360 361 5787
5 201 267 268 269 202 5800
7 458 459 460 461 462 463 464 5788
7 220 219 224 225 226 227 228 5789
6 462 461 523 524 195 194 5781
6 524 523 499 498 526 525 5655
6 268 456 141 140 216 269 5647
5 220 228 207 206 221 5776
5 528 527 536 530 529 5646
5 402 468 231 230 239 5689
6 512 511 514 517 532 513 5783
6 141 456 8 7 106 105 5804
6 535 537 232 177 176 489 5661
6 434 538 539 519 181 180 5673
4 283 284 285 286 5786
6 457 326 32 31 34 33 5656
4 170 169 381 382 5503
7 358 492 491 168 167 483 359 5674
6 499 523 461 460 540 493 5668
7 527 526 498 497 541 542 536 5564
6 380 426 443 350 349 378 5782
6 502 501 543 510 505 504 5670
6 544 515 514 511 510 543 5671
5 322 532 517 330 323 5672
6 129 351 352 353 354 130 5860
7 321 322 323 108 113 324 325 5793
5 286 285 179 178 235 5679
6 134 308 482 61 65 135 5664
6 165 166 167 168 169 170 5802
6 361 360 478 477 458 464 5675
5 246 45 49 226 225 5863
5 228 227 319 208 207 5790
6 530 536 542 304 303 503 5797
5 501 502 503 303 307 5799
6 514 515 516 331 330 517 5811
5 533 534 263 262 509 5812
5 112 537 535 324 113 5678
6 155 156 157 158 159 160 5513
6 264 263 534 545 538 434 5814
6 177 232 233 234 235 178 5815
5 46 45 353 352 379 5861
6 519 539 21 20 446 520 5816
5 483 479 478 360 359 5806
6 163 520 446 445 507 164 5690
6 27 69 71 142 143 24 5794
5 458 477 406 405 459 5807
5 405 407 540 460 459 5563
7 493 494 495 496 497 498 499 5808
5 541 547 305 304 542 5682
7 307 306 548 549 544 543 501 5684
7 482 481 531 470 217 62 61 5693
6 232 537 112 111 546 233 5687
5 435 436 437 166 165 5509
8 483 167 166 437 487 488 480 479 5510
7 137 136 401 354 353 45 246 5864
3 466 518 467 5707
6 407 85 84 494 493 540 5691
5 497 496 550 547 541 5810
6 7 6 522 441 107 106 5703
6 319 551 397 396 209 208 5823
7 303 304 305 74 73 306 307 5511
5 508 210 209 396 395 5683
6 426 425 441 522 474 443 5834
5 395 399 533 509 508 5685
6 515 544 549 67 66 516 5819
7 323 330 331 58 60 109 108 5569
6 108 109 110 111 112 113 5813
7 424 22 21 539 538 545 450 5576
5 290 237 229 156 155 5712
8 414 86 90 406 477 478 479 480 5572
6 430 506 507 445 444 431 5520
8 405 406 90 89 42 41 85 407 5822
4 521 506 430 429 5566
5 84 80 79 495 494 5701
6 495 79 76 75 550 496 5579
5 404 442 408 115 114 5818
6 238 237 290 289 301 403 5568
7 305 547 550 75 36 35 74 5575
6 73 30 29 72 548 306 5824
4 411 470 531 412 5832
6 546 111 110 10 9 57 5820
6 47 364 363 397 551 48 5723
6 135 65 64 215 401 136 5571
5 57 56 234 233 546 5694
5 437 436 50 55 487 5696
5 488 454 415 414 480 5836
4 471 339 159 158 5516
6 226 49 48 551 319 227 5574
5 549 548 72 68 67 5825
7 399 398 451 450 545 534 533 5709
7 66 26 18 17 58 331 516 5827
6 109 60 59 11 10 110 5835
5 374 51 50 436 435 5702
6 55 54 453 454 488 487 5580
5 86 87 88 89 90 5581
6 40 81 80 84 85 41 5837
7 77 76 79 80 81 82 83 5838
6 37 36 75 76 77 78 5519
6 35 34 31 30 73 74 5833
7 29 28 70 71 69 68 72 5839
6 66 67 68 69 27 26 5704
5 61 62 63 64 65 5719
5 58 17 16 59 60 5711
4 56 57 9 14 5584
6 50 51 52 53 54 55 5715
5 45 46 47 48 49 5862
6 39 40 41 42 43 44 5848
6 33 34 35 36 37 38 5843
5 28 29 30 31 32 5844
6 24 25 19 18 26 27 5846
4 20 21 22 23 5840
5 15 16 17 18 19 5589
6 9 10 11 12 13 14 5583
5 4 5 6 7 8 5523
4 0 1 2 3 5608
