ply
format ascii 1.0
comment Exported from MorphoGraphX 2.0.1-254
comment Cell Graph: each vertex is a cell, each edge a wall
element vertex 278
property int label
property float x
property float y
property float z
element edge 776
property uint source
property uint target
end_header
5491 0 0 0 
5492 0 0 0 
5493 0 0 0 
5495 0 0 0 
5497 0 0 0 
5498 0 0 0 
5499 0 0 0 
5501 0 0 0 
5502 0 0 0 
5503 0 0 0 
5508 0 0 0 
5509 0 0 0 
5510 0 0 0 
5511 0 0 0 
5512 0 0 0 
5513 0 0 0 
5516 0 0 0 
5519 0 0 0 
5520 0 0 0 
5523 0 0 0 
5524 0 0 0 
5525 0 0 0 
5527 0 0 0 
5529 0 0 0 
5530 0 0 0 
5531 0 0 0 
5532 0 0 0 
5533 0 0 0 
5534 0 0 0 
5535 0 0 0 
5536 0 0 0 
5537 0 0 0 
5541 0 0 0 
5542 0 0 0 
5543 0 0 0 
5544 0 0 0 
5545 0 0 0 
5546 0 0 0 
5549 0 0 0 
5550 0 0 0 
5551 0 0 0 
5554 0 0 0 
5555 0 0 0 
5556 0 0 0 
5558 0 0 0 
5560 0 0 0 
5563 0 0 0 
5564 0 0 0 
5565 0 0 0 
5566 0 0 0 
5568 0 0 0 
5569 0 0 0 
5571 0 0 0 
5572 0 0 0 
5574 0 0 0 
5575 0 0 0 
5576 0 0 0 
5579 0 0 0 
5580 0 0 0 
5581 0 0 0 
5583 0 0 0 
5584 0 0 0 
5588 0 0 0 
5589 0 0 0 
5593 0 0 0 
5594 0 0 0 
5596 0 0 0 
5599 0 0 0 
5600 0 0 0 
5601 0 0 0 
5602 0 0 0 
5603 0 0 0 
5604 0 0 0 
5605 0 0 0 
5607 0 0 0 
5608 0 0 0 
5609 0 0 0 
5611 0 0 0 
5612 0 0 0 
5613 0 0 0 
5614 0 0 0 
5615 0 0 0 
5616 0 0 0 
5617 0 0 0 
5618 0 0 0 
5619 0 0 0 
5621 0 0 0 
5622 0 0 0 
5623 0 0 0 
5624 0 0 0 
5625 0 0 0 
5626 0 0 0 
5628 0 0 0 
5629 0 0 0 
5630 0 0 0 
5631 0 0 0 
5633 0 0 0 
5635 0 0 0 
5636 0 0 0 
5639 0 0 0 
5641 0 0 0 
5642 0 0 0 
5643 0 0 0 
5644 0 0 0 
5645 0 0 0 
5646 0 0 0 
5647 0 0 0 
5648 0 0 0 
5649 0 0 0 
5650 0 0 0 
5651 0 0 0 
5652 0 0 0 
5653 0 0 0 
5655 0 0 0 
5656 0 0 0 
5659 0 0 0 
5660 0 0 0 
5661 0 0 0 
5663 0 0 0 
5664 0 0 0 
5665 0 0 0 
5668 0 0 0 
5670 0 0 0 
5671 0 0 0 
5672 0 0 0 
5673 0 0 0 
5674 0 0 0 
5675 0 0 0 
5677 0 0 0 
5678 0 0 0 
5679 0 0 0 
5682 0 0 0 
5683 0 0 0 
5684 0 0 0 
5685 0 0 0 
5687 0 0 0 
5689 0 0 0 
5690 0 0 0 
5691 0 0 0 
5692 0 0 0 
5693 0 0 0 
5694 0 0 0 
5696 0 0 0 
5699 0 0 0 
5700 0 0 0 
5701 0 0 0 
5702 0 0 0 
5703 0 0 0 
5704 0 0 0 
5705 0 0 0 
5706 0 0 0 
5707 0 0 0 
5709 0 0 0 
5710 0 0 0 
5711 0 0 0 
5712 0 0 0 
5713 0 0 0 
5715 0 0 0 
5719 0 0 0 
5721 0 0 0 
5723 0 0 0 
5724 0 0 0 
5725 0 0 0 
5726 0 0 0 
5727 0 0 0 
5728 0 0 0 
5729 0 0 0 
5731 0 0 0 
5732 0 0 0 
5733 0 0 0 
5735 0 0 0 
5736 0 0 0 
5737 0 0 0 
5740 0 0 0 
5741 0 0 0 
5742 0 0 0 
5743 0 0 0 
5744 0 0 0 
5745 0 0 0 
5746 0 0 0 
5747 0 0 0 
5750 0 0 0 
5751 0 0 0 
5753 0 0 0 
5754 0 0 0 
5755 0 0 0 
5756 0 0 0 
5757 0 0 0 
5758 0 0 0 
5759 0 0 0 
5760 0 0 0 
5761 0 0 0 
5762 0 0 0 
5763 0 0 0 
5764 0 0 0 
5765 0 0 0 
5766 0 0 0 
5767 0 0 0 
5768 0 0 0 
5770 0 0 0 
5771 0 0 0 
5772 0 0 0 
5773 0 0 0 
5774 0 0 0 
5775 0 0 0 
5776 0 0 0 
5777 0 0 0 
5778 0 0 0 
5779 0 0 0 
5780 0 0 0 
5781 0 0 0 
5782 0 0 0 
5783 0 0 0 
5784 0 0 0 
5785 0 0 0 
5786 0 0 0 
5787 0 0 0 
5788 0 0 0 
5789 0 0 0 
5790 0 0 0 
5791 0 0 0 
5793 0 0 0 
5794 0 0 0 
5795 0 0 0 
5796 0 0 0 
5797 0 0 0 
5799 0 0 0 
5800 0 0 0 
5802 0 0 0 
5804 0 0 0 
5806 0 0 0 
5807 0 0 0 
5808 0 0 0 
5809 0 0 0 
5810 0 0 0 
5811 0 0 0 
5812 0 0 0 
5813 0 0 0 
5814 0 0 0 
5815 0 0 0 
5816 0 0 0 
5817 0 0 0 
5818 0 0 0 
5819 0 0 0 
5820 0 0 0 
5822 0 0 0 
5823 0 0 0 
5824 0 0 0 
5825 0 0 0 
5826 0 0 0 
5827 0 0 0 
5828 0 0 0 
5829 0 0 0 
5830 0 0 0 
5832 0 0 0 
5833 0 0 0 
5834 0 0 0 
5835 0 0 0 
5836 0 0 0 
5837 0 0 0 
5838 0 0 0 
5839 0 0 0 
5840 0 0 0 
5841 0 0 0 
5842 0 0 0 
5843 0 0 0 
5844 0 0 0 
5845 0 0 0 
5846 0 0 0 
5847 0 0 0 
5848 0 0 0 
5849 0 0 0 
5850 0 0 0 
5860 0 0 0 
5861 0 0 0 
5862 0 0 0 
5863 0 0 0 
5864 0 0 0 
5491 5525
5491 5692
5491 5757
5491 5774
5492 5534
5492 5612
5492 5617
5492 5628
5492 5736
5492 5753
5493 5513
5493 5516
5493 5721
5493 5747
5493 5791
5493 5841
5495 5549
5495 5560
5495 5650
5495 5664
5495 5677
5495 5809
5495 5842
5497 5533
5497 5621
5497 5626
5497 5635
5497 5641
5497 5653
5498 5737
5498 5751
5498 5766
5498 5778
5498 5812
5498 5814
5499 5537
5499 5647
5499 5693
5499 5719
5499 5756
5499 5757
5501 5560
5501 5699
5501 5745
5501 5789
5501 5809
5501 5863
5501 5864
5502 5544
5502 5550
5502 5661
5502 5679
5502 5759
5502 5773
5502 5815
5503 5551
5503 5651
5503 5802
5508 5531
5508 5589
5508 5596
5508 5829
5508 5846
5509 5510
5509 5696
5509 5702
5509 5802
5510 5572
5510 5580
5510 5674
5510 5696
5510 5802
5510 5806
5510 5836
5511 5575
5511 5682
5511 5684
5511 5797
5511 5799
5511 5824
5511 5833
5512 5531
5512 5583
5512 5596
5512 5605
5513 5516
5513 5558
5513 5712
5513 5791
5516 5747
5519 5575
5519 5579
5519 5727
5519 5838
5519 5843
5519 5850
5520 5527
5520 5566
5520 5690
5520 5747
5520 5780
5520 5841
5523 5524
5523 5616
5523 5703
5523 5804
5523 5828
5524 5542
5524 5599
5524 5616
5524 5703
5524 5834
5525 5692
5525 5818
5527 5566
5527 5747
5529 5549
5529 5613
5529 5642
5529 5650
5529 5710
5529 5785
5530 5535
5530 5608
5530 5615
5530 5623
5531 5596
5531 5605
5531 5770
5531 5829
5532 5541
5532 5745
5532 5776
5532 5789
5532 5826
5532 5830
5533 5604
5533 5609
5533 5621
5533 5622
5533 5626
5533 5735
5534 5617
5534 5629
5534 5753
5535 5607
5535 5608
5535 5617
5535 5623
5535 5629
5535 5630
5535 5772
5536 5740
5536 5743
5536 5746
5536 5758
5536 5759
5536 5767
5537 5556
5537 5588
5537 5647
5537 5756
5537 5804
5537 5817
5541 5764
5541 5776
5541 5830
5541 5845
5542 5599
5542 5616
5542 5796
5543 5545
5543 5614
5543 5754
5543 5779
5543 5794
5543 5829
5544 5550
5544 5619
5544 5750
5544 5755
5544 5759
5545 5690
5545 5770
5545 5779
5545 5780
5545 5829
5546 5565
5546 5625
5546 5705
5549 5650
5549 5664
5549 5693
5549 5785
5550 5619
5550 5639
5550 5679
5550 5786
5551 5633
5551 5635
5551 5651
5551 5674
5551 5775
5554 5555
5554 5631
5554 5636
5554 5660
5554 5783
5555 5631
5555 5643
5555 5672
5555 5758
5555 5783
5555 5793
5556 5652
5556 5703
5556 5804
5556 5817
5558 5689
5558 5712
5558 5795
5560 5571
5560 5664
5560 5809
5560 5864
5563 5668
5563 5691
5563 5788
5563 5807
5563 5822
5564 5645
5564 5646
5564 5655
5564 5682
5564 5797
5564 5808
5564 5810
5565 5613
5565 5642
5565 5705
5565 5818
5566 5780
5568 5624
5568 5665
5568 5712
5568 5768
5568 5791
5568 5795
5569 5672
5569 5711
5569 5793
5569 5811
5569 5813
5569 5827
5569 5835
5571 5588
5571 5664
5571 5719
5571 5756
5571 5864
5572 5581
5572 5675
5572 5724
5572 5806
5572 5807
5572 5822
5572 5836
5574 5723
5574 5789
5574 5790
5574 5823
5574 5862
5574 5863
5575 5579
5575 5682
5575 5810
5575 5833
5575 5843
5576 5673
5576 5709
5576 5721
5576 5729
5576 5814
5576 5816
5576 5840
5579 5701
5579 5808
5579 5810
5579 5838
5580 5602
5580 5696
5580 5710
5580 5715
5580 5836
5581 5706
5581 5724
5581 5822
5581 5842
5583 5584
5583 5596
5583 5820
5583 5835
5584 5694
5584 5820
5588 5756
5588 5817
5588 5860
5588 5864
5589 5596
5589 5711
5589 5827
5589 5846
5593 5601
5593 5727
5593 5830
5593 5838
5593 5849
5594 5652
5594 5760
5594 5782
5594 5834
5594 5860
5594 5861
5596 5711
5596 5835
5599 5603
5599 5733
5599 5782
5599 5796
5599 5834
5600 5611
5600 5728
5600 5735
5601 5727
5601 5830
5601 5845
5602 5613
5602 5705
5602 5710
5602 5715
5603 5624
5603 5665
5603 5733
5603 5782
5603 5784
5604 5609
5604 5735
5605 5770
5605 5780
5607 5608
5607 5617
5607 5731
5607 5736
5609 5621
5609 5744
5611 5612
5611 5622
5611 5628
5611 5728
5611 5735
5612 5628
5612 5728
5612 5736
5613 5642
5613 5705
5613 5710
5614 5663
5614 5754
5614 5794
5614 5839
5615 5618
5615 5623
5616 5828
5617 5629
5617 5736
5618 5623
5618 5631
5618 5746
5618 5758
5619 5639
5619 5750
5621 5635
5621 5744
5622 5626
5622 5628
5622 5735
5622 5761
5623 5630
5623 5631
5623 5636
5624 5665
5624 5689
5624 5733
5624 5795
5625 5700
5625 5705
5626 5641
5626 5761
5628 5753
5628 5761
5628 5762
5628 5763
5629 5753
5629 5765
5629 5772
5630 5636
5630 5660
5630 5772
5630 5777
5631 5636
5631 5758
5633 5635
5633 5744
5635 5653
5635 5744
5635 5775
5636 5660
5639 5786
5641 5653
5641 5761
5641 5781
5641 5788
5642 5692
5642 5785
5642 5818
5643 5649
5643 5758
5643 5767
5643 5793
5644 5645
5644 5655
5644 5761
5644 5762
5644 5781
5645 5646
5645 5655
5645 5762
5645 5763
5645 5771
5646 5659
5646 5771
5646 5797
5647 5757
5647 5800
5647 5804
5647 5828
5648 5665
5648 5713
5648 5723
5648 5725
5648 5760
5648 5784
5649 5661
5649 5678
5649 5767
5649 5773
5649 5793
5650 5710
5650 5724
5650 5842
5651 5674
5651 5802
5652 5703
5652 5817
5652 5834
5652 5860
5653 5675
5653 5775
5653 5787
5653 5788
5655 5668
5655 5781
5655 5808
5656 5663
5656 5737
5656 5741
5656 5833
5656 5843
5656 5844
5659 5670
5659 5765
5659 5771
5659 5772
5659 5777
5659 5797
5659 5799
5660 5670
5660 5671
5660 5777
5660 5783
5661 5678
5661 5687
5661 5773
5661 5815
5663 5741
5663 5754
5663 5839
5663 5844
5664 5693
5664 5719
5665 5713
5665 5729
5665 5768
5665 5784
5668 5691
5668 5781
5668 5788
5668 5808
5670 5671
5670 5684
5670 5777
5670 5799
5671 5684
5671 5783
5671 5811
5671 5819
5672 5783
5672 5793
5672 5811
5673 5754
5673 5766
5673 5779
5673 5814
5673 5816
5674 5775
5674 5787
5674 5802
5674 5806
5675 5787
5675 5788
5675 5806
5675 5807
5677 5726
5677 5809
5677 5842
5678 5687
5678 5793
5678 5813
5679 5786
5679 5815
5682 5797
5682 5810
5683 5685
5683 5725
5683 5764
5683 5778
5683 5823
5684 5799
5684 5819
5684 5824
5684 5825
5685 5709
5685 5725
5685 5778
5685 5812
5687 5694
5687 5813
5687 5815
5687 5820
5689 5733
5689 5795
5690 5779
5690 5780
5690 5816
5690 5841
5691 5701
5691 5808
5691 5822
5691 5837
5692 5757
5692 5785
5692 5818
5692 5832
5693 5719
5693 5757
5693 5785
5693 5832
5694 5815
5694 5820
5696 5702
5696 5715
5699 5726
5699 5745
5699 5809
5699 5826
5699 5848
5699 5849
5700 5705
5700 5847
5701 5808
5701 5837
5701 5838
5702 5715
5702 5847
5703 5804
5703 5834
5704 5794
5704 5819
5704 5825
5704 5827
5704 5839
5704 5846
5705 5715
5705 5847
5706 5726
5706 5822
5706 5842
5706 5848
5707 5733
5707 5796
5709 5713
5709 5725
5709 5729
5709 5812
5709 5814
5710 5724
5710 5836
5711 5827
5711 5835
5712 5791
5712 5795
5713 5725
5713 5729
5715 5847
5719 5756
5721 5729
5721 5768
5721 5791
5721 5840
5721 5841
5723 5725
5723 5760
5723 5823
5723 5862
5724 5836
5724 5842
5725 5823
5726 5809
5726 5842
5726 5848
5727 5838
5727 5845
5727 5850
5728 5731
5728 5736
5729 5768
5731 5736
5732 5740
5732 5742
5732 5743
5733 5796
5737 5741
5737 5751
5737 5766
5737 5843
5737 5850
5740 5743
5740 5746
5741 5754
5741 5766
5742 5743
5742 5750
5742 5755
5743 5755
5743 5759
5745 5789
5745 5809
5745 5826
5746 5758
5747 5841
5750 5755
5751 5764
5751 5778
5751 5845
5751 5850
5753 5763
5753 5765
5754 5766
5754 5779
5755 5759
5757 5774
5757 5800
5757 5832
5758 5767
5759 5767
5759 5773
5760 5782
5760 5784
5760 5861
5760 5862
5761 5762
5761 5781
5762 5763
5763 5765
5763 5771
5764 5776
5764 5778
5764 5790
5764 5823
5764 5845
5765 5771
5765 5772
5766 5814
5767 5773
5768 5791
5770 5780
5770 5829
5772 5777
5774 5800
5775 5787
5776 5789
5776 5790
5778 5812
5779 5816
5781 5788
5782 5784
5782 5834
5783 5811
5785 5832
5787 5806
5788 5807
5789 5790
5789 5863
5790 5823
5793 5813
5794 5829
5794 5839
5794 5846
5797 5799
5800 5828
5804 5828
5807 5822
5808 5810
5811 5819
5811 5827
5812 5814
5813 5820
5813 5835
5816 5840
5816 5841
5817 5860
5819 5825
5819 5827
5820 5835
5822 5837
5822 5848
5824 5825
5824 5833
5824 5839
5824 5844
5825 5839
5826 5830
5826 5849
5827 5846
5829 5846
5830 5845
5830 5849
5833 5843
5833 5844
5837 5838
5837 5848
5837 5849
5838 5849
5839 5844
5840 5841
5843 5850
5845 5850
5848 5849
5860 5861
5860 5864
5861 5862
5861 5863
5861 5864
5862 5863
5862 5864
5863 5864
