ply
format ascii 1.0
comment Exported from MorphoGraphX 2.0 1-254
comment Cellular mesh
element vertex 383
property float x
property float y
property float z
property float signal
element face 191
property list int int vertex_index
property int label
end_header
-41.2541 -13.4113 58.6649 58330
-40.0509 -13.351 59.4035 58819.4
-37.3736 -9.53751 60.64 58195.1
-38.4596 -7.1942 59.7363 46919.2
-41.7351 -7.33798 57.7466 61823.1
18.3448 19.6893 47.2183 56568.1
16.5943 18.4888 49.2455 57865.9
16.1739 16.2228 51.1725 50191.3
17.6083 14.0127 51.5086 51014.6
19.6104 13.6147 50.1599 55469.8
21.5841 14.4523 48.041 56342.4
-42.4698 3.54935 53.4028 48317.9
-39.1807 3.72527 56.2232 59793.4
-36.2703 8.63758 56.1554 58351.1
-37.7785 10.1654 54.3983 53691.8
-44.5794 -7.09179 55.0414 59330.7
-37.8198 -3.47695 59.4371 55620.7
-40.0082 -2.20456 57.7306 57845.6
-43.8114 -0.83723 53.9886 50059.2
-38.4528 -18.3731 60.026 54696.8
-44.6147 -14.484 56.1469 59370.7
-42.7514 -22.2117 56.7077 58313.6
-2.9913 -36.1308 61.1994 57061.8
-2.28791 -35.3845 61.2306 58263.2
-3.96763 -29.9306 63.3839 57141.4
-6.36444 -28.8493 63.995 49426.2
-8.99135 -32.398 63.9895 43860.4
-7.9235 -35.0254 63.0757 49866.9
-5.19599 -40.7038 60.6582 51574.6
-2.78833 -40.91 59.4005 47546.1
-8.69229 -36.7543 62.7606 52935.8
-8.80004 -38.0057 62.504 45899.6
15.3332 -27.188 58.1431 59844.9
16.9613 -29.5779 56.0746 59250.7
21.0738 -26.9451 54.697 58619.9
20.0576 -23.6781 57.2038 59764.5
-7.9254 28.1856 52.9734 56990.5
-6.23802 24.5361 55.1431 56970.4
-4.62147 23.5304 55.507 54383
-1.81936 24.7654 54.2734 55047.3
-3.58925 30.1383 50.2805 53148.8
-4.12484 30.4342 50.109 56679.9
-6.96637 29.8215 51.4656 53357.4
-6.3302 9.40051 61.8427 44586.5
-2.88912 4.7308 62.6882 50628.8
0.491517 6.69486 61.4859 56904.9
-2.35945 10.9781 60.6796 53738.2
-1.70488 -2.52296 64.2181 46553.4
-0.516868 -0.0969493 63.5075 47293.1
-3.01545 3.42928 63.1437 50949.6
-6.84054 2.61282 64.2422 53927.3
-3.8245 -2.89028 64.6691 53057.8
1.00786 -6.76007 64.5722 50154.7
-5.91539 -5.26693 65.3101 49287.8
-4.3711 -9.87206 65.7452 53184
-1.89896 -9.61763 65.3814 54267
5.60938 8.03605 59.8761 52434.1
4.7303 12.0746 58.7127 52429.7
3.00208 13.2991 58.6815 52319
-1.30181 12.288 60.0754 50477.5
1.92571 6.50425 61.2832 55151.6
2.90213 0.276165 62.6473 52204.5
2.35014 -17.3779 64.4922 50199.3
3.9228 -15.0056 64.5014 52317.8
-4.8629 -12.462 65.9882 48177.2
-3.00211 -16.6639 65.3793 50823
-3.70156 14.8337 59.6994 58179.1
-8.72808 13.9476 60.6108 50973.4
-9.10758 12.8054 61.0521 54211
-7.31695 9.48164 61.9477 45810.9
-7.76781 3.06966 64.1859 54772.7
-9.6179 7.8195 62.6644 51086.4
13.3032 -22.298 60.8702 55366.6
13.4759 -26.1557 59.4947 53654.3
19.9231 -21.7883 58.0336 57545.2
17.5289 -19.2924 59.7894 54667.6
22.3612 0.718146 54.4282 55772.6
21.623 2.22133 54.2565 56976.1
16.7356 1.07081 57.8017 54560
17.3628 -2.95074 58.5884 54612.3
20.7814 -4.30669 56.9481 54934.3
22.72 -3.03771 55.328 53598.5
-12.2471 -26.4098 65.1909 59670.7
-13.2017 -31.2887 64.9067 54087.7
-8.11771 -26.0735 64.6113 47563.1
-6.5296 -43.6751 60.0669 54450.1
-12.6286 -38.7553 63.2465 47081.7
-14.4214 -40.9939 63.2948 45802.5
-13.7826 -42.442 62.8925 48591.9
-12.0288 -43.8027 61.8891 48506.9
10.0353 -43.5605 50.2359 57614.2
10.8692 -44.0176 49.2516 60808
17.7777 -38.9941 48.0569 61231.8
17.2476 -37.2332 50.1168 60439.7
16.1927 -36.9192 51.2339 61088
10.5623 -41.2401 51.7733 60378
1.57622 -27.2559 62.743 51909
-0.593287 -24.9141 63.7306 57917.5
-7.41779 -24.4234 64.7834 56568.5
-0.110076 -30.4248 62.2334 52184.5
1.16805 -28.8147 62.4391 55520
-11.9886 33.1844 48.5091 57776.4
-4.74284 33.0987 46.9502 56905.5
-30.6891 -0.24305 61.9891 55208.2
-28.2649 4.82875 61.3823 59364.7
-28.9462 6.84338 60.3199 47266
-32.961 6.67275 58.7451 56171.7
-35.9425 2.88616 58.7195 48562.3
-33.5123 -0.479859 60.8685 56585.1
-11.6742 22.0295 57.0307 51648.4
-11.8726 21.476 57.3132 50996.6
-10.4024 18.8735 58.4955 51581.2
-4.09552 19.3737 57.4346 53147.7
-11.155 16.6625 59.5717 50533.7
-3.02815 18.7699 57.5792 53509.8
-35.3752 -19.1212 61.6943 57749.5
-34.2355 -18.3464 62.331 57710.3
-34.3609 -9.67003 62.1987 59122.4
-30.9293 -17.6914 63.7305 55683.3
-30.3842 -12.8696 63.8436 54296.8
-30.1573 -9.62524 63.8994 51385.9
-32.2841 -9.03928 63.0368 52221.8
-32.3536 -8.98578 63.0067 53021.7
-8.80898 -5.06392 65.6423 45337
-10.8535 1.3809 64.3938 50995
-11.2732 -0.339142 64.8026 55519.3
-6.53061 -12.9802 66.2706 51746.4
-10.4682 -6.59726 66.0275 49697.4
-11.8149 -13.5532 66.6071 51464.9
-8.65699 -13.9663 66.5608 52699.3
-12.657 -7.58973 66.248 49891
-12.8254 -10.4388 66.5703 52542.4
-13.7351 -31.3509 64.9313 52140.3
-14.7492 -33.8566 64.664 55234.1
0.711227 -34.3387 60.3892 54296.7
-16.3044 -35.4437 64.5405 56559.7
-16.2858 -35.8336 64.482 52069.3
18.6669 20.3684 46.5443 53430
13.3596 24.6504 46.4681 56485.9
11.9826 24.066 48.0412 58407.6
11.4384 23.2378 49.2044 59886.6
-12.989 -48.412 59.84 55359.1
-11.3672 -46.2234 60.3366 53684.6
-17.6865 -47.0943 62.0868 49409
-16.7098 -48.0886 61.3932 53785
-14.2719 -53.2906 56.3433 59707.1
-18.6398 -53.0573 57.8215 61259.6
-36.7234 -24.0324 60.6716 54878.4
-41.5696 -24.8133 57.1213 61651.8
-39.0478 -30.4029 58.0629 58692.3
-37.2472 -28.7663 59.6329 58797.1
-35.8834 -27.504 60.6775 55920.7
21.2777 5.9384 52.9234 55609.8
17.3079 7.69439 54.9621 55044
14.1821 5.77526 57.4185 51274
13.4775 4.04589 58.3448 47194.1
15.4435 2.08628 58.1575 55288.6
11.8355 -0.643364 60.8269 58605.9
13.0395 -4.26416 61.1304 50412.6
15.6592 -3.98696 59.859 55505.5
10.8326 -17.0435 62.6244 56979.6
10.764 -20.5757 62.0245 55840.8
17.6809 -14.9216 60.0695 56789
15.4344 -13.1308 61.2571 55317.5
-37.7915 -32.7696 58.7074 60754.2
-33.805 -32.2536 61.3878 58283
-4.15306 -52.9217 50.9191 57690.8
-2.95816 -48.914 54.2669 58909.1
-6.55303 -48.1826 56.9278 61148
-9.59959 -53.7935 53.5498 60538.2
-13.6406 24.5142 55.6968 51943.3
-12.6127 27.3511 53.9782 53576
11.2306 -28.0838 59.2868 55737.5
9.13318 -30.2825 59.1324 53358.4
10.0408 -33.4393 57.1441 59239.3
15.0026 -32.9605 54.8649 57424.5
16.4192 -31.2012 55.4077 61393.6
-33.9705 -1.56203 60.9935 50253.2
-37.7153 3.29879 57.5552 59771.3
-13.8214 10.2322 62.0192 57687.6
-11.4026 7.56534 62.7738 52187.4
7.96171 -36.4484 56.4084 57630.2
7.58287 -37.8026 55.6862 55984.3
-13.463 4.62096 63.4514 50398.2
-15.068 -1.71847 65.1914 57468
-14.465 -6.76978 66.151 50884.4
-8.73439 -18.294 66.1093 55930.9
-13.545 -16.6669 66.2705 52717.2
-14.8649 -19.6797 65.9673 54760.9
-14.6374 -20.5491 65.8246 48314.4
-7.93181 -22.5425 65.1369 49326.5
-6.84366 -21.1986 65.352 52837.1
25.0009 -24.2157 53.1299 58519.4
26.0649 -24.7543 51.7464 58574.5
29.6842 -19.8898 50.1136 57227.8
29.1854 -17.9446 51.461 58373.6
26.7901 -16.5766 54.3578 52684.8
25.2711 -16.9319 55.7155 51440.5
-16.3028 -24.7043 65.4394 47602.5
-16.1451 32.0405 49.84 53050.2
-15.2249 29.8003 52.1193 54690
-4.64264 -20.2035 65.264 54809.8
-17.5423 -0.402193 64.8142 59972.4
-22.54 -5.27937 65.1121 51117.7
-20.8865 -7.99336 65.7596 51281.1
8.81055 3.10911 60.2285 48074.6
7.15455 6.9063 59.7743 54343.6
4.97866 -0.0185747 62.1972 49007.5
-7.69976 -46.6578 58.4954 55778.2
-6.90632 -45.2339 59.2419 60284.5
-23.993 20.958 56.3635 47951.7
-25.9395 24.8627 53.2784 48377.1
-29.7465 19.7118 54.5562 54796
-26.9575 18.3586 56.2861 53769.6
23.6851 -16.1357 56.9838 54636.3
21.6386 -27.0431 54.1824 56896
-25.835 3.448 62.7062 55614.1
-21.6999 7.76922 62.2485 56323
-23.4529 9.22656 61.1491 52652.1
-25.3339 9.57631 60.4467 55306.5
-27.4407 -23.7382 64.6271 49403.6
-23.6753 -24.4286 65.2216 52872.2
-22.754 -23.9564 65.324 49677.1
-21.7251 -20.4132 65.8875 53703.7
-26.3083 -18.2097 65.089 53688.1
-27.9788 -18.9844 64.597 51435
9.38463 -5.6146 62.632 51920.6
6.59568 -3.29271 62.7315 54547.9
2.06182 -7.20477 64.5007 52994.1
3.99419 -10.6748 64.6269 50963.2
11.6677 9.02692 57.6 57174.9
11.1369 11.17 57.0798 57412.6
8.76414 13.9133 56.9035 52850.2
7.3021 14.0684 57.3585 53318.9
-1.03968 29.3764 50.1388 56744.8
1.43646 24.7504 53.1093 55022.7
1.73079 27.2273 50.9213 54494.5
-27.8172 13.8136 57.8829 46020.4
-30.1234 13.8218 57.0889 57117.3
-33.79 7.59533 57.9837 47184.6
24.7093 6.73429 50.004 56886.3
28.1506 3.84022 48.4305 51513.6
29.7437 4.92288 46.6491 49956.7
29.0784 7.54775 46.4263 55489.1
24.9387 10.0848 48.1916 53956.5
-17.6119 4.63242 63.4471 54278.2
-19.2504 2.64165 63.9268 52530.7
-26.3424 -1.66164 63.6672 46235.2
-24.261 1.53542 63.6344 51877.4
11.053 -0.117349 60.8704 56880.7
10.2814 2.78694 59.928 49890.1
6.47578 -2.49508 62.5489 52964.9
-26.005 -3.5572 64.0842 49242.6
2.48497 23.0753 53.84 54365.5
7.29499 24.5789 50.6025 58936
6.52585 25.9995 49.6463 57367.3
4.9788 27.4135 49.0613 54196.6
23.3281 13.5946 47.2504 50429.2
24.7106 14.5341 45.9067 49040
5.24249 -32.0054 59.9336 57654
7.4713 -29.7704 60.0575 53895.2
5.17456 -25.2462 62.2963 52473.2
5.06958 -13.5425 64.3788 51242
-18.2544 -26.0713 65.2499 45474.8
-18.4188 -28.4779 65.0734 47081.8
-29.2522 -9.24459 64.1968 57298.2
-22.768 -10.257 65.6235 50712.8
-21.1186 -8.99416 65.7948 52377.3
17.1365 -8.63986 59.958 56992.9
20.7655 -7.67712 57.7843 52836
-24.9899 -15.4023 65.5731 53888.6
-22.727 -14.1287 65.9692 41684.1
28.1939 1.2523 49.621 55285.3
28.3839 2.7964 48.7072 57962
22.2886 6.67027 51.8757 57729.9
9.56291 -15.8068 63.1749 56417.8
8.58534 -13.2507 63.5418 53249.9
3.11056 -20.0602 63.9749 52209.7
4.51157 -20.68 63.5952 53539.6
5.05589 29.2082 47.0481 57218.8
-28.6498 -42.1024 62.4801 56873.2
-28.0875 -39.8664 63.1328 54290.5
-33.4953 -37.0416 60.8451 59194.9
-34.4924 -37.8066 60.0838 59536.7
-34.9091 -41.2205 58.94 59187.6
11.2128 -5.96058 62.0476 46879.9
10.68 16.7893 54.6076 57197.7
8.93238 19.9864 53.4531 54840.8
5.34775 19.9768 54.9628 53234.7
-31.2285 -32.3943 62.6897 51526.7
-29.7225 -29.659 63.5407 50823
-30.5703 -27.4612 63.4464 50027.1
-16.6797 15.5199 59.905 46322.7
-14.8094 16.4153 59.8337 54855.7
-15.9572 20.3931 57.6834 55719.3
-19.6148 19.3846 57.8571 52293.8
-20.1683 16.5926 59.0152 53974.3
-18.9003 15.7748 59.5677 53518
-26.4977 -36.2728 63.8189 52649.7
-30.9081 -34.3638 62.5619 49852.4
4.33587 -33.544 59.4988 56300.3
2.28266 -35.167 59.3524 53121
-25.6788 15.944 57.7293 47093.9
-22.9775 16.0615 58.7001 49873.3
-20.379 21.8372 56.6722 53591.8
-15.7693 10.9144 61.6402 53938
-33.0392 14.7897 55.2919 56199.9
25.9491 -4.47287 53.2917 60607.5
29.1839 -4.76893 50.5536 57204.2
29.9081 -2.21537 49.2608 51527.2
-16.7376 -12.4754 66.5782 59856.4
11.7092 -9.52197 62.2608 48578.4
-21.8524 11.8075 60.6509 48770.1
-34.3515 7.64658 57.6744 54040.8
-33.8266 7.58219 57.9699 47088.1
-0.4889 -47.2388 53.9652 60140.5
-0.597605 -45.1377 55.7451 61512.5
-19.2016 24.5963 55.4071 50129.6
-18.8122 28.2267 53.1957 53690
-21.2453 25.6473 54.3262 53726.6
2.5248 20.6139 55.3103 52725.5
1.44416 18.5227 56.6631 51652.7
30.6301 -23.1698 47.108 58970.7
34.5594 -17.8196 43.7186 58134.8
34.4131 -17.2249 44.2788 59366
31.652 -14.9981 48.9166 52508.7
3.85125 -47.7584 50.5387 58691.7
5.44145 -45.7999 51.1698 59571.3
4.9623 -43.3137 53.6379 61078
-0.493392 -44.1842 56.4823 60384
25.7183 -9.27654 54.8471 59427
27.2146 -10.6991 53.7749 58100
30.6824 -11.2734 50.2203 56616.9
31.1434 -8.79181 49.3574 53180.6
4.76256 -39.0213 56.3495 58501.1
3.02329 -38.5168 57.5093 56291
-0.78105 -41.8018 58.067 51224.6
-24.547 26.3115 52.7726 53791.8
-34.126 -46.2849 57.1735 59173.4
-29.1947 -45.4347 61.1425 59489.5
-28.2465 -42.4255 62.5566 54302.8
3.92704 -50.3419 48.2734 58642.5
-20.8566 -32.4035 64.9243 47086.4
-23.2806 -34.5343 64.4572 50818
-23.8409 -36.0806 64.1938 43450.9
-20.9142 -38.4696 64.3012 47675.4
-20.0478 -15.7266 66.2947 49582.5
-19.1792 -17.9071 66.2228 51500.5
22.9977 -30.9966 50.0185 62076.3
27.5459 -25.846 49.3143 61225
8.91143 -21.8271 62.3483 59091.8
5.2059 -22.3405 63.024 54688.6
-29.8865 -49.8569 57.9565 61034.2
-28.4202 -48.9699 59.4272 59606.2
2.00787 31.4906 46.0228 57454.9
-1.39302 -22.8615 64.3121 58221.6
-25.2801 -29.7764 64.7345 49061
-29.1907 -24.9292 64.1438 55171.8
-26.5475 -30.1845 64.3294 53518.7
9.05571 23.2459 50.8285 53451.8
9.33057 21.179 52.3456 55344.7
16.7994 11.3672 53.7398 55829.9
-35.661 -21.9258 61.447 54710.8
-21.131 -53.3297 57.6872 60253.1
-21.0723 -46.4819 62.3504 49134.2
-23.1461 -49.7125 60.3582 56872.7
-21.8853 30.617 50.5718 58389.3
-21.151 -43.7841 63.382 50785.5
-19.572 -40.8958 63.9768 44510.6
23.1032 -31.8405 49.0312 60742.2
24.5824 -33.2912 45.5706 59591.4
30.4229 -27.8033 43.5515 58238.5
29.994 -24.8701 46.7859 57529.6
20.0415 -34.1603 50.0856 59768.5
-21.0373 -30.5238 65.0509 44138
21.8322 -13.6479 57.9027 53288.5
-19.2059 7.09054 62.6847 50614.6
33.9585 -9.05631 46.0462 59884.6
22.2294 -8.77406 57.1031 54905.8
14.44 -10.7181 61.4492 51486.5
32.7082 -2.96992 46.4076 58583.9
33.2713 -2.36106 45.6265 57506.3
13.8337 17.1959 52.35 58765.8
6 244 257 10 9 274 240 692
5 341 326 315 167 166 701
6 209 208 168 167 315 316 514
6 316 315 326 327 328 329 591
7 329 336 29 28 85 209 316 775
5 329 328 334 335 336 592
5 10 257 258 137 5 466
7 301 134 23 22 29 336 335 516
6 301 335 334 182 181 300 483
8 239 314 313 13 12 178 107 106 523
7 238 306 14 13 313 314 239 573
8 112 114 321 320 253 235 39 38 763
6 300 259 100 99 134 301 568
4 338 352 353 339 567
5 284 338 339 340 280 737
5 259 260 261 96 100 593
5 280 281 282 283 284 544
4 281 298 299 282 570
6 283 282 299 289 165 164 545
7 358 290 289 299 298 344 343 580
7 96 261 351 278 277 355 97 693
6 165 289 290 291 151 150 747
7 356 221 220 357 291 290 358 477
5 291 357 362 147 151 660
7 225 118 116 115 362 357 220 751
6 220 221 222 223 224 225 597
6 350 161 160 275 278 351 626
5 119 118 225 224 270 571
5 277 62 65 201 355 778
7 275 276 262 63 62 277 278 467
6 270 271 266 265 120 119 478
6 265 266 267 204 203 252 581
6 55 63 262 229 228 52 779
8 103 108 177 121 120 265 252 247 759
6 247 252 203 202 246 248 489
6 276 311 285 226 229 262 486
5 247 248 216 104 103 469
4 129 128 187 186 521
5 234 40 39 235 236 554
4 226 227 228 229 471
6 216 217 218 219 105 104 470
6 106 105 219 237 238 239 764
6 312 303 302 237 219 218 584
8 251 207 61 48 47 52 228 227 527
6 302 213 212 306 238 237 766
7 213 302 303 296 295 304 210 586
4 210 211 212 213 472
7 251 227 226 285 158 157 249 629
5 249 250 205 207 251 596
6 205 206 56 60 61 207 572
6 211 210 304 317 319 337 480
6 235 253 254 255 256 236 720
7 57 56 206 230 231 232 233 598
6 233 288 320 321 58 57 709
5 233 232 286 287 288 490
5 236 256 279 354 234 534
7 359 254 253 320 288 287 360 575
5 255 139 138 279 256 603
7 191 201 65 64 126 129 186 540
5 40 234 354 102 41 555
4 353 352 363 365 494
6 365 364 367 340 339 353 495
8 281 280 340 367 368 345 344 298 611
6 369 370 371 372 349 348 774
5 343 342 374 356 358 595
4 323 322 372 371 518
6 223 347 346 271 270 224 488
5 372 322 194 193 349 780
6 195 194 322 323 324 325 582
5 325 332 331 196 195 716
6 248 246 245 376 217 216 600
5 333 332 325 324 377 482
7 162 375 378 269 268 379 163 773
7 218 217 376 305 292 297 312 619
4 303 312 297 296 601
4 318 366 337 319 587
6 174 173 260 259 300 181 623
5 373 93 92 370 369 647
5 377 380 309 308 333 485
6 351 261 260 173 172 350 625
5 175 94 93 373 176 744
7 348 215 34 33 176 373 369 487
6 263 222 221 356 374 264 614
5 273 272 309 380 381 606
7 222 263 198 189 188 347 223 634
5 348 349 193 192 215 650
7 197 214 74 35 34 215 192 599
6 230 206 205 250 155 154 631
5 271 346 310 267 266 615
6 330 331 332 333 308 307 718
5 185 184 202 203 204 617
4 381 242 241 273 608
7 231 361 8 7 382 286 232 659
4 286 382 360 287 500
6 292 293 294 295 296 297 620
6 359 360 382 7 6 140 635
5 359 140 139 255 254 602
6 317 170 171 200 318 319 641
5 214 375 162 75 74 772
4 318 200 199 366 621
7 197 196 331 330 378 375 214 491
6 152 274 9 8 361 153 560
6 80 269 378 330 307 81 492
6 76 81 307 308 309 272 509
8 272 273 241 240 274 152 77 76 605
5 240 241 242 243 244 510
4 244 243 258 257 607
6 342 343 344 345 136 135 632
7 310 346 347 188 187 128 131 505
6 204 267 310 131 130 185 636
7 202 184 125 124 183 245 246 637
6 376 245 183 180 179 305 638
5 341 91 90 327 326 504
7 110 109 170 317 304 295 294 640
6 90 95 182 334 328 327 653
5 172 73 72 161 350 655
6 163 379 311 276 275 160 656
6 379 268 159 158 285 311 657
5 156 155 250 249 157 658
6 363 146 144 143 364 365 651
6 364 143 88 87 368 367 503
5 345 368 87 86 136 511
5 154 153 361 231 230 698
6 135 133 132 264 374 342 633
6 132 83 82 198 263 264 652
7 293 292 305 179 68 67 113 654
5 294 293 113 111 110 506
6 42 101 199 200 171 36 673
6 82 84 98 190 189 198 664
6 192 193 194 195 196 197 529
6 186 187 188 189 190 191 687
6 123 125 184 185 130 127 666
5 124 70 71 180 183 668
6 181 182 95 94 175 174 686
5 179 180 71 69 68 513
8 172 173 174 175 176 33 32 73 691
5 170 109 37 36 171 671
4 166 167 168 169 558
4 150 149 164 165 562
6 160 161 72 75 162 163 524
6 157 158 159 79 78 156 697
7 152 153 154 155 156 78 77 541
5 147 148 149 150 151 563
4 145 141 144 146 661
6 141 142 89 88 143 144 684
6 6 5 137 138 139 140 700
6 133 135 136 86 31 30 519
6 30 27 26 83 132 133 685
6 128 129 126 127 130 131 665
6 126 64 54 53 123 127 712
7 123 53 51 50 70 124 125 694
7 118 119 120 121 122 117 116 670
6 19 115 116 117 2 1 785
6 113 67 66 114 112 111 715
7 177 16 3 2 117 122 121 786
6 38 37 109 110 111 112 695
6 103 104 105 106 107 108 674
4 101 42 41 102 531
4 23 134 99 24 776
8 96 97 98 84 25 24 99 100 559
6 90 91 92 93 94 95 765
7 85 28 31 86 87 88 89 708
6 169 168 208 142 141 145 728
5 82 83 26 25 84 710
6 76 77 78 79 80 81 777
6 72 73 32 35 74 75 731
7 70 50 49 44 43 69 71 713
7 46 59 66 67 68 69 43 714
6 62 63 55 54 64 65 758
5 268 269 80 79 159 735
6 60 45 44 49 48 61 783
7 56 57 58 59 46 45 60 564
5 89 142 208 209 85 729
6 97 355 201 191 190 98 734
6 52 47 51 53 54 55 553
5 47 48 49 50 51 736
4 43 44 45 46 741
7 36 37 38 39 40 41 42 717
4 4 15 20 0 791
4 32 33 34 35 769
6 28 29 22 27 30 31 549
6 22 23 24 25 26 27 732
5 19 1 0 20 21 753
6 15 4 3 16 17 18 756
5 321 114 66 59 58 761
5 17 178 12 11 18 797
4 11 12 13 14 799
6 5 6 7 8 9 10 561
6 21 148 147 362 115 19 768
5 0 1 2 3 4 790
6 17 16 177 108 107 178 770
