ply
format ascii 1.0
comment Exported from MorphoGraphX 2.0.1-254
comment Cell Graph: each vertex is a cell, each edge a wall
element vertex 191
property int label
property float x
property float y
property float z
element edge 527
property uint source
property uint target
end_header
466 0 0 0 
467 0 0 0 
469 0 0 0 
470 0 0 0 
471 0 0 0 
472 0 0 0 
477 0 0 0 
478 0 0 0 
480 0 0 0 
482 0 0 0 
483 0 0 0 
485 0 0 0 
486 0 0 0 
487 0 0 0 
488 0 0 0 
489 0 0 0 
490 0 0 0 
491 0 0 0 
492 0 0 0 
494 0 0 0 
495 0 0 0 
500 0 0 0 
503 0 0 0 
504 0 0 0 
505 0 0 0 
506 0 0 0 
509 0 0 0 
510 0 0 0 
511 0 0 0 
513 0 0 0 
514 0 0 0 
516 0 0 0 
518 0 0 0 
519 0 0 0 
521 0 0 0 
523 0 0 0 
524 0 0 0 
527 0 0 0 
529 0 0 0 
531 0 0 0 
534 0 0 0 
540 0 0 0 
541 0 0 0 
544 0 0 0 
545 0 0 0 
549 0 0 0 
553 0 0 0 
554 0 0 0 
555 0 0 0 
558 0 0 0 
559 0 0 0 
560 0 0 0 
561 0 0 0 
562 0 0 0 
563 0 0 0 
564 0 0 0 
567 0 0 0 
568 0 0 0 
570 0 0 0 
571 0 0 0 
572 0 0 0 
573 0 0 0 
575 0 0 0 
580 0 0 0 
581 0 0 0 
582 0 0 0 
584 0 0 0 
586 0 0 0 
587 0 0 0 
591 0 0 0 
592 0 0 0 
593 0 0 0 
595 0 0 0 
596 0 0 0 
597 0 0 0 
598 0 0 0 
599 0 0 0 
600 0 0 0 
601 0 0 0 
602 0 0 0 
603 0 0 0 
605 0 0 0 
606 0 0 0 
607 0 0 0 
608 0 0 0 
611 0 0 0 
614 0 0 0 
615 0 0 0 
617 0 0 0 
619 0 0 0 
620 0 0 0 
621 0 0 0 
623 0 0 0 
625 0 0 0 
626 0 0 0 
629 0 0 0 
631 0 0 0 
632 0 0 0 
633 0 0 0 
634 0 0 0 
635 0 0 0 
636 0 0 0 
637 0 0 0 
638 0 0 0 
640 0 0 0 
641 0 0 0 
647 0 0 0 
650 0 0 0 
651 0 0 0 
652 0 0 0 
653 0 0 0 
654 0 0 0 
655 0 0 0 
656 0 0 0 
657 0 0 0 
658 0 0 0 
659 0 0 0 
660 0 0 0 
661 0 0 0 
664 0 0 0 
665 0 0 0 
666 0 0 0 
668 0 0 0 
670 0 0 0 
671 0 0 0 
673 0 0 0 
674 0 0 0 
684 0 0 0 
685 0 0 0 
686 0 0 0 
687 0 0 0 
691 0 0 0 
692 0 0 0 
693 0 0 0 
694 0 0 0 
695 0 0 0 
697 0 0 0 
698 0 0 0 
700 0 0 0 
701 0 0 0 
708 0 0 0 
709 0 0 0 
710 0 0 0 
712 0 0 0 
713 0 0 0 
714 0 0 0 
715 0 0 0 
716 0 0 0 
717 0 0 0 
718 0 0 0 
720 0 0 0 
728 0 0 0 
729 0 0 0 
731 0 0 0 
732 0 0 0 
734 0 0 0 
735 0 0 0 
736 0 0 0 
737 0 0 0 
741 0 0 0 
744 0 0 0 
747 0 0 0 
751 0 0 0 
753 0 0 0 
756 0 0 0 
758 0 0 0 
759 0 0 0 
761 0 0 0 
763 0 0 0 
764 0 0 0 
765 0 0 0 
766 0 0 0 
768 0 0 0 
769 0 0 0 
770 0 0 0 
772 0 0 0 
773 0 0 0 
774 0 0 0 
775 0 0 0 
776 0 0 0 
777 0 0 0 
778 0 0 0 
779 0 0 0 
780 0 0 0 
783 0 0 0 
785 0 0 0 
786 0 0 0 
790 0 0 0 
791 0 0 0 
797 0 0 0 
799 0 0 0 
466 561
466 607
466 692
466 700
467 486
467 626
467 656
467 693
467 758
467 778
467 779
469 470
469 489
469 600
469 674
469 759
470 584
470 600
470 619
470 674
470 764
471 486
471 527
471 629
471 779
472 480
472 586
472 766
477 580
477 595
477 597
477 614
477 660
477 747
477 751
478 488
478 571
478 581
478 615
478 670
478 759
480 586
480 587
480 640
480 641
482 485
482 582
482 716
482 718
483 516
483 568
483 592
483 623
483 653
483 686
485 509
485 606
485 718
486 629
486 656
486 657
486 779
487 599
487 647
487 650
487 691
487 744
487 769
487 774
488 505
488 571
488 597
488 615
488 634
489 581
489 600
489 617
489 637
489 759
490 500
490 575
490 598
490 659
490 709
491 492
491 529
491 599
491 716
491 718
491 772
491 773
492 509
492 718
492 735
492 773
492 777
494 495
494 567
494 651
495 503
495 567
495 611
495 651
495 737
500 575
500 635
500 659
503 511
503 611
503 651
503 684
503 708
504 591
504 653
504 701
504 765
505 521
505 615
505 634
505 636
505 665
505 687
506 620
506 640
506 654
506 695
506 715
509 605
509 606
509 718
509 777
510 605
510 607
510 608
510 692
511 519
511 611
511 632
511 708
513 638
513 654
513 668
513 713
513 714
514 558
514 591
514 701
514 728
514 729
514 775
516 549
516 568
516 592
516 732
516 775
516 776
518 582
518 774
518 780
519 549
519 632
519 633
519 685
519 708
521 540
521 665
521 687
523 573
523 674
523 764
523 770
523 797
523 799
524 626
524 655
524 656
524 731
524 772
524 773
527 553
527 572
527 596
527 629
527 736
527 779
527 783
529 582
529 599
529 650
529 716
529 780
531 555
531 673
531 717
534 554
534 555
534 603
534 720
540 665
540 687
540 712
540 734
540 758
540 778
541 560
541 605
541 631
541 658
541 697
541 698
541 777
544 545
544 570
544 611
544 737
545 562
545 570
545 580
545 747
549 685
549 708
549 732
549 775
553 694
553 712
553 736
553 758
553 779
554 555
554 717
554 720
554 763
555 717
558 701
558 728
559 568
559 593
559 664
559 693
559 710
559 732
559 734
559 776
560 561
560 605
560 659
560 692
560 698
561 635
561 659
561 692
561 700
562 563
562 747
563 660
563 747
563 768
564 572
564 598
564 709
564 714
564 741
564 761
564 783
567 737
568 593
568 623
568 776
570 580
570 611
571 597
571 670
571 751
572 596
572 598
572 631
572 783
573 764
573 766
573 799
575 602
575 635
575 709
575 720
575 763
580 595
580 611
580 632
580 747
581 615
581 617
581 636
581 759
582 716
582 780
584 586
584 601
584 619
584 764
584 766
586 601
586 620
586 640
586 766
587 621
587 641
591 592
591 653
591 701
591 775
592 653
592 775
593 623
593 625
593 693
595 614
595 632
595 633
596 629
596 631
596 658
597 614
597 634
597 751
598 631
598 659
598 698
598 709
599 650
599 731
599 769
599 772
600 619
600 637
600 638
601 619
601 620
602 603
602 635
602 700
602 720
603 700
603 720
605 606
605 608
605 692
605 777
606 608
607 692
611 632
611 737
614 633
614 634
614 652
615 636
617 636
617 637
617 666
619 620
619 638
619 654
620 640
620 654
621 641
621 673
623 625
623 686
623 691
625 626
625 655
625 691
625 693
626 655
626 656
626 693
629 657
629 658
629 697
631 658
631 698
632 633
633 652
633 685
634 652
634 664
634 687
635 659
635 700
636 665
636 666
637 638
637 666
637 668
637 694
638 654
638 668
640 641
640 671
640 695
641 671
641 673
647 744
647 765
647 774
650 774
650 780
651 661
651 684
652 664
652 685
652 710
653 686
653 765
654 714
654 715
655 691
655 731
656 657
656 773
657 697
657 735
657 773
658 697
659 698
660 747
660 751
660 768
661 684
661 728
664 687
664 710
664 734
665 666
665 712
666 694
666 712
668 694
668 713
670 751
670 759
670 785
670 786
671 673
671 695
671 717
673 717
674 759
674 764
674 770
684 708
684 728
684 729
685 710
685 732
686 691
686 744
686 765
687 734
691 731
691 744
691 769
693 734
693 778
694 712
694 713
694 736
695 715
695 717
695 763
697 735
697 777
708 729
708 775
709 761
709 763
710 732
712 758
713 714
713 736
713 741
713 783
714 715
714 741
714 761
715 761
715 763
716 718
717 763
720 763
728 729
729 775
731 769
731 772
732 776
734 778
735 773
735 777
736 783
741 783
744 765
751 768
751 785
753 768
753 785
753 790
753 791
756 770
756 786
756 790
756 791
756 797
758 778
758 779
759 770
759 786
761 763
764 766
768 785
770 786
770 797
772 773
774 780
785 786
785 790
786 790
790 791
797 799
