ply
format ascii 1.0
comment Exported from MorphoGraphX 2.0 1-254
comment Cellular mesh
element vertex 487
property float x
property float y
property float z
property float signal
element face 244
property list int int vertex_index
property int label
end_header
-16.8482 38.4773 101.913 52871.4
-13.0634 35.257 105.664 54254.2
-11.3045 35.3287 105.916 56678.8
-10.2446 36.4167 105.089 52033.4
-11.2199 38.8941 102.762 55535.3
-12.7384 1.08122 118.655 55197.4
-10.0913 2.10786 118.843 61177.5
-11.6979 7.15424 117.956 60949
-12.9638 6.94649 117.855 56216.3
-14.8157 4.5063 117.957 57614.9
-10.6804 -11.4341 119.341 65936.6
-7.43316 -10.5367 119.373 59351
-7.37284 -8.77066 119.381 60463.8
-8.77493 -4.84807 119.224 54789.7
-11.0307 -4.50213 119.077 55385.8
-14.1357 -6.61733 118.983 55462.1
-13.9525 -8.54751 119.075 61218.9
-13.1853 -10.8912 119.194 59011.5
-14.6994 -33.9677 114.115 63306.5
-12.1914 -37.1394 112.352 62988.4
-9.5675 -37.1101 112.184 60198.4
-7.60781 -32.1012 114.828 62521.8
-10.2222 -30.4671 115.643 58405.1
-13.2813 -31.8655 115.165 62288.8
-12.8184 -45.2249 105.822 63860.5
-8.7756 -47.2203 104.638 59824.3
-8.82352 -42.49 108.387 59901.2
-12.5139 -43.1892 107.649 60185.9
-16.4363 9.8317 116.919 63633.4
-9.41444 8.3848 117.951 47118.7
-10.6117 12.471 117.14 59464.4
-12.5451 14.4982 116.474 56473.3
-16.4155 13.8533 116.152 57440.9
-15.9428 -15.6372 118.787 55725.3
-15.8059 -16.2667 118.766 56456.6
-9.63763 -18.3502 118.8 56773.6
-8.97344 -17.3524 118.909 61348.8
-16.8673 -20.1684 118.236 59989.2
-17.7865 -21.393 117.832 60569
-17.7564 -23.4765 117.342 59642.6
-10.4733 -25.9774 117.179 61812.4
-8.72997 -22.665 118.039 58925.8
-9.63737 -20.7306 118.463 59481.6
19.2545 17.9109 113.014 61388.6
20.0627 20.1412 112.116 60836.3
18.2968 24.324 110.894 58739.6
15.969 24.6826 111.342 57047.7
14.0988 21.7752 113.04 57958.7
14.4143 19.0014 113.915 59371.4
-19.6136 23.7341 112.55 61772.3
-18.5394 22.6268 113.306 58928.4
-13.7114 22.1341 114.326 57061.6
-12.7543 24.7188 113.486 55932.9
-14.3765 27.4643 111.823 61722.1
-18.8555 17.7288 114.802 60705.4
-12.5955 19.0681 115.399 58952.7
-12.3498 19.7536 115.246 60088.3
-19.2674 20.3996 113.922 60377.1
-12.6256 -0.322176 118.79 58945.9
-18.5394 4.30639 117.316 55647.2
-19.6224 2.77099 117.311 56369.2
-18.3067 0.00175247 118.028 63438.8
-16.5587 -1.72844 118.518 61534.9
-19.978 -12.9197 118.216 57706.4
-19.248 -14.2194 118.327 60169.6
-13.2843 -39.2933 110.908 65344.2
-18.9681 -34.3524 113.276 61029.2
-19.7357 -37.5498 111.198 64256.1
-14.0351 -42.127 108.461 60648.3
-19.0049 -41.9031 107.751 64286.6
-19.7463 -44.9269 104.587 63421.7
-22.5583 8.62533 115.704 58702.7
-19.6748 6.66747 116.731 59068.6
-18.3552 14.6137 115.669 59628.2
-15.8931 -5.68267 118.808 57116
-22.3276 -4.29539 117.515 59566.1
-20.6312 -6.48942 118.071 55916.6
-21.9226 -11.8743 117.709 56658.9
-22.1688 -8.41056 117.679 56937.5
-19.7697 -26.8951 116.058 60811.8
-21.7743 -30.3428 114.419 59313.7
-20.5069 -39.5185 109.413 61338.4
12.9096 35.9459 103.813 60174.3
16.3809 35.2631 103.492 59192.6
17.791 36.9062 101.779 56973
12.2947 37.5358 102.721 59936
13.9095 30.3485 108.363 60190.8
19.9013 29.6786 107.164 58845.9
20.2355 32.5968 104.62 58499.6
16.5754 34.3137 104.267 60792.4
14.027 31.7867 107.187 57264
13.4744 29.2325 109.287 50243.2
14.7766 27.0298 110.401 59591.4
20.7288 26.3427 109.102 54406.8
12.5758 16.6183 114.991 62378.8
11.8829 14.8903 115.593 54328.8
12.9607 12.8106 115.848 57423.7
18.0483 13.5529 114.409 56779.3
19.5229 14.7758 113.733 57880.5
15.7689 6.24046 116.406 60023.1
18.799 7.41531 115.367 59495.7
12.2506 10.1675 116.617 62374.8
12.1717 7.4279 117.109 57653.3
-23.0165 34.8929 103.169 55020.2
-24.8409 33.2666 103.924 60042.7
-23.4753 30.8395 106.81 61825.3
-17.537 34.0489 105.912 58817.7
-19.8749 35.6256 103.585 54680.8
-23.5791 28.7831 108.38 64231.2
-22.5185 27.7281 109.543 62756.6
-15.5659 30.2109 109.734 58970.9
-15.9508 32.9942 107.27 60246.4
-19.615 15.3555 115.21 58325.5
-11.5761 16.5291 116.15 59059.2
14.6838 -19.9754 114.989 59113.1
15.371 -20.0226 114.736 60484.5
18.1939 -17.5148 114.394 63471.4
18.24 -12.5772 115.593 61805.6
17.1003 -12.0848 116.101 64513.6
13.237 -16.9498 116.29 66241.4
-14.8266 29.6781 110.281 60210.7
-21.9295 24.3754 111.525 62611.8
13.2957 -28.8572 112.471 62604.9
19.7709 -25.0456 111.46 59700.6
19.9323 -23.6798 111.782 59593.2
17.5491 -22.4913 113.203 62195.4
12.3344 -27.5429 113.325 61233.4
-23.8307 -39.2046 108.379 57670.4
-24.014 -30.5875 113.49 62804.2
-26.0081 36.4821 100.328 59389.5
-20.143 37.7954 101.406 58171.8
-24.7528 23.4085 110.801 56862.2
-27.4217 28.1156 106.803 59257.6
-27.6635 27.3871 107.133 61560.1
-26.9053 20.9913 110.695 54675.3
-26.273 18.8159 111.817 60446.9
-24.8691 17.3454 112.953 60941.5
-23.8271 15.1224 113.96 55451.6
-25.7228 13.3628 113.681 53195.6
-23.5887 9.05997 115.341 59885.4
-21.7501 -19.8739 117.107 62486.2
-26.6695 7.18611 114.751 58791.7
-26.1207 5.19556 115.332 63333.5
-23.187 1.94365 116.634 61447.4
-28.5391 0.435458 114.83 57447.1
-25.3319 -0.600582 116.281 49731.7
-26.9168 -7.31659 116.169 61438.7
-24.8095 -2.42476 116.6 55755.4
-25.309 -15.5692 116.483 54225.2
-24.9145 -19.4873 116.108 60240.5
-26.7925 -24.3509 114.281 58365.3
-19.5947 -25.5271 116.463 62325.5
-27.2766 -22.5087 114.604 54482
-25.6005 -42.0996 104.987 65094
-24.9584 -39.6517 107.453 63339.9
-29.5189 34.8951 99.8288 60005.5
-28.962 33.0342 101.78 52093.3
-27.8683 32.7291 102.727 56940.3
9.2845 24.9362 112.575 61203.1
9.98977 22.6574 113.504 61426.3
-28.0653 -14.754 115.687 59189.1
-27.8029 -7.57124 115.9 57821.5
11.1817 1.20525 118.044 62268.9
15.8274 2.45927 117.023 62549.6
9.28468 5.46782 117.958 56699.4
8.73639 3.83195 118.177 54155.9
16.5381 1.56356 116.912 64405.7
11.9113 -2.57882 118.012 58344
15.1186 -3.2719 117.287 58012
16.8335 -1.8281 116.841 59898.2
9.1382 -9.26554 118.42 59077.6
10.1324 -10.7221 118.159 61101.8
11.6953 -11.9523 117.655 59374.6
15.5529 -10.7553 116.766 59473
16.1206 -6.70157 116.915 61860.7
15.1871 -6.02432 117.199 60815.3
9.59391 -24.2798 115.164 62226.2
11.2574 -27.2511 113.734 61262.7
11.2009 -22.3574 115.374 60120.6
10.6326 -37.6153 109.926 55123.3
11.2357 -39.2925 109.463 56158.8
18.0642 -34.7653 109.8 59786.4
17.5272 -33.1301 110.182 58826.8
16.6607 -32.857 110.386 59200.4
-30.9026 25.7564 105.927 49179.4
-32.7849 28.8455 102.65 55042
-32.7006 27.1982 103.798 56314.3
-28.8078 21.8179 109.29 58440.9
-31.2511 24.0986 106.617 53477.6
-32.1451 18.492 108.653 54382.1
-32.311 15.693 109.606 56112.2
-30.6806 14.3938 111.014 59349.8
-28.978 14.4356 111.91 61388.3
-29.6233 7.00886 113.337 58498.2
-31.862 4.19 112.592 50422.9
-29.9287 0.546901 114.16 59467.1
-33.839 -4.67044 113.044 51457.6
-32.8369 -6.69456 113.7 56226.5
-30.5524 -7.07336 114.807 62102.3
-32.7346 -1.66165 113.235 55296.8
22.5882 33.0456 103.314 57623
24.1911 34.8472 100.918 61898.6
-30.2462 -14.9772 114.843 63211.3
35.2264 8.50519 107.723 58891.2
31.3233 8.65815 110.089 57631.3
32.2768 3.55405 110.03 56521.8
36.4966 3.86241 107.071 57312.8
36.6534 3.83605 106.942 57995.5
-27.0159 13.5863 113.109 60665.2
-30.2358 7.78982 112.852 57962.9
22.2005 26.0757 108.807 54080.9
22.5042 20.0785 111.381 65300.2
-34.8241 30.6313 100.07 58742.1
-34.6042 21.2803 105.863 50832.5
-31.9497 10.6372 111.355 58254.2
-34.4747 15.3202 108.301 51077.2
-34.6847 10.0836 109.854 53420.8
-27.3823 -28.0813 112.893 57851
-29.3154 -30.5048 110.996 59252
-30.0585 -35.2949 107.554 62428.6
-33.2132 -23.7218 111.172 59649.1
-32.0554 -28.6429 110.154 53041.8
-30.9324 -22.0777 112.972 53914.3
7.69805 34.6602 105.894 61377.2
7.2128 33.3221 107.152 59410.3
7.86251 21.4519 114.258 60612.9
-31.6786 -19.1307 113.54 63004.4
-30.8798 -15.1457 114.55 61599.6
5.85139 20.8238 114.668 60799.5
5.42716 17.7795 115.729 60127.3
6.3599 14.8093 116.522 61647.6
6.54825 10.14 117.696 63106.6
-36.7253 7.47216 109.2 53765.9
-35.4076 5.46689 110.497 55378.7
6.18813 2.50926 118.521 57912.8
8.24211 -3.9858 118.588 59089
-37.0472 2.0649 110.393 55040.1
-36.2384 -18.6367 110.759 58741.2
-33.7914 -13.7003 113.174 55139.1
-36.8381 -16.6464 110.888 56639.9
-36.5246 -21.1699 109.794 50083.7
-35.1804 -23.4202 109.98 54575.2
-35.2296 -32.0801 105.725 57303.5
-32.5405 -36.0426 105.163 56143.9
-2.43464 5.58397 118.733 59382
-5.4492 9.78905 118.053 57787.5
-8.78346 8.41395 117.998 49446
-5.95023 4.03982 118.742 52144
11.8708 -15.5621 116.997 60855.3
30.6642 -12.5862 109.327 60496
33.5726 -11.4163 107.604 59487.4
33.4278 -6.77475 109.019 63907.8
32.0126 -5.27096 110.176 63331.4
27.9539 -11.0356 111.396 62461.3
28.2682 -11.2728 111.167 61945.5
-6.09806 2.71616 118.889 53982
-9.15993 1.76421 118.923 63659.4
-6.60272 -2.93292 119.287 59044.1
-4.91974 -2.4279 119.292 55131.7
-3.68855 -0.340962 119.171 53388.9
-39.1969 15.3221 105.423 48249.4
-38.0709 14.4637 106.318 46404.4
-35.977 21.0434 105.179 48852.5
-39.553 17.1143 104.687 41155.3
-37.9896 7.97184 108.268 53196.8
30.9574 -15.9681 108.249 59575.3
27.9958 -19.3715 109.163 60594.6
29.1032 -21.0635 108.16 57382.5
31.7166 -21.0772 106.568 59539.5
33.0748 -17.4432 106.43 61889.2
-34.8479 -9.29867 112.752 56645.4
-38.2122 -9.94892 111.074 61798.7
-39.8471 -10.8855 109.88 59191.8
-37.8705 -16.5241 110.169 58180.1
-2.27473 -6.34077 119.407 62297.9
21.8625 5.76438 114.652 56171.6
22.0665 3.01683 114.918 60416.5
-7.23942 -16.607 118.912 55604
-6.16571 -13.8412 119.125 55214.6
-3.60097 -23.1237 117.554 62052.3
-2.38675 -21.1377 117.853 58967.3
-2.92785 -25.9503 116.648 62470
-9.75708 -27.6331 116.606 62873.8
24.0791 -16.1346 112.102 60870
23.994 -17.3703 111.798 61384.3
24.5347 -18.6513 111.162 61765.9
3.64776 26.6932 112.275 59242.2
5.9012 27.6262 111.53 59354.2
6.81651 29.2023 110.428 59558.4
6.03669 31.9724 108.465 54994.6
2.50366 32.404 108.575 59470.7
0.134621 31.2178 109.727 55415.8
-5.77261 17.2804 116.509 61705.9
-6.02227 20.8894 115.39 63490.9
-7.13006 22.0318 114.975 61180.5
-8.11101 25.5959 113.508 57439.9
-7.08717 26.8701 112.858 61725.5
-11.0392 30.5577 110.216 54573
-3.62788 31.8549 109.367 57547.3
-4.94436 30.4239 110.505 60350.4
-4.75472 27.7317 112.299 58501.3
-0.171998 24.4347 113.693 57459.3
2.83653 25.0739 113.149 55412.7
14.6419 -31.1427 111.249 57481.6
15.6224 -30.8965 111.098 56035.4
20.1619 -26.2857 110.942 57644.3
4.71507 2.65267 118.63 57242.5
1.40467 -0.794722 119.04 51977.9
2.9818 -3.27963 119.022 57820.3
6.41959 -5.25554 118.773 57282.8
36.6517 10.1311 106.518 54531.6
35.6187 13.6245 106.95 58167.3
32.7496 15.5156 108.326 59866.8
30.9892 13.7428 109.544 60649.7
30.3083 9.35132 110.499 59040.4
23.1734 -27.735 109.519 54620.9
23.59 -28.9712 109.228 53200.8
25.8129 -30.0407 108.37 53008.6
29.8039 -27.8846 106.821 57521
27.3892 -24.3197 108.4 59681.2
25.75 -25.1676 108.947 60673.4
37.769 2.87668 105.948 56960.8
40.8293 4.90125 102.885 59666.4
39.7174 9.37493 103.886 62815.5
36.0736 -6.11361 106.916 62088.3
35.7037 -1.42683 107.651 61718.8
31.3583 -2.17605 110.687 56510.6
30.9015 -2.91128 110.943 61594.7
4.75279 12.4824 117.273 59550
0.00228882 18.3655 115.92 61916.7
-0.973414 16.3898 116.58 58993.3
-0.366931 12.0049 117.622 55244.8
1.31428 10.6802 117.829 56685.3
-37.1757 -30.5539 105.109 57992.6
-37.4923 -26.6833 107.06 57472.6
25.3554 14.1831 111.893 56414.8
21.9602 14.0272 113.158 59461.5
23.5955 7.06829 113.793 58595.9
25.4795 6.86394 113.052 61310.4
27.4225 9.21048 111.868 55904.8
-0.679722 22.1018 114.695 61791.1
31.6666 31.4546 99.5321 56844.6
29.8243 29.2228 103.206 50422.8
31.7442 26.44 104.366 61500.1
34.5866 24.1038 104.111 54815.4
36.0834 25.9342 101.497 56444.4
0.586111 -17.2671 118.213 59108.7
0.486355 -19.6366 117.854 57891.1
2.54282 -22.498 116.969 61797.2
3.73793 -22.8639 116.693 61146.1
7.539 -19.7516 117.006 64169.6
7.57219 -17.3167 117.559 63186.3
5.41428 -16.4632 118.015 59266.5
-51.4512 8.57206 101.829 52009.9
-50.1542 8.94807 102.286 45878.7
-48.0438 10.906 102.68 46366.8
-48.427 14.8839 101.504 45142.9
-49.7387 15.5015 100.882 53877.2
3.92951 -11.2714 118.838 61499.8
5.4689 -13.7795 118.473 64278
7.17603 -8.48756 118.69 55527.9
6.44699 -32.7632 112.469 59847.4
6.22625 -30.8559 113.358 61422.8
3.4993 -28.3592 114.927 60234.2
0.85328 -29.4518 114.926 63127.8
2.33594 -34.9429 112.182 60433.5
-8.93813 31.5951 109.561 60384.4
40.1364 -2.46347 103.071 58433.1
37.8573 -0.115689 105.713 61328.2
37.4322 -6.42687 105.501 64681.9
39.2101 -6.05296 103.636 59983.5
-6.39882 12.9158 117.513 64003.9
-4.86941 16.5426 116.723 63212.9
37.8665 19.4138 103.826 58286.8
34.738 20.5191 105.745 62285.8
32.1117 19.2091 107.72 58598.7
37.635 15.0864 105.235 62168.8
22.7465 -21.8154 111.079 62517.4
26.4286 16.2419 111.032 61274.8
26.3838 18.4603 110.486 60070.2
-4.70059 10.9303 117.918 59492.4
3.45704 -40.2786 109.465 52105.7
5.85391 -39.7759 109.592 55434.4
8.94352 -36.8277 110.351 54065.2
9.35495 -34.2253 111.249 58349.3
7.70705 -33.6963 111.8 61836.9
2.5809 -38.8157 110.157 60350.5
-3.39 36.3005 105.628 57616.8
-3.17538 38.1018 104.28 52790
24.4038 -4.51313 113.936 57964.4
22.2723 -1.80121 114.934 60052.2
20.2886 -7.14326 115.48 65370.9
23.7284 -6.92441 114.049 60565.3
1.24384 -38.477 110.409 60697.9
0.980589 -36.5625 111.478 60751.6
-3.52457 -36.1067 112.216 59883.8
-5.71147 -38.2117 111.095 60524.3
-6.08177 -40.6097 109.595 55842.2
-4.55912 -41.7944 108.792 54997.7
24.8149 -9.89997 113.144 55824
1.76082 -43.0664 108.274 54076
-4.07978 -43.179 107.918 52911.8
-1.8501 -26.5951 116.307 62764.5
-0.839492 -29.3267 115.189 61352.3
5.05895 -24.8614 115.824 61414.7
22.0323 -12.5653 113.927 60430.2
23.0302 0.780067 114.664 60087.5
28.3541 2.93216 112.169 58034.1
35.4435 -12.4474 105.735 63266.8
1.99173 -45.0984 107.293 55292.5
-4.82303 -46.8632 105.495 56094.9
-37.7955 24.2483 102.749 58680.2
6.80917 -43.068 108.392 60876.9
30.41 1.70079 111.159 58297.9
-40.8375 -25.0509 104.925 58553
-42.0464 -26.794 103.032 62999.2
-44.1406 -20.3397 103.73 60078.9
-43.5273 -18.8212 104.853 56514.9
-46.095 -13.9769 104.055 61865.2
-47.3504 -13.8952 102.962 61461.7
-49.2858 -14.1469 101.25 59206.8
-45.7543 -20.4165 102.201 59747.2
19.6621 -12.1145 115.089 60792.6
36.635 -13.553 104.433 59641.9
39.4646 -10.653 102.381 56995.7
1.4597 35.8951 105.716 57140.3
-2.97384 35.6125 106.183 55495.8
6.49909 36.2513 104.736 52966.4
6.91375 38.0017 103.381 52758.3
-0.552615 -0.372165 119.121 59271.7
-1.51729 5.56103 118.745 62990.7
36.3608 -16.4632 104.098 59775.6
36.9951 -18.5258 103.234 57074.6
-38.2207 24.5848 102.348 57277.8
-39.8565 26.7896 100.233 55010.8
-4.19382 -32.455 114.266 59655.6
1.86138 7.04939 118.42 56498.2
-49.8844 -9.14426 101.881 55906.2
-47.2105 -8.91444 104.081 54254.7
-47.41 -8.74113 103.941 55871
-45.5584 16.9974 101.914 44396.5
-44.0962 19.5284 101.668 48592.8
-45.097 22.3864 100.025 51736.8
-1.19768 -14.2675 118.71 62564
0.924054 -11.5003 118.937 60321.7
25.8088 27.296 106.811 62019.7
30.2319 23.9065 106.855 63862.7
26.6007 29.4033 104.878 58847.6
29.6538 20.2506 108.601 61190.4
-1.32406 -6.80259 119.361 60095.4
-42.6497 -11.433 107.398 63306.1
-41.5198 -10.9757 108.466 63671
-41.6875 -4.5929 108.531 59941.1
-43.3046 -4.74636 107.15 60209.1
-44.5066 -8.48718 106.189 51402
41.1835 14.2588 101.799 58911.6
27.2386 19.9677 109.726 59376.9
-51.0433 -4.72817 101.724 53337.8
-48.2894 -2.59611 103.776 58465.1
-49.9114 2.40267 102.874 45366.4
-51.9045 1.55011 101.737 48419.5
24.8096 25.7619 108.14 57121.7
-48.9221 3.57046 103.329 49653.6
40.5049 19.5697 100.969 61014.5
25.1958 31.2442 103.89 51421.6
-47.846 -2.44943 104.057 60613.9
33.7369 -23.1349 104.977 57116.8
-38.6488 0.818453 109.716 51211.8
-38.1779 -3.32704 110.686 58331.7
27.8126 33.5122 100.157 63374.3
-40.2824 -4.33952 109.547 57307
-40.7211 2.1309 108.12 52789
-44.2835 -2.16385 106.228 53678.4
-45.1848 -1.42966 105.566 55688.9
-45.1519 3.77861 104.989 44467.6
-43.6344 5.87212 105.477 44275.8
-45.6532 10.0372 103.839 45782.3
-43.2265 12.9905 104.207 50858.8
-43.5836 -13.6505 106.254 55335.6
-42.5254 -18.2443 105.95 58539.4
-41.5157 -16.8023 107.232 55276.2
-41.6376 5.88839 106.629 47742
-40.5906 7.18596 106.947 50253.6
-42.4233 13.1057 104.543 48232.3
-42.2006 19.1799 102.725 49093.6
-41.0774 21.6875 102.351 54054.7
-41.6383 26.0105 99.8255 56109.6
6 427 428 388 387 426 425 250
5 425 426 298 291 290 237
4 424 423 431 432 124
4 334 414 415 333 452
6 377 124 123 305 315 320 184
4 409 400 401 410 125
6 320 319 267 266 285 377 140
6 400 381 386 393 398 401 129
7 377 285 284 116 115 125 124 407
5 370 369 408 423 424 239
6 393 394 395 396 397 398 130
6 365 364 403 435 395 394 3
4 387 388 4 3 287
6 283 405 422 117 116 284 204
7 283 284 285 266 265 249 254 35
5 283 254 253 399 405 136
7 282 22 21 435 403 402 281 78
7 402 403 364 363 404 349 348 9
6 348 347 280 279 281 402 135
4 182 181 317 316 433
6 315 316 317 318 319 320 138
5 405 399 392 391 422 220
6 347 346 443 278 277 280 4
5 369 324 251 250 408 241
5 381 400 409 412 382 24
6 371 30 29 246 245 380 6
6 443 346 352 359 358 444 149
7 444 449 274 12 11 278 443 86
8 389 390 169 168 175 174 391 392 229
6 381 382 383 384 385 386 190
6 367 368 325 324 369 370 144
6 392 399 253 252 327 389 153
6 365 394 393 386 385 361 7
5 361 362 363 364 365 143
5 362 177 176 404 363 196
6 30 371 372 292 113 31 13
5 178 350 349 404 176 39
6 360 309 308 449 444 358 429
7 346 347 348 349 350 351 352 147
4 322 321 368 367 68
5 358 359 171 170 360 202
8 207 206 205 413 326 325 368 321 389
6 306 307 308 309 235 234 11
7 258 274 449 308 307 429 259 155
7 327 326 413 407 406 390 389 157
7 328 230 229 329 330 331 332 128
5 429 307 306 436 430 313
8 332 436 306 234 165 164 231 328 27
6 207 321 322 323 310 203 159
6 338 337 275 276 406 407 182
6 301 340 329 229 228 302 240
7 407 413 205 204 314 339 338 261
7 158 287 286 302 228 225 159 215
5 335 336 337 338 339 214
7 291 298 299 300 301 302 286 233
6 286 287 288 289 290 291 165
6 292 293 294 56 55 113 162
5 378 335 339 314 313 266
6 259 429 430 244 247 255 392
5 311 310 323 455 376 168
6 425 290 289 224 223 427 167
8 378 379 211 44 43 98 336 335 267
7 378 313 312 375 448 456 379 269
4 457 458 459 460 18
5 456 461 210 211 379 254
5 460 459 462 354 353 174
5 456 448 446 445 461 172
4 376 455 463 373 70
6 373 374 375 312 311 376 397
5 294 295 52 51 56 418
5 406 276 166 169 390 34
6 295 296 297 120 53 52 419
7 300 296 295 294 293 340 301 409
9 447 464 200 88 87 93 210 461 445 61
5 445 446 343 342 447 276
5 437 439 465 458 457 187
5 464 447 342 341 469 278
5 345 344 374 373 463 177
4 469 201 200 464 297
7 380 245 244 430 436 332 331 180
5 353 354 355 356 357 175
6 316 315 305 304 183 182 21
5 431 269 268 466 432 98
5 123 122 303 304 305 360
5 366 297 296 300 299 283
7 299 298 426 387 3 2 366 285
6 416 417 418 419 420 421 198
5 437 420 419 438 439 186
7 439 438 454 453 472 473 465 200
6 474 462 459 458 465 473 189
6 462 474 475 476 355 354 201
5 180 179 383 382 412 36
5 355 476 477 440 356 203
5 440 441 442 357 356 205
5 380 331 330 372 371 394
8 361 385 384 303 122 126 177 362 60
6 333 242 221 220 241 334 255
5 478 418 417 479 480 212
6 419 418 478 450 454 438 199
6 248 172 171 359 352 351 257
6 481 482 483 477 476 475 217
7 269 431 423 408 250 249 265 100
7 175 168 167 235 309 360 170 260
6 397 26 25 410 401 398 208
6 329 340 293 292 372 330 408
8 19 65 68 27 26 397 396 20 412
6 173 118 117 422 391 174 366
4 421 415 414 416 211
7 241 240 479 417 416 414 334 244
6 328 231 101 96 95 230 264
5 450 451 452 453 454 213
6 336 98 97 100 275 337 249
7 470 468 467 471 472 453 452 31
6 473 472 471 481 475 474 216
7 263 484 441 440 477 483 260 231
6 90 224 289 288 91 86 46
5 442 441 484 485 486 218
5 428 427 223 82 85 273
5 20 396 395 435 21 221
6 237 239 273 480 479 240 246
6 480 273 272 451 450 478 224
5 452 451 272 271 470 225
6 271 270 197 196 468 470 259
8 233 232 264 482 481 471 467 236 247
5 261 260 483 482 264 228
6 485 484 263 262 411 433 248
4 434 486 485 433 446
5 319 318 466 268 267 317
5 281 279 41 40 282 236
7 36 35 42 41 279 280 277 33
5 36 277 278 11 10 430
6 275 100 99 163 166 276 111
5 274 258 257 13 12 242
6 238 270 271 272 273 239 258
5 265 266 267 268 269 321
5 199 236 467 468 196 40
5 264 232 216 215 261 41
8 260 261 215 190 189 213 262 263 43
6 433 411 186 185 212 434 263
5 255 256 257 258 259 251
6 249 250 251 252 253 254 329
6 324 325 326 327 252 251 385
7 247 246 29 7 6 256 255 431
4 244 245 246 247 265
6 350 178 114 119 248 351 296
5 242 243 219 218 221 272
6 240 241 220 222 226 237 274
5 237 226 227 238 239 47
5 236 199 195 194 233 277
5 165 234 235 167 162 42
7 216 232 233 194 193 209 214 279
6 186 411 262 213 188 184 281
4 231 164 102 101 262
6 225 228 229 230 95 94 45
5 94 48 47 159 225 65
5 288 287 158 92 91 270
4 153 154 219 243 457
6 89 83 82 223 224 90 312
7 220 221 218 217 150 152 222 62
6 198 197 270 238 227 202 275
5 214 191 190 215 216 280
4 188 213 189 187 58
4 156 155 212 185 438
5 210 93 45 44 211 50
5 203 204 205 206 207 391
8 226 222 152 149 148 160 202 227 302
4 202 160 161 198 305
6 88 200 201 84 83 89 420
10 196 197 198 161 146 147 145 144 195 199 63
6 142 141 193 194 195 144 306
5 209 208 192 191 214 288
7 189 190 191 192 135 134 187 308
6 187 134 131 133 184 188 309
7 2 1 111 110 120 297 366 401
7 184 133 132 157 156 185 186 59
5 179 180 181 182 183 90
6 183 304 303 384 383 179 291
7 203 310 311 312 313 314 204 395
7 176 177 126 125 115 114 178 334
6 170 171 172 173 174 175 338
6 154 127 128 217 218 219 319
6 166 163 162 167 168 169 74
6 162 163 99 102 164 165 341
6 160 148 77 78 146 161 323
6 139 138 208 209 193 141 307
6 137 136 135 192 208 138 325
5 47 46 92 158 159 311
5 157 132 108 105 104 327
6 155 156 157 104 103 129 440
6 153 70 69 81 127 154 333
6 128 80 79 151 150 217 335
7 150 151 39 38 140 149 152 336
6 64 63 77 148 149 140 337
5 146 78 76 75 147 71
4 144 145 143 142 324
6 145 147 75 61 60 143 80
8 141 142 143 60 59 72 71 139 348
6 138 139 71 73 112 137 339
8 131 134 135 136 57 50 49 121 73
6 131 121 109 108 132 133 75
4 129 103 107 130 442
6 127 81 67 66 80 128 346
5 122 123 124 125 126 107
6 114 115 116 117 118 119 363
5 172 248 119 118 173 72
5 57 136 137 112 54 82
6 108 109 110 111 106 105 365
5 103 104 105 106 107 83
6 448 375 374 344 343 446 343
6 99 100 97 96 101 102 94
7 43 48 94 95 96 97 98 95
5 341 342 343 344 345 404
7 87 86 91 92 46 45 93 376
5 86 87 88 89 90 113
4 82 83 84 85 345
5 68 65 67 81 69 375
5 66 18 23 79 80 359
6 140 38 37 34 33 64 91
7 77 63 16 15 74 76 78 361
5 74 62 61 75 76 362
5 71 72 28 32 73 350
6 53 120 110 109 121 49 364
5 24 27 68 69 70 97
5 65 19 18 66 67 99
7 79 23 22 282 40 39 151 103
5 33 17 16 63 64 377
7 58 5 9 59 60 61 62 379
5 28 72 59 9 8 381
7 54 112 73 32 31 113 55 106
6 54 55 56 51 50 57 383
5 49 50 51 52 53 384
6 1 0 130 107 106 111 387
6 43 44 45 46 47 48 374
6 37 38 39 40 41 42 112
4 42 35 34 37 104
6 17 33 34 35 36 10 396
5 74 15 14 58 62 105
7 28 8 7 29 30 31 32 398
4 24 25 26 27 411
6 18 19 20 21 22 23 413
8 10 11 12 13 14 15 16 17 415
5 5 6 7 8 9 417
5 0 1 2 3 4 402
7 14 13 257 256 6 5 58 416
