ply
format ascii 1.0
comment Exported from MorphoGraphX 2.0.1-254
comment Cell Graph: each vertex is a cell, each edge a wall
element vertex 244
property int label
property float x
property float y
property float z
element edge 681
property uint source
property uint target
end_header
3 0 0 0 
4 0 0 0 
6 0 0 0 
7 0 0 0 
9 0 0 0 
11 0 0 0 
13 0 0 0 
18 0 0 0 
21 0 0 0 
24 0 0 0 
27 0 0 0 
31 0 0 0 
33 0 0 0 
34 0 0 0 
35 0 0 0 
36 0 0 0 
39 0 0 0 
40 0 0 0 
41 0 0 0 
42 0 0 0 
43 0 0 0 
45 0 0 0 
46 0 0 0 
47 0 0 0 
50 0 0 0 
58 0 0 0 
59 0 0 0 
60 0 0 0 
61 0 0 0 
62 0 0 0 
63 0 0 0 
65 0 0 0 
68 0 0 0 
70 0 0 0 
71 0 0 0 
72 0 0 0 
73 0 0 0 
74 0 0 0 
75 0 0 0 
78 0 0 0 
80 0 0 0 
82 0 0 0 
83 0 0 0 
86 0 0 0 
90 0 0 0 
91 0 0 0 
94 0 0 0 
95 0 0 0 
97 0 0 0 
98 0 0 0 
99 0 0 0 
100 0 0 0 
103 0 0 0 
104 0 0 0 
105 0 0 0 
106 0 0 0 
107 0 0 0 
111 0 0 0 
112 0 0 0 
113 0 0 0 
124 0 0 0 
125 0 0 0 
128 0 0 0 
129 0 0 0 
130 0 0 0 
135 0 0 0 
136 0 0 0 
138 0 0 0 
140 0 0 0 
143 0 0 0 
144 0 0 0 
147 0 0 0 
149 0 0 0 
153 0 0 0 
155 0 0 0 
157 0 0 0 
159 0 0 0 
162 0 0 0 
165 0 0 0 
167 0 0 0 
168 0 0 0 
172 0 0 0 
174 0 0 0 
175 0 0 0 
177 0 0 0 
180 0 0 0 
182 0 0 0 
184 0 0 0 
186 0 0 0 
187 0 0 0 
189 0 0 0 
190 0 0 0 
196 0 0 0 
198 0 0 0 
199 0 0 0 
200 0 0 0 
201 0 0 0 
202 0 0 0 
203 0 0 0 
204 0 0 0 
205 0 0 0 
208 0 0 0 
211 0 0 0 
212 0 0 0 
213 0 0 0 
214 0 0 0 
215 0 0 0 
216 0 0 0 
217 0 0 0 
218 0 0 0 
220 0 0 0 
221 0 0 0 
224 0 0 0 
225 0 0 0 
228 0 0 0 
229 0 0 0 
231 0 0 0 
233 0 0 0 
236 0 0 0 
237 0 0 0 
239 0 0 0 
240 0 0 0 
241 0 0 0 
242 0 0 0 
244 0 0 0 
246 0 0 0 
247 0 0 0 
248 0 0 0 
249 0 0 0 
250 0 0 0 
251 0 0 0 
254 0 0 0 
255 0 0 0 
257 0 0 0 
258 0 0 0 
259 0 0 0 
260 0 0 0 
261 0 0 0 
262 0 0 0 
263 0 0 0 
264 0 0 0 
265 0 0 0 
266 0 0 0 
267 0 0 0 
269 0 0 0 
270 0 0 0 
272 0 0 0 
273 0 0 0 
274 0 0 0 
275 0 0 0 
276 0 0 0 
277 0 0 0 
278 0 0 0 
279 0 0 0 
280 0 0 0 
281 0 0 0 
283 0 0 0 
285 0 0 0 
287 0 0 0 
288 0 0 0 
291 0 0 0 
296 0 0 0 
297 0 0 0 
302 0 0 0 
305 0 0 0 
306 0 0 0 
307 0 0 0 
308 0 0 0 
309 0 0 0 
311 0 0 0 
312 0 0 0 
313 0 0 0 
317 0 0 0 
319 0 0 0 
321 0 0 0 
323 0 0 0 
324 0 0 0 
325 0 0 0 
327 0 0 0 
329 0 0 0 
333 0 0 0 
334 0 0 0 
335 0 0 0 
336 0 0 0 
337 0 0 0 
338 0 0 0 
339 0 0 0 
341 0 0 0 
343 0 0 0 
345 0 0 0 
346 0 0 0 
348 0 0 0 
350 0 0 0 
359 0 0 0 
360 0 0 0 
361 0 0 0 
362 0 0 0 
363 0 0 0 
364 0 0 0 
365 0 0 0 
366 0 0 0 
374 0 0 0 
375 0 0 0 
376 0 0 0 
377 0 0 0 
379 0 0 0 
381 0 0 0 
383 0 0 0 
384 0 0 0 
385 0 0 0 
387 0 0 0 
389 0 0 0 
391 0 0 0 
392 0 0 0 
394 0 0 0 
395 0 0 0 
396 0 0 0 
397 0 0 0 
398 0 0 0 
401 0 0 0 
402 0 0 0 
404 0 0 0 
407 0 0 0 
408 0 0 0 
409 0 0 0 
411 0 0 0 
412 0 0 0 
413 0 0 0 
415 0 0 0 
416 0 0 0 
417 0 0 0 
418 0 0 0 
419 0 0 0 
420 0 0 0 
429 0 0 0 
430 0 0 0 
431 0 0 0 
433 0 0 0 
438 0 0 0 
440 0 0 0 
442 0 0 0 
446 0 0 0 
452 0 0 0 
457 0 0 0 
3 7
3 9
3 78
3 130
3 143
3 221
4 33
4 86
4 135
4 147
4 149
4 430
6 13
6 180
6 265
6 394
6 398
6 431
7 60
7 129
7 130
7 143
7 190
9 39
9 78
9 135
9 143
9 147
9 196
11 27
11 42
11 155
11 260
11 313
11 429
13 106
13 162
13 394
13 398
13 408
18 174
18 187
18 189
21 90
21 138
21 184
21 291
21 360
21 433
24 36
24 125
24 129
24 190
27 42
27 128
27 180
27 262
27 264
27 313
27 341
31 40
31 200
31 213
31 216
31 225
31 247
31 259
33 104
33 112
33 135
33 236
33 396
33 430
34 74
34 111
34 157
34 182
34 229
35 100
35 136
35 140
35 204
35 321
35 329
35 407
36 90
36 190
36 291
39 147
39 196
39 296
39 334
40 63
40 247
40 259
40 277
41 43
41 228
41 247
41 279
41 280
42 74
42 260
42 341
43 58
43 228
43 231
43 248
43 280
43 281
43 308
45 65
45 95
45 128
45 215
45 240
45 264
46 113
46 165
46 167
46 270
46 312
46 376
47 246
47 258
47 274
47 275
47 302
50 61
50 254
50 267
50 374
50 376
58 281
58 308
58 309
59 75
59 263
59 281
59 309
59 327
59 438
59 440
60 107
60 143
60 190
60 196
60 291
60 334
60 360
61 113
61 172
61 254
61 276
61 278
61 297
61 376
61 420
62 255
62 272
62 274
62 302
62 319
62 335
62 336
63 71
63 80
63 259
63 275
63 277
63 305
63 306
63 323
63 324
65 95
65 215
65 311
65 374
68 144
68 159
68 389
70 168
70 177
70 397
71 80
71 323
71 361
71 362
72 257
72 296
72 338
72 363
72 366
73 75
73 82
73 308
73 309
73 325
73 364
73 383
73 384
74 111
74 229
74 260
74 341
75 309
75 327
75 364
75 365
78 103
78 135
78 221
78 236
78 413
80 324
80 348
80 362
80 379
82 106
82 325
82 339
82 383
83 327
83 365
83 387
83 440
83 442
86 149
86 155
86 242
86 415
86 429
86 430
90 291
90 433
91 104
91 112
91 336
91 337
91 377
91 396
94 95
94 111
94 249
94 262
94 264
94 341
95 249
95 264
95 267
95 374
97 333
97 375
97 411
97 412
98 100
98 124
98 317
98 321
99 346
99 359
99 375
99 412
99 413
100 124
100 239
100 241
100 321
100 329
103 112
103 236
103 335
103 336
103 359
103 413
104 112
104 396
105 361
105 362
105 379
105 415
105 416
106 162
106 339
106 350
106 383
106 398
107 184
107 334
107 360
107 407
111 182
111 249
111 341
112 236
112 336
113 312
113 376
113 420
124 239
125 129
125 208
128 180
128 240
128 264
128 394
128 408
129 130
129 190
129 208
130 208
130 221
130 412
135 147
135 236
136 153
136 204
136 220
136 329
138 140
138 184
138 317
138 433
140 184
140 317
140 321
140 407
143 196
144 239
144 241
144 385
144 389
147 149
147 257
147 296
149 202
149 257
149 429
153 157
153 220
153 229
153 329
153 385
155 242
155 251
155 313
155 392
155 429
157 182
157 229
157 261
157 385
157 389
159 168
159 389
159 391
159 395
162 383
162 408
162 409
162 418
165 167
165 215
165 233
165 237
165 270
167 237
167 250
167 273
167 312
168 395
168 397
172 254
172 269
172 276
172 343
174 175
174 189
174 201
175 201
175 203
175 205
177 343
177 397
177 404
180 265
180 313
180 392
180 394
182 214
182 249
182 261
184 360
184 407
186 187
186 198
186 199
186 200
187 189
187 200
189 200
189 201
189 216
190 291
196 334
198 199
198 211
198 212
198 244
199 200
199 212
199 213
199 224
200 213
200 216
201 203
201 216
201 217
202 257
202 260
202 338
202 429
203 205
203 217
203 231
204 220
204 363
204 366
204 407
205 218
205 231
208 411
208 412
211 244
211 452
212 224
212 244
212 246
213 224
213 225
214 249
214 261
214 266
214 267
215 233
215 240
215 270
215 311
216 217
216 247
217 228
217 231
217 247
218 231
218 248
218 446
220 229
220 366
221 412
221 413
224 225
224 246
224 258
225 258
225 259
228 231
228 247
229 260
229 338
229 366
231 248
233 237
233 240
233 283
233 285
233 409
237 250
237 285
239 241
240 408
240 409
241 329
241 385
242 251
242 415
242 416
244 246
244 255
244 274
244 452
246 258
246 274
247 277
247 279
248 263
248 281
248 446
249 267
250 273
250 285
250 287
251 392
251 416
251 431
254 267
254 269
255 272
255 274
255 452
257 296
257 338
258 259
258 275
259 275
260 338
260 429
261 266
261 389
261 391
261 395
262 264
262 341
263 281
263 438
263 446
265 392
265 431
266 267
266 269
266 395
267 269
267 374
269 343
269 395
269 397
270 311
270 376
272 319
272 457
273 312
273 345
274 302
275 302
275 305
276 278
276 343
276 404
277 279
277 306
278 297
278 404
279 280
279 288
279 306
279 307
280 288
280 308
281 309
283 285
283 401
283 409
283 419
285 287
285 401
285 402
287 402
288 307
288 308
288 325
291 360
296 334
296 363
297 420
302 305
302 323
302 336
302 337
305 323
306 307
306 324
306 348
307 325
307 339
307 348
308 309
308 325
311 374
311 376
312 345
312 420
313 392
317 321
319 333
319 335
319 346
319 457
323 337
323 361
324 348
325 339
327 365
327 440
329 385
333 346
333 375
333 457
334 363
334 407
335 336
335 346
335 359
336 337
337 361
337 377
338 366
339 348
339 350
343 397
343 404
345 420
346 359
346 375
348 350
348 379
348 381
350 381
350 398
359 413
361 362
361 377
361 415
362 379
363 366
363 407
364 365
364 384
364 401
364 419
365 387
365 401
374 376
375 412
377 396
377 415
379 381
379 416
379 417
381 398
381 417
383 384
383 418
384 418
384 419
385 389
387 401
387 402
387 442
389 391
391 395
392 431
394 408
395 397
396 415
396 430
398 417
398 431
401 402
401 419
408 409
409 418
409 419
411 412
412 413
415 416
415 430
416 417
416 431
417 431
418 419
438 440
440 442
