ply
format ascii 1.0
comment Exported from MorphoGraphX 2.0.1-254
comment Cell Graph: each vertex is a cell, each edge a wall
element vertex 313
property int label
property float x
property float y
property float z
element edge 878
property uint source
property uint target
end_header
332 0 0 0 
336 0 0 0 
338 0 0 0 
340 0 0 0 
341 0 0 0 
343 0 0 0 
345 0 0 0 
346 0 0 0 
349 0 0 0 
351 0 0 0 
352 0 0 0 
353 0 0 0 
356 0 0 0 
359 0 0 0 
366 0 0 0 
369 0 0 0 
371 0 0 0 
372 0 0 0 
376 0 0 0 
378 0 0 0 
380 0 0 0 
384 0 0 0 
387 0 0 0 
389 0 0 0 
390 0 0 0 
391 0 0 0 
396 0 0 0 
397 0 0 0 
398 0 0 0 
399 0 0 0 
400 0 0 0 
401 0 0 0 
407 0 0 0 
408 0 0 0 
410 0 0 0 
412 0 0 0 
413 0 0 0 
414 0 0 0 
419 0 0 0 
420 0 0 0 
421 0 0 0 
422 0 0 0 
423 0 0 0 
424 0 0 0 
428 0 0 0 
429 0 0 0 
430 0 0 0 
431 0 0 0 
433 0 0 0 
434 0 0 0 
435 0 0 0 
436 0 0 0 
437 0 0 0 
438 0 0 0 
439 0 0 0 
440 0 0 0 
441 0 0 0 
442 0 0 0 
443 0 0 0 
444 0 0 0 
445 0 0 0 
446 0 0 0 
447 0 0 0 
448 0 0 0 
449 0 0 0 
450 0 0 0 
452 0 0 0 
453 0 0 0 
454 0 0 0 
455 0 0 0 
456 0 0 0 
457 0 0 0 
459 0 0 0 
460 0 0 0 
461 0 0 0 
462 0 0 0 
464 0 0 0 
465 0 0 0 
466 0 0 0 
467 0 0 0 
468 0 0 0 
469 0 0 0 
471 0 0 0 
472 0 0 0 
476 0 0 0 
478 0 0 0 
479 0 0 0 
481 0 0 0 
484 0 0 0 
486 0 0 0 
488 0 0 0 
490 0 0 0 
492 0 0 0 
493 0 0 0 
494 0 0 0 
495 0 0 0 
496 0 0 0 
497 0 0 0 
498 0 0 0 
499 0 0 0 
501 0 0 0 
502 0 0 0 
503 0 0 0 
504 0 0 0 
505 0 0 0 
506 0 0 0 
507 0 0 0 
509 0 0 0 
511 0 0 0 
512 0 0 0 
514 0 0 0 
515 0 0 0 
516 0 0 0 
517 0 0 0 
518 0 0 0 
519 0 0 0 
521 0 0 0 
523 0 0 0 
525 0 0 0 
526 0 0 0 
527 0 0 0 
530 0 0 0 
531 0 0 0 
532 0 0 0 
535 0 0 0 
536 0 0 0 
538 0 0 0 
539 0 0 0 
540 0 0 0 
541 0 0 0 
542 0 0 0 
543 0 0 0 
546 0 0 0 
548 0 0 0 
549 0 0 0 
550 0 0 0 
551 0 0 0 
552 0 0 0 
553 0 0 0 
554 0 0 0 
555 0 0 0 
557 0 0 0 
559 0 0 0 
560 0 0 0 
561 0 0 0 
563 0 0 0 
565 0 0 0 
566 0 0 0 
567 0 0 0 
568 0 0 0 
569 0 0 0 
570 0 0 0 
571 0 0 0 
572 0 0 0 
573 0 0 0 
574 0 0 0 
575 0 0 0 
576 0 0 0 
577 0 0 0 
578 0 0 0 
580 0 0 0 
581 0 0 0 
582 0 0 0 
583 0 0 0 
584 0 0 0 
585 0 0 0 
587 0 0 0 
588 0 0 0 
589 0 0 0 
590 0 0 0 
591 0 0 0 
592 0 0 0 
593 0 0 0 
595 0 0 0 
596 0 0 0 
600 0 0 0 
601 0 0 0 
602 0 0 0 
605 0 0 0 
606 0 0 0 
608 0 0 0 
610 0 0 0 
612 0 0 0 
614 0 0 0 
615 0 0 0 
617 0 0 0 
618 0 0 0 
619 0 0 0 
620 0 0 0 
621 0 0 0 
622 0 0 0 
623 0 0 0 
624 0 0 0 
626 0 0 0 
628 0 0 0 
630 0 0 0 
631 0 0 0 
632 0 0 0 
634 0 0 0 
635 0 0 0 
636 0 0 0 
638 0 0 0 
640 0 0 0 
641 0 0 0 
643 0 0 0 
644 0 0 0 
645 0 0 0 
646 0 0 0 
647 0 0 0 
649 0 0 0 
650 0 0 0 
651 0 0 0 
652 0 0 0 
653 0 0 0 
655 0 0 0 
657 0 0 0 
658 0 0 0 
659 0 0 0 
661 0 0 0 
662 0 0 0 
663 0 0 0 
664 0 0 0 
665 0 0 0 
666 0 0 0 
667 0 0 0 
669 0 0 0 
670 0 0 0 
671 0 0 0 
672 0 0 0 
674 0 0 0 
675 0 0 0 
676 0 0 0 
677 0 0 0 
678 0 0 0 
679 0 0 0 
680 0 0 0 
681 0 0 0 
683 0 0 0 
684 0 0 0 
685 0 0 0 
686 0 0 0 
687 0 0 0 
688 0 0 0 
689 0 0 0 
690 0 0 0 
691 0 0 0 
692 0 0 0 
693 0 0 0 
694 0 0 0 
695 0 0 0 
696 0 0 0 
697 0 0 0 
698 0 0 0 
699 0 0 0 
700 0 0 0 
701 0 0 0 
702 0 0 0 
704 0 0 0 
705 0 0 0 
706 0 0 0 
708 0 0 0 
709 0 0 0 
710 0 0 0 
712 0 0 0 
713 0 0 0 
714 0 0 0 
715 0 0 0 
716 0 0 0 
717 0 0 0 
719 0 0 0 
720 0 0 0 
721 0 0 0 
722 0 0 0 
725 0 0 0 
726 0 0 0 
727 0 0 0 
728 0 0 0 
729 0 0 0 
730 0 0 0 
731 0 0 0 
732 0 0 0 
733 0 0 0 
734 0 0 0 
735 0 0 0 
737 0 0 0 
738 0 0 0 
739 0 0 0 
740 0 0 0 
741 0 0 0 
742 0 0 0 
743 0 0 0 
745 0 0 0 
746 0 0 0 
747 0 0 0 
748 0 0 0 
750 0 0 0 
751 0 0 0 
752 0 0 0 
753 0 0 0 
754 0 0 0 
755 0 0 0 
756 0 0 0 
757 0 0 0 
758 0 0 0 
759 0 0 0 
760 0 0 0 
761 0 0 0 
762 0 0 0 
763 0 0 0 
764 0 0 0 
765 0 0 0 
766 0 0 0 
767 0 0 0 
332 376
332 515
332 548
332 601
332 635
332 662
336 481
336 494
336 495
336 504
336 641
338 434
338 459
338 541
338 591
338 742
338 759
338 765
340 413
340 471
340 502
340 690
340 747
341 493
341 504
341 511
341 512
341 645
341 665
343 519
343 525
343 526
343 663
345 412
345 423
345 530
345 651
346 351
346 498
346 502
346 559
346 570
346 714
349 628
349 638
349 675
351 376
351 498
351 574
351 686
351 714
351 739
352 353
352 525
352 526
352 540
352 551
352 557
352 688
353 540
353 557
353 687
353 700
353 709
356 424
356 454
356 527
356 563
356 743
359 531
359 561
359 596
359 732
366 557
366 576
366 577
366 595
366 720
366 741
369 436
369 461
369 587
369 600
369 726
369 738
369 746
371 468
371 732
372 606
372 620
372 693
372 696
372 719
372 728
376 574
376 601
376 662
376 739
378 531
378 549
378 596
378 657
378 713
378 722
380 479
380 623
380 748
384 484
384 592
384 615
384 630
384 745
384 751
387 546
387 573
387 626
387 670
387 722
387 750
389 398
389 466
389 498
389 570
389 618
389 764
390 610
390 653
390 693
390 747
390 753
390 754
390 767
391 454
391 469
391 584
391 634
391 638
391 675
391 735
391 743
396 636
396 701
396 756
397 484
397 539
397 552
397 615
397 636
397 701
398 498
398 667
398 683
398 686
398 764
399 410
399 412
399 501
399 511
399 645
399 651
400 420
400 541
400 612
400 631
400 632
401 472
401 622
401 653
401 655
401 696
401 767
407 408
407 496
407 506
407 514
407 517
407 672
408 497
408 506
408 517
408 649
408 663
408 674
410 412
410 511
410 532
410 671
410 678
412 530
412 532
412 651
413 690
413 693
413 728
413 747
414 443
414 444
414 536
414 554
414 621
414 670
414 727
414 750
419 430
419 535
419 542
419 553
419 665
419 671
419 697
420 421
420 456
420 541
420 591
420 632
421 456
421 507
421 573
421 626
421 632
422 444
422 515
422 518
422 605
422 619
422 704
423 530
423 691
424 454
424 527
424 655
424 719
424 729
428 438
428 538
428 560
428 698
428 700
429 612
429 666
429 684
429 708
429 733
429 760
430 436
430 553
430 567
430 697
430 706
430 726
431 441
431 550
431 569
431 706
431 716
433 486
433 503
433 509
433 554
433 575
433 585
433 762
433 766
434 492
434 588
434 644
434 742
434 765
435 440
435 582
435 702
436 446
436 567
436 726
436 738
437 459
437 568
437 681
437 705
437 759
437 765
438 442
438 448
438 560
438 698
438 716
439 449
439 576
439 580
439 709
439 717
440 452
440 577
440 582
440 702
440 710
440 720
441 447
441 448
441 569
441 587
441 716
442 448
442 560
442 580
442 717
442 740
443 444
443 515
443 548
443 750
444 515
444 536
444 704
444 752
445 453
445 572
445 592
445 721
445 725
446 566
446 567
446 730
446 738
446 745
447 448
447 457
447 462
447 587
448 462
448 716
448 740
449 576
449 580
449 741
449 753
449 754
450 521
450 614
450 634
450 731
450 734
450 735
452 577
452 582
452 595
452 748
452 755
453 572
453 592
453 737
453 751
453 757
454 469
454 729
454 743
455 563
455 628
455 743
456 591
456 626
456 652
456 657
457 462
457 466
457 587
457 618
457 746
459 541
459 631
459 705
459 733
459 759
460 590
460 636
460 737
460 756
460 757
461 466
461 600
461 617
461 683
461 746
462 467
462 618
462 740
462 758
464 555
464 578
464 585
464 640
464 689
464 731
465 499
465 600
465 630
465 745
465 761
466 618
466 683
466 746
466 764
467 471
467 502
467 570
467 618
467 758
468 543
468 554
468 621
468 732
468 762
469 624
469 634
469 729
471 502
471 602
471 610
471 747
471 758
472 476
472 622
472 623
472 655
472 755
476 527
476 623
476 655
476 658
478 584
478 614
478 699
478 735
479 623
479 658
479 677
481 495
481 496
481 643
484 516
484 539
484 615
484 630
484 681
486 509
486 575
486 664
488 490
488 497
488 506
488 643
490 497
490 649
490 650
492 588
492 608
492 676
492 763
492 765
493 504
493 641
493 645
494 495
494 504
494 505
494 512
495 496
495 505
495 643
496 505
496 506
496 514
496 643
497 506
497 649
498 570
498 686
499 516
499 630
499 646
499 669
499 684
499 761
501 651
502 559
502 570
502 690
503 575
503 762
504 512
504 641
505 512
505 514
505 659
505 661
506 643
507 546
507 548
507 573
507 632
507 635
507 760
509 581
509 585
509 664
509 689
511 645
511 665
511 671
512 535
512 659
512 665
514 523
514 661
514 672
514 680
515 548
515 619
515 662
516 630
516 681
516 684
516 705
517 538
517 672
517 674
517 687
518 555
518 578
518 605
518 620
518 704
519 525
519 540
519 663
519 674
521 555
521 606
521 620
521 624
521 634
521 731
523 535
523 659
523 661
523 679
523 680
525 526
525 540
526 688
527 563
527 655
527 658
530 532
530 691
530 692
531 543
531 596
531 722
531 727
531 732
532 678
532 692
532 694
535 659
535 665
535 679
535 697
536 554
536 640
536 752
536 766
538 672
538 687
538 698
538 700
539 552
539 568
539 681
540 674
540 687
541 591
541 631
542 553
542 671
542 678
542 695
543 621
543 727
543 732
546 548
546 573
546 750
548 635
548 750
549 561
549 596
550 679
550 680
550 698
550 706
550 716
551 557
551 688
551 710
551 720
552 568
552 593
552 608
552 701
553 567
553 695
554 621
554 762
554 766
555 578
555 620
555 731
557 576
557 709
557 720
559 589
559 605
559 690
559 714
560 700
560 717
561 596
563 658
563 677
563 743
565 572
565 712
565 721
566 567
566 695
566 715
566 725
566 730
567 695
568 608
568 681
568 765
569 587
569 706
569 726
570 618
571 574
571 583
571 601
571 667
571 685
571 708
572 590
572 712
572 721
572 737
573 626
574 601
574 667
574 686
576 709
576 741
577 595
577 720
578 640
578 704
578 752
580 602
580 717
580 740
580 753
581 664
581 689
581 699
582 748
583 601
583 635
583 708
583 760
584 675
584 735
585 640
585 689
585 766
587 726
587 746
588 644
588 676
589 605
589 619
589 662
589 714
589 739
590 737
590 756
591 652
591 742
592 725
592 730
592 745
592 751
593 608
593 763
595 622
595 741
595 755
596 722
600 617
600 738
600 745
600 761
601 635
602 610
602 740
602 753
602 758
605 619
605 620
605 690
605 728
606 620
606 624
606 719
606 729
608 763
608 765
610 747
610 753
612 631
612 632
612 733
612 760
614 699
614 734
614 735
615 636
615 751
615 757
617 647
617 669
617 683
617 761
619 662
620 728
621 727
622 741
622 754
622 755
622 767
623 658
623 748
623 755
624 634
624 729
626 657
626 722
628 638
628 743
630 745
631 733
632 760
634 735
635 760
636 701
636 756
636 757
638 675
638 743
640 752
640 766
644 713
644 742
646 666
646 669
646 684
647 666
647 667
647 669
647 683
647 685
647 708
649 650
649 663
652 657
652 713
652 742
653 693
653 696
653 767
655 696
655 719
657 713
657 722
658 677
659 661
662 739
663 674
665 671
666 669
666 684
666 685
666 708
667 683
667 685
667 686
669 761
670 722
670 727
670 750
671 678
672 680
672 698
674 687
676 763
678 694
678 695
679 680
679 697
679 706
680 698
681 705
683 764
684 705
684 733
685 708
687 700
688 702
688 710
689 699
689 731
689 734
690 728
691 692
691 712
692 694
692 712
693 696
693 728
693 747
694 695
694 712
694 715
694 721
695 715
696 719
697 706
698 716
699 734
700 709
700 717
702 710
704 752
705 733
706 726
708 760
709 717
710 720
712 721
713 742
714 739
715 721
715 725
719 729
721 725
722 727
725 730
730 745
731 734
737 757
738 745
740 758
741 754
748 755
751 757
753 754
754 767
759 765
