ply
format ascii 1.0
comment Exported from MorphoGraphX 2.0 1-254
comment Cellular mesh
element vertex 620
property float x
property float y
property float z
property float signal
element face 313
property list int int vertex_index
property int label
end_header
-15.4491 8.36235 8.40011 58485.4
-13.807 2.41294 8.26187 65535
-11.8401 2.83369 8.48626 58658.1
-9.39943 6.62541 8.98136 56974.3
-10.5526 8.92832 8.7927 62738.3
-11.2214 -19.9878 4.9446 56183.4
-9.02823 -18.0486 5.83819 54616.8
-11.3828 -12.5239 6.58051 65535
-15.7 -12.424 6.09781 44727.6
-16.7523 -13.4784 5.7514 64984.8
44.2766 -1.75281 -2.47129 55535.7
45.4466 -1.61959 -2.97728 58752.8
47.2669 0.162874 -3.70637 53779.7
47.0343 3.99657 -3.34527 56859.3
43.9489 7.73754 -1.78627 63130.9
41.5375 7.29458 -0.81896 62177.3
-13.3028 -37.2472 -3.01132 56467
-10.7452 -34.4228 -0.434054 55266.6
-13.5297 -30.0822 0.890236 60322
-16.515 -30.3764 -0.443606 53973.6
-16.868 -35.0993 -2.68967 55121.6
-18.5507 53.7574 -4.15245 55002.2
-15.4439 52.16 -2.61511 62148.6
-12.9662 55.1201 -3.96087 57986.5
-10.8256 57.6257 -5.22697 52695.4
-18.6863 55.5915 -5.29583 64585.2
-17.8573 43.7787 0.900475 61507.1
-13.9054 45.226 1.06739 54430.9
-13.0606 47.937 0.0924715 58365.9
-15.2002 50.8428 -1.72053 64799
-19.8609 47.2068 -0.913478 62410.1
-20.3444 40.9671 1.09726 64379.1
-20.416 38.7971 1.63664 59563.5
-14.9239 36.8873 3.6122 58004.9
-11.1858 40.0671 3.08131 54093.5
-12.9938 20.526 7.56033 53805
-12.0836 21.0679 7.5665 49124.1
-9.85546 24.01 7.39838 51729.2
-10.6601 26.6344 6.79677 59089.9
-17.1802 28.0657 5.27342 47819.7
-19.041 24.5043 5.66175 52709.5
-18.5776 21.7221 6.44284 52926.7
-19.7123 16.7171 6.80415 58185.8
-16.7672 14.5939 7.53709 59415.5
-13.8037 14.796 8.11273 62020.7
-19.4022 19.2987 6.6376 50379.4
-18.8621 9.95098 7.74819 55516.6
-18.5683 9.60227 7.79964 53751.1
-10.9648 13.2265 8.39273 60439.6
-20.5818 5.1909 7.07321 64363.8
-18.7083 2.85469 7.42038 56522.3
-15.3536 1.00357 7.81681 58583.7
-19.0222 -15.1393 4.60601 49136.3
-18.0538 -18.7593 3.74903 59823.4
-15.094 -21.1785 3.74014 60148.6
-11.8768 -20.9627 4.51007 58788.6
-19.3708 -28.1664 -0.147157 57173.9
-11.8563 -28.3043 2.10896 62147.3
-16.151 -23.0412 2.90689 60608.1
-19.438 -25.7327 0.851795 52115.5
-17.4765 -41.4993 -6.73161 53646
-15.561 -42.1543 -6.57824 52787.3
-14.8878 -41.5836 -5.96558 61770.4
-13.0998 -37.5777 -3.21527 55225.3
-19.6061 -35.7712 -3.75614 60170
-23.5368 50.6415 -3.91133 61188.9
-22.0878 48.6525 -2.31824 58551.7
-22.8816 52.7303 -4.71516 51593
-17.6049 30.8352 4.66542 59506.4
-14.7099 34.1509 4.40696 56562.2
-22.216 34.2804 2.4264 52297.7
-20.551 32.2325 3.45199 59135.4
-22.3775 25.8689 4.72596 64166
34.083 -37.187 -8.06193 24502.4
37.4077 -31.6144 -7.03732 43185.8
35.9827 -31.4015 -6.46879 50534.1
32.8118 -33.6129 -6.00269 64329
32.5997 -35.2449 -6.96005 43809.8
-20.5701 -4.24356 6.57741 51691.2
-20.6833 -4.60551 6.44732 51650.3
-18.6885 -8.20416 6.48635 62608.8
-16.3125 -9.60537 6.75463 56591.7
-13.4955 -5.72828 7.66746 54623.9
-16.2518 -2.21324 7.33844 58276.9
-22.5832 -1.28612 6.46292 63622.7
-21.225 -14.4235 4.10599 51307
-21.992 -38.2285 -6.23463 64133.5
-24.5326 54.2368 -6.1036 45876.8
18.4412 1.37927 6.00737 57310.8
18.2107 4.54515 5.9983 54269.8
16.4306 7.12324 6.62318 55771.2
13.0521 6.60351 7.26528 55470.9
11.7874 0.921348 7.63185 51209.6
12.707 -0.906385 7.28822 47889.8
-24.6917 43.7941 -1.32821 53770.7
-23.7909 42.6344 -0.589731 56057.9
-25.0769 34.2811 1.46281 60746
-26.1354 27.2448 3.12395 62226.5
-24.9413 25.7303 3.81846 50962.4
-22.6711 16.0881 6.18961 62432.2
-23.7073 12.7801 6.59674 59566.2
-23.1928 10.7767 6.51951 59182
12.2159 -14.1082 5.64557 60293.5
11.6453 -16.8814 5.25356 53386.1
14.4854 -18.5262 4.6558 56099.7
19.2243 -16.5533 3.97005 63725.8
19.1484 -14.6542 4.33612 47135.8
17.0394 -12.1313 5.09771 60994.7
-24.5847 4.89014 5.81014 58847.7
-26.0863 1.97778 5.49589 57020.9
53.7038 -9.46617 -8.12748 16119.2
55.0236 -3.75361 -7.99769 17118.4
51.7565 -5.82504 -7.14299 49473.8
52.236 -9.05701 -7.56715 40901.1
34.2012 22.6075 1.76619 51406.9
34.7336 23.2159 1.39755 63263.4
35.3296 26.4834 0.21561 56288.3
32.6174 30.6669 0.307156 54945.5
29.0361 29.8755 1.56881 50721.9
29.7191 23.8608 2.88058 64591.9
-22.9572 -20.6653 1.84232 57678.4
-22.7291 -14.6125 3.43748 53500.1
-24.0794 -17.9386 2.37244 51627
-23.9628 -23.0405 0.479949 53990
-22.2449 -29.6091 -1.65398 58505.4
-25.407 -23.7451 -0.159408 55066.7
-23.3632 -32.033 -3.04689 56855.5
-28.1434 49.0744 -5.23682 55626.4
-28.7815 46.2766 -4.32264 52145.4
-27.5066 36.3292 -0.0381806 50329.6
-27.0457 39.4593 -0.67127 53710.7
-25.8878 20.9618 4.24551 56734.1
10.9188 58.7456 -5.9647 47393.8
10.4902 57.3369 -5.30387 50381
11.0214 54.8384 -4.02746 58323.5
11.752 52.875 -3.16653 65535
15.9306 52.6378 -3.96655 52951
16.9536 53.4179 -4.67078 60350.9
14.9566 58.4844 -6.46458 53162.5
-26.147 17.8404 4.86607 55600.4
16.0062 49.579 -2.02309 62298.1
16.2784 49.8386 -2.25552 60463.2
10.6508 50.6236 -1.67487 61216
-26.4914 7.28659 5.47453 63393.3
-25.442 -11.8803 3.41275 59313
-23.5455 -6.99656 5.19536 65155.1
-25.6498 -8.14024 4.32045 51969.8
9.87982 42.3787 1.96088 55190.2
14.9175 36.7599 2.88481 58522.6
16.6431 38.1303 2.30898 52975.5
17.4588 40.0312 1.56119 53003.2
13.1924 45.4783 0.329974 59399.3
10.6168 45.4797 0.569418 62108.3
48.9648 4.69858 -4.26462 63814.1
48.0269 10.845 -3.72696 56376.4
46.0908 10.74 -2.64086 50541.7
-24.0452 -37.8582 -6.5166 57257.1
-24.9127 -31.816 -3.34338 55177.8
-26.7238 -33.6692 -4.86601 63543.5
2.8527 1.71503 8.24377 48981.5
-0.987942 2.62704 8.49752 51244.7
-2.20128 -0.709362 8.90189 63593.9
3.5206 -1.85527 8.36174 63190
-29.1738 50.3173 -6.13576 60648.8
-30.353 43.6438 -3.80637 46610.8
12.3181 11.4162 7.52209 63300.3
16.7083 10.3006 6.79927 43388.5
17.4019 13.1292 6.53909 45486.2
14.7951 17.4959 6.46185 53395
11.424 15.9721 7.34935 57128.3
-30.2267 27.8795 1.41269 59886.5
-28.5788 26.9395 2.396 60453.7
-28.2071 35.9012 -0.197476 52867.7
-30.9997 19.8907 2.72827 64798.5
-28.9573 17.9033 3.75658 60508.4
-29.4637 15.0691 4.13263 47277.3
-28.3647 -2.19227 4.52262 61895.6
-27.9341 0.944509 4.82992 59975.4
-29.0122 -7.04678 3.36873 49006.6
-30.1324 -5.07144 3.3723 46480.9
-26.9756 -17.739 1.62507 65535
-29.7917 -14.3928 1.45306 51433.1
-48.8821 5.35388 -7.92655 56330.9
-46.9144 4.78489 -4.36763 45346.8
-45.2943 10.9779 -4.00863 59250.6
-45.86 12.2213 -4.44754 47529.2
-48.621 11.4872 -7.25508 50931.8
4.44548 -28.6564 2.53549 50852.5
1.87972 -29.7504 2.33704 49848.6
0.0203241 -34.3475 0.306738 45177.6
2.4492 -36.4262 -0.862124 55625.1
6.15034 -34.8484 0.0562702 59101.7
8.66965 -32.1081 1.11708 57571.9
6.93625 -29.8922 2.18229 61614.8
-11.251 32.4373 5.39609 60960.5
-6.57839 38.1895 4.50245 57376.9
-7.65592 40.2924 3.56343 54130.2
7.07842 -40.7939 -3.69211 55311.2
10.225 -39.9515 -3.14889 58534.6
11.0513 -37.3247 -1.75657 58239.5
2.94913 -38.4208 -1.96504 59647.8
2.46786 -8.29902 7.70002 53324.8
-1.19955 -6.46716 8.2685 64169.6
-6.19515 -12.3397 6.91779 47182.2
-4.7557 -14.2373 6.44461 51977.4
-1.40706 -13.0502 6.98824 61462.4
1.45438 -11.6962 7.11736 60834.1
49.2389 17.2954 -4.47466 56873.2
44.7965 13.9496 -1.63413 60879.4
44.6043 13.5885 -1.51972 62817.2
49.9796 11.5086 -5.09972 53183.5
51.6215 14.1976 -5.87294 56927.1
4.13764 47.6128 0.74842 58422.7
6.88278 49.6154 -0.546385 56100
5.43176 53.0496 -2.20048 60463.1
2.6855 53.7639 -2.24762 58697.9
-0.672439 50.8531 -0.471933 52810.8
16.0199 -20.5405 3.68592 59735.3
18.1102 -21.956 2.66014 56544.7
21.0099 -20.3753 2.25695 55503.6
21.4633 -19.4498 2.47082 52793.9
50.1578 23.4162 -5.9798 64076.3
47.5169 22.4268 -4.0708 64881.3
46.5217 20.6636 -3.30488 55354.2
52.7847 14.7162 -6.51529 62827.9
53.7805 17.3898 -7.22014 37751
52.3731 21.3869 -6.97839 46653.8
14.7709 21.8891 6.43479 56854.6
14.6921 23.9134 6.07899 49627.6
12.8085 25.4582 6.06592 50935.7
9.68394 24.078 7.22742 64011
6.99097 21.142 7.86782 50441.8
7.8385 18.5054 7.89975 63163.8
3.83346 45.7455 1.58454 59309.2
7.29465 41.6041 2.67111 63290.9
8.95716 49.2229 -0.737551 55327.6
4.72529 3.66319 8.20261 55559.6
4.11115 -2.23672 8.1599 52040.5
9.59793 1.52164 7.86599 55927.9
7.98519 4.78701 7.83976 44127
6.69035 40.2643 3.18758 56756.6
1.16235 43.5211 2.50811 60230.8
1.38201 41.3318 3.24693 62705.5
3.91625 38.8755 3.88844 63013
5.99452 57.9516 -4.88857 55893.1
2.37888 56.1362 -3.64204 62238.7
2.52327 -45.486 -6.39658 52396.5
2.25927 -46.5991 -7.08524 42516.8
11.3539 -45.7496 -7.17336 48967.5
7.54187 -43.2807 -5.62446 50510.5
3.38312 36.2969 4.69622 56316.2
4.95559 34.3302 5.11852 53848.3
9.39269 35.3835 4.18129 62763.8
20.5234 -1.55279 5.82027 53714.1
21.4371 -1.66808 5.49043 55073.1
23.6204 2.33919 5.32415 65052.4
22.0396 5.11044 5.65709 51135
21.0894 48.4157 -2.93668 65535
21.5159 49.5475 -3.70563 60795.1
21.3585 51.663 -5.01499 52347.9
19.5732 53.1863 -5.43748 51167.2
54.9623 23.6921 -7.97121 14877.3
52.4314 28.7751 -8.01579 28128.7
50.1607 26.618 -6.72487 48760.5
25.3287 45.9665 -3.41594 49049
25.1376 42.9267 -1.51414 63529.9
26.6473 39.8694 -0.638088 62349.7
30.6412 39.9511 -2.40566 49230.9
31.4438 42.7824 -4.07651 51680.6
29.2266 45.391 -4.40189 52247.2
27.2801 -8.98909 3.01561 51302.3
31.1073 -7.92919 1.6397 48132.6
29.8425 -3.52184 3.14173 64644.5
28.4035 0.0931601 3.66901 53475.6
26.8715 -0.00228521 4.13718 48280.7
23.9567 -4.65256 4.25665 50508.3
25.5329 -8.50835 3.41185 65262.6
56.007 17.5837 -7.81592 11486.1
28.5114 -20.2535 0.510897 50651
30.9002 -18.2007 0.184467 52688.7
28.8989 -14.359 1.72953 56619.9
25.4003 -16.0211 2.54402 47040.3
24.7342 -17.6508 2.32443 62498.3
39.2882 -16.0207 -2.89579 59748.2
42.8614 -16.2143 -4.67589 58300.2
44.4356 -15.1961 -5.15777 54516.6
44.5687 -8.62968 -3.53216 56366.3
43.2295 -7.54119 -2.76432 54427.6
37.5621 -10.8441 -0.683973 54345.3
-5.46923 37.9282 4.56497 54780.2
-3.04862 45.7998 1.75138 51728.4
-5.79275 43.9315 2.64584 57173.3
-2.89296 49.7728 0.0623131 60002.3
19.5727 40.6912 0.957331 57777.2
20.006 42.7342 0.186784 61928.3
19.4368 44.6176 -0.687855 55331.2
15.842 46.763 -0.622138 57694.9
40.5211 17.9272 -0.168338 65054.8
42.6467 18.5625 -1.13322 60819.5
43.4815 19.7804 -1.74298 59819.6
39.6799 26.9879 -1.27489 64500.1
-4.07202 35.1948 5.17098 61393.7
-8.60178 -26.8956 3.03736 53807.9
-7.82175 -26.86 3.1388 50497.1
-3.92525 -25.4493 3.66875 63678.7
-3.07408 -23.5664 4.32862 60166.2
-7.3301 -18.2244 5.8774 62776.7
-45.2964 17.4686 -4.97063 52129
-47.4408 18.3993 -5.79869 43753.9
-48.2364 18.2422 -5.96252 37829.4
40.3294 41.2171 -7.07457 62228.2
42.1335 41.7899 -7.76362 46473.4
36.5572 47.4938 -7.99833 33042.2
35.6224 45.4668 -6.86949 54189.4
35.8582 44.3042 -6.35746 65535
34.9685 43.1697 -5.55736 60561.2
30.2902 46.2802 -5.25792 63847.4
54.0377 0.867544 -7.83013 36890.1
53.7123 4.9859 -7.50375 28876
52.2065 5.4768 -6.5747 46637.7
51.1743 4.7636 -5.89952 53359.6
49.5051 -1.04154 -5.39585 63945
50.412 -2.02997 -6.16042 54306.3
47.5751 -7.62915 -4.91241 64035.2
50.9065 -5.44737 -6.778 49307.3
37.0405 15.5016 1.41519 57178.1
37.8442 11.2172 1.30997 55439.7
42.2511 29.3391 -3.1942 51558.5
40.2807 28.8681 -2.07147 48127.3
34.1701 18.2449 2.10446 58125.9
-46.0474 -2.31614 -4.85037 46726.8
-43.7899 -0.835792 -3.16473 62416.2
-44.5796 4.23113 -3.07882 54989.6
-48.3961 -1.238 -6.24634 54339.9
53.0035 7.46158 -6.99515 38141.6
25.0992 53.2107 -7.07768 51039.9
25.2117 53.8033 -7.36874 43918.5
20.8669 54.8571 -6.74332 52413.8
2.78921 23.6775 7.74405 60212.7
4.21488 21.4172 8.10995 62761.7
6.38271 27.3284 6.90208 60986.3
19.3446 -37.5783 -3.72953 58262.4
20.4154 -35.061 -3.0267 52299.9
17.2412 -31.5346 -0.4058 55031.4
14.8245 -30.743 0.299579 52892.4
12.4452 -32.247 0.144761 62851.7
12.4516 -36.3485 -1.38695 57304.7
24.5591 37.7923 0.660907 52049.6
-6.25395 -37.3969 -1.37804 52443.5
-3.85893 -36.6909 -0.682755 59341.8
-2.96377 -34.27 0.306691 49942.6
-6.15702 -31.522 1.47161 62190.7
-9.73366 -34.0753 0.170814 53719.4
-42.2964 -5.98571 -2.89405 59253.3
-41.5764 -2.1621 -2.02492 53669.2
-45.3654 -6.02764 -4.69524 50003.1
10.8668 -3.27701 7.43479 63044
14.2786 -7.06309 6.85131 57161.5
15.5111 -7.29234 6.53427 56157.4
37.0296 10.7481 1.66872 53150
30.5384 17.7531 3.48623 63370.9
29.0136 16.18 3.91787 52070.3
31.5313 11.3214 3.78539 65094.7
15.979 -42.972 -5.99179 59184.1
30.489 48.3593 -6.52781 45065
27.412 50.1318 -6.18562 63332.4
21.76 46.5832 -2.38533 56989.3
32.3335 35.196 -0.797819 51858
32.9301 37.0956 -1.97657 48862.1
24.7276 34.334 1.94175 59236.8
26.4142 33.3566 1.73344 65481.2
46.5761 37.6067 -7.83624 31556
42.9695 34.4865 -5.24768 49097.6
43.3682 31.0323 -4.21458 63444.3
47.4924 31.0769 -6.41602 44936.6
49.9362 33.7553 -8.05299 31371
-7.69464 -39.7869 -3.32912 54797.5
-9.16549 50.9384 -0.56952 61541
-5.7696 52.3791 -1.25521 55927.9
-5.66746 54.2115 -2.45369 63144.3
-7.21497 57.5071 -4.82084 52671.3
41.2105 34.8841 -4.62227 53887.5
38.5452 33.9791 -2.92016 62740
37.5237 32.522 -2.0974 55826.2
28.8528 -13.0831 2.03011 54570.1
22.4854 -12.5881 3.98414 63010.1
26.2631 -28.0015 -1.35341 63196.9
24.7219 -26.0191 -0.0607294 51502.2
21.4781 -27.4095 0.344527 51489.2
19.7668 -30.1008 -0.421475 52445.4
5.55158 13.9988 7.99728 48435.9
8.73767 16.5551 7.80805 55717.7
1.58425 17.2617 8.59745 51522.9
1.76668 15.0372 8.73194 64756.9
25.4874 1.35328 4.73002 58534.3
27.6346 7.02298 4.7041 63469.5
26.2992 7.8891 4.90215 50474.5
23.2985 6.87326 5.50623 44743.6
20.9221 14.2108 5.92731 61989.1
21.3279 15.0034 5.6761 62110.1
19.7553 20.9737 5.2255 65535
15.8482 20.4107 6.16819 48670.7
46.1231 -15.3235 -6.01126 56585.9
40.3354 -21.5298 -4.69203 62076.3
40.9862 -24.7867 -6.299 56362
42.6054 -24.7653 -6.92643 56337.3
33.7547 -12.5722 0.520807 60792.2
34.9174 -18.6241 -1.50678 54692.3
37.365 -18.14 -2.52065 56796
36.9892 -10.6938 -0.452603 54635.4
24.8762 -24.5194 0.47558 54817.5
24.396 -23.5295 0.832293 55589.3
17.2953 -24.6663 2.06662 64341.6
-9.07887 30.217 6.41948 64879.3
-3.87663 32.7922 5.6412 53771.3
-43.0508 19.3624 -4.15818 56278.5
-42.5245 23.7173 -4.93653 45144.1
-44.0655 24.7157 -5.82508 47558.3
0.66479 -40.0115 -2.58661 59805.8
-1.49455 -42.5462 -4.42537 63773.4
-0.454947 -43.5744 -5.06324 56902.5
29.0808 -39.8248 -7.9989 19017.9
27.8763 -37.6228 -6.48578 58668.5
26.3474 -37.0765 -5.63629 60756.5
21.6886 -40.5417 -6.10542 53282.9
23.9919 -42.3995 -7.80746 39604.7
-44.1397 10.3753 -3.03278 63006.6
-41.3341 17.4028 -2.32048 60745.3
-49.3828 -0.73278 -7.76597 63567
25.1091 -34.0955 -3.74517 55649.2
19.1824 -40.1006 -4.96568 53409.5
7.80255 9.5083 7.63454 51634.9
8.84453 6.59105 7.55859 47572.9
17.26 9.52786 6.66291 49630.3
48.9864 -12.5302 -6.51441 61479.1
49.2177 -12.9189 -6.64709 64010.6
-4.30066 22.4984 7.93726 53928.8
-0.384584 26.3728 7.18763 59071.2
0.121578 29.8878 6.0069 52480.8
-1.56672 30.9318 6.02218 64659.9
-7.35513 24.119 7.66758 54732.2
-8.54772 -42.3684 -5.27776 63097.8
-7.09628 -40.7746 -3.91341 55796.1
33.4539 -24.1868 -2.35091 58544.1
33.2558 -27.2461 -3.55496 61762
35.8067 -28.1216 -5.09736 55627.6
38.9708 -20.659 -3.62246 64374.2
32.9941 -19.4732 -1.06091 49576.5
32.9682 -23.0207 -1.90305 60585.1
-8.7391 14.8918 8.46929 55815.9
-7.90854 18.4006 8.36383 61561.2
31.2564 3.03181 2.91281 54488.1
31.7653 5.08677 2.86284 49349.8
30.3132 7.29898 3.60993 53110.5
35.8076 -6.85291 0.273167 61387.6
-28.9622 -25.2139 -2.11413 58596.7
-27.8081 -23.3964 -1.06137 46914.2
-29.4707 -21.6964 -1.17335 48150.3
-32.3367 -18.2221 -1.24302 57664.6
-35.5351 -18.8298 -2.48171 52956.1
-34.8651 -22.8165 -3.50441 64748.9
-9.3308 -0.44205 8.87606 60836.2
-12.3835 -5.81712 7.88735 58691.4
-8.12191 -44.3721 -6.42179 59625.6
-10.1233 48.6978 0.273907 46829.8
5.73038 10.7094 7.99615 59542
3.24397 9.64972 8.38112 58457.7
-5.88905 5.68589 9.26962 57491.8
-4.59447 11.751 9.18086 59136.4
-5.93778 13.4326 9.01064 61723.1
21.5262 8.89408 5.90881 65535
-49.331 -6.03135 -6.68787 33991.7
-46.423 -6.66171 -5.44307 34278.2
18.4965 -42.3337 -6.12424 58270.6
-9.07291 -45.5132 -7.14304 42656.4
-8.85983 -7.80634 7.66807 51679.8
-6.15936 -2.91691 8.81655 52453
-7.49497 -0.943349 8.9712 61353.8
18.4498 -9.65679 5.26246 57438.8
23.1675 -4.43449 4.56233 52764.3
0.0202632 -22.0492 4.47882 54138.9
-0.533789 -20.2128 5.2325 59102.5
-5.01945 -16.6473 5.90785 60642.7
40.5412 -3.46608 -0.881932 64322
40.8467 -4.28469 -1.26707 62131.7
27.4181 -29.0697 -2.02896 48154.4
-8.04698 -11.2154 7.1723 53235.3
-40.7093 32.9488 -5.31422 33726.5
-39.2971 32.324 -4.44342 51754.5
-38.4983 33.1932 -4.02594 51262.5
-37.3732 38.352 -5.03808 44953.4
-38.333 38.9182 -5.5339 32154.1
37.566 6.30612 1.31064 62765.3
39.1774 5.94959 0.597743 57994
-36.8257 -18.0094 -2.85985 52723.6
-31.7875 -14.6502 0.278554 44697.5
-33.8213 -12.5401 0.0913752 48084.3
-37.6568 -14.4906 -2.26772 51008.2
8.71207 -23.3252 4.13903 48960.9
8.92052 -21.4442 4.75302 61712.2
3.06358 -18.3884 6.0155 58518.3
1.70231 -18.0468 6.06319 64831.5
4.5158 -24.7715 3.53666 48188.1
-3.23832 -3.96885 8.81073 53292.8
32.4924 49.1831 -7.53964 38250
-4.54036 4.70511 9.14079 62266.8
22.1372 33.2171 2.79346 57699.1
19.9888 30.9577 3.6926 57476.1
20.6346 27.4918 4.23486 58111.7
22.8751 26.4431 4.0176 60222.3
27.392 30.3044 1.91967 52947.1
7.81055 30.1704 5.58156 57115.8
4.25453 31.6163 5.66025 59136.7
-44.4325 25.4375 -6.05968 41211.2
-47.9142 25.6147 -6.43986 24999.8
39.2303 39.3711 -5.9859 54534.9
-1.8642 4.83295 8.6144 49892.1
-4.20755 20.4176 8.24303 60061.4
-36.0211 -34.7457 -7.80304 7411.36
-32.4438 -37.152 -8.08597 14111.5
-31.2272 -34.9012 -7.35006 41412.9
-33.2509 -32.1488 -6.89707 63470.4
-35.1659 -31.9976 -7.25866 45378.3
27.5449 51.4178 -6.86159 54067.3
-45.5234 -10.0254 -5.59771 44617.4
-47.6943 -10.8338 -6.75892 41888.8
27.5947 -30.9284 -2.74799 57697.6
36.7368 -5.18084 0.0486264 52468
-42.9123 5.90118 -2.0461 47797.1
-42.7899 8.94952 -1.99633 53719.8
34.7103 -1.71869 1.73804 63192.2
-0.271999 57.3912 -4.34719 60302.9
34.6334 -0.252529 1.9506 55064.7
38.9204 1.87737 0.530987 55541
-45.8185 -14.995 -6.41208 46856.3
-43.6055 -14.27 -5.51736 48627.8
-44.0126 -11.4485 -5.29029 43114.5
54.8954 11.256 -7.48579 32035.9
52.6716 8.24988 -6.82219 49568.9
-40.8937 -1.91895 -1.55462 58638.2
-40.4885 -0.8178 -1.11644 60371.3
-41.3762 4.36888 -1.00692 60877
14.0738 -27.0324 1.75367 55682
-28.9902 -27.4749 -3.00423 56126.6
36.3691 39.7512 -4.82557 55896.5
35.098 38.0662 -3.42055 61091.7
-1.30229 59.5766 -5.55584 37243.3
5.91275 60.1342 -5.69491 47020.6
28.8328 52.5354 -7.81582 40536
-1.20261 18.4637 8.51341 58767.4
-42.107 -21.2734 -6.29826 50822.8
-40.4625 -26.6398 -6.69506 35456.8
-38.8865 -25.1682 -6.10198 56803.7
12.4004 28.57 5.29237 59363.5
15.8692 32.2365 3.93129 58169.5
24.1829 14.9382 5.01501 55062.9
0.149998 8.15695 8.607 56122.4
-2.34211 11.5176 8.97977 52079.7
23.5485 21.0831 4.51532 57792.8
25.4498 16.4414 4.63195 62669.2
8.69145 -10.3591 7.25121 64229
6.67229 -6.34919 7.50102 48066.1
4.90139 -6.03576 7.67041 46387.9
4.78438 -13.5429 6.60323 62210.8
-40.8881 -9.65377 -2.93852 56286.4
-33.9419 -11.746 0.405877 47153.3
-44.6551 29.4323 -6.04632 42513.8
11.9275 -26.1887 2.61165 63523.5
9.77471 -23.8173 3.97341 58369.2
-38.539 10.3886 0.0826381 64301.7
-38.5951 15.1001 -0.0546511 51592.9
-40.4306 16.6713 -1.47275 65535
24.1187 23.0135 4.28383 57287.4
5.77365 -15.6907 6.14785 62829
10.2666 -17.7688 5.26507 58280.8
-42.0215 -19.963 -5.91667 44590.7
-40.8498 -18.0519 -4.96456 43648.4
-42.1893 -15.6248 -5.00706 54409.4
-39.0694 -13.6911 -2.82896 54285.7
-39.9883 -10.2511 -2.55496 55104.9
-32.4536 -28.7016 -5.03882 50887.5
-35.3371 -25.9884 -4.90002 53054.2
-37.2668 -25.8445 -5.50904 56150.6
-37.5394 -25.9801 -5.76009 57257.5
-29.7328 -35.1301 -7.1048 47590.4
-25.1365 -38.889 -7.35072 49595.6
-28.0589 -34.2584 -5.84217 56209.6
-39.1886 -18.5771 -4.28464 58576.6
-41.853 24.3295 -4.51786 50156.2
-41.8686 29.265 -5.20432 35438.2
33.7554 32.7024 -0.555576 50756.5
-36.8141 -8.66553 -0.512194 49101.9
-37.2254 -6.44705 -0.207218 51825.3
-38.0265 -0.617214 0.46793 56785.3
-37.5714 3.74654 0.988571 50365.7
-36.0039 5.10119 1.80416 45743.9
-36.0639 8.75869 1.64333 62013
14.2606 34.7303 3.51841 53455.1
-38.4438 23.1991 -1.54291 59451.6
-39.703 24.3716 -2.80554 55543.6
-39.2709 27.283 -3.1562 55036.3
-35.5446 -4.48634 0.981592 56376.3
-31.1714 10.2811 3.82905 44110.5
-31.1589 13.7609 3.877 53141.4
-35.8016 16.5899 0.982543 55979.3
-33.2834 20.6801 1.41334 56631.4
-34.7628 23.5288 0.0849889 58412.3
-33.1253 27.4884 0.0541037 58482.5
-33.8561 29.576 -0.726388 51909.1
-33.9327 32.2664 -1.73657 56273.6
27.9528 23.1987 3.56363 53643.7
-33.0703 -4.08706 2.27077 53654.8
-31.5698 2.89576 3.98946 56464.8
-32.8497 3.29522 3.34148 60470.9
-29.4615 8.79124 4.52227 60802.6
-31.7178 36.5216 -1.9626 55732.1
-32.6311 38.7712 -2.91994 52128.6
-32.6372 41.8026 -4.26232 47853.6
-34.1036 43.7326 -6.01957 62318.8
-31.0916 -28.6358 -4.3343 56124.4
4 110 113 434 435 549
7 486 475 462 82 81 8 7 369
6 293 294 295 296 151 150 729
7 7 6 306 482 204 203 486 600
6 406 407 408 283 288 409 456
5 463 441 62 61 474 590
6 340 511 512 438 437 338 747
6 203 202 503 476 475 486 461
5 113 112 324 323 434 596
5 475 476 477 461 462 746
5 474 247 246 420 463 756
6 311 310 515 381 372 371 699
4 425 424 430 473 593
5 463 420 419 442 441 460
7 461 2 1 51 83 82 462 587
6 461 477 505 467 3 2 457
7 476 503 161 160 516 505 477 466
6 384 406 409 454 271 270 421
6 293 150 149 506 369 347 606
6 446 408 407 447 448 443 591
6 443 444 445 404 403 446 742
5 441 442 376 63 62 737
7 467 468 469 449 48 4 3 462
6 424 423 429 342 341 430 608
5 421 422 423 424 425 763
7 388 387 410 411 219 218 412 459
4 386 387 388 389 759
6 16 63 376 348 352 17 453
6 449 450 36 35 44 48 740
5 469 549 517 450 449 758
7 485 444 443 448 410 387 386 338
7 153 320 319 334 538 210 154 468
6 36 450 517 436 440 37 602
7 526 485 386 389 343 342 429 765
6 413 38 37 440 439 414 753
5 271 454 527 530 272 573
6 39 38 413 194 69 68 449
6 442 419 418 349 348 376 757
6 413 414 301 289 195 194 754
5 537 224 211 210 538 762
6 412 542 344 343 389 388 437
6 69 194 195 196 34 33 741
5 382 381 515 544 545 734
6 27 34 196 291 464 28 595
6 291 290 292 378 377 464 755
6 29 28 464 377 23 22 452
6 533 532 530 527 484 483 387
6 377 378 379 380 24 23 748
6 104 217 218 219 220 105 733
5 278 282 220 219 411 631
6 106 105 220 282 281 385 612
7 437 436 517 549 392 339 338 471
5 299 298 208 207 223 766
8 326 359 492 493 15 14 155 209 414
6 411 410 448 447 279 278 541
6 532 533 493 492 452 451 750
5 453 452 492 359 362 443
7 327 373 372 381 382 383 328 689
7 106 385 276 275 479 478 107 760
6 296 295 366 257 141 140 454
7 367 368 267 266 347 369 370 521
6 315 314 313 316 269 268 735
5 504 364 316 313 312 584
8 269 316 364 365 258 257 366 264 391
6 280 384 270 276 385 281 632
7 359 326 325 329 360 361 362 444
5 348 349 350 351 352 751
7 18 17 352 351 303 302 57 592
5 358 478 479 254 253 583
5 436 437 438 439 440 610
5 371 372 373 374 375 581
7 370 369 506 507 508 509 510 620
6 341 342 343 344 345 346 568
6 484 527 454 409 288 287 626
5 338 339 231 230 340 340
6 351 350 189 188 304 303 384
3 334 319 318 371
6 299 223 222 327 328 300 585
6 209 208 298 297 325 326 536
5 347 266 265 294 293 624
5 366 295 294 265 264 469
5 317 322 324 112 111 359
6 323 324 322 321 12 11 531
6 317 318 319 320 321 322 732
8 5 55 302 303 304 305 306 6 745
5 301 250 243 242 289 767
5 314 315 544 515 310 614
6 216 292 290 241 233 212 472
6 283 284 285 286 287 288 657
5 305 480 481 482 306 465
7 196 195 289 242 241 290 291 622
5 278 279 280 281 282 400
4 261 226 225 277 575
7 292 216 215 245 531 379 378 623
5 546 531 245 244 547 479
6 356 357 358 253 88 93 571
7 270 271 272 273 274 275 276 507
6 255 254 479 275 274 394 635
7 137 136 141 257 258 259 260 743
6 88 253 254 255 256 89 601
6 264 265 266 267 268 269 634
4 246 247 248 249 396
7 249 197 200 418 419 420 246 636
6 240 234 233 241 242 243 401
7 212 233 234 147 152 235 213 655
5 310 311 312 313 314 478
8 221 222 223 207 211 224 225 226 433
5 212 213 214 215 216 476
7 207 208 209 155 154 210 211 554
5 115 114 329 325 297 752
6 201 202 203 204 205 206 617
6 402 285 284 403 404 405 713
6 200 190 189 350 349 418 615
6 394 395 396 397 256 255 332
7 274 273 451 452 453 395 394 548
6 89 256 397 470 433 90 376
6 134 133 244 245 215 214 658
5 226 261 262 263 221 486
5 365 523 335 259 258 638
5 166 433 470 398 167 739
6 197 198 199 191 190 200 397
6 471 472 355 330 333 428 336
7 187 188 189 190 191 192 193 484
6 297 298 299 300 116 115 640
4 428 333 183 182 481
6 221 263 374 373 327 222 509
5 182 183 184 185 186 643
5 260 259 335 336 337 628
4 336 335 523 548 349
5 186 185 307 308 309 488
5 309 308 417 513 514 490
6 555 399 398 470 397 396 662
6 467 505 516 556 557 468 618
6 304 188 187 502 480 305 630
6 168 167 398 399 400 401 589
6 468 557 393 392 549 469 467
5 558 400 399 555 559 619
7 512 251 250 301 414 439 438 390
5 534 535 536 524 525 493
4 524 472 471 525 641
6 524 536 564 353 355 472 504
5 330 331 332 183 333 495
6 332 528 529 426 184 183 496
4 537 277 225 224 503
5 346 345 192 191 199 539
4 421 73 77 422 676
5 308 307 415 416 417 497
5 74 405 404 445 75 644
3 514 513 566 650
6 193 567 568 498 502 187 516
6 77 76 526 429 423 422 492
4 262 375 374 263 664
5 57 302 55 54 58 730
7 498 499 500 501 481 480 502 499
8 228 227 401 400 558 572 509 508 605
3 550 551 552 501
4 573 500 499 574 646
5 575 576 577 535 534 645
7 396 395 453 362 361 559 555 515
6 578 579 564 536 535 577 341
6 574 103 102 560 563 573 666
6 500 573 563 206 205 501 669
6 560 561 562 201 206 563 647
5 353 354 331 330 355 494
6 526 76 75 445 444 485 434
7 354 539 540 541 528 332 331 505
6 426 427 415 307 185 184 506
6 426 529 569 570 571 427 407
7 356 93 92 238 237 562 561 667
6 236 159 162 237 238 239 398
6 416 588 589 566 513 417 649
6 466 556 516 160 159 236 389
6 545 368 367 590 383 382 731
6 236 239 432 431 465 466 498
6 466 465 390 393 557 556 570
5 518 522 583 552 551 651
6 165 169 391 390 465 431 346
7 390 391 232 231 339 392 393 502
7 552 583 582 587 576 575 550 399
5 284 283 408 446 403 652
6 576 587 494 497 578 577 511
7 564 579 591 592 539 354 353 512
6 280 279 447 407 406 384 420
4 540 593 594 541 661
7 528 541 594 595 596 569 529 514
5 230 229 553 511 340 413
7 511 553 554 597 252 251 512 693
6 553 229 228 508 507 554 728
7 427 571 598 599 588 416 415 408
5 243 250 251 252 240 653
6 589 588 599 600 488 487 663
5 487 488 489 490 491 343
6 554 507 506 149 148 597 372
6 214 213 235 142 135 134 527
4 379 531 546 380 380
6 582 581 460 459 494 587 410
5 272 530 532 451 273 546
6 578 497 496 565 591 579 665
6 370 510 118 117 590 367 555
4 133 132 547 244 677
5 592 601 593 540 539 659
6 402 435 434 323 286 285 378
6 328 383 590 117 116 300 464
6 569 596 602 603 604 570 672
6 570 604 605 606 598 571 517
5 249 248 363 198 197 701
6 599 598 606 607 608 600 674
5 608 609 489 488 600 519
5 501 205 204 482 481 761
5 518 519 520 521 522 345
6 192 345 344 542 567 193 681
6 522 521 580 581 582 583 412
6 494 459 458 495 496 497 671
6 610 572 558 559 361 360 422
7 498 568 217 104 103 574 499 684
7 565 178 179 611 601 592 591 535
6 601 611 613 595 594 593 523
7 287 286 323 11 10 483 484 722
6 613 612 614 602 596 595 680
5 360 329 114 119 610 704
5 10 15 493 533 483 670
6 102 107 478 358 357 560 708
6 119 118 510 509 572 610 518
4 561 560 357 356 685
5 489 609 615 616 490 525
5 491 490 616 617 618 526
5 432 239 238 92 91 686
7 431 432 91 90 433 166 165 351
6 580 619 543 455 460 581 532
6 455 456 457 458 459 460 678
7 496 495 181 144 146 178 565 419
6 232 391 169 168 401 227 559
6 227 228 229 230 231 232 690
6 603 175 174 173 605 604 538
6 605 173 171 170 607 606 687
6 252 597 148 147 234 240 696
6 609 608 607 170 172 615 540
5 548 523 365 364 504 675
6 268 267 368 545 544 315 450
6 617 164 128 127 163 618 688
6 152 151 296 140 142 235 424
4 585 584 520 519 423
6 521 520 584 586 619 580 530
5 457 180 181 495 458 542
4 260 337 138 137 455
7 503 202 201 562 237 162 161 683
6 611 179 176 177 612 613 679
6 612 177 109 108 143 614 550
7 614 143 101 100 175 603 602 698
7 198 363 473 430 341 346 199 552
7 617 616 615 172 129 130 164 352
6 568 567 542 412 218 217 705
5 584 585 156 158 586 691
5 586 158 157 543 619 692
7 455 543 157 126 124 125 456 694
7 125 123 120 122 180 457 456 695
5 153 13 12 321 320 543
5 180 122 121 144 181 553
5 178 146 145 176 179 697
7 176 145 79 78 84 109 177 706
5 175 100 99 139 174 428
7 173 174 139 131 98 97 171 700
6 170 171 97 96 129 172 353
5 165 166 167 168 169 714
5 130 95 94 128 164 551
5 163 127 65 67 87 702
4 159 160 161 162 764
6 156 86 64 126 157 158 712
5 153 154 155 14 13 621
6 147 148 149 150 151 152 719
7 144 121 85 80 79 145 146 430
6 143 108 49 47 46 101 716
5 140 141 136 135 142 356
5 42 45 131 139 99 560
7 132 133 134 135 136 137 138 563
6 72 98 131 45 41 40 717
7 129 96 70 32 31 95 130 557
5 127 128 94 66 65 710
6 126 64 20 19 56 124 721
5 124 56 59 123 125 715
6 123 59 58 54 53 120 566
6 120 53 52 85 121 122 567
6 114 115 116 117 118 119 578
4 110 111 112 113 561
5 50 49 108 109 84 431
6 102 103 104 105 106 107 429
6 46 43 42 99 100 101 438
6 71 70 96 97 98 72 709
6 31 26 30 66 94 95 720
6 88 89 90 91 92 93 574
4 67 21 25 87 435
3 64 86 60 565
6 85 52 9 8 81 80 436
5 78 83 51 50 84 569
6 78 79 80 81 82 83 726
5 73 74 75 76 77 588
5 72 40 39 68 71 439
6 68 69 33 32 70 71 576
7 65 66 30 29 22 21 67 440
7 60 61 62 63 16 20 64 572
6 56 19 18 57 58 59 725
6 52 53 54 55 5 9 446
6 49 50 51 1 0 47 441
7 46 47 0 4 48 44 43 448
6 42 43 44 35 41 45 442
7 35 36 37 38 39 40 41 580
6 31 32 33 34 27 26 366
5 26 27 28 29 30 577
5 21 22 23 24 25 582
5 16 17 18 19 20 445
6 10 11 12 13 14 15 727
5 5 6 7 8 9 738
5 0 1 2 3 4 447
