ply
format ascii 1.0
comment Exported from MorphoGraphX 2.0.1-254
comment Cell Graph: each vertex is a cell, each edge a wall
element vertex 264
property int label
property float x
property float y
property float z
element edge 718
property uint source
property uint target
end_header
114 0 0 0 
124 0 0 0 
129 0 0 0 
191 0 0 0 
233 0 0 0 
293 0 0 0 
298 0 0 0 
301 0 0 0 
330 0 0 0 
338 0 0 0 
344 0 0 0 
357 0 0 0 
371 0 0 0 
375 0 0 0 
388 0 0 0 
415 0 0 0 
416 0 0 0 
417 0 0 0 
421 0 0 0 
426 0 0 0 
428 0 0 0 
437 0 0 0 
446 0 0 0 
450 0 0 0 
464 0 0 0 
483 0 0 0 
486 0 0 0 
487 0 0 0 
502 0 0 0 
504 0 0 0 
507 0 0 0 
511 0 0 0 
524 0 0 0 
526 0 0 0 
529 0 0 0 
532 0 0 0 
539 0 0 0 
540 0 0 0 
542 0 0 0 
543 0 0 0 
545 0 0 0 
548 0 0 0 
554 0 0 0 
564 0 0 0 
568 0 0 0 
575 0 0 0 
576 0 0 0 
582 0 0 0 
590 0 0 0 
593 0 0 0 
594 0 0 0 
597 0 0 0 
598 0 0 0 
605 0 0 0 
610 0 0 0 
615 0 0 0 
619 0 0 0 
623 0 0 0 
626 0 0 0 
627 0 0 0 
629 0 0 0 
631 0 0 0 
632 0 0 0 
638 0 0 0 
642 0 0 0 
644 0 0 0 
648 0 0 0 
652 0 0 0 
653 0 0 0 
654 0 0 0 
655 0 0 0 
662 0 0 0 
663 0 0 0 
667 0 0 0 
668 0 0 0 
671 0 0 0 
674 0 0 0 
681 0 0 0 
683 0 0 0 
685 0 0 0 
691 0 0 0 
692 0 0 0 
693 0 0 0 
694 0 0 0 
700 0 0 0 
705 0 0 0 
709 0 0 0 
712 0 0 0 
715 0 0 0 
719 0 0 0 
729 0 0 0 
740 0 0 0 
744 0 0 0 
747 0 0 0 
751 0 0 0 
754 0 0 0 
755 0 0 0 
759 0 0 0 
764 0 0 0 
767 0 0 0 
775 0 0 0 
782 0 0 0 
788 0 0 0 
791 0 0 0 
792 0 0 0 
795 0 0 0 
805 0 0 0 
811 0 0 0 
812 0 0 0 
816 0 0 0 
818 0 0 0 
820 0 0 0 
825 0 0 0 
827 0 0 0 
830 0 0 0 
832 0 0 0 
834 0 0 0 
835 0 0 0 
836 0 0 0 
837 0 0 0 
841 0 0 0 
843 0 0 0 
844 0 0 0 
849 0 0 0 
852 0 0 0 
853 0 0 0 
856 0 0 0 
858 0 0 0 
861 0 0 0 
870 0 0 0 
886 0 0 0 
891 0 0 0 
892 0 0 0 
894 0 0 0 
901 0 0 0 
905 0 0 0 
909 0 0 0 
913 0 0 0 
921 0 0 0 
923 0 0 0 
932 0 0 0 
935 0 0 0 
937 0 0 0 
940 0 0 0 
944 0 0 0 
945 0 0 0 
946 0 0 0 
954 0 0 0 
963 0 0 0 
968 0 0 0 
970 0 0 0 
975 0 0 0 
986 0 0 0 
1003 0 0 0 
1006 0 0 0 
1014 0 0 0 
1026 0 0 0 
1029 0 0 0 
1030 0 0 0 
1031 0 0 0 
1034 0 0 0 
1044 0 0 0 
1053 0 0 0 
1057 0 0 0 
1059 0 0 0 
1060 0 0 0 
1061 0 0 0 
1063 0 0 0 
1065 0 0 0 
1068 0 0 0 
1074 0 0 0 
1080 0 0 0 
1083 0 0 0 
1084 0 0 0 
1092 0 0 0 
1093 0 0 0 
1105 0 0 0 
1110 0 0 0 
1113 0 0 0 
1115 0 0 0 
1117 0 0 0 
1120 0 0 0 
1122 0 0 0 
1127 0 0 0 
1128 0 0 0 
1129 0 0 0 
1140 0 0 0 
1147 0 0 0 
1149 0 0 0 
1152 0 0 0 
1154 0 0 0 
1155 0 0 0 
1156 0 0 0 
1157 0 0 0 
1158 0 0 0 
1162 0 0 0 
1166 0 0 0 
1168 0 0 0 
1170 0 0 0 
1171 0 0 0 
1172 0 0 0 
1174 0 0 0 
1176 0 0 0 
1177 0 0 0 
1180 0 0 0 
1182 0 0 0 
1183 0 0 0 
1188 0 0 0 
1190 0 0 0 
1193 0 0 0 
1201 0 0 0 
1203 0 0 0 
1204 0 0 0 
1205 0 0 0 
1209 0 0 0 
1214 0 0 0 
1216 0 0 0 
1217 0 0 0 
1218 0 0 0 
1222 0 0 0 
1224 0 0 0 
1229 0 0 0 
1230 0 0 0 
1231 0 0 0 
1232 0 0 0 
1233 0 0 0 
1234 0 0 0 
1235 0 0 0 
1236 0 0 0 
1237 0 0 0 
1238 0 0 0 
1239 0 0 0 
1240 0 0 0 
1243 0 0 0 
1244 0 0 0 
1245 0 0 0 
1246 0 0 0 
1247 0 0 0 
1248 0 0 0 
1249 0 0 0 
1250 0 0 0 
1251 0 0 0 
1252 0 0 0 
1253 0 0 0 
1254 0 0 0 
1255 0 0 0 
1257 0 0 0 
1260 0 0 0 
1261 0 0 0 
1262 0 0 0 
1264 0 0 0 
1265 0 0 0 
1266 0 0 0 
1268 0 0 0 
1269 0 0 0 
1270 0 0 0 
1271 0 0 0 
1272 0 0 0 
1273 0 0 0 
1274 0 0 0 
1275 0 0 0 
1279 0 0 0 
1280 0 0 0 
1281 0 0 0 
114 545
114 681
114 782
114 870
124 652
124 747
124 975
129 415
129 417
129 532
129 683
129 712
129 795
129 1026
191 626
191 744
191 816
191 968
191 1030
191 1180
233 344
233 564
233 940
293 344
293 944
293 946
293 1216
298 301
298 576
298 700
298 843
298 901
301 700
301 811
301 843
301 1113
330 832
330 1105
330 1110
330 1172
338 504
338 1061
338 1262
344 940
344 944
357 543
357 638
357 913
357 1014
357 1155
371 450
371 642
371 751
371 830
371 1172
375 486
375 652
375 1093
388 511
388 691
388 705
388 827
388 858
388 1188
415 417
415 532
415 755
415 767
416 526
416 610
416 849
416 1193
417 421
417 712
417 755
421 568
421 712
421 755
421 827
421 844
421 921
426 483
426 575
426 644
426 775
426 892
426 1222
428 539
428 694
428 740
428 788
428 856
428 1168
428 1214
437 856
437 1140
437 1280
437 1281
446 450
446 642
446 853
450 529
450 590
450 642
450 830
450 853
464 545
464 593
464 1271
464 1273
483 511
483 542
483 891
483 892
483 1222
486 575
486 644
486 652
486 671
486 747
486 805
486 1093
487 507
487 629
487 668
487 1193
502 615
502 1026
502 1122
502 1147
502 1149
502 1156
504 654
504 1061
504 1177
504 1268
507 629
507 653
507 1209
511 542
511 691
511 693
511 1188
511 1222
524 631
524 913
524 1129
524 1154
524 1162
524 1260
526 610
526 632
529 532
529 590
529 709
529 767
529 830
532 683
532 709
532 767
539 648
539 685
539 788
539 856
539 1281
540 705
540 858
540 954
540 970
540 1182
542 693
542 836
542 891
542 1003
543 913
543 945
543 1154
543 1155
543 1156
545 593
545 681
545 782
548 623
548 627
548 841
548 894
548 1059
548 1127
548 1166
548 1201
548 1224
554 597
554 598
554 901
554 1203
554 1204
564 940
564 1128
568 691
568 712
568 827
568 886
575 644
575 671
575 892
576 694
576 700
576 901
576 1170
576 1214
582 655
582 1074
582 1120
582 1152
582 1218
582 1230
590 709
590 853
590 932
593 719
593 782
593 1271
594 638
594 648
594 685
594 852
594 963
594 1155
594 1217
597 627
597 901
597 1029
597 1127
597 1170
597 1203
598 843
598 901
598 1158
598 1204
605 775
605 861
605 1115
605 1117
605 1190
610 632
610 820
610 825
610 849
615 945
615 1149
615 1156
615 1176
615 1224
619 662
619 719
619 759
619 812
619 1271
619 1274
619 1275
623 945
623 1166
623 1217
623 1224
626 653
626 744
626 816
626 1209
627 841
627 1127
627 1170
629 653
629 668
629 791
629 816
631 729
631 1129
631 1162
632 825
638 663
638 963
638 1014
638 1155
642 692
642 751
644 775
644 1093
648 685
648 788
648 1166
648 1217
652 747
653 816
653 1209
654 1174
654 1177
654 1268
655 1074
655 1230
655 1231
655 1270
662 715
662 812
662 1275
663 944
663 946
663 963
663 1014
663 1183
667 852
667 946
667 1216
667 1280
667 1281
668 764
668 791
668 849
668 1193
671 805
671 892
671 1068
674 729
674 754
674 835
674 837
674 1174
674 1177
674 1269
681 744
681 870
681 968
683 709
683 905
683 1026
685 852
685 1281
691 693
691 827
691 886
691 909
692 751
692 1171
692 1279
693 836
693 909
693 1029
694 700
694 740
694 1084
694 1214
700 811
700 1084
705 858
705 954
705 1188
705 1222
709 905
709 932
712 795
712 886
712 1053
715 812
715 923
719 759
719 782
719 1105
719 1271
729 754
729 1129
729 1162
729 1177
740 856
740 1084
740 1140
744 968
747 805
747 975
747 1229
751 1060
751 1171
751 1172
754 1074
754 1152
754 1162
754 1269
755 767
755 834
755 921
755 1065
759 812
759 986
759 1060
759 1105
764 791
764 849
764 1034
764 1182
767 830
767 832
767 834
775 861
775 1093
775 1157
775 1190
775 1222
782 870
782 1105
782 1110
788 1166
788 1168
791 816
791 970
791 1182
792 1031
792 1113
792 1158
795 1026
795 1053
795 1176
805 1006
805 1068
805 1229
811 1113
812 923
812 1060
812 1171
816 970
816 1030
818 853
818 1044
818 1083
818 1233
820 825
820 849
820 937
820 1034
820 1115
825 937
827 844
827 858
830 832
830 1172
832 834
832 1110
832 1172
834 1063
834 1065
834 1110
835 837
835 1254
835 1255
835 1265
835 1269
836 1003
836 1029
836 1203
837 1174
837 1264
837 1265
841 894
841 1168
841 1170
841 1214
843 901
843 1113
843 1158
844 858
844 921
844 1030
844 1180
849 1034
849 1193
852 946
852 963
852 1281
853 932
853 1083
856 1140
856 1281
858 970
858 1030
861 954
861 1034
861 1115
861 1222
870 968
870 1063
870 1065
870 1110
886 909
886 1053
886 1057
886 1092
891 892
891 1003
891 1204
892 1068
892 1204
894 1166
894 1168
901 1170
905 932
905 1026
905 1120
905 1122
905 1218
909 1029
909 1057
909 1059
909 1127
913 1014
913 1154
913 1260
921 1065
921 1180
923 1171
923 1279
932 1083
932 1120
935 940
935 1128
935 1183
935 1261
935 1262
937 1115
937 1117
940 944
940 1128
940 1183
944 946
944 1183
945 1155
945 1156
945 1217
945 1224
946 963
946 1216
954 1034
954 1182
954 1222
968 1065
968 1180
970 1030
970 1182
975 1229
986 1060
986 1105
986 1172
1003 1203
1003 1204
1006 1068
1006 1229
1014 1183
1014 1260
1026 1122
1026 1149
1026 1176
1029 1127
1029 1203
1030 1180
1031 1158
1031 1205
1034 1115
1034 1182
1044 1083
1044 1230
1044 1232
1044 1233
1053 1092
1053 1176
1053 1224
1057 1059
1057 1092
1057 1201
1059 1127
1059 1201
1060 1171
1060 1172
1061 1129
1061 1177
1061 1261
1061 1262
1063 1065
1063 1110
1065 1180
1068 1158
1068 1204
1068 1205
1068 1229
1074 1152
1074 1269
1074 1270
1080 1122
1080 1147
1080 1152
1080 1154
1080 1218
1083 1120
1083 1230
1084 1140
1092 1201
1092 1224
1093 1157
1105 1110
1105 1172
1113 1158
1115 1117
1117 1190
1120 1218
1120 1230
1122 1147
1122 1218
1128 1262
1129 1177
1129 1260
1129 1261
1147 1154
1147 1156
1149 1176
1152 1154
1152 1162
1152 1218
1154 1156
1154 1162
1155 1217
1157 1190
1158 1204
1158 1205
1166 1168
1166 1217
1168 1214
1170 1214
1171 1279
1174 1177
1174 1264
1174 1268
1176 1224
1183 1260
1183 1261
1188 1222
1201 1224
1203 1204
1205 1229
1216 1280
1230 1231
1230 1232
1231 1232
1231 1246
1231 1247
1231 1270
1232 1233
1232 1234
1232 1235
1232 1246
1233 1234
1234 1235
1234 1236
1235 1236
1235 1237
1235 1243
1235 1246
1236 1237
1237 1238
1237 1243
1238 1239
1238 1243
1239 1240
1239 1243
1239 1244
1240 1244
1240 1250
1243 1244
1243 1245
1243 1246
1243 1247
1244 1245
1244 1249
1244 1250
1245 1247
1245 1248
1245 1249
1246 1247
1247 1248
1247 1270
1248 1249
1248 1251
1248 1255
1248 1270
1249 1250
1249 1251
1251 1252
1251 1255
1251 1257
1252 1253
1252 1254
1252 1255
1252 1257
1252 1265
1253 1257
1253 1265
1253 1266
1254 1255
1254 1265
1255 1269
1255 1270
1260 1261
1261 1262
1264 1265
1264 1266
1265 1266
1269 1270
1271 1272
1271 1273
1271 1274
1272 1273
1272 1274
1274 1275
1280 1281
