ply
format ascii 1.0
comment Exported from MorphoGraphX 2.0.1-254
comment Cell Graph: each vertex is a cell, each edge a wall
element vertex 81
property int label
property float x
property float y
property float z
element edge 211
property uint source
property uint target
end_header
2332 0 0 0 
2333 0 0 0 
2339 0 0 0 
2340 0 0 0 
2349 0 0 0 
2351 0 0 0 
2354 0 0 0 
2359 0 0 0 
2361 0 0 0 
2368 0 0 0 
2379 0 0 0 
2381 0 0 0 
2384 0 0 0 
2388 0 0 0 
2389 0 0 0 
2391 0 0 0 
2392 0 0 0 
2393 0 0 0 
2394 0 0 0 
2406 0 0 0 
2410 0 0 0 
2412 0 0 0 
2414 0 0 0 
2420 0 0 0 
2423 0 0 0 
2424 0 0 0 
2434 0 0 0 
2441 0 0 0 
2446 0 0 0 
2454 0 0 0 
2465 0 0 0 
2466 0 0 0 
2469 0 0 0 
2470 0 0 0 
2472 0 0 0 
2476 0 0 0 
2479 0 0 0 
2480 0 0 0 
2481 0 0 0 
2482 0 0 0 
2486 0 0 0 
2487 0 0 0 
2488 0 0 0 
2489 0 0 0 
2497 0 0 0 
2498 0 0 0 
2499 0 0 0 
2502 0 0 0 
2505 0 0 0 
2507 0 0 0 
2509 0 0 0 
2516 0 0 0 
2517 0 0 0 
2519 0 0 0 
2521 0 0 0 
2525 0 0 0 
2527 0 0 0 
2531 0 0 0 
2535 0 0 0 
2537 0 0 0 
2539 0 0 0 
2540 0 0 0 
2542 0 0 0 
2548 0 0 0 
2550 0 0 0 
2551 0 0 0 
2552 0 0 0 
2558 0 0 0 
2560 0 0 0 
2567 0 0 0 
2570 0 0 0 
2571 0 0 0 
2573 0 0 0 
2574 0 0 0 
2575 0 0 0 
2578 0 0 0 
2583 0 0 0 
2587 0 0 0 
2589 0 0 0 
2595 0 0 0 
2596 0 0 0 
2332 2388
2332 2391
2332 2531
2333 2339
2333 2393
2333 2406
2333 2567
2333 2571
2333 2573
2339 2349
2339 2393
2339 2394
2339 2410
2339 2434
2339 2571
2340 2392
2340 2412
2340 2469
2340 2470
2340 2502
2349 2410
2349 2434
2351 2389
2351 2414
2351 2424
2351 2479
2351 2527
2351 2574
2354 2476
2354 2488
2354 2509
2354 2521
2359 2393
2359 2410
2359 2412
2359 2441
2359 2502
2359 2567
2361 2486
2361 2487
2361 2498
2361 2505
2361 2525
2368 2516
2368 2548
2368 2558
2379 2424
2379 2521
2379 2539
2379 2540
2379 2574
2379 2575
2381 2406
2381 2550
2381 2551
2381 2578
2381 2583
2384 2388
2384 2391
2384 2542
2384 2552
2384 2575
2384 2587
2388 2391
2388 2424
2388 2527
2388 2531
2388 2575
2389 2392
2389 2420
2389 2479
2389 2527
2391 2587
2392 2420
2392 2470
2392 2479
2392 2502
2392 2589
2393 2410
2393 2567
2394 2434
2394 2558
2394 2570
2394 2571
2406 2550
2406 2567
2406 2573
2406 2578
2410 2441
2412 2441
2412 2469
2412 2502
2414 2479
2414 2560
2414 2574
2414 2583
2414 2589
2420 2446
2420 2470
2420 2472
2420 2527
2423 2446
2423 2489
2423 2527
2423 2531
2424 2527
2424 2574
2424 2575
2441 2469
2446 2472
2446 2489
2446 2527
2454 2480
2454 2595
2454 2596
2465 2466
2465 2481
2465 2482
2465 2487
2465 2595
2465 2596
2466 2476
2466 2482
2466 2488
2469 2470
2470 2472
2476 2488
2479 2589
2480 2481
2480 2486
2480 2497
2480 2595
2481 2486
2481 2487
2481 2595
2482 2487
2482 2488
2482 2498
2482 2499
2486 2487
2486 2497
2486 2505
2487 2498
2488 2499
2488 2507
2488 2521
2497 2505
2497 2516
2497 2517
2498 2499
2498 2519
2498 2525
2499 2507
2499 2519
2499 2539
2502 2567
2502 2578
2502 2589
2505 2517
2505 2525
2505 2535
2505 2537
2507 2521
2507 2539
2509 2521
2509 2540
2509 2542
2516 2517
2516 2548
2517 2535
2517 2548
2519 2525
2519 2539
2519 2551
2519 2560
2521 2539
2521 2540
2525 2537
2525 2550
2525 2551
2527 2531
2535 2537
2535 2548
2535 2570
2535 2571
2537 2550
2537 2571
2537 2573
2539 2560
2539 2574
2540 2542
2540 2575
2542 2552
2542 2575
2548 2558
2548 2570
2550 2551
2550 2573
2551 2560
2551 2583
2552 2587
2558 2570
2560 2574
2560 2583
2567 2578
2570 2571
2571 2573
2578 2583
2578 2589
2583 2589
2595 2596
