ply
format ascii 1.0
comment Exported from MorphoGraphX 2.0 1-254
comment Cellular mesh
element vertex 160
property float x
property float y
property float z
property float signal
element face 81
property list int int vertex_index
property int label
end_header
-15.7509 31.7989 -4.72453 49637.5
-14.4412 29.6454 -3.30241 51501.3
-8.54184 30.094 -1.56812 58736.9
-7.74622 32.64 -2.24978 58881.1
-7.95594 33.4896 -2.62917 62135.1
-14.9702 33.7581 -5.3043 50824
-11.0288 23.5237 -0.228312 59957.1
-6.78398 29.242 -0.948669 60317.9
-16.0337 25.7805 -2.50041 46255.5
-9.68165 -2.49991 2.30566 45297.6
-6.34978 -3.39489 2.58222 51293.7
-3.78486 -1.38399 3.03372 50092.2
-4.23838 6.09811 3.31471 49992.1
-7.84854 8.08274 3.00957 49736
-9.67033 7.41522 2.80426 51982.6
-10.0713 4.13251 2.76406 57066.3
-4.80932 -26.1256 -3.81968 43912.9
3.77081 -25.0796 -3.6797 37965.4
3.06282 -20.4318 -1.53165 49952.4
-0.811329 -19.8293 -1.19448 46102.7
-2.72412 -18.2462 -0.647427 55052.1
-0.845798 -13.5139 0.857018 53475.5
-6.07058 -11.1679 1.15567 50209.9
-7.94981 -13.0296 0.493261 48837.4
-6.90186 -16.8727 -0.439918 48600.3
-11.383 21.0307 0.373393 64722.2
-18.6149 20.0444 -1.74435 56940.1
-17.5798 16.6122 -0.474562 50355.7
-13.3152 16.5768 0.96281 58912.7
4.06009 -11.2253 1.42326 53664.8
2.28134 -7.34472 2.29545 59965.1
-5.60996 -7.28737 2.02856 55328
3.30491 -13.1665 0.921733 50270.5
-11.1813 -11.8775 0.372901 44119.8
-11.7593 -3.40178 1.84669 56436.5
-24.0989 27.7811 -7.87414 36127.7
-18.7407 24.8796 -3.34054 46763.9
-17.0924 9.46728 0.80097 48676.1
-13.7776 9.31639 1.84238 58821.6
-11.3074 15.368 1.66674 58141.6
-19.2897 13.1485 -0.458264 50132.6
-18.7087 6.68694 0.425275 48460.9
-15.1985 2.77616 1.58396 56861
-14.4469 -17.2608 -1.42032 47820.7
-8.33624 -20.6561 -1.68983 48613.9
-12.8916 -12.5557 -0.0263844 49839.5
5.16348 -16.8992 -0.368907 47836.5
-16.56 -3.66014 0.713345 44956.2
-14.648 -2.94987 1.27975 49094.7
-21.2256 4.9248 -0.477241 47301.4
-21.0391 -0.874774 -0.529532 43490.1
8.4083 34.847 -2.59045 60146
10.4991 38.0711 -4.74253 61856.4
5.49125 39.9206 -4.77817 66583.3
4.88323 35.3828 -2.37577 62028.8
0.108599 39.8336 -4.45571 62011
-1.17837 36.73 -2.92527 57548.8
0.838407 35.0019 -2.08074 56316.6
13.4865 -11.5187 0.259812 57656.8
14.0709 -17.1349 -1.54898 44412.1
19.0571 -16.6331 -2.71779 45693.7
19.5864 -10.7353 -1.40035 55891.1
-6.77875 36.6882 -3.74782 58979.6
-8.54611 38.0516 -5.01143 61798.9
12.9251 -18.4972 -1.78369 45689
7.90865 -17.2027 -0.691182 55544.7
2.71954 4.93492 3.31991 51984.6
5.42159 8.36674 3.03412 51379.4
4.49202 10.9872 2.8965 60247.5
-1.1414 10.4911 3.1801 62483
-1.99035 6.60252 3.37192 55485.4
-10.1513 22.4652 0.241179 56897.6
-19.7981 22.102 -2.90604 44347.8
9.03496 -10.6945 1.23137 59280.7
11.9108 -9.61825 1.00801 55342.6
11.676 -4.67947 1.77609 60352.7
6.41136 -4.25798 2.62472 64004.8
2.9018 -5.20047 2.66472 52929.5
-23.3641 13.5543 -2.22566 48679.1
-25.6538 6.788 -2.55707 45865
14.1211 25.6244 -0.531993 64693.3
15.9674 26.2914 -1.16086 60583
16.8414 30.8103 -2.88219 65967.2
13.7649 32.4157 -2.63651 65730.7
9.89515 32.1324 -1.73988 64139.5
8.725 29.0787 -0.571278 61600.3
9.0954 27.1625 -0.0735073 64910.5
10.2451 25.3852 0.221956 53904.4
11.5802 7.78197 2.20419 58839.1
9.45735 7.74085 2.59908 61788.8
8.05633 1.64641 2.96368 61484.7
12.6006 -0.199347 2.09315 61121.7
13.9912 2.45586 1.88907 67253.9
13.9798 5.8125 1.7942 54274.9
18.0268 -3.81122 0.0672054 59912.8
19.5191 -1.1834 -0.187821 61847
12.7882 -2.97035 1.7274 57225.5
20.1647 19.1504 -1.0007 59680
20.732 19.6558 -1.27765 64473.8
20.1736 24.1545 -1.96391 57747.7
15.314 20.1456 0.36202 67760.6
13.0672 19.3157 0.97415 64576.2
8.81889 22.7346 0.982963 54172
6.91663 22.0634 1.25569 51229.7
5.66223 18.7637 1.80614 66313
13.2509 17.2735 1.14178 67061.3
-2.54286 28.3081 -0.108353 59209.1
-0.395354 30.063 -0.399285 61355.1
-0.343629 32.7482 -1.24127 58418.4
-7.70847 14.2887 2.35967 58330.7
-4.60958 19.3839 1.56265 48844
-5.5341 21.0773 1.13796 58266.6
25.2675 8.45697 -2.12405 63926
19.038 11.0062 0.0729189 68581.1
18.0475 7.11585 0.539416 58450.8
20.7414 4.76063 -0.389359 58212.3
24.7129 5.34472 -2.03389 60208.4
4.21666 16.768 2.13548 48636.4
5.57055 14.0218 2.42974 58727.9
11.4344 14.2552 1.69066 61066.9
13.6355 15.4019 1.181 53327.5
20.2344 -0.529088 -0.412371 63114.3
27.4317 -2.33672 -3.93223 49935.4
28.2263 2.21163 -3.84104 55537.9
1.83326 24.9665 0.856211 61122.4
2.56867 24.1373 1.02244 61368.2
0.326112 -1.26349 3.1686 50779.7
24.5457 -8.49023 -3.28477 52768.6
20.8178 -7.37686 -1.39853 50124.4
-1.64957 12.1071 2.99942 62455
-7.16392 12.6335 2.66555 59576.4
-1.7742 25.855 0.484465 56571.9
-25.1899 -8.10172 -3.02415 43402.2
-21.4267 -11.0085 -1.91688 43133.3
-19.3932 -9.79072 -0.985447 45575.6
-22.9574 -1.30512 -1.33375 45682.6
-26.0732 -1.62524 -2.88615 43925.8
15.6068 38.0001 -6.48409 62188.2
27.6852 18.0261 -3.58096 61919.1
24.7826 26.4515 -4.51469 59392.3
18.8269 13.7482 -0.0282545 57715.7
20.5865 15.6759 -0.719319 64776.8
6.91159 1.53779 3.07164 63924
2.98835 2.8827 3.30847 57958.8
0.412352 17.2056 2.15225 53075.6
-27.4123 6.58458 -3.58792 44669.8
-29.0988 -0.209337 -4.58349 38997
20.4593 35.817 -7.18664 62726.3
18.7167 32.2553 -4.22127 60811.6
-1.08699 18.6654 1.87055 59641.9
25.9331 11.7801 -2.36398 61356.6
24.7435 28.0103 -5.06479 62127.7
28.0189 13.9416 -3.25088 62393.3
-21.6002 -13.6238 -2.4594 39482.6
-27.099 -9.01925 -3.95684 49488.4
-25.8165 15.7714 -4.1499 46757
-26.4263 15.9221 -4.61002 52019.6
-18.1997 -9.21593 -0.511563 46123.5
-27.6692 22.7176 -8.19835 42108.3
-22.8562 20.6218 -3.98376 47174.3
7 73 74 75 76 77 30 29 2571
6 87 86 124 125 103 102 2351
5 29 32 46 65 73 2570
4 128 61 60 127 2349
4 5 4 62 63 2552
7 93 114 113 140 120 119 88 2502
6 127 122 121 95 94 128 2410
6 107 106 131 124 86 85 2424
5 116 115 121 122 123 2441
6 95 121 115 114 93 92 2359
6 104 117 118 119 120 105 2589
5 101 102 103 104 105 2479
7 105 120 140 141 97 100 101 2392
7 85 84 51 54 57 108 107 2388
5 112 113 114 115 116 2412
5 87 102 101 100 80 2389
5 54 53 55 56 57 2391
5 94 95 92 91 96 2393
8 80 81 82 83 84 85 86 87 2527
6 97 98 99 81 80 100 2420
5 147 137 83 82 148 2423
5 64 65 46 18 17 2558
5 51 84 83 137 52 2531
6 73 65 64 59 58 74 2394
6 88 89 90 91 92 93 2567
4 58 59 60 61 2434
7 61 128 94 96 75 74 58 2339
4 51 52 53 54 2332
5 76 142 143 126 77 2573
6 90 142 76 75 96 91 2333
6 142 90 89 67 66 143 2406
6 89 88 119 118 68 67 2578
6 143 66 70 12 11 126 2550
6 68 118 117 144 129 69 2583
6 103 125 149 144 117 104 2414
5 150 141 140 113 112 2340
5 66 67 68 69 70 2381
6 139 151 148 82 81 99 2446
6 108 57 56 62 4 3 2384
6 144 149 110 109 130 129 2560
6 111 110 149 125 124 131 2574
6 131 106 7 6 71 111 2379
4 63 62 56 55 2587
6 106 107 108 3 2 7 2575
5 116 123 152 150 112 2469
6 150 152 138 98 97 141 2470
4 153 133 132 154 2454
4 99 98 138 139 2472
4 154 132 136 146 2596
3 148 151 147 2489
5 132 133 134 135 136 2595
7 136 135 50 49 79 145 146 2465
5 145 79 78 155 156 2466
6 40 78 79 49 41 37 2482
6 43 45 157 134 133 153 2480
5 134 157 47 50 135 2481
7 40 27 26 72 159 155 78 2488
4 156 155 159 158 2476
6 157 45 33 34 48 47 2486
6 47 48 42 41 49 50 2487
5 158 159 72 36 35 2354
6 32 21 20 19 18 46 2548
6 43 44 24 23 33 45 2497
6 14 38 37 41 42 15 2498
6 37 38 39 28 27 40 2499
5 1 0 35 36 8 2509
5 19 20 24 44 16 2516
7 33 23 22 31 10 9 34 2505
5 48 34 9 15 42 2361
6 29 30 31 22 21 32 2535
4 25 26 27 28 2507
7 25 71 6 8 36 72 26 2521
6 77 126 11 10 31 30 2537
5 20 21 22 23 24 2517
6 38 14 13 130 109 39 2519
4 16 17 18 19 2368
7 9 10 11 12 13 14 15 2525
7 28 39 109 110 111 71 25 2539
5 6 7 2 1 8 2540
6 69 129 130 13 12 70 2551
6 0 1 2 3 4 5 2542
