ply
format ascii 1.0
comment Exported from MorphoGraphX 2.0 1-254
comment Cellular mesh
element vertex 472
property float x
property float y
property float z
property float signal
element face 237
property list int int vertex_index
property int label
end_header
-18.1448 23.9177 22.19 67505.7
-12.5654 24.223 24.0095 68421.7
-11.0573 27.7863 23.0491 67062.5
-11.7447 28.7648 22.4882 67672.9
-17.0575 28.3195 20.9023 66164.2
-18.8353 25.247 21.3277 66614.6
-18.2705 -0.220609 25.8845 62892.9
-16.9315 0.0837963 26.1454 65111
-14.9495 1.63436 26.5864 65028.1
-16.9628 7.45662 26.0645 66808.8
-19.834 6.56689 25.4619 64441.7
-21.3301 -28.8837 17.151 67509.6
-17.005 -27.8121 19.0426 67126.4
-17.0079 -26.1236 20.0712 67947.8
-18.2403 -22.6775 21.5767 67433.4
-23.1672 -23.8699 19.4911 66016.6
-23.76 -11.6774 23.7329 65937.2
-17.1044 -12.8711 25.3669 67686.5
-17.0111 -10.3334 25.7535 66456.1
-17.9544 -7.75647 25.629 61322.9
-19.214 -6.90626 25.367 64590.6
-23.3694 -9.8196 24.0589 66424.6
-23.7932 -31.065 14.6101 66213.4
-23.0759 -33.0873 13.2546 67262.4
-16.1974 -32.7571 15.8124 67145.8
-15.5931 -29.7654 18.036 66550.2
-22.6412 -35.5389 11.3153 67710.6
-16.5714 -35.9462 13.0052 67678.5
-15.7258 -34.2569 14.6104 68016.8
-18.6695 37.4398 15.2402 66911.8
-15.5144 36.0925 17.5281 67085.7
-13.7959 38.2823 16.4478 64249.6
-14.716 41.0999 14.0309 66569.6
-19.1713 39.8767 13.1153 58878
-16.9503 32.7917 18.815 66591
-20.5728 33.2182 17.122 62888.7
-23.0373 29.3708 18.064 65729.8
-17.4463 29.1429 20.3483 66558.5
-16.797 32.3287 19.0992 68237.8
-20.0049 -2.35164 25.3924 63532.6
-22.9146 -1.3121 24.5336 65149.3
-25.4411 -2.38925 23.5096 64521.6
-25.7603 -7.17336 23.2066 67620.1
-24.8792 -13.4149 23.0162 65067.9
-22.633 -17.0782 22.9206 68505.2
-17.2527 -18.3501 23.5784 67127.1
-15.5586 -15.4911 24.899 67304.3
-16.4382 12.8388 25.7881 66608.2
-16.4257 14.1807 25.5035 67944.5
-17.5944 15.8164 24.6984 64312.8
-21.8311 15.278 23.4268 65470.6
-22.7237 11.3176 23.8836 66459
-22.0977 9.92905 24.4163 66677.3
15.7187 23.1004 22.3245 66815.3
16.136 23.7938 21.9408 64727.6
11.9781 28.1415 21.3811 65145.1
11.0046 27.4814 21.9547 66925.3
10.0448 25.568 22.7737 66824.5
9.30965 22.1801 23.6791 63135.3
11.7309 21.4176 23.5659 59332.8
-21.8715 42.2104 9.32242 55578.9
-21.7929 41.9398 9.57999 63925.3
-15.4647 44.8994 10.4421 64612.4
-15.6754 46.6147 8.58569 62226.5
-20.4835 45.5641 6.94411 55975.3
-14.3544 43.3957 12.2957 62964.6
-21.8974 39.6788 11.3354 61661.3
-22.7445 38.424 11.683 54391
-23.4902 35.1794 13.7344 62592.1
-22.6926 34.3366 14.9238 67294
-22.0656 34.1651 15.4975 67550.2
25.3819 -2.10527 23.6011 65863.9
27.5705 -4.87601 22.7686 64668.4
28.1813 -4.83935 22.5724 66010.6
27.9762 2.89864 22.972 67240
25.4603 1.65826 23.6586 65730.4
-28.2075 -14.4389 21.4788 66341.1
-23.9625 -19.5592 21.6046 68625.8
-26.2327 -13.5515 22.5289 65703.8
-28.4713 -26.9169 15.8461 65989.3
-26.95 -29.4706 14.6753 68329.4
-23.89 -23.0989 19.7525 64408.5
-26.9004 -23.0079 18.6574 64749.6
-28.0711 -25.3285 16.9206 67837.6
25.9275 -6.96874 23.1372 67818.4
23.1459 -9.35133 23.9931 67958
24.0968 -11.3755 23.4068 67985.7
25.6848 -12.8402 22.4203 68411.9
30.024 5.88781 21.8813 64692
30.5667 6.00579 21.6712 66744.3
32.7584 10.346 20.3115 65799.3
29.2869 14.8793 20.2136 66235.8
28.0051 14.382 20.8387 61028.8
25.3953 10.5609 22.4454 55364.3
25.3352 10.1687 22.538 58205.5
-25.3021 45.9171 4.786 49140
-25.2902 41.7464 7.6776 53644.7
-16.6412 19.0288 24.1779 67171.2
-18.223 21.8298 22.9941 68309.5
-22.2923 19.7199 22.2699 67909.7
-23.4248 16.5261 22.5513 65693.8
-25.5376 27.586 17.6186 67629.6
-27.2694 28.9477 15.6919 64781.1
-27.9214 -1.37505 22.6191 62989
-23.6218 6.17465 24.1613 65102.9
-27.0561 5.94504 23.2229 63404.3
-28.7615 1.91304 22.8207 65265.1
-28.0515 -8.05122 22.3551 68387.2
-31.7718 -3.67202 21.097 62475.2
-30.9671 -7.26203 21.1776 63938.9
-31.0719 -13.6089 20.2939 61643.3
-29.73 -14.8156 20.5944 62624.9
-31.7132 -8.86379 20.7825 64493.7
-29.7871 -18.8327 19.5255 67469.4
15.6165 36.1479 16.2226 62954.6
17.2228 37.7324 14.4218 65269.1
10.4989 42.5864 13.9241 63233.4
9.40969 39.2409 16.5734 66487.7
7.50262 33.2607 20.191 66878
12.5689 32.0177 19.4281 66229.9
15.2051 34.7478 17.2048 67074.1
8.36839 38.1528 17.59 65879.6
-28.9225 38.6902 7.15615 51179.2
-28.8964 35.7971 9.03928 51774.6
-28.2827 35.3826 9.81462 60116.6
6.51347 5.45615 27.1578 67023.2
8.17248 5.23704 26.9565 64599.5
13.374 7.94989 25.9611 66575.7
12.0228 13.1621 25.4105 65862.6
8.26027 13.7002 26.0379 66850.5
6.93298 12.9286 26.4071 68269.4
5.68611 6.3827 27.0832 66762
2.78489 0.745953 27.8888 67939
2.79342 -3.1897 27.8569 65901.6
4.41765 -3.72337 27.7735 66929.4
8.96418 -2.50688 27.311 68236.7
9.47956 1.40529 27.1792 68512.4
-34.2091 -23.9537 15.6433 67540.4
-33.8121 -25.3811 14.9202 66697.3
-31.5635 -27.8437 14.0242 66935.4
-32.8579 -22.3944 16.9618 68204.8
-32.6431 -33.0337 9.58527 67031.6
-32.7597 -33.179 9.36897 67337.6
-26.2001 -36.7803 9.22094 66677.3
-27.9487 -33.2702 11.6164 68053
-21.8063 7.53862 24.7205 64985.6
8.39291 -17.1773 26.1999 68135.3
10.3998 -15.7396 26.1527 65523.1
10.7727 -11.7068 26.9569 66074.4
10.4504 -11.2586 27.1174 66897.4
4.27882 -12.7095 27.7243 68964.7
2.94045 -15.5698 26.975 67350.6
4.47737 -17.6272 26.4218 68425.1
30.643 20.6751 17.5402 57959.7
28.1957 21.7979 18.1121 63340.9
25.8659 17.0814 20.7636 66482.6
30.5498 16.4307 19.2014 57998.7
-30.4888 42.0374 4.96937 45867.2
-30.1281 39.9715 6.01704 50210.4
3.17768 -33.4636 17.484 67914.9
9.42019 -30.9874 19.2771 67641.6
5.27429 -28.7472 21.6824 68249.1
2.19073 -31.9094 18.9469 68148.3
-31.5636 24.2979 15.2458 59099.8
-32.4536 22.3579 15.5402 59056.1
-31.3902 20.2215 17.418 65567.4
-29.583 19.6853 18.8574 67474.3
-25.5939 22.8849 19.7546 66115.6
-24.5369 24.6121 19.6226 66030.7
-25.4521 26.12 18.4314 67217.1
-31.3934 2.44777 21.8494 68240.5
-33.3833 2.87041 20.7598 68309.1
-34.4702 -2.73433 20.1772 67307.1
-33.4324 -14.5471 19.1753 67031.4
-36.268 -15.8241 17.4888 66686.1
-36.3616 -16.5642 17.2394 67103.7
-32.3524 -21.0321 17.9225 67264
-17.0778 -20.2073 22.7965 67451.8
37.6223 -16.7007 15.8498 64801.2
40.9712 -12.2431 16.426 68112.4
38.9995 -10.8549 17.8634 67391
35.7143 -11.5584 19.0478 67711.1
35.0902 -14.1126 18.5876 67977.5
12.922 30.5599 19.991 61607.6
6.51561 32.6552 20.7482 64043
5.99196 30.9828 21.6456 67831
27.1024 23.2742 18.0463 60706.9
24.4089 22.8456 19.389 59695.9
22.8699 19.2025 21.2461 64814.1
-31.0613 27.4785 13.8269 60761.1
-28.9511 29.4326 14.0454 56201.8
-28.7115 31.8939 12.2737 51968.4
-31.7774 31.0891 10.5296 44945.5
-33.299 29.4726 10.345 61352
-32.966 28.539 11.5011 64475.8
-29.5296 14.6312 20.5528 66624.6
-28.3701 17.1009 20.2976 65993
-33.9499 17.0669 17.2201 64465.2
-34.275 14.7678 17.7313 65160.5
-31.8685 10.1225 20.7182 68219.9
-33.7681 9.94574 19.3648 67319.9
-35.265 5.12035 19.2245 65485.2
4.65409 27.7288 23.1509 68217.3
-35.8692 -8.72703 19.1231 66901.7
-36.5341 -3.29078 19.0732 67391.4
-38.435 -19.5287 15.5328 65712.8
6.15591 21.0734 24.5057 66248.6
3.2739 20.6423 25.0604 64652.5
2.21697 13.9349 26.3731 68600.9
-38.3504 -26.5605 11.9833 63118.1
-37.6316 -29.2973 10.1088 64308.2
-33.5692 -30.8428 10.9016 63884.9
22.1537 -9.48533 24.2938 68158.1
22.3003 -3.61234 24.4603 68052.3
-31.5531 34.3548 8.25431 47068.1
-35.033 32.4296 6.89243 51167.9
-35.5522 30.2695 7.83265 52266.4
-36.6377 24.2879 11.2461 65297.9
-36.1406 22.405 12.9109 62505.8
12.8394 14.4062 24.9965 66903.3
-38.7842 -2.78015 17.6229 63049.6
-37.0711 4.18628 18.4706 64582.4
-39.8241 0.701051 16.8153 58413.3
22.7587 6.45097 23.8314 61992.9
23.636 3.21605 23.9526 66030
-38.8179 -9.20541 17.026 67915.2
-39.4774 -12.1648 16.4246 67256.4
-36.4838 -9.02473 18.6223 68107.3
-40.2552 -19.8584 14.3653 66537.3
-41.0293 -20.8625 13.5555 66364
-39.56 -25.229 12.3024 67411.6
-39.1964 -30.613 8.25223 63534.2
19.3723 28.0924 18.9521 56838.3
21.1948 29.872 17.3589 62753.5
21.3274 31.7501 16.2571 64326.2
-36.5486 34.4318 4.98576 54377.1
-35.727 32.8819 6.15404 53547.1
-32.461 41.8446 4.12477 50646.9
-38.0464 35.7155 3.78007 55662.8
-37.7195 34.7899 4.24871 53764.5
4.49271 -9.34564 27.9449 68263.3
9.14708 -8.62545 27.4907 67508.4
10.5748 -4.71451 27.2069 68065.6
2.79745 -8.77373 27.9257 68063.6
-38.7137 26.7309 7.54264 56530.9
-38.5579 25.3443 8.60544 62337.7
-37.8156 24.9546 9.70349 66767.3
4.10002 -23.2669 24.6607 66613
5.21274 -25.2669 23.6759 67874.4
9.66832 -24.9336 23.2522 68437.1
10.935 -23.4155 23.7119 68447.5
-40.5829 18.6902 10.7477 67641.4
-39.183 17.8984 12.4599 60896.3
-38.9388 16.3764 13.2905 58033
-38.6868 12.5527 14.9601 64593.1
-35.2882 11.8964 17.7965 63253.9
-39.9962 11.4331 14.1732 60600.9
-39.5948 7.80727 16.1304 67267
-40.4275 -4.4544 16.462 67923.3
-40.9748 -5.50821 15.9431 63456.6
-28.8249 11.8776 21.757 65508.2
-29.3417 10.289 22.0467 64911.5
-42.2457 -12.9747 14.8255 67402.6
-43.2267 -13.7811 13.9124 64924.7
-42.4885 -16.8815 14.1264 68123
6.43749 38.8333 17.7516 67427.9
2.97065 34.2801 20.9719 67491.2
2.79167 25.6212 23.9051 65762.1
1.87129 22.1984 24.8368 65314.9
1.35051 13.1326 26.4983 64861
1.38593 9.59445 26.9705 65371.8
2.0426 6.72626 27.1572 61139.4
-40.362 32.0745 3.88512 46714.4
-40.7495 29.6966 4.49422 46165.5
0.450834 5.12707 27.3706 65205.2
1.89309 1.64591 27.8554 67528.4
-41.9711 22.2257 7.46143 59480.6
-42.7407 19.6357 8.0902 66123.9
-42.1259 18.8613 9.18349 66695.4
-27.5131 33.8329 11.6845 52091.8
-3.31339 20.0003 25.9409 67388.7
0.0589242 21.8167 25.2592 68292.5
-5.83294 24.6572 24.7545 68528.4
-6.5992 23.0501 25.2673 68503
-6.13707 20.4717 25.8479 66425.2
-6.09752 -34.0015 16.7064 68012.7
-6.37597 -31.1834 18.8378 68333.1
-8.72321 -29.6655 19.6483 66111.8
-11.2383 -30.6033 18.5712 67831.7
-10.835 -33.9369 16.1831 68340.7
39.1418 -6.64807 19.0301 68067.2
35.2003 -4.99259 20.7097 68233.2
33.5801 -10.0987 20.1833 66676.3
-4.29443 33.3928 21.3721 66938.4
-1.12415 33.387 21.4091 65506
0.691677 34.6625 20.9552 66888.7
0.668248 37.8531 19.3586 67544.6
-5.30801 36.8314 19.6626 68338.9
-8.78167 -7.28856 27.019 67547.9
-2.60341 -7.11911 27.537 66586.1
-1.94288 -4.91888 27.6745 66255.1
-3.3395 -2.38168 27.6802 64272.9
-7.76714 -3.06192 27.3095 65947.9
-9.46151 -4.04641 27.1825 67560.1
28.9584 27.5688 15.6972 60976.6
27.9586 25.7584 16.8958 60295.4
32.6486 21.7493 16.2877 64209.8
-14.8907 11.2836 26.3117 65239.8
-7.77743 13.6782 26.7795 67636
-8.34894 18.6816 26.0435 66809.1
-10.5668 18.8194 25.8478 67696.8
-13.2134 2.07249 26.808 63238.4
-11.8532 4.48879 26.756 62165.6
-12.9228 7.01458 26.6721 66930.9
-14.8996 8.48225 26.3906 60010.9
0.34487 -14.9823 26.9654 68176.3
-1.48395 -18.129 26.2509 68828.4
-2.15841 -22.5325 24.8658 68908.4
-0.74949 -24.2492 24.3901 68498.8
20.1609 24.7647 20.1957 62530.9
19.3253 25.2555 20.2713 63048.4
18.308 16.16 23.5241 66839.5
20.2827 16.3687 22.7476 66312.9
21.4498 18.3704 22.0053 65597
12.8594 -33.0405 16.6397 68017.7
11.9631 -31.1095 18.7029 66509.3
3.16241 -34.0008 17.0193 68188.3
-47.0585 -0.557651 10.4056 66562.9
-45.2613 -1.30845 12.3191 66586.3
-43.7078 0.34809 13.4735 61078.2
-42.6829 2.32215 14.0703 53713.8
-43.1287 4.97249 13.1119 59099.8
-44.24 6.71022 11.5664 59671.7
-46.782 5.73065 9.56792 65158.5
14.1489 -10.3585 26.4386 68589
13.6253 -4.60183 26.7914 68659.3
-10.8559 -3.78903 27.1056 63288.3
-13.7708 -5.1211 26.7242 67016.2
-9.66867 -9.60449 26.802 68144.9
1.26727 40.4332 17.6189 66876.4
2.41368 41.4019 16.7346 66878.3
2.48854 43.2264 15.3842 66759.3
-2.49649 45.9929 13.74 62749.4
-5.02282 44.9088 14.3303 63925.9
-6.13854 42.1332 16.2293 66889.1
18.7675 10.2592 24.68 68365.5
22.343 13.4782 22.7573 66282.8
16.8946 14.5453 24.3078 66872.5
18.4527 7.08836 25.0284 66946.3
-2.30291 -30.6859 19.642 67824.8
-5.23794 -35.3049 15.6613 68249.7
-8.31755 -26.9729 21.4948 68079
-8.98667 -24.2834 23.1059 65509.4
-11.7047 -24.2612 22.4346 67329.1
18.0671 -4.88831 25.6865 68196.9
20.2933 -3.6885 25.0816 66993.4
20.1839 1.5381 25.0678 68496.3
16.1255 1.54012 26.217 67675.9
15.3287 0.804772 26.4737 68469.1
15.2778 -3.84848 26.3799 67091
14.0427 -28.4774 19.9106 67995.1
4.75676 -27.5728 22.5079 68407.6
-7.36351 -22.3397 24.081 68242.4
-7.84376 -18.0593 25.687 67195.1
-14.2668 -21.0897 23.2524 67266
-1.38462 47.2686 12.6537 64161.2
-7.75722 47.53 11.2997 58031.6
36.843 0.388591 20.3268 64834.7
39.5551 -0.224229 19.3413 67156.9
41.4884 1.87697 18.614 67286.4
39.8695 5.08713 19.0494 62839.8
36.1312 1.63281 20.5364 67844.7
-11.0551 -34.576 15.5496 68228.5
-12.7294 20.2402 25.0748 68191.7
-7.39963 -17.7615 25.8508 66066.5
14.013 -17.317 24.8098 68296
14.6178 -10.6701 26.2465 68538.2
29.9235 -25.5949 14.6449 68018.5
28.8836 -24.9655 15.7211 68084.1
25.2586 -25.289 17.3992 67857.8
23.6808 -28.504 16.0101 67851.5
24.7028 -29.8712 14.6129 68075.1
18.2094 -9.19941 25.4297 67784
16.7808 -26.6164 20.2574 68121.2
19.9297 -28.8934 17.5668 68135.4
23.8128 -22.324 19.6865 68187.6
16.8154 -23.9909 21.635 68102.8
-11.9551 44.8054 12.1787 57698.3
-10.1982 46.9725 11.0312 58517.8
-10.5385 -37.0147 13.7446 68593.3
-12.3801 23.2085 24.4124 68519.8
24.2079 -21.2689 20.0819 66783.9
30.0574 -21.591 17.3467 68145.9
28.338 -20.9747 18.6544 68141
36.606 13.9951 17.8298 62208.1
35.8329 11.0824 18.9485 63280.7
36.7094 7.76831 19.4979 64079.8
39.3497 7.83525 18.6776 68028.2
23.3218 -18.6312 21.379 67023.2
21.115 -17.6721 22.3516 67813.1
18.6049 -16.9494 23.3405 66334.3
15.7761 -18.3379 23.8516 67829.6
15.6561 -22.6309 22.6568 68389.4
4.08538 45.7334 13.2316 64902.9
-11.2525 32.7152 20.8964 67522.5
15.9381 6.52781 25.6211 65713.7
-8.0058 3.68746 27.2059 66330.7
-6.38778 4.60052 27.3311 61335.5
-6.22862 8.12402 27.4105 67977
-6.90446 9.53186 27.3374 66092.3
31.8235 -16.9332 18.7655 68203.6
32.5819 -18.9206 17.3927 68136.9
35.5164 -19.9818 15.1682 67007.3
-42.1727 11.6976 12.0273 65018.4
-43.9429 9.36876 11.0091 63420.3
-0.661822 27.6053 23.5717 67574.1
-5.7874 26.1644 24.152 67978.6
40.2274 -4.70322 18.8834 68111.3
43.965 -5.87107 17.3881 68128.5
-6.61997 28.1146 23.3385 65329.9
-5.29914 32.21 21.8939 68146.1
-10.5093 33.9251 20.3744 66973.3
-1.97319 -28.4988 21.7374 68349.3
-2.09817 -28.1274 22.041 68093.6
-2.87011 -0.372783 27.6865 67355.5
-3.23139 3.76553 27.3705 65302.6
-2.64714 13.6845 26.6244 68557
-6.48894 12.3611 26.9742 67168.1
19.2571 -10.3642 24.8674 68436.7
-43.9735 -26.3189 8.31485 59765.4
-7.62644 -13.98 26.4207 66125.9
-8.92146 -13.4695 26.3658 64311.8
34.6597 3.26747 20.7664 60716.5
18.8839 -31.3103 16.2915 67799.5
-47.173 -7.45046 10.6214 61730.5
-48.0266 -4.10377 9.58941 48335.7
-50.7099 -4.55715 5.51275 60216.2
-50.8757 -8.02438 5.63738 61019.9
-48.1712 -9.14347 9.57298 62028.5
-11.0344 38.0606 17.4215 64162.5
-7.84857 39.5843 17.4748 65131.1
-7.42819 41.1887 16.5716 65222.8
35.0882 -4.59415 20.7784 68268.6
28.5483 -5.10002 22.417 65750.8
31.3736 -2.80754 21.8872 66266.4
33.1029 2.84633 21.2451 62227
-2.22173 -12.2449 27.125 65179.7
-1.64622 -8.73815 27.4711 66746.8
-41.5565 27.4926 4.71747 56849.8
-41.1284 27.106 5.27115 56462.3
22.5642 33.2522 14.8299 63372
-43.1984 15.7916 9.55115 63815.4
-46.6926 14.3765 6.05372 59922.5
-46.8629 12.6845 6.69279 58091.1
-47.9994 -0.817334 9.32994 64435.5
-50.2838 0.53646 5.55335 60757.3
29.4803 -13.9043 20.7509 67596.4
27.3895 -15.0544 21.3448 68274.9
26.8756 -14.8768 21.5732 66474.7
-44.9774 -21.7149 9.91713 64670.5
31.2406 -10.0843 20.9104 67101.1
-44.1148 -5.67691 13.4583 61277.8
-47.592 -17.5695 9.24331 66905.7
-46.5764 -14.1813 11.1479 66476.9
-47.5674 -12.1262 10.466 67089.9
-50.5359 -12.8017 6.43544 64639.3
-48.7889 5.82463 6.87918 62854.6
-46.2315 19.4276 4.23791 52149.7
-43.6908 26.959 2.91911 57630.1
-45.1161 -6.87708 12.6904 63606
-46.2421 -19.2126 9.8676 66875.6
34.5892 16.1121 17.8773 62404
6 383 360 325 324 433 384 1135
6 336 303 302 406 312 311 861
6 301 424 425 407 406 302 951
6 304 305 186 154 153 306 1193
5 418 417 290 180 179 938
6 313 312 406 407 408 409 1048
6 257 256 413 414 332 331 1015
6 386 402 250 249 360 383 937
5 362 363 364 353 352 1019
6 383 384 380 379 385 386 1039
6 427 308 307 314 313 409 935
6 409 408 270 269 426 427 983
8 398 399 400 401 402 386 385 391 837
6 284 309 308 427 426 280 919
6 401 375 147 146 250 402 1188
4 369 368 417 418 1069
5 231 210 209 230 429 1036
6 373 310 309 284 283 390 1065
5 280 281 282 283 284 819
7 1 390 283 282 416 419 2 1079
6 281 268 267 415 416 282 986
6 294 293 420 419 416 415 958
6 368 367 442 291 290 417 1168
6 401 400 428 382 376 375 804
6 439 421 420 293 297 440 813
5 293 294 295 296 297 820
6 440 297 296 339 344 441 805
6 339 340 341 342 343 344 806
4 389 372 28 27 1207
6 359 335 334 376 382 354 926
4 343 342 365 366 892
4 365 342 341 403 960
6 288 25 24 28 372 289 925
5 317 316 374 363 362 943
5 331 330 222 221 257 1028
6 354 355 356 357 358 359 928
8 13 12 25 288 287 351 352 353 1009
5 367 368 369 370 371 1179
6 405 357 356 224 223 348 930
5 353 364 177 14 13 1195
8 46 45 177 364 363 374 430 431 931
5 431 338 18 17 46 932
7 348 345 347 219 128 127 405 991
6 348 223 94 93 346 345 993
7 303 336 337 19 18 338 298 933
5 345 346 322 321 347 934
7 327 328 329 330 331 332 333 1000
5 324 325 160 159 326 1143
5 311 8 7 337 336 1199
7 360 249 248 361 161 160 325 1146
6 8 311 312 313 314 9 916
5 289 372 389 350 285 912
6 48 47 307 308 309 310 936
5 285 286 287 288 289 1201
7 326 159 162 349 286 285 350 832
5 49 48 310 373 97 1200
7 319 320 54 53 321 322 323 1022
5 377 378 379 380 381 1161
6 349 422 423 351 287 286 939
6 352 351 423 318 317 362 941
6 3 2 419 420 421 404 942
4 323 188 187 319 1004
5 412 411 392 378 377 822
7 320 319 187 186 305 233 232 1007
5 232 183 55 54 320 1198
5 430 374 316 315 446 979
5 148 147 375 376 334 816
7 446 447 299 298 338 431 430 945
7 32 31 439 440 441 387 65 1202
6 391 385 379 378 392 393 1166
6 441 344 343 366 388 387 956
5 305 304 450 234 233 1010
5 450 115 114 120 234 1049
6 298 299 300 301 302 303 947
6 408 407 425 274 271 270 982
5 413 451 452 453 414 845
6 334 335 242 241 149 148 1190
8 415 267 202 185 184 266 295 294 1021
6 411 410 456 457 393 392 836
8 413 256 254 253 252 251 278 451 849
5 391 393 457 458 398 906
4 436 435 454 455 972
6 359 358 136 135 242 335 914
4 230 229 459 429 1025
5 410 411 412 178 182 1064
6 182 181 292 460 456 410 974
4 462 463 464 465 840
4 465 464 438 437 970
5 434 435 436 437 438 831
4 381 380 384 433 1032
5 455 454 327 333 466 973
5 466 333 332 414 453 841
5 452 451 278 277 467 987
6 467 277 276 449 448 468 1002
6 127 126 136 358 357 405 1192
6 443 460 292 291 442 444 981
6 301 300 133 132 275 424 848
4 275 274 425 424 1017
6 86 85 212 428 400 399 985
7 280 426 269 208 207 268 281 853
7 438 464 463 263 262 469 434 996
7 469 461 328 327 454 435 434 998
6 367 371 432 445 444 442 989
6 212 213 355 354 382 428 988
6 266 265 340 339 296 295 855
7 89 88 74 73 443 444 445 1080
4 273 272 468 448 1003
7 403 341 340 265 121 117 116 1058
6 355 213 71 75 224 356 1055
6 90 89 445 432 396 395 992
9 87 458 457 456 460 443 73 72 84 1171
5 264 263 463 462 470 995
5 459 229 228 264 470 1012
6 262 226 225 259 461 469 1026
5 329 328 461 259 258 847
7 322 346 93 92 155 188 323 870
6 395 394 471 156 91 90 1154
4 245 244 449 276 1018
7 448 449 244 216 215 236 273 1213
4 306 153 156 471 913
5 349 162 161 361 422 1008
6 423 422 361 248 247 318 863
5 59 219 347 321 53 1196
7 315 316 317 318 247 152 151 1043
7 151 150 240 243 447 446 315 1045
6 134 133 300 299 447 243 1047
5 258 220 222 330 329 1027
6 251 246 245 276 277 278 850
6 125 131 271 274 275 132 865
5 236 235 239 272 273 1214
6 130 208 269 270 271 131 1053
7 206 58 57 202 267 268 207 879
5 184 118 121 265 266 869
8 262 263 264 228 205 175 174 226 862
7 220 258 259 225 227 203 204 1040
7 256 257 221 201 200 255 254 1056
5 254 255 198 197 253 1041
6 253 197 165 164 218 252 1042
5 251 252 218 217 246 857
7 216 244 245 246 217 194 193 864
6 158 157 237 238 239 235 1218
7 235 236 215 214 123 122 158 1219
2 237 238 -1
6 120 119 183 232 233 234 860
5 227 173 110 112 203 1084
5 142 141 211 210 231 1052
7 205 228 229 230 209 138 137 1054
5 225 226 174 173 227 867
7 220 204 172 171 201 221 222 868
6 194 217 218 164 163 189 1059
5 193 192 214 215 216 1044
5 399 398 458 87 86 1110
6 212 85 84 72 71 213 1116
5 139 138 209 210 211 872
5 206 207 208 130 129 877
5 140 176 175 205 137 1068
6 203 112 109 108 172 204 1071
4 57 56 185 202 1091
5 171 170 199 200 201 1072
7 198 255 200 199 261 260 195 1073
6 94 223 224 75 74 88 1124
6 195 196 166 165 197 198 1074
6 189 190 191 192 193 194 1075
6 214 192 191 279 124 123 1076
5 186 187 188 155 154 871
5 178 179 180 181 182 905
7 111 110 173 174 175 176 113 1083
6 106 170 171 172 108 103 1085
5 180 290 291 292 181 1077
7 163 164 165 166 167 168 169 1087
6 169 101 102 190 189 163 1088
4 159 160 161 162 1078
5 157 158 122 96 95 873
6 247 248 249 250 146 152 1114
7 146 147 148 149 150 151 152 890
4 141 142 143 144 882
4 150 149 241 240 1118
6 211 141 144 80 79 139 1098
6 240 241 242 135 134 243 1121
6 137 138 139 79 83 140 884
5 113 176 140 83 82 1112
7 132 133 134 135 136 126 125 1123
5 432 371 370 397 396 878
5 199 170 106 105 261 886
7 125 126 127 128 129 130 131 1157
5 166 196 100 99 167 1122
6 129 128 219 59 58 206 1125
6 191 190 102 69 68 279 1089
4 124 279 68 67 1104
8 67 66 61 60 96 122 123 124 1090
4 394 395 396 397 1094
7 56 55 183 119 118 184 185 1128
6 118 119 120 114 117 121 1131
4 114 115 116 117 1132
6 113 82 81 77 76 111 1113
7 110 111 76 78 107 109 112 1099
6 107 42 41 103 108 109 1100
6 103 41 40 104 105 106 1115
7 104 145 52 51 260 261 105 1119
6 51 50 100 196 195 260 1120
6 101 36 35 70 69 102 891
4 95 96 60 64 1226
7 88 89 90 91 92 93 94 910
6 144 143 26 23 22 80 1129
4 84 85 86 87 1111
8 79 80 22 11 15 81 82 83 894
5 76 77 44 43 78 1133
6 78 43 16 21 42 107 1134
5 71 72 73 74 75 1181
6 167 99 98 0 5 168 1149
7 169 168 5 4 37 36 101 1136
7 67 68 69 70 29 33 66 1137
6 65 62 61 66 33 32 1153
5 60 61 62 63 64 1138
7 53 54 55 56 57 58 59 1160
6 153 154 155 92 91 156 1130
6 17 16 43 44 45 46 1164
6 39 40 41 42 21 20 1145
6 104 40 39 6 10 145 1147
6 49 97 98 99 100 50 1148
5 34 35 36 37 38 1150
5 34 30 29 70 35 1151
5 29 30 31 32 33 1152
5 23 26 27 28 24 1178
6 22 23 24 25 12 11 908
5 11 12 13 14 15 1180
7 14 177 45 44 77 81 15 1162
6 16 17 18 19 20 21 1165
7 145 10 9 314 307 47 52 1185
6 47 48 49 50 51 52 903
6 20 19 337 7 6 39 1183
5 6 7 8 9 10 1184
6 390 1 0 98 97 373 909
6 0 1 2 3 4 5 1186
5 404 38 37 4 3 1187
7 34 38 404 421 439 31 30 1189
5 387 388 63 62 65 1169
