ply
format ascii 1.0
comment Exported from MorphoGraphX 2.0.1-254
comment Cell Graph: each vertex is a cell, each edge a wall
element vertex 236
property int label
property float x
property float y
property float z
element edge 656
property uint source
property uint target
end_header
804 0 0 0 
805 0 0 0 
806 0 0 0 
813 0 0 0 
816 0 0 0 
819 0 0 0 
820 0 0 0 
822 0 0 0 
831 0 0 0 
832 0 0 0 
836 0 0 0 
837 0 0 0 
840 0 0 0 
841 0 0 0 
845 0 0 0 
847 0 0 0 
848 0 0 0 
849 0 0 0 
850 0 0 0 
853 0 0 0 
855 0 0 0 
857 0 0 0 
860 0 0 0 
861 0 0 0 
862 0 0 0 
863 0 0 0 
864 0 0 0 
865 0 0 0 
867 0 0 0 
868 0 0 0 
869 0 0 0 
870 0 0 0 
871 0 0 0 
872 0 0 0 
873 0 0 0 
877 0 0 0 
878 0 0 0 
879 0 0 0 
882 0 0 0 
884 0 0 0 
886 0 0 0 
890 0 0 0 
891 0 0 0 
892 0 0 0 
894 0 0 0 
903 0 0 0 
905 0 0 0 
906 0 0 0 
908 0 0 0 
909 0 0 0 
910 0 0 0 
912 0 0 0 
913 0 0 0 
914 0 0 0 
916 0 0 0 
919 0 0 0 
925 0 0 0 
926 0 0 0 
928 0 0 0 
930 0 0 0 
931 0 0 0 
932 0 0 0 
933 0 0 0 
934 0 0 0 
935 0 0 0 
936 0 0 0 
937 0 0 0 
938 0 0 0 
939 0 0 0 
941 0 0 0 
942 0 0 0 
943 0 0 0 
945 0 0 0 
947 0 0 0 
951 0 0 0 
956 0 0 0 
958 0 0 0 
960 0 0 0 
970 0 0 0 
972 0 0 0 
973 0 0 0 
974 0 0 0 
979 0 0 0 
981 0 0 0 
982 0 0 0 
983 0 0 0 
985 0 0 0 
986 0 0 0 
987 0 0 0 
988 0 0 0 
989 0 0 0 
991 0 0 0 
992 0 0 0 
993 0 0 0 
995 0 0 0 
996 0 0 0 
998 0 0 0 
1000 0 0 0 
1002 0 0 0 
1003 0 0 0 
1004 0 0 0 
1007 0 0 0 
1008 0 0 0 
1009 0 0 0 
1010 0 0 0 
1012 0 0 0 
1015 0 0 0 
1017 0 0 0 
1018 0 0 0 
1019 0 0 0 
1021 0 0 0 
1022 0 0 0 
1025 0 0 0 
1026 0 0 0 
1027 0 0 0 
1028 0 0 0 
1032 0 0 0 
1036 0 0 0 
1039 0 0 0 
1040 0 0 0 
1041 0 0 0 
1042 0 0 0 
1043 0 0 0 
1044 0 0 0 
1045 0 0 0 
1047 0 0 0 
1048 0 0 0 
1049 0 0 0 
1052 0 0 0 
1053 0 0 0 
1054 0 0 0 
1055 0 0 0 
1056 0 0 0 
1058 0 0 0 
1059 0 0 0 
1064 0 0 0 
1065 0 0 0 
1068 0 0 0 
1069 0 0 0 
1071 0 0 0 
1072 0 0 0 
1073 0 0 0 
1074 0 0 0 
1075 0 0 0 
1076 0 0 0 
1077 0 0 0 
1078 0 0 0 
1079 0 0 0 
1080 0 0 0 
1083 0 0 0 
1084 0 0 0 
1085 0 0 0 
1087 0 0 0 
1088 0 0 0 
1089 0 0 0 
1090 0 0 0 
1091 0 0 0 
1094 0 0 0 
1098 0 0 0 
1099 0 0 0 
1100 0 0 0 
1104 0 0 0 
1110 0 0 0 
1111 0 0 0 
1112 0 0 0 
1113 0 0 0 
1114 0 0 0 
1115 0 0 0 
1116 0 0 0 
1118 0 0 0 
1119 0 0 0 
1120 0 0 0 
1121 0 0 0 
1122 0 0 0 
1123 0 0 0 
1124 0 0 0 
1125 0 0 0 
1128 0 0 0 
1129 0 0 0 
1130 0 0 0 
1131 0 0 0 
1132 0 0 0 
1133 0 0 0 
1134 0 0 0 
1135 0 0 0 
1136 0 0 0 
1137 0 0 0 
1138 0 0 0 
1143 0 0 0 
1145 0 0 0 
1146 0 0 0 
1147 0 0 0 
1148 0 0 0 
1149 0 0 0 
1150 0 0 0 
1151 0 0 0 
1152 0 0 0 
1153 0 0 0 
1154 0 0 0 
1157 0 0 0 
1160 0 0 0 
1161 0 0 0 
1162 0 0 0 
1164 0 0 0 
1165 0 0 0 
1166 0 0 0 
1168 0 0 0 
1169 0 0 0 
1171 0 0 0 
1178 0 0 0 
1179 0 0 0 
1180 0 0 0 
1181 0 0 0 
1183 0 0 0 
1184 0 0 0 
1185 0 0 0 
1186 0 0 0 
1187 0 0 0 
1188 0 0 0 
1189 0 0 0 
1190 0 0 0 
1192 0 0 0 
1193 0 0 0 
1195 0 0 0 
1196 0 0 0 
1198 0 0 0 
1199 0 0 0 
1200 0 0 0 
1201 0 0 0 
1202 0 0 0 
1207 0 0 0 
1213 0 0 0 
1214 0 0 0 
1218 0 0 0 
1219 0 0 0 
1226 0 0 0 
804 816
804 837
804 926
804 985
804 988
804 1188
805 806
805 813
805 820
805 855
805 956
805 1202
806 855
806 892
806 956
806 960
806 1058
813 820
813 942
813 958
813 1189
813 1202
816 890
816 926
816 1188
816 1190
819 853
819 919
819 986
819 1065
819 1079
820 855
820 958
820 1021
822 836
822 1064
822 1161
822 1166
831 970
831 972
831 996
831 998
832 912
832 939
832 1008
832 1078
832 1143
832 1201
836 906
836 974
836 1064
836 1166
836 1171
837 906
837 937
837 985
837 1039
837 1110
837 1166
837 1188
840 970
840 995
840 996
841 845
841 973
841 1000
841 1015
845 849
845 987
845 1015
847 998
847 1000
847 1026
847 1027
847 1040
848 865
848 947
848 951
848 1017
848 1047
848 1123
849 850
849 857
849 987
849 1015
849 1041
849 1042
849 1056
850 857
850 864
850 987
850 1002
850 1018
853 877
853 879
853 919
853 983
853 986
853 1053
855 869
855 1021
855 1058
857 864
857 1042
857 1059
860 1007
860 1010
860 1049
860 1128
860 1131
860 1198
861 916
861 933
861 947
861 951
861 1048
861 1199
862 867
862 995
862 996
862 1012
862 1026
862 1054
862 1068
862 1083
863 939
863 941
863 1008
863 1043
863 1114
863 1146
864 1018
864 1044
864 1059
864 1075
864 1213
865 982
865 1017
865 1053
865 1123
865 1157
867 1026
867 1040
867 1083
867 1084
868 1027
868 1028
868 1040
868 1056
868 1071
868 1072
868 1085
869 1021
869 1058
869 1128
869 1131
870 871
870 910
870 934
870 993
870 1004
870 1022
870 1130
871 1004
871 1007
871 1130
871 1193
872 884
872 1036
872 1052
872 1054
872 1098
873 1090
873 1218
873 1219
873 1226
877 879
877 1053
877 1125
877 1157
878 989
878 992
878 1094
878 1179
879 986
879 1021
879 1091
879 1125
879 1160
882 1052
882 1098
882 1129
884 894
884 1054
884 1068
884 1098
884 1112
886 1072
886 1073
886 1085
886 1115
886 1119
890 1043
890 1045
890 1114
890 1118
890 1188
890 1190
891 1088
891 1089
891 1136
891 1137
891 1150
891 1151
892 956
892 960
894 908
894 1098
894 1112
894 1113
894 1129
894 1162
894 1180
903 936
903 1119
903 1120
903 1148
903 1185
903 1200
905 938
905 974
905 1064
905 1077
906 1110
906 1166
906 1171
908 925
908 1009
908 1129
908 1178
908 1180
909 1065
909 1079
909 1148
909 1149
909 1186
909 1200
910 992
910 993
910 1080
910 1124
910 1130
910 1154
912 925
912 1201
912 1207
913 1130
913 1154
913 1193
914 926
914 928
914 1121
914 1123
914 1190
914 1192
916 935
916 1048
916 1184
916 1185
916 1199
919 935
919 936
919 983
919 1065
925 1009
925 1178
925 1201
925 1207
926 928
926 988
926 1190
928 930
928 988
928 1055
928 1192
930 991
930 993
930 1055
930 1124
930 1192
931 932
931 943
931 945
931 979
931 1019
931 1162
931 1164
931 1195
932 933
932 945
932 1164
932 1165
933 945
933 947
933 1165
933 1183
933 1199
934 991
934 993
934 1022
934 1196
935 936
935 983
935 1048
935 1185
936 1065
936 1185
936 1200
937 1039
937 1114
937 1135
937 1146
937 1188
938 1069
938 1077
938 1168
939 941
939 1008
939 1009
939 1201
941 943
941 1009
941 1019
941 1043
942 958
942 1079
942 1186
942 1187
942 1189
943 979
943 1019
943 1043
945 947
945 979
945 1045
945 1047
947 951
947 1047
951 982
951 1017
951 1048
956 1169
956 1202
958 986
958 1021
958 1079
960 1058
970 996
972 973
972 998
973 998
973 1000
974 981
974 1064
974 1077
974 1171
979 1043
979 1045
981 989
981 1077
981 1080
981 1168
981 1171
982 983
982 1017
982 1048
982 1053
983 1048
983 1053
985 988
985 1110
985 1111
985 1116
986 1021
986 1079
987 1002
988 1055
988 1116
989 992
989 1080
989 1168
989 1179
991 993
991 1125
991 1157
991 1192
991 1196
992 1080
992 1094
992 1154
993 1124
995 996
995 1012
996 998
996 1026
998 1000
998 1026
1000 1015
1000 1027
1000 1028
1002 1003
1002 1018
1002 1213
1003 1213
1003 1214
1004 1007
1004 1022
1007 1010
1007 1022
1007 1193
1007 1198
1008 1078
1008 1146
1009 1019
1009 1180
1009 1195
1009 1201
1010 1049
1010 1193
1012 1025
1012 1054
1015 1028
1015 1056
1018 1213
1019 1195
1021 1091
1021 1128
1022 1160
1022 1196
1022 1198
1025 1036
1025 1054
1026 1040
1027 1028
1027 1040
1028 1056
1032 1039
1032 1135
1032 1161
1036 1052
1036 1054
1039 1135
1039 1161
1039 1166
1040 1071
1040 1084
1041 1042
1041 1056
1041 1073
1041 1074
1042 1059
1042 1074
1042 1087
1043 1045
1043 1114
1044 1075
1044 1076
1044 1213
1044 1219
1045 1047
1045 1118
1045 1121
1047 1121
1047 1123
1049 1131
1049 1132
1052 1098
1053 1157
1054 1068
1055 1116
1055 1124
1055 1181
1056 1072
1056 1073
1058 1131
1058 1132
1059 1075
1059 1087
1059 1088
1065 1079
1065 1200
1068 1083
1068 1112
1069 1168
1069 1179
1071 1084
1071 1085
1071 1099
1071 1100
1072 1073
1072 1085
1073 1074
1073 1119
1073 1120
1074 1087
1074 1120
1074 1122
1075 1076
1075 1088
1075 1089
1076 1089
1076 1090
1076 1104
1076 1219
1077 1168
1078 1143
1078 1146
1079 1186
1080 1124
1080 1171
1080 1181
1083 1084
1083 1099
1083 1112
1083 1113
1084 1099
1085 1100
1085 1115
1087 1088
1087 1122
1087 1136
1087 1149
1088 1089
1088 1136
1089 1104
1089 1137
1090 1104
1090 1137
1090 1138
1090 1153
1090 1219
1090 1226
1091 1128
1091 1160
1094 1154
1098 1129
1099 1100
1099 1113
1099 1133
1099 1134
1100 1115
1100 1134
1100 1145
1104 1137
1110 1111
1110 1171
1111 1116
1111 1171
1112 1113
1113 1133
1113 1162
1114 1146
1114 1188
1115 1119
1115 1145
1115 1147
1116 1171
1116 1181
1118 1121
1118 1190
1119 1120
1119 1147
1119 1185
1120 1122
1120 1148
1121 1123
1121 1190
1122 1148
1122 1149
1123 1157
1123 1192
1124 1181
1125 1157
1125 1160
1125 1196
1128 1131
1128 1160
1128 1198
1129 1178
1130 1154
1130 1193
1131 1132
1133 1134
1133 1162
1133 1164
1134 1145
1134 1164
1134 1165
1135 1143
1135 1146
1136 1149
1136 1150
1136 1186
1136 1187
1137 1151
1137 1152
1137 1153
1138 1153
1138 1169
1138 1226
1143 1146
1145 1147
1145 1165
1145 1183
1147 1183
1147 1184
1147 1185
1148 1149
1148 1200
1149 1186
1150 1151
1150 1187
1150 1189
1151 1152
1151 1189
1152 1153
1152 1189
1152 1202
1153 1169
1153 1202
1157 1192
1160 1196
1160 1198
1161 1166
1162 1164
1162 1180
1162 1195
1164 1165
1165 1183
1168 1179
1169 1202
1171 1181
1178 1207
1180 1195
1183 1184
1183 1199
1184 1185
1184 1199
1186 1187
1187 1189
1189 1202
1213 1214
1213 1219
1214 1218
1214 1219
1218 1219
