ply
format ascii 1.0
comment Exported from MorphoGraphX 2.0 1-254
comment Cellular mesh
element vertex 312
property float x
property float y
property float z
property float signal
element face 157
property list int int vertex_index
property int label
end_header
-22.7051 -5.7235 16.8558 51014.8
-19.3892 -6.72503 17.3248 46803.2
-18.3954 -6.05029 17.515 48884.4
-14.7376 0.391972 17.9559 58025.6
-16.4901 3.89723 17.6098 55211.4
-18.2398 3.65688 17.4711 54330.2
-23.8846 -0.949904 16.7923 48505.3
-24.6932 33.3757 8.51282 37702.1
-20.598 30.1418 11.3776 55231.3
-17.7097 31.6581 11.8446 55188.4
-21.0092 36.2484 9.26679 45964
-18.7865 22.1153 13.9778 59443.5
-18.7235 24.411 13.4065 51696.1
-20.361 25.769 12.6794 49224.2
-24.8422 24.6768 11.7358 54377.1
-25.4807 21.4995 12.5618 54153.6
-26.1928 19.2328 13.0603 55430.2
-23.1887 16.9011 14.5473 47537.5
-18.607 18.3484 14.9755 51566
-18.0593 21.0837 14.3594 55642.9
-14.5357 36.6401 11.3763 44138.9
-14.7925 32.2441 12.3786 52525.5
-14.733 33.533 12.0977 53564.6
15.964 11.1088 13.5359 50026.6
13.7565 10.6549 14.2262 44090.2
13.5283 9.43144 14.5301 52692.2
12.963 5.93384 15.1685 49952.7
15.5862 3.39449 14.7374 48583.1
18.7141 5.35087 13.7109 57801.1
14.3947 -22.9114 12.0996 43447.2
16.9267 -15.1883 13.5949 43834.9
14.1921 -15.7241 14.2164 46135.1
11.4624 -16.8474 14.5585 45452.6
11.5369 -20.2849 13.6991 56716.9
-25.0628 -8.55896 16.2052 49241
-23.3673 -12.065 16.1541 52836.6
-18.8746 -11.0987 17.0241 51632.1
30.6729 2.84809 8.67797 47137.7
33.4395 5.06704 6.58401 36000.3
31.5566 10.4536 6.78262 38222.4
29.6769 11.0177 7.84577 40706.8
26.5098 8.05124 10.287 55459.1
-20.5327 28.289 11.9314 56388.3
-27.8355 27.7164 9.39275 58903
-26.4833 25.9608 10.6835 59329.1
-29.5359 29.4333 7.71457 49560.1
-20.3915 28.5726 11.8923 56436.5
-33.5369 -30.5995 10.2153 38491.5
-32.0154 -27.7885 11.3736 31899.5
-35.407 -24.458 10.8009 42804
-38.2914 -28.2418 8.7468 42341
-32.5118 25.1143 8.22439 45443.3
-30.8367 23.5684 9.78302 53539.3
-32.2476 16.2707 11.8104 46909.4
-35.345 17.2762 9.95533 54572.9
-37.6284 10.9143 10.7164 51912.1
-36.5594 10.3298 11.4155 53028.5
-33.5547 10.6123 12.7204 58337.6
-31.0955 11.4689 13.5232 51124.9
-30.9256 11.6276 13.5529 44061.2
-38.1417 3.17829 11.4391 47700.5
-36.0795 1.91851 12.6652 44578.1
-33.7628 3.4717 13.8046 54230.8
8.357 -15.8731 15.3181 46488.4
4.75207 -18.1346 15.3856 49784.9
4.50283 -18.9793 15.2047 50472.7
7.73137 -22.0629 13.9042 50573.4
-4.30624 -12.2186 17.4382 56425
-10.3638 -15.573 16.903 48372.8
-8.63071 -19.7388 15.9957 37076.7
-7.97958 -19.8852 15.9651 45014.5
-2.81662 -17.373 16.4876 51597.3
-1.68018 -14.3708 16.9527 51677.6
-39.8543 11.3874 9.13103 41364.9
-36.1181 18.2201 9.16088 51532.2
-37.7059 19.6095 7.58194 44985.6
-40.4277 3.13447 10.0096 42911.5
-39.7215 -22.1791 8.81295 44571.9
-36.7861 -22.1615 10.5653 41300.2
-35.3682 -19.0851 11.7196 39375.1
-38.1959 -16.2878 10.5151 35855.4
-40.4506 -16.8963 8.9673 41464.9
19.6849 5.46957 13.3755 57885.1
15.9686 -0.00023032 14.7226 42854.2
19.334 -0.904204 13.8819 49286
20.7812 -0.373514 13.4184 52443.1
0.342451 34.9375 12.0466 53506.2
-8.21589 34.9987 12.5936 53399
-7.54593 33.7721 12.8312 57707.6
-5.81231 31.6965 13.1551 53714.5
-0.229442 32.2978 12.5198 48511.9
9.08436 15.2252 14.2633 44096.2
6.2872 13.5404 15.123 56018.8
5.08722 11.9268 15.6156 52688.8
7.2815 8.73699 15.8577 55594.3
9.11239 4.76312 15.9798 51256.9
9.69367 4.73132 15.8804 54755.3
-20.0016 6.33586 17.095 55670.5
-26.7952 1.83007 16.1568 54459.3
-26.4218 0.0634158 16.3074 49716.9
0.383528 -30.3222 12.1907 48740.5
6.28613 -32.036 10.1323 43311.2
7.84591 -29.1741 11.1842 44924.6
5.64982 -25.9608 13.0336 47091.3
2.70786 -25.683 13.6218 47247.2
0.798014 -28.2476 12.991 46654.8
0.450545 -34.8223 9.96033 41142.2
-0.582011 -31.804 11.6328 47981.6
-5.5325 -32.2955 11.8775 39229.2
-7.32164 -34.9143 10.8778 42630.1
-7.15827 -37.2017 9.72315 40951.9
-5.91877 -38.6614 8.74222 40131.3
22.6883 14.2045 10.4159 44083.4
21.4534 17.3876 10.0695 47553.5
15.9442 16.5087 12.3849 47653.6
17.174 12.3564 12.8953 47904.8
20.4542 11.8447 11.873 41869.5
25.1799 -7.75856 11.2665 43595.7
26.1764 -5.89904 10.9031 37760.9
24.201 -0.82072 12.1109 46726.5
19.468 -5.84465 13.8461 51126.1
2.32071 18.6045 14.7723 55863.2
1.49657 16.7996 15.1991 56462.8
9.67637 16.5771 13.8755 44990.5
7.00284 20.0067 13.7486 50252.2
-29.1268 7.61952 14.9451 56984.7
-21.6426 9.57437 16.5186 56122.3
-22.2623 12.6929 15.8546 56812.7
-23.5851 14.5825 15.1128 49395.5
-8.31471 25.7899 14.2624 50798.7
-2.98981 26.5248 13.8373 60728.3
-7.04709 30.3353 13.437 52733.4
-9.67907 28.897 13.6643 50626.1
-9.8392 27.4495 13.9238 55063.6
-6.48248 -24.7296 14.5939 47386.9
-3.90594 -24.6839 14.5162 52408
-0.496011 -21.4784 15.1793 49837
6.96363 -24.0458 13.4353 50676
13.1959 -25.9624 11.2238 49602.1
14.5814 -23.6634 11.752 37894.2
-1.2079 26.0895 13.7127 49617.4
1.37508 28.2126 12.9472 47187.3
1.49501 30.4853 12.5344 48833.9
-41.2148 -4.5573 9.74091 46852.7
-38.4579 -4.74633 11.3847 45103.9
-35.4891 -3.543 12.9383 43705.4
-2.09863 22.801 14.4365 48682.3
0.259593 21.5027 14.4519 58416.4
7.11653 23.9011 12.9144 57424.7
7.18409 25.1571 12.6013 44395.4
-28.7277 -2.58124 15.7893 58777.4
-26.885 -8.34406 15.7937 49334.4
16.7112 -8.73167 14.5055 48827.6
14.1471 -7.52192 15.1569 51429
11.7546 -10.4104 15.4756 48563.9
18.7928 -13.4819 13.3178 38800.2
-28.991 19.5127 12.0644 46321.3
-30.6125 22.4106 10.3797 45991.5
2.21996 -36.3227 8.75574 36834.5
-5.07142 -40.8206 7.27946 43017.5
-1.09099 -40.0516 7.10622 41850.2
2.1778 -37.9644 7.78284 49778.1
23.8997 6.08457 11.7315 48223.4
22.153 6.89307 12.2693 52854.4
25.6434 1.00714 11.4315 42243.1
1.58182 10.7835 16.1988 51136.5
0.325878 8.16402 16.7203 50136.4
2.73368 5.0092 16.8844 53025.7
4.70836 2.57251 16.8496 48644.7
5.51379 2.40636 16.7387 49927.9
7.81789 -12.6168 15.9546 43563.7
-15.4982 14.4111 16.2467 57830
-15.6004 15.3698 16.0295 56447.8
0.593228 -13.2987 16.8887 52520.7
1.71763 -10.833 17.0691 52153.6
-3.0496 -7.08634 17.9356 58434.3
-5.6217 -7.92498 18.0066 51217.6
-6.142 -9.04356 17.9153 52374.5
1.26528 -21.9452 14.8484 47275.4
-44.3414 -17.2546 6.03416 36664.1
-42.2081 -16.6525 7.72724 39732
-41.1731 -11.2688 9.20997 35384.7
-43.3795 -10.4072 7.77076 35023.7
-0.853261 14.324 15.8546 53414.2
-4.70209 21.439 14.8805 43896.5
-5.2027 16.0803 15.8613 46663
-28.5437 -26.7735 12.3938 39891.8
-25.6941 -26.8095 12.8988 32419.6
-24.1643 -24.8534 13.5669 33040.8
-28.3817 -18.4341 14.0386 42712.5
-30.9471 -19.1949 13.2637 45254.2
24.1869 21.2352 7.33843 43035.7
20.7087 27.5455 6.579 47491.5
19.1513 23.4198 9.05255 47951.4
22.0796 19.6234 9.04029 48020.1
-13.4808 26.6738 13.7727 55822.9
-11.7095 -2.47324 18.2234 48787.7
-13.2476 -0.244134 18.084 52322.4
-15.3371 -6.58225 17.8947 49945.7
35.3201 0.640726 5.84658 41446.4
29.5888 1.70912 9.38974 47017.8
30.8116 -1.03888 8.73844 43151
4.17516 30.8301 11.9725 59120.7
9.74849 30.5462 10.5534 53410.8
10.4574 33.1883 9.64296 50512.1
7.52331 34.9815 10.2801 52392.2
13.913 18.6766 12.5037 53994.6
14.233 20.1578 12.0691 52562.7
7.81491 22.3907 13.1177 55919.9
5.15152 -34.5595 9.04273 42693.5
-8.16677 23.5452 14.6538 51672.1
-10.5497 22.3846 14.835 59505.2
-12.139 20.9786 15.0349 58408.7
-10.975 17.5925 15.7139 56486
-8.0094 14.6156 16.2221 48585.3
-29.6345 -13.5392 14.5069 47223.3
-27.551 -17.0397 14.5006 42084.8
-21.8505 -15.8572 15.8667 42432.8
-29.8671 -9.57976 14.7957 49793.8
-31.8996 -8.73152 14.1557 44710.6
-33.1259 -4.82085 13.9528 48303.5
-39.065 -11.4262 10.5462 34556.6
-37.3744 -12.4934 11.4349 37971.9
-35.0407 -11.2058 12.7647 46776.3
-11.7328 -32.6422 12.2318 44583.2
-13.1434 -29.6069 13.3222 44610.8
-16.6439 -28.9769 13.4802 35000.7
-17.6657 -30.3319 13.0735 40717.6
-18.4939 -32.7215 12.2332 36689.3
-17.887 -35.9281 10.9289 42765.6
-16.4846 -37.8192 10.0557 36568.2
-14.367 -37.7494 10.106 33410.5
-15.6299 25.6014 13.7023 62198.3
-8.39099 5.25191 17.6353 54225.2
-5.78675 4.24128 17.6228 41003.4
-2.9011 7.07356 17.1246 48362.3
-8.48866 13.0059 16.5235 47268
-11.5217 10.6738 16.9781 51301.7
-10.7561 7.12114 17.474 54909.9
-8.00698 -26.6016 14.0754 44953.7
-8.09752 -28.0737 13.6177 44410.5
-14.2802 5.5726 17.6072 63415.6
-14.3821 12.622 16.6432 57742.9
-17.1062 10.2821 16.9334 61128.9
27.7693 -12.812 8.96879 35797.5
25.5929 -10.3765 10.7239 39852.4
20.6874 -14.1904 12.4655 41926.4
22.315 -17.4281 10.9428 42303.9
-30.7519 -3.44273 15.0657 57649.5
-32.1099 3.41353 14.5104 60221.9
-20.8167 -16.5429 15.9068 44522
-17.2371 -15.9701 16.429 50122.4
-16.3628 -14.5786 16.7664 47447.1
-18.0909 -41.9356 7.85513 38828
-24.4047 -37.7686 9.53862 36858.9
4.58499 -41.8885 4.86013 42001.1
-0.981506 -45.7996 2.90907 36199.9
10.347 29.7168 10.5835 53130.6
10.2532 27.7234 11.176 47885.7
25.9168 -19.4162 8.34968 43585.3
29.151 -13.0155 8.0175 47322.6
22.7902 -19.2548 10.1455 38348.4
15.8027 22.5594 10.8353 49814.6
18.0165 30.5901 6.89935 50222.2
14.088 26.79 10.1468 53245.5
24.5673 14.0422 9.64814 46309
27.0778 14.5705 8.27646 40527.9
28.0182 17.4644 6.73135 39180
9.6417 -35.9057 7.19651 49620.2
-29.1898 4.28193 15.3581 47226.2
-20.5658 8.50013 16.8137 56699.6
-25.7393 -36.4167 10.0014 35925.2
-25.6845 -33.8253 11.1433 37717.6
-30.4671 -32.4823 10.6534 36782.6
-5.45112 -41.7674 6.71257 42974.5
-12.6251 -38.6391 9.59492 39017.8
-11.5405 -41.6852 7.74076 48195.6
19.2947 -24.7739 9.54909 37962.6
12.1715 -3.84119 15.6189 45817.3
11.1799 -3.5848 15.8344 49881.6
8.30854 -4.21327 16.444 44503.9
3.97188 -8.46697 16.9864 31228.5
31.0818 -5.12556 8.18945 42409.1
32.4316 -5.82047 7.24218 38096.6
-11.1845 -42.9594 6.78468 41213.4
10.8914 -29.6147 10.0979 42504.8
25.8324 7.68379 10.6614 54757.4
-3.86071 0.841634 17.8383 48928.1
-3.05246 -1.2202 17.9304 51454.6
-1.15995 -1.86297 17.8112 45020.1
2.37155 0.395283 17.3258 56385.7
-24.6105 -31.4374 12.0694 33937.5
11.3121 -30.6465 9.42878 45807.8
11.2928 -33.635 7.89409 41281.9
3.70807 -8.53883 17.0201 32727.6
16.3634 32.454 7.1258 53652.9
17.9901 -28.2714 8.59482 43384.1
2.21682 -6.49605 17.3787 54553.3
-0.732462 -4.72151 17.8097 41345.1
-22.7637 -24.7191 13.8444 43584.7
-17.4328 -24.6787 14.5082 40448.5
-20.2713 -23.2859 14.5399 40325.8
-14.3436 -23.7285 14.9094 45032.2
-5.784 -44.6916 4.57984 36671.6
-7.43159 -5.38476 18.2 53050.2
19.5343 -25.7237 9.06521 39287.9
-5.34613 1.78185 17.8424 45431.5
-13.228 -21.2205 15.5632 48691.8
-11.9915 -12.199 17.5019 43929.1
-12.0984 -13.7027 17.2218 48692
-10.6336 -2.37591 18.2431 44241.7
-41.9553 -22.6037 7.23692 40244.1
6 269 98 97 270 126 125 918
6 116 115 23 28 82 163 1024
5 259 260 244 247 261 709
8 277 261 247 246 155 30 29 139 695
6 168 167 287 288 289 290 705
6 116 163 162 286 265 112 413
6 133 195 232 211 210 129 884
5 129 130 131 132 133 792
6 164 200 37 41 286 162 729
6 162 163 82 85 119 164 1025
6 233 234 235 236 237 238 757
6 238 241 4 3 197 233 848
7 133 132 21 9 8 46 195 888
6 22 21 132 131 89 88 1023
6 234 306 287 167 166 235 400
5 213 212 19 18 172 702
6 212 211 232 12 11 19 986
4 88 87 20 22 521
5 206 207 208 124 123 510
6 274 159 111 110 275 276 674
4 276 284 303 274 588
6 146 140 130 129 210 184 992
4 201 282 283 199 574
7 194 113 112 265 266 267 191 623
7 185 214 236 235 166 165 183 985
4 244 245 246 247 594
7 123 91 24 23 115 114 206 931
6 120 152 155 246 245 117 752
5 165 93 92 122 183 708
7 183 122 121 147 146 184 185 1018
7 207 262 264 258 149 148 208 874
6 171 172 18 17 128 127 970
6 127 126 270 243 242 171 969
7 206 114 113 194 193 262 207 912
7 170 154 153 278 279 280 281 869
5 32 31 154 170 63 508
5 156 157 74 54 53 857
5 199 38 37 200 201 469
6 152 153 154 31 30 155 544
6 146 147 148 149 141 140 1019
7 130 140 141 142 90 89 131 606
6 128 17 16 156 53 59 900
6 125 126 127 128 59 58 919
4 255 161 160 256 639
6 117 118 119 85 84 120 775
6 158 106 111 159 160 161 390
8 224 225 226 227 228 229 230 231 1002
6 100 107 106 158 209 101 643
5 112 113 114 115 116 902
6 106 107 108 109 110 111 932
4 253 230 229 254 934
8 105 135 134 239 240 108 107 100 948
6 100 101 102 103 104 105 759
6 25 24 91 92 93 94 490
5 86 87 88 89 90 976
4 191 192 193 194 416
5 136 135 105 104 178 580
5 71 70 134 135 136 960
7 178 65 64 173 72 71 136 646
6 104 103 137 66 65 178 694
6 229 228 291 272 271 254 936
7 72 173 174 175 176 177 67 589
7 64 63 170 281 294 174 173 698
5 264 263 295 257 258 938
3 296 292 293 913
5 262 193 192 263 264 963
5 174 294 297 298 175 650
6 228 227 299 188 187 291 1037
5 299 227 226 300 301 939
4 290 289 298 297 655
6 175 298 289 288 304 176 991
5 110 109 224 231 275 727
5 96 95 169 280 279 825
3 271 272 273 515
4 295 204 203 257 940
7 139 138 285 292 296 305 277 974
8 95 94 93 165 166 167 168 169 771
7 301 250 217 216 189 188 299 914
7 172 171 242 237 236 214 213 859
7 272 291 187 186 48 47 273 870
6 279 278 83 27 26 96 923
5 240 225 224 109 108 692
7 245 244 260 283 282 118 117 492
5 90 142 202 205 86 1021
6 186 190 79 78 49 48 853
5 186 187 188 189 190 891
5 241 238 237 242 243 567
8 80 79 190 189 216 215 223 222 836
5 161 255 268 209 158 750
4 259 261 277 305 397
6 239 134 70 69 307 302 755
6 284 276 275 231 230 253 1001
7 156 16 15 14 44 52 157 901
7 184 210 211 212 213 214 185 773
5 26 25 94 95 96 871
7 215 216 217 35 34 151 218 516
7 297 294 281 280 169 168 290 468
5 67 177 308 309 68 878
6 240 239 302 300 226 225 558
5 124 208 148 147 121 712
4 223 215 218 219 854
7 257 203 202 142 141 149 258 1020
6 118 282 201 200 164 119 845
5 256 160 159 274 303 909
5 310 304 288 287 306 740
5 286 41 40 266 265 739
6 150 248 220 219 218 151 872
6 306 234 233 197 196 310 1017
7 292 285 102 101 209 268 293 809
6 0 6 99 150 151 34 892
5 285 138 137 103 102 484
6 269 249 248 150 99 98 873
5 311 77 81 180 179 780
5 181 221 144 143 182 782
6 252 251 307 69 68 309 1005
6 195 46 42 13 12 232 550
6 120 84 83 278 153 152 978
7 309 308 198 2 1 36 252 982
5 311 50 49 78 77 799
6 180 81 80 222 221 181 803
6 62 249 269 125 58 57 501
4 267 266 40 39 962
4 202 203 204 205 832
6 61 60 76 143 144 145 479
6 250 251 252 36 35 217 961
6 301 300 302 307 251 250 979
7 308 177 176 304 310 196 198 927
6 82 28 27 83 84 85 847
5 77 78 79 80 81 802
5 56 55 73 76 60 481
5 73 55 54 74 75 806
5 196 197 3 2 198 983
6 67 68 69 70 71 72 829
6 33 66 137 138 139 29 863
6 32 63 64 65 66 33 817
6 145 220 248 249 62 61 837
5 60 61 62 57 56 840
7 53 54 55 56 57 58 59 843
5 75 74 157 52 51 846
6 121 122 92 91 123 124 778
5 51 52 44 43 45 876
4 47 48 49 50 818
6 45 43 42 46 8 7 922
5 13 42 43 44 14 524
5 37 38 39 40 41 1026
5 34 35 36 1 0 941
4 179 180 181 182 761
5 29 30 31 32 33 916
6 23 24 25 26 27 28 981
7 219 220 145 144 221 222 223 488
5 20 10 9 21 22 987
6 15 16 17 18 19 11 920
5 11 12 13 14 15 945
4 7 8 9 10 946
5 97 98 99 6 5 1016
7 0 1 2 3 4 5 6 967
6 5 4 241 243 270 97 984
