ply
format ascii 1.0
comment Exported from MorphoGraphX 2.0.1-254
comment Cell Graph: each vertex is a cell, each edge a wall
element vertex 157
property int label
property float x
property float y
property float z
element edge 427
property uint source
property uint target
end_header
390 0 0 0 
397 0 0 0 
400 0 0 0 
413 0 0 0 
416 0 0 0 
468 0 0 0 
469 0 0 0 
479 0 0 0 
481 0 0 0 
484 0 0 0 
488 0 0 0 
490 0 0 0 
492 0 0 0 
501 0 0 0 
508 0 0 0 
510 0 0 0 
515 0 0 0 
516 0 0 0 
521 0 0 0 
524 0 0 0 
544 0 0 0 
550 0 0 0 
558 0 0 0 
567 0 0 0 
574 0 0 0 
580 0 0 0 
588 0 0 0 
589 0 0 0 
594 0 0 0 
606 0 0 0 
623 0 0 0 
639 0 0 0 
643 0 0 0 
646 0 0 0 
650 0 0 0 
655 0 0 0 
674 0 0 0 
692 0 0 0 
694 0 0 0 
695 0 0 0 
698 0 0 0 
702 0 0 0 
705 0 0 0 
708 0 0 0 
709 0 0 0 
712 0 0 0 
727 0 0 0 
729 0 0 0 
739 0 0 0 
740 0 0 0 
750 0 0 0 
752 0 0 0 
755 0 0 0 
757 0 0 0 
759 0 0 0 
761 0 0 0 
771 0 0 0 
773 0 0 0 
775 0 0 0 
778 0 0 0 
780 0 0 0 
782 0 0 0 
792 0 0 0 
799 0 0 0 
802 0 0 0 
803 0 0 0 
806 0 0 0 
809 0 0 0 
817 0 0 0 
818 0 0 0 
825 0 0 0 
829 0 0 0 
832 0 0 0 
836 0 0 0 
837 0 0 0 
840 0 0 0 
843 0 0 0 
845 0 0 0 
846 0 0 0 
847 0 0 0 
848 0 0 0 
853 0 0 0 
854 0 0 0 
857 0 0 0 
859 0 0 0 
863 0 0 0 
869 0 0 0 
870 0 0 0 
871 0 0 0 
872 0 0 0 
873 0 0 0 
874 0 0 0 
876 0 0 0 
878 0 0 0 
884 0 0 0 
888 0 0 0 
891 0 0 0 
892 0 0 0 
900 0 0 0 
901 0 0 0 
902 0 0 0 
909 0 0 0 
912 0 0 0 
913 0 0 0 
914 0 0 0 
916 0 0 0 
918 0 0 0 
919 0 0 0 
920 0 0 0 
922 0 0 0 
923 0 0 0 
927 0 0 0 
931 0 0 0 
932 0 0 0 
934 0 0 0 
936 0 0 0 
938 0 0 0 
939 0 0 0 
940 0 0 0 
941 0 0 0 
945 0 0 0 
946 0 0 0 
948 0 0 0 
960 0 0 0 
961 0 0 0 
962 0 0 0 
963 0 0 0 
967 0 0 0 
969 0 0 0 
970 0 0 0 
974 0 0 0 
976 0 0 0 
978 0 0 0 
979 0 0 0 
981 0 0 0 
982 0 0 0 
983 0 0 0 
984 0 0 0 
985 0 0 0 
986 0 0 0 
987 0 0 0 
991 0 0 0 
992 0 0 0 
1001 0 0 0 
1002 0 0 0 
1005 0 0 0 
1016 0 0 0 
1017 0 0 0 
1018 0 0 0 
1019 0 0 0 
1020 0 0 0 
1021 0 0 0 
1023 0 0 0 
1024 0 0 0 
1025 0 0 0 
1026 0 0 0 
1037 0 0 0 
390 639
390 643
390 674
390 750
390 909
390 932
397 695
397 709
397 974
400 705
400 740
400 757
400 771
400 985
400 1017
413 623
413 729
413 739
413 902
413 1024
413 1025
416 623
416 912
416 963
468 650
468 655
468 698
468 705
468 771
468 825
468 869
469 574
469 729
469 845
469 1026
479 481
479 488
479 782
479 837
479 840
481 806
481 840
481 843
484 694
484 759
484 809
484 863
484 974
488 782
488 803
488 836
488 837
488 854
488 872
490 708
490 771
490 778
490 871
490 931
490 981
492 574
492 594
492 709
492 752
492 775
492 845
501 837
501 840
501 843
501 873
501 918
501 919
508 544
508 698
508 817
508 869
508 916
510 712
510 778
510 874
510 912
510 931
515 870
515 936
516 836
516 854
516 872
516 892
516 914
516 941
516 961
521 976
521 987
521 1023
524 550
524 876
524 901
524 922
524 945
544 695
544 752
544 869
544 916
544 978
550 884
550 888
550 922
550 945
550 986
558 692
558 755
558 939
558 948
558 979
558 1002
567 757
567 848
567 859
567 969
567 984
574 845
580 646
580 694
580 759
580 948
580 960
588 674
588 909
588 1001
589 646
589 650
589 698
589 829
589 878
589 927
589 991
594 695
594 709
594 752
606 792
606 976
606 992
606 1019
606 1020
606 1021
606 1023
623 739
623 902
623 912
623 962
639 750
639 909
643 750
643 759
643 809
643 932
643 948
646 694
646 698
646 817
646 829
646 960
650 655
650 698
650 991
655 705
655 991
674 727
674 909
674 932
674 1001
692 727
692 932
692 948
692 1002
694 759
694 817
694 863
695 709
695 752
695 863
695 916
695 974
698 817
698 869
702 773
702 859
702 920
702 970
702 986
705 740
705 771
705 991
708 771
708 778
708 985
708 1018
712 778
712 874
712 1018
712 1019
727 932
727 1001
727 1002
729 739
729 845
729 1025
729 1026
739 962
739 1026
740 927
740 991
740 1017
750 809
752 775
752 978
755 829
755 948
755 960
755 979
755 1005
757 848
757 859
757 985
757 1017
759 809
759 948
761 780
761 782
761 803
771 825
771 871
771 985
773 859
773 884
773 985
773 986
773 992
773 1018
775 845
775 847
775 978
775 1025
778 931
778 1018
780 799
780 802
780 803
782 803
792 884
792 888
792 992
792 1023
799 802
799 818
799 853
802 803
802 836
802 853
803 836
806 843
806 846
806 857
809 913
809 974
817 863
817 916
818 853
818 870
825 869
825 871
825 923
829 878
829 960
829 1005
832 940
832 1020
832 1021
836 853
836 854
836 891
836 914
837 840
837 872
837 873
840 843
843 857
843 900
843 919
845 1025
846 857
846 876
846 901
847 923
847 978
847 981
847 1024
847 1025
848 967
848 983
848 984
848 1017
853 870
853 891
854 872
857 900
857 901
859 969
859 970
859 985
863 916
863 974
869 923
869 978
870 891
870 936
870 1037
871 923
871 981
872 873
872 892
873 892
873 918
873 1016
874 912
874 938
874 963
874 1019
874 1020
876 901
876 922
878 927
878 982
878 1005
884 888
884 986
884 992
888 922
888 946
888 987
888 1023
891 914
891 1037
892 941
892 967
892 1016
900 901
900 919
900 920
900 970
901 920
901 945
902 912
902 931
902 1024
912 931
912 963
913 974
914 939
914 961
914 979
914 1037
918 919
918 969
918 984
918 1016
919 969
919 970
920 945
920 970
920 986
922 946
923 978
923 981
927 982
927 983
927 991
927 1017
931 981
931 1024
932 948
934 936
934 1001
934 1002
936 1002
936 1037
938 940
938 963
938 1020
939 979
939 1002
939 1037
940 1020
941 961
941 967
941 982
945 986
946 987
948 960
961 979
961 982
961 1005
962 1026
967 982
967 983
967 984
967 1016
969 970
969 984
976 1021
976 1023
979 1005
981 1024
982 983
982 1005
983 1017
984 1016
985 1018
987 1023
992 1018
992 1019
1001 1002
1002 1037
1018 1019
1019 1020
1020 1021
1024 1025
