ply
format ascii 1.0
comment Exported from MorphoGraphX 2.0.1-254
comment Cell Graph: each vertex is a cell, each edge a wall
element vertex 130
property int label
property float x
property float y
property float z
element edge 352
property uint source
property uint target
end_header
1048 0 0 0 
1049 0 0 0 
1051 0 0 0 
1052 0 0 0 
1054 0 0 0 
1055 0 0 0 
1059 0 0 0 
1061 0 0 0 
1063 0 0 0 
1064 0 0 0 
1065 0 0 0 
1067 0 0 0 
1072 0 0 0 
1079 0 0 0 
1082 0 0 0 
1083 0 0 0 
1084 0 0 0 
1085 0 0 0 
1086 0 0 0 
1087 0 0 0 
1089 0 0 0 
1090 0 0 0 
1092 0 0 0 
1096 0 0 0 
1098 0 0 0 
1100 0 0 0 
1102 0 0 0 
1104 0 0 0 
1111 0 0 0 
1112 0 0 0 
1114 0 0 0 
1117 0 0 0 
1118 0 0 0 
1120 0 0 0 
1123 0 0 0 
1124 0 0 0 
1127 0 0 0 
1130 0 0 0 
1131 0 0 0 
1134 0 0 0 
1135 0 0 0 
1136 0 0 0 
1137 0 0 0 
1138 0 0 0 
1139 0 0 0 
1140 0 0 0 
1141 0 0 0 
1142 0 0 0 
1143 0 0 0 
1149 0 0 0 
1150 0 0 0 
1153 0 0 0 
1155 0 0 0 
1157 0 0 0 
1161 0 0 0 
1164 0 0 0 
1167 0 0 0 
1170 0 0 0 
1171 0 0 0 
1177 0 0 0 
1180 0 0 0 
1181 0 0 0 
1184 0 0 0 
1185 0 0 0 
1196 0 0 0 
1198 0 0 0 
1202 0 0 0 
1204 0 0 0 
1205 0 0 0 
1207 0 0 0 
1211 0 0 0 
1213 0 0 0 
1214 0 0 0 
1217 0 0 0 
1218 0 0 0 
1223 0 0 0 
1224 0 0 0 
1225 0 0 0 
1232 0 0 0 
1238 0 0 0 
1240 0 0 0 
1241 0 0 0 
1242 0 0 0 
1243 0 0 0 
1244 0 0 0 
1246 0 0 0 
1252 0 0 0 
1254 0 0 0 
1256 0 0 0 
1263 0 0 0 
1265 0 0 0 
1266 0 0 0 
1271 0 0 0 
1273 0 0 0 
1274 0 0 0 
1276 0 0 0 
1278 0 0 0 
1279 0 0 0 
1280 0 0 0 
1281 0 0 0 
1282 0 0 0 
1283 0 0 0 
1284 0 0 0 
1286 0 0 0 
1287 0 0 0 
1293 0 0 0 
1303 0 0 0 
1305 0 0 0 
1306 0 0 0 
1307 0 0 0 
1309 0 0 0 
1310 0 0 0 
1313 0 0 0 
1315 0 0 0 
1318 0 0 0 
1321 0 0 0 
1322 0 0 0 
1323 0 0 0 
1325 0 0 0 
1326 0 0 0 
1332 0 0 0 
1334 0 0 0 
1341 0 0 0 
1342 0 0 0 
1343 0 0 0 
1344 0 0 0 
1345 0 0 0 
1348 0 0 0 
1350 0 0 0 
1354 0 0 0 
1048 1051
1048 1052
1048 1054
1048 1123
1048 1137
1048 1348
1049 1067
1049 1100
1049 1127
1049 1136
1049 1177
1051 1054
1051 1055
1051 1137
1051 1140
1051 1350
1052 1054
1052 1123
1052 1141
1052 1278
1052 1280
1054 1140
1054 1213
1054 1280
1055 1117
1055 1140
1055 1157
1055 1282
1055 1284
1055 1350
1059 1061
1059 1114
1059 1150
1059 1180
1061 1114
1061 1225
1063 1090
1063 1118
1063 1204
1063 1211
1063 1271
1063 1276
1064 1096
1064 1164
1064 1167
1064 1238
1064 1354
1065 1149
1065 1171
1065 1279
1065 1303
1065 1321
1065 1343
1067 1098
1067 1136
1067 1177
1067 1205
1067 1244
1072 1114
1072 1131
1072 1157
1072 1161
1072 1180
1072 1185
1072 1225
1079 1155
1079 1246
1079 1323
1079 1334
1079 1344
1079 1345
1082 1090
1082 1153
1082 1181
1082 1184
1082 1273
1082 1276
1082 1313
1083 1086
1083 1274
1083 1293
1084 1092
1084 1223
1084 1224
1084 1263
1085 1198
1085 1224
1085 1241
1085 1266
1086 1112
1086 1141
1086 1278
1086 1293
1087 1089
1087 1135
1087 1143
1087 1149
1087 1343
1087 1354
1089 1135
1089 1139
1089 1167
1089 1354
1090 1153
1090 1196
1090 1211
1090 1218
1090 1276
1092 1263
1096 1167
1096 1238
1096 1240
1096 1309
1096 1326
1098 1205
1098 1244
1098 1282
1098 1318
1100 1127
1100 1136
1100 1138
1100 1246
1100 1252
1102 1127
1102 1142
1102 1252
1102 1256
1102 1271
1102 1273
1104 1243
1104 1306
1104 1325
1111 1303
1111 1342
1111 1343
1112 1123
1112 1124
1112 1141
1112 1293
1112 1326
1114 1180
1114 1225
1117 1131
1117 1157
1117 1214
1117 1284
1117 1286
1118 1204
1118 1211
1118 1283
1118 1305
1118 1306
1120 1274
1120 1293
1120 1309
1120 1326
1120 1341
1123 1124
1123 1141
1123 1348
1124 1310
1124 1326
1124 1348
1127 1142
1127 1177
1127 1207
1127 1252
1130 1134
1130 1143
1130 1164
1130 1342
1130 1354
1131 1157
1131 1180
1131 1286
1131 1322
1134 1342
1135 1139
1135 1149
1135 1170
1135 1217
1135 1232
1136 1138
1136 1202
1136 1244
1136 1315
1137 1318
1137 1348
1137 1350
1138 1232
1138 1246
1138 1315
1138 1332
1138 1334
1139 1167
1139 1170
1139 1240
1140 1157
1140 1185
1140 1213
1141 1278
1142 1181
1142 1207
1142 1214
1142 1273
1143 1342
1143 1343
1143 1354
1149 1171
1149 1217
1149 1343
1150 1180
1150 1254
1150 1322
1153 1196
1153 1313
1155 1204
1155 1246
1155 1256
1155 1345
1157 1185
1161 1185
1161 1225
1161 1287
1164 1238
1164 1307
1164 1354
1167 1240
1167 1354
1170 1202
1170 1232
1170 1240
1170 1242
1171 1217
1171 1321
1171 1332
1171 1344
1177 1205
1177 1207
1177 1282
1180 1322
1181 1184
1181 1214
1181 1273
1181 1286
1184 1254
1184 1286
1184 1313
1184 1322
1185 1213
1185 1287
1196 1218
1198 1243
1198 1266
1198 1283
1202 1232
1202 1242
1202 1244
1202 1315
1204 1256
1204 1271
1204 1305
1204 1345
1205 1282
1207 1214
1207 1282
1207 1284
1211 1218
1211 1306
1211 1325
1213 1280
1213 1287
1214 1284
1214 1286
1217 1232
1217 1332
1218 1325
1223 1224
1223 1263
1223 1265
1223 1279
1224 1241
1224 1265
1225 1287
1232 1315
1232 1332
1238 1307
1238 1309
1238 1341
1240 1242
1240 1310
1240 1326
1241 1265
1241 1266
1241 1281
1242 1244
1242 1310
1242 1348
1243 1283
1243 1306
1244 1318
1244 1348
1246 1252
1246 1256
1246 1334
1252 1256
1254 1322
1256 1271
1263 1279
1263 1303
1265 1279
1265 1281
1265 1321
1265 1323
1266 1281
1266 1283
1266 1305
1271 1273
1271 1276
1273 1276
1274 1293
1278 1280
1279 1303
1279 1321
1281 1305
1281 1323
1281 1345
1282 1284
1282 1318
1282 1350
1283 1305
1283 1306
1286 1322
1293 1326
1303 1343
1305 1345
1306 1325
1307 1341
1309 1326
1309 1341
1310 1326
1310 1348
1318 1348
1318 1350
1321 1323
1321 1344
1323 1344
1323 1345
1332 1334
1332 1344
1334 1344
1342 1343
