ply
format ascii 1.0
comment Exported from MorphoGraphX 2.0 1-254
comment Cellular mesh
element vertex 258
property float x
property float y
property float z
property float signal
element face 130
property list int int vertex_index
property int label
end_header
-23.5355 23.9954 -4.4032 61355.4
-18.1985 21.7913 -3.19748 61742.1
-15.4143 23.0348 -3.65328 56942.7
-15.858 24.9126 -4.24375 62458.1
-21.4919 25.2945 -4.56569 57926.5
7.66425 -4.14012 2.18039 62146.8
8.87567 -4.69874 2.01855 57663.7
12.4305 -0.300399 0.405769 54222.5
11.4726 3.3698 -0.0878992 48704.7
8.67252 5.96439 -0.0801725 57854.5
5.43966 4.08507 1.02539 59794.4
-3.27809 10.3647 0.66858 53374.9
0.213007 11.7851 -0.327285 58158.9
1.10104 14.0181 -1.32687 62029
-4.42331 17.1193 -1.72943 61962.6
-6.32972 14.127 -0.245302 58926.9
-5.43157 12.4836 0.265737 64544.7
-13.9927 13.6955 0.336015 60493.9
-13.82 12.024 1.01325 59088.5
-9.92132 9.49421 1.79357 66336.4
-11.0455 16.162 -0.788669 54590.1
6.06592 -26.8563 1.97303 65987
4.66366 -28.9904 1.66924 66461.4
7.07396 -32.5481 -0.494819 61367.6
9.94864 -32.8641 -1.93793 57665.2
11.9237 -28.6043 -0.984192 45009.4
-13.8148 -4.52943 5.29604 63055.8
-8.69016 -0.134706 4.04066 58512.6
-9.52388 2.54315 3.58079 55999.9
-12.331 3.40482 3.6875 62735.5
-16.7717 -2.49868 5.07672 65634
-14.8692 -4.61928 5.33554 63195.7
-32.7658 -23.2351 2.63208 62610.2
-27.1958 -29.4304 2.718 60719
-25.6003 -29.5378 2.83384 64192.1
-23.0154 -27.7737 3.29548 64555.9
-24.1772 -25.4128 3.57355 65352.3
-29.7279 -21.5153 3.32796 67132.1
-32.0283 -21.6252 2.90554 63206.8
-20.5196 1.65639 4.40387 60715.7
-18.591 -1.91174 4.98461 63370.2
-13.5169 4.91868 3.40665 66059.7
-15.2648 5.63154 3.30808 62290.1
-18.5794 4.03386 3.8791 66026.9
-10.1738 -7.04411 5.35539 66619.3
-16.3229 -6.80351 5.54522 67091.4
-11.9607 -12.6715 5.60905 66079.3
-8.78478 -10.9589 5.47128 65850.6
-8.37498 -9.85636 5.39802 62745.8
-46.3497 -9.90482 -2.07838 66074.8
-45.9689 -10.0263 -1.85644 65337.9
-42.1926 -8.24973 0.0445108 59650.4
-43.336 -2.65978 -0.666645 59834.2
-45.6747 -1.51705 -2.15154 62985.6
-47.7198 -2.08883 -3.45368 61506.8
-34.9412 -18.4688 2.50267 64597.6
-38.3716 -18.3407 1.39182 66857.1
-35.8209 -23.406 1.95895 65329
-15.197 -16.5919 5.13474 64836
-13.2966 -18.1844 5.00123 67197.7
-7.00865 -14.4537 5.24423 67193.4
-15.2196 -14.8869 5.34299 63391
-18.6642 -9.4109 5.52614 63180.5
-21.7923 -4.943 5.17388 67666.7
-21.9702 -8.99826 5.263 62943.2
-38.6226 -0.820189 1.47817 64475.2
-35.2292 0.297554 2.58249 61463.5
-35.0787 4.44228 1.93248 60707.6
-38.2511 8.78762 -0.552761 47791.2
-38.2888 8.82062 -0.582297 47491.2
-41.45 6.62514 -1.34735 45984
-40.541 -0.733363 0.605101 60530.4
-3.86008 7.32251 1.64277 55448.4
-1.81542 5.32691 1.87138 62384.6
3.41629 6.76517 0.714152 63391.5
2.58977 8.611 0.323768 63094.4
8.47685 -40.3262 -4.63043 59254.4
4.33988 -39.1183 -2.28979 58539.1
0.977826 -41.101 -2.12548 60884.1
1.34874 -43.051 -3.36078 64135.9
11.3528 -8.26226 1.96588 54603.4
9.29651 -11.4084 2.81516 61286.1
12.3454 -17.2257 1.61539 58221.1
15.2548 -16.9369 0.624426 47633.3
16.6535 -14.8883 0.373638 54268.1
14.4591 -9.56116 1.16516 56402.8
-23.3671 -9.90508 5.09694 61466.9
-26.7535 -9.38303 4.66619 61055.4
-29.655 -12.4474 4.08244 65555
-27.5499 -15.7903 4.25622 65779.5
-22.4499 -14.5267 4.94721 66754.4
-11.5773 21.3692 -3.14464 56386.8
-11.5628 18.9583 -2.05522 62160
-11.1007 18.2974 -1.76393 63237.4
-4.50556 17.7142 -1.99514 58400.1
-3.90393 19.0033 -2.69827 59800.9
-6.10126 21.9362 -3.82646 56509.3
-9.0285 22.8226 -3.91436 54511.9
5.117 -5.19604 2.82809 62122.9
4.49168 -6.8265 3.17948 66622.9
7.72921 -11.7663 3.15032 63519.4
-19.5109 -17.857 4.82179 63047.3
8.29963 9.56075 -1.10669 53258.3
8.6154 10.7207 -1.619 50401.1
3.75881 15.8597 -2.69895 48264.7
9.97887 -18.5594 2.24457 62686.7
10.5298 -22.2317 1.64266 66841.1
13.3685 -25.0811 -0.341111 46910.5
15.6469 -22.0954 -0.544601 46974.8
-17.7588 18.254 -1.68858 63703.5
-17.292 16.8166 -1.01179 62358.7
-25.5634 -19.7195 4.17116 63101.5
-24.3514 -20.3332 4.24646 61509.2
-20.439 -19.3582 4.64459 66194.5
-27.2191 -17.191 4.19475 65412.9
-9.47384 8.82779 1.979 67304.6
-6.87775 6.0923 2.41075 56879.8
-34.3136 -28.4409 2.11456 67677.2
-36.1007 -23.8884 1.86424 64002.5
-41.0676 -23.7154 0.0576029 62574.9
-16.3162 -26.2854 3.94208 66318.8
-15.5664 -24.8108 4.19344 65068.6
-23.8519 -23.539 3.90645 63296.2
-37.2641 16.9074 -4.49181 49421.2
-38.07 15.1055 -3.71501 51884
-33.8441 11.4023 0.0353928 57119.4
-29.5758 12.3404 0.398834 61579.1
-30.1181 15.0134 -1.05081 54147.7
-33.819 17.0507 -3.2467 51993.1
-32.3245 -1.84939 3.56507 64551.2
-31.8797 -3.71525 3.77469 62363.6
-28.7451 -4.43185 4.39767 63093.5
-25.8536 -2.20056 4.65397 63541.6
-22.7809 1.39446 4.39058 61841.8
-25.2103 4.09939 3.70263 65364.3
-34.6014 -17.1079 2.66298 64237.1
4.77273 4.34579 1.08454 58948.8
5.48665 -14.0865 3.6062 61438.8
6.77381 -17.1539 3.23929 62873.4
-28.1552 10.7466 1.26585 66360.3
-21.5865 13.5243 0.482833 63800.3
-21.7708 14.0594 0.217984 63892.8
-25.3374 17.1721 -1.60295 58089.7
2.63276 -19.9019 3.84129 66218
2.72791 -21.2935 3.66948 68106.1
6.73919 -24.5265 2.37623 63673.4
17.8673 -27.6981 -4.18941 32946.5
20.1164 -20.4119 -2.24288 46863.4
13.8359 -26.6275 -1.25929 40523.1
0.80272 20.6788 -4.45085 49918.5
1.5028 22.9691 -5.81335 57894.2
0.534677 24.3936 -6.29685 56062.2
-19.6117 -36.1492 2.38477 65745.7
-19.7247 -34.5287 2.57212 65640.2
-28.2799 -32.0589 2.51142 62036.4
-20.5703 -37.3761 2.28461 60624
-11.6236 -22.5739 4.48851 59317.2
-9.77619 -32.2082 2.627 67309.1
-15.1366 -33.8209 2.59795 66309.3
-13.1616 -37.43 1.77233 67751.6
-8.26509 -39.5812 0.499881 64483.7
-6.5766 -36.551 1.15944 63248
-1.2313 4.08032 2.09126 63575.7
-7.48839 -0.882529 4.03568 62025.1
15.4434 12.5966 -4.57376 47143.2
16.9522 15.1663 -6.37016 47916.6
10.5924 17.2281 -5.15553 51755.7
11.9162 12.8696 -3.48375 53072.8
-6.06648 -8.76287 5.05337 66207.5
-3.61653 -6.05444 4.38978 59148.1
-4.52221 -3.4524 4.11024 59762.7
-6.17049 -2.69764 4.2071 62857.5
-0.930423 -12.0381 4.57555 65147.3
-4.10608 -16.114 4.89211 59955.1
-2.11701 -14.8131 4.75818 65390.5
18.5261 -15.419 -0.382929 52169.1
19.8386 -13.8661 -0.8024 55252.5
18.9051 -7.46622 -0.601297 61140.1
16.3819 -6.20644 0.161437 63349.6
-45.0831 -12.6048 -1.46563 61053.3
-40.5132 -15.1392 0.660684 65148.6
-37.8803 -13.1377 1.7385 57369.5
-39.5029 -9.345 1.16119 58563
-26.5836 20.978 -3.6516 52930.8
-25.3724 19.8712 -2.96583 60036.7
-19.3985 20.1188 -2.56291 59214.3
-26.9705 22.3964 -4.38242 58466.8
-6.69257 -43.5086 -1.28565 63247.7
-0.661775 -39.2308 -0.773462 66671.6
-1.66328 -35.768 0.776945 66965.6
-8.3087 -42.1207 -0.368876 63334.1
5.35545 -35.6034 -1.08833 60954.2
-0.446158 -33.8649 1.24367 66519.9
-0.573342 -24.5153 3.62464 63582.7
-2.3859 -23.9346 3.91687 65780.4
-5.66253 -27.9579 3.46341 66410.9
-0.709089 -31.6464 2.00747 64637.2
1.59653 -28.8667 2.39291 63652.9
-8.8069 -27.9232 3.58206 65907.8
-9.88227 -30.3907 3.07341 66245.4
22.2653 -8.31316 -1.9012 48623.5
23.0801 -6.07445 -2.43932 44971.3
20.2364 -0.822982 -2.10418 47294.7
16.9862 -0.280835 -1.00458 59273.1
15.7384 -1.09484 -0.425685 54100.1
15.354 5.60741 -1.83049 53226.9
14.0789 5.54084 -1.38566 60525.5
-36.4834 -7.31459 2.4433 65804
-1.11087 -1.00331 3.14771 63109.3
1.10054 1.29343 2.358 61007
20.9814 8.2581 -4.83137 50270.8
19.4379 6.26406 -3.5478 52444.3
21.3856 1.39641 -3.01414 41998
23.4253 1.68519 -3.88747 46758.7
25.3706 2.20366 -4.79457 46949.6
4.06339 17.2796 -3.4568 48874
7.89924 19.4425 -5.54301 55273.7
-34.4553 -6.4577 3.17543 60416.6
-18.9319 -33.1955 2.72865 59374.1
-19.8771 -29.1166 3.2838 64041.6
24.5503 -5.83806 -3.09313 50188.7
25.5938 -5.73265 -3.5526 51638.6
0.241641 -17.1728 4.37453 67562.7
3.89587 -13.0301 3.87843 65950.2
1.4123 -9.71845 4.03309 51255.2
0.810257 -9.77326 4.13463 49952
-8.47862 25.8449 -5.13681 56585.1
-25.8752 6.4214 3.02842 62653.5
-27.1602 7.45586 2.55869 63288.2
-16.6517 -27.7885 3.65689 63841.3
-5.20225 -19.6841 4.66234 66799.4
-16.686 9.72758 1.9956 59520.2
10.7767 11.3349 -2.45709 51628.9
17.5961 7.2559 -3.1764 51167.8
1.65359 1.2615 2.27898 58897.7
-31.8959 -12.3385 3.59986 66008.4
-35.2315 -13.9679 2.59673 63155.6
-45.6945 6.01225 -3.8659 55579
-0.579136 -7.58591 4.10798 63644.1
20.4144 -19.5689 -2.13053 51543
-41.121 -16.5171 0.298907 62648.8
10.4257 -33.9252 -2.64481 54798.2
-15.0817 -43.3922 0.472528 64377.5
-14.4807 -39.5378 1.41656 67421.4
-22.2011 8.47209 2.57223 65184.5
-20.0273 11.1912 1.51824 57807.1
22.8493 -11.5296 -2.1571 51138
-40.3285 13.0663 -3.61118 49380
-49.0528 -1.82346 -4.41108 56197.1
-46.3477 6.48543 -4.49141 52196.7
-10.6123 -22.7507 4.46285 63719.7
-43.7935 -17.66 -1.10025 56532.5
-44.6034 13.4088 -6.41787 44592.7
-39.846 19.2396 -7.31451 50406.2
25.6156 -14.3452 -3.90412 53512.2
-33.6506 19.4634 -4.72196 54471.4
-33.9626 22.3657 -6.60107 58672.3
-29.3674 23.7789 -5.62098 54552.4
6 197 22 21 145 144 193 1123
4 97 96 151 226 1196
5 193 194 195 196 197 1124
6 188 189 161 160 190 187 1120
4 187 79 78 188 1274
6 50 179 180 181 182 51 1303
6 71 52 51 182 207 65 1279
7 162 73 72 116 28 27 163 1127
6 25 148 107 106 145 21 1052
6 205 206 8 7 204 203 1131
6 191 192 189 188 78 77 1293
8 196 195 198 199 157 161 189 192 1326
6 138 143 144 145 106 105 1048
6 83 82 105 106 107 108 1054
6 192 191 23 22 197 196 1112
5 146 147 108 107 148 1280
6 116 72 11 16 19 115 1102
6 57 118 117 154 33 32 1130
5 210 211 212 213 214 1059
7 32 33 34 35 36 37 38 1354
6 152 153 34 33 154 155 1164
6 49 50 51 52 53 54 1263
5 143 138 137 223 222 1137
5 171 163 27 26 44 1049
8 144 143 222 174 173 230 194 193 1348
5 37 36 122 112 111 1089
6 164 167 232 206 205 233 1322
5 34 153 218 219 35 1064
6 122 36 35 219 229 120 1167
6 105 82 81 100 137 138 1051
6 111 114 135 55 38 37 1087
5 120 121 113 112 122 1139
6 84 175 176 177 178 85 1185
3 117 118 119 1134
6 59 58 101 113 121 156 1170
7 111 112 113 101 90 89 114 1135
6 20 93 92 109 110 17 1063
7 90 101 58 61 62 64 86 1232
7 80 6 5 98 99 100 81 1055
5 86 87 88 89 90 1217
6 80 81 82 83 84 85 1140
6 119 118 57 56 240 251 1342
4 76 77 78 79 1083
4 61 46 45 62 1315
6 58 59 60 47 46 61 1202
7 44 26 31 45 46 47 48 1136
7 172 168 48 47 60 173 174 1244
6 44 48 168 169 170 171 1067
7 62 45 31 30 40 63 64 1138
6 163 171 170 208 209 162 1177
5 32 38 55 56 57 1143
7 39 40 30 29 41 42 43 1246
6 26 27 28 29 30 31 1100
5 21 22 23 24 25 1141
6 17 18 19 16 15 20 1271
6 12 11 72 73 74 75 1142
5 115 41 29 28 116 1252
6 11 12 13 14 15 16 1273
6 75 102 103 104 13 12 1181
6 115 19 18 231 42 41 1256
7 240 56 55 135 236 181 180 1343
7 95 94 14 13 104 215 149 1082
6 174 222 223 224 225 172 1318
4 150 149 215 216 1313
7 216 215 104 103 232 167 166 1184
5 233 211 210 165 164 1150
6 85 178 204 7 6 80 1157
6 135 114 89 88 235 236 1149
5 223 137 100 99 224 1350
6 65 207 217 130 129 66 1321
6 87 131 130 217 235 88 1171
6 217 207 182 181 236 235 1065
5 93 20 15 14 94 1276
6 131 87 86 64 63 132 1332
6 108 147 239 175 84 83 1213
5 149 150 151 96 95 1153
7 91 92 93 94 95 96 97 1090
7 178 177 200 201 202 203 204 1072
6 129 130 131 132 133 134 1344
5 133 132 63 40 39 1334
6 203 202 212 211 233 205 1180
6 39 43 244 227 134 133 1079
5 244 43 42 231 245 1155
7 245 231 18 17 110 141 140 1204
4 176 246 200 177 1161
5 148 25 24 241 146 1278
7 65 66 67 68 69 70 71 1265
5 213 212 202 201 220 1114
4 220 221 214 213 1061
6 185 109 92 91 2 1 1211
5 97 226 3 2 91 1218
6 156 250 230 173 60 59 1242
5 248 54 53 237 249 1084
5 252 247 124 123 253 1085
5 172 225 238 169 168 1098
6 162 209 234 136 74 73 1207
6 228 139 126 125 68 67 1281
6 227 228 67 66 129 134 1323
6 249 237 70 69 247 252 1224
5 123 128 255 256 253 1198
4 238 208 170 169 1205
8 225 224 99 98 234 209 208 238 1282
6 245 140 139 228 227 244 1345
3 49 54 248 1092
6 77 76 241 24 23 191 1086
6 229 219 218 158 157 199 1096
7 229 199 198 250 156 121 120 1240
6 142 141 110 109 185 184 1118
6 9 102 75 74 136 10 1214
5 239 254 246 176 175 1287
5 53 52 71 70 237 1223
6 254 221 220 201 200 246 1225
5 125 124 247 69 68 1241
6 123 124 125 126 127 128 1266
5 183 186 257 256 255 1243
4 155 242 243 152 1307
6 218 153 152 243 159 158 1238
6 127 142 184 183 255 128 1283
4 257 186 0 4 1104
6 126 139 140 141 142 127 1305
5 98 5 10 136 234 1284
6 9 8 206 232 103 102 1286
4 164 165 166 167 1254
5 190 160 159 243 242 1341
5 157 158 159 160 161 1309
5 250 198 195 194 230 1310
4 240 180 179 251 1111
6 183 184 185 1 0 186 1306
6 5 6 7 8 9 10 1117
5 0 1 2 3 4 1325
