ply
format ascii 1.0
comment Exported from MorphoGraphX 2.0 1-254
comment Cellular mesh
element vertex 260
property float x
property float y
property float z
property float signal
element face 130
property list int int vertex_index
property int label
end_header
-2.30895 -7.61824 7.91455 63366.8
2.61561 -6.36715 7.41562 71984.9
2.50645 -3.97897 7.66476 63948.1
-0.3884 -1.90081 8.19124 46338
-3.84839 -3.33285 8.43242 55093.2
-12.9935 -22.707 4.35876 71357.5
-10.2384 -25.1279 3.52728 70515
-6.7305 -25.593 3.34736 71171.3
-5.51938 -22.6709 4.49573 70794.3
-5.47477 -21.1381 5.04762 71143.6
-10.579 -19.1339 5.76815 70642.6
34.0387 12.4368 -8.31312 71426
32.5942 9.04461 -6.21093 69792
35.4297 6.06849 -7.96559 70153.8
17.1868 16.5392 1.98213 72349.1
19.0784 16.4897 1.10052 71719.7
21.3681 19.8707 -1.46872 71363.6
18.5373 22.3337 -1.14326 70702.7
14.9619 18.1464 2.32077 71053.6
27.3521 4.96956 -1.8743 68282.6
23.6626 9.63779 0.0613317 70796.5
21.9431 8.43294 1.21642 71227.6
24.3929 1.34249 0.0655899 68260.9
27.5465 2.82802 -1.94943 67808.8
22.64 20.3428 -2.48631 71255.6
23.3349 21.9893 -3.83712 70756.3
16.6596 24.8869 -1.79334 70861.1
18.8559 -3.32843 2.67473 69855.6
21.0466 -7.68803 0.891929 71492.7
24.2437 -7.47047 -0.917019 71393.8
25.5937 -6.1788 -1.50942 72392.5
25.1472 -3.35307 -0.80895 71492.7
23.2035 0.0602074 0.692351 70812.4
22.304 0.0837216 1.20612 71314.8
16.8395 -10.012 2.53148 71492.7
18.9925 -10.1127 1.47542 71492.7
17.2717 -2.47741 3.49717 71225.4
33.0761 -14.323 -9.02303 65035.8
29.6057 -19.0619 -8.37085 69625.4
30.9615 -21.1412 -10.5081 68376.6
32.9926 -20.8143 -12.0469 70844.9
34.0645 -19.5002 -12.2586 69709.3
14.8201 -10.7162 3.24968 71990.8
12.5714 -5.13487 5.05715 71387.9
10.1745 -5.90937 5.74346 71068.9
8.04118 -8.11592 6.01163 71429.1
7.12797 -10.0341 5.92473 70311.9
9.9833 -12.4772 4.61323 64873
12.6545 -12.7603 3.63038 68756.3
35.7576 -10.2329 -9.61238 50159.2
35.4602 -10.8928 -9.6036 53920.1
35.4661 -10.9335 -9.62197 55501.6
33.5724 -10.9262 -8.18286 61931.9
3.77826 25.6835 1.34226 70815.7
7.01653 26.3143 0.352055 70891.6
6.03476 30.4599 -2.72801 70377
1.85593 29.3814 -1.02266 68470.7
6.40556 -9.93026 6.12397 71177.2
3.8619 -15.4888 5.48481 71490.9
5.11232 -16.1375 5.03811 71492.2
7.66463 -16.6425 4.25275 71491.9
4.36399 -36.4689 -4.17804 60765.7
6.16562 -38.1829 -5.85164 69104.8
10.3872 -34.4785 -4.94678 71309.9
8.84299 -33.7892 -3.90674 71399.1
6.00969 -33.8749 -2.98831 69080.7
15.4647 -18.2375 0.875651 71719.7
16.3691 -18.4618 0.369777 71479.7
20.0105 -12.4411 0.389541 72702.8
-11.3014 -9.60472 7.95274 66804.7
-13.4834 -10.0432 7.78479 70976.2
-16.0587 -13.1277 6.96371 63551.1
-14.4009 -16.0927 6.41408 69663.2
-11.0902 -17.0561 6.36927 71627.7
-8.80582 -15.0228 6.9256 71449.1
7.79293 -19.2909 3.38717 71629.9
1.04193 -20.2046 4.6465 71442.2
2.31466 -22.152 3.73513 71808.5
5.26569 -22.5276 2.91727 70905.3
13.6729 24.7459 -0.45592 70688.9
11.244 26.828 -1.05486 70510
2.84689 24.3812 2.27823 70256.5
5.32493 21.8459 3.27674 71490.5
12.5191 21.5609 1.74609 71556.9
13.1428 -20.9951 0.865435 71449.3
-5.72256 -27.683 2.34427 69712.6
-0.489234 -28.3611 1.50556 70061.8
0.418487 -26.5745 2.21244 69849.3
0.579095 -25.0286 2.87612 71464.8
12.4554 19.2933 2.75304 72105.8
-1.19768 -18.2931 5.57845 72270.4
32.4657 -0.603257 -5.48206 60710.6
33.0697 -0.901706 -5.93706 49962.5
36.3702 3.00665 -8.37493 59829.5
31.1671 8.67104 -5.01867 66527.7
30.6636 7.0633 -4.40642 62979.8
-7.71356 -35.0335 -1.75243 47470.1
-4.97487 -34.52 -1.4901 62568.7
-2.6239 -33.4871 -1.03306 59008.9
-1.85622 -32.2757 -0.404984 66273.2
-7.8265 -29.9549 1.22587 65606.5
-9.37104 -31.6952 0.235635 50451.4
-1.23106 -17.9821 5.67225 71128.6
0.586827 -14.8057 6.25182 71469.2
0.137687 -12.4888 6.83206 71282.6
-3.09763 -10.7601 7.52745 72087.5
-3.93553 -11.0451 7.5507 69783.2
-6.57543 -14.0996 7.09585 71394.3
6.14157 20.461 3.77771 71489.1
9.4119 17.636 4.19771 71462
36.9021 -6.36732 -9.43593 60955.7
29.8534 11.0094 -4.44599 71490.4
27.1431 13.6563 -3.04812 72195.8
24.0982 11.4133 -0.496319 71540.1
6.11295 -31.1218 -1.42215 64989.6
3.36363 -30.998 -0.616192 67349.9
-0.277519 -35.1562 -2.36641 62951.2
2.1694 -37.2738 -4.19122 64284.6
-20.3424 -11.4682 6.69505 70416.6
-19.6127 -13.0014 6.48777 68853.9
-15.4546 -7.5229 7.99885 69880.4
-17.049 -6.45324 7.96799 71205.6
-0.783537 1.36347 8.2784 59045.7
6.62226 3.00536 7.11449 71492.5
5.50032 5.93168 7.21827 71442.8
2.36987 7.78825 7.54573 69466.4
-1.52549 4.46532 8.24247 60584.8
31.7258 -1.4391 -5.00595 70106.2
30.5919 -1.41329 -4.20392 69904.6
28.1741 -5.61726 -3.08237 71418.4
31.2678 -9.79004 -6.15385 64878.3
32.6772 -9.72966 -7.1629 70182.1
19.5142 7.76025 2.55962 64344.9
18.4988 5.94782 3.16102 70123.7
28.3845 -13.1891 -5.11011 71787.5
26.8306 -15.8063 -4.93984 65500.6
28.1104 -18.6709 -7.049 69581.9
8.25573 8.45724 6.43728 71205.8
11.9577 8.72451 5.4186 70015
12.1335 11.3472 5.02359 70822.6
9.2205 15.3757 4.92662 71487.6
4.44426 13.2104 6.38604 70902.5
-9.59771 -8.5 8.13544 58919
-9.61083 -5.30971 8.48876 59546
-11.7452 -3.69047 8.57181 63729.9
8.24438 1.0468 6.74173 68550.3
10.057 1.20095 6.27634 71473.7
14.1615 3.61831 4.98312 66330.1
14.2395 4.48612 4.94168 67239.4
6.8616 -26.12 0.947601 70106.8
6.52827 -24.7115 1.68696 70905.8
26.7888 -6.17953 -2.2687 71461.4
3.28747 -3.89778 7.54092 72042.2
6.50949 -1.5574 7.0667 71256.7
0.359276 -30.0239 0.517111 67891.4
13.0692 -24.7365 -0.707885 72239.4
12.7776 -22.7837 0.282944 72122.2
8.11162 -27.8077 -0.273368 70590.8
11.4191 -27.2891 -1.24516 69398.8
25.0785 -15.5688 -3.66298 71062.6
13.3338 -3.89727 4.93219 71489
16.0705 -1.15867 4.11966 71262.1
26.366 17.4269 -3.77126 71493
27.9957 22.2958 -7.72282 70565.9
3.59424 -9.04897 6.87398 67901.3
15.632 11.9494 3.70754 72092.9
28.8073 -28.1951 -12.8737 68095
27.3478 -27.6305 -11.2789 70154
26.2289 -27.7466 -10.4415 68242.3
24.0076 -30.729 -10.597 68237
24.8717 -34.2561 -13.7209 67247.9
-5.30328 5.76935 8.40074 66380.5
-6.02207 7.80026 8.2183 67539.1
-7.25004 9.18783 8.06872 69708.1
-10.9152 4.94766 8.55425 71099.7
-8.60936 2.5944 8.68742 71307.1
-0.336334 -39.4034 -5.21817 48130.4
6.86491 -40.0499 -7.40638 67422.6
12.364 -29.3037 -2.71335 71017.8
1.60628 17.9364 5.40243 69154.8
2.16066 16.4766 5.82309 71216
4.1475 13.2699 6.41434 68449.2
29.8506 -27.284 -13.189 61987.9
-2.56108 -39.6486 -5.12067 46670.5
12.9282 -35.4627 -6.73408 68999.3
12.4319 -37.6353 -7.96979 64973.9
18.3704 -38.2307 -11.8088 50753.3
19.7902 -35.6879 -10.919 60589.5
19.6545 -33.4708 -9.29204 67861.5
18.7311 -32.8395 -8.27224 64974.1
-10.0312 20.5693 4.99837 59767.5
-8.12956 18.6882 5.69198 70227.7
-7.04988 18.6888 5.66608 68523.9
-3.09462 24.3052 2.89652 66072
-4.53208 25.144 2.53397 61713.4
-8.64734 23.6434 3.56194 52890.9
-15.669 -27.8685 1.73653 60286.7
-15.6764 -24.2454 3.42393 68324.3
-17.9322 -23.259 3.49871 70570.2
-21.8608 -25.7353 1.58459 69352.4
-19.2048 -28.7817 0.65022 62554.2
16.7654 -24.7076 -2.47419 71663.4
19.7817 -23.1285 -3.41435 71258.1
19.4614 -19.8655 -1.80658 71608.5
2.13619 9.73358 7.33134 66423.9
-9.12992 -38.6883 -4.26451 60223.9
27.003 -20.4434 -7.04032 71428.6
28.0717 15.7731 -4.4209 71493.9
30.6645 17.9213 -7.53907 70664.6
-12.7602 -31.6979 0.0100851 64408.9
-13.9684 -33.2105 -1.02121 64072.7
18.7411 -31.1044 -7.17748 67893.1
15.7759 -30.0341 -4.79731 63649
14.3357 -30.5834 -4.37055 64479.7
12.7794 -34.1382 -5.79498 71001.1
9.39865 -41.3306 -9.27392 56185.2
-18.9078 13.2183 6.99675 67792.2
-19.4764 13.1512 6.96808 69703.9
-22.3303 5.68874 7.65413 56126.1
-19.2122 6.11613 7.98737 57505.2
-16.4136 9.67802 7.80583 55268.2
22.6445 -17.8599 -2.92936 71006.1
23.2379 -16.5164 -2.80855 71160.6
-21.7392 -0.70574 7.77618 70199.7
-18.1788 -3.03054 8.14291 67242.6
-13.9707 -0.775543 8.60625 63622.5
-15.3742 1.82188 8.53486 70203
-17.8977 3.35499 8.28428 68176
28.658 1.77056 -2.71585 66541.6
-15.2406 20.6034 4.95153 70493.3
-13.1894 18.4006 5.81273 60072.8
31.7221 17.2705 -8.17768 70713.5
24.0574 -25.9344 -7.7028 70667.2
22.1185 -26.1766 -6.47507 69109.8
-23.7198 -0.54979 7.45719 70527.8
-13.2846 16.7201 6.3544 63531.8
-23.7146 -8.07461 6.66158 62866.5
-18.6385 -4.56736 7.96889 68978.7
25.5341 -22.209 -6.80847 70901.8
-13.9936 9.76 7.91611 68232.6
-10.7636 11.6793 7.6641 64720.2
-11.9488 14.3627 7.03413 69990.1
-23.9414 -9.26695 6.40682 62858.4
-22.9209 -16.3977 4.92675 68464.9
-20.8536 -14.4487 5.91803 67360
-11.6953 5.37892 8.50635 71328.2
-5.57267 -2.79473 8.56167 56987
-8.77876 1.78153 8.71192 67099.6
-11.875 -1.60815 8.672 60273.1
-13.8379 -29.2598 1.24852 66341.8
-8.44291 11.3992 7.71295 70216.2
-5.67259 14.313 6.98419 66590.6
-5.61597 17.6564 5.97178 59682.2
-16.9754 -18.5548 5.38899 69271.9
-22.7417 -20.4584 3.60119 66555.4
-19.1742 -21.3715 4.02811 68167.2
-1.43947 11.6921 7.32913 71469.6
-3.11277 13.061 7.15133 71413.2
-0.982358 20.028 4.80534 61495.6
-1.41698 23.4586 3.22802 60219.9
4 53 54 55 56 2837
7 161 36 27 33 133 148 147 2818
7 165 132 21 20 113 15 14 2720
6 148 133 132 165 139 138 2689
4 147 146 160 161 2840
8 38 37 52 131 130 134 135 136 2880
7 2 152 153 145 123 122 3 2685
4 130 129 151 134 2882
6 70 69 142 143 144 120 2821
7 87 86 154 115 114 157 149 2781
5 122 123 124 125 126 2874
8 138 137 124 123 145 146 147 148 2823
6 160 43 42 34 36 161 2814
5 127 128 129 130 131 2671
6 75 60 59 76 77 78 2604
5 78 150 156 84 75 2786
6 141 181 204 125 124 137 2875
6 69 70 71 72 73 74 2834
4 97 96 205 183 2809
9 49 110 92 91 127 131 52 51 50 2605
4 170 169 188 187 2711
7 166 182 39 38 136 206 167 2600
5 166 167 168 169 170 2598
6 183 176 117 116 98 97 2692
7 207 162 24 16 15 113 112 2832
7 14 18 89 109 140 139 165 2660
5 116 115 154 99 98 2695
5 137 138 139 140 141 2694
5 100 99 154 86 85 2656
6 184 185 186 187 188 189 2668
5 61 117 176 177 62 2601
3 40 39 182 2751
4 25 24 162 163 2754
6 149 150 78 77 88 87 2696
5 14 15 16 17 18 2609
6 114 65 64 178 158 157 2602
5 61 62 63 64 65 2616
6 61 65 114 115 116 117 2680
3 110 93 92 2717
5 37 38 39 40 41 2704
5 82 108 109 89 83 2677
7 91 92 93 13 12 94 95 2860
6 83 89 18 17 26 79 2662
6 155 156 150 149 157 158 2703
6 85 86 87 88 8 7 2640
8 155 201 202 203 67 66 84 156 2618
6 75 84 66 48 47 60 2800
7 79 80 54 53 81 82 83 2861
7 48 66 67 68 35 34 42 2707
6 57 58 59 60 47 46 2870
6 41 49 50 51 52 37 2710
7 42 43 44 45 46 47 48 2805
5 34 35 28 27 36 2831
7 27 28 29 30 31 32 33 2735
5 17 16 24 25 26 2731
6 22 21 132 133 33 32 2753
5 19 20 21 22 23 2737
3 11 12 13 2863
7 19 95 94 111 112 113 20 2739
4 162 207 208 163 2715
5 205 96 101 209 210 2771
6 146 145 153 44 43 160 2876
6 189 211 212 213 214 184 2788
7 63 62 177 215 185 184 214 2631
5 214 213 178 64 63 2757
6 155 158 178 213 212 201 2760
5 57 164 104 103 58 2822
5 203 221 222 68 67 2763
6 96 97 98 99 100 101 2733
6 28 35 68 222 159 29 2766
5 32 31 228 23 22 2769
5 112 111 231 208 207 2773
7 168 232 233 211 189 188 169 2681
5 196 197 198 199 200 2659
5 223 227 219 218 234 2756
5 235 230 229 217 216 2761
5 236 237 224 223 234 2770
5 216 217 218 219 220 2758
6 216 220 239 240 241 235 2782
4 195 229 230 190 2642
5 212 211 233 202 201 2826
5 119 118 242 243 244 2778
5 223 224 225 226 227 2639
7 19 23 228 128 127 91 95 2646
6 227 226 245 239 220 219 2792
5 191 190 230 235 241 2784
5 247 248 144 143 246 2824
6 77 76 90 9 8 88 2789
5 206 238 232 168 167 2643
7 249 209 101 100 85 7 6 2879
6 59 58 103 102 90 76 2787
5 236 242 118 121 237 2779
7 143 142 106 105 0 4 246 2665
6 173 250 240 239 245 174 2649
7 241 240 250 251 252 192 191 2793
6 190 191 192 193 194 195 2795
3 186 185 215 2667
5 253 244 243 254 255 2647
6 118 119 71 70 120 121 2807
7 225 224 237 121 120 144 248 2791
6 202 233 232 238 221 203 2655
7 248 247 175 174 245 226 225 2648
6 29 159 135 134 151 30 2830
6 228 31 30 151 129 128 2799
6 102 103 104 105 106 107 2872
5 0 105 104 164 1 2881
5 111 94 12 11 231 2883
4 199 198 255 254 2820
5 244 253 72 71 119 2653
5 171 172 173 174 175 2654
6 250 173 172 256 257 251 2825
5 258 259 193 192 252 2828
7 46 45 152 2 1 164 57 2815
6 56 194 193 259 81 53 2813
4 44 153 152 45 2676
8 10 73 72 253 255 198 197 5 2833
8 246 4 3 122 126 171 175 247 2666
6 252 251 257 180 179 258 2836
6 108 82 81 259 258 179 2849
7 238 206 136 135 159 222 221 2670
5 74 107 106 142 69 2846
6 256 172 171 126 125 204 2848
5 204 181 180 257 256 2835
5 210 209 249 196 200 2853
5 249 6 5 197 196 2669
7 73 10 9 90 102 107 74 2871
7 179 180 181 141 140 109 108 2859
3 55 54 80 2862
6 5 6 7 8 9 10 2854
5 0 1 2 3 4 2682
