ply
format ascii 1.0
comment Exported from MorphoGraphX 2.0.1-254
comment Cell Graph: each vertex is a cell, each edge a wall
element vertex 130
property int label
property float x
property float y
property float z
element edge 348
property uint source
property uint target
end_header
2598 0 0 0 
2600 0 0 0 
2601 0 0 0 
2602 0 0 0 
2604 0 0 0 
2605 0 0 0 
2609 0 0 0 
2616 0 0 0 
2618 0 0 0 
2631 0 0 0 
2639 0 0 0 
2640 0 0 0 
2642 0 0 0 
2643 0 0 0 
2646 0 0 0 
2647 0 0 0 
2648 0 0 0 
2649 0 0 0 
2653 0 0 0 
2654 0 0 0 
2655 0 0 0 
2656 0 0 0 
2659 0 0 0 
2660 0 0 0 
2662 0 0 0 
2665 0 0 0 
2666 0 0 0 
2667 0 0 0 
2668 0 0 0 
2669 0 0 0 
2670 0 0 0 
2671 0 0 0 
2676 0 0 0 
2677 0 0 0 
2680 0 0 0 
2681 0 0 0 
2682 0 0 0 
2685 0 0 0 
2689 0 0 0 
2692 0 0 0 
2694 0 0 0 
2695 0 0 0 
2696 0 0 0 
2703 0 0 0 
2704 0 0 0 
2707 0 0 0 
2710 0 0 0 
2711 0 0 0 
2715 0 0 0 
2717 0 0 0 
2720 0 0 0 
2731 0 0 0 
2733 0 0 0 
2735 0 0 0 
2737 0 0 0 
2739 0 0 0 
2751 0 0 0 
2753 0 0 0 
2754 0 0 0 
2756 0 0 0 
2757 0 0 0 
2758 0 0 0 
2760 0 0 0 
2761 0 0 0 
2763 0 0 0 
2766 0 0 0 
2769 0 0 0 
2770 0 0 0 
2771 0 0 0 
2773 0 0 0 
2778 0 0 0 
2779 0 0 0 
2781 0 0 0 
2782 0 0 0 
2784 0 0 0 
2786 0 0 0 
2787 0 0 0 
2788 0 0 0 
2789 0 0 0 
2791 0 0 0 
2792 0 0 0 
2793 0 0 0 
2795 0 0 0 
2799 0 0 0 
2800 0 0 0 
2805 0 0 0 
2807 0 0 0 
2809 0 0 0 
2813 0 0 0 
2814 0 0 0 
2815 0 0 0 
2818 0 0 0 
2820 0 0 0 
2821 0 0 0 
2822 0 0 0 
2823 0 0 0 
2824 0 0 0 
2825 0 0 0 
2826 0 0 0 
2828 0 0 0 
2830 0 0 0 
2831 0 0 0 
2832 0 0 0 
2833 0 0 0 
2834 0 0 0 
2835 0 0 0 
2836 0 0 0 
2837 0 0 0 
2840 0 0 0 
2846 0 0 0 
2848 0 0 0 
2849 0 0 0 
2853 0 0 0 
2854 0 0 0 
2859 0 0 0 
2860 0 0 0 
2861 0 0 0 
2862 0 0 0 
2863 0 0 0 
2870 0 0 0 
2871 0 0 0 
2872 0 0 0 
2874 0 0 0 
2875 0 0 0 
2876 0 0 0 
2879 0 0 0 
2880 0 0 0 
2881 0 0 0 
2882 0 0 0 
2883 0 0 0 
2598 2600
2598 2643
2598 2681
2598 2711
2600 2643
2600 2670
2600 2704
2600 2751
2600 2880
2601 2616
2601 2631
2601 2680
2601 2692
2602 2616
2602 2680
2602 2703
2602 2757
2602 2760
2602 2781
2604 2696
2604 2786
2604 2787
2604 2789
2604 2800
2604 2870
2605 2646
2605 2671
2605 2710
2605 2717
2605 2860
2605 2880
2609 2660
2609 2662
2609 2720
2609 2731
2609 2832
2616 2631
2616 2680
2616 2757
2618 2655
2618 2703
2618 2707
2618 2760
2618 2763
2618 2786
2618 2800
2618 2826
2631 2667
2631 2668
2631 2757
2631 2788
2639 2648
2639 2756
2639 2770
2639 2791
2639 2792
2640 2656
2640 2696
2640 2781
2640 2789
2640 2854
2640 2879
2642 2761
2642 2784
2642 2795
2643 2655
2643 2670
2643 2681
2646 2671
2646 2737
2646 2739
2646 2769
2646 2799
2646 2860
2647 2653
2647 2778
2647 2820
2647 2833
2648 2649
2648 2654
2648 2666
2648 2791
2648 2792
2648 2824
2649 2654
2649 2782
2649 2792
2649 2793
2649 2825
2653 2778
2653 2807
2653 2833
2653 2834
2654 2666
2654 2825
2654 2848
2655 2670
2655 2681
2655 2763
2655 2826
2656 2695
2656 2733
2656 2781
2656 2879
2659 2669
2659 2820
2659 2833
2659 2853
2660 2662
2660 2677
2660 2689
2660 2694
2660 2720
2660 2859
2662 2677
2662 2731
2662 2861
2665 2666
2665 2682
2665 2821
2665 2824
2665 2846
2665 2872
2665 2881
2666 2682
2666 2685
2666 2824
2666 2848
2666 2874
2667 2668
2668 2681
2668 2711
2668 2788
2669 2833
2669 2853
2669 2854
2669 2879
2670 2763
2670 2766
2670 2830
2670 2880
2671 2799
2671 2880
2671 2882
2676 2685
2676 2805
2676 2815
2676 2876
2677 2849
2677 2859
2677 2861
2680 2692
2680 2695
2680 2781
2681 2711
2681 2788
2681 2826
2682 2685
2682 2815
2682 2881
2685 2815
2685 2823
2685 2874
2685 2876
2689 2694
2689 2720
2689 2753
2689 2818
2689 2823
2692 2695
2692 2733
2692 2809
2694 2823
2694 2859
2694 2875
2695 2733
2695 2781
2696 2703
2696 2781
2696 2786
2696 2789
2703 2760
2703 2781
2703 2786
2704 2710
2704 2751
2704 2880
2707 2763
2707 2766
2707 2800
2707 2805
2707 2814
2707 2831
2710 2880
2715 2754
2715 2773
2715 2832
2717 2860
2720 2737
2720 2739
2720 2753
2720 2832
2731 2754
2731 2832
2733 2771
2733 2809
2733 2879
2735 2753
2735 2766
2735 2769
2735 2799
2735 2818
2735 2830
2735 2831
2737 2739
2737 2753
2737 2769
2739 2773
2739 2832
2739 2860
2739 2883
2753 2769
2753 2818
2754 2832
2756 2758
2756 2770
2756 2792
2757 2760
2757 2788
2758 2761
2758 2782
2758 2792
2760 2788
2760 2826
2761 2782
2761 2784
2763 2766
2766 2830
2766 2831
2769 2799
2770 2779
2770 2791
2771 2809
2771 2853
2771 2879
2773 2832
2773 2883
2778 2779
2778 2807
2779 2791
2779 2807
2782 2784
2782 2792
2782 2793
2784 2793
2784 2795
2786 2800
2787 2789
2787 2822
2787 2870
2787 2871
2787 2872
2788 2826
2789 2854
2789 2871
2791 2807
2791 2821
2791 2824
2793 2795
2793 2825
2793 2828
2793 2836
2795 2813
2795 2828
2799 2830
2799 2882
2800 2805
2800 2870
2805 2814
2805 2815
2805 2870
2805 2876
2807 2821
2807 2834
2813 2828
2813 2837
2813 2849
2813 2861
2814 2818
2814 2831
2814 2840
2814 2876
2815 2822
2815 2870
2815 2881
2818 2823
2818 2831
2818 2840
2820 2833
2821 2824
2821 2834
2821 2846
2822 2870
2822 2872
2822 2881
2823 2840
2823 2874
2823 2875
2823 2876
2825 2835
2825 2836
2825 2848
2828 2836
2828 2849
2830 2880
2830 2882
2833 2834
2833 2854
2833 2871
2834 2846
2834 2871
2835 2836
2835 2848
2835 2859
2835 2875
2836 2849
2836 2859
2837 2861
2837 2862
2840 2876
2846 2871
2846 2872
2848 2874
2848 2875
2849 2859
2849 2861
2853 2879
2854 2871
2854 2879
2859 2875
2860 2863
2860 2883
2861 2862
2863 2883
2871 2872
2872 2881
2874 2875
2880 2882
