ply
format ascii 1.0
comment Exported from MorphoGraphX 2.0.1-254
comment Cell Graph: each vertex is a cell, each edge a wall
element vertex 102
property int label
property float x
property float y
property float z
element edge 272
property uint source
property uint target
end_header
1359 0 0 0 
1361 0 0 0 
1364 0 0 0 
1369 0 0 0 
1373 0 0 0 
1375 0 0 0 
1378 0 0 0 
1379 0 0 0 
1381 0 0 0 
1383 0 0 0 
1384 0 0 0 
1391 0 0 0 
1392 0 0 0 
1395 0 0 0 
1397 0 0 0 
1401 0 0 0 
1403 0 0 0 
1408 0 0 0 
1409 0 0 0 
1417 0 0 0 
1418 0 0 0 
1419 0 0 0 
1420 0 0 0 
1427 0 0 0 
1430 0 0 0 
1438 0 0 0 
1440 0 0 0 
1441 0 0 0 
1442 0 0 0 
1443 0 0 0 
1444 0 0 0 
1445 0 0 0 
1446 0 0 0 
1447 0 0 0 
1453 0 0 0 
1456 0 0 0 
1459 0 0 0 
1460 0 0 0 
1461 0 0 0 
1462 0 0 0 
1469 0 0 0 
1472 0 0 0 
1479 0 0 0 
1480 0 0 0 
1481 0 0 0 
1482 0 0 0 
1483 0 0 0 
1488 0 0 0 
1492 0 0 0 
1493 0 0 0 
1494 0 0 0 
1496 0 0 0 
1497 0 0 0 
1503 0 0 0 
1506 0 0 0 
1507 0 0 0 
1508 0 0 0 
1510 0 0 0 
1518 0 0 0 
1522 0 0 0 
1523 0 0 0 
1524 0 0 0 
1525 0 0 0 
1526 0 0 0 
1527 0 0 0 
1528 0 0 0 
1529 0 0 0 
1530 0 0 0 
1531 0 0 0 
1532 0 0 0 
1535 0 0 0 
1537 0 0 0 
1538 0 0 0 
1539 0 0 0 
1541 0 0 0 
1547 0 0 0 
1549 0 0 0 
1551 0 0 0 
1553 0 0 0 
1557 0 0 0 
1559 0 0 0 
1563 0 0 0 
1565 0 0 0 
1573 0 0 0 
1575 0 0 0 
1576 0 0 0 
1577 0 0 0 
1589 0 0 0 
1591 0 0 0 
1594 0 0 0 
1595 0 0 0 
1596 0 0 0 
1598 0 0 0 
1600 0 0 0 
1601 0 0 0 
1614 0 0 0 
1615 0 0 0 
1618 0 0 0 
1621 0 0 0 
1623 0 0 0 
1624 0 0 0 
1626 0 0 0 
1359 1395
1359 1488
1359 1525
1359 1529
1359 1591
1359 1596
1361 1417
1361 1441
1361 1459
1361 1481
1361 1549
1361 1553
1361 1565
1364 1384
1364 1472
1364 1482
1364 1506
1364 1530
1364 1531
1364 1623
1369 1395
1369 1440
1369 1461
1369 1469
1369 1525
1369 1614
1373 1378
1373 1462
1373 1493
1373 1494
1375 1397
1375 1438
1375 1518
1375 1538
1375 1563
1375 1594
1378 1462
1378 1492
1378 1493
1378 1522
1378 1523
1379 1381
1379 1503
1379 1589
1379 1594
1381 1460
1381 1538
1381 1594
1383 1392
1383 1456
1383 1480
1383 1535
1383 1559
1384 1420
1384 1506
1384 1526
1384 1577
1384 1623
1391 1401
1391 1427
1391 1443
1391 1447
1391 1530
1391 1531
1391 1601
1392 1409
1392 1480
1392 1507
1392 1559
1395 1469
1395 1525
1395 1591
1397 1442
1397 1445
1397 1497
1397 1518
1397 1527
1397 1563
1397 1596
1401 1443
1401 1447
1401 1460
1401 1510
1401 1600
1403 1441
1403 1547
1403 1549
1403 1553
1408 1535
1408 1557
1408 1559
1408 1614
1408 1615
1409 1507
1409 1537
1409 1559
1409 1573
1409 1595
1417 1549
1417 1565
1418 1419
1418 1522
1418 1537
1418 1598
1418 1618
1418 1621
1419 1522
1419 1523
1419 1576
1419 1621
1420 1524
1420 1526
1420 1577
1427 1438
1427 1443
1427 1479
1427 1482
1427 1528
1427 1530
1430 1440
1430 1551
1430 1559
1430 1573
1430 1615
1438 1443
1438 1528
1438 1538
1438 1563
1440 1442
1440 1497
1440 1525
1440 1551
1440 1614
1440 1615
1441 1456
1441 1480
1441 1481
1441 1547
1441 1553
1442 1445
1442 1497
1442 1551
1442 1575
1443 1460
1443 1538
1444 1459
1444 1462
1444 1492
1444 1565
1445 1446
1445 1527
1445 1575
1445 1618
1445 1624
1446 1453
1446 1479
1446 1527
1446 1624
1447 1541
1447 1600
1447 1601
1447 1626
1453 1479
1453 1496
1453 1624
1456 1480
1456 1547
1459 1481
1459 1483
1459 1492
1459 1565
1460 1510
1460 1538
1461 1469
1461 1557
1461 1614
1462 1492
1472 1479
1472 1482
1472 1496
1472 1621
1472 1623
1479 1482
1479 1496
1479 1527
1479 1528
1480 1481
1480 1507
1481 1483
1481 1507
1482 1530
1483 1492
1483 1507
1483 1508
1488 1503
1488 1518
1488 1529
1488 1589
1488 1596
1492 1508
1492 1522
1493 1494
1493 1523
1493 1539
1494 1524
1494 1539
1496 1598
1496 1621
1496 1624
1497 1525
1497 1596
1503 1529
1503 1589
1506 1526
1506 1531
1506 1532
1506 1601
1507 1508
1507 1537
1508 1522
1508 1537
1510 1600
1518 1589
1518 1594
1518 1596
1522 1523
1522 1537
1523 1539
1523 1576
1524 1539
1524 1577
1525 1596
1526 1532
1527 1528
1527 1563
1528 1563
1530 1531
1531 1601
1532 1601
1532 1626
1535 1557
1535 1559
1537 1595
1537 1618
1538 1594
1539 1576
1539 1577
1541 1600
1541 1626
1549 1553
1551 1573
1551 1575
1557 1614
1559 1573
1559 1615
1573 1575
1573 1595
1575 1595
1575 1618
1576 1577
1576 1621
1576 1623
1577 1623
1589 1594
1595 1618
1598 1618
1598 1621
1598 1624
1601 1626
1614 1615
1618 1624
1621 1623
