ply
format ascii 1.0
comment Exported from MorphoGraphX 2.0 1-254
comment Cellular mesh
element vertex 204
property float x
property float y
property float z
property float signal
element face 103
property list int int vertex_index
property int label
end_header
-4.3754 -59.0892 -15.2066 46180.4
-5.85642 -57.9497 -15.862 50464.9
-12.2777 -60.8949 -16.158 45623.1
-12.2719 -62.3246 -15.5657 55387.6
-8.86834 -64.3256 -13.884 49208.3
-4.61542 -62.5554 -13.8512 46403.9
-9.66134 -114.355 -7.52228 41463.3
-1.12556 -117.795 -6.65543 51859.1
-0.297953 -116.208 -6.1588 44439
-3.34976 -112.262 -5.68433 52764
14.7898 -93.8319 -6.29588 45848.5
11.9325 -95.1318 -5.88657 44491.6
12.3394 -99.0551 -6.12039 48075.5
13.6916 -100.18 -6.44175 44106.1
18.6695 -98.9871 -7.53818 52232.1
19.5606 -97.4839 -7.70328 48371.8
6.53671 -121.573 -8.5156 41821.8
6.53868 -119.262 -7.39883 47107.6
4.38067 -115.242 -5.95281 41606
-5.37804 -91.9982 -6.73356 51418
-3.77457 -90.3237 -6.6671 48228.7
-3.42579 -87.0575 -7.0985 38363.2
-8.01313 -84.9957 -8.24446 49802.9
-10.4653 -88.3382 -8.25248 54154
-13.9496 -81.8622 -10.2474 43995.9
-15.8895 -78.4925 -11.4819 49810.4
-19.221 -78.3207 -12.8601 50466.1
-21.9741 -84.8773 -13.1657 56096.7
-17.8781 -86.2814 -10.9799 51670.8
-15.8379 -85.0261 -10.3174 54555.4
18.575 -69.2239 -10.8185 48490.5
15.0656 -65.7846 -11.585 43674.2
11.7513 -67.6915 -10.5719 45394.2
11.0374 -69.7392 -9.83266 49255.4
15.8968 -73.0885 -9.23103 49921.6
-11.7045 -88.9519 -8.52842 55318.3
-9.53578 -81.8209 -9.13426 49699.5
-16.6662 -94.3169 -10.0913 43947.6
-14.4869 -93.9739 -9.12457 41208.9
-19.609 -91.8266 -11.6039 45217.2
9.18348 -51.7685 -18.0101 50290.8
6.78351 -48.9578 -19.0872 48096.5
3.09868 -50.51 -18.0209 45789.5
2.20459 -53.5784 -16.7831 53586.9
2.50693 -54.4189 -16.4415 50951
-10.8493 -96.2965 -7.68155 42532.8
-6.11981 -94.2124 -6.69177 46524.4
21.0888 -103.664 -8.75398 55113.7
13.8536 -104.748 -6.75286 47210.4
17.9827 -107.119 -8.13025 44777
7.98455 -73.2528 -8.8527 36120.2
8.05057 -73.4061 -8.81084 31213.1
10.8109 -75.6711 -8.25555 49650.4
14.0521 -76.115 -8.33009 42667.1
-22.8951 -85.13 -13.693 53191.4
-22.761 -92.4317 -13.6029 52508.7
15.7641 -78.2396 -8.07874 43007.3
19.899 -78.636 -8.65477 42350.7
23.9017 -74.6708 -10.3159 39824
24.2289 -72.2405 -11.0956 40378.2
20.0034 -69.3814 -11.0365 43587.3
7.50599 -86.1742 -6.23623 54476.9
1.9462 -82.7475 -7.16824 46949.4
-0.0947847 -84.1117 -7.15209 47597.1
-0.79337 -85.866 -6.92994 39587.8
5.56099 -90.3023 -5.83926 47238.4
-18.1763 -96.6808 -10.8269 49670.7
-12.0431 -98.9469 -7.88534 49925.2
8.84283 -65.393 -11.4486 49719.9
4.32506 -69.9885 -10.002 55126.7
1.49439 -57.114 -15.3778 54453.2
5.36054 -58.7624 -14.5504 46812.2
11.0362 -54.8994 -16.5205 40462.8
11.2149 -52.9391 -17.5939 46456.1
16.8264 -90.2327 -6.75381 48217.7
13.4543 -87.228 -6.37178 51755.7
8.51412 -92.7029 -5.65931 52596.3
22.8882 -64.2107 -13.8707 47867.5
19.7179 -60.5061 -14.9353 52519.3
15.7566 -61.6865 -13.5072 47031.4
36.1367 -63.4023 -21.1487 43573.6
34.532 -63.5771 -19.9029 43436.8
34.1205 -70.2358 -16.0674 46726.9
36.5674 -71.2138 -17.2545 41627.7
-20.3879 -66.3254 -16.9987 52856.5
-18.1152 -67.1366 -15.6533 48866.4
-15.3588 -59.1048 -17.7511 50656.9
-3.47144 -97.8941 -6.07287 46632
-12.1537 -100.699 -7.79868 47215.6
-7.78504 -102.209 -6.43224 50293.4
-9.1844 -69.3344 -11.9817 53428.5
-2.45726 -63.8474 -12.9793 51553
-10.9556 -67.7676 -12.9646 47829.4
12.8909 -123.139 -11.4073 47402.9
10.4652 -117.732 -7.73048 54306.5
10.1456 -117.696 -7.61598 55821.1
0.685514 -66.5817 -11.5043 48679.8
0.68681 -65.697 -11.8552 40855.2
-7.90804 -70.9795 -11.1893 48288.4
0.648412 -101.668 -5.44608 42330.9
-0.142011 -99.1041 -5.67668 41418.6
-7.01788 -103.856 -6.16693 54245
-4.5243 -105.724 -5.68587 44662.1
-1.92341 -104.749 -5.42811 48143.2
18.3633 -109.526 -8.66492 50785.5
21.0924 -112.716 -10.6533 51920.4
24.1701 -111.26 -11.6127 47155.8
22.6833 -103.508 -9.33162 45798.3
15.4428 -50.1323 -20.2139 47412.1
23.2166 -95.8011 -8.87819 50075.7
21.5995 -95.1545 -8.24341 45922.8
24.6894 -101.394 -9.90415 40046.7
25.3749 -99.5825 -10.0059 46298.7
5.75626 -75.7482 -8.30965 52842.8
2.36431 -69.4048 -10.3472 50767.4
-3.77512 -74.5538 -9.63402 48667.6
-3.65666 -75.3258 -9.44137 41057.8
-0.93526 -77.4571 -8.58451 51781.9
22.207 -56.5706 -18.2624 39957.7
19.0795 -54.7362 -18.2784 50619.1
13.4809 -56.0656 -16.1619 47811.4
13.6557 -59.336 -14.4596 46370.6
-5.60104 -56.0777 -16.4388 47106.8
29.611 -81.1623 -11.3512 39754.6
29.1068 -77.6693 -11.5058 47191.7
24.2726 -83.9832 -9.23324 36277.9
9.75828 -83.6899 -6.62037 45182.9
8.40688 -81.3647 -7.03481 55553.9
4.55733 -79.5294 -7.54444 45151
2.13809 -80.6642 -7.53639 48509.1
3.708 -93.9303 -5.69708 47903.8
5.80054 -91.6206 -5.74026 46070.2
31.7795 -70.9107 -14.5169 42319.8
31.6032 -74.7078 -13.203 52487.9
35.8524 -79.2788 -14.7368 48921.3
36.5309 -79.0273 -15.1749 49548.9
38.5771 -76.5613 -16.9839 39477.1
10.9406 -84.0069 -6.60364 49434.4
14.4284 -81.4684 -7.32069 50815.7
25.3568 -64.0182 -14.8565 45096.4
28.3372 -69.0072 -13.7891 40297
28.0078 -65.5265 -15.2464 46172.5
4.67788 -62.2681 -12.9981 46001
20.0239 -87.619 -7.70935 46518.4
18.6474 -90.0669 -7.20645 43839.6
-3.29848 -111.938 -5.64328 54109
2.32765 -109.148 -5.12698 59640
1.35628 -107.577 -5.05824 54669.5
-5.52413 -107.669 -5.80052 48381.9
8.24831 -63.8569 -12.1201 44674.7
-21.9386 -75.648 -14.8181 41638.3
-12.8442 -75.1588 -11.1891 54670.3
-15.464 -69.3841 -13.7306 48981.2
-16.9483 -69.3402 -14.3209 44803.1
5.97599 -112.93 -5.71768 54262.3
-6.33239 -78.2651 -9.19791 51204
-7.84632 -79.3437 -9.24317 52361.7
-19.7627 -98.6688 -11.8052 43884.8
34.5112 -81.923 -13.6933 41159.5
37.5992 -87.1432 -15.3081 45168.2
40.7882 -84.203 -17.1321 46196.4
41.0379 -82.0814 -17.5637 48517.9
3.31421 -96.4194 -5.60356 44184.3
20.6829 -92.7761 -7.79836 53761.1
25.8774 -87.2814 -9.60663 54307.3
24.4275 -85.3535 -9.1817 37123.1
32.4839 -82.266 -12.6243 44512.8
27.8191 -89.4808 -10.3917 45079.3
29.7921 -90.1642 -11.2862 46004.5
31.2837 -90.0207 -12.0092 38572.8
5.79821 -104.226 -5.29349 48542.8
7.76226 -99.5083 -5.5115 54974.1
23.5982 -56.0875 -19.2346 35749.9
24.1465 -51.4115 -23.4962 43605.5
16.2498 -49.9993 -20.5751 47856.9
-9.72479 -109.378 -6.87055 47367
-13.0863 -105.355 -7.92246 51876.5
31.2661 -62.0434 -18.9671 36114
31.9032 -57.7274 -22.6075 43347
30.7097 -58.7264 -21.0305 41144.4
12.3745 -112.853 -7.09189 50324.6
13.8463 -115.417 -8.23108 54226.5
16.9231 -118.062 -10.5845 44928.6
-23.5175 -75.8894 -15.6734 49017.5
8.61479 -110.582 -5.92866 41618.4
6.26801 -111.389 -5.61035 48731.7
26.0014 -57.7318 -19.105 44889.7
28.6077 -98.4799 -11.306 41196
-10.7307 -74.1573 -10.8913 54861.1
33.6546 -93.2427 -13.4113 39149
37.4863 -90.9117 -15.1474 35473.7
30.4608 -98.4899 -12.2051 45817.6
32.6264 -97.1234 -13.1029 44349.6
6.38579 -105.157 -5.37136 48710.9
8.90555 -107.136 -5.8379 48603.6
-7.82113 -71.7371 -10.9509 44073
-5.86025 -54.2498 -17.0034 47196
34.5576 -99.4954 -13.9983 51240
27.8352 -105.185 -11.9375 56388
28.2017 -107.564 -12.5898 50986.8
-22.6752 -67.5702 -17.6156 54849.1
-24.7116 -74.4135 -16.7137 50263.5
38.5281 -91.9145 -15.4379 50353.6
-14.8302 -102.731 -8.8869 46515
6 158 159 160 161 135 134 1395
7 83 82 132 133 134 135 136 1359
8 166 123 125 165 164 167 168 169 1440
6 169 189 190 159 158 166 1369
6 133 124 123 166 158 134 1525
6 31 79 121 149 68 32 1438
5 179 186 139 141 177 1589
5 144 163 164 165 143 1551
5 180 181 182 105 104 1456
4 94 93 182 181 1547
7 154 95 94 181 180 184 185 1441
6 143 165 125 57 56 138 1442
6 116 155 63 62 129 117 1496
4 154 18 17 95 1553
6 121 120 72 71 142 149 1443
7 185 146 145 9 8 18 154 1361
6 145 146 147 103 102 148 1459
5 148 175 6 9 145 1565
6 143 138 137 75 74 144 1575
7 127 126 137 138 56 53 52 1445
5 175 148 102 101 176 1444
6 64 21 20 130 131 65 1418
7 142 71 70 0 5 91 97 1391
7 20 19 46 87 100 162 130 1522
5 52 51 113 128 127 1446
4 117 129 128 113 1453
6 122 1 0 70 44 43 1447
3 135 161 136 1591
8 113 51 50 69 114 115 116 117 1479
6 78 77 139 186 172 118 1594
6 187 191 192 189 169 168 1614
7 171 170 193 194 48 13 12 1507
5 119 118 172 173 174 1381
6 118 119 120 121 79 78 1538
6 156 155 116 115 195 188 1472
5 98 195 115 114 96 1482
4 196 122 43 42 1541
7 92 152 151 188 195 98 90 1364
5 2 1 122 196 86 1626
6 150 26 25 151 152 153 1384
5 197 192 191 198 199 1557
7 153 85 84 200 201 183 150 1526
2 201 200 -1
5 173 172 186 179 178 1379
6 133 132 140 59 58 124 1596
6 126 127 128 129 62 61 1624
5 177 81 80 178 179 1503
7 68 149 142 97 96 114 69 1427
6 119 174 108 73 72 120 1460
5 191 187 112 111 198 1408
7 12 11 76 131 130 162 171 1537
6 180 104 49 48 194 184 1480
6 184 194 193 147 146 185 1481
5 202 190 189 192 197 1461
5 103 147 193 170 99 1483
5 168 167 109 112 187 1615
5 101 89 88 203 176 1462
5 203 88 67 66 157 1373
5 37 39 55 157 66 1494
6 188 151 25 24 36 156 1623
8 109 110 15 14 47 107 111 112 1559
5 167 164 163 110 109 1430
4 190 202 160 159 1469
5 123 124 58 57 125 1497
4 41 40 73 108 1510
6 110 163 144 74 10 15 1573
7 99 100 87 89 101 102 103 1492
5 96 97 91 90 98 1530
5 90 91 5 4 92 1531
6 87 46 45 67 88 89 1378
6 92 4 3 85 153 152 1506
5 84 85 3 2 86 1532
6 139 77 60 59 140 141 1518
6 132 82 81 177 141 140 1488
4 80 81 82 83 1529
6 60 77 78 79 31 30 1375
5 74 75 76 11 10 1595
7 75 137 126 61 65 131 76 1618
6 49 104 105 106 107 47 1383
6 44 70 71 72 73 40 1401
5 162 100 99 170 171 1508
5 66 67 45 38 37 1493
5 61 62 63 64 65 1598
8 56 57 58 59 60 30 34 53 1397
6 33 50 51 52 53 34 1527
5 68 69 50 33 32 1528
5 199 198 111 107 106 1535
5 47 14 13 48 49 1392
6 45 46 19 23 35 38 1523
5 40 41 42 43 44 1600
6 37 38 35 29 28 39 1539
7 21 64 63 155 156 36 22 1621
5 28 27 54 55 39 1524
6 24 29 35 23 22 36 1576
5 30 31 32 33 34 1563
6 24 25 26 27 28 29 1577
5 26 150 183 54 27 1420
5 19 20 21 22 23 1419
5 93 94 95 17 16 1403
5 16 17 18 8 7 1549
6 10 11 12 13 14 15 1409
4 6 7 8 9 1417
6 0 1 2 3 4 5 1601
