ply
format ascii 1.0
comment Exported from MorphoGraphX 2.0.1-254
comment Cell Graph: each vertex is a cell, each edge a wall
element vertex 223
property int label
property float x
property float y
property float z
element edge 622
property uint source
property uint target
end_header
1233 0 0 0 
1235 0 0 0 
1241 0 0 0 
1251 0 0 0 
1254 0 0 0 
1258 0 0 0 
1263 0 0 0 
1264 0 0 0 
1271 0 0 0 
1273 0 0 0 
1276 0 0 0 
1277 0 0 0 
1278 0 0 0 
1279 0 0 0 
1281 0 0 0 
1282 0 0 0 
1283 0 0 0 
1286 0 0 0 
1290 0 0 0 
1292 0 0 0 
1293 0 0 0 
1295 0 0 0 
1296 0 0 0 
1297 0 0 0 
1298 0 0 0 
1302 0 0 0 
1303 0 0 0 
1306 0 0 0 
1307 0 0 0 
1308 0 0 0 
1309 0 0 0 
1310 0 0 0 
1312 0 0 0 
1317 0 0 0 
1319 0 0 0 
1320 0 0 0 
1321 0 0 0 
1322 0 0 0 
1323 0 0 0 
1326 0 0 0 
1327 0 0 0 
1328 0 0 0 
1330 0 0 0 
1333 0 0 0 
1334 0 0 0 
1336 0 0 0 
1337 0 0 0 
1340 0 0 0 
1341 0 0 0 
1342 0 0 0 
1343 0 0 0 
1345 0 0 0 
1347 0 0 0 
1348 0 0 0 
1355 0 0 0 
1360 0 0 0 
1361 0 0 0 
1362 0 0 0 
1363 0 0 0 
1368 0 0 0 
1373 0 0 0 
1375 0 0 0 
1376 0 0 0 
1379 0 0 0 
1380 0 0 0 
1383 0 0 0 
1393 0 0 0 
1397 0 0 0 
1408 0 0 0 
1410 0 0 0 
1411 0 0 0 
1415 0 0 0 
1418 0 0 0 
1422 0 0 0 
1425 0 0 0 
1432 0 0 0 
1433 0 0 0 
1435 0 0 0 
1436 0 0 0 
1437 0 0 0 
1438 0 0 0 
1439 0 0 0 
1440 0 0 0 
1441 0 0 0 
1444 0 0 0 
1445 0 0 0 
1447 0 0 0 
1451 0 0 0 
1453 0 0 0 
1454 0 0 0 
1458 0 0 0 
1462 0 0 0 
1469 0 0 0 
1470 0 0 0 
1471 0 0 0 
1472 0 0 0 
1473 0 0 0 
1474 0 0 0 
1476 0 0 0 
1478 0 0 0 
1480 0 0 0 
1482 0 0 0 
1483 0 0 0 
1484 0 0 0 
1486 0 0 0 
1487 0 0 0 
1489 0 0 0 
1493 0 0 0 
1495 0 0 0 
1496 0 0 0 
1498 0 0 0 
1499 0 0 0 
1505 0 0 0 
1509 0 0 0 
1511 0 0 0 
1512 0 0 0 
1513 0 0 0 
1515 0 0 0 
1516 0 0 0 
1518 0 0 0 
1519 0 0 0 
1521 0 0 0 
1522 0 0 0 
1523 0 0 0 
1524 0 0 0 
1525 0 0 0 
1526 0 0 0 
1527 0 0 0 
1530 0 0 0 
1534 0 0 0 
1536 0 0 0 
1537 0 0 0 
1539 0 0 0 
1540 0 0 0 
1541 0 0 0 
1544 0 0 0 
1549 0 0 0 
1550 0 0 0 
1552 0 0 0 
1553 0 0 0 
1554 0 0 0 
1555 0 0 0 
1556 0 0 0 
1557 0 0 0 
1561 0 0 0 
1563 0 0 0 
1564 0 0 0 
1566 0 0 0 
1567 0 0 0 
1568 0 0 0 
1569 0 0 0 
1571 0 0 0 
1572 0 0 0 
1573 0 0 0 
1574 0 0 0 
1576 0 0 0 
1578 0 0 0 
1579 0 0 0 
1580 0 0 0 
1581 0 0 0 
1582 0 0 0 
1583 0 0 0 
1585 0 0 0 
1590 0 0 0 
1591 0 0 0 
1592 0 0 0 
1593 0 0 0 
1594 0 0 0 
1596 0 0 0 
1597 0 0 0 
1598 0 0 0 
1600 0 0 0 
1602 0 0 0 
1604 0 0 0 
1605 0 0 0 
1606 0 0 0 
1607 0 0 0 
1608 0 0 0 
1609 0 0 0 
1610 0 0 0 
1614 0 0 0 
1615 0 0 0 
1618 0 0 0 
1620 0 0 0 
1621 0 0 0 
1623 0 0 0 
1625 0 0 0 
1629 0 0 0 
1631 0 0 0 
1632 0 0 0 
1634 0 0 0 
1635 0 0 0 
1636 0 0 0 
1638 0 0 0 
1639 0 0 0 
1640 0 0 0 
1641 0 0 0 
1642 0 0 0 
1643 0 0 0 
1644 0 0 0 
1646 0 0 0 
1647 0 0 0 
1648 0 0 0 
1651 0 0 0 
1653 0 0 0 
1655 0 0 0 
1657 0 0 0 
1659 0 0 0 
1660 0 0 0 
1661 0 0 0 
1662 0 0 0 
1663 0 0 0 
1665 0 0 0 
1667 0 0 0 
1669 0 0 0 
1670 0 0 0 
1671 0 0 0 
1673 0 0 0 
1674 0 0 0 
1677 0 0 0 
1679 0 0 0 
1680 0 0 0 
1689 0 0 0 
1233 1425
1233 1660
1233 1662
1235 1320
1235 1376
1235 1393
1235 1397
1235 1418
1235 1451
1241 1340
1241 1341
1241 1360
1241 1361
1241 1476
1241 1629
1241 1646
1241 1657
1251 1422
1251 1436
1251 1438
1254 1355
1254 1383
1254 1458
1254 1462
1254 1493
1254 1655
1258 1439
1258 1453
1258 1472
1258 1473
1258 1474
1263 1433
1263 1469
1263 1680
1264 1422
1264 1438
1264 1439
1264 1471
1264 1472
1264 1482
1271 1472
1271 1473
1271 1498
1271 1515
1273 1297
1273 1376
1273 1411
1273 1451
1273 1483
1273 1518
1276 1470
1276 1478
1276 1496
1276 1509
1276 1522
1276 1537
1277 1278
1277 1282
1277 1473
1277 1515
1277 1527
1277 1541
1278 1282
1278 1473
1278 1474
1278 1484
1279 1440
1279 1441
1279 1444
1279 1511
1279 1539
1281 1471
1281 1482
1281 1496
1281 1512
1281 1524
1282 1283
1282 1484
1282 1541
1282 1556
1282 1569
1283 1484
1283 1499
1283 1530
1283 1544
1283 1556
1286 1297
1286 1451
1286 1486
1286 1582
1290 1343
1290 1345
1290 1362
1290 1363
1290 1669
1292 1495
1292 1509
1292 1519
1292 1534
1292 1564
1292 1679
1293 1298
1293 1302
1293 1512
1293 1524
1293 1540
1293 1566
1295 1303
1295 1515
1295 1526
1295 1527
1295 1552
1295 1554
1295 1567
1295 1598
1296 1307
1296 1480
1296 1483
1296 1516
1296 1518
1296 1578
1296 1580
1297 1309
1297 1451
1297 1518
1297 1580
1297 1582
1298 1522
1298 1524
1298 1537
1298 1549
1298 1566
1298 1581
1298 1594
1302 1540
1302 1566
1302 1567
1302 1594
1302 1596
1303 1554
1303 1568
1303 1598
1303 1606
1303 1623
1306 1373
1306 1376
1306 1379
1306 1393
1306 1659
1307 1319
1307 1516
1307 1574
1307 1578
1307 1635
1307 1660
1308 1568
1308 1569
1308 1600
1308 1606
1308 1639
1308 1640
1309 1321
1309 1580
1309 1582
1309 1643
1310 1585
1310 1610
1310 1625
1310 1642
1312 1579
1312 1591
1312 1592
1312 1629
1312 1631
1312 1646
1312 1647
1317 1330
1317 1596
1317 1605
1317 1618
1317 1620
1317 1634
1317 1671
1319 1321
1319 1578
1319 1660
1319 1662
1320 1380
1320 1397
1320 1418
1320 1644
1320 1661
1320 1677
1321 1578
1321 1580
1321 1643
1321 1662
1321 1665
1322 1604
1322 1629
1322 1657
1323 1333
1323 1582
1323 1614
1323 1643
1323 1667
1326 1327
1326 1600
1326 1607
1326 1608
1326 1640
1326 1661
1326 1677
1327 1337
1327 1608
1327 1609
1327 1641
1327 1677
1328 1337
1328 1347
1328 1610
1328 1641
1328 1642
1328 1663
1330 1363
1330 1618
1330 1648
1330 1669
1330 1671
1333 1614
1333 1667
1333 1670
1334 1375
1334 1576
1334 1634
1334 1651
1334 1671
1334 1673
1336 1393
1336 1397
1336 1639
1336 1640
1336 1659
1337 1347
1337 1641
1337 1644
1337 1655
1337 1677
1340 1341
1340 1432
1340 1476
1341 1361
1341 1432
1341 1437
1342 1343
1342 1360
1342 1361
1342 1362
1342 1440
1342 1441
1343 1345
1343 1362
1343 1441
1343 1444
1345 1363
1345 1368
1345 1444
1345 1445
1345 1561
1347 1410
1347 1655
1347 1663
1348 1373
1348 1375
1348 1408
1348 1411
1348 1576
1348 1590
1355 1410
1355 1415
1355 1462
1355 1655
1360 1361
1360 1362
1360 1646
1360 1647
1361 1437
1361 1440
1362 1647
1362 1648
1362 1669
1363 1561
1363 1669
1363 1671
1368 1408
1368 1445
1368 1447
1368 1561
1373 1376
1373 1379
1373 1411
1373 1590
1375 1576
1375 1590
1375 1673
1376 1393
1376 1411
1376 1451
1379 1590
1379 1659
1379 1674
1380 1418
1380 1454
1380 1486
1380 1644
1383 1454
1383 1458
1383 1644
1383 1655
1393 1397
1393 1659
1397 1640
1397 1661
1408 1411
1408 1447
1408 1480
1408 1516
1408 1561
1408 1576
1410 1415
1410 1655
1410 1663
1411 1480
1411 1483
1415 1653
1415 1663
1418 1451
1418 1486
1422 1438
1422 1439
1425 1489
1425 1662
1425 1665
1432 1437
1432 1505
1433 1435
1433 1469
1433 1478
1435 1436
1435 1470
1435 1478
1436 1438
1436 1470
1437 1440
1437 1505
1437 1536
1438 1470
1438 1471
1439 1472
1440 1441
1440 1536
1440 1539
1441 1444
1444 1445
1444 1511
1444 1513
1445 1447
1445 1513
1447 1513
1447 1516
1451 1486
1453 1474
1453 1484
1454 1458
1454 1486
1454 1487
1454 1521
1454 1644
1458 1493
1458 1521
1458 1523
1462 1493
1462 1555
1469 1478
1469 1495
1469 1679
1469 1680
1470 1471
1470 1478
1470 1496
1471 1482
1471 1496
1472 1473
1472 1482
1472 1498
1473 1474
1473 1515
1474 1484
1476 1657
1478 1495
1478 1509
1480 1483
1480 1516
1482 1498
1482 1512
1483 1518
1484 1499
1486 1487
1486 1550
1486 1582
1487 1521
1487 1550
1487 1583
1489 1665
1489 1667
1493 1523
1493 1525
1493 1555
1495 1509
1495 1679
1496 1522
1496 1524
1498 1512
1498 1515
1498 1526
1499 1530
1505 1536
1509 1534
1509 1537
1511 1513
1511 1539
1511 1572
1511 1574
1512 1524
1512 1526
1512 1540
1513 1516
1513 1574
1515 1526
1515 1527
1516 1574
1518 1580
1519 1563
1519 1564
1519 1679
1519 1680
1521 1523
1521 1553
1521 1583
1522 1524
1522 1537
1523 1525
1523 1553
1525 1553
1525 1555
1526 1540
1526 1552
1527 1541
1527 1554
1530 1544
1530 1557
1530 1689
1534 1537
1534 1549
1534 1564
1534 1579
1536 1539
1536 1602
1537 1549
1539 1572
1539 1602
1540 1552
1540 1567
1541 1554
1541 1568
1541 1569
1544 1556
1544 1557
1544 1571
1544 1573
1549 1579
1549 1581
1549 1592
1550 1582
1550 1583
1550 1614
1552 1567
1553 1555
1553 1583
1553 1615
1554 1568
1555 1615
1556 1569
1556 1571
1556 1600
1556 1607
1557 1573
1557 1585
1557 1689
1561 1576
1561 1671
1563 1564
1563 1591
1563 1604
1564 1579
1564 1591
1566 1594
1567 1596
1567 1597
1567 1598
1568 1569
1568 1606
1569 1600
1571 1573
1571 1607
1571 1608
1572 1574
1572 1602
1572 1632
1572 1635
1573 1585
1573 1608
1573 1609
1574 1635
1576 1671
1578 1580
1579 1591
1579 1592
1581 1592
1581 1593
1581 1594
1582 1614
1582 1643
1583 1614
1583 1615
1583 1670
1585 1609
1585 1610
1590 1673
1590 1674
1591 1604
1591 1629
1592 1593
1592 1631
1593 1594
1593 1618
1593 1631
1594 1596
1594 1605
1594 1618
1596 1597
1596 1605
1596 1620
1597 1598
1597 1620
1597 1621
1598 1621
1598 1623
1598 1636
1600 1607
1600 1640
1602 1632
1604 1629
1605 1618
1606 1623
1606 1638
1606 1639
1607 1608
1608 1609
1609 1610
1609 1641
1610 1641
1610 1642
1614 1670
1615 1670
1618 1631
1618 1648
1620 1621
1620 1634
1621 1634
1621 1636
1621 1651
1623 1636
1623 1638
1625 1642
1625 1653
1629 1646
1629 1657
1631 1647
1631 1648
1632 1635
1634 1651
1634 1671
1635 1660
1636 1638
1636 1651
1636 1659
1636 1674
1638 1639
1638 1659
1639 1640
1639 1659
1640 1661
1642 1653
1642 1663
1643 1665
1643 1667
1644 1655
1644 1677
1646 1647
1647 1648
1648 1669
1651 1673
1651 1674
1653 1663
1659 1674
1660 1662
1661 1677
1662 1665
1665 1667
1673 1674
1679 1680
