ply
format ascii 1.0
comment Exported from MorphoGraphX 2.0 1-254
comment Cellular mesh
element vertex 444
property float x
property float y
property float z
property float signal
element face 223
property list int int vertex_index
property int label
end_header
-4.10088 7.40912 15.174 65470.6
-1.22162 7.93353 15.2861 68321.1
-0.349232 8.49818 15.2571 68384
-1.59919 12.7677 14.7903 68242.2
-4.81042 11.9074 14.9846 62542.5
-5.05201 8.54339 15.1678 65435.4
-6.31588 13.1343 14.817 61846
-0.610223 13.4112 14.6584 67094.9
-0.835316 17.7797 13.8956 68376.6
-1.92818 21.0147 13.0774 66306.6
-5.09383 21.2693 13.033 65712.3
-7.14613 18.4634 13.7331 64412.4
-3.79174 -17.7464 13.3236 65187.6
-1.09632 -15.8311 14.1075 66847.8
-2.70681 -10.4329 14.889 68373.1
-5.87406 -10.0675 14.9268 65240.9
-6.70252 -13.114 14.1246 66175.7
-5.37291 -17.5616 13.1656 62430
-8.20468 -5.6481 14.9063 62507.9
-6.4499 -5.99938 14.9871 62440.6
-4.73856 -4.86071 14.9863 61232.2
-5.43829 2.18423 14.9827 64768.4
-9.57119 3.0541 14.8023 64141.4
-11.2899 -0.104328 14.6254 65097.2
-9.29257 -19.9311 12.0776 67650.9
-7.82962 -24.1669 10.5122 68076.5
-3.3009 -22.8263 11.6983 65826.1
-3.13025 -22.2173 11.9537 65676.2
-6.91981 -29.9532 8.27394 68286.8
-4.23219 -30.0994 8.52276 66329.2
-2.63206 -27.8033 9.68774 65570.2
-10.0481 -26.5133 9.16165 68336.1
-3.58518 -35.5855 4.94247 68258.2
-2.95314 -33.0126 7.21729 68124.8
-9.29196 -32.4464 6.52901 67884.8
-8.09493 44.3005 1.84166 64497.9
-6.51724 45.3316 1.724 67093.3
-5.92681 48.9001 -0.352981 66497.7
-7.58552 50.0742 -1.87724 68075.7
-11.7807 46.6788 -1.18914 68077.7
-11.135 45.8825 -0.274155 68221.8
-12.1135 40.4938 2.76841 66657.6
-11.5011 38.3575 4.33746 68298.7
-4.91576 38.1772 6.14563 68090.9
-5.20235 39.8038 5.31339 67147.9
-8.33406 42.5711 2.79893 66282.3
-10.8819 35.93 5.89982 67392.1
-5.08516 34.6059 7.56238 67334.7
-3.84215 35.832 7.22617 66767.7
-11.4665 37.6221 4.7873 68289.5
-5.70543 23.9752 12.1378 68697.1
-12.0001 23.7222 11.1383 68419.1
-12.1791 20.3011 12.295 67810.3
-9.80859 18.8458 13.3081 65595.5
-11.9785 15.518 13.637 68335.9
-8.9312 11.9387 14.8139 68407.7
-12.2691 -20.1718 11.5989 64639.3
-13.6341 -23.7754 9.90461 65874.7
-12.9013 -25.6367 9.18188 67096.9
-12.4603 -32.9944 5.11658 67059.4
-12.6419 -34.8983 3.57502 67411.4
-10.6547 -37.1185 2.17519 67157.1
-5.69638 -37.5913 2.63458 68113.3
-3.76126 -36.5608 3.95703 66176
24.6483 28.419 5.01442 67997.6
27.6362 28.3078 3.54463 67942.5
28.3804 32.7095 0.67846 68183.9
25.8797 34.2068 1.14452 68112.9
23.6596 32.3867 3.4304 63148.7
23.7431 28.848 5.23404 66542.1
30.0006 20.7943 5.59414 68100.1
27.9105 22.5609 5.96116 67627.4
25.7761 21.5605 7.33841 67956.1
24.9721 19.1168 8.43801 67918.7
27.4942 15.4634 8.35968 68241.9
28.8715 15.1643 7.85112 68630.6
-15.478 13.167 13.351 67665.2
-15.0509 11.5434 13.8053 64118.6
-13.2592 10.0354 14.3182 63792.5
-10.7333 5.78627 14.6768 65016.9
-13.3204 6.98158 14.4619 58460.8
-15.6453 5.39387 14.1736 64488.3
-13.0159 -0.326422 14.3689 66167.8
27.3576 -4.3143 9.87591 66883.4
25.068 -6.03101 10.8184 66477.2
25.3957 -10.6538 10.2563 68426.5
26.7829 -11.9802 9.42933 67687.7
29.8136 -10.5103 8.38919 66742.8
29.8504 -4.32714 8.81162 67963.6
-16.0714 42.8952 -0.915653 67328.1
-15.2333 40.4566 1.38808 65500.5
-17.4149 36.9415 2.56676 66995.4
-17.5327 38.1478 1.71979 64716.2
-11.6888 34.6808 6.28879 67170.3
-18.1562 34.5971 3.59658 65228.3
-17.7656 34.009 4.12741 67036.8
-18.3331 29.9339 6.09656 65547.4
-17.9013 29.0766 6.73743 64977.2
-11.7458 29.9318 8.40974 67712.8
-16.1278 18.7045 11.6747 66079.6
-17.013 14.7506 12.563 64747.5
23.6305 38.2068 -0.0280014 68173.1
25.8151 36.5239 -0.311151 68113.3
27.5462 38.3216 -2.82144 67675.4
24.61 44.0118 -5.72533 67986.3
22.4565 43.4179 -3.39525 68098.3
-12.3895 24.9065 10.5368 68081.9
-18.1229 23.9916 9.12353 67087.7
-18.316 21.6631 10.0231 68470.3
-18.2613 -5.24083 13.2069 59055.5
-17.0817 -10.8343 12.9455 64363
-15.2932 -11.3185 13.2402 62426.9
-12.1717 -9.12598 14.143 66765.5
-11.4011 -7.74074 14.4268 66994.2
-14.8704 -2.32431 13.9768 65631.2
-16.4769 -2.65093 13.669 61449.7
29.0538 7.70662 9.06036 67387
30.9284 12.3963 7.59742 64358.5
24.2999 11.5142 10.5013 68583.6
24.2605 8.1794 11.0373 64856.6
25.7376 7.31305 10.5176 67830
22.0008 1.49482 12.492 64961.1
25.7735 1.82914 10.869 67753.1
21.4708 7.35514 12.2598 65062.3
-2.87582 41.2479 5.0889 68504.2
-3.43979 44.9149 2.90365 68315.8
-20.7113 39.286 -0.839192 65953.8
-16.6311 43.6808 -1.92361 67598.1
-21.3371 41.8808 -3.75227 61742.6
20.8415 -19.9275 10.6033 67782.4
23.1668 -21.0595 9.24477 68375.3
26.3501 -19.1263 8.28112 65397.4
21.5553 -12.7139 11.6547 68012.8
-21.3273 14.1649 11.3933 67097.3
-22.185 9.55678 12.0262 66801.5
-21.1394 7.90474 12.5518 67297.1
-13.7916 48.071 -3.61093 66447.7
-18.6 4.35867 13.4347 65776.7
-20.5608 5.15296 12.8184 63309.7
-22.8721 3.56178 12.1822 65580.6
-22.2962 -0.87912 12.5598 68447.9
-21.4868 -4.40244 12.5256 61098.5
-20.3328 -23.0822 8.79748 68007.3
-16.8786 -23.3856 9.62258 68605.5
-18.0256 -18.4206 11.0469 68699.6
-21.2961 -16.6301 10.3134 66506.6
-22.9117 -18.8476 9.0373 66444
-14.4147 -28.3587 7.66991 67957.4
-20.6355 -24.4208 8.20053 68503.9
-11.1559 -40.2509 -1.31193 67656.6
-5.08823 -41.5122 -1.8106 68007.9
-21.3108 -25.666 7.41145 68118.3
-20.6376 -29.7545 5.38916 64861.8
-19.5102 -30.8863 4.95604 61816
-14.6553 -29.4135 6.99032 66052.4
-24.5199 35.3931 -0.545601 65221.7
-22.1741 34.2845 1.89185 62575.7
-24.3676 29.7376 3.59261 64494.9
-23.1357 19.2579 9.12729 67268.6
-23.5791 15.837 10.1605 66623.1
-10.8416 29.2318 8.92826 67412.1
-6.27791 29.676 9.47052 67586
-5.26218 32.4952 8.37399 68239.3
21.2628 37.9326 1.58101 68193.7
20.4124 34.206 4.10984 68048.7
21.1098 33.4429 4.18149 67621.5
-18.4809 -11.9994 12.3623 68530.4
-24.1029 -5.99818 11.3936 62535.5
-24.0025 -7.51733 11.2171 67622.7
22.5983 18.4778 9.53174 67876
21.5645 16.3197 10.4837 67771.5
-24.2799 -11.8174 10.3203 66317.7
-21.1204 -14.7117 10.9075 64845.8
21.5931 20.8149 9.23932 68570.1
19.657 26.6691 7.79619 68552.7
19.3233 25.9095 8.18684 67366.3
26.7951 1.34661 10.3764 67855.9
21.2769 0.244856 12.768 68211.1
21.7195 -4.80431 12.3942 65416.5
-23.9544 -29.9289 4.39008 65566.6
-24.899 -32.9191 2.18105 67581
-24.8424 -33.094 2.05536 68044.8
-18.7558 -34.5127 2.52311 64534
29.3175 26.6975 3.36639 67251.7
20.2086 15.759 11.1153 67405.7
20.0786 8.49262 12.6137 67051.5
-26.1571 36.0483 -2.5844 60824.4
-24.8517 35.3703 -0.785788 65459.5
-25.0493 40.2835 -5.88235 45488.3
-19.3923 25.7059 7.8584 67294.4
-27.323 27.7581 3.23425 64792.2
-27.2335 25.7664 4.43931 66706.2
-26.0491 24.2529 5.80356 65951.9
-26.682 22.1513 6.45021 65153.7
-9.67094 -13.0266 13.8869 68630.8
20.6802 -12.2344 12.1021 67409.1
19.7457 -6.23016 13.0868 68243.2
-29.3902 29.1619 0.783801 66619.7
-29.4069 9.50264 9.12267 67854.7
-26.156 9.45036 10.603 68000.3
-25.5766 15.3911 9.49938 66871.6
-29.3827 15.5204 7.6322 65000.6
-30.6112 12.4972 7.89726 68176.2
-27.1211 2.9303 10.7435 64979.1
-30.3253 7.56354 9.02942 66544.8
-27.6734 0.371129 10.5407 68753.5
-24.4032 -19.0118 8.39371 66690.4
-25.369 -12.1154 9.82232 68079
-26.7946 -13.2758 8.99656 68548.7
-26.3418 -16.2591 8.43808 67521.7
21.0216 43.0945 -2.03505 67947
16.7974 49.5906 -5.06604 67513.4
15.6414 48.5457 -3.22912 67399.5
17.6947 46.1481 -2.34086 67580.5
19.4026 41.4784 0.266592 67817.2
16.388 43.6058 0.408852 68001
-30.3535 -12.4509 7.4755 65970.3
-31.2343 -14.0362 6.74889 63643.6
-30.5558 -15.5915 6.70219 67998.3
-29.9826 -19.5888 6.10156 56852
-27.709 -20.9116 6.60587 64966.3
-26.0921 -20.6683 7.26383 67692.6
-28.0039 -25.6092 5.27589 62740.4
-29.0875 -26.0313 4.781 66771.7
-30.1646 -27.511 3.87108 67243
-30.2285 -29.7382 2.74558 65673.3
-27.4599 -4.76913 10.2443 63856.9
-29.1705 -6.51537 9.26835 67534.5
17.5441 29.8016 7.30175 68646.5
-31.1083 18.5597 5.58603 64766.3
-32.345 7.22351 8.10711 68439.9
-31.4043 -0.653398 8.99313 66857.4
-28.4686 -1.25178 10.1615 64808.6
30.4699 3.69588 8.78743 62618.4
31.7326 3.48912 8.34289 65889.7
33.4294 10.044 7.11097 62565.3
31.7116 12.6759 7.23042 62812.7
-31.8893 -8.27801 7.60266 66669.1
-30.1892 -6.91434 8.70384 68554.3
-34.5378 -2.62654 7.21605 67651.8
-35.4483 -4.58411 6.47194 67151.2
-34.8441 -7.43916 6.36879 65574.2
0.415963 32.1087 8.97182 68448.8
0.446641 32.9293 8.64241 68820.3
-0.16786 35.9179 7.43264 63623.1
19.1583 39.4415 1.78887 68218.5
18.1299 8.82185 13.1732 64698.6
16.4063 6.94608 13.8338 67153.5
17.6849 1.20686 13.8553 68923.1
-14.1628 -17.6981 12.1038 66909.9
1.24846 23.3905 12.1887 67012.4
-4.88825 25.9184 11.371 68402.3
32.932 30.2509 -0.691435 68078.1
32.3236 27.3476 1.23636 67949.4
0.971274 4.03979 15.1248 68222.8
3.58517 4.54164 15.0817 64091.4
5.19927 6.20788 14.8781 60650.9
4.11027 9.08954 14.7399 62238.7
15.9762 34.5529 5.67094 67911.9
15.5134 35.9985 5.12881 67301.4
9.77348 37.1104 6.05351 68222.1
8.10194 35.8443 6.94501 65722.1
7.81347 34.0275 7.75176 67969.3
13.5969 30.4968 8.04208 68361.7
14.7265 31.3158 7.4629 68057.5
6.77398 32.2139 8.63702 68627.2
6.69994 30.2656 9.36889 67825.6
12.3863 28.4578 9.02627 68718.3
10.948 -32.782 7.79628 68096.8
11.7003 -34.1922 6.61932 68058.1
14.9803 -35.0576 5.10916 67478.1
18.372 -31.2813 6.96748 68209.7
16.4277 -29.2154 8.80401 68363.7
11.4882 -29.96 9.33995 68190.4
-3.74797 3.40992 15.0164 63061.4
-0.489624 2.89294 15.1057 62531.7
0.457591 29.7966 9.8704 68687.7
-4.80802 27.84 10.5177 65961.2
3.41668 23.7673 11.9483 63725.8
4.30637 27.7689 10.4954 66255.9
14.3007 -20.6425 12.7742 66702.8
16.8712 -18.3616 12.4543 62558.6
16.7216 -13.9232 13.1305 65761.4
16.007 -13.4836 13.4054 64417.8
9.7918 -15.1199 14.2253 68307
8.20724 -18.3306 13.7479 64805
10.0682 -20.5046 13.3395 63028.5
0.46211 -16.1315 14.1416 67733.8
2.17072 -15.3009 14.2889 61675.5
2.67539 -11.2261 14.7793 64428.3
1.0948 -9.16913 14.9412 66180.1
0.356297 -21.6025 12.6385 68630
-1.97583 52.681 -2.27523 67367.5
-2.95654 50.1851 -0.458097 66265.8
-0.840522 48.9229 0.92152 68035.4
2.98373 47.9997 1.63827 68090.3
4.52331 50.0751 0.0883715 68339.5
3.47087 -24.5127 11.8743 68862.7
3.1253 -22.1159 12.779 66110
3.21604 -27.8226 10.5382 67051.4
33.351 25.6126 1.51261 68265.8
31.3627 20.5401 4.98196 67978.8
33.4769 17.8245 4.95887 64016.9
35.1626 18.2609 4.05896 62911.5
9.63488 23.6558 11.2566 68635.5
5.22101 28.3328 10.2267 68140.2
5.17684 22.2385 12.3216 61367.8
8.41063 22.6858 11.7977 65982.1
-0.55194 -38.3185 2.45908 67475.4
-0.0264531 -41.1471 -1.11758 67318.4
-32.5911 -20.3229 5.05872 66145.9
-35.4223 -13.8746 4.89058 67598.2
-35.9542 -14.3153 4.54304 66973
9.86446 51.2896 -2.57761 65959.8
3.31206 45.6325 2.99227 66165.5
6.2511 44.8581 3.00236 67646.4
10.9106 49.6326 -1.62055 65559.1
-39.6977 -1.78073 3.27677 56790.3
-34.1015 -0.84265 7.58257 67800.7
-36.6543 1.29797 5.89707 64886.3
-38.9254 0.527531 4.04208 64724.3
4.14712 37.7369 6.70884 67997.7
10.2273 42.5441 3.3612 68294.6
7.68659 43.2099 3.62086 68067.2
3.9268 12.8485 14.3882 59870.9
11.7216 -10.6886 14.7577 64826.6
14.8584 -10.8106 14.0734 64859.3
16.5198 -6.21495 14.0143 66312.6
13.4787 -3.56462 14.6287 64499.4
11.0043 -4.81422 14.9733 69016.5
-8.3444 51.0068 -3.02486 67996.1
8.67092 -5.4768 15.1594 65810
7.29838 -10.6911 14.9269 66395.2
9.39273 -11.6929 14.7901 66370.2
-32.9472 -21.0011 4.79373 67584.2
-35.2888 -21.9545 3.7058 62425.5
-35.4814 -22.7756 3.48627 62803.6
12.3042 24.5633 10.3848 68154.6
23.2481 -26.3149 7.34032 68045.8
24.8497 -27.6358 5.77048 68170.4
28.0447 -20.0612 7.27625 68228.7
5.39636 -18.0783 13.7987 64637.4
-41.4112 4.11676 1.31868 63144.3
-36.4526 3.68179 5.93558 65578.2
-39.1232 8.88986 2.6987 66738.2
-40.7965 9.47399 0.721504 56250.8
-42.2967 8.27267 -0.494212 63311.3
9.85365 -23.426 12.676 67402.3
-39.1785 -14.6963 2.83255 61700.1
-37.226 -8.22688 4.7172 67569.4
-39.5899 -7.48286 2.98505 67084.6
-41.5295 -8.98333 1.54921 62358.2
-42.0172 -10.3094 1.22839 62948.8
-2.3865 45.1709 3.00841 68143.8
-30.0781 34.2117 -4.75945 53176
8.59642 -37.994 2.871 67488.3
9.78606 -39.37 0.796099 67278.9
16.9445 -36.1347 3.2127 66903.4
9.22251 5.9067 14.7194 64646.1
9.55116 13.2693 14.0651 65809
4.92105 14.3284 14.1306 63971
-14.0346 -14.5646 12.8773 65355.5
5.47563 0.534487 15.4146 64775.8
6.39906 -0.565515 15.4173 64089
10.2033 4.96625 14.7316 65244.1
9.69629 -27.9556 10.5819 67359.2
10.4774 -25.8645 11.5608 68469
4.922 -29.0971 10.096 68199.2
-37.2849 -24.7106 2.38787 66279.8
-36.5577 -24.201 2.78552 62891.6
-39.6801 -18.0657 2.4423 58287.7
-41.4902 -19.065 1.46775 63020.2
-16.6207 -36.4284 1.23589 67069.7
-18.9999 -39.2775 -2.07611 62830.1
1.18646 41.2109 5.34989 67829.8
1.61014 44.1807 3.88866 64815.4
-41.7349 15.7381 -2.61169 57630
-41.0459 13.9806 -1.00672 53647.8
-38.5464 15.1043 1.40038 61053.5
-36.751 21.0371 0.170635 60579
-38.6496 20.8438 -1.7641 52887
-0.215203 -3.63056 15.1114 63477
1.9085 -6.62301 15.1202 65335.3
10.4616 18.3186 12.8216 67674.2
4.6459 17.807 13.5523 67665.9
11.1463 14.6273 13.6499 66658.1
1.72326 37.8314 6.74799 64955
3.65637 -32.9665 7.91593 68535.4
34.7053 10.175 6.68319 64580
32.4922 1.94649 8.09516 63993.5
4.06311 -34.004 7.19756 68370.9
3.67622 -37.013 4.28186 67202.2
-25.1167 -35.3071 0.174061 64784.4
-42.5845 -19.0718 0.894128 62628.8
-39.7685 -16.1491 2.49983 64523.8
-45.6519 -14.0898 -0.989054 56914.4
17.9394 -27.4425 9.11327 68465.9
21.7645 -32.7987 3.75662 66968.7
16.882 -25.0295 10.624 68550.4
20.1962 -19.9853 10.879 68159.8
15.9074 -24.125 11.3143 68491.1
6.86153 -4.80235 15.2173 64917.3
0.566373 -1.7944 15.2262 67918.1
2.33897 -37.8932 3.23196 67805.4
5.24359 -41.0585 -1.13205 66082
-38.1836 -26.2189 1.6588 62019.6
-31.4083 29.3405 -1.27567 55098.3
-33.3749 27.0765 -1.15541 55767.7
-33.4593 23.4548 1.46736 50620.6
-46.8979 -6.02317 -2.68812 61339.1
-45.3796 -4.38993 -1.41599 53568.6
-45.3676 -2.95817 -1.52954 61298.9
-48.9597 -1.00584 -5.83892 60507.7
-33.1625 18.8271 4.22964 61499.9
-36.0902 15.3263 3.61464 64319.7
-35.7914 12.4758 4.77597 67319.4
-31.0156 -30.473 2.11655 64191.6
-44.8394 1.27161 -1.5253 54648.9
-46.6618 2.70181 -3.946 56282.5
-44.2116 -2.18645 -0.570047 54167.9
12.134 4.69347 14.6081 63797.9
14.0487 6.5317 14.2928 67240.2
12.7025 14.29 13.4802 65859.6
14.3084 0.700833 14.496 67059.2
-31.4781 32.1924 -4.22681 48422.9
15.97 14.6108 12.6822 66051
17.0996 16.1134 12.0136 64525.3
15.5285 19.6705 11.4002 68085.4
15.8495 21.2278 10.8085 68732.6
14.9812 23.5137 10.1766 65985.3
-45.6163 -10.7891 -1.226 58605.6
16.8048 38.0613 3.67343 68264.5
14.7468 43.3229 1.37026 66435.8
12.081 44.2816 1.75027 67958.5
-41.0738 -3.59102 2.01044 63260
-44.7611 8.6058 -3.28166 50735.6
13.4628 48.1119 -1.6112 65061
-37.254 9.05649 4.41803 65939.9
-35.0747 7.02337 6.45896 67328.8
-43.4769 16.2108 -5.08646 62968.1
-39.481 22.584 -4.13206 58936
-34.6009 21.0844 1.95578 58493.5
-35.5179 27.6114 -3.8141 60172.4
-32.1688 -31.7692 1.22932 56993
7 374 124 44 43 48 244 386 1337
5 356 355 391 403 404 1340
4 309 404 403 308 1476
5 355 269 268 390 391 1341
6 367 387 390 268 273 365 1361
6 299 30 29 33 387 367 1360
6 365 366 347 297 299 367 1342
6 298 297 347 286 285 341 1343
5 341 288 287 291 298 1290
7 289 288 341 285 284 333 332 1345
6 332 331 401 382 290 289 1561
5 353 125 124 374 375 1347
6 363 362 402 381 382 401 1576
6 125 353 294 293 37 36 1663
5 375 314 295 294 353 1410
8 401 331 329 328 423 420 364 363 1408
4 388 235 234 389 1233
6 256 255 362 363 364 358 1348
5 362 255 254 275 402 1375
6 2 1 254 255 256 257 1590
6 358 359 360 324 257 256 1373
5 292 293 294 295 296 1415
5 292 330 38 37 293 1653
5 388 303 302 236 235 1425
7 383 307 306 384 360 359 385 1376
6 88 389 234 233 176 83 1660
6 304 305 279 278 306 307 1235
6 306 278 250 9 8 384 1393
4 300 301 302 303 1489
5 267 266 305 304 337 1418
7 279 305 266 265 243 242 276 1320
7 262 261 321 386 244 243 265 1644
5 321 261 260 322 323 1383
7 323 315 314 375 374 386 321 1655
6 313 296 295 314 315 316 1355
5 103 102 67 66 252 1670
5 308 63 62 150 309 1657
8 403 391 390 387 33 32 63 308 1241
5 355 356 357 270 269 1432
7 297 298 291 27 26 30 299 1362
5 27 291 287 13 12 1669
6 14 13 287 288 289 290 1363
7 280 281 282 283 284 285 286 1444
7 381 20 19 15 14 290 382 1671
5 329 331 332 333 325 1368
6 20 381 402 275 274 21 1334
7 204 198 202 415 437 438 230 1515
5 254 1 0 274 275 1673
5 257 324 7 3 2 1379
5 265 266 267 263 262 1380
7 258 259 260 261 262 263 264 1454
5 324 360 384 8 7 1306
6 433 436 316 315 323 322 1254
5 9 250 251 50 10 1336
6 276 277 251 250 278 279 1397
5 161 277 276 242 162 1661
6 242 243 244 48 47 162 1677
6 116 233 234 235 236 117 1662
6 268 269 270 271 272 273 1437
7 366 365 273 272 396 398 400 1440
6 22 21 274 0 5 79 1651
5 286 347 366 400 280 1441
5 325 333 284 283 326 1445
4 409 410 411 412 1251
6 202 201 229 413 414 415 1277
5 325 326 327 328 329 1447
5 417 418 412 411 419 1422
7 358 364 420 421 422 385 359 1411
6 385 422 425 426 427 383 1273
7 383 427 428 429 337 304 307 1451
5 430 395 394 348 352 1435
6 260 259 431 432 433 322 1458
5 430 352 351 410 409 1436
6 410 351 350 434 419 411 1438
5 435 418 417 342 346 1439
5 316 436 212 211 313 1462
6 435 346 345 377 376 439 1258
6 75 117 236 302 301 70 1665
7 229 193 192 191 408 441 413 1282
4 405 368 371 393 1263
5 393 371 370 394 395 1433
6 419 434 317 320 342 417 1264
4 380 440 439 376 1453
7 177 121 123 185 246 247 248 1296
5 247 421 420 423 248 1480
5 246 425 422 421 247 1483
6 368 369 336 335 370 371 1469
7 348 312 311 349 350 351 352 1470
8 337 429 175 174 228 264 263 267 1486
7 342 320 319 343 344 345 346 1472
7 345 344 437 415 414 378 377 1473
5 376 377 378 379 380 1474
6 436 433 432 215 213 212 1493
7 312 348 394 370 335 334 310 1478
6 350 349 241 240 317 434 1471
6 317 240 239 318 319 320 1482
4 343 438 437 344 1271
4 397 271 270 357 1505
5 378 414 413 441 379 1278
7 380 379 441 408 407 442 440 1484
5 398 399 281 280 400 1279
6 197 187 186 354 424 406 1530
6 327 326 283 282 195 196 1513
5 443 416 369 368 405 1680
5 416 225 224 336 369 1679
7 196 178 177 248 423 328 327 1516
6 241 349 311 217 216 237 1496
6 319 318 231 230 438 343 1498
5 426 425 246 185 184 1518
4 424 442 407 406 1499
7 428 427 426 184 170 169 173 1297
4 173 175 429 428 1286
5 264 228 165 164 258 1487
6 300 253 183 71 70 301 1667
6 164 163 245 431 259 258 1521
5 215 432 431 245 214 1523
5 334 335 336 224 223 1495
6 310 219 218 217 311 312 1276
5 237 238 239 240 241 1281
7 227 226 232 231 318 239 238 1512
6 191 190 197 406 407 408 1283
6 396 272 271 397 339 338 1536
6 338 130 129 399 398 396 1539
6 443 392 181 180 225 416 1519
6 310 334 223 222 220 219 1509
6 399 129 132 195 282 281 1511
6 216 208 207 227 238 237 1524
6 230 231 232 205 203 204 1526
6 201 200 159 158 193 229 1541
5 252 66 65 183 253 1333
5 165 228 174 69 68 1550
6 180 179 222 223 224 225 1292
6 222 179 152 151 221 220 1534
6 218 219 220 221 206 209 1537
5 209 208 216 217 218 1522
4 214 210 213 215 1525
6 226 227 207 171 168 167 1293
6 167 141 140 205 232 226 1540
6 210 105 104 211 212 213 1555
4 140 139 203 205 1552
8 203 139 138 135 134 199 198 204 1295
5 198 199 200 201 202 1527
6 156 155 187 197 190 157 1544
3 186 188 354 1689
8 206 146 145 172 171 207 208 209 1298
5 134 133 159 200 199 1554
6 195 132 85 84 178 196 1574
6 192 193 158 108 107 189 1569
7 189 97 96 157 190 191 192 1556
6 186 187 155 126 128 188 1557
6 170 184 185 123 119 118 1580
5 373 372 182 181 392 1563
6 179 180 181 182 153 152 1564
6 146 206 221 151 148 142 1549
8 173 169 73 72 64 69 174 175 1582
4 171 172 166 168 1566
6 166 110 109 141 167 168 1302
7 68 67 102 101 163 164 165 1583
6 245 163 101 105 210 214 1553
6 108 158 159 133 100 99 1568
5 157 96 95 94 156 1571
6 94 91 92 126 155 156 1573
6 148 151 152 153 154 147 1579
6 147 58 57 143 142 148 1592
5 142 143 144 145 146 1581
8 172 145 144 249 361 111 110 166 1594
7 115 137 138 139 140 141 109 1567
7 135 138 137 81 80 78 77 1598
6 77 76 100 133 134 135 1303
5 338 339 340 131 130 1602
6 129 130 131 86 85 132 1572
6 126 92 90 89 127 128 1585
7 176 122 121 177 178 84 83 1307
5 149 61 60 372 373 1604
5 121 122 120 119 123 1578
6 182 372 60 59 154 153 1591
5 56 249 144 143 57 1593
5 118 74 73 169 170 1309
7 109 110 111 112 113 114 115 1596
5 115 114 82 81 137 1597
6 99 52 51 106 107 108 1308
6 189 107 106 160 98 97 1600
5 101 102 103 104 105 1615
6 53 52 99 100 76 54 1606
5 95 96 97 98 93 1607
6 93 46 49 91 94 95 1608
6 91 49 42 41 90 92 1609
6 89 90 41 45 35 40 1610
5 40 39 136 127 89 1310
7 58 147 154 59 34 28 31 1312
7 24 17 16 194 361 249 56 1618
4 111 361 194 112 1605
6 83 84 85 86 87 88 1635
5 82 114 113 18 23 1620
6 79 80 81 82 23 22 1621
5 76 77 78 55 54 1623
5 233 116 120 122 176 1319
7 116 117 75 74 118 119 120 1321
6 70 71 72 73 74 75 1643
4 39 38 330 136 1625
5 72 71 183 65 64 1323
6 64 65 66 67 68 69 1614
4 149 150 62 61 1322
7 34 59 60 61 62 63 32 1629
6 31 25 24 56 57 58 1631
7 194 16 15 19 18 113 112 1317
7 5 4 6 55 78 80 79 1636
5 53 54 55 6 11 1638
6 11 10 50 51 52 53 1639
7 50 251 277 161 160 106 51 1640
7 46 93 98 160 161 162 47 1326
6 46 47 48 43 42 49 1327
5 41 42 43 44 45 1641
6 35 36 37 38 39 40 1642
5 32 33 29 28 34 1646
6 28 29 30 26 25 31 1647
6 12 17 24 25 26 27 1648
4 340 87 86 131 1632
6 18 19 20 21 22 23 1634
6 12 13 14 15 16 17 1330
8 6 4 3 7 8 9 10 11 1659
6 45 44 124 125 36 35 1328
6 0 1 2 3 4 5 1674
