ply
format ascii 1.0
comment Exported from MorphoGraphX 2.0.1-254
comment Cell Graph: each vertex is a cell, each edge a wall
element vertex 180
property int label
property float x
property float y
property float z
element edge 497
property uint source
property uint target
end_header
3269 0 0 0 
3271 0 0 0 
3279 0 0 0 
3281 0 0 0 
3282 0 0 0 
3283 0 0 0 
3284 0 0 0 
3290 0 0 0 
3292 0 0 0 
3295 0 0 0 
3304 0 0 0 
3307 0 0 0 
3308 0 0 0 
3311 0 0 0 
3312 0 0 0 
3316 0 0 0 
3317 0 0 0 
3319 0 0 0 
3330 0 0 0 
3334 0 0 0 
3335 0 0 0 
3336 0 0 0 
3337 0 0 0 
3338 0 0 0 
3345 0 0 0 
3346 0 0 0 
3347 0 0 0 
3348 0 0 0 
3351 0 0 0 
3353 0 0 0 
3354 0 0 0 
3356 0 0 0 
3357 0 0 0 
3358 0 0 0 
3359 0 0 0 
3360 0 0 0 
3362 0 0 0 
3363 0 0 0 
3364 0 0 0 
3365 0 0 0 
3369 0 0 0 
3371 0 0 0 
3372 0 0 0 
3373 0 0 0 
3374 0 0 0 
3377 0 0 0 
3378 0 0 0 
3380 0 0 0 
3381 0 0 0 
3385 0 0 0 
3392 0 0 0 
3394 0 0 0 
3395 0 0 0 
3396 0 0 0 
3397 0 0 0 
3403 0 0 0 
3409 0 0 0 
3410 0 0 0 
3420 0 0 0 
3421 0 0 0 
3424 0 0 0 
3436 0 0 0 
3447 0 0 0 
3448 0 0 0 
3451 0 0 0 
3453 0 0 0 
3459 0 0 0 
3462 0 0 0 
3464 0 0 0 
3465 0 0 0 
3470 0 0 0 
3471 0 0 0 
3472 0 0 0 
3475 0 0 0 
3478 0 0 0 
3480 0 0 0 
3481 0 0 0 
3482 0 0 0 
3483 0 0 0 
3484 0 0 0 
3486 0 0 0 
3487 0 0 0 
3488 0 0 0 
3489 0 0 0 
3490 0 0 0 
3491 0 0 0 
3498 0 0 0 
3499 0 0 0 
3500 0 0 0 
3507 0 0 0 
3510 0 0 0 
3511 0 0 0 
3513 0 0 0 
3514 0 0 0 
3517 0 0 0 
3519 0 0 0 
3520 0 0 0 
3521 0 0 0 
3522 0 0 0 
3523 0 0 0 
3528 0 0 0 
3532 0 0 0 
3533 0 0 0 
3534 0 0 0 
3535 0 0 0 
3536 0 0 0 
3538 0 0 0 
3539 0 0 0 
3542 0 0 0 
3544 0 0 0 
3547 0 0 0 
3548 0 0 0 
3550 0 0 0 
3551 0 0 0 
3552 0 0 0 
3553 0 0 0 
3554 0 0 0 
3555 0 0 0 
3556 0 0 0 
3563 0 0 0 
3564 0 0 0 
3565 0 0 0 
3566 0 0 0 
3569 0 0 0 
3573 0 0 0 
3574 0 0 0 
3575 0 0 0 
3577 0 0 0 
3578 0 0 0 
3579 0 0 0 
3581 0 0 0 
3584 0 0 0 
3585 0 0 0 
3588 0 0 0 
3589 0 0 0 
3591 0 0 0 
3596 0 0 0 
3597 0 0 0 
3598 0 0 0 
3602 0 0 0 
3603 0 0 0 
3605 0 0 0 
3606 0 0 0 
3607 0 0 0 
3608 0 0 0 
3613 0 0 0 
3614 0 0 0 
3615 0 0 0 
3616 0 0 0 
3619 0 0 0 
3620 0 0 0 
3624 0 0 0 
3628 0 0 0 
3630 0 0 0 
3631 0 0 0 
3632 0 0 0 
3633 0 0 0 
3634 0 0 0 
3635 0 0 0 
3636 0 0 0 
3637 0 0 0 
3638 0 0 0 
3641 0 0 0 
3644 0 0 0 
3645 0 0 0 
3648 0 0 0 
3649 0 0 0 
3650 0 0 0 
3651 0 0 0 
3652 0 0 0 
3655 0 0 0 
3656 0 0 0 
3657 0 0 0 
3658 0 0 0 
3659 0 0 0 
3660 0 0 0 
3661 0 0 0 
3662 0 0 0 
3668 0 0 0 
3669 0 0 0 
3269 3279
3269 3385
3269 3410
3269 3451
3269 3453
3269 3658
3271 3283
3271 3284
3271 3459
3271 3483
3271 3598
3271 3657
3279 3374
3279 3385
3279 3410
3279 3420
3279 3615
3279 3634
3281 3283
3281 3292
3281 3307
3281 3385
3281 3420
3281 3421
3282 3470
3282 3475
3282 3597
3282 3624
3282 3637
3282 3662
3283 3307
3283 3421
3283 3483
3283 3657
3284 3598
3284 3636
3284 3650
3284 3657
3290 3334
3290 3377
3290 3448
3290 3471
3290 3500
3290 3544
3292 3307
3292 3385
3292 3453
3292 3511
3292 3513
3295 3424
3295 3447
3295 3459
3295 3488
3295 3517
3295 3598
3304 3316
3304 3465
3304 3472
3304 3486
3304 3499
3307 3483
3307 3513
3307 3514
3308 3392
3308 3424
3308 3488
3308 3490
3308 3556
3308 3584
3311 3395
3311 3397
3311 3491
3312 3396
3312 3436
3312 3550
3312 3655
3316 3317
3316 3472
3316 3499
3316 3520
3316 3521
3317 3472
3317 3489
3317 3521
3317 3536
3319 3489
3319 3510
3319 3522
3319 3523
3330 3486
3330 3498
3330 3499
3330 3520
3330 3534
3330 3535
3330 3551
3330 3565
3334 3448
3334 3471
3334 3538
3334 3574
3334 3633
3334 3635
3335 3478
3335 3480
3335 3487
3335 3550
3335 3602
3335 3661
3336 3359
3336 3360
3336 3451
3336 3453
3336 3511
3336 3513
3336 3542
3336 3577
3337 3338
3337 3520
3337 3521
3337 3551
3337 3566
3337 3588
3338 3347
3338 3521
3338 3536
3338 3588
3338 3589
3345 3356
3345 3573
3345 3585
3346 3357
3346 3358
3346 3563
3346 3564
3346 3605
3346 3615
3347 3536
3347 3553
3347 3578
3347 3589
3347 3607
3347 3620
3348 3364
3348 3365
3348 3539
3348 3555
3348 3569
3348 3591
3348 3608
3351 3470
3351 3597
3351 3633
3351 3635
3353 3547
3353 3548
3353 3573
3353 3575
3353 3585
3353 3603
3353 3614
3354 3358
3354 3551
3354 3565
3354 3566
3354 3588
3354 3606
3354 3616
3356 3585
3356 3613
3356 3628
3357 3374
3357 3605
3357 3615
3358 3564
3358 3565
3358 3615
3358 3616
3358 3634
3359 3360
3359 3542
3359 3574
3359 3635
3359 3637
3359 3662
3360 3369
3360 3577
3360 3662
3362 3371
3362 3373
3362 3396
3362 3554
3362 3556
3363 3373
3363 3409
3363 3584
3364 3365
3364 3591
3364 3638
3364 3659
3365 3608
3365 3652
3365 3659
3365 3660
3369 3577
3369 3579
3369 3631
3369 3641
3369 3644
3369 3662
3371 3378
3371 3396
3371 3554
3371 3581
3371 3641
3371 3655
3372 3528
3372 3613
3372 3628
3372 3656
3373 3396
3373 3409
3373 3436
3373 3556
3373 3584
3374 3410
3374 3605
3374 3615
3374 3632
3377 3403
3377 3448
3377 3544
3377 3658
3378 3487
3378 3641
3378 3644
3378 3655
3380 3447
3380 3598
3380 3620
3380 3650
3380 3651
3381 3392
3381 3424
3381 3447
3381 3638
3381 3651
3381 3659
3385 3420
3385 3453
3392 3394
3392 3424
3392 3490
3392 3659
3394 3395
3394 3490
3394 3491
3394 3659
3395 3397
3395 3491
3395 3659
3395 3660
3396 3436
3396 3655
3397 3652
3397 3660
3403 3410
3403 3544
3403 3630
3403 3632
3403 3658
3409 3436
3410 3632
3410 3658
3420 3421
3420 3634
3420 3648
3421 3648
3421 3649
3421 3657
3424 3447
3424 3488
3447 3598
3447 3651
3448 3451
3448 3542
3448 3574
3448 3658
3451 3453
3451 3542
3451 3658
3453 3511
3459 3483
3459 3517
3459 3552
3459 3598
3462 3464
3462 3481
3462 3482
3464 3465
3464 3482
3464 3484
3465 3484
3465 3486
3465 3498
3470 3475
3470 3596
3470 3597
3471 3500
3471 3538
3472 3489
3475 3478
3475 3596
3475 3602
3475 3624
3478 3480
3478 3602
3478 3624
3478 3631
3480 3487
3480 3631
3480 3644
3481 3482
3481 3507
3481 3668
3482 3484
3482 3507
3482 3519
3483 3514
3483 3552
3484 3498
3484 3519
3486 3498
3486 3499
3487 3550
3487 3644
3487 3655
3488 3517
3488 3554
3488 3556
3489 3522
3489 3536
3490 3491
3490 3584
3491 3584
3498 3519
3498 3534
3499 3520
3500 3528
3500 3544
3507 3519
3507 3532
3507 3533
3507 3668
3507 3669
3510 3523
3510 3539
3510 3555
3511 3513
3513 3514
3513 3577
3514 3552
3514 3577
3514 3579
3517 3552
3517 3554
3517 3581
3519 3533
3519 3534
3520 3521
3520 3551
3521 3536
3522 3523
3522 3536
3522 3553
3523 3553
3523 3555
3528 3544
3528 3656
3532 3533
3532 3548
3532 3575
3532 3669
3533 3534
3533 3563
3533 3575
3534 3535
3534 3563
3534 3564
3535 3564
3535 3565
3536 3553
3538 3633
3539 3555
3539 3569
3542 3574
3544 3630
3544 3645
3544 3656
3547 3548
3547 3573
3547 3669
3548 3575
3548 3669
3550 3655
3550 3661
3551 3565
3551 3566
3552 3579
3552 3581
3552 3641
3553 3555
3553 3578
3554 3556
3554 3581
3555 3578
3555 3591
3556 3584
3563 3564
3563 3575
3563 3605
3564 3565
3566 3588
3569 3608
3573 3585
3574 3635
3575 3603
3575 3605
3577 3579
3578 3591
3578 3607
3578 3638
3579 3641
3581 3641
3585 3613
3585 3614
3588 3589
3588 3606
3588 3619
3588 3636
3589 3619
3589 3620
3591 3638
3596 3602
3597 3635
3597 3637
3598 3650
3602 3661
3603 3605
3603 3614
3603 3630
3603 3632
3605 3632
3606 3616
3606 3636
3607 3620
3607 3638
3607 3651
3608 3652
3613 3614
3613 3628
3613 3656
3614 3630
3614 3645
3614 3656
3615 3634
3616 3634
3616 3636
3616 3648
3616 3649
3619 3620
3619 3636
3619 3650
3620 3650
3620 3651
3624 3631
3624 3662
3630 3632
3630 3645
3631 3644
3631 3662
3633 3635
3634 3648
3635 3637
3636 3649
3636 3650
3636 3657
3637 3662
3638 3651
3638 3659
3641 3644
3645 3656
3648 3649
3649 3657
3652 3660
3659 3660
3668 3669
