ply
format ascii 1.0
comment Exported from MorphoGraphX 2.0 1-254
comment Cellular mesh
element vertex 360
property float x
property float y
property float z
property float signal
element face 181
property list int int vertex_index
property int label
end_header
32.8358 -14.6818 9.29373 62237.8
31.0801 -12.6836 10.5736 65654.9
29.3559 -12.7088 11.3582 66262.7
25.9051 -19.6036 10.9614 67016.6
26.8233 -21.1696 9.99374 67088.3
30.3254 -20.2336 8.82533 65449.9
31.7732 -17.7974 8.98861 66368
26.8853 -4.56675 13.4211 65668.6
24.3036 -8.09592 14.0853 64218.2
27.2634 -12.1589 12.3523 65654
32.2789 -9.31829 10.6349 66980.2
28.7961 -4.44174 12.653 66788.8
-2.51219 26.3481 14.1017 67485.6
-1.85301 27.6025 13.5931 65808.6
-4.09699 31.1525 11.9524 64960
-5.23002 31.982 11.4358 63957.3
-9.83931 30.4409 11.6079 64797.8
-9.43096 28.5516 12.7363 67329.7
-3.7134 24.0629 14.9856 64484.8
-9.73474 27.7845 13.1158 67492.3
-8.51985 24.5571 14.7582 65718.2
-11.184 20.9911 15.9855 65336.4
-12.2975 17.03 17.1948 64483.2
-9.89253 14.1336 17.9568 65234.3
-6.8892 15.9589 17.6408 66821
-5.02168 18.0566 17.0566 67424.8
-7.38439 0.860609 18.3854 66800.3
-4.40091 3.50921 18.5056 64108.4
-6.33142 8.16548 18.508 66347.5
-7.96136 8.32546 18.4857 66742.7
-11.5901 6.87149 18.4188 64930.8
25.1466 17.0086 12.0904 66157.2
22.1086 14.5182 14.454 67735.9
26.1877 9.79503 13.6536 67092.8
28.7544 11.154 11.9365 64707.2
28.607 14.5353 10.9243 65081.3
27.5781 3.17855 13.4296 67325.3
24.7972 8.16158 14.462 67752.2
21.9084 7.19137 15.5293 66377.2
20.9458 5.20696 15.836 63831.1
24.183 0.857274 14.6971 67612.2
24.6868 -18.8439 11.7054 65088.4
23.3694 -16.8352 12.774 66521
-17.3791 10.4208 17.7459 66019.5
-15.6706 9.59806 18.0553 67930.7
-10.0497 12.5951 18.182 66791.8
-15.9344 16.6414 16.9973 66015
-18.0535 14.5781 17.0519 65825.5
-13.6129 6.80263 18.298 65777.3
-8.8956 -8.06118 17.5804 64890.6
-8.19767 -5.55633 17.8311 64824.7
-10.47 -2.62075 18.0946 65315.5
-12.2352 -1.74283 18.1245 66224
-15.9048 -3.64333 17.6552 67076.8
-16.2127 -4.73718 17.4275 66929.9
-11.7858 -9.68053 17.1857 66401.8
-17.7207 -28.983 11.7272 66493.8
-15.2445 -32.1228 10.7443 64587.3
-12.685 -31.3512 11.3461 66009
-10.3462 -28.3876 12.6562 65105
-13.018 -24.9166 13.5855 66119.9
-16.9007 -25.7497 12.8764 67669.4
-17.841 -26.3142 12.5653 67612.8
-11.8407 22.4382 15.3933 64276.5
-14.735 23.964 14.3048 64509.1
-18.1924 21.3498 14.8853 67608.5
-18.5842 -1.85585 17.4183 67141.4
-14.7985 2.32962 18.1754 65364.2
23.8365 -0.620937 14.7946 66372.2
20.1578 -2.23562 16.0006 67933.8
22.5484 -8.31608 14.7249 66886.7
-16.4589 -19.7726 14.5977 65464.9
-19.4328 -18.3767 14.2466 64352.4
-20.4647 -19.2732 13.7562 67524.6
-13.0626 -21.7086 14.6004 66432.1
33.1051 -34.2706 -1.30152 48174.4
32.1363 -32.1888 1.0344 62585.4
31.0534 -31.0257 2.5429 61116.3
25.0791 -33.4861 4.06383 62218.1
25.2431 -35.4219 2.57804 61343.7
25.4468 -35.9975 2.02295 59852.1
21.2309 -9.11618 15.087 67198.8
21.9641 -16.6589 13.2848 65550.6
-20.4817 21.43 14.2534 67283.4
-16.1545 26.5983 12.5371 67064.8
-18.0971 28.5539 10.7641 63291.4
-22.1481 27.6143 10.1411 64417.9
-21.9023 25.0765 11.9159 66984.3
-22.9763 19.1578 14.3315 65093.2
-20.9228 14.5098 16.2697 65987.5
-20.8902 2.92993 17.2039 63501.3
-22.283 0.748883 16.739 62221.4
-19.8997 -1.34279 17.1753 67235.3
-15.6705 3.61888 18.1035 64988.4
-19.2977 -15.2857 14.9879 67874.2
-16.4876 -11.7738 16.2023 65023.3
-20.4849 -9.15558 15.7288 63033.2
-23.4749 -11.1772 14.48 67192
45.4007 -18.6583 0.696161 55673.7
42.4239 -16.5604 3.68719 62461.9
39.458 -21.7508 3.3069 61466.6
41.4945 -22.4335 1.67945 55773.8
-21.5297 -33.0066 9.54328 66931.1
-16.5303 -33.6896 9.92855 61726.2
-23.3427 -29.9838 10.202 66789.9
-20.2114 -8.27337 15.9451 63832.6
-22.8016 -6.18782 15.5594 66775.3
20.6206 14.3616 15.0683 67545.8
24.2958 19.8002 11.3668 63574.1
20.7855 20.7952 12.7993 66110.7
16.784 18.969 14.9724 66934.8
-23.7315 -21.7949 12.1767 63795.6
-22.8954 -25.4449 11.5785 64654.6
-21.9651 -19.5743 13.2563 67421.8
-24.4372 -28.5274 10.3263 60904.9
18.0149 12.0855 16.34 66311.1
16.227 -5.0933 16.6722 65978.1
18.3486 -8.87617 15.9129 62996.9
19.573 -2.03355 16.1672 67217.2
-5.00074 -3.98323 18.0203 66218.4
-3.67561 -4.14028 18.0135 65273.9
-1.13557 -2.33974 18.1818 60032.8
-0.758707 -0.470549 18.3403 65840.8
-1.20766 2.22367 18.5049 63891.5
-7.42444 0.575862 18.3708 66991.4
20.1333 -17.1437 13.6912 65309.6
16.4766 -11.278 16.0273 65890.3
17.7436 -13.295 15.4501 67808.7
-27.0825 22.7105 10.9412 66544.2
-25.6677 20.1871 12.9289 67135.5
16.102 -19.8181 13.8983 66620.6
17.1041 -22.424 12.8377 65138
19.2332 -25.0579 11.1958 60783.6
21.1832 -25.2932 10.4347 61464.1
17.4093 4.35177 16.8588 66349
16.434 2.94154 17.0627 67302
16.2945 12.0954 16.773 67713.9
12.3661 14.7112 17.0456 66618.6
9.78507 13.4527 17.6597 65125.7
9.20959 11.0881 18.0545 66307.8
11.5659 7.86153 18.0297 67479.6
14.3518 7.76293 17.593 67729.6
39.7998 -13.7805 5.98799 59286.8
40.5783 -12.1063 5.92201 55085.9
39.2221 -9.17986 7.17483 64190.2
35.3859 -10.3838 8.96824 63787.3
34.772 -14.6464 8.35116 64660.9
36.5067 -15.746 7.2123 62309.8
-11.9712 31.5342 10.5818 65536.4
-17.4432 30.6389 9.55885 63685.2
-5.55444 -25.1728 14.0748 66745.1
-5.77891 -23.2796 14.7054 67602.5
-11.3545 -20.3437 15.2286 67178.1
-7.48324 -28.1944 12.9166 64626.9
-11.9239 -48.6852 0.578646 54241.8
-10.3405 -45.207 3.82911 62461
-13.0093 -42.7482 5.72086 62408.9
-14.8906 -44.4388 4.42016 57896.8
45.7298 -11.285 2.66118 48685.3
43.6091 -11.3481 4.17884 59744.9
36.9018 -18.3866 6.22069 62646.3
37.7398 -21.2586 4.55379 57909
-12.6457 -14.395 16.3514 65042.4
-13.8328 -12.0916 16.5596 62778
13.8531 -3.50951 17.1771 63883
10.9631 -6.05166 17.3896 66574.5
12.6876 -11.6614 16.477 64873.5
-2.4449 -7.83734 17.6677 67165.1
-3.23697 -10.7395 17.4508 64037.7
-0.298726 -12.7863 17.0241 64330.4
2.51437 -9.35141 17.2601 60979.4
1.71648 -7.07379 17.6273 64397.9
-3.24538 12.9621 18.2335 67507.5
0.65838 15.1455 17.8541 65942.9
0.669789 18.2001 17.0283 64178.7
-1.69875 19.5109 16.584 63987.2
5.12201 24.6646 14.5994 67494.4
12.5765 23.92 14.1778 67618.2
13.3607 25.921 13.1482 66136.2
10.9569 28.6264 12.461 61104.9
5.5017 27.9449 13.2999 63858.9
-27.7913 4.0901 15.0666 67062.8
-24.8333 -0.547989 15.7614 65515.8
-22.4599 5.57941 16.8036 65913.6
-25.2394 6.31603 16.0015 65078.5
-19.1049 32.8228 7.40506 66626
-24.2612 28.325 8.62531 66682.5
35.7113 -23.5886 4.49541 60534
32.2193 -22.0693 7.17183 65977.2
32.7981 19.441 5.7216 64250.4
33.2453 19.6345 5.26368 64036.9
28.3105 25.363 5.96483 59007.6
27.4953 22.171 8.19601 66421.3
14.0876 18.7326 15.7066 65940.5
-18.4379 -38.9054 7.41839 58088
-15.4144 -37.4769 8.4082 61832.7
-22.3993 -34.7012 8.66671 65509.9
17.2116 -37.5047 4.79026 64858.6
16.8593 -36.2135 5.87453 65520.8
11.4822 -35.0519 8.11048 65240
8.90416 -38.3298 6.56654 64629
9.06056 -38.6284 6.32957 62926.3
11.0231 -40.1212 4.75673 64101.2
2.60462 -34.337 10.1165 65754.7
0.823841 -36.088 9.3647 65285.4
2.40673 -40.3469 6.57691 67326.4
3.69195 -42.4843 4.57767 64054.1
6.11506 -41.9393 4.58246 62388
4.54618 -33.6631 10.2275 66208.1
34.2905 -7.64862 9.88812 65295.8
-0.623241 -26.2716 13.7854 67750.4
1.59084 -21.3957 15.1671 67342.5
-2.19698 -17.7324 16.193 64798.1
-5.02588 -19.7019 15.696 64548.7
12.9491 -41.8484 2.7994 61534.5
8.33607 -45.3663 1.03923 59903.3
-32.8388 -19.1985 8.51805 62550.5
-28.8628 -20.2578 10.5594 64880.3
-27.6963 -16.9928 11.889 67591.1
-32.9968 -13.6653 9.42793 65155.3
-34.0095 -15.171 8.43237 62967.2
35.3748 -26.3335 3.14423 49857.7
36.7825 -27.9668 1.30738 60663.3
39.2193 -29.6527 -1.76808 37974.3
28.4781 -27.4097 6.05273 61451.6
30.5989 -28.6401 4.27075 56951.8
24.8867 -33.1978 4.37757 62975.1
17.5918 -33.6199 7.36238 64396.8
17.6825 -38.763 3.64171 61679.7
7.67342 -0.698927 18.1803 65525.2
6.18629 1.08273 18.433 67520.3
1.92742 -4.72956 17.9333 64439
5.7121 -2.89763 18.0874 67475.5
16.4977 -29.7443 9.83929 64399.8
10.9371 -23.7075 13.626 66912.7
9.73418 -26.6013 12.7389 64753.7
12.563 -29.3503 11.0158 65080.9
4.52872 23.4406 15.1196 67611.8
5.07277 20.3405 16.2979 63842.1
12.3318 20.8942 15.3707 66771.3
12.8929 22.9982 14.4929 67401.6
-26.0016 -15.4236 12.8567 64984.6
-27.5311 -21.4575 10.8889 64769
0.298444 -49.1603 -1.30183 55053.8
-4.71146 -45.921 2.97406 63093.8
-5.85193 -46.5672 2.44245 56935.6
-6.02008 -49.336 -0.549711 54566.3
30.8984 6.18342 11.6635 65545.6
31.3145 9.35506 10.8026 59741.2
28.7974 3.40534 12.9017 66673.6
-26.0565 -12.3172 13.3386 67314.5
-28.1867 -11.7149 12.572 66575.2
-32.3087 -12.3427 10.1548 66450.8
-9.1811 -17.558 16.0621 64479.1
-10.0189 -15.7331 16.3723 65745.9
-9.09009 -35.9092 9.58198 65339.5
-6.26109 -34.4078 10.4627 65077.5
-5.94479 -31.5941 11.7136 65386.3
26.6671 -26.6161 7.38677 59228
25.2322 -27.4237 7.63088 59277.4
31.8984 -1.65985 11.3276 61657.9
33.7498 -1.60197 10.3732 63401.7
35.0638 1.32453 9.5852 61131.2
-2.08151 -30.2302 12.3837 67680
0.044868 -27.5575 13.3338 67769.5
-3.70119 -40.3052 7.23924 66910.5
-4.06731 -41.5166 6.40997 64784.8
-3.27998 -43.8242 4.5872 61558.6
0.856609 -45.0509 2.88995 59280
-0.155335 -14.6936 16.7513 64503.4
6.37277 -16.8158 16.0579 67012.6
8.0674 -12.8375 16.5692 63684.4
5.5011 -10.213 17.0125 63611.3
-3.67823 -37.0405 9.13768 66127.2
10.9936 -20.6167 14.6909 67542.9
6.52649 -18.931 15.6039 67215.1
3.99157 -21.9345 14.8998 65915.1
6.7478 -26.0915 13.3202 66730.7
31.1588 16.4483 8.39592 67134
34.3968 9.52552 8.58697 61468.1
35.846 11.8504 6.72965 60829.3
2.57668 7.1799 18.6329 66510.7
-4.11865 10.6069 18.4466 67325.5
2.3258 5.52203 18.6595 67708.3
13.2372 -18.2951 14.9612 66128.9
10.5302 -13.2168 16.3871 61507.9
20.9661 28.3237 8.99296 65904.2
25.8911 21.4819 9.59476 65794.5
20.2461 22.9286 12.1112 66921.3
18.4017 27.0709 10.9133 66511.8
5.01112 -29.4038 12.2885 65601.3
5.39696 -31.4922 11.2694 67057.3
11.5921 -32.0566 9.81375 65777.1
-25.1094 12.2788 15.4084 67183.4
-26.9129 9.59445 15.0935 63887.7
-2.26174 -17.524 16.2454 64452.3
3.72401 30.9733 12.3268 67438.8
3.11528 32.5064 11.8017 65515.2
3.83557 28.7705 13.0751 65322.7
-36.5243 -4.8969 7.78272 61916.2
-36.6197 -14.8309 6.6249 63251.6
-35.1794 -5.40515 8.95516 60853.5
3.65239 34.0306 11.3046 65655.8
11.3667 31.5684 11.1818 64571.8
12.4484 33.1089 10.29 64832.1
8.45345 -6.58828 17.5071 67296
12.7705 1.4778 17.6658 59720.6
5.28139 3.44942 18.587 67958.5
11.164 5.8519 18.0929 65724.4
4.64097 9.60969 18.4701 67082.6
17.5118 -41.1018 1.7197 56078.4
4.00787 19.167 16.7133 63953.9
-5.21283 34.6482 10.2673 63092.4
11.6902 30.0842 11.7102 67176.6
-28.6859 17.4749 12.559 66996
19.4663 28.0428 9.91731 65440.2
-24.4021 -5.4514 15.131 67227.3
-28.37 -8.19473 13.0105 66859.4
-13.5665 35.0634 8.09969 66333.7
-32.2164 -24.7158 8.06404 63344.6
-35.7895 -27.7156 5.44838 53133.4
-30.2356 -31.1082 7.41808 62550.1
-28.8355 -28.9024 8.61889 65019.4
-30.4201 -25.7594 8.72069 62845.7
2.19265 -47.7718 -0.100473 60830.2
-26.3308 -2.45107 14.8271 63328.7
-29.7136 -2.51881 13.1228 66534.5
-30.5048 -3.22448 12.581 64876.1
13.8078 -18.561 14.7766 66262.2
12.9499 1.69479 17.6503 62647
37.0788 5.06928 7.75664 52509
36.0589 1.84709 8.95046 64210.9
37.8236 -5.67871 8.17802 65643.4
36.1139 -4.87668 9.10033 65795.8
-12.6814 -39.7625 7.47633 65507.6
-10.1891 -38.157 8.43273 65417.5
17.9415 30.4531 9.41332 67220.9
40.7111 -3.31073 6.51735 62858.7
-7.86896 -40.7408 7.09668 66883.8
43.6569 -1.18391 4.29073 59381.2
41.4384 -3.24661 6.04139 64178.8
38.1142 13.7419 4.0309 59049.5
40.3872 5.51378 5.20958 59477.4
-4.44724 -10.6225 17.5171 62309.6
-6.63087 -13.3106 17.1455 67697.1
-27.2335 -28.8742 9.27275 66376.8
17.2798 -31.6097 8.63402 66379.2
-34.2918 -20.7435 7.44751 62502.1
-37.009 -21.7113 5.6497 60795.2
-1.66131 21.8665 15.7591 65354.3
23.4547 -26.913 8.71685 65037.8
-30.1392 17.4398 11.7369 67263.2
-31.985 10.2525 12.1341 66627.8
-29.898 9.77448 13.6187 67003
-31.5509 1.41261 12.5324 66651.1
-34.3497 2.76448 10.519 66333
-29.7049 3.15648 13.9331 67538.9
-9.51513 -45.1611 3.86738 57742.5
-29.197 24.5578 8.40128 65576.3
-22.9838 -34.8711 8.45282 64296.1
6 277 290 291 292 236 235 3658
6 235 234 274 275 276 277 3269
4 189 190 191 192 3409
4 192 191 286 287 3363
7 11 260 249 36 40 68 7 3641
5 318 148 16 15 312 3608
7 287 108 31 35 278 189 192 3373
5 249 260 261 262 247 3378
6 274 284 285 271 270 275 3385
6 269 270 271 272 170 169 3420
6 305 272 271 285 166 165 3281
7 247 248 34 33 37 36 249 3371
6 232 231 171 170 272 305 3421
6 232 305 165 164 306 229 3283
6 229 230 122 121 231 232 3657
6 230 229 306 329 308 307 3271
7 307 308 140 139 309 281 283 3598
7 286 315 289 288 109 108 287 3584
6 311 174 173 309 139 138 3447
6 138 137 193 239 238 311 3424
6 257 263 264 210 150 153 3632
6 278 35 34 248 279 280 3396
6 153 59 58 255 256 257 3603
6 176 237 238 239 240 177 3392
5 324 268 267 244 243 3372
5 207 206 268 324 215 3528
5 176 177 178 179 180 3394
6 298 180 179 313 303 296 3395
5 302 297 296 303 304 3397
6 206 205 265 266 267 268 3656
6 48 44 43 183 90 93 3338
8 203 204 205 206 207 201 200 208 3544
4 204 273 265 205 3645
7 150 151 152 74 60 59 153 3605
6 273 204 203 263 257 256 3630
6 208 291 290 264 263 203 3403
5 221 187 188 224 225 3597
8 93 67 52 51 124 26 30 48 3588
6 211 210 264 290 277 276 3410
7 276 275 270 269 295 212 211 3279
4 213 253 152 151 3357
5 214 202 201 207 215 3500
0 -1
6 151 150 210 211 212 213 3374
6 197 198 199 200 201 202 3290
5 200 199 292 291 208 3377
6 233 132 131 234 235 236 3451
5 225 77 76 222 221 3351
6 213 212 295 344 254 253 3615
6 274 234 131 130 328 284 3453
7 101 100 161 187 221 222 223 3470
6 127 126 166 285 284 328 3292
6 187 161 160 6 5 188 3282
5 167 168 169 170 171 3648
6 164 165 166 126 117 116 3307
6 98 158 159 143 142 99 3602
5 147 146 0 6 160 3624
6 142 143 144 145 146 147 3478
6 136 137 138 139 140 141 3295
6 0 146 145 209 10 1 3631
5 230 307 283 123 122 3284
5 209 145 144 332 333 3480
6 109 288 240 239 193 110 3308
6 333 261 260 11 10 209 3644
6 336 313 179 178 289 315 3491
6 261 333 332 337 331 262 3487
4 159 158 339 340 3661
6 330 279 248 247 262 331 3655
5 341 280 279 330 342 3312
5 280 341 190 189 278 3436
6 281 282 28 27 123 283 3650
5 281 309 173 172 282 3380
5 202 214 310 228 197 3471
7 199 198 227 346 233 236 292 3448
7 344 343 49 55 163 162 254 3358
4 320 319 347 348 3462
5 348 347 216 220 300 3464
6 299 300 220 219 252 301 3465
6 238 237 349 175 174 311 3381
6 116 118 135 329 306 164 3483
6 295 269 169 168 343 344 3634
6 134 141 140 308 329 135 3459
8 180 298 13 12 18 349 237 176 3659
5 296 297 14 13 298 3660
6 110 193 137 136 115 107 3488
5 15 14 297 302 312 3652
5 177 240 288 289 178 3490
4 336 304 303 313 3311
5 319 320 321 322 323 3481
7 343 168 167 120 119 50 49 3616
6 299 301 327 326 354 355 3304
5 355 354 356 353 352 3472
5 246 245 357 155 154 3356
6 323 242 217 216 347 319 3482
5 216 217 218 219 220 3484
6 357 245 244 267 266 338 3613
5 252 251 317 327 301 3486
6 294 293 314 351 352 353 3489
6 99 142 147 160 161 100 3475
4 130 125 127 328 3511
4 124 51 50 119 3606
6 159 340 337 332 144 143 3335
6 219 218 241 250 251 252 3498
6 141 134 39 38 115 136 3517
6 181 356 354 326 325 182 3316
5 356 181 184 294 353 3317
6 331 337 340 339 342 330 3550
5 351 314 129 128 358 3319
6 338 335 334 156 155 357 3585
4 359 345 322 321 3668
7 345 114 112 111 242 323 322 3507
6 111 113 241 218 217 242 3519
8 316 317 251 250 97 96 105 106 3330
5 325 326 327 317 316 3499
6 181 182 91 90 183 184 3521
5 89 88 129 314 293 3522
5 128 87 86 186 358 3510
7 338 266 265 273 256 255 335 3614
7 255 58 57 103 195 334 335 3353
4 228 310 80 79 3538
6 345 359 196 102 104 114 3669
7 79 78 226 227 198 197 228 3334
7 250 241 113 73 72 94 97 3534
5 346 227 226 259 350 3574
5 350 133 132 233 346 3542
6 106 92 91 182 325 316 3520
7 293 294 184 183 43 47 89 3536
8 41 42 82 125 130 131 132 133 3336
5 87 128 129 88 83 3523
6 125 82 81 117 126 127 3513
8 119 120 121 122 123 27 26 124 3636
6 116 117 81 70 69 118 3514
7 118 69 68 40 39 134 135 3552
6 33 32 107 115 38 37 3554
5 62 112 114 104 56 3532
6 111 112 62 61 73 113 3533
6 107 32 31 108 109 110 3556
6 105 54 53 66 92 106 3551
5 86 85 149 185 186 3539
5 194 195 103 102 196 3547
5 102 103 57 56 104 3548
4 98 99 100 101 3596
4 94 95 96 97 3535
6 90 91 92 66 67 93 3337
6 47 46 65 83 88 89 3553
7 83 65 64 84 85 86 87 3555
6 42 9 8 70 81 82 3577
7 133 350 259 258 4 3 41 3359
6 75 76 77 78 79 80 3633
5 157 156 334 195 194 3573
6 71 72 73 61 60 74 3563
6 94 72 71 162 163 95 3564
5 7 68 69 70 8 3579
6 105 96 95 163 55 54 3565
4 66 53 52 67 3566
6 22 21 63 64 65 46 3578
7 56 57 58 59 60 61 62 3575
6 74 152 253 254 162 71 3346
7 49 50 51 52 53 54 55 3354
5 48 30 29 45 44 3589
7 43 44 45 23 22 46 47 3347
5 64 63 20 19 84 3591
7 16 148 149 85 84 19 17 3348
4 148 318 185 149 3569
7 226 78 77 225 224 258 259 3635
4 154 155 156 157 3345
5 41 3 2 9 42 3360
5 36 37 38 39 40 3581
5 31 32 33 34 35 3362
5 26 27 28 29 30 3619
5 21 22 23 24 25 3607
7 20 63 21 25 175 349 18 3638
5 5 4 258 224 188 3637
7 29 28 282 172 24 23 45 3620
5 18 12 17 19 20 3364
6 12 13 14 15 16 17 3365
7 7 8 9 2 1 10 11 3369
4 243 244 245 246 3628
6 172 173 174 175 25 24 3651
7 0 1 2 3 4 5 6 3662
5 171 231 121 120 167 3649
